<?xml version="1.0" encoding="utf-8" standalone="no"?>
<!DOCTYPE svg PUBLIC "-//W3C//DTD SVG 1.1//EN"
  "http://www.w3.org/Graphics/SVG/1.1/DTD/svg11.dtd">
<svg xmlns:xlink="http://www.w3.org/1999/xlink" width="460.8pt" height="345.6pt" viewBox="0 0 460.8 345.6" xmlns="http://www.w3.org/2000/svg" version="1.1">
 <metadata>
  <rdf:RDF xmlns:dc="http://purl.org/dc/elements/1.1/" xmlns:cc="http://creativecommons.org/ns#" xmlns:rdf="http://www.w3.org/1999/02/22-rdf-syntax-ns#">
   <cc:Work>
    <dc:type rdf:resource="http://purl.org/dc/dcmitype/StillImage"/>
    <dc:date>2024-11-03T21:06:49.858775</dc:date>
    <dc:format>image/svg+xml</dc:format>
    <dc:creator>
     <cc:Agent>
      <dc:title>Matplotlib v3.9.2, https://matplotlib.org/</dc:title>
     </cc:Agent>
    </dc:creator>
   </cc:Work>
  </rdf:RDF>
 </metadata>
 <defs>
  <style type="text/css">*{stroke-linejoin: round; stroke-linecap: butt}</style>
 </defs>
 <g id="figure_1">
  <g id="patch_1">
   <path d="M 0 345.6 
L 460.8 345.6 
L 460.8 0 
L 0 0 
z
" style="fill: #ffffff"/>
  </g>
  <g id="axes_1">
   <g id="patch_2">
    <path d="M 57.6 307.584 
L 414.72 307.584 
L 414.72 41.472 
L 57.6 41.472 
z
" style="fill: #ffffff"/>
   </g>
   <g id="matplotlib.axis_1">
    <g id="xtick_1">
     <g id="line2d_1">
      <defs>
       <path id="mbb617caa4b" d="M 0 0 
L 0 3.5 
" style="stroke: #000000; stroke-width: 0.8"/>
      </defs>
      <g>
       <use xlink:href="#mbb617caa4b" x="73.832727" y="307.584" style="stroke: #000000; stroke-width: 0.8"/>
      </g>
     </g>
     <g id="text_1">
      <!-- 0.00000 -->
      <g transform="translate(53.156165 322.182437) scale(0.1 -0.1)">
       <defs>
        <path id="DejaVuSans-30" d="M 2034 4250 
Q 1547 4250 1301 3770 
Q 1056 3291 1056 2328 
Q 1056 1369 1301 889 
Q 1547 409 2034 409 
Q 2525 409 2770 889 
Q 3016 1369 3016 2328 
Q 3016 3291 2770 3770 
Q 2525 4250 2034 4250 
z
M 2034 4750 
Q 2819 4750 3233 4129 
Q 3647 3509 3647 2328 
Q 3647 1150 3233 529 
Q 2819 -91 2034 -91 
Q 1250 -91 836 529 
Q 422 1150 422 2328 
Q 422 3509 836 4129 
Q 1250 4750 2034 4750 
z
" transform="scale(0.015625)"/>
        <path id="DejaVuSans-2e" d="M 684 794 
L 1344 794 
L 1344 0 
L 684 0 
L 684 794 
z
" transform="scale(0.015625)"/>
       </defs>
       <use xlink:href="#DejaVuSans-30"/>
       <use xlink:href="#DejaVuSans-2e" x="63.623047"/>
       <use xlink:href="#DejaVuSans-30" x="95.410156"/>
       <use xlink:href="#DejaVuSans-30" x="159.033203"/>
       <use xlink:href="#DejaVuSans-30" x="222.65625"/>
       <use xlink:href="#DejaVuSans-30" x="286.279297"/>
       <use xlink:href="#DejaVuSans-30" x="349.902344"/>
      </g>
     </g>
    </g>
    <g id="xtick_2">
     <g id="line2d_2">
      <g>
       <use xlink:href="#mbb617caa4b" x="119.164145" y="307.584" style="stroke: #000000; stroke-width: 0.8"/>
      </g>
     </g>
     <g id="text_2">
      <!-- 0.00005 -->
      <g transform="translate(98.487582 322.182437) scale(0.1 -0.1)">
       <defs>
        <path id="DejaVuSans-35" d="M 691 4666 
L 3169 4666 
L 3169 4134 
L 1269 4134 
L 1269 2991 
Q 1406 3038 1543 3061 
Q 1681 3084 1819 3084 
Q 2600 3084 3056 2656 
Q 3513 2228 3513 1497 
Q 3513 744 3044 326 
Q 2575 -91 1722 -91 
Q 1428 -91 1123 -41 
Q 819 9 494 109 
L 494 744 
Q 775 591 1075 516 
Q 1375 441 1709 441 
Q 2250 441 2565 725 
Q 2881 1009 2881 1497 
Q 2881 1984 2565 2268 
Q 2250 2553 1709 2553 
Q 1456 2553 1204 2497 
Q 953 2441 691 2322 
L 691 4666 
z
" transform="scale(0.015625)"/>
       </defs>
       <use xlink:href="#DejaVuSans-30"/>
       <use xlink:href="#DejaVuSans-2e" x="63.623047"/>
       <use xlink:href="#DejaVuSans-30" x="95.410156"/>
       <use xlink:href="#DejaVuSans-30" x="159.033203"/>
       <use xlink:href="#DejaVuSans-30" x="222.65625"/>
       <use xlink:href="#DejaVuSans-30" x="286.279297"/>
       <use xlink:href="#DejaVuSans-35" x="349.902344"/>
      </g>
     </g>
    </g>
    <g id="xtick_3">
     <g id="line2d_3">
      <g>
       <use xlink:href="#mbb617caa4b" x="164.495562" y="307.584" style="stroke: #000000; stroke-width: 0.8"/>
      </g>
     </g>
     <g id="text_3">
      <!-- 0.00010 -->
      <g transform="translate(143.819 322.182437) scale(0.1 -0.1)">
       <defs>
        <path id="DejaVuSans-31" d="M 794 531 
L 1825 531 
L 1825 4091 
L 703 3866 
L 703 4441 
L 1819 4666 
L 2450 4666 
L 2450 531 
L 3481 531 
L 3481 0 
L 794 0 
L 794 531 
z
" transform="scale(0.015625)"/>
       </defs>
       <use xlink:href="#DejaVuSans-30"/>
       <use xlink:href="#DejaVuSans-2e" x="63.623047"/>
       <use xlink:href="#DejaVuSans-30" x="95.410156"/>
       <use xlink:href="#DejaVuSans-30" x="159.033203"/>
       <use xlink:href="#DejaVuSans-30" x="222.65625"/>
       <use xlink:href="#DejaVuSans-31" x="286.279297"/>
       <use xlink:href="#DejaVuSans-30" x="349.902344"/>
      </g>
     </g>
    </g>
    <g id="xtick_4">
     <g id="line2d_4">
      <g>
       <use xlink:href="#mbb617caa4b" x="209.82698" y="307.584" style="stroke: #000000; stroke-width: 0.8"/>
      </g>
     </g>
     <g id="text_4">
      <!-- 0.00015 -->
      <g transform="translate(189.150417 322.182437) scale(0.1 -0.1)">
       <use xlink:href="#DejaVuSans-30"/>
       <use xlink:href="#DejaVuSans-2e" x="63.623047"/>
       <use xlink:href="#DejaVuSans-30" x="95.410156"/>
       <use xlink:href="#DejaVuSans-30" x="159.033203"/>
       <use xlink:href="#DejaVuSans-30" x="222.65625"/>
       <use xlink:href="#DejaVuSans-31" x="286.279297"/>
       <use xlink:href="#DejaVuSans-35" x="349.902344"/>
      </g>
     </g>
    </g>
    <g id="xtick_5">
     <g id="line2d_5">
      <g>
       <use xlink:href="#mbb617caa4b" x="255.158397" y="307.584" style="stroke: #000000; stroke-width: 0.8"/>
      </g>
     </g>
     <g id="text_5">
      <!-- 0.00020 -->
      <g transform="translate(234.481835 322.182437) scale(0.1 -0.1)">
       <defs>
        <path id="DejaVuSans-32" d="M 1228 531 
L 3431 531 
L 3431 0 
L 469 0 
L 469 531 
Q 828 903 1448 1529 
Q 2069 2156 2228 2338 
Q 2531 2678 2651 2914 
Q 2772 3150 2772 3378 
Q 2772 3750 2511 3984 
Q 2250 4219 1831 4219 
Q 1534 4219 1204 4116 
Q 875 4013 500 3803 
L 500 4441 
Q 881 4594 1212 4672 
Q 1544 4750 1819 4750 
Q 2544 4750 2975 4387 
Q 3406 4025 3406 3419 
Q 3406 3131 3298 2873 
Q 3191 2616 2906 2266 
Q 2828 2175 2409 1742 
Q 1991 1309 1228 531 
z
" transform="scale(0.015625)"/>
       </defs>
       <use xlink:href="#DejaVuSans-30"/>
       <use xlink:href="#DejaVuSans-2e" x="63.623047"/>
       <use xlink:href="#DejaVuSans-30" x="95.410156"/>
       <use xlink:href="#DejaVuSans-30" x="159.033203"/>
       <use xlink:href="#DejaVuSans-30" x="222.65625"/>
       <use xlink:href="#DejaVuSans-32" x="286.279297"/>
       <use xlink:href="#DejaVuSans-30" x="349.902344"/>
      </g>
     </g>
    </g>
    <g id="xtick_6">
     <g id="line2d_6">
      <g>
       <use xlink:href="#mbb617caa4b" x="300.489814" y="307.584" style="stroke: #000000; stroke-width: 0.8"/>
      </g>
     </g>
     <g id="text_6">
      <!-- 0.00025 -->
      <g transform="translate(279.813252 322.182437) scale(0.1 -0.1)">
       <use xlink:href="#DejaVuSans-30"/>
       <use xlink:href="#DejaVuSans-2e" x="63.623047"/>
       <use xlink:href="#DejaVuSans-30" x="95.410156"/>
       <use xlink:href="#DejaVuSans-30" x="159.033203"/>
       <use xlink:href="#DejaVuSans-30" x="222.65625"/>
       <use xlink:href="#DejaVuSans-32" x="286.279297"/>
       <use xlink:href="#DejaVuSans-35" x="349.902344"/>
      </g>
     </g>
    </g>
    <g id="xtick_7">
     <g id="line2d_7">
      <g>
       <use xlink:href="#mbb617caa4b" x="345.821232" y="307.584" style="stroke: #000000; stroke-width: 0.8"/>
      </g>
     </g>
     <g id="text_7">
      <!-- 0.00030 -->
      <g transform="translate(325.144669 322.182437) scale(0.1 -0.1)">
       <defs>
        <path id="DejaVuSans-33" d="M 2597 2516 
Q 3050 2419 3304 2112 
Q 3559 1806 3559 1356 
Q 3559 666 3084 287 
Q 2609 -91 1734 -91 
Q 1441 -91 1130 -33 
Q 819 25 488 141 
L 488 750 
Q 750 597 1062 519 
Q 1375 441 1716 441 
Q 2309 441 2620 675 
Q 2931 909 2931 1356 
Q 2931 1769 2642 2001 
Q 2353 2234 1838 2234 
L 1294 2234 
L 1294 2753 
L 1863 2753 
Q 2328 2753 2575 2939 
Q 2822 3125 2822 3475 
Q 2822 3834 2567 4026 
Q 2313 4219 1838 4219 
Q 1578 4219 1281 4162 
Q 984 4106 628 3988 
L 628 4550 
Q 988 4650 1302 4700 
Q 1616 4750 1894 4750 
Q 2613 4750 3031 4423 
Q 3450 4097 3450 3541 
Q 3450 3153 3228 2886 
Q 3006 2619 2597 2516 
z
" transform="scale(0.015625)"/>
       </defs>
       <use xlink:href="#DejaVuSans-30"/>
       <use xlink:href="#DejaVuSans-2e" x="63.623047"/>
       <use xlink:href="#DejaVuSans-30" x="95.410156"/>
       <use xlink:href="#DejaVuSans-30" x="159.033203"/>
       <use xlink:href="#DejaVuSans-30" x="222.65625"/>
       <use xlink:href="#DejaVuSans-33" x="286.279297"/>
       <use xlink:href="#DejaVuSans-30" x="349.902344"/>
      </g>
     </g>
    </g>
    <g id="xtick_8">
     <g id="line2d_8">
      <g>
       <use xlink:href="#mbb617caa4b" x="391.152649" y="307.584" style="stroke: #000000; stroke-width: 0.8"/>
      </g>
     </g>
     <g id="text_8">
      <!-- 0.00035 -->
      <g transform="translate(370.476087 322.182437) scale(0.1 -0.1)">
       <use xlink:href="#DejaVuSans-30"/>
       <use xlink:href="#DejaVuSans-2e" x="63.623047"/>
       <use xlink:href="#DejaVuSans-30" x="95.410156"/>
       <use xlink:href="#DejaVuSans-30" x="159.033203"/>
       <use xlink:href="#DejaVuSans-30" x="222.65625"/>
       <use xlink:href="#DejaVuSans-33" x="286.279297"/>
       <use xlink:href="#DejaVuSans-35" x="349.902344"/>
      </g>
     </g>
    </g>
    <g id="text_9">
     <!-- ompPBA Concentration [M] -->
     <g transform="translate(168.425625 335.860562) scale(0.1 -0.1)">
      <defs>
       <path id="DejaVuSans-6f" d="M 1959 3097 
Q 1497 3097 1228 2736 
Q 959 2375 959 1747 
Q 959 1119 1226 758 
Q 1494 397 1959 397 
Q 2419 397 2687 759 
Q 2956 1122 2956 1747 
Q 2956 2369 2687 2733 
Q 2419 3097 1959 3097 
z
M 1959 3584 
Q 2709 3584 3137 3096 
Q 3566 2609 3566 1747 
Q 3566 888 3137 398 
Q 2709 -91 1959 -91 
Q 1206 -91 779 398 
Q 353 888 353 1747 
Q 353 2609 779 3096 
Q 1206 3584 1959 3584 
z
" transform="scale(0.015625)"/>
       <path id="DejaVuSans-6d" d="M 3328 2828 
Q 3544 3216 3844 3400 
Q 4144 3584 4550 3584 
Q 5097 3584 5394 3201 
Q 5691 2819 5691 2113 
L 5691 0 
L 5113 0 
L 5113 2094 
Q 5113 2597 4934 2840 
Q 4756 3084 4391 3084 
Q 3944 3084 3684 2787 
Q 3425 2491 3425 1978 
L 3425 0 
L 2847 0 
L 2847 2094 
Q 2847 2600 2669 2842 
Q 2491 3084 2119 3084 
Q 1678 3084 1418 2786 
Q 1159 2488 1159 1978 
L 1159 0 
L 581 0 
L 581 3500 
L 1159 3500 
L 1159 2956 
Q 1356 3278 1631 3431 
Q 1906 3584 2284 3584 
Q 2666 3584 2933 3390 
Q 3200 3197 3328 2828 
z
" transform="scale(0.015625)"/>
       <path id="DejaVuSans-70" d="M 1159 525 
L 1159 -1331 
L 581 -1331 
L 581 3500 
L 1159 3500 
L 1159 2969 
Q 1341 3281 1617 3432 
Q 1894 3584 2278 3584 
Q 2916 3584 3314 3078 
Q 3713 2572 3713 1747 
Q 3713 922 3314 415 
Q 2916 -91 2278 -91 
Q 1894 -91 1617 61 
Q 1341 213 1159 525 
z
M 3116 1747 
Q 3116 2381 2855 2742 
Q 2594 3103 2138 3103 
Q 1681 3103 1420 2742 
Q 1159 2381 1159 1747 
Q 1159 1113 1420 752 
Q 1681 391 2138 391 
Q 2594 391 2855 752 
Q 3116 1113 3116 1747 
z
" transform="scale(0.015625)"/>
       <path id="DejaVuSans-50" d="M 1259 4147 
L 1259 2394 
L 2053 2394 
Q 2494 2394 2734 2622 
Q 2975 2850 2975 3272 
Q 2975 3691 2734 3919 
Q 2494 4147 2053 4147 
L 1259 4147 
z
M 628 4666 
L 2053 4666 
Q 2838 4666 3239 4311 
Q 3641 3956 3641 3272 
Q 3641 2581 3239 2228 
Q 2838 1875 2053 1875 
L 1259 1875 
L 1259 0 
L 628 0 
L 628 4666 
z
" transform="scale(0.015625)"/>
       <path id="DejaVuSans-42" d="M 1259 2228 
L 1259 519 
L 2272 519 
Q 2781 519 3026 730 
Q 3272 941 3272 1375 
Q 3272 1813 3026 2020 
Q 2781 2228 2272 2228 
L 1259 2228 
z
M 1259 4147 
L 1259 2741 
L 2194 2741 
Q 2656 2741 2882 2914 
Q 3109 3088 3109 3444 
Q 3109 3797 2882 3972 
Q 2656 4147 2194 4147 
L 1259 4147 
z
M 628 4666 
L 2241 4666 
Q 2963 4666 3353 4366 
Q 3744 4066 3744 3513 
Q 3744 3084 3544 2831 
Q 3344 2578 2956 2516 
Q 3422 2416 3680 2098 
Q 3938 1781 3938 1306 
Q 3938 681 3513 340 
Q 3088 0 2303 0 
L 628 0 
L 628 4666 
z
" transform="scale(0.015625)"/>
       <path id="DejaVuSans-41" d="M 2188 4044 
L 1331 1722 
L 3047 1722 
L 2188 4044 
z
M 1831 4666 
L 2547 4666 
L 4325 0 
L 3669 0 
L 3244 1197 
L 1141 1197 
L 716 0 
L 50 0 
L 1831 4666 
z
" transform="scale(0.015625)"/>
       <path id="DejaVuSans-20" transform="scale(0.015625)"/>
       <path id="DejaVuSans-43" d="M 4122 4306 
L 4122 3641 
Q 3803 3938 3442 4084 
Q 3081 4231 2675 4231 
Q 1875 4231 1450 3742 
Q 1025 3253 1025 2328 
Q 1025 1406 1450 917 
Q 1875 428 2675 428 
Q 3081 428 3442 575 
Q 3803 722 4122 1019 
L 4122 359 
Q 3791 134 3420 21 
Q 3050 -91 2638 -91 
Q 1578 -91 968 557 
Q 359 1206 359 2328 
Q 359 3453 968 4101 
Q 1578 4750 2638 4750 
Q 3056 4750 3426 4639 
Q 3797 4528 4122 4306 
z
" transform="scale(0.015625)"/>
       <path id="DejaVuSans-6e" d="M 3513 2113 
L 3513 0 
L 2938 0 
L 2938 2094 
Q 2938 2591 2744 2837 
Q 2550 3084 2163 3084 
Q 1697 3084 1428 2787 
Q 1159 2491 1159 1978 
L 1159 0 
L 581 0 
L 581 3500 
L 1159 3500 
L 1159 2956 
Q 1366 3272 1645 3428 
Q 1925 3584 2291 3584 
Q 2894 3584 3203 3211 
Q 3513 2838 3513 2113 
z
" transform="scale(0.015625)"/>
       <path id="DejaVuSans-63" d="M 3122 3366 
L 3122 2828 
Q 2878 2963 2633 3030 
Q 2388 3097 2138 3097 
Q 1578 3097 1268 2742 
Q 959 2388 959 1747 
Q 959 1106 1268 751 
Q 1578 397 2138 397 
Q 2388 397 2633 464 
Q 2878 531 3122 666 
L 3122 134 
Q 2881 22 2623 -34 
Q 2366 -91 2075 -91 
Q 1284 -91 818 406 
Q 353 903 353 1747 
Q 353 2603 823 3093 
Q 1294 3584 2113 3584 
Q 2378 3584 2631 3529 
Q 2884 3475 3122 3366 
z
" transform="scale(0.015625)"/>
       <path id="DejaVuSans-65" d="M 3597 1894 
L 3597 1613 
L 953 1613 
Q 991 1019 1311 708 
Q 1631 397 2203 397 
Q 2534 397 2845 478 
Q 3156 559 3463 722 
L 3463 178 
Q 3153 47 2828 -22 
Q 2503 -91 2169 -91 
Q 1331 -91 842 396 
Q 353 884 353 1716 
Q 353 2575 817 3079 
Q 1281 3584 2069 3584 
Q 2775 3584 3186 3129 
Q 3597 2675 3597 1894 
z
M 3022 2063 
Q 3016 2534 2758 2815 
Q 2500 3097 2075 3097 
Q 1594 3097 1305 2825 
Q 1016 2553 972 2059 
L 3022 2063 
z
" transform="scale(0.015625)"/>
       <path id="DejaVuSans-74" d="M 1172 4494 
L 1172 3500 
L 2356 3500 
L 2356 3053 
L 1172 3053 
L 1172 1153 
Q 1172 725 1289 603 
Q 1406 481 1766 481 
L 2356 481 
L 2356 0 
L 1766 0 
Q 1100 0 847 248 
Q 594 497 594 1153 
L 594 3053 
L 172 3053 
L 172 3500 
L 594 3500 
L 594 4494 
L 1172 4494 
z
" transform="scale(0.015625)"/>
       <path id="DejaVuSans-72" d="M 2631 2963 
Q 2534 3019 2420 3045 
Q 2306 3072 2169 3072 
Q 1681 3072 1420 2755 
Q 1159 2438 1159 1844 
L 1159 0 
L 581 0 
L 581 3500 
L 1159 3500 
L 1159 2956 
Q 1341 3275 1631 3429 
Q 1922 3584 2338 3584 
Q 2397 3584 2469 3576 
Q 2541 3569 2628 3553 
L 2631 2963 
z
" transform="scale(0.015625)"/>
       <path id="DejaVuSans-61" d="M 2194 1759 
Q 1497 1759 1228 1600 
Q 959 1441 959 1056 
Q 959 750 1161 570 
Q 1363 391 1709 391 
Q 2188 391 2477 730 
Q 2766 1069 2766 1631 
L 2766 1759 
L 2194 1759 
z
M 3341 1997 
L 3341 0 
L 2766 0 
L 2766 531 
Q 2569 213 2275 61 
Q 1981 -91 1556 -91 
Q 1019 -91 701 211 
Q 384 513 384 1019 
Q 384 1609 779 1909 
Q 1175 2209 1959 2209 
L 2766 2209 
L 2766 2266 
Q 2766 2663 2505 2880 
Q 2244 3097 1772 3097 
Q 1472 3097 1187 3025 
Q 903 2953 641 2809 
L 641 3341 
Q 956 3463 1253 3523 
Q 1550 3584 1831 3584 
Q 2591 3584 2966 3190 
Q 3341 2797 3341 1997 
z
" transform="scale(0.015625)"/>
       <path id="DejaVuSans-69" d="M 603 3500 
L 1178 3500 
L 1178 0 
L 603 0 
L 603 3500 
z
M 603 4863 
L 1178 4863 
L 1178 4134 
L 603 4134 
L 603 4863 
z
" transform="scale(0.015625)"/>
       <path id="DejaVuSans-5b" d="M 550 4863 
L 1875 4863 
L 1875 4416 
L 1125 4416 
L 1125 -397 
L 1875 -397 
L 1875 -844 
L 550 -844 
L 550 4863 
z
" transform="scale(0.015625)"/>
       <path id="DejaVuSans-4d" d="M 628 4666 
L 1569 4666 
L 2759 1491 
L 3956 4666 
L 4897 4666 
L 4897 0 
L 4281 0 
L 4281 4097 
L 3078 897 
L 2444 897 
L 1241 4097 
L 1241 0 
L 628 0 
L 628 4666 
z
" transform="scale(0.015625)"/>
       <path id="DejaVuSans-5d" d="M 1947 4863 
L 1947 -844 
L 622 -844 
L 622 -397 
L 1369 -397 
L 1369 4416 
L 622 4416 
L 622 4863 
L 1947 4863 
z
" transform="scale(0.015625)"/>
      </defs>
      <use xlink:href="#DejaVuSans-6f"/>
      <use xlink:href="#DejaVuSans-6d" x="61.181641"/>
      <use xlink:href="#DejaVuSans-70" x="158.59375"/>
      <use xlink:href="#DejaVuSans-50" x="222.070312"/>
      <use xlink:href="#DejaVuSans-42" x="282.373047"/>
      <use xlink:href="#DejaVuSans-41" x="350.976562"/>
      <use xlink:href="#DejaVuSans-20" x="419.384766"/>
      <use xlink:href="#DejaVuSans-43" x="451.171875"/>
      <use xlink:href="#DejaVuSans-6f" x="520.996094"/>
      <use xlink:href="#DejaVuSans-6e" x="582.177734"/>
      <use xlink:href="#DejaVuSans-63" x="645.556641"/>
      <use xlink:href="#DejaVuSans-65" x="700.537109"/>
      <use xlink:href="#DejaVuSans-6e" x="762.060547"/>
      <use xlink:href="#DejaVuSans-74" x="825.439453"/>
      <use xlink:href="#DejaVuSans-72" x="864.648438"/>
      <use xlink:href="#DejaVuSans-61" x="905.761719"/>
      <use xlink:href="#DejaVuSans-74" x="967.041016"/>
      <use xlink:href="#DejaVuSans-69" x="1006.25"/>
      <use xlink:href="#DejaVuSans-6f" x="1034.033203"/>
      <use xlink:href="#DejaVuSans-6e" x="1095.214844"/>
      <use xlink:href="#DejaVuSans-20" x="1158.59375"/>
      <use xlink:href="#DejaVuSans-5b" x="1190.380859"/>
      <use xlink:href="#DejaVuSans-4d" x="1229.394531"/>
      <use xlink:href="#DejaVuSans-5d" x="1315.673828"/>
     </g>
    </g>
   </g>
   <g id="matplotlib.axis_2">
    <g id="ytick_1">
     <g id="line2d_9">
      <defs>
       <path id="m8987e3597f" d="M 0 0 
L -3.5 0 
" style="stroke: #000000; stroke-width: 0.8"/>
      </defs>
      <g>
       <use xlink:href="#m8987e3597f" x="57.6" y="304.34318" style="stroke: #000000; stroke-width: 0.8"/>
      </g>
     </g>
     <g id="text_10">
      <!-- 0.0 -->
      <g transform="translate(34.696875 308.142399) scale(0.1 -0.1)">
       <use xlink:href="#DejaVuSans-30"/>
       <use xlink:href="#DejaVuSans-2e" x="63.623047"/>
       <use xlink:href="#DejaVuSans-30" x="95.410156"/>
      </g>
     </g>
    </g>
    <g id="ytick_2">
     <g id="line2d_10">
      <g>
       <use xlink:href="#m8987e3597f" x="57.6" y="251.48065" style="stroke: #000000; stroke-width: 0.8"/>
      </g>
     </g>
     <g id="text_11">
      <!-- 0.2 -->
      <g transform="translate(34.696875 255.279869) scale(0.1 -0.1)">
       <use xlink:href="#DejaVuSans-30"/>
       <use xlink:href="#DejaVuSans-2e" x="63.623047"/>
       <use xlink:href="#DejaVuSans-32" x="95.410156"/>
      </g>
     </g>
    </g>
    <g id="ytick_3">
     <g id="line2d_11">
      <g>
       <use xlink:href="#m8987e3597f" x="57.6" y="198.618119" style="stroke: #000000; stroke-width: 0.8"/>
      </g>
     </g>
     <g id="text_12">
      <!-- 0.4 -->
      <g transform="translate(34.696875 202.417338) scale(0.1 -0.1)">
       <defs>
        <path id="DejaVuSans-34" d="M 2419 4116 
L 825 1625 
L 2419 1625 
L 2419 4116 
z
M 2253 4666 
L 3047 4666 
L 3047 1625 
L 3713 1625 
L 3713 1100 
L 3047 1100 
L 3047 0 
L 2419 0 
L 2419 1100 
L 313 1100 
L 313 1709 
L 2253 4666 
z
" transform="scale(0.015625)"/>
       </defs>
       <use xlink:href="#DejaVuSans-30"/>
       <use xlink:href="#DejaVuSans-2e" x="63.623047"/>
       <use xlink:href="#DejaVuSans-34" x="95.410156"/>
      </g>
     </g>
    </g>
    <g id="ytick_4">
     <g id="line2d_12">
      <g>
       <use xlink:href="#m8987e3597f" x="57.6" y="145.755589" style="stroke: #000000; stroke-width: 0.8"/>
      </g>
     </g>
     <g id="text_13">
      <!-- 0.6 -->
      <g transform="translate(34.696875 149.554807) scale(0.1 -0.1)">
       <defs>
        <path id="DejaVuSans-36" d="M 2113 2584 
Q 1688 2584 1439 2293 
Q 1191 2003 1191 1497 
Q 1191 994 1439 701 
Q 1688 409 2113 409 
Q 2538 409 2786 701 
Q 3034 994 3034 1497 
Q 3034 2003 2786 2293 
Q 2538 2584 2113 2584 
z
M 3366 4563 
L 3366 3988 
Q 3128 4100 2886 4159 
Q 2644 4219 2406 4219 
Q 1781 4219 1451 3797 
Q 1122 3375 1075 2522 
Q 1259 2794 1537 2939 
Q 1816 3084 2150 3084 
Q 2853 3084 3261 2657 
Q 3669 2231 3669 1497 
Q 3669 778 3244 343 
Q 2819 -91 2113 -91 
Q 1303 -91 875 529 
Q 447 1150 447 2328 
Q 447 3434 972 4092 
Q 1497 4750 2381 4750 
Q 2619 4750 2861 4703 
Q 3103 4656 3366 4563 
z
" transform="scale(0.015625)"/>
       </defs>
       <use xlink:href="#DejaVuSans-30"/>
       <use xlink:href="#DejaVuSans-2e" x="63.623047"/>
       <use xlink:href="#DejaVuSans-36" x="95.410156"/>
      </g>
     </g>
    </g>
    <g id="ytick_5">
     <g id="line2d_13">
      <g>
       <use xlink:href="#m8987e3597f" x="57.6" y="92.893058" style="stroke: #000000; stroke-width: 0.8"/>
      </g>
     </g>
     <g id="text_14">
      <!-- 0.8 -->
      <g transform="translate(34.696875 96.692277) scale(0.1 -0.1)">
       <defs>
        <path id="DejaVuSans-38" d="M 2034 2216 
Q 1584 2216 1326 1975 
Q 1069 1734 1069 1313 
Q 1069 891 1326 650 
Q 1584 409 2034 409 
Q 2484 409 2743 651 
Q 3003 894 3003 1313 
Q 3003 1734 2745 1975 
Q 2488 2216 2034 2216 
z
M 1403 2484 
Q 997 2584 770 2862 
Q 544 3141 544 3541 
Q 544 4100 942 4425 
Q 1341 4750 2034 4750 
Q 2731 4750 3128 4425 
Q 3525 4100 3525 3541 
Q 3525 3141 3298 2862 
Q 3072 2584 2669 2484 
Q 3125 2378 3379 2068 
Q 3634 1759 3634 1313 
Q 3634 634 3220 271 
Q 2806 -91 2034 -91 
Q 1263 -91 848 271 
Q 434 634 434 1313 
Q 434 1759 690 2068 
Q 947 2378 1403 2484 
z
M 1172 3481 
Q 1172 3119 1398 2916 
Q 1625 2713 2034 2713 
Q 2441 2713 2670 2916 
Q 2900 3119 2900 3481 
Q 2900 3844 2670 4047 
Q 2441 4250 2034 4250 
Q 1625 4250 1398 4047 
Q 1172 3844 1172 3481 
z
" transform="scale(0.015625)"/>
       </defs>
       <use xlink:href="#DejaVuSans-30"/>
       <use xlink:href="#DejaVuSans-2e" x="63.623047"/>
       <use xlink:href="#DejaVuSans-38" x="95.410156"/>
      </g>
     </g>
    </g>
    <g id="text_15">
     <!-- Absorbance -->
     <g transform="translate(28.617187 204.074875) rotate(-90) scale(0.1 -0.1)">
      <defs>
       <path id="DejaVuSans-62" d="M 3116 1747 
Q 3116 2381 2855 2742 
Q 2594 3103 2138 3103 
Q 1681 3103 1420 2742 
Q 1159 2381 1159 1747 
Q 1159 1113 1420 752 
Q 1681 391 2138 391 
Q 2594 391 2855 752 
Q 3116 1113 3116 1747 
z
M 1159 2969 
Q 1341 3281 1617 3432 
Q 1894 3584 2278 3584 
Q 2916 3584 3314 3078 
Q 3713 2572 3713 1747 
Q 3713 922 3314 415 
Q 2916 -91 2278 -91 
Q 1894 -91 1617 61 
Q 1341 213 1159 525 
L 1159 0 
L 581 0 
L 581 4863 
L 1159 4863 
L 1159 2969 
z
" transform="scale(0.015625)"/>
       <path id="DejaVuSans-73" d="M 2834 3397 
L 2834 2853 
Q 2591 2978 2328 3040 
Q 2066 3103 1784 3103 
Q 1356 3103 1142 2972 
Q 928 2841 928 2578 
Q 928 2378 1081 2264 
Q 1234 2150 1697 2047 
L 1894 2003 
Q 2506 1872 2764 1633 
Q 3022 1394 3022 966 
Q 3022 478 2636 193 
Q 2250 -91 1575 -91 
Q 1294 -91 989 -36 
Q 684 19 347 128 
L 347 722 
Q 666 556 975 473 
Q 1284 391 1588 391 
Q 1994 391 2212 530 
Q 2431 669 2431 922 
Q 2431 1156 2273 1281 
Q 2116 1406 1581 1522 
L 1381 1569 
Q 847 1681 609 1914 
Q 372 2147 372 2553 
Q 372 3047 722 3315 
Q 1072 3584 1716 3584 
Q 2034 3584 2315 3537 
Q 2597 3491 2834 3397 
z
" transform="scale(0.015625)"/>
      </defs>
      <use xlink:href="#DejaVuSans-41"/>
      <use xlink:href="#DejaVuSans-62" x="68.408203"/>
      <use xlink:href="#DejaVuSans-73" x="131.884766"/>
      <use xlink:href="#DejaVuSans-6f" x="183.984375"/>
      <use xlink:href="#DejaVuSans-72" x="245.166016"/>
      <use xlink:href="#DejaVuSans-62" x="286.279297"/>
      <use xlink:href="#DejaVuSans-61" x="349.755859"/>
      <use xlink:href="#DejaVuSans-6e" x="411.035156"/>
      <use xlink:href="#DejaVuSans-63" x="474.414062"/>
      <use xlink:href="#DejaVuSans-65" x="529.394531"/>
     </g>
    </g>
   </g>
   <g id="line2d_14">
    <defs>
     <path id="md161470ffb" d="M 0 1.5 
C 0.397805 1.5 0.77937 1.341951 1.06066 1.06066 
C 1.341951 0.77937 1.5 0.397805 1.5 0 
C 1.5 -0.397805 1.341951 -0.77937 1.06066 -1.06066 
C 0.77937 -1.341951 0.397805 -1.5 0 -1.5 
C -0.397805 -1.5 -0.77937 -1.341951 -1.06066 -1.06066 
C -1.341951 -0.77937 -1.5 -0.397805 -1.5 0 
C -1.5 0.397805 -1.341951 0.77937 -1.06066 1.06066 
C -0.77937 1.341951 -0.397805 1.5 0 1.5 
z
" style="stroke: #000000"/>
    </defs>
    <g clip-path="url(#p55a82ae594)">
     <use xlink:href="#md161470ffb" x="73.832727" y="239.664818" style="stroke: #000000"/>
     <use xlink:href="#md161470ffb" x="80.296987" y="234.135177" style="stroke: #000000"/>
     <use xlink:href="#md161470ffb" x="86.70685" y="228.109229" style="stroke: #000000"/>
     <use xlink:href="#md161470ffb" x="93.143911" y="221.427522" style="stroke: #000000"/>
     <use xlink:href="#md161470ffb" x="99.580972" y="214.373047" style="stroke: #000000"/>
     <use xlink:href="#md161470ffb" x="106.018034" y="206.301426" style="stroke: #000000"/>
     <use xlink:href="#md161470ffb" x="112.364432" y="196.818202" style="stroke: #000000"/>
     <use xlink:href="#md161470ffb" x="118.710831" y="188.394931" style="stroke: #000000"/>
     <use xlink:href="#md161470ffb" x="125.057229" y="179.737521" style="stroke: #000000"/>
     <use xlink:href="#md161470ffb" x="131.403627" y="171.766892" style="stroke: #000000"/>
     <use xlink:href="#md161470ffb" x="137.659363" y="164.709096" style="stroke: #000000"/>
     <use xlink:href="#md161470ffb" x="144.005761" y="157.495467" style="stroke: #000000"/>
     <use xlink:href="#md161470ffb" x="150.261497" y="151.05778" style="stroke: #000000"/>
     <use xlink:href="#md161470ffb" x="156.517233" y="143.795159" style="stroke: #000000"/>
     <use xlink:href="#md161470ffb" x="162.682305" y="138.594943" style="stroke: #000000"/>
     <use xlink:href="#md161470ffb" x="168.933508" y="132.765312" style="stroke: #000000"/>
     <use xlink:href="#md161470ffb" x="175.132126" y="128.988665" style="stroke: #000000"/>
     <use xlink:href="#md161470ffb" x="187.476778" y="124.824274" style="stroke: #000000"/>
     <use xlink:href="#md161470ffb" x="199.753432" y="120.673255" style="stroke: #000000"/>
     <use xlink:href="#md161470ffb" x="211.962089" y="117.898296" style="stroke: #000000"/>
     <use xlink:href="#md161470ffb" x="224.10275" y="115.763797" style="stroke: #000000"/>
     <use xlink:href="#md161470ffb" x="254.163826" y="114.239864" style="stroke: #000000"/>
     <use xlink:href="#md161470ffb" x="283.815106" y="113.566667" style="stroke: #000000"/>
     <use xlink:href="#md161470ffb" x="341.921823" y="112.655369" style="stroke: #000000"/>
     <use xlink:href="#md161470ffb" x="398.487273" y="112.507172" style="stroke: #000000"/>
    </g>
   </g>
   <g id="line2d_15">
    <defs>
     <path id="mb298a6a09e" d="M 0 1.5 
C 0.397805 1.5 0.77937 1.341951 1.06066 1.06066 
C 1.341951 0.77937 1.5 0.397805 1.5 0 
C 1.5 -0.397805 1.341951 -0.77937 1.06066 -1.06066 
C 0.77937 -1.341951 0.397805 -1.5 0 -1.5 
C -0.397805 -1.5 -0.77937 -1.341951 -1.06066 -1.06066 
C -1.341951 -0.77937 -1.5 -0.397805 -1.5 0 
C -1.5 0.397805 -1.341951 0.77937 -1.06066 1.06066 
C -0.77937 1.341951 -0.397805 1.5 0 1.5 
z
" style="stroke: #ff0000"/>
    </defs>
    <g clip-path="url(#p55a82ae594)">
     <use xlink:href="#mb298a6a09e" x="73.832727" y="176.846652" style="fill: #ff0000; stroke: #ff0000"/>
     <use xlink:href="#mb298a6a09e" x="80.296987" y="185.365828" style="fill: #ff0000; stroke: #ff0000"/>
     <use xlink:href="#mb298a6a09e" x="86.70685" y="192.535609" style="fill: #ff0000; stroke: #ff0000"/>
     <use xlink:href="#mb298a6a09e" x="93.143911" y="198.558659" style="fill: #ff0000; stroke: #ff0000"/>
     <use xlink:href="#mb298a6a09e" x="99.580972" y="204.389997" style="fill: #ff0000; stroke: #ff0000"/>
     <use xlink:href="#mb298a6a09e" x="106.018034" y="213.16425" style="fill: #ff0000; stroke: #ff0000"/>
     <use xlink:href="#mb298a6a09e" x="112.364432" y="221.262696" style="fill: #ff0000; stroke: #ff0000"/>
     <use xlink:href="#mb298a6a09e" x="118.710831" y="228.963936" style="fill: #ff0000; stroke: #ff0000"/>
     <use xlink:href="#mb298a6a09e" x="125.057229" y="236.82635" style="fill: #ff0000; stroke: #ff0000"/>
     <use xlink:href="#mb298a6a09e" x="131.403627" y="243.569426" style="fill: #ff0000; stroke: #ff0000"/>
     <use xlink:href="#mb298a6a09e" x="137.659363" y="249.973138" style="fill: #ff0000; stroke: #ff0000"/>
     <use xlink:href="#mb298a6a09e" x="144.005761" y="256.131584" style="fill: #ff0000; stroke: #ff0000"/>
     <use xlink:href="#mb298a6a09e" x="150.261497" y="262.31275" style="fill: #ff0000; stroke: #ff0000"/>
     <use xlink:href="#mb298a6a09e" x="156.517233" y="269.132509" style="fill: #ff0000; stroke: #ff0000"/>
     <use xlink:href="#mb298a6a09e" x="162.682305" y="273.205587" style="fill: #ff0000; stroke: #ff0000"/>
     <use xlink:href="#mb298a6a09e" x="168.933508" y="278.621761" style="fill: #ff0000; stroke: #ff0000"/>
     <use xlink:href="#mb298a6a09e" x="175.132126" y="281.884327" style="fill: #ff0000; stroke: #ff0000"/>
     <use xlink:href="#mb298a6a09e" x="187.476778" y="285.806695" style="fill: #ff0000; stroke: #ff0000"/>
     <use xlink:href="#mb298a6a09e" x="199.753432" y="289.449665" style="fill: #ff0000; stroke: #ff0000"/>
     <use xlink:href="#mb298a6a09e" x="211.962089" y="292.086356" style="fill: #ff0000; stroke: #ff0000"/>
     <use xlink:href="#mb298a6a09e" x="224.10275" y="293.693334" style="fill: #ff0000; stroke: #ff0000"/>
     <use xlink:href="#mb298a6a09e" x="254.163826" y="295.278377" style="fill: #ff0000; stroke: #ff0000"/>
     <use xlink:href="#mb298a6a09e" x="283.815106" y="296.121469" style="fill: #ff0000; stroke: #ff0000"/>
     <use xlink:href="#mb298a6a09e" x="341.921823" y="296.651015" style="fill: #ff0000; stroke: #ff0000"/>
     <use xlink:href="#mb298a6a09e" x="398.487273" y="297.073234" style="fill: #ff0000; stroke: #ff0000"/>
    </g>
   </g>
   <g id="line2d_16">
    <path d="M 73.832727 247.80836 
L 77.112066 243.044852 
L 80.391405 238.300167 
L 83.670744 233.576187 
L 86.950083 228.875035 
L 90.229421 224.199104 
L 93.50876 219.551101 
L 96.788099 214.934093 
L 100.067438 210.351554 
L 103.346777 205.80743 
L 106.626116 201.306199 
L 109.905455 196.852943 
L 113.184793 192.453427 
L 116.464132 188.114175 
L 119.743471 183.842544 
L 123.02281 179.646794 
L 126.302149 175.536135 
L 129.581488 171.520735 
L 132.860826 167.611684 
L 136.140165 163.820877 
L 139.419504 160.160796 
L 142.698843 156.644174 
L 145.978182 153.283533 
L 149.257521 150.090586 
L 152.53686 147.075574 
L 155.816198 144.246572 
L 159.095537 141.608883 
L 162.374876 139.1646 
L 165.654215 136.912428 
L 168.933554 134.847798 
L 172.212893 132.963241 
L 175.492231 131.248972 
L 178.77157 129.693563 
L 182.050909 128.284627 
L 185.330248 127.009434 
L 188.609587 125.855408 
L 191.888926 124.81049 
L 195.168264 123.863385 
L 198.447603 123.0037 
L 201.726942 122.221996 
L 205.006281 121.509793 
L 208.28562 120.859522 
L 211.564959 120.26447 
L 214.844298 119.718698 
L 218.123636 119.216968 
L 221.402975 118.754666 
L 224.682314 118.327726 
L 227.961653 117.932567 
L 231.240992 117.56603 
L 234.520331 117.225328 
L 237.799669 116.907995 
L 241.079008 116.61185 
L 244.358347 116.334954 
L 247.637686 116.075588 
L 250.917025 115.832218 
L 254.196364 115.603475 
L 257.475702 115.388134 
L 260.755041 115.185099 
L 264.03438 114.993383 
L 267.313719 114.8121 
L 270.593058 114.640448 
L 273.872397 114.477705 
L 277.151736 114.323216 
L 280.431074 114.176385 
L 283.710413 114.036674 
L 286.989752 113.90359 
L 290.269091 113.776683 
L 293.54843 113.655545 
L 296.827769 113.539798 
L 300.107107 113.429099 
L 303.386446 113.323132 
L 306.665785 113.221605 
L 309.945124 113.12425 
L 313.224463 113.03082 
L 316.503802 112.941086 
L 319.78314 112.854838 
L 323.062479 112.771879 
L 326.341818 112.692027 
L 329.621157 112.615113 
L 332.900496 112.540982 
L 336.179835 112.469486 
L 339.459174 112.400489 
L 342.738512 112.333865 
L 346.017851 112.269494 
L 349.29719 112.207266 
L 352.576529 112.147076 
L 355.855868 112.088827 
L 359.135207 112.032428 
L 362.414545 111.977793 
L 365.693884 111.924841 
L 368.973223 111.873496 
L 372.252562 111.823688 
L 375.531901 111.775349 
L 378.81124 111.728414 
L 382.090579 111.682826 
L 385.369917 111.638526 
L 388.649256 111.595462 
L 391.928595 111.553583 
L 395.207934 111.51284 
L 398.487273 111.47319 
" clip-path="url(#p55a82ae594)" style="fill: none; stroke: #000000; stroke-width: 1.5; stroke-linecap: square"/>
   </g>
   <g id="line2d_17">
    <path d="M 73.832727 173.554922 
L 77.112066 177.911568 
L 80.391405 182.250999 
L 83.670744 186.571492 
L 86.950083 190.871108 
L 90.229421 195.147657 
L 93.50876 199.398663 
L 96.788099 203.621322 
L 100.067438 207.812455 
L 103.346777 211.968455 
L 106.626116 216.085226 
L 109.905455 220.158119 
L 113.184793 224.181862 
L 116.464132 228.150489 
L 119.743471 232.05727 
L 123.02281 235.894651 
L 126.302149 239.654209 
L 129.581488 243.326645 
L 132.860826 246.901815 
L 136.140165 250.36884 
L 139.419504 253.716305 
L 142.698843 256.932564 
L 145.978182 260.006166 
L 149.257521 262.926395 
L 152.53686 265.683888 
L 155.816198 268.271258 
L 159.095537 270.683656 
L 162.374876 272.919167 
L 165.654215 274.978976 
L 168.933554 276.867262 
L 172.212893 278.590854 
L 175.492231 280.158703 
L 178.77157 281.581262 
L 182.050909 282.869857 
L 185.330248 284.036133 
L 188.609587 285.091591 
L 191.888926 286.04726 
L 195.168264 286.91347 
L 198.447603 287.699728 
L 201.726942 288.414664 
L 205.006281 289.066037 
L 208.28562 289.660766 
L 211.564959 290.204994 
L 214.844298 290.70415 
L 218.123636 291.163026 
L 221.402975 291.585842 
L 224.682314 291.976315 
L 227.961653 292.337723 
L 231.240992 292.672953 
L 234.520331 292.984556 
L 237.799669 293.274784 
L 241.079008 293.545635 
L 244.358347 293.79888 
L 247.637686 294.036093 
L 250.917025 294.258677 
L 254.196364 294.467883 
L 257.475702 294.66483 
L 260.755041 294.850524 
L 264.03438 295.025865 
L 267.313719 295.191664 
L 270.593058 295.348655 
L 273.872397 295.497498 
L 277.151736 295.638792 
L 280.431074 295.773081 
L 283.710413 295.900859 
L 286.989752 296.022576 
L 290.269091 296.138643 
L 293.54843 296.249435 
L 296.827769 296.355296 
L 300.107107 296.45654 
L 303.386446 296.553456 
L 306.665785 296.646312 
L 309.945124 296.735351 
L 313.224463 296.820801 
L 316.503802 296.90287 
L 319.78314 296.981752 
L 323.062479 297.057626 
L 326.341818 297.130657 
L 329.621157 297.201001 
L 332.900496 297.268801 
L 336.179835 297.33419 
L 339.459174 297.397294 
L 342.738512 297.458227 
L 346.017851 297.5171 
L 349.29719 297.574014 
L 352.576529 297.629062 
L 355.855868 297.682336 
L 359.135207 297.733918 
L 362.414545 297.783887 
L 365.693884 297.832316 
L 368.973223 297.879275 
L 372.252562 297.924829 
L 375.531901 297.96904 
L 378.81124 298.011965 
L 382.090579 298.05366 
L 385.369917 298.094176 
L 388.649256 298.133562 
L 391.928595 298.171864 
L 395.207934 298.209126 
L 398.487273 298.24539 
" clip-path="url(#p55a82ae594)" style="fill: none; stroke: #ff0000; stroke-width: 1.5; stroke-linecap: square"/>
   </g>
   <g id="patch_3">
    <path d="M 57.6 307.584 
L 57.6 41.472 
" style="fill: none; stroke: #000000; stroke-width: 0.8; stroke-linejoin: miter; stroke-linecap: square"/>
   </g>
   <g id="patch_4">
    <path d="M 414.72 307.584 
L 414.72 41.472 
" style="fill: none; stroke: #000000; stroke-width: 0.8; stroke-linejoin: miter; stroke-linecap: square"/>
   </g>
   <g id="patch_5">
    <path d="M 57.6 307.584 
L 414.72 307.584 
" style="fill: none; stroke: #000000; stroke-width: 0.8; stroke-linejoin: miter; stroke-linecap: square"/>
   </g>
   <g id="patch_6">
    <path d="M 57.6 41.472 
L 414.72 41.472 
" style="fill: none; stroke: #000000; stroke-width: 0.8; stroke-linejoin: miter; stroke-linecap: square"/>
   </g>
   <g id="text_16">
    <!-- $K_{I} = 1.81×10⁵ M^{-1}$ -->
    <g transform="translate(299.146 97.964712) scale(0.1 -0.1)">
     <defs>
      <path id="DejaVuSans-Oblique-4b" d="M 1081 4666 
L 1716 4666 
L 1331 2700 
L 3781 4666 
L 4622 4666 
L 1850 2438 
L 3878 0 
L 3109 0 
L 1247 2272 
L 806 0 
L 172 0 
L 1081 4666 
z
" transform="scale(0.015625)"/>
      <path id="DejaVuSans-Oblique-49" d="M 1081 4666 
L 1716 4666 
L 806 0 
L 172 0 
L 1081 4666 
z
" transform="scale(0.015625)"/>
      <path id="DejaVuSans-3d" d="M 678 2906 
L 4684 2906 
L 4684 2381 
L 678 2381 
L 678 2906 
z
M 678 1631 
L 4684 1631 
L 4684 1100 
L 678 1100 
L 678 1631 
z
" transform="scale(0.015625)"/>
      <path id="DejaVuSans-d7" d="M 4488 3438 
L 3059 2003 
L 4488 575 
L 4116 197 
L 2681 1631 
L 1247 197 
L 878 575 
L 2303 2003 
L 878 3438 
L 1247 3816 
L 2681 2381 
L 4116 3816 
L 4488 3438 
z
" transform="scale(0.015625)"/>
      <path id="DejaVuSans-2075" d="M 444 4697 
L 2038 4697 
L 2038 4400 
L 816 4400 
L 816 3763 
Q 903 3791 994 3803 
Q 1081 3816 1169 3816 
Q 1672 3816 1966 3575 
Q 2259 3338 2259 2928 
Q 2259 2506 1956 2272 
Q 1656 2041 1106 2041 
Q 919 2041 722 2069 
Q 525 2097 319 2153 
L 319 2506 
Q 497 2422 691 2378 
Q 884 2338 1100 2338 
Q 1447 2338 1650 2497 
Q 1853 2656 1853 2928 
Q 1853 3200 1650 3359 
Q 1447 3519 1100 3519 
Q 938 3519 775 3487 
Q 613 3456 444 3391 
L 444 4697 
z
" transform="scale(0.015625)"/>
      <path id="DejaVuSans-Oblique-4d" d="M 1081 4666 
L 2028 4666 
L 2572 1522 
L 4378 4666 
L 5350 4666 
L 4441 0 
L 3828 0 
L 4622 4091 
L 2791 897 
L 2175 897 
L 1581 4103 
L 788 0 
L 172 0 
L 1081 4666 
z
" transform="scale(0.015625)"/>
      <path id="DejaVuSans-2212" d="M 678 2272 
L 4684 2272 
L 4684 1741 
L 678 1741 
L 678 2272 
z
" transform="scale(0.015625)"/>
     </defs>
     <use xlink:href="#DejaVuSans-Oblique-4b" transform="translate(0 0.684375)"/>
     <use xlink:href="#DejaVuSans-Oblique-49" transform="translate(65.576172 -15.721875) scale(0.7)"/>
     <use xlink:href="#DejaVuSans-3d" transform="translate(108.4375 0.684375)"/>
     <use xlink:href="#DejaVuSans-31" transform="translate(211.708984 0.684375)"/>
     <use xlink:href="#DejaVuSans-2e" transform="translate(275.332031 0.684375)"/>
     <use xlink:href="#DejaVuSans-38" transform="translate(304.494141 0.684375)"/>
     <use xlink:href="#DejaVuSans-31" transform="translate(368.117188 0.684375)"/>
     <use xlink:href="#DejaVuSans-d7" transform="translate(431.740234 0.684375)"/>
     <use xlink:href="#DejaVuSans-31" transform="translate(515.529297 0.684375)"/>
     <use xlink:href="#DejaVuSans-30" transform="translate(579.152344 0.684375)"/>
     <use xlink:href="#DejaVuSans-2075" transform="translate(642.775391 0.684375)"/>
     <use xlink:href="#DejaVuSans-Oblique-4d" transform="translate(682.863281 0.684375)"/>
     <use xlink:href="#DejaVuSans-2212" transform="translate(776.159349 38.965625) scale(0.7)"/>
     <use xlink:href="#DejaVuSans-31" transform="translate(834.811693 38.965625) scale(0.7)"/>
    </g>
   </g>
   <g id="text_17">
    <!-- Direct Titration of Alizarin &amp; ompPBA in MeCN  -->
    <g transform="translate(96.968437 22.034625) scale(0.12 -0.12)">
     <defs>
      <path id="DejaVuSans-44" d="M 1259 4147 
L 1259 519 
L 2022 519 
Q 2988 519 3436 956 
Q 3884 1394 3884 2338 
Q 3884 3275 3436 3711 
Q 2988 4147 2022 4147 
L 1259 4147 
z
M 628 4666 
L 1925 4666 
Q 3281 4666 3915 4102 
Q 4550 3538 4550 2338 
Q 4550 1131 3912 565 
Q 3275 0 1925 0 
L 628 0 
L 628 4666 
z
" transform="scale(0.015625)"/>
      <path id="DejaVuSans-54" d="M -19 4666 
L 3928 4666 
L 3928 4134 
L 2272 4134 
L 2272 0 
L 1638 0 
L 1638 4134 
L -19 4134 
L -19 4666 
z
" transform="scale(0.015625)"/>
      <path id="DejaVuSans-66" d="M 2375 4863 
L 2375 4384 
L 1825 4384 
Q 1516 4384 1395 4259 
Q 1275 4134 1275 3809 
L 1275 3500 
L 2222 3500 
L 2222 3053 
L 1275 3053 
L 1275 0 
L 697 0 
L 697 3053 
L 147 3053 
L 147 3500 
L 697 3500 
L 697 3744 
Q 697 4328 969 4595 
Q 1241 4863 1831 4863 
L 2375 4863 
z
" transform="scale(0.015625)"/>
      <path id="DejaVuSans-6c" d="M 603 4863 
L 1178 4863 
L 1178 0 
L 603 0 
L 603 4863 
z
" transform="scale(0.015625)"/>
      <path id="DejaVuSans-7a" d="M 353 3500 
L 3084 3500 
L 3084 2975 
L 922 459 
L 3084 459 
L 3084 0 
L 275 0 
L 275 525 
L 2438 3041 
L 353 3041 
L 353 3500 
z
" transform="scale(0.015625)"/>
      <path id="DejaVuSans-26" d="M 1556 2509 
Q 1272 2256 1139 2004 
Q 1006 1753 1006 1478 
Q 1006 1022 1337 719 
Q 1669 416 2169 416 
Q 2466 416 2725 514 
Q 2984 613 3213 813 
L 1556 2509 
z
M 1997 2859 
L 3584 1234 
Q 3769 1513 3872 1830 
Q 3975 2147 3994 2503 
L 4575 2503 
Q 4538 2091 4375 1687 
Q 4213 1284 3922 891 
L 4794 0 
L 4006 0 
L 3559 459 
Q 3234 181 2878 45 
Q 2522 -91 2113 -91 
Q 1359 -91 881 339 
Q 403 769 403 1441 
Q 403 1841 612 2192 
Q 822 2544 1241 2853 
Q 1091 3050 1012 3245 
Q 934 3441 934 3628 
Q 934 4134 1281 4442 
Q 1628 4750 2203 4750 
Q 2463 4750 2720 4694 
Q 2978 4638 3244 4525 
L 3244 3956 
Q 2972 4103 2725 4179 
Q 2478 4256 2266 4256 
Q 1938 4256 1733 4082 
Q 1528 3909 1528 3634 
Q 1528 3475 1620 3314 
Q 1713 3153 1997 2859 
z
" transform="scale(0.015625)"/>
      <path id="DejaVuSans-4e" d="M 628 4666 
L 1478 4666 
L 3547 763 
L 3547 4666 
L 4159 4666 
L 4159 0 
L 3309 0 
L 1241 3903 
L 1241 0 
L 628 0 
L 628 4666 
z
" transform="scale(0.015625)"/>
     </defs>
     <use xlink:href="#DejaVuSans-44"/>
     <use xlink:href="#DejaVuSans-69" x="77.001953"/>
     <use xlink:href="#DejaVuSans-72" x="104.785156"/>
     <use xlink:href="#DejaVuSans-65" x="143.648438"/>
     <use xlink:href="#DejaVuSans-63" x="205.171875"/>
     <use xlink:href="#DejaVuSans-74" x="260.152344"/>
     <use xlink:href="#DejaVuSans-20" x="299.361328"/>
     <use xlink:href="#DejaVuSans-54" x="331.148438"/>
     <use xlink:href="#DejaVuSans-69" x="389.107422"/>
     <use xlink:href="#DejaVuSans-74" x="416.890625"/>
     <use xlink:href="#DejaVuSans-72" x="456.099609"/>
     <use xlink:href="#DejaVuSans-61" x="497.212891"/>
     <use xlink:href="#DejaVuSans-74" x="558.492188"/>
     <use xlink:href="#DejaVuSans-69" x="597.701172"/>
     <use xlink:href="#DejaVuSans-6f" x="625.484375"/>
     <use xlink:href="#DejaVuSans-6e" x="686.666016"/>
     <use xlink:href="#DejaVuSans-20" x="750.044922"/>
     <use xlink:href="#DejaVuSans-6f" x="781.832031"/>
     <use xlink:href="#DejaVuSans-66" x="843.013672"/>
     <use xlink:href="#DejaVuSans-20" x="878.21875"/>
     <use xlink:href="#DejaVuSans-41" x="910.005859"/>
     <use xlink:href="#DejaVuSans-6c" x="978.414062"/>
     <use xlink:href="#DejaVuSans-69" x="1006.197266"/>
     <use xlink:href="#DejaVuSans-7a" x="1033.980469"/>
     <use xlink:href="#DejaVuSans-61" x="1086.470703"/>
     <use xlink:href="#DejaVuSans-72" x="1147.75"/>
     <use xlink:href="#DejaVuSans-69" x="1188.863281"/>
     <use xlink:href="#DejaVuSans-6e" x="1216.646484"/>
     <use xlink:href="#DejaVuSans-20" x="1280.025391"/>
     <use xlink:href="#DejaVuSans-26" x="1311.8125"/>
     <use xlink:href="#DejaVuSans-20" x="1389.791016"/>
     <use xlink:href="#DejaVuSans-6f" x="1421.578125"/>
     <use xlink:href="#DejaVuSans-6d" x="1482.759766"/>
     <use xlink:href="#DejaVuSans-70" x="1580.171875"/>
     <use xlink:href="#DejaVuSans-50" x="1643.648438"/>
     <use xlink:href="#DejaVuSans-42" x="1703.951172"/>
     <use xlink:href="#DejaVuSans-41" x="1772.554688"/>
     <use xlink:href="#DejaVuSans-20" x="1840.962891"/>
     <use xlink:href="#DejaVuSans-69" x="1872.75"/>
     <use xlink:href="#DejaVuSans-6e" x="1900.533203"/>
     <use xlink:href="#DejaVuSans-20" x="1963.912109"/>
     <use xlink:href="#DejaVuSans-4d" x="1995.699219"/>
     <use xlink:href="#DejaVuSans-65" x="2081.978516"/>
     <use xlink:href="#DejaVuSans-43" x="2143.501953"/>
     <use xlink:href="#DejaVuSans-4e" x="2213.326172"/>
     <use xlink:href="#DejaVuSans-20" x="2288.130859"/>
    </g>
    <!--  -->
    <g transform="translate(236.16 35.472) scale(0.12 -0.12)"/>
   </g>
   <g id="legend_1">
    <g id="patch_7">
     <path d="M 337.37625 78.82825 
L 407.72 78.82825 
Q 409.72 78.82825 409.72 76.82825 
L 409.72 48.472 
Q 409.72 46.472 407.72 46.472 
L 337.37625 46.472 
Q 335.37625 46.472 335.37625 48.472 
L 335.37625 76.82825 
Q 335.37625 78.82825 337.37625 78.82825 
z
" style="fill: #ffffff; opacity: 0.8; stroke: #cccccc; stroke-linejoin: miter"/>
    </g>
    <g id="line2d_18">
     <g>
      <use xlink:href="#md161470ffb" x="349.37625" y="54.570437" style="stroke: #000000"/>
     </g>
    </g>
    <g id="text_18">
     <!-- 446 nm -->
     <g transform="translate(367.37625 58.070437) scale(0.1 -0.1)">
      <use xlink:href="#DejaVuSans-34"/>
      <use xlink:href="#DejaVuSans-34" x="63.623047"/>
      <use xlink:href="#DejaVuSans-36" x="127.246094"/>
      <use xlink:href="#DejaVuSans-20" x="190.869141"/>
      <use xlink:href="#DejaVuSans-6e" x="222.65625"/>
      <use xlink:href="#DejaVuSans-6d" x="286.035156"/>
     </g>
    </g>
    <g id="line2d_19">
     <g>
      <use xlink:href="#mb298a6a09e" x="349.37625" y="69.248562" style="fill: #ff0000; stroke: #ff0000"/>
     </g>
    </g>
    <g id="text_19">
     <!-- 550 nm -->
     <g transform="translate(367.37625 72.748562) scale(0.1 -0.1)">
      <use xlink:href="#DejaVuSans-35"/>
      <use xlink:href="#DejaVuSans-35" x="63.623047"/>
      <use xlink:href="#DejaVuSans-30" x="127.246094"/>
      <use xlink:href="#DejaVuSans-20" x="190.869141"/>
      <use xlink:href="#DejaVuSans-6e" x="222.65625"/>
      <use xlink:href="#DejaVuSans-6d" x="286.035156"/>
     </g>
    </g>
   </g>
  </g>
 </g>
 <defs>
  <clipPath id="p55a82ae594">
   <rect x="57.6" y="41.472" width="357.12" height="266.112"/>
  </clipPath>
 </defs>
</svg>
