<?xml version="1.0" encoding="utf-8" standalone="no"?>
<!DOCTYPE svg PUBLIC "-//W3C//DTD SVG 1.1//EN"
  "http://www.w3.org/Graphics/SVG/1.1/DTD/svg11.dtd">
<svg xmlns:xlink="http://www.w3.org/1999/xlink" width="460.8pt" height="345.6pt" viewBox="0 0 460.8 345.6" xmlns="http://www.w3.org/2000/svg" version="1.1">
 <metadata>
  <rdf:RDF xmlns:dc="http://purl.org/dc/elements/1.1/" xmlns:cc="http://creativecommons.org/ns#" xmlns:rdf="http://www.w3.org/1999/02/22-rdf-syntax-ns#">
   <cc:Work>
    <dc:type rdf:resource="http://purl.org/dc/dcmitype/StillImage"/>
    <dc:date>2024-11-03T21:06:44.588912</dc:date>
    <dc:format>image/svg+xml</dc:format>
    <dc:creator>
     <cc:Agent>
      <dc:title>Matplotlib v3.9.2, https://matplotlib.org/</dc:title>
     </cc:Agent>
    </dc:creator>
   </cc:Work>
  </rdf:RDF>
 </metadata>
 <defs>
  <style type="text/css">*{stroke-linejoin: round; stroke-linecap: butt}</style>
 </defs>
 <g id="figure_1">
  <g id="patch_1">
   <path d="M 0 345.6 
L 460.8 345.6 
L 460.8 0 
L 0 0 
z
" style="fill: #ffffff"/>
  </g>
  <g id="axes_1">
   <g id="patch_2">
    <path d="M 57.6 307.584 
L 414.72 307.584 
L 414.72 41.472 
L 57.6 41.472 
z
" style="fill: #ffffff"/>
   </g>
   <g id="matplotlib.axis_1">
    <g id="xtick_1">
     <g id="line2d_1">
      <defs>
       <path id="m1763cd4a0e" d="M 0 0 
L 0 3.5 
" style="stroke: #000000; stroke-width: 0.8"/>
      </defs>
      <g>
       <use xlink:href="#m1763cd4a0e" x="73.832727" y="307.584" style="stroke: #000000; stroke-width: 0.8"/>
      </g>
     </g>
     <g id="text_1">
      <!-- 0.0000 -->
      <g transform="translate(56.337415 322.182437) scale(0.1 -0.1)">
       <defs>
        <path id="DejaVuSans-30" d="M 2034 4250 
Q 1547 4250 1301 3770 
Q 1056 3291 1056 2328 
Q 1056 1369 1301 889 
Q 1547 409 2034 409 
Q 2525 409 2770 889 
Q 3016 1369 3016 2328 
Q 3016 3291 2770 3770 
Q 2525 4250 2034 4250 
z
M 2034 4750 
Q 2819 4750 3233 4129 
Q 3647 3509 3647 2328 
Q 3647 1150 3233 529 
Q 2819 -91 2034 -91 
Q 1250 -91 836 529 
Q 422 1150 422 2328 
Q 422 3509 836 4129 
Q 1250 4750 2034 4750 
z
" transform="scale(0.015625)"/>
        <path id="DejaVuSans-2e" d="M 684 794 
L 1344 794 
L 1344 0 
L 684 0 
L 684 794 
z
" transform="scale(0.015625)"/>
       </defs>
       <use xlink:href="#DejaVuSans-30"/>
       <use xlink:href="#DejaVuSans-2e" x="63.623047"/>
       <use xlink:href="#DejaVuSans-30" x="95.410156"/>
       <use xlink:href="#DejaVuSans-30" x="159.033203"/>
       <use xlink:href="#DejaVuSans-30" x="222.65625"/>
       <use xlink:href="#DejaVuSans-30" x="286.279297"/>
      </g>
     </g>
    </g>
    <g id="xtick_2">
     <g id="line2d_2">
      <g>
       <use xlink:href="#m1763cd4a0e" x="124.91065" y="307.584" style="stroke: #000000; stroke-width: 0.8"/>
      </g>
     </g>
     <g id="text_2">
      <!-- 0.0005 -->
      <g transform="translate(107.415337 322.182437) scale(0.1 -0.1)">
       <defs>
        <path id="DejaVuSans-35" d="M 691 4666 
L 3169 4666 
L 3169 4134 
L 1269 4134 
L 1269 2991 
Q 1406 3038 1543 3061 
Q 1681 3084 1819 3084 
Q 2600 3084 3056 2656 
Q 3513 2228 3513 1497 
Q 3513 744 3044 326 
Q 2575 -91 1722 -91 
Q 1428 -91 1123 -41 
Q 819 9 494 109 
L 494 744 
Q 775 591 1075 516 
Q 1375 441 1709 441 
Q 2250 441 2565 725 
Q 2881 1009 2881 1497 
Q 2881 1984 2565 2268 
Q 2250 2553 1709 2553 
Q 1456 2553 1204 2497 
Q 953 2441 691 2322 
L 691 4666 
z
" transform="scale(0.015625)"/>
       </defs>
       <use xlink:href="#DejaVuSans-30"/>
       <use xlink:href="#DejaVuSans-2e" x="63.623047"/>
       <use xlink:href="#DejaVuSans-30" x="95.410156"/>
       <use xlink:href="#DejaVuSans-30" x="159.033203"/>
       <use xlink:href="#DejaVuSans-30" x="222.65625"/>
       <use xlink:href="#DejaVuSans-35" x="286.279297"/>
      </g>
     </g>
    </g>
    <g id="xtick_3">
     <g id="line2d_3">
      <g>
       <use xlink:href="#m1763cd4a0e" x="175.988573" y="307.584" style="stroke: #000000; stroke-width: 0.8"/>
      </g>
     </g>
     <g id="text_3">
      <!-- 0.0010 -->
      <g transform="translate(158.49326 322.182437) scale(0.1 -0.1)">
       <defs>
        <path id="DejaVuSans-31" d="M 794 531 
L 1825 531 
L 1825 4091 
L 703 3866 
L 703 4441 
L 1819 4666 
L 2450 4666 
L 2450 531 
L 3481 531 
L 3481 0 
L 794 0 
L 794 531 
z
" transform="scale(0.015625)"/>
       </defs>
       <use xlink:href="#DejaVuSans-30"/>
       <use xlink:href="#DejaVuSans-2e" x="63.623047"/>
       <use xlink:href="#DejaVuSans-30" x="95.410156"/>
       <use xlink:href="#DejaVuSans-30" x="159.033203"/>
       <use xlink:href="#DejaVuSans-31" x="222.65625"/>
       <use xlink:href="#DejaVuSans-30" x="286.279297"/>
      </g>
     </g>
    </g>
    <g id="xtick_4">
     <g id="line2d_4">
      <g>
       <use xlink:href="#m1763cd4a0e" x="227.066495" y="307.584" style="stroke: #000000; stroke-width: 0.8"/>
      </g>
     </g>
     <g id="text_4">
      <!-- 0.0015 -->
      <g transform="translate(209.571183 322.182437) scale(0.1 -0.1)">
       <use xlink:href="#DejaVuSans-30"/>
       <use xlink:href="#DejaVuSans-2e" x="63.623047"/>
       <use xlink:href="#DejaVuSans-30" x="95.410156"/>
       <use xlink:href="#DejaVuSans-30" x="159.033203"/>
       <use xlink:href="#DejaVuSans-31" x="222.65625"/>
       <use xlink:href="#DejaVuSans-35" x="286.279297"/>
      </g>
     </g>
    </g>
    <g id="xtick_5">
     <g id="line2d_5">
      <g>
       <use xlink:href="#m1763cd4a0e" x="278.144418" y="307.584" style="stroke: #000000; stroke-width: 0.8"/>
      </g>
     </g>
     <g id="text_5">
      <!-- 0.0020 -->
      <g transform="translate(260.649105 322.182437) scale(0.1 -0.1)">
       <defs>
        <path id="DejaVuSans-32" d="M 1228 531 
L 3431 531 
L 3431 0 
L 469 0 
L 469 531 
Q 828 903 1448 1529 
Q 2069 2156 2228 2338 
Q 2531 2678 2651 2914 
Q 2772 3150 2772 3378 
Q 2772 3750 2511 3984 
Q 2250 4219 1831 4219 
Q 1534 4219 1204 4116 
Q 875 4013 500 3803 
L 500 4441 
Q 881 4594 1212 4672 
Q 1544 4750 1819 4750 
Q 2544 4750 2975 4387 
Q 3406 4025 3406 3419 
Q 3406 3131 3298 2873 
Q 3191 2616 2906 2266 
Q 2828 2175 2409 1742 
Q 1991 1309 1228 531 
z
" transform="scale(0.015625)"/>
       </defs>
       <use xlink:href="#DejaVuSans-30"/>
       <use xlink:href="#DejaVuSans-2e" x="63.623047"/>
       <use xlink:href="#DejaVuSans-30" x="95.410156"/>
       <use xlink:href="#DejaVuSans-30" x="159.033203"/>
       <use xlink:href="#DejaVuSans-32" x="222.65625"/>
       <use xlink:href="#DejaVuSans-30" x="286.279297"/>
      </g>
     </g>
    </g>
    <g id="xtick_6">
     <g id="line2d_6">
      <g>
       <use xlink:href="#m1763cd4a0e" x="329.222341" y="307.584" style="stroke: #000000; stroke-width: 0.8"/>
      </g>
     </g>
     <g id="text_6">
      <!-- 0.0025 -->
      <g transform="translate(311.727028 322.182437) scale(0.1 -0.1)">
       <use xlink:href="#DejaVuSans-30"/>
       <use xlink:href="#DejaVuSans-2e" x="63.623047"/>
       <use xlink:href="#DejaVuSans-30" x="95.410156"/>
       <use xlink:href="#DejaVuSans-30" x="159.033203"/>
       <use xlink:href="#DejaVuSans-32" x="222.65625"/>
       <use xlink:href="#DejaVuSans-35" x="286.279297"/>
      </g>
     </g>
    </g>
    <g id="xtick_7">
     <g id="line2d_7">
      <g>
       <use xlink:href="#m1763cd4a0e" x="380.300263" y="307.584" style="stroke: #000000; stroke-width: 0.8"/>
      </g>
     </g>
     <g id="text_7">
      <!-- 0.0030 -->
      <g transform="translate(362.804951 322.182437) scale(0.1 -0.1)">
       <defs>
        <path id="DejaVuSans-33" d="M 2597 2516 
Q 3050 2419 3304 2112 
Q 3559 1806 3559 1356 
Q 3559 666 3084 287 
Q 2609 -91 1734 -91 
Q 1441 -91 1130 -33 
Q 819 25 488 141 
L 488 750 
Q 750 597 1062 519 
Q 1375 441 1716 441 
Q 2309 441 2620 675 
Q 2931 909 2931 1356 
Q 2931 1769 2642 2001 
Q 2353 2234 1838 2234 
L 1294 2234 
L 1294 2753 
L 1863 2753 
Q 2328 2753 2575 2939 
Q 2822 3125 2822 3475 
Q 2822 3834 2567 4026 
Q 2313 4219 1838 4219 
Q 1578 4219 1281 4162 
Q 984 4106 628 3988 
L 628 4550 
Q 988 4650 1302 4700 
Q 1616 4750 1894 4750 
Q 2613 4750 3031 4423 
Q 3450 4097 3450 3541 
Q 3450 3153 3228 2886 
Q 3006 2619 2597 2516 
z
" transform="scale(0.015625)"/>
       </defs>
       <use xlink:href="#DejaVuSans-30"/>
       <use xlink:href="#DejaVuSans-2e" x="63.623047"/>
       <use xlink:href="#DejaVuSans-30" x="95.410156"/>
       <use xlink:href="#DejaVuSans-30" x="159.033203"/>
       <use xlink:href="#DejaVuSans-33" x="222.65625"/>
       <use xlink:href="#DejaVuSans-30" x="286.279297"/>
      </g>
     </g>
    </g>
    <g id="text_8">
     <!-- ompPBA Concentration [M] -->
     <g transform="translate(168.425625 335.860562) scale(0.1 -0.1)">
      <defs>
       <path id="DejaVuSans-6f" d="M 1959 3097 
Q 1497 3097 1228 2736 
Q 959 2375 959 1747 
Q 959 1119 1226 758 
Q 1494 397 1959 397 
Q 2419 397 2687 759 
Q 2956 1122 2956 1747 
Q 2956 2369 2687 2733 
Q 2419 3097 1959 3097 
z
M 1959 3584 
Q 2709 3584 3137 3096 
Q 3566 2609 3566 1747 
Q 3566 888 3137 398 
Q 2709 -91 1959 -91 
Q 1206 -91 779 398 
Q 353 888 353 1747 
Q 353 2609 779 3096 
Q 1206 3584 1959 3584 
z
" transform="scale(0.015625)"/>
       <path id="DejaVuSans-6d" d="M 3328 2828 
Q 3544 3216 3844 3400 
Q 4144 3584 4550 3584 
Q 5097 3584 5394 3201 
Q 5691 2819 5691 2113 
L 5691 0 
L 5113 0 
L 5113 2094 
Q 5113 2597 4934 2840 
Q 4756 3084 4391 3084 
Q 3944 3084 3684 2787 
Q 3425 2491 3425 1978 
L 3425 0 
L 2847 0 
L 2847 2094 
Q 2847 2600 2669 2842 
Q 2491 3084 2119 3084 
Q 1678 3084 1418 2786 
Q 1159 2488 1159 1978 
L 1159 0 
L 581 0 
L 581 3500 
L 1159 3500 
L 1159 2956 
Q 1356 3278 1631 3431 
Q 1906 3584 2284 3584 
Q 2666 3584 2933 3390 
Q 3200 3197 3328 2828 
z
" transform="scale(0.015625)"/>
       <path id="DejaVuSans-70" d="M 1159 525 
L 1159 -1331 
L 581 -1331 
L 581 3500 
L 1159 3500 
L 1159 2969 
Q 1341 3281 1617 3432 
Q 1894 3584 2278 3584 
Q 2916 3584 3314 3078 
Q 3713 2572 3713 1747 
Q 3713 922 3314 415 
Q 2916 -91 2278 -91 
Q 1894 -91 1617 61 
Q 1341 213 1159 525 
z
M 3116 1747 
Q 3116 2381 2855 2742 
Q 2594 3103 2138 3103 
Q 1681 3103 1420 2742 
Q 1159 2381 1159 1747 
Q 1159 1113 1420 752 
Q 1681 391 2138 391 
Q 2594 391 2855 752 
Q 3116 1113 3116 1747 
z
" transform="scale(0.015625)"/>
       <path id="DejaVuSans-50" d="M 1259 4147 
L 1259 2394 
L 2053 2394 
Q 2494 2394 2734 2622 
Q 2975 2850 2975 3272 
Q 2975 3691 2734 3919 
Q 2494 4147 2053 4147 
L 1259 4147 
z
M 628 4666 
L 2053 4666 
Q 2838 4666 3239 4311 
Q 3641 3956 3641 3272 
Q 3641 2581 3239 2228 
Q 2838 1875 2053 1875 
L 1259 1875 
L 1259 0 
L 628 0 
L 628 4666 
z
" transform="scale(0.015625)"/>
       <path id="DejaVuSans-42" d="M 1259 2228 
L 1259 519 
L 2272 519 
Q 2781 519 3026 730 
Q 3272 941 3272 1375 
Q 3272 1813 3026 2020 
Q 2781 2228 2272 2228 
L 1259 2228 
z
M 1259 4147 
L 1259 2741 
L 2194 2741 
Q 2656 2741 2882 2914 
Q 3109 3088 3109 3444 
Q 3109 3797 2882 3972 
Q 2656 4147 2194 4147 
L 1259 4147 
z
M 628 4666 
L 2241 4666 
Q 2963 4666 3353 4366 
Q 3744 4066 3744 3513 
Q 3744 3084 3544 2831 
Q 3344 2578 2956 2516 
Q 3422 2416 3680 2098 
Q 3938 1781 3938 1306 
Q 3938 681 3513 340 
Q 3088 0 2303 0 
L 628 0 
L 628 4666 
z
" transform="scale(0.015625)"/>
       <path id="DejaVuSans-41" d="M 2188 4044 
L 1331 1722 
L 3047 1722 
L 2188 4044 
z
M 1831 4666 
L 2547 4666 
L 4325 0 
L 3669 0 
L 3244 1197 
L 1141 1197 
L 716 0 
L 50 0 
L 1831 4666 
z
" transform="scale(0.015625)"/>
       <path id="DejaVuSans-20" transform="scale(0.015625)"/>
       <path id="DejaVuSans-43" d="M 4122 4306 
L 4122 3641 
Q 3803 3938 3442 4084 
Q 3081 4231 2675 4231 
Q 1875 4231 1450 3742 
Q 1025 3253 1025 2328 
Q 1025 1406 1450 917 
Q 1875 428 2675 428 
Q 3081 428 3442 575 
Q 3803 722 4122 1019 
L 4122 359 
Q 3791 134 3420 21 
Q 3050 -91 2638 -91 
Q 1578 -91 968 557 
Q 359 1206 359 2328 
Q 359 3453 968 4101 
Q 1578 4750 2638 4750 
Q 3056 4750 3426 4639 
Q 3797 4528 4122 4306 
z
" transform="scale(0.015625)"/>
       <path id="DejaVuSans-6e" d="M 3513 2113 
L 3513 0 
L 2938 0 
L 2938 2094 
Q 2938 2591 2744 2837 
Q 2550 3084 2163 3084 
Q 1697 3084 1428 2787 
Q 1159 2491 1159 1978 
L 1159 0 
L 581 0 
L 581 3500 
L 1159 3500 
L 1159 2956 
Q 1366 3272 1645 3428 
Q 1925 3584 2291 3584 
Q 2894 3584 3203 3211 
Q 3513 2838 3513 2113 
z
" transform="scale(0.015625)"/>
       <path id="DejaVuSans-63" d="M 3122 3366 
L 3122 2828 
Q 2878 2963 2633 3030 
Q 2388 3097 2138 3097 
Q 1578 3097 1268 2742 
Q 959 2388 959 1747 
Q 959 1106 1268 751 
Q 1578 397 2138 397 
Q 2388 397 2633 464 
Q 2878 531 3122 666 
L 3122 134 
Q 2881 22 2623 -34 
Q 2366 -91 2075 -91 
Q 1284 -91 818 406 
Q 353 903 353 1747 
Q 353 2603 823 3093 
Q 1294 3584 2113 3584 
Q 2378 3584 2631 3529 
Q 2884 3475 3122 3366 
z
" transform="scale(0.015625)"/>
       <path id="DejaVuSans-65" d="M 3597 1894 
L 3597 1613 
L 953 1613 
Q 991 1019 1311 708 
Q 1631 397 2203 397 
Q 2534 397 2845 478 
Q 3156 559 3463 722 
L 3463 178 
Q 3153 47 2828 -22 
Q 2503 -91 2169 -91 
Q 1331 -91 842 396 
Q 353 884 353 1716 
Q 353 2575 817 3079 
Q 1281 3584 2069 3584 
Q 2775 3584 3186 3129 
Q 3597 2675 3597 1894 
z
M 3022 2063 
Q 3016 2534 2758 2815 
Q 2500 3097 2075 3097 
Q 1594 3097 1305 2825 
Q 1016 2553 972 2059 
L 3022 2063 
z
" transform="scale(0.015625)"/>
       <path id="DejaVuSans-74" d="M 1172 4494 
L 1172 3500 
L 2356 3500 
L 2356 3053 
L 1172 3053 
L 1172 1153 
Q 1172 725 1289 603 
Q 1406 481 1766 481 
L 2356 481 
L 2356 0 
L 1766 0 
Q 1100 0 847 248 
Q 594 497 594 1153 
L 594 3053 
L 172 3053 
L 172 3500 
L 594 3500 
L 594 4494 
L 1172 4494 
z
" transform="scale(0.015625)"/>
       <path id="DejaVuSans-72" d="M 2631 2963 
Q 2534 3019 2420 3045 
Q 2306 3072 2169 3072 
Q 1681 3072 1420 2755 
Q 1159 2438 1159 1844 
L 1159 0 
L 581 0 
L 581 3500 
L 1159 3500 
L 1159 2956 
Q 1341 3275 1631 3429 
Q 1922 3584 2338 3584 
Q 2397 3584 2469 3576 
Q 2541 3569 2628 3553 
L 2631 2963 
z
" transform="scale(0.015625)"/>
       <path id="DejaVuSans-61" d="M 2194 1759 
Q 1497 1759 1228 1600 
Q 959 1441 959 1056 
Q 959 750 1161 570 
Q 1363 391 1709 391 
Q 2188 391 2477 730 
Q 2766 1069 2766 1631 
L 2766 1759 
L 2194 1759 
z
M 3341 1997 
L 3341 0 
L 2766 0 
L 2766 531 
Q 2569 213 2275 61 
Q 1981 -91 1556 -91 
Q 1019 -91 701 211 
Q 384 513 384 1019 
Q 384 1609 779 1909 
Q 1175 2209 1959 2209 
L 2766 2209 
L 2766 2266 
Q 2766 2663 2505 2880 
Q 2244 3097 1772 3097 
Q 1472 3097 1187 3025 
Q 903 2953 641 2809 
L 641 3341 
Q 956 3463 1253 3523 
Q 1550 3584 1831 3584 
Q 2591 3584 2966 3190 
Q 3341 2797 3341 1997 
z
" transform="scale(0.015625)"/>
       <path id="DejaVuSans-69" d="M 603 3500 
L 1178 3500 
L 1178 0 
L 603 0 
L 603 3500 
z
M 603 4863 
L 1178 4863 
L 1178 4134 
L 603 4134 
L 603 4863 
z
" transform="scale(0.015625)"/>
       <path id="DejaVuSans-5b" d="M 550 4863 
L 1875 4863 
L 1875 4416 
L 1125 4416 
L 1125 -397 
L 1875 -397 
L 1875 -844 
L 550 -844 
L 550 4863 
z
" transform="scale(0.015625)"/>
       <path id="DejaVuSans-4d" d="M 628 4666 
L 1569 4666 
L 2759 1491 
L 3956 4666 
L 4897 4666 
L 4897 0 
L 4281 0 
L 4281 4097 
L 3078 897 
L 2444 897 
L 1241 4097 
L 1241 0 
L 628 0 
L 628 4666 
z
" transform="scale(0.015625)"/>
       <path id="DejaVuSans-5d" d="M 1947 4863 
L 1947 -844 
L 622 -844 
L 622 -397 
L 1369 -397 
L 1369 4416 
L 622 4416 
L 622 4863 
L 1947 4863 
z
" transform="scale(0.015625)"/>
      </defs>
      <use xlink:href="#DejaVuSans-6f"/>
      <use xlink:href="#DejaVuSans-6d" x="61.181641"/>
      <use xlink:href="#DejaVuSans-70" x="158.59375"/>
      <use xlink:href="#DejaVuSans-50" x="222.070312"/>
      <use xlink:href="#DejaVuSans-42" x="282.373047"/>
      <use xlink:href="#DejaVuSans-41" x="350.976562"/>
      <use xlink:href="#DejaVuSans-20" x="419.384766"/>
      <use xlink:href="#DejaVuSans-43" x="451.171875"/>
      <use xlink:href="#DejaVuSans-6f" x="520.996094"/>
      <use xlink:href="#DejaVuSans-6e" x="582.177734"/>
      <use xlink:href="#DejaVuSans-63" x="645.556641"/>
      <use xlink:href="#DejaVuSans-65" x="700.537109"/>
      <use xlink:href="#DejaVuSans-6e" x="762.060547"/>
      <use xlink:href="#DejaVuSans-74" x="825.439453"/>
      <use xlink:href="#DejaVuSans-72" x="864.648438"/>
      <use xlink:href="#DejaVuSans-61" x="905.761719"/>
      <use xlink:href="#DejaVuSans-74" x="967.041016"/>
      <use xlink:href="#DejaVuSans-69" x="1006.25"/>
      <use xlink:href="#DejaVuSans-6f" x="1034.033203"/>
      <use xlink:href="#DejaVuSans-6e" x="1095.214844"/>
      <use xlink:href="#DejaVuSans-20" x="1158.59375"/>
      <use xlink:href="#DejaVuSans-5b" x="1190.380859"/>
      <use xlink:href="#DejaVuSans-4d" x="1229.394531"/>
      <use xlink:href="#DejaVuSans-5d" x="1315.673828"/>
     </g>
    </g>
   </g>
   <g id="matplotlib.axis_2">
    <g id="ytick_1">
     <g id="line2d_8">
      <defs>
       <path id="m0c604f7c20" d="M 0 0 
L -3.5 0 
" style="stroke: #000000; stroke-width: 0.8"/>
      </defs>
      <g>
       <use xlink:href="#m0c604f7c20" x="57.6" y="268.247133" style="stroke: #000000; stroke-width: 0.8"/>
      </g>
     </g>
     <g id="text_9">
      <!-- 0.2 -->
      <g transform="translate(34.696875 272.046351) scale(0.1 -0.1)">
       <use xlink:href="#DejaVuSans-30"/>
       <use xlink:href="#DejaVuSans-2e" x="63.623047"/>
       <use xlink:href="#DejaVuSans-32" x="95.410156"/>
      </g>
     </g>
    </g>
    <g id="ytick_2">
     <g id="line2d_9">
      <g>
       <use xlink:href="#m0c604f7c20" x="57.6" y="214.003283" style="stroke: #000000; stroke-width: 0.8"/>
      </g>
     </g>
     <g id="text_10">
      <!-- 0.3 -->
      <g transform="translate(34.696875 217.802501) scale(0.1 -0.1)">
       <use xlink:href="#DejaVuSans-30"/>
       <use xlink:href="#DejaVuSans-2e" x="63.623047"/>
       <use xlink:href="#DejaVuSans-33" x="95.410156"/>
      </g>
     </g>
    </g>
    <g id="ytick_3">
     <g id="line2d_10">
      <g>
       <use xlink:href="#m0c604f7c20" x="57.6" y="159.759433" style="stroke: #000000; stroke-width: 0.8"/>
      </g>
     </g>
     <g id="text_11">
      <!-- 0.4 -->
      <g transform="translate(34.696875 163.558651) scale(0.1 -0.1)">
       <defs>
        <path id="DejaVuSans-34" d="M 2419 4116 
L 825 1625 
L 2419 1625 
L 2419 4116 
z
M 2253 4666 
L 3047 4666 
L 3047 1625 
L 3713 1625 
L 3713 1100 
L 3047 1100 
L 3047 0 
L 2419 0 
L 2419 1100 
L 313 1100 
L 313 1709 
L 2253 4666 
z
" transform="scale(0.015625)"/>
       </defs>
       <use xlink:href="#DejaVuSans-30"/>
       <use xlink:href="#DejaVuSans-2e" x="63.623047"/>
       <use xlink:href="#DejaVuSans-34" x="95.410156"/>
      </g>
     </g>
    </g>
    <g id="ytick_4">
     <g id="line2d_11">
      <g>
       <use xlink:href="#m0c604f7c20" x="57.6" y="105.515583" style="stroke: #000000; stroke-width: 0.8"/>
      </g>
     </g>
     <g id="text_12">
      <!-- 0.5 -->
      <g transform="translate(34.696875 109.314801) scale(0.1 -0.1)">
       <use xlink:href="#DejaVuSans-30"/>
       <use xlink:href="#DejaVuSans-2e" x="63.623047"/>
       <use xlink:href="#DejaVuSans-35" x="95.410156"/>
      </g>
     </g>
    </g>
    <g id="ytick_5">
     <g id="line2d_12">
      <g>
       <use xlink:href="#m0c604f7c20" x="57.6" y="51.271733" style="stroke: #000000; stroke-width: 0.8"/>
      </g>
     </g>
     <g id="text_13">
      <!-- 0.6 -->
      <g transform="translate(34.696875 55.070951) scale(0.1 -0.1)">
       <defs>
        <path id="DejaVuSans-36" d="M 2113 2584 
Q 1688 2584 1439 2293 
Q 1191 2003 1191 1497 
Q 1191 994 1439 701 
Q 1688 409 2113 409 
Q 2538 409 2786 701 
Q 3034 994 3034 1497 
Q 3034 2003 2786 2293 
Q 2538 2584 2113 2584 
z
M 3366 4563 
L 3366 3988 
Q 3128 4100 2886 4159 
Q 2644 4219 2406 4219 
Q 1781 4219 1451 3797 
Q 1122 3375 1075 2522 
Q 1259 2794 1537 2939 
Q 1816 3084 2150 3084 
Q 2853 3084 3261 2657 
Q 3669 2231 3669 1497 
Q 3669 778 3244 343 
Q 2819 -91 2113 -91 
Q 1303 -91 875 529 
Q 447 1150 447 2328 
Q 447 3434 972 4092 
Q 1497 4750 2381 4750 
Q 2619 4750 2861 4703 
Q 3103 4656 3366 4563 
z
" transform="scale(0.015625)"/>
       </defs>
       <use xlink:href="#DejaVuSans-30"/>
       <use xlink:href="#DejaVuSans-2e" x="63.623047"/>
       <use xlink:href="#DejaVuSans-36" x="95.410156"/>
      </g>
     </g>
    </g>
    <g id="text_14">
     <!-- Absorbance -->
     <g transform="translate(28.617187 204.074875) rotate(-90) scale(0.1 -0.1)">
      <defs>
       <path id="DejaVuSans-62" d="M 3116 1747 
Q 3116 2381 2855 2742 
Q 2594 3103 2138 3103 
Q 1681 3103 1420 2742 
Q 1159 2381 1159 1747 
Q 1159 1113 1420 752 
Q 1681 391 2138 391 
Q 2594 391 2855 752 
Q 3116 1113 3116 1747 
z
M 1159 2969 
Q 1341 3281 1617 3432 
Q 1894 3584 2278 3584 
Q 2916 3584 3314 3078 
Q 3713 2572 3713 1747 
Q 3713 922 3314 415 
Q 2916 -91 2278 -91 
Q 1894 -91 1617 61 
Q 1341 213 1159 525 
L 1159 0 
L 581 0 
L 581 4863 
L 1159 4863 
L 1159 2969 
z
" transform="scale(0.015625)"/>
       <path id="DejaVuSans-73" d="M 2834 3397 
L 2834 2853 
Q 2591 2978 2328 3040 
Q 2066 3103 1784 3103 
Q 1356 3103 1142 2972 
Q 928 2841 928 2578 
Q 928 2378 1081 2264 
Q 1234 2150 1697 2047 
L 1894 2003 
Q 2506 1872 2764 1633 
Q 3022 1394 3022 966 
Q 3022 478 2636 193 
Q 2250 -91 1575 -91 
Q 1294 -91 989 -36 
Q 684 19 347 128 
L 347 722 
Q 666 556 975 473 
Q 1284 391 1588 391 
Q 1994 391 2212 530 
Q 2431 669 2431 922 
Q 2431 1156 2273 1281 
Q 2116 1406 1581 1522 
L 1381 1569 
Q 847 1681 609 1914 
Q 372 2147 372 2553 
Q 372 3047 722 3315 
Q 1072 3584 1716 3584 
Q 2034 3584 2315 3537 
Q 2597 3491 2834 3397 
z
" transform="scale(0.015625)"/>
      </defs>
      <use xlink:href="#DejaVuSans-41"/>
      <use xlink:href="#DejaVuSans-62" x="68.408203"/>
      <use xlink:href="#DejaVuSans-73" x="131.884766"/>
      <use xlink:href="#DejaVuSans-6f" x="183.984375"/>
      <use xlink:href="#DejaVuSans-72" x="245.166016"/>
      <use xlink:href="#DejaVuSans-62" x="286.279297"/>
      <use xlink:href="#DejaVuSans-61" x="349.755859"/>
      <use xlink:href="#DejaVuSans-6e" x="411.035156"/>
      <use xlink:href="#DejaVuSans-63" x="474.414062"/>
      <use xlink:href="#DejaVuSans-65" x="529.394531"/>
     </g>
    </g>
   </g>
   <g id="line2d_13">
    <defs>
     <path id="m88f3309d77" d="M 0 1.5 
C 0.397805 1.5 0.77937 1.341951 1.06066 1.06066 
C 1.341951 0.77937 1.5 0.397805 1.5 0 
C 1.5 -0.397805 1.341951 -0.77937 1.06066 -1.06066 
C 0.77937 -1.341951 0.397805 -1.5 0 -1.5 
C -0.397805 -1.5 -0.77937 -1.341951 -1.06066 -1.06066 
C -1.341951 -0.77937 -1.5 -0.397805 -1.5 0 
C -1.5 0.397805 -1.341951 0.77937 -1.06066 1.06066 
C -0.77937 1.341951 -0.397805 1.5 0 1.5 
z
" style="stroke: #000000"/>
    </defs>
    <g clip-path="url(#p776d3bcdb9)">
     <use xlink:href="#m88f3309d77" x="73.832727" y="263.638619" style="stroke: #000000"/>
     <use xlink:href="#m88f3309d77" x="75.28334" y="260.88367" style="stroke: #000000"/>
     <use xlink:href="#m88f3309d77" x="76.733953" y="257.874963" style="stroke: #000000"/>
     <use xlink:href="#m88f3309d77" x="78.889442" y="253.471011" style="stroke: #000000"/>
     <use xlink:href="#m88f3309d77" x="81.024499" y="249.937457" style="stroke: #000000"/>
     <use xlink:href="#m88f3309d77" x="83.14934" y="246.950856" style="stroke: #000000"/>
     <use xlink:href="#m88f3309d77" x="86.637758" y="241.857056" style="stroke: #000000"/>
     <use xlink:href="#m88f3309d77" x="90.081534" y="237.443307" style="stroke: #000000"/>
     <use xlink:href="#m88f3309d77" x="94.823608" y="232.241951" style="stroke: #000000"/>
     <use xlink:href="#m88f3309d77" x="99.475683" y="227.084028" style="stroke: #000000"/>
     <use xlink:href="#m88f3309d77" x="104.040109" y="223.531784" style="stroke: #000000"/>
     <use xlink:href="#m88f3309d77" x="108.519438" y="218.725261" style="stroke: #000000"/>
     <use xlink:href="#m88f3309d77" x="114.775564" y="214.10916" style="stroke: #000000"/>
     <use xlink:href="#m88f3309d77" x="120.869467" y="210.286688" style="stroke: #000000"/>
     <use xlink:href="#m88f3309d77" x="129.719534" y="204.582454" style="stroke: #000000"/>
     <use xlink:href="#m88f3309d77" x="138.238106" y="199.258732" style="stroke: #000000"/>
     <use xlink:href="#m88f3309d77" x="149.111983" y="193.61305" style="stroke: #000000"/>
     <use xlink:href="#m88f3309d77" x="159.468747" y="189.203819" style="stroke: #000000"/>
     <use xlink:href="#m88f3309d77" x="174.11197" y="183.156059" style="stroke: #000000"/>
     <use xlink:href="#m88f3309d77" x="187.780115" y="179.183475" style="stroke: #000000"/>
     <use xlink:href="#m88f3309d77" x="204.648701" y="173.611324" style="stroke: #000000"/>
     <use xlink:href="#m88f3309d77" x="220.141555" y="170.130188" style="stroke: #000000"/>
     <use xlink:href="#m88f3309d77" x="241.148474" y="165.530951" style="stroke: #000000"/>
     <use xlink:href="#m88f3309d77" x="265.659748" y="159.951196" style="stroke: #000000"/>
     <use xlink:href="#m88f3309d77" x="291.781917" y="155.77042" style="stroke: #000000"/>
     <use xlink:href="#m88f3309d77" x="313.949224" y="152.968275" style="stroke: #000000"/>
     <use xlink:href="#m88f3309d77" x="349.539299" y="148.315606" style="stroke: #000000"/>
     <use xlink:href="#m88f3309d77" x="376.857509" y="145.349374" style="stroke: #000000"/>
     <use xlink:href="#m88f3309d77" x="398.487273" y="143.539496" style="stroke: #000000"/>
    </g>
   </g>
   <g id="line2d_14">
    <defs>
     <path id="mc29c525c7a" d="M 0 1.5 
C 0.397805 1.5 0.77937 1.341951 1.06066 1.06066 
C 1.341951 0.77937 1.5 0.397805 1.5 0 
C 1.5 -0.397805 1.341951 -0.77937 1.06066 -1.06066 
C 0.77937 -1.341951 0.397805 -1.5 0 -1.5 
C -0.397805 -1.5 -0.77937 -1.341951 -1.06066 -1.06066 
C -1.341951 -0.77937 -1.5 -0.397805 -1.5 0 
C -1.5 0.397805 -1.341951 0.77937 -1.06066 1.06066 
C -0.77937 1.341951 -0.397805 1.5 0 1.5 
z
" style="stroke: #ff0000"/>
    </defs>
    <g clip-path="url(#p776d3bcdb9)">
     <use xlink:href="#mc29c525c7a" x="73.832727" y="127.419603" style="fill: #ff0000; stroke: #ff0000"/>
     <use xlink:href="#mc29c525c7a" x="75.28334" y="132.23477" style="fill: #ff0000; stroke: #ff0000"/>
     <use xlink:href="#mc29c525c7a" x="76.733953" y="136.815464" style="fill: #ff0000; stroke: #ff0000"/>
     <use xlink:href="#mc29c525c7a" x="78.889442" y="142.596532" style="fill: #ff0000; stroke: #ff0000"/>
     <use xlink:href="#mc29c525c7a" x="81.024499" y="147.909628" style="fill: #ff0000; stroke: #ff0000"/>
     <use xlink:href="#mc29c525c7a" x="83.14934" y="151.849196" style="fill: #ff0000; stroke: #ff0000"/>
     <use xlink:href="#mc29c525c7a" x="86.637758" y="159.301029" style="fill: #ff0000; stroke: #ff0000"/>
     <use xlink:href="#mc29c525c7a" x="90.081534" y="165.357498" style="fill: #ff0000; stroke: #ff0000"/>
     <use xlink:href="#mc29c525c7a" x="94.823608" y="172.313873" style="fill: #ff0000; stroke: #ff0000"/>
     <use xlink:href="#mc29c525c7a" x="99.475683" y="179.908458" style="fill: #ff0000; stroke: #ff0000"/>
     <use xlink:href="#mc29c525c7a" x="104.040109" y="186.535931" style="fill: #ff0000; stroke: #ff0000"/>
     <use xlink:href="#mc29c525c7a" x="108.519438" y="194.276543" style="fill: #ff0000; stroke: #ff0000"/>
     <use xlink:href="#mc29c525c7a" x="114.775564" y="200.738774" style="fill: #ff0000; stroke: #ff0000"/>
     <use xlink:href="#mc29c525c7a" x="120.869467" y="206.775271" style="fill: #ff0000; stroke: #ff0000"/>
     <use xlink:href="#mc29c525c7a" x="129.719534" y="215.515697" style="fill: #ff0000; stroke: #ff0000"/>
     <use xlink:href="#mc29c525c7a" x="138.238106" y="222.858755" style="fill: #ff0000; stroke: #ff0000"/>
     <use xlink:href="#mc29c525c7a" x="149.111983" y="231.23889" style="fill: #ff0000; stroke: #ff0000"/>
     <use xlink:href="#mc29c525c7a" x="159.468747" y="237.705884" style="fill: #ff0000; stroke: #ff0000"/>
     <use xlink:href="#mc29c525c7a" x="174.11197" y="245.570246" style="fill: #ff0000; stroke: #ff0000"/>
     <use xlink:href="#mc29c525c7a" x="187.780115" y="251.739866" style="fill: #ff0000; stroke: #ff0000"/>
     <use xlink:href="#mc29c525c7a" x="204.648701" y="259.298053" style="fill: #ff0000; stroke: #ff0000"/>
     <use xlink:href="#mc29c525c7a" x="220.141555" y="264.083105" style="fill: #ff0000; stroke: #ff0000"/>
     <use xlink:href="#mc29c525c7a" x="241.148474" y="270.605064" style="fill: #ff0000; stroke: #ff0000"/>
     <use xlink:href="#mc29c525c7a" x="265.659748" y="277.998028" style="fill: #ff0000; stroke: #ff0000"/>
     <use xlink:href="#mc29c525c7a" x="291.781917" y="283.729398" style="fill: #ff0000; stroke: #ff0000"/>
     <use xlink:href="#mc29c525c7a" x="313.949224" y="287.349653" style="fill: #ff0000; stroke: #ff0000"/>
     <use xlink:href="#mc29c525c7a" x="349.539299" y="293.152815" style="fill: #ff0000; stroke: #ff0000"/>
     <use xlink:href="#mc29c525c7a" x="376.857509" y="296.910404" style="fill: #ff0000; stroke: #ff0000"/>
     <use xlink:href="#mc29c525c7a" x="398.487273" y="299.004743" style="fill: #ff0000; stroke: #ff0000"/>
    </g>
   </g>
   <g id="line2d_15">
    <path d="M 73.832727 262.127898 
L 77.112066 256.800075 
L 80.391405 251.812502 
L 83.670744 247.1371 
L 86.950083 242.748392 
L 90.229421 238.623261 
L 93.50876 234.740735 
L 96.788099 231.081782 
L 100.067438 227.629121 
L 103.346777 224.36705 
L 106.626116 221.281292 
L 109.905455 218.358851 
L 113.184793 215.587886 
L 116.464132 212.957599 
L 119.743471 210.458127 
L 123.02281 208.080456 
L 126.302149 205.816334 
L 129.581488 203.658199 
L 132.860826 201.599111 
L 136.140165 199.632696 
L 139.419504 197.753089 
L 142.698843 195.954891 
L 145.978182 194.233121 
L 149.257521 192.583181 
L 152.53686 191.000822 
L 155.816198 189.48211 
L 159.095537 188.023402 
L 162.374876 186.621318 
L 165.654215 185.272719 
L 168.933554 183.974687 
L 172.212893 182.724508 
L 175.492231 181.51965 
L 178.77157 180.357754 
L 182.050909 179.236619 
L 185.330248 178.154187 
L 188.609587 177.108531 
L 191.888926 176.09785 
L 195.168264 175.120454 
L 198.447603 174.174759 
L 201.726942 173.259277 
L 205.006281 172.372612 
L 208.28562 171.513447 
L 211.564959 170.680547 
L 214.844298 169.872746 
L 218.123636 169.088945 
L 221.402975 168.328108 
L 224.682314 167.589255 
L 227.961653 166.871463 
L 231.240992 166.173856 
L 234.520331 165.495608 
L 237.799669 164.835935 
L 241.079008 164.194094 
L 244.358347 163.569383 
L 247.637686 162.961133 
L 250.917025 162.36871 
L 254.196364 161.791512 
L 257.475702 161.228967 
L 260.755041 160.68053 
L 264.03438 160.145683 
L 267.313719 159.623932 
L 270.593058 159.114809 
L 273.872397 158.617864 
L 277.151736 158.132671 
L 280.431074 157.658821 
L 283.710413 157.195926 
L 286.989752 156.743613 
L 290.269091 156.301527 
L 293.54843 155.869329 
L 296.827769 155.446693 
L 300.107107 155.033309 
L 303.386446 154.628878 
L 306.665785 154.233114 
L 309.945124 153.845746 
L 313.224463 153.46651 
L 316.503802 153.095155 
L 319.78314 152.731441 
L 323.062479 152.375134 
L 326.341818 152.026014 
L 329.621157 151.683865 
L 332.900496 151.348484 
L 336.179835 151.019673 
L 339.459174 150.697241 
L 342.738512 150.381007 
L 346.017851 150.070793 
L 349.29719 149.766432 
L 352.576529 149.467761 
L 355.855868 149.174621 
L 359.135207 148.886862 
L 362.414545 148.604338 
L 365.693884 148.326908 
L 368.973223 148.054436 
L 372.252562 147.786792 
L 375.531901 147.523849 
L 378.81124 147.265484 
L 382.090579 147.011581 
L 385.369917 146.762025 
L 388.649256 146.516705 
L 391.928595 146.275516 
L 395.207934 146.038355 
L 398.487273 145.805121 
" clip-path="url(#p776d3bcdb9)" style="fill: none; stroke: #000000; stroke-width: 1.5; stroke-linecap: square"/>
   </g>
   <g id="line2d_16">
    <path d="M 73.832727 130.654567 
L 77.112066 138.340795 
L 80.391405 145.53616 
L 83.670744 152.281168 
L 86.950083 158.612575 
L 90.229421 164.56373 
L 93.50876 170.164889 
L 96.788099 175.443508 
L 100.067438 180.424519 
L 103.346777 185.130572 
L 106.626116 189.582268 
L 109.905455 193.798352 
L 113.184793 197.795908 
L 116.464132 201.590514 
L 119.743471 205.196398 
L 123.02281 208.626565 
L 126.302149 211.892919 
L 129.581488 215.006372 
L 132.860826 217.976932 
L 136.140165 220.813798 
L 139.419504 223.525428 
L 142.698843 226.119614 
L 145.978182 228.60354 
L 149.257521 230.98384 
L 152.53686 233.266644 
L 155.816198 235.457626 
L 159.095537 237.562043 
L 162.374876 239.584772 
L 165.654215 241.530339 
L 168.933554 243.402956 
L 172.212893 245.206538 
L 175.492231 246.944737 
L 178.77157 248.620955 
L 182.050909 250.238369 
L 185.330248 251.79995 
L 188.609587 253.308475 
L 191.888926 254.766542 
L 195.168264 256.176591 
L 198.447603 257.540906 
L 201.726942 258.861633 
L 205.006281 260.140788 
L 208.28562 261.380269 
L 211.564959 262.581859 
L 214.844298 263.74724 
L 218.123636 264.877998 
L 221.402975 265.975626 
L 224.682314 267.041538 
L 227.961653 268.077068 
L 231.240992 269.083476 
L 234.520331 270.061956 
L 237.799669 271.013639 
L 241.079008 271.939595 
L 244.358347 272.84084 
L 247.637686 273.718338 
L 250.917025 274.573002 
L 254.196364 275.405701 
L 257.475702 276.217262 
L 260.755041 277.008469 
L 264.03438 277.780071 
L 267.313719 278.532778 
L 270.593058 279.267269 
L 273.872397 279.984191 
L 277.151736 280.684159 
L 280.431074 281.367763 
L 283.710413 282.035562 
L 286.989752 282.688095 
L 290.269091 283.325874 
L 293.54843 283.949388 
L 296.827769 284.559107 
L 300.107107 285.15548 
L 303.386446 285.738936 
L 306.665785 286.309887 
L 309.945124 286.868727 
L 313.224463 287.415835 
L 316.503802 287.951573 
L 319.78314 288.47629 
L 323.062479 288.990318 
L 326.341818 289.49398 
L 329.621157 289.987583 
L 332.900496 290.471423 
L 336.179835 290.945786 
L 339.459174 291.410945 
L 342.738512 291.867163 
L 346.017851 292.314695 
L 349.29719 292.753784 
L 352.576529 293.184665 
L 355.855868 293.607566 
L 359.135207 294.022704 
L 362.414545 294.430289 
L 365.693884 294.830526 
L 368.973223 295.22361 
L 372.252562 295.609729 
L 375.531901 295.989066 
L 378.81124 296.361798 
L 382.090579 296.728093 
L 385.369917 297.088118 
L 388.649256 297.44203 
L 391.928595 297.789984 
L 395.207934 298.132126 
L 398.487273 298.468603 
" clip-path="url(#p776d3bcdb9)" style="fill: none; stroke: #ff0000; stroke-width: 1.5; stroke-linecap: square"/>
   </g>
   <g id="patch_3">
    <path d="M 57.6 307.584 
L 57.6 41.472 
" style="fill: none; stroke: #000000; stroke-width: 0.8; stroke-linejoin: miter; stroke-linecap: square"/>
   </g>
   <g id="patch_4">
    <path d="M 414.72 307.584 
L 414.72 41.472 
" style="fill: none; stroke: #000000; stroke-width: 0.8; stroke-linejoin: miter; stroke-linecap: square"/>
   </g>
   <g id="patch_5">
    <path d="M 57.6 307.584 
L 414.72 307.584 
" style="fill: none; stroke: #000000; stroke-width: 0.8; stroke-linejoin: miter; stroke-linecap: square"/>
   </g>
   <g id="patch_6">
    <path d="M 57.6 41.472 
L 414.72 41.472 
" style="fill: none; stroke: #000000; stroke-width: 0.8; stroke-linejoin: miter; stroke-linecap: square"/>
   </g>
   <g id="text_15">
    <!-- $K_{I} = 1.35×10³ M^{-1}$ -->
    <g transform="translate(299.046 97.964712) scale(0.1 -0.1)">
     <defs>
      <path id="DejaVuSans-Oblique-4b" d="M 1081 4666 
L 1716 4666 
L 1331 2700 
L 3781 4666 
L 4622 4666 
L 1850 2438 
L 3878 0 
L 3109 0 
L 1247 2272 
L 806 0 
L 172 0 
L 1081 4666 
z
" transform="scale(0.015625)"/>
      <path id="DejaVuSans-Oblique-49" d="M 1081 4666 
L 1716 4666 
L 806 0 
L 172 0 
L 1081 4666 
z
" transform="scale(0.015625)"/>
      <path id="DejaVuSans-3d" d="M 678 2906 
L 4684 2906 
L 4684 2381 
L 678 2381 
L 678 2906 
z
M 678 1631 
L 4684 1631 
L 4684 1100 
L 678 1100 
L 678 1631 
z
" transform="scale(0.015625)"/>
      <path id="DejaVuSans-d7" d="M 4488 3438 
L 3059 2003 
L 4488 575 
L 4116 197 
L 2681 1631 
L 1247 197 
L 878 575 
L 2303 2003 
L 878 3438 
L 1247 3816 
L 2681 2381 
L 4116 3816 
L 4488 3438 
z
" transform="scale(0.015625)"/>
      <path id="DejaVuSans-b3" d="M 1638 3500 
Q 1925 3444 2083 3273 
Q 2241 3103 2241 2847 
Q 2241 2459 1944 2250 
Q 1647 2041 1094 2041 
Q 916 2041 720 2073 
Q 525 2106 306 2169 
L 306 2547 
Q 469 2463 655 2422 
Q 841 2381 1050 2381 
Q 1391 2381 1578 2504 
Q 1766 2628 1766 2847 
Q 1766 3078 1592 3197 
Q 1419 3316 1081 3316 
L 813 3316 
L 813 3653 
L 1106 3653 
Q 1400 3653 1551 3751 
Q 1703 3850 1703 4038 
Q 1703 4219 1547 4314 
Q 1391 4409 1094 4409 
Q 969 4409 809 4381 
Q 650 4353 397 4281 
L 397 4641 
Q 625 4694 825 4722 
Q 1025 4750 1197 4750 
Q 1647 4750 1911 4565 
Q 2175 4381 2175 4072 
Q 2175 3856 2034 3706 
Q 1894 3556 1638 3500 
z
" transform="scale(0.015625)"/>
      <path id="DejaVuSans-Oblique-4d" d="M 1081 4666 
L 2028 4666 
L 2572 1522 
L 4378 4666 
L 5350 4666 
L 4441 0 
L 3828 0 
L 4622 4091 
L 2791 897 
L 2175 897 
L 1581 4103 
L 788 0 
L 172 0 
L 1081 4666 
z
" transform="scale(0.015625)"/>
      <path id="DejaVuSans-2212" d="M 678 2272 
L 4684 2272 
L 4684 1741 
L 678 1741 
L 678 2272 
z
" transform="scale(0.015625)"/>
     </defs>
     <use xlink:href="#DejaVuSans-Oblique-4b" transform="translate(0 0.684375)"/>
     <use xlink:href="#DejaVuSans-Oblique-49" transform="translate(65.576172 -15.721875) scale(0.7)"/>
     <use xlink:href="#DejaVuSans-3d" transform="translate(108.4375 0.684375)"/>
     <use xlink:href="#DejaVuSans-31" transform="translate(211.708984 0.684375)"/>
     <use xlink:href="#DejaVuSans-2e" transform="translate(275.332031 0.684375)"/>
     <use xlink:href="#DejaVuSans-33" transform="translate(307.119141 0.684375)"/>
     <use xlink:href="#DejaVuSans-35" transform="translate(370.742188 0.684375)"/>
     <use xlink:href="#DejaVuSans-d7" transform="translate(434.365234 0.684375)"/>
     <use xlink:href="#DejaVuSans-31" transform="translate(518.154297 0.684375)"/>
     <use xlink:href="#DejaVuSans-30" transform="translate(581.777344 0.684375)"/>
     <use xlink:href="#DejaVuSans-b3" transform="translate(645.400391 0.684375)"/>
     <use xlink:href="#DejaVuSans-Oblique-4d" transform="translate(685.488281 0.684375)"/>
     <use xlink:href="#DejaVuSans-2212" transform="translate(778.784349 38.965625) scale(0.7)"/>
     <use xlink:href="#DejaVuSans-31" transform="translate(837.436693 38.965625) scale(0.7)"/>
    </g>
   </g>
   <g id="text_16">
    <!-- Direct Titration of ARS &amp; ompPBA in Water  -->
    <g transform="translate(106.895625 22.034625) scale(0.12 -0.12)">
     <defs>
      <path id="DejaVuSans-44" d="M 1259 4147 
L 1259 519 
L 2022 519 
Q 2988 519 3436 956 
Q 3884 1394 3884 2338 
Q 3884 3275 3436 3711 
Q 2988 4147 2022 4147 
L 1259 4147 
z
M 628 4666 
L 1925 4666 
Q 3281 4666 3915 4102 
Q 4550 3538 4550 2338 
Q 4550 1131 3912 565 
Q 3275 0 1925 0 
L 628 0 
L 628 4666 
z
" transform="scale(0.015625)"/>
      <path id="DejaVuSans-54" d="M -19 4666 
L 3928 4666 
L 3928 4134 
L 2272 4134 
L 2272 0 
L 1638 0 
L 1638 4134 
L -19 4134 
L -19 4666 
z
" transform="scale(0.015625)"/>
      <path id="DejaVuSans-66" d="M 2375 4863 
L 2375 4384 
L 1825 4384 
Q 1516 4384 1395 4259 
Q 1275 4134 1275 3809 
L 1275 3500 
L 2222 3500 
L 2222 3053 
L 1275 3053 
L 1275 0 
L 697 0 
L 697 3053 
L 147 3053 
L 147 3500 
L 697 3500 
L 697 3744 
Q 697 4328 969 4595 
Q 1241 4863 1831 4863 
L 2375 4863 
z
" transform="scale(0.015625)"/>
      <path id="DejaVuSans-52" d="M 2841 2188 
Q 3044 2119 3236 1894 
Q 3428 1669 3622 1275 
L 4263 0 
L 3584 0 
L 2988 1197 
Q 2756 1666 2539 1819 
Q 2322 1972 1947 1972 
L 1259 1972 
L 1259 0 
L 628 0 
L 628 4666 
L 2053 4666 
Q 2853 4666 3247 4331 
Q 3641 3997 3641 3322 
Q 3641 2881 3436 2590 
Q 3231 2300 2841 2188 
z
M 1259 4147 
L 1259 2491 
L 2053 2491 
Q 2509 2491 2742 2702 
Q 2975 2913 2975 3322 
Q 2975 3731 2742 3939 
Q 2509 4147 2053 4147 
L 1259 4147 
z
" transform="scale(0.015625)"/>
      <path id="DejaVuSans-53" d="M 3425 4513 
L 3425 3897 
Q 3066 4069 2747 4153 
Q 2428 4238 2131 4238 
Q 1616 4238 1336 4038 
Q 1056 3838 1056 3469 
Q 1056 3159 1242 3001 
Q 1428 2844 1947 2747 
L 2328 2669 
Q 3034 2534 3370 2195 
Q 3706 1856 3706 1288 
Q 3706 609 3251 259 
Q 2797 -91 1919 -91 
Q 1588 -91 1214 -16 
Q 841 59 441 206 
L 441 856 
Q 825 641 1194 531 
Q 1563 422 1919 422 
Q 2459 422 2753 634 
Q 3047 847 3047 1241 
Q 3047 1584 2836 1778 
Q 2625 1972 2144 2069 
L 1759 2144 
Q 1053 2284 737 2584 
Q 422 2884 422 3419 
Q 422 4038 858 4394 
Q 1294 4750 2059 4750 
Q 2388 4750 2728 4690 
Q 3069 4631 3425 4513 
z
" transform="scale(0.015625)"/>
      <path id="DejaVuSans-26" d="M 1556 2509 
Q 1272 2256 1139 2004 
Q 1006 1753 1006 1478 
Q 1006 1022 1337 719 
Q 1669 416 2169 416 
Q 2466 416 2725 514 
Q 2984 613 3213 813 
L 1556 2509 
z
M 1997 2859 
L 3584 1234 
Q 3769 1513 3872 1830 
Q 3975 2147 3994 2503 
L 4575 2503 
Q 4538 2091 4375 1687 
Q 4213 1284 3922 891 
L 4794 0 
L 4006 0 
L 3559 459 
Q 3234 181 2878 45 
Q 2522 -91 2113 -91 
Q 1359 -91 881 339 
Q 403 769 403 1441 
Q 403 1841 612 2192 
Q 822 2544 1241 2853 
Q 1091 3050 1012 3245 
Q 934 3441 934 3628 
Q 934 4134 1281 4442 
Q 1628 4750 2203 4750 
Q 2463 4750 2720 4694 
Q 2978 4638 3244 4525 
L 3244 3956 
Q 2972 4103 2725 4179 
Q 2478 4256 2266 4256 
Q 1938 4256 1733 4082 
Q 1528 3909 1528 3634 
Q 1528 3475 1620 3314 
Q 1713 3153 1997 2859 
z
" transform="scale(0.015625)"/>
      <path id="DejaVuSans-57" d="M 213 4666 
L 850 4666 
L 1831 722 
L 2809 4666 
L 3519 4666 
L 4500 722 
L 5478 4666 
L 6119 4666 
L 4947 0 
L 4153 0 
L 3169 4050 
L 2175 0 
L 1381 0 
L 213 4666 
z
" transform="scale(0.015625)"/>
     </defs>
     <use xlink:href="#DejaVuSans-44"/>
     <use xlink:href="#DejaVuSans-69" x="77.001953"/>
     <use xlink:href="#DejaVuSans-72" x="104.785156"/>
     <use xlink:href="#DejaVuSans-65" x="143.648438"/>
     <use xlink:href="#DejaVuSans-63" x="205.171875"/>
     <use xlink:href="#DejaVuSans-74" x="260.152344"/>
     <use xlink:href="#DejaVuSans-20" x="299.361328"/>
     <use xlink:href="#DejaVuSans-54" x="331.148438"/>
     <use xlink:href="#DejaVuSans-69" x="389.107422"/>
     <use xlink:href="#DejaVuSans-74" x="416.890625"/>
     <use xlink:href="#DejaVuSans-72" x="456.099609"/>
     <use xlink:href="#DejaVuSans-61" x="497.212891"/>
     <use xlink:href="#DejaVuSans-74" x="558.492188"/>
     <use xlink:href="#DejaVuSans-69" x="597.701172"/>
     <use xlink:href="#DejaVuSans-6f" x="625.484375"/>
     <use xlink:href="#DejaVuSans-6e" x="686.666016"/>
     <use xlink:href="#DejaVuSans-20" x="750.044922"/>
     <use xlink:href="#DejaVuSans-6f" x="781.832031"/>
     <use xlink:href="#DejaVuSans-66" x="843.013672"/>
     <use xlink:href="#DejaVuSans-20" x="878.21875"/>
     <use xlink:href="#DejaVuSans-41" x="910.005859"/>
     <use xlink:href="#DejaVuSans-52" x="978.414062"/>
     <use xlink:href="#DejaVuSans-53" x="1047.896484"/>
     <use xlink:href="#DejaVuSans-20" x="1111.373047"/>
     <use xlink:href="#DejaVuSans-26" x="1143.160156"/>
     <use xlink:href="#DejaVuSans-20" x="1221.138672"/>
     <use xlink:href="#DejaVuSans-6f" x="1252.925781"/>
     <use xlink:href="#DejaVuSans-6d" x="1314.107422"/>
     <use xlink:href="#DejaVuSans-70" x="1411.519531"/>
     <use xlink:href="#DejaVuSans-50" x="1474.996094"/>
     <use xlink:href="#DejaVuSans-42" x="1535.298828"/>
     <use xlink:href="#DejaVuSans-41" x="1603.902344"/>
     <use xlink:href="#DejaVuSans-20" x="1672.310547"/>
     <use xlink:href="#DejaVuSans-69" x="1704.097656"/>
     <use xlink:href="#DejaVuSans-6e" x="1731.880859"/>
     <use xlink:href="#DejaVuSans-20" x="1795.259766"/>
     <use xlink:href="#DejaVuSans-57" x="1827.046875"/>
     <use xlink:href="#DejaVuSans-61" x="1919.548828"/>
     <use xlink:href="#DejaVuSans-74" x="1980.828125"/>
     <use xlink:href="#DejaVuSans-65" x="2020.037109"/>
     <use xlink:href="#DejaVuSans-72" x="2081.560547"/>
     <use xlink:href="#DejaVuSans-20" x="2122.673828"/>
    </g>
    <!--  -->
    <g transform="translate(236.16 35.472) scale(0.12 -0.12)"/>
   </g>
   <g id="legend_1">
    <g id="patch_7">
     <path d="M 337.37625 78.82825 
L 407.72 78.82825 
Q 409.72 78.82825 409.72 76.82825 
L 409.72 48.472 
Q 409.72 46.472 407.72 46.472 
L 337.37625 46.472 
Q 335.37625 46.472 335.37625 48.472 
L 335.37625 76.82825 
Q 335.37625 78.82825 337.37625 78.82825 
z
" style="fill: #ffffff; opacity: 0.8; stroke: #cccccc; stroke-linejoin: miter"/>
    </g>
    <g id="line2d_17">
     <g>
      <use xlink:href="#m88f3309d77" x="349.37625" y="54.570437" style="stroke: #000000"/>
     </g>
    </g>
    <g id="text_17">
     <!-- 430 nm -->
     <g transform="translate(367.37625 58.070437) scale(0.1 -0.1)">
      <use xlink:href="#DejaVuSans-34"/>
      <use xlink:href="#DejaVuSans-33" x="63.623047"/>
      <use xlink:href="#DejaVuSans-30" x="127.246094"/>
      <use xlink:href="#DejaVuSans-20" x="190.869141"/>
      <use xlink:href="#DejaVuSans-6e" x="222.65625"/>
      <use xlink:href="#DejaVuSans-6d" x="286.035156"/>
     </g>
    </g>
    <g id="line2d_18">
     <g>
      <use xlink:href="#mc29c525c7a" x="349.37625" y="69.248562" style="fill: #ff0000; stroke: #ff0000"/>
     </g>
    </g>
    <g id="text_18">
     <!-- 540 nm -->
     <g transform="translate(367.37625 72.748562) scale(0.1 -0.1)">
      <use xlink:href="#DejaVuSans-35"/>
      <use xlink:href="#DejaVuSans-34" x="63.623047"/>
      <use xlink:href="#DejaVuSans-30" x="127.246094"/>
      <use xlink:href="#DejaVuSans-20" x="190.869141"/>
      <use xlink:href="#DejaVuSans-6e" x="222.65625"/>
      <use xlink:href="#DejaVuSans-6d" x="286.035156"/>
     </g>
    </g>
   </g>
  </g>
 </g>
 <defs>
  <clipPath id="p776d3bcdb9">
   <rect x="57.6" y="41.472" width="357.12" height="266.112"/>
  </clipPath>
 </defs>
</svg>
