<?xml version="1.0" encoding="utf-8" standalone="no"?>
<!DOCTYPE svg PUBLIC "-//W3C//DTD SVG 1.1//EN"
  "http://www.w3.org/Graphics/SVG/1.1/DTD/svg11.dtd">
<svg xmlns:xlink="http://www.w3.org/1999/xlink" width="460.8pt" height="345.6pt" viewBox="0 0 460.8 345.6" xmlns="http://www.w3.org/2000/svg" version="1.1">
 <metadata>
  <rdf:RDF xmlns:dc="http://purl.org/dc/elements/1.1/" xmlns:cc="http://creativecommons.org/ns#" xmlns:rdf="http://www.w3.org/1999/02/22-rdf-syntax-ns#">
   <cc:Work>
    <dc:type rdf:resource="http://purl.org/dc/dcmitype/StillImage"/>
    <dc:date>2024-11-03T21:07:19.427991</dc:date>
    <dc:format>image/svg+xml</dc:format>
    <dc:creator>
     <cc:Agent>
      <dc:title>Matplotlib v3.9.2, https://matplotlib.org/</dc:title>
     </cc:Agent>
    </dc:creator>
   </cc:Work>
  </rdf:RDF>
 </metadata>
 <defs>
  <style type="text/css">*{stroke-linejoin: round; stroke-linecap: butt}</style>
 </defs>
 <g id="figure_1">
  <g id="patch_1">
   <path d="M 0 345.6 
L 460.8 345.6 
L 460.8 0 
L 0 0 
z
" style="fill: #ffffff"/>
  </g>
  <g id="axes_1">
   <g id="patch_2">
    <path d="M 57.6 307.584 
L 414.72 307.584 
L 414.72 41.472 
L 57.6 41.472 
z
" style="fill: #ffffff"/>
   </g>
   <g id="matplotlib.axis_1">
    <g id="xtick_1">
     <g id="line2d_1">
      <defs>
       <path id="md97b539776" d="M 0 0 
L 0 3.5 
" style="stroke: #000000; stroke-width: 0.8"/>
      </defs>
      <g>
       <use xlink:href="#md97b539776" x="73.832727" y="307.584" style="stroke: #000000; stroke-width: 0.8"/>
      </g>
     </g>
     <g id="text_1">
      <!-- 0.000 -->
      <g transform="translate(59.518665 322.182437) scale(0.1 -0.1)">
       <defs>
        <path id="DejaVuSans-30" d="M 2034 4250 
Q 1547 4250 1301 3770 
Q 1056 3291 1056 2328 
Q 1056 1369 1301 889 
Q 1547 409 2034 409 
Q 2525 409 2770 889 
Q 3016 1369 3016 2328 
Q 3016 3291 2770 3770 
Q 2525 4250 2034 4250 
z
M 2034 4750 
Q 2819 4750 3233 4129 
Q 3647 3509 3647 2328 
Q 3647 1150 3233 529 
Q 2819 -91 2034 -91 
Q 1250 -91 836 529 
Q 422 1150 422 2328 
Q 422 3509 836 4129 
Q 1250 4750 2034 4750 
z
" transform="scale(0.015625)"/>
        <path id="DejaVuSans-2e" d="M 684 794 
L 1344 794 
L 1344 0 
L 684 0 
L 684 794 
z
" transform="scale(0.015625)"/>
       </defs>
       <use xlink:href="#DejaVuSans-30"/>
       <use xlink:href="#DejaVuSans-2e" x="63.623047"/>
       <use xlink:href="#DejaVuSans-30" x="95.410156"/>
       <use xlink:href="#DejaVuSans-30" x="159.033203"/>
       <use xlink:href="#DejaVuSans-30" x="222.65625"/>
      </g>
     </g>
    </g>
    <g id="xtick_2">
     <g id="line2d_2">
      <g>
       <use xlink:href="#md97b539776" x="119.371213" y="307.584" style="stroke: #000000; stroke-width: 0.8"/>
      </g>
     </g>
     <g id="text_2">
      <!-- 0.002 -->
      <g transform="translate(105.057151 322.182437) scale(0.1 -0.1)">
       <defs>
        <path id="DejaVuSans-32" d="M 1228 531 
L 3431 531 
L 3431 0 
L 469 0 
L 469 531 
Q 828 903 1448 1529 
Q 2069 2156 2228 2338 
Q 2531 2678 2651 2914 
Q 2772 3150 2772 3378 
Q 2772 3750 2511 3984 
Q 2250 4219 1831 4219 
Q 1534 4219 1204 4116 
Q 875 4013 500 3803 
L 500 4441 
Q 881 4594 1212 4672 
Q 1544 4750 1819 4750 
Q 2544 4750 2975 4387 
Q 3406 4025 3406 3419 
Q 3406 3131 3298 2873 
Q 3191 2616 2906 2266 
Q 2828 2175 2409 1742 
Q 1991 1309 1228 531 
z
" transform="scale(0.015625)"/>
       </defs>
       <use xlink:href="#DejaVuSans-30"/>
       <use xlink:href="#DejaVuSans-2e" x="63.623047"/>
       <use xlink:href="#DejaVuSans-30" x="95.410156"/>
       <use xlink:href="#DejaVuSans-30" x="159.033203"/>
       <use xlink:href="#DejaVuSans-32" x="222.65625"/>
      </g>
     </g>
    </g>
    <g id="xtick_3">
     <g id="line2d_3">
      <g>
       <use xlink:href="#md97b539776" x="164.909699" y="307.584" style="stroke: #000000; stroke-width: 0.8"/>
      </g>
     </g>
     <g id="text_3">
      <!-- 0.004 -->
      <g transform="translate(150.595637 322.182437) scale(0.1 -0.1)">
       <defs>
        <path id="DejaVuSans-34" d="M 2419 4116 
L 825 1625 
L 2419 1625 
L 2419 4116 
z
M 2253 4666 
L 3047 4666 
L 3047 1625 
L 3713 1625 
L 3713 1100 
L 3047 1100 
L 3047 0 
L 2419 0 
L 2419 1100 
L 313 1100 
L 313 1709 
L 2253 4666 
z
" transform="scale(0.015625)"/>
       </defs>
       <use xlink:href="#DejaVuSans-30"/>
       <use xlink:href="#DejaVuSans-2e" x="63.623047"/>
       <use xlink:href="#DejaVuSans-30" x="95.410156"/>
       <use xlink:href="#DejaVuSans-30" x="159.033203"/>
       <use xlink:href="#DejaVuSans-34" x="222.65625"/>
      </g>
     </g>
    </g>
    <g id="xtick_4">
     <g id="line2d_4">
      <g>
       <use xlink:href="#md97b539776" x="210.448185" y="307.584" style="stroke: #000000; stroke-width: 0.8"/>
      </g>
     </g>
     <g id="text_4">
      <!-- 0.006 -->
      <g transform="translate(196.134123 322.182437) scale(0.1 -0.1)">
       <defs>
        <path id="DejaVuSans-36" d="M 2113 2584 
Q 1688 2584 1439 2293 
Q 1191 2003 1191 1497 
Q 1191 994 1439 701 
Q 1688 409 2113 409 
Q 2538 409 2786 701 
Q 3034 994 3034 1497 
Q 3034 2003 2786 2293 
Q 2538 2584 2113 2584 
z
M 3366 4563 
L 3366 3988 
Q 3128 4100 2886 4159 
Q 2644 4219 2406 4219 
Q 1781 4219 1451 3797 
Q 1122 3375 1075 2522 
Q 1259 2794 1537 2939 
Q 1816 3084 2150 3084 
Q 2853 3084 3261 2657 
Q 3669 2231 3669 1497 
Q 3669 778 3244 343 
Q 2819 -91 2113 -91 
Q 1303 -91 875 529 
Q 447 1150 447 2328 
Q 447 3434 972 4092 
Q 1497 4750 2381 4750 
Q 2619 4750 2861 4703 
Q 3103 4656 3366 4563 
z
" transform="scale(0.015625)"/>
       </defs>
       <use xlink:href="#DejaVuSans-30"/>
       <use xlink:href="#DejaVuSans-2e" x="63.623047"/>
       <use xlink:href="#DejaVuSans-30" x="95.410156"/>
       <use xlink:href="#DejaVuSans-30" x="159.033203"/>
       <use xlink:href="#DejaVuSans-36" x="222.65625"/>
      </g>
     </g>
    </g>
    <g id="xtick_5">
     <g id="line2d_5">
      <g>
       <use xlink:href="#md97b539776" x="255.986671" y="307.584" style="stroke: #000000; stroke-width: 0.8"/>
      </g>
     </g>
     <g id="text_5">
      <!-- 0.008 -->
      <g transform="translate(241.672609 322.182437) scale(0.1 -0.1)">
       <defs>
        <path id="DejaVuSans-38" d="M 2034 2216 
Q 1584 2216 1326 1975 
Q 1069 1734 1069 1313 
Q 1069 891 1326 650 
Q 1584 409 2034 409 
Q 2484 409 2743 651 
Q 3003 894 3003 1313 
Q 3003 1734 2745 1975 
Q 2488 2216 2034 2216 
z
M 1403 2484 
Q 997 2584 770 2862 
Q 544 3141 544 3541 
Q 544 4100 942 4425 
Q 1341 4750 2034 4750 
Q 2731 4750 3128 4425 
Q 3525 4100 3525 3541 
Q 3525 3141 3298 2862 
Q 3072 2584 2669 2484 
Q 3125 2378 3379 2068 
Q 3634 1759 3634 1313 
Q 3634 634 3220 271 
Q 2806 -91 2034 -91 
Q 1263 -91 848 271 
Q 434 634 434 1313 
Q 434 1759 690 2068 
Q 947 2378 1403 2484 
z
M 1172 3481 
Q 1172 3119 1398 2916 
Q 1625 2713 2034 2713 
Q 2441 2713 2670 2916 
Q 2900 3119 2900 3481 
Q 2900 3844 2670 4047 
Q 2441 4250 2034 4250 
Q 1625 4250 1398 4047 
Q 1172 3844 1172 3481 
z
" transform="scale(0.015625)"/>
       </defs>
       <use xlink:href="#DejaVuSans-30"/>
       <use xlink:href="#DejaVuSans-2e" x="63.623047"/>
       <use xlink:href="#DejaVuSans-30" x="95.410156"/>
       <use xlink:href="#DejaVuSans-30" x="159.033203"/>
       <use xlink:href="#DejaVuSans-38" x="222.65625"/>
      </g>
     </g>
    </g>
    <g id="xtick_6">
     <g id="line2d_6">
      <g>
       <use xlink:href="#md97b539776" x="301.525157" y="307.584" style="stroke: #000000; stroke-width: 0.8"/>
      </g>
     </g>
     <g id="text_6">
      <!-- 0.010 -->
      <g transform="translate(287.211095 322.182437) scale(0.1 -0.1)">
       <defs>
        <path id="DejaVuSans-31" d="M 794 531 
L 1825 531 
L 1825 4091 
L 703 3866 
L 703 4441 
L 1819 4666 
L 2450 4666 
L 2450 531 
L 3481 531 
L 3481 0 
L 794 0 
L 794 531 
z
" transform="scale(0.015625)"/>
       </defs>
       <use xlink:href="#DejaVuSans-30"/>
       <use xlink:href="#DejaVuSans-2e" x="63.623047"/>
       <use xlink:href="#DejaVuSans-30" x="95.410156"/>
       <use xlink:href="#DejaVuSans-31" x="159.033203"/>
       <use xlink:href="#DejaVuSans-30" x="222.65625"/>
      </g>
     </g>
    </g>
    <g id="xtick_7">
     <g id="line2d_7">
      <g>
       <use xlink:href="#md97b539776" x="347.063643" y="307.584" style="stroke: #000000; stroke-width: 0.8"/>
      </g>
     </g>
     <g id="text_7">
      <!-- 0.012 -->
      <g transform="translate(332.749581 322.182437) scale(0.1 -0.1)">
       <use xlink:href="#DejaVuSans-30"/>
       <use xlink:href="#DejaVuSans-2e" x="63.623047"/>
       <use xlink:href="#DejaVuSans-30" x="95.410156"/>
       <use xlink:href="#DejaVuSans-31" x="159.033203"/>
       <use xlink:href="#DejaVuSans-32" x="222.65625"/>
      </g>
     </g>
    </g>
    <g id="xtick_8">
     <g id="line2d_8">
      <g>
       <use xlink:href="#md97b539776" x="392.602129" y="307.584" style="stroke: #000000; stroke-width: 0.8"/>
      </g>
     </g>
     <g id="text_8">
      <!-- 0.014 -->
      <g transform="translate(378.288067 322.182437) scale(0.1 -0.1)">
       <use xlink:href="#DejaVuSans-30"/>
       <use xlink:href="#DejaVuSans-2e" x="63.623047"/>
       <use xlink:href="#DejaVuSans-30" x="95.410156"/>
       <use xlink:href="#DejaVuSans-31" x="159.033203"/>
       <use xlink:href="#DejaVuSans-34" x="222.65625"/>
      </g>
     </g>
    </g>
    <g id="text_9">
     <!-- Catechol Concentration [M] -->
     <g transform="translate(167.436562 335.860562) scale(0.1 -0.1)">
      <defs>
       <path id="DejaVuSans-43" d="M 4122 4306 
L 4122 3641 
Q 3803 3938 3442 4084 
Q 3081 4231 2675 4231 
Q 1875 4231 1450 3742 
Q 1025 3253 1025 2328 
Q 1025 1406 1450 917 
Q 1875 428 2675 428 
Q 3081 428 3442 575 
Q 3803 722 4122 1019 
L 4122 359 
Q 3791 134 3420 21 
Q 3050 -91 2638 -91 
Q 1578 -91 968 557 
Q 359 1206 359 2328 
Q 359 3453 968 4101 
Q 1578 4750 2638 4750 
Q 3056 4750 3426 4639 
Q 3797 4528 4122 4306 
z
" transform="scale(0.015625)"/>
       <path id="DejaVuSans-61" d="M 2194 1759 
Q 1497 1759 1228 1600 
Q 959 1441 959 1056 
Q 959 750 1161 570 
Q 1363 391 1709 391 
Q 2188 391 2477 730 
Q 2766 1069 2766 1631 
L 2766 1759 
L 2194 1759 
z
M 3341 1997 
L 3341 0 
L 2766 0 
L 2766 531 
Q 2569 213 2275 61 
Q 1981 -91 1556 -91 
Q 1019 -91 701 211 
Q 384 513 384 1019 
Q 384 1609 779 1909 
Q 1175 2209 1959 2209 
L 2766 2209 
L 2766 2266 
Q 2766 2663 2505 2880 
Q 2244 3097 1772 3097 
Q 1472 3097 1187 3025 
Q 903 2953 641 2809 
L 641 3341 
Q 956 3463 1253 3523 
Q 1550 3584 1831 3584 
Q 2591 3584 2966 3190 
Q 3341 2797 3341 1997 
z
" transform="scale(0.015625)"/>
       <path id="DejaVuSans-74" d="M 1172 4494 
L 1172 3500 
L 2356 3500 
L 2356 3053 
L 1172 3053 
L 1172 1153 
Q 1172 725 1289 603 
Q 1406 481 1766 481 
L 2356 481 
L 2356 0 
L 1766 0 
Q 1100 0 847 248 
Q 594 497 594 1153 
L 594 3053 
L 172 3053 
L 172 3500 
L 594 3500 
L 594 4494 
L 1172 4494 
z
" transform="scale(0.015625)"/>
       <path id="DejaVuSans-65" d="M 3597 1894 
L 3597 1613 
L 953 1613 
Q 991 1019 1311 708 
Q 1631 397 2203 397 
Q 2534 397 2845 478 
Q 3156 559 3463 722 
L 3463 178 
Q 3153 47 2828 -22 
Q 2503 -91 2169 -91 
Q 1331 -91 842 396 
Q 353 884 353 1716 
Q 353 2575 817 3079 
Q 1281 3584 2069 3584 
Q 2775 3584 3186 3129 
Q 3597 2675 3597 1894 
z
M 3022 2063 
Q 3016 2534 2758 2815 
Q 2500 3097 2075 3097 
Q 1594 3097 1305 2825 
Q 1016 2553 972 2059 
L 3022 2063 
z
" transform="scale(0.015625)"/>
       <path id="DejaVuSans-63" d="M 3122 3366 
L 3122 2828 
Q 2878 2963 2633 3030 
Q 2388 3097 2138 3097 
Q 1578 3097 1268 2742 
Q 959 2388 959 1747 
Q 959 1106 1268 751 
Q 1578 397 2138 397 
Q 2388 397 2633 464 
Q 2878 531 3122 666 
L 3122 134 
Q 2881 22 2623 -34 
Q 2366 -91 2075 -91 
Q 1284 -91 818 406 
Q 353 903 353 1747 
Q 353 2603 823 3093 
Q 1294 3584 2113 3584 
Q 2378 3584 2631 3529 
Q 2884 3475 3122 3366 
z
" transform="scale(0.015625)"/>
       <path id="DejaVuSans-68" d="M 3513 2113 
L 3513 0 
L 2938 0 
L 2938 2094 
Q 2938 2591 2744 2837 
Q 2550 3084 2163 3084 
Q 1697 3084 1428 2787 
Q 1159 2491 1159 1978 
L 1159 0 
L 581 0 
L 581 4863 
L 1159 4863 
L 1159 2956 
Q 1366 3272 1645 3428 
Q 1925 3584 2291 3584 
Q 2894 3584 3203 3211 
Q 3513 2838 3513 2113 
z
" transform="scale(0.015625)"/>
       <path id="DejaVuSans-6f" d="M 1959 3097 
Q 1497 3097 1228 2736 
Q 959 2375 959 1747 
Q 959 1119 1226 758 
Q 1494 397 1959 397 
Q 2419 397 2687 759 
Q 2956 1122 2956 1747 
Q 2956 2369 2687 2733 
Q 2419 3097 1959 3097 
z
M 1959 3584 
Q 2709 3584 3137 3096 
Q 3566 2609 3566 1747 
Q 3566 888 3137 398 
Q 2709 -91 1959 -91 
Q 1206 -91 779 398 
Q 353 888 353 1747 
Q 353 2609 779 3096 
Q 1206 3584 1959 3584 
z
" transform="scale(0.015625)"/>
       <path id="DejaVuSans-6c" d="M 603 4863 
L 1178 4863 
L 1178 0 
L 603 0 
L 603 4863 
z
" transform="scale(0.015625)"/>
       <path id="DejaVuSans-20" transform="scale(0.015625)"/>
       <path id="DejaVuSans-6e" d="M 3513 2113 
L 3513 0 
L 2938 0 
L 2938 2094 
Q 2938 2591 2744 2837 
Q 2550 3084 2163 3084 
Q 1697 3084 1428 2787 
Q 1159 2491 1159 1978 
L 1159 0 
L 581 0 
L 581 3500 
L 1159 3500 
L 1159 2956 
Q 1366 3272 1645 3428 
Q 1925 3584 2291 3584 
Q 2894 3584 3203 3211 
Q 3513 2838 3513 2113 
z
" transform="scale(0.015625)"/>
       <path id="DejaVuSans-72" d="M 2631 2963 
Q 2534 3019 2420 3045 
Q 2306 3072 2169 3072 
Q 1681 3072 1420 2755 
Q 1159 2438 1159 1844 
L 1159 0 
L 581 0 
L 581 3500 
L 1159 3500 
L 1159 2956 
Q 1341 3275 1631 3429 
Q 1922 3584 2338 3584 
Q 2397 3584 2469 3576 
Q 2541 3569 2628 3553 
L 2631 2963 
z
" transform="scale(0.015625)"/>
       <path id="DejaVuSans-69" d="M 603 3500 
L 1178 3500 
L 1178 0 
L 603 0 
L 603 3500 
z
M 603 4863 
L 1178 4863 
L 1178 4134 
L 603 4134 
L 603 4863 
z
" transform="scale(0.015625)"/>
       <path id="DejaVuSans-5b" d="M 550 4863 
L 1875 4863 
L 1875 4416 
L 1125 4416 
L 1125 -397 
L 1875 -397 
L 1875 -844 
L 550 -844 
L 550 4863 
z
" transform="scale(0.015625)"/>
       <path id="DejaVuSans-4d" d="M 628 4666 
L 1569 4666 
L 2759 1491 
L 3956 4666 
L 4897 4666 
L 4897 0 
L 4281 0 
L 4281 4097 
L 3078 897 
L 2444 897 
L 1241 4097 
L 1241 0 
L 628 0 
L 628 4666 
z
" transform="scale(0.015625)"/>
       <path id="DejaVuSans-5d" d="M 1947 4863 
L 1947 -844 
L 622 -844 
L 622 -397 
L 1369 -397 
L 1369 4416 
L 622 4416 
L 622 4863 
L 1947 4863 
z
" transform="scale(0.015625)"/>
      </defs>
      <use xlink:href="#DejaVuSans-43"/>
      <use xlink:href="#DejaVuSans-61" x="69.824219"/>
      <use xlink:href="#DejaVuSans-74" x="131.103516"/>
      <use xlink:href="#DejaVuSans-65" x="170.3125"/>
      <use xlink:href="#DejaVuSans-63" x="231.835938"/>
      <use xlink:href="#DejaVuSans-68" x="286.816406"/>
      <use xlink:href="#DejaVuSans-6f" x="350.195312"/>
      <use xlink:href="#DejaVuSans-6c" x="411.376953"/>
      <use xlink:href="#DejaVuSans-20" x="439.160156"/>
      <use xlink:href="#DejaVuSans-43" x="470.947266"/>
      <use xlink:href="#DejaVuSans-6f" x="540.771484"/>
      <use xlink:href="#DejaVuSans-6e" x="601.953125"/>
      <use xlink:href="#DejaVuSans-63" x="665.332031"/>
      <use xlink:href="#DejaVuSans-65" x="720.3125"/>
      <use xlink:href="#DejaVuSans-6e" x="781.835938"/>
      <use xlink:href="#DejaVuSans-74" x="845.214844"/>
      <use xlink:href="#DejaVuSans-72" x="884.423828"/>
      <use xlink:href="#DejaVuSans-61" x="925.537109"/>
      <use xlink:href="#DejaVuSans-74" x="986.816406"/>
      <use xlink:href="#DejaVuSans-69" x="1026.025391"/>
      <use xlink:href="#DejaVuSans-6f" x="1053.808594"/>
      <use xlink:href="#DejaVuSans-6e" x="1114.990234"/>
      <use xlink:href="#DejaVuSans-20" x="1178.369141"/>
      <use xlink:href="#DejaVuSans-5b" x="1210.15625"/>
      <use xlink:href="#DejaVuSans-4d" x="1249.169922"/>
      <use xlink:href="#DejaVuSans-5d" x="1335.449219"/>
     </g>
    </g>
   </g>
   <g id="matplotlib.axis_2">
    <g id="ytick_1">
     <g id="line2d_9">
      <defs>
       <path id="m3fdd11108e" d="M 0 0 
L -3.5 0 
" style="stroke: #000000; stroke-width: 0.8"/>
      </defs>
      <g>
       <use xlink:href="#m3fdd11108e" x="57.6" y="256.055735" style="stroke: #000000; stroke-width: 0.8"/>
      </g>
     </g>
     <g id="text_10">
      <!-- 0.2 -->
      <g transform="translate(34.696875 259.854954) scale(0.1 -0.1)">
       <use xlink:href="#DejaVuSans-30"/>
       <use xlink:href="#DejaVuSans-2e" x="63.623047"/>
       <use xlink:href="#DejaVuSans-32" x="95.410156"/>
      </g>
     </g>
    </g>
    <g id="ytick_2">
     <g id="line2d_10">
      <g>
       <use xlink:href="#m3fdd11108e" x="57.6" y="198.92467" style="stroke: #000000; stroke-width: 0.8"/>
      </g>
     </g>
     <g id="text_11">
      <!-- 0.4 -->
      <g transform="translate(34.696875 202.723889) scale(0.1 -0.1)">
       <use xlink:href="#DejaVuSans-30"/>
       <use xlink:href="#DejaVuSans-2e" x="63.623047"/>
       <use xlink:href="#DejaVuSans-34" x="95.410156"/>
      </g>
     </g>
    </g>
    <g id="ytick_3">
     <g id="line2d_11">
      <g>
       <use xlink:href="#m3fdd11108e" x="57.6" y="141.793605" style="stroke: #000000; stroke-width: 0.8"/>
      </g>
     </g>
     <g id="text_12">
      <!-- 0.6 -->
      <g transform="translate(34.696875 145.592824) scale(0.1 -0.1)">
       <use xlink:href="#DejaVuSans-30"/>
       <use xlink:href="#DejaVuSans-2e" x="63.623047"/>
       <use xlink:href="#DejaVuSans-36" x="95.410156"/>
      </g>
     </g>
    </g>
    <g id="ytick_4">
     <g id="line2d_12">
      <g>
       <use xlink:href="#m3fdd11108e" x="57.6" y="84.662541" style="stroke: #000000; stroke-width: 0.8"/>
      </g>
     </g>
     <g id="text_13">
      <!-- 0.8 -->
      <g transform="translate(34.696875 88.461759) scale(0.1 -0.1)">
       <use xlink:href="#DejaVuSans-30"/>
       <use xlink:href="#DejaVuSans-2e" x="63.623047"/>
       <use xlink:href="#DejaVuSans-38" x="95.410156"/>
      </g>
     </g>
    </g>
    <g id="text_14">
     <!-- Absorbance -->
     <g transform="translate(28.617187 204.074875) rotate(-90) scale(0.1 -0.1)">
      <defs>
       <path id="DejaVuSans-41" d="M 2188 4044 
L 1331 1722 
L 3047 1722 
L 2188 4044 
z
M 1831 4666 
L 2547 4666 
L 4325 0 
L 3669 0 
L 3244 1197 
L 1141 1197 
L 716 0 
L 50 0 
L 1831 4666 
z
" transform="scale(0.015625)"/>
       <path id="DejaVuSans-62" d="M 3116 1747 
Q 3116 2381 2855 2742 
Q 2594 3103 2138 3103 
Q 1681 3103 1420 2742 
Q 1159 2381 1159 1747 
Q 1159 1113 1420 752 
Q 1681 391 2138 391 
Q 2594 391 2855 752 
Q 3116 1113 3116 1747 
z
M 1159 2969 
Q 1341 3281 1617 3432 
Q 1894 3584 2278 3584 
Q 2916 3584 3314 3078 
Q 3713 2572 3713 1747 
Q 3713 922 3314 415 
Q 2916 -91 2278 -91 
Q 1894 -91 1617 61 
Q 1341 213 1159 525 
L 1159 0 
L 581 0 
L 581 4863 
L 1159 4863 
L 1159 2969 
z
" transform="scale(0.015625)"/>
       <path id="DejaVuSans-73" d="M 2834 3397 
L 2834 2853 
Q 2591 2978 2328 3040 
Q 2066 3103 1784 3103 
Q 1356 3103 1142 2972 
Q 928 2841 928 2578 
Q 928 2378 1081 2264 
Q 1234 2150 1697 2047 
L 1894 2003 
Q 2506 1872 2764 1633 
Q 3022 1394 3022 966 
Q 3022 478 2636 193 
Q 2250 -91 1575 -91 
Q 1294 -91 989 -36 
Q 684 19 347 128 
L 347 722 
Q 666 556 975 473 
Q 1284 391 1588 391 
Q 1994 391 2212 530 
Q 2431 669 2431 922 
Q 2431 1156 2273 1281 
Q 2116 1406 1581 1522 
L 1381 1569 
Q 847 1681 609 1914 
Q 372 2147 372 2553 
Q 372 3047 722 3315 
Q 1072 3584 1716 3584 
Q 2034 3584 2315 3537 
Q 2597 3491 2834 3397 
z
" transform="scale(0.015625)"/>
      </defs>
      <use xlink:href="#DejaVuSans-41"/>
      <use xlink:href="#DejaVuSans-62" x="68.408203"/>
      <use xlink:href="#DejaVuSans-73" x="131.884766"/>
      <use xlink:href="#DejaVuSans-6f" x="183.984375"/>
      <use xlink:href="#DejaVuSans-72" x="245.166016"/>
      <use xlink:href="#DejaVuSans-62" x="286.279297"/>
      <use xlink:href="#DejaVuSans-61" x="349.755859"/>
      <use xlink:href="#DejaVuSans-6e" x="411.035156"/>
      <use xlink:href="#DejaVuSans-63" x="474.414062"/>
      <use xlink:href="#DejaVuSans-65" x="529.394531"/>
     </g>
    </g>
   </g>
   <g id="line2d_13">
    <defs>
     <path id="m2e6d6563b5" d="M 0 1.5 
C 0.397805 1.5 0.77937 1.341951 1.06066 1.06066 
C 1.341951 0.77937 1.5 0.397805 1.5 0 
C 1.5 -0.397805 1.341951 -0.77937 1.06066 -1.06066 
C 0.77937 -1.341951 0.397805 -1.5 0 -1.5 
C -0.397805 -1.5 -0.77937 -1.341951 -1.06066 -1.06066 
C -1.341951 -0.77937 -1.5 -0.397805 -1.5 0 
C -1.5 0.397805 -1.341951 0.77937 -1.06066 1.06066 
C -0.77937 1.341951 -0.397805 1.5 0 1.5 
z
" style="stroke: #000000"/>
    </defs>
    <g clip-path="url(#pb0d145df13)">
     <use xlink:href="#m2e6d6563b5" x="73.832727" y="117.688145" style="stroke: #000000"/>
     <use xlink:href="#m2e6d6563b5" x="75.447067" y="119.250161" style="stroke: #000000"/>
     <use xlink:href="#m2e6d6563b5" x="77.043191" y="122.216349" style="stroke: #000000"/>
     <use xlink:href="#m2e6d6563b5" x="78.637038" y="126.363353" style="stroke: #000000"/>
     <use xlink:href="#m2e6d6563b5" x="80.208115" y="138.830792" style="stroke: #000000"/>
     <use xlink:href="#m2e6d6563b5" x="86.310272" y="144.49769" style="stroke: #000000"/>
     <use xlink:href="#m2e6d6563b5" x="95.076431" y="158.435047" style="stroke: #000000"/>
     <use xlink:href="#m2e6d6563b5" x="105.93736" y="165.825937" style="stroke: #000000"/>
     <use xlink:href="#m2e6d6563b5" x="120.96506" y="170.36297" style="stroke: #000000"/>
     <use xlink:href="#m2e6d6563b5" x="136.675838" y="176.447625" style="stroke: #000000"/>
     <use xlink:href="#m2e6d6563b5" x="152.614308" y="180.585262" style="stroke: #000000"/>
     <use xlink:href="#m2e6d6563b5" x="169.918933" y="182.32731" style="stroke: #000000"/>
     <use xlink:href="#m2e6d6563b5" x="187.678942" y="187.620436" style="stroke: #000000"/>
     <use xlink:href="#m2e6d6563b5" x="204.755875" y="191.732309" style="stroke: #000000"/>
     <use xlink:href="#m2e6d6563b5" x="236.159989" y="195.214775" style="stroke: #000000"/>
     <use xlink:href="#m2e6d6563b5" x="398.487273" y="207.216633" style="stroke: #000000"/>
    </g>
   </g>
   <g id="line2d_14">
    <defs>
     <path id="m05fc79ee2a" d="M 0 1.5 
C 0.397805 1.5 0.77937 1.341951 1.06066 1.06066 
C 1.341951 0.77937 1.5 0.397805 1.5 0 
C 1.5 -0.397805 1.341951 -0.77937 1.06066 -1.06066 
C 0.77937 -1.341951 0.397805 -1.5 0 -1.5 
C -0.397805 -1.5 -0.77937 -1.341951 -1.06066 -1.06066 
C -1.341951 -0.77937 -1.5 -0.397805 -1.5 0 
C -1.5 0.397805 -1.341951 0.77937 -1.06066 1.06066 
C -0.77937 1.341951 -0.397805 1.5 0 1.5 
z
" style="stroke: #ff0000"/>
    </defs>
    <g clip-path="url(#pb0d145df13)">
     <use xlink:href="#m05fc79ee2a" x="73.832727" y="298.014236" style="fill: #ff0000; stroke: #ff0000"/>
     <use xlink:href="#m05fc79ee2a" x="75.447067" y="294.615531" style="fill: #ff0000; stroke: #ff0000"/>
     <use xlink:href="#m05fc79ee2a" x="77.043191" y="289.541737" style="fill: #ff0000; stroke: #ff0000"/>
     <use xlink:href="#m05fc79ee2a" x="78.637038" y="284.615504" style="fill: #ff0000; stroke: #ff0000"/>
     <use xlink:href="#m05fc79ee2a" x="80.208115" y="271.149285" style="fill: #ff0000; stroke: #ff0000"/>
     <use xlink:href="#m05fc79ee2a" x="86.310272" y="260.520171" style="fill: #ff0000; stroke: #ff0000"/>
     <use xlink:href="#m05fc79ee2a" x="95.076431" y="247.827408" style="fill: #ff0000; stroke: #ff0000"/>
     <use xlink:href="#m05fc79ee2a" x="105.93736" y="237.497641" style="fill: #ff0000; stroke: #ff0000"/>
     <use xlink:href="#m05fc79ee2a" x="120.96506" y="229.673775" style="fill: #ff0000; stroke: #ff0000"/>
     <use xlink:href="#m05fc79ee2a" x="136.675838" y="227.64781" style="fill: #ff0000; stroke: #ff0000"/>
     <use xlink:href="#m05fc79ee2a" x="152.614308" y="222.992409" style="fill: #ff0000; stroke: #ff0000"/>
     <use xlink:href="#m05fc79ee2a" x="169.918933" y="223.039812" style="fill: #ff0000; stroke: #ff0000"/>
     <use xlink:href="#m05fc79ee2a" x="187.678942" y="220.163688" style="fill: #ff0000; stroke: #ff0000"/>
     <use xlink:href="#m05fc79ee2a" x="204.755875" y="218.527019" style="fill: #ff0000; stroke: #ff0000"/>
     <use xlink:href="#m05fc79ee2a" x="236.159989" y="214.31493" style="fill: #ff0000; stroke: #ff0000"/>
     <use xlink:href="#m05fc79ee2a" x="398.487273" y="201.604473" style="fill: #ff0000; stroke: #ff0000"/>
    </g>
   </g>
   <g id="line2d_15">
    <path d="M 73.832727 113.42126 
L 77.112066 125.226834 
L 80.391405 134.453255 
L 83.670744 141.424684 
L 86.950083 146.933111 
L 90.229421 151.443238 
L 93.50876 155.233236 
L 96.788099 158.480815 
L 100.067438 161.306073 
L 103.346777 163.793893 
L 106.626116 166.006457 
L 109.905455 167.990652 
L 113.184793 169.782686 
L 116.464132 171.411083 
L 119.743471 172.898697 
L 123.02281 174.264109 
L 126.302149 175.522613 
L 129.581488 176.686943 
L 132.860826 177.767802 
L 136.140165 178.774264 
L 139.419504 179.714086 
L 142.698843 180.593943 
L 145.978182 181.419617 
L 149.257521 182.196145 
L 152.53686 182.927939 
L 155.816198 183.618883 
L 159.095537 184.27241 
L 162.374876 184.89157 
L 165.654215 185.47908 
L 168.933554 186.037372 
L 172.212893 186.568628 
L 175.492231 187.074814 
L 178.77157 187.557706 
L 182.050909 188.01891 
L 185.330248 188.459888 
L 188.609587 188.88197 
L 191.888926 189.286367 
L 195.168264 189.674191 
L 198.447603 190.046458 
L 201.726942 190.404103 
L 205.006281 190.747985 
L 208.28562 191.078896 
L 211.564959 191.397568 
L 214.844298 191.704679 
L 218.123636 192.000856 
L 221.402975 192.28668 
L 224.682314 192.562694 
L 227.961653 192.829399 
L 231.240992 193.087265 
L 234.520331 193.336731 
L 237.799669 193.578204 
L 241.079008 193.812067 
L 244.358347 194.03868 
L 247.637686 194.258376 
L 250.917025 194.471473 
L 254.196364 194.678265 
L 257.475702 194.879032 
L 260.755041 195.074035 
L 264.03438 195.263521 
L 267.313719 195.447725 
L 270.593058 195.626864 
L 273.872397 195.801148 
L 277.151736 195.970773 
L 280.431074 196.135925 
L 283.710413 196.296779 
L 286.989752 196.453504 
L 290.269091 196.606256 
L 293.54843 196.755186 
L 296.827769 196.900438 
L 300.107107 197.042146 
L 303.386446 197.18044 
L 306.665785 197.315442 
L 309.945124 197.44727 
L 313.224463 197.576034 
L 316.503802 197.701842 
L 319.78314 197.824794 
L 323.062479 197.944987 
L 326.341818 198.062513 
L 329.621157 198.177461 
L 332.900496 198.289915 
L 336.179835 198.399957 
L 339.459174 198.507662 
L 342.738512 198.613106 
L 346.017851 198.716358 
L 349.29719 198.817488 
L 352.576529 198.91656 
L 355.855868 199.013636 
L 359.135207 199.108778 
L 362.414545 199.202041 
L 365.693884 199.293482 
L 368.973223 199.383153 
L 372.252562 199.471106 
L 375.531901 199.557391 
L 378.81124 199.642053 
L 382.090579 199.725139 
L 385.369917 199.806692 
L 388.649256 199.886755 
L 391.928595 199.965369 
L 395.207934 200.042572 
L 398.487273 200.118402 
" clip-path="url(#pb0d145df13)" style="fill: none; stroke: #000000; stroke-width: 1.5; stroke-linecap: square"/>
   </g>
   <g id="line2d_16">
    <path d="M 73.832727 298.338155 
L 77.112066 285.585062 
L 80.391405 275.618124 
L 83.670744 268.087166 
L 86.950083 262.13663 
L 90.229421 257.264519 
L 93.50876 253.170335 
L 96.788099 249.662104 
L 100.067438 246.61009 
L 103.346777 243.922596 
L 106.626116 241.53245 
L 109.905455 239.389003 
L 113.184793 237.45314 
L 116.464132 235.694048 
L 119.743471 234.087037 
L 123.02281 232.612037 
L 126.302149 231.252524 
L 129.581488 229.994745 
L 132.860826 228.827136 
L 136.140165 227.739895 
L 139.419504 226.724642 
L 142.698843 225.774168 
L 145.978182 224.882225 
L 149.257521 224.043372 
L 152.53686 223.252844 
L 155.816198 222.506445 
L 159.095537 221.800465 
L 162.374876 221.131612 
L 165.654215 220.496948 
L 168.933554 219.893847 
L 172.212893 219.319952 
L 175.492231 218.77314 
L 178.77157 218.251491 
L 182.050909 217.75327 
L 185.330248 217.276899 
L 188.609587 216.820941 
L 191.888926 216.384086 
L 195.168264 215.965135 
L 198.447603 215.56299 
L 201.726942 215.176641 
L 205.006281 214.805159 
L 208.28562 214.447689 
L 211.564959 214.103439 
L 214.844298 213.77168 
L 218.123636 213.451732 
L 221.402975 213.142967 
L 224.682314 212.844801 
L 227.961653 212.55669 
L 231.240992 212.278127 
L 234.520331 212.008639 
L 237.799669 211.747785 
L 241.079008 211.495152 
L 244.358347 211.250352 
L 247.637686 211.013022 
L 250.917025 210.782822 
L 254.196364 210.559433 
L 257.475702 210.342553 
L 260.755041 210.131899 
L 264.03438 209.927204 
L 267.313719 209.728216 
L 270.593058 209.534699 
L 273.872397 209.346426 
L 277.151736 209.163187 
L 280.431074 208.984781 
L 283.710413 208.811016 
L 286.989752 208.641713 
L 290.269091 208.476701 
L 293.54843 208.315817 
L 296.827769 208.158907 
L 300.107107 208.005826 
L 303.386446 207.856432 
L 306.665785 207.710595 
L 309.945124 207.568186 
L 313.224463 207.429087 
L 316.503802 207.293183 
L 319.78314 207.160363 
L 323.062479 207.030523 
L 326.341818 206.903564 
L 329.621157 206.77939 
L 332.900496 206.65791 
L 336.179835 206.539037 
L 339.459174 206.422687 
L 342.738512 206.30878 
L 346.017851 206.197241 
L 349.29719 206.087994 
L 352.576529 205.980971 
L 355.855868 205.876103 
L 359.135207 205.773326 
L 362.414545 205.672577 
L 365.693884 205.573797 
L 368.973223 205.476929 
L 372.252562 205.381916 
L 375.531901 205.288707 
L 378.81124 205.197249 
L 382.090579 205.107495 
L 385.369917 205.019396 
L 388.649256 204.932907 
L 391.928595 204.847984 
L 395.207934 204.764585 
L 398.487273 204.682668 
" clip-path="url(#pb0d145df13)" style="fill: none; stroke: #ff0000; stroke-width: 1.5; stroke-linecap: square"/>
   </g>
   <g id="patch_3">
    <path d="M 57.6 307.584 
L 57.6 41.472 
" style="fill: none; stroke: #000000; stroke-width: 0.8; stroke-linejoin: miter; stroke-linecap: square"/>
   </g>
   <g id="patch_4">
    <path d="M 414.72 307.584 
L 414.72 41.472 
" style="fill: none; stroke: #000000; stroke-width: 0.8; stroke-linejoin: miter; stroke-linecap: square"/>
   </g>
   <g id="patch_5">
    <path d="M 57.6 307.584 
L 414.72 307.584 
" style="fill: none; stroke: #000000; stroke-width: 0.8; stroke-linejoin: miter; stroke-linecap: square"/>
   </g>
   <g id="patch_6">
    <path d="M 57.6 41.472 
L 414.72 41.472 
" style="fill: none; stroke: #000000; stroke-width: 0.8; stroke-linejoin: miter; stroke-linecap: square"/>
   </g>
   <g id="text_15">
    <!-- $K_{G} = 1.68×10⁴ M^{-1}$ -->
    <g transform="translate(297.346 98.014713) scale(0.1 -0.1)">
     <defs>
      <path id="DejaVuSans-Oblique-4b" d="M 1081 4666 
L 1716 4666 
L 1331 2700 
L 3781 4666 
L 4622 4666 
L 1850 2438 
L 3878 0 
L 3109 0 
L 1247 2272 
L 806 0 
L 172 0 
L 1081 4666 
z
" transform="scale(0.015625)"/>
      <path id="DejaVuSans-Oblique-47" d="M 3494 697 
L 3738 1919 
L 2700 1919 
L 2797 2438 
L 4453 2438 
L 4050 384 
Q 3634 156 3143 32 
Q 2653 -91 2156 -91 
Q 1278 -91 783 396 
Q 288 884 288 1753 
Q 288 2475 589 3126 
Q 891 3778 1422 4213 
Q 1756 4484 2153 4617 
Q 2550 4750 3034 4750 
Q 3472 4750 3873 4639 
Q 4275 4528 4641 4306 
L 4513 3634 
Q 4231 3928 3853 4083 
Q 3475 4238 3047 4238 
Q 2550 4238 2172 4048 
Q 1794 3859 1497 3463 
Q 1244 3125 1098 2667 
Q 953 2209 953 1734 
Q 953 1081 1287 751 
Q 1622 422 2284 422 
Q 2616 422 2925 492 
Q 3234 563 3494 697 
z
" transform="scale(0.015625)"/>
      <path id="DejaVuSans-3d" d="M 678 2906 
L 4684 2906 
L 4684 2381 
L 678 2381 
L 678 2906 
z
M 678 1631 
L 4684 1631 
L 4684 1100 
L 678 1100 
L 678 1631 
z
" transform="scale(0.015625)"/>
      <path id="DejaVuSans-d7" d="M 4488 3438 
L 3059 2003 
L 4488 575 
L 4116 197 
L 2681 1631 
L 1247 197 
L 878 575 
L 2303 2003 
L 878 3438 
L 1247 3816 
L 2681 2381 
L 4116 3816 
L 4488 3438 
z
" transform="scale(0.015625)"/>
      <path id="DejaVuSans-2074" d="M 1491 4319 
L 525 3009 
L 1491 3009 
L 1491 4319 
z
M 1422 4697 
L 1941 4697 
L 1941 3009 
L 2363 3009 
L 2363 2669 
L 1941 2669 
L 1941 2088 
L 1491 2088 
L 1491 2669 
L 197 2669 
L 197 3047 
L 1422 4697 
z
" transform="scale(0.015625)"/>
      <path id="DejaVuSans-Oblique-4d" d="M 1081 4666 
L 2028 4666 
L 2572 1522 
L 4378 4666 
L 5350 4666 
L 4441 0 
L 3828 0 
L 4622 4091 
L 2791 897 
L 2175 897 
L 1581 4103 
L 788 0 
L 172 0 
L 1081 4666 
z
" transform="scale(0.015625)"/>
      <path id="DejaVuSans-2212" d="M 678 2272 
L 4684 2272 
L 4684 1741 
L 678 1741 
L 678 2272 
z
" transform="scale(0.015625)"/>
     </defs>
     <use xlink:href="#DejaVuSans-Oblique-4b" transform="translate(0 0.684375)"/>
     <use xlink:href="#DejaVuSans-Oblique-47" transform="translate(65.576172 -15.721875) scale(0.7)"/>
     <use xlink:href="#DejaVuSans-3d" transform="translate(142.036133 0.684375)"/>
     <use xlink:href="#DejaVuSans-31" transform="translate(245.307617 0.684375)"/>
     <use xlink:href="#DejaVuSans-2e" transform="translate(308.930664 0.684375)"/>
     <use xlink:href="#DejaVuSans-36" transform="translate(340.717773 0.684375)"/>
     <use xlink:href="#DejaVuSans-38" transform="translate(404.34082 0.684375)"/>
     <use xlink:href="#DejaVuSans-d7" transform="translate(467.963867 0.684375)"/>
     <use xlink:href="#DejaVuSans-31" transform="translate(551.75293 0.684375)"/>
     <use xlink:href="#DejaVuSans-30" transform="translate(615.375977 0.684375)"/>
     <use xlink:href="#DejaVuSans-2074" transform="translate(678.999023 0.684375)"/>
     <use xlink:href="#DejaVuSans-Oblique-4d" transform="translate(719.086914 0.684375)"/>
     <use xlink:href="#DejaVuSans-2212" transform="translate(812.382982 38.965625) scale(0.7)"/>
     <use xlink:href="#DejaVuSans-31" transform="translate(871.035326 38.965625) scale(0.7)"/>
    </g>
   </g>
   <g id="text_16">
    <!-- IDA Titration of Alizarin:PBA complex &amp; Catechol in MeCN  -->
    <g transform="translate(62.158125 22.034625) scale(0.12 -0.12)">
     <defs>
      <path id="DejaVuSans-49" d="M 628 4666 
L 1259 4666 
L 1259 0 
L 628 0 
L 628 4666 
z
" transform="scale(0.015625)"/>
      <path id="DejaVuSans-44" d="M 1259 4147 
L 1259 519 
L 2022 519 
Q 2988 519 3436 956 
Q 3884 1394 3884 2338 
Q 3884 3275 3436 3711 
Q 2988 4147 2022 4147 
L 1259 4147 
z
M 628 4666 
L 1925 4666 
Q 3281 4666 3915 4102 
Q 4550 3538 4550 2338 
Q 4550 1131 3912 565 
Q 3275 0 1925 0 
L 628 0 
L 628 4666 
z
" transform="scale(0.015625)"/>
      <path id="DejaVuSans-54" d="M -19 4666 
L 3928 4666 
L 3928 4134 
L 2272 4134 
L 2272 0 
L 1638 0 
L 1638 4134 
L -19 4134 
L -19 4666 
z
" transform="scale(0.015625)"/>
      <path id="DejaVuSans-66" d="M 2375 4863 
L 2375 4384 
L 1825 4384 
Q 1516 4384 1395 4259 
Q 1275 4134 1275 3809 
L 1275 3500 
L 2222 3500 
L 2222 3053 
L 1275 3053 
L 1275 0 
L 697 0 
L 697 3053 
L 147 3053 
L 147 3500 
L 697 3500 
L 697 3744 
Q 697 4328 969 4595 
Q 1241 4863 1831 4863 
L 2375 4863 
z
" transform="scale(0.015625)"/>
      <path id="DejaVuSans-7a" d="M 353 3500 
L 3084 3500 
L 3084 2975 
L 922 459 
L 3084 459 
L 3084 0 
L 275 0 
L 275 525 
L 2438 3041 
L 353 3041 
L 353 3500 
z
" transform="scale(0.015625)"/>
      <path id="DejaVuSans-3a" d="M 750 794 
L 1409 794 
L 1409 0 
L 750 0 
L 750 794 
z
M 750 3309 
L 1409 3309 
L 1409 2516 
L 750 2516 
L 750 3309 
z
" transform="scale(0.015625)"/>
      <path id="DejaVuSans-50" d="M 1259 4147 
L 1259 2394 
L 2053 2394 
Q 2494 2394 2734 2622 
Q 2975 2850 2975 3272 
Q 2975 3691 2734 3919 
Q 2494 4147 2053 4147 
L 1259 4147 
z
M 628 4666 
L 2053 4666 
Q 2838 4666 3239 4311 
Q 3641 3956 3641 3272 
Q 3641 2581 3239 2228 
Q 2838 1875 2053 1875 
L 1259 1875 
L 1259 0 
L 628 0 
L 628 4666 
z
" transform="scale(0.015625)"/>
      <path id="DejaVuSans-42" d="M 1259 2228 
L 1259 519 
L 2272 519 
Q 2781 519 3026 730 
Q 3272 941 3272 1375 
Q 3272 1813 3026 2020 
Q 2781 2228 2272 2228 
L 1259 2228 
z
M 1259 4147 
L 1259 2741 
L 2194 2741 
Q 2656 2741 2882 2914 
Q 3109 3088 3109 3444 
Q 3109 3797 2882 3972 
Q 2656 4147 2194 4147 
L 1259 4147 
z
M 628 4666 
L 2241 4666 
Q 2963 4666 3353 4366 
Q 3744 4066 3744 3513 
Q 3744 3084 3544 2831 
Q 3344 2578 2956 2516 
Q 3422 2416 3680 2098 
Q 3938 1781 3938 1306 
Q 3938 681 3513 340 
Q 3088 0 2303 0 
L 628 0 
L 628 4666 
z
" transform="scale(0.015625)"/>
      <path id="DejaVuSans-6d" d="M 3328 2828 
Q 3544 3216 3844 3400 
Q 4144 3584 4550 3584 
Q 5097 3584 5394 3201 
Q 5691 2819 5691 2113 
L 5691 0 
L 5113 0 
L 5113 2094 
Q 5113 2597 4934 2840 
Q 4756 3084 4391 3084 
Q 3944 3084 3684 2787 
Q 3425 2491 3425 1978 
L 3425 0 
L 2847 0 
L 2847 2094 
Q 2847 2600 2669 2842 
Q 2491 3084 2119 3084 
Q 1678 3084 1418 2786 
Q 1159 2488 1159 1978 
L 1159 0 
L 581 0 
L 581 3500 
L 1159 3500 
L 1159 2956 
Q 1356 3278 1631 3431 
Q 1906 3584 2284 3584 
Q 2666 3584 2933 3390 
Q 3200 3197 3328 2828 
z
" transform="scale(0.015625)"/>
      <path id="DejaVuSans-70" d="M 1159 525 
L 1159 -1331 
L 581 -1331 
L 581 3500 
L 1159 3500 
L 1159 2969 
Q 1341 3281 1617 3432 
Q 1894 3584 2278 3584 
Q 2916 3584 3314 3078 
Q 3713 2572 3713 1747 
Q 3713 922 3314 415 
Q 2916 -91 2278 -91 
Q 1894 -91 1617 61 
Q 1341 213 1159 525 
z
M 3116 1747 
Q 3116 2381 2855 2742 
Q 2594 3103 2138 3103 
Q 1681 3103 1420 2742 
Q 1159 2381 1159 1747 
Q 1159 1113 1420 752 
Q 1681 391 2138 391 
Q 2594 391 2855 752 
Q 3116 1113 3116 1747 
z
" transform="scale(0.015625)"/>
      <path id="DejaVuSans-78" d="M 3513 3500 
L 2247 1797 
L 3578 0 
L 2900 0 
L 1881 1375 
L 863 0 
L 184 0 
L 1544 1831 
L 300 3500 
L 978 3500 
L 1906 2253 
L 2834 3500 
L 3513 3500 
z
" transform="scale(0.015625)"/>
      <path id="DejaVuSans-26" d="M 1556 2509 
Q 1272 2256 1139 2004 
Q 1006 1753 1006 1478 
Q 1006 1022 1337 719 
Q 1669 416 2169 416 
Q 2466 416 2725 514 
Q 2984 613 3213 813 
L 1556 2509 
z
M 1997 2859 
L 3584 1234 
Q 3769 1513 3872 1830 
Q 3975 2147 3994 2503 
L 4575 2503 
Q 4538 2091 4375 1687 
Q 4213 1284 3922 891 
L 4794 0 
L 4006 0 
L 3559 459 
Q 3234 181 2878 45 
Q 2522 -91 2113 -91 
Q 1359 -91 881 339 
Q 403 769 403 1441 
Q 403 1841 612 2192 
Q 822 2544 1241 2853 
Q 1091 3050 1012 3245 
Q 934 3441 934 3628 
Q 934 4134 1281 4442 
Q 1628 4750 2203 4750 
Q 2463 4750 2720 4694 
Q 2978 4638 3244 4525 
L 3244 3956 
Q 2972 4103 2725 4179 
Q 2478 4256 2266 4256 
Q 1938 4256 1733 4082 
Q 1528 3909 1528 3634 
Q 1528 3475 1620 3314 
Q 1713 3153 1997 2859 
z
" transform="scale(0.015625)"/>
      <path id="DejaVuSans-4e" d="M 628 4666 
L 1478 4666 
L 3547 763 
L 3547 4666 
L 4159 4666 
L 4159 0 
L 3309 0 
L 1241 3903 
L 1241 0 
L 628 0 
L 628 4666 
z
" transform="scale(0.015625)"/>
     </defs>
     <use xlink:href="#DejaVuSans-49"/>
     <use xlink:href="#DejaVuSans-44" x="29.492188"/>
     <use xlink:href="#DejaVuSans-41" x="104.744141"/>
     <use xlink:href="#DejaVuSans-20" x="173.152344"/>
     <use xlink:href="#DejaVuSans-54" x="204.939453"/>
     <use xlink:href="#DejaVuSans-69" x="262.898438"/>
     <use xlink:href="#DejaVuSans-74" x="290.681641"/>
     <use xlink:href="#DejaVuSans-72" x="329.890625"/>
     <use xlink:href="#DejaVuSans-61" x="371.003906"/>
     <use xlink:href="#DejaVuSans-74" x="432.283203"/>
     <use xlink:href="#DejaVuSans-69" x="471.492188"/>
     <use xlink:href="#DejaVuSans-6f" x="499.275391"/>
     <use xlink:href="#DejaVuSans-6e" x="560.457031"/>
     <use xlink:href="#DejaVuSans-20" x="623.835938"/>
     <use xlink:href="#DejaVuSans-6f" x="655.623047"/>
     <use xlink:href="#DejaVuSans-66" x="716.804688"/>
     <use xlink:href="#DejaVuSans-20" x="752.009766"/>
     <use xlink:href="#DejaVuSans-41" x="783.796875"/>
     <use xlink:href="#DejaVuSans-6c" x="852.205078"/>
     <use xlink:href="#DejaVuSans-69" x="879.988281"/>
     <use xlink:href="#DejaVuSans-7a" x="907.771484"/>
     <use xlink:href="#DejaVuSans-61" x="960.261719"/>
     <use xlink:href="#DejaVuSans-72" x="1021.541016"/>
     <use xlink:href="#DejaVuSans-69" x="1062.654297"/>
     <use xlink:href="#DejaVuSans-6e" x="1090.4375"/>
     <use xlink:href="#DejaVuSans-3a" x="1153.816406"/>
     <use xlink:href="#DejaVuSans-50" x="1187.507812"/>
     <use xlink:href="#DejaVuSans-42" x="1247.810547"/>
     <use xlink:href="#DejaVuSans-41" x="1316.414062"/>
     <use xlink:href="#DejaVuSans-20" x="1384.822266"/>
     <use xlink:href="#DejaVuSans-63" x="1416.609375"/>
     <use xlink:href="#DejaVuSans-6f" x="1471.589844"/>
     <use xlink:href="#DejaVuSans-6d" x="1532.771484"/>
     <use xlink:href="#DejaVuSans-70" x="1630.183594"/>
     <use xlink:href="#DejaVuSans-6c" x="1693.660156"/>
     <use xlink:href="#DejaVuSans-65" x="1721.443359"/>
     <use xlink:href="#DejaVuSans-78" x="1781.216797"/>
     <use xlink:href="#DejaVuSans-20" x="1840.396484"/>
     <use xlink:href="#DejaVuSans-26" x="1872.183594"/>
     <use xlink:href="#DejaVuSans-20" x="1950.162109"/>
     <use xlink:href="#DejaVuSans-43" x="1981.949219"/>
     <use xlink:href="#DejaVuSans-61" x="2051.773438"/>
     <use xlink:href="#DejaVuSans-74" x="2113.052734"/>
     <use xlink:href="#DejaVuSans-65" x="2152.261719"/>
     <use xlink:href="#DejaVuSans-63" x="2213.785156"/>
     <use xlink:href="#DejaVuSans-68" x="2268.765625"/>
     <use xlink:href="#DejaVuSans-6f" x="2332.144531"/>
     <use xlink:href="#DejaVuSans-6c" x="2393.326172"/>
     <use xlink:href="#DejaVuSans-20" x="2421.109375"/>
     <use xlink:href="#DejaVuSans-69" x="2452.896484"/>
     <use xlink:href="#DejaVuSans-6e" x="2480.679688"/>
     <use xlink:href="#DejaVuSans-20" x="2544.058594"/>
     <use xlink:href="#DejaVuSans-4d" x="2575.845703"/>
     <use xlink:href="#DejaVuSans-65" x="2662.125"/>
     <use xlink:href="#DejaVuSans-43" x="2723.648438"/>
     <use xlink:href="#DejaVuSans-4e" x="2793.472656"/>
     <use xlink:href="#DejaVuSans-20" x="2868.277344"/>
    </g>
    <!--  -->
    <g transform="translate(236.16 35.472) scale(0.12 -0.12)"/>
   </g>
   <g id="legend_1">
    <g id="patch_7">
     <path d="M 337.37625 78.82825 
L 407.72 78.82825 
Q 409.72 78.82825 409.72 76.82825 
L 409.72 48.472 
Q 409.72 46.472 407.72 46.472 
L 337.37625 46.472 
Q 335.37625 46.472 335.37625 48.472 
L 335.37625 76.82825 
Q 335.37625 78.82825 337.37625 78.82825 
z
" style="fill: #ffffff; opacity: 0.8; stroke: #cccccc; stroke-linejoin: miter"/>
    </g>
    <g id="line2d_17">
     <g>
      <use xlink:href="#m2e6d6563b5" x="349.37625" y="54.570437" style="stroke: #000000"/>
     </g>
    </g>
    <g id="text_17">
     <!-- 440 nm -->
     <g transform="translate(367.37625 58.070437) scale(0.1 -0.1)">
      <use xlink:href="#DejaVuSans-34"/>
      <use xlink:href="#DejaVuSans-34" x="63.623047"/>
      <use xlink:href="#DejaVuSans-30" x="127.246094"/>
      <use xlink:href="#DejaVuSans-20" x="190.869141"/>
      <use xlink:href="#DejaVuSans-6e" x="222.65625"/>
      <use xlink:href="#DejaVuSans-6d" x="286.035156"/>
     </g>
    </g>
    <g id="line2d_18">
     <g>
      <use xlink:href="#m05fc79ee2a" x="349.37625" y="69.248562" style="fill: #ff0000; stroke: #ff0000"/>
     </g>
    </g>
    <g id="text_18">
     <!-- 570 nm -->
     <g transform="translate(367.37625 72.748562) scale(0.1 -0.1)">
      <defs>
       <path id="DejaVuSans-35" d="M 691 4666 
L 3169 4666 
L 3169 4134 
L 1269 4134 
L 1269 2991 
Q 1406 3038 1543 3061 
Q 1681 3084 1819 3084 
Q 2600 3084 3056 2656 
Q 3513 2228 3513 1497 
Q 3513 744 3044 326 
Q 2575 -91 1722 -91 
Q 1428 -91 1123 -41 
Q 819 9 494 109 
L 494 744 
Q 775 591 1075 516 
Q 1375 441 1709 441 
Q 2250 441 2565 725 
Q 2881 1009 2881 1497 
Q 2881 1984 2565 2268 
Q 2250 2553 1709 2553 
Q 1456 2553 1204 2497 
Q 953 2441 691 2322 
L 691 4666 
z
" transform="scale(0.015625)"/>
       <path id="DejaVuSans-37" d="M 525 4666 
L 3525 4666 
L 3525 4397 
L 1831 0 
L 1172 0 
L 2766 4134 
L 525 4134 
L 525 4666 
z
" transform="scale(0.015625)"/>
      </defs>
      <use xlink:href="#DejaVuSans-35"/>
      <use xlink:href="#DejaVuSans-37" x="63.623047"/>
      <use xlink:href="#DejaVuSans-30" x="127.246094"/>
      <use xlink:href="#DejaVuSans-20" x="190.869141"/>
      <use xlink:href="#DejaVuSans-6e" x="222.65625"/>
      <use xlink:href="#DejaVuSans-6d" x="286.035156"/>
     </g>
    </g>
   </g>
  </g>
 </g>
 <defs>
  <clipPath id="pb0d145df13">
   <rect x="57.6" y="41.472" width="357.12" height="266.112"/>
  </clipPath>
 </defs>
</svg>
