<?xml version="1.0" encoding="utf-8" standalone="no"?>
<!DOCTYPE svg PUBLIC "-//W3C//DTD SVG 1.1//EN"
  "http://www.w3.org/Graphics/SVG/1.1/DTD/svg11.dtd">
<svg xmlns:xlink="http://www.w3.org/1999/xlink" width="460.8pt" height="345.6pt" viewBox="0 0 460.8 345.6" xmlns="http://www.w3.org/2000/svg" version="1.1">
 <metadata>
  <rdf:RDF xmlns:dc="http://purl.org/dc/elements/1.1/" xmlns:cc="http://creativecommons.org/ns#" xmlns:rdf="http://www.w3.org/1999/02/22-rdf-syntax-ns#">
   <cc:Work>
    <dc:type rdf:resource="http://purl.org/dc/dcmitype/StillImage"/>
    <dc:date>2024-10-03T15:28:43.167134</dc:date>
    <dc:format>image/svg+xml</dc:format>
    <dc:creator>
     <cc:Agent>
      <dc:title>Matplotlib v3.9.2, https://matplotlib.org/</dc:title>
     </cc:Agent>
    </dc:creator>
   </cc:Work>
  </rdf:RDF>
 </metadata>
 <defs>
  <style type="text/css">*{stroke-linejoin: round; stroke-linecap: butt}</style>
 </defs>
 <g id="figure_1">
  <g id="patch_1">
   <path d="M 0 345.6 
L 460.8 345.6 
L 460.8 0 
L 0 0 
z
" style="fill: #ffffff"/>
  </g>
  <g id="axes_1">
   <g id="patch_2">
    <path d="M 57.6 307.584 
L 414.72 307.584 
L 414.72 41.472 
L 57.6 41.472 
z
" style="fill: #ffffff"/>
   </g>
   <g id="matplotlib.axis_1">
    <g id="xtick_1">
     <g id="line2d_1">
      <defs>
       <path id="m73e87e0e31" d="M 0 0 
L 0 3.5 
" style="stroke: #000000; stroke-width: 0.8"/>
      </defs>
      <g>
       <use xlink:href="#m73e87e0e31" x="73.832727" y="307.584" style="stroke: #000000; stroke-width: 0.8"/>
      </g>
     </g>
     <g id="text_1">
      <!-- 0.0000 -->
      <g transform="translate(56.337415 322.182437) scale(0.1 -0.1)">
       <defs>
        <path id="DejaVuSans-30" d="M 2034 4250 
Q 1547 4250 1301 3770 
Q 1056 3291 1056 2328 
Q 1056 1369 1301 889 
Q 1547 409 2034 409 
Q 2525 409 2770 889 
Q 3016 1369 3016 2328 
Q 3016 3291 2770 3770 
Q 2525 4250 2034 4250 
z
M 2034 4750 
Q 2819 4750 3233 4129 
Q 3647 3509 3647 2328 
Q 3647 1150 3233 529 
Q 2819 -91 2034 -91 
Q 1250 -91 836 529 
Q 422 1150 422 2328 
Q 422 3509 836 4129 
Q 1250 4750 2034 4750 
z
" transform="scale(0.015625)"/>
        <path id="DejaVuSans-2e" d="M 684 794 
L 1344 794 
L 1344 0 
L 684 0 
L 684 794 
z
" transform="scale(0.015625)"/>
       </defs>
       <use xlink:href="#DejaVuSans-30"/>
       <use xlink:href="#DejaVuSans-2e" x="63.623047"/>
       <use xlink:href="#DejaVuSans-30" x="95.410156"/>
       <use xlink:href="#DejaVuSans-30" x="159.033203"/>
       <use xlink:href="#DejaVuSans-30" x="222.65625"/>
       <use xlink:href="#DejaVuSans-30" x="286.279297"/>
      </g>
     </g>
    </g>
    <g id="xtick_2">
     <g id="line2d_2">
      <g>
       <use xlink:href="#m73e87e0e31" x="125.418598" y="307.584" style="stroke: #000000; stroke-width: 0.8"/>
      </g>
     </g>
     <g id="text_2">
      <!-- 0.0005 -->
      <g transform="translate(107.923286 322.182437) scale(0.1 -0.1)">
       <defs>
        <path id="DejaVuSans-35" d="M 691 4666 
L 3169 4666 
L 3169 4134 
L 1269 4134 
L 1269 2991 
Q 1406 3038 1543 3061 
Q 1681 3084 1819 3084 
Q 2600 3084 3056 2656 
Q 3513 2228 3513 1497 
Q 3513 744 3044 326 
Q 2575 -91 1722 -91 
Q 1428 -91 1123 -41 
Q 819 9 494 109 
L 494 744 
Q 775 591 1075 516 
Q 1375 441 1709 441 
Q 2250 441 2565 725 
Q 2881 1009 2881 1497 
Q 2881 1984 2565 2268 
Q 2250 2553 1709 2553 
Q 1456 2553 1204 2497 
Q 953 2441 691 2322 
L 691 4666 
z
" transform="scale(0.015625)"/>
       </defs>
       <use xlink:href="#DejaVuSans-30"/>
       <use xlink:href="#DejaVuSans-2e" x="63.623047"/>
       <use xlink:href="#DejaVuSans-30" x="95.410156"/>
       <use xlink:href="#DejaVuSans-30" x="159.033203"/>
       <use xlink:href="#DejaVuSans-30" x="222.65625"/>
       <use xlink:href="#DejaVuSans-35" x="286.279297"/>
      </g>
     </g>
    </g>
    <g id="xtick_3">
     <g id="line2d_3">
      <g>
       <use xlink:href="#m73e87e0e31" x="177.00447" y="307.584" style="stroke: #000000; stroke-width: 0.8"/>
      </g>
     </g>
     <g id="text_3">
      <!-- 0.0010 -->
      <g transform="translate(159.509157 322.182437) scale(0.1 -0.1)">
       <defs>
        <path id="DejaVuSans-31" d="M 794 531 
L 1825 531 
L 1825 4091 
L 703 3866 
L 703 4441 
L 1819 4666 
L 2450 4666 
L 2450 531 
L 3481 531 
L 3481 0 
L 794 0 
L 794 531 
z
" transform="scale(0.015625)"/>
       </defs>
       <use xlink:href="#DejaVuSans-30"/>
       <use xlink:href="#DejaVuSans-2e" x="63.623047"/>
       <use xlink:href="#DejaVuSans-30" x="95.410156"/>
       <use xlink:href="#DejaVuSans-30" x="159.033203"/>
       <use xlink:href="#DejaVuSans-31" x="222.65625"/>
       <use xlink:href="#DejaVuSans-30" x="286.279297"/>
      </g>
     </g>
    </g>
    <g id="xtick_4">
     <g id="line2d_4">
      <g>
       <use xlink:href="#m73e87e0e31" x="228.590341" y="307.584" style="stroke: #000000; stroke-width: 0.8"/>
      </g>
     </g>
     <g id="text_4">
      <!-- 0.0015 -->
      <g transform="translate(211.095028 322.182437) scale(0.1 -0.1)">
       <use xlink:href="#DejaVuSans-30"/>
       <use xlink:href="#DejaVuSans-2e" x="63.623047"/>
       <use xlink:href="#DejaVuSans-30" x="95.410156"/>
       <use xlink:href="#DejaVuSans-30" x="159.033203"/>
       <use xlink:href="#DejaVuSans-31" x="222.65625"/>
       <use xlink:href="#DejaVuSans-35" x="286.279297"/>
      </g>
     </g>
    </g>
    <g id="xtick_5">
     <g id="line2d_5">
      <g>
       <use xlink:href="#m73e87e0e31" x="280.176212" y="307.584" style="stroke: #000000; stroke-width: 0.8"/>
      </g>
     </g>
     <g id="text_5">
      <!-- 0.0020 -->
      <g transform="translate(262.6809 322.182437) scale(0.1 -0.1)">
       <defs>
        <path id="DejaVuSans-32" d="M 1228 531 
L 3431 531 
L 3431 0 
L 469 0 
L 469 531 
Q 828 903 1448 1529 
Q 2069 2156 2228 2338 
Q 2531 2678 2651 2914 
Q 2772 3150 2772 3378 
Q 2772 3750 2511 3984 
Q 2250 4219 1831 4219 
Q 1534 4219 1204 4116 
Q 875 4013 500 3803 
L 500 4441 
Q 881 4594 1212 4672 
Q 1544 4750 1819 4750 
Q 2544 4750 2975 4387 
Q 3406 4025 3406 3419 
Q 3406 3131 3298 2873 
Q 3191 2616 2906 2266 
Q 2828 2175 2409 1742 
Q 1991 1309 1228 531 
z
" transform="scale(0.015625)"/>
       </defs>
       <use xlink:href="#DejaVuSans-30"/>
       <use xlink:href="#DejaVuSans-2e" x="63.623047"/>
       <use xlink:href="#DejaVuSans-30" x="95.410156"/>
       <use xlink:href="#DejaVuSans-30" x="159.033203"/>
       <use xlink:href="#DejaVuSans-32" x="222.65625"/>
       <use xlink:href="#DejaVuSans-30" x="286.279297"/>
      </g>
     </g>
    </g>
    <g id="xtick_6">
     <g id="line2d_6">
      <g>
       <use xlink:href="#m73e87e0e31" x="331.762083" y="307.584" style="stroke: #000000; stroke-width: 0.8"/>
      </g>
     </g>
     <g id="text_6">
      <!-- 0.0025 -->
      <g transform="translate(314.266771 322.182437) scale(0.1 -0.1)">
       <use xlink:href="#DejaVuSans-30"/>
       <use xlink:href="#DejaVuSans-2e" x="63.623047"/>
       <use xlink:href="#DejaVuSans-30" x="95.410156"/>
       <use xlink:href="#DejaVuSans-30" x="159.033203"/>
       <use xlink:href="#DejaVuSans-32" x="222.65625"/>
       <use xlink:href="#DejaVuSans-35" x="286.279297"/>
      </g>
     </g>
    </g>
    <g id="xtick_7">
     <g id="line2d_7">
      <g>
       <use xlink:href="#m73e87e0e31" x="383.347954" y="307.584" style="stroke: #000000; stroke-width: 0.8"/>
      </g>
     </g>
     <g id="text_7">
      <!-- 0.0030 -->
      <g transform="translate(365.852642 322.182437) scale(0.1 -0.1)">
       <defs>
        <path id="DejaVuSans-33" d="M 2597 2516 
Q 3050 2419 3304 2112 
Q 3559 1806 3559 1356 
Q 3559 666 3084 287 
Q 2609 -91 1734 -91 
Q 1441 -91 1130 -33 
Q 819 25 488 141 
L 488 750 
Q 750 597 1062 519 
Q 1375 441 1716 441 
Q 2309 441 2620 675 
Q 2931 909 2931 1356 
Q 2931 1769 2642 2001 
Q 2353 2234 1838 2234 
L 1294 2234 
L 1294 2753 
L 1863 2753 
Q 2328 2753 2575 2939 
Q 2822 3125 2822 3475 
Q 2822 3834 2567 4026 
Q 2313 4219 1838 4219 
Q 1578 4219 1281 4162 
Q 984 4106 628 3988 
L 628 4550 
Q 988 4650 1302 4700 
Q 1616 4750 1894 4750 
Q 2613 4750 3031 4423 
Q 3450 4097 3450 3541 
Q 3450 3153 3228 2886 
Q 3006 2619 2597 2516 
z
" transform="scale(0.015625)"/>
       </defs>
       <use xlink:href="#DejaVuSans-30"/>
       <use xlink:href="#DejaVuSans-2e" x="63.623047"/>
       <use xlink:href="#DejaVuSans-30" x="95.410156"/>
       <use xlink:href="#DejaVuSans-30" x="159.033203"/>
       <use xlink:href="#DejaVuSans-33" x="222.65625"/>
       <use xlink:href="#DejaVuSans-30" x="286.279297"/>
      </g>
     </g>
    </g>
    <g id="text_8">
     <!-- Catechol Concentration [M] -->
     <g transform="translate(167.436562 335.860562) scale(0.1 -0.1)">
      <defs>
       <path id="DejaVuSans-43" d="M 4122 4306 
L 4122 3641 
Q 3803 3938 3442 4084 
Q 3081 4231 2675 4231 
Q 1875 4231 1450 3742 
Q 1025 3253 1025 2328 
Q 1025 1406 1450 917 
Q 1875 428 2675 428 
Q 3081 428 3442 575 
Q 3803 722 4122 1019 
L 4122 359 
Q 3791 134 3420 21 
Q 3050 -91 2638 -91 
Q 1578 -91 968 557 
Q 359 1206 359 2328 
Q 359 3453 968 4101 
Q 1578 4750 2638 4750 
Q 3056 4750 3426 4639 
Q 3797 4528 4122 4306 
z
" transform="scale(0.015625)"/>
       <path id="DejaVuSans-61" d="M 2194 1759 
Q 1497 1759 1228 1600 
Q 959 1441 959 1056 
Q 959 750 1161 570 
Q 1363 391 1709 391 
Q 2188 391 2477 730 
Q 2766 1069 2766 1631 
L 2766 1759 
L 2194 1759 
z
M 3341 1997 
L 3341 0 
L 2766 0 
L 2766 531 
Q 2569 213 2275 61 
Q 1981 -91 1556 -91 
Q 1019 -91 701 211 
Q 384 513 384 1019 
Q 384 1609 779 1909 
Q 1175 2209 1959 2209 
L 2766 2209 
L 2766 2266 
Q 2766 2663 2505 2880 
Q 2244 3097 1772 3097 
Q 1472 3097 1187 3025 
Q 903 2953 641 2809 
L 641 3341 
Q 956 3463 1253 3523 
Q 1550 3584 1831 3584 
Q 2591 3584 2966 3190 
Q 3341 2797 3341 1997 
z
" transform="scale(0.015625)"/>
       <path id="DejaVuSans-74" d="M 1172 4494 
L 1172 3500 
L 2356 3500 
L 2356 3053 
L 1172 3053 
L 1172 1153 
Q 1172 725 1289 603 
Q 1406 481 1766 481 
L 2356 481 
L 2356 0 
L 1766 0 
Q 1100 0 847 248 
Q 594 497 594 1153 
L 594 3053 
L 172 3053 
L 172 3500 
L 594 3500 
L 594 4494 
L 1172 4494 
z
" transform="scale(0.015625)"/>
       <path id="DejaVuSans-65" d="M 3597 1894 
L 3597 1613 
L 953 1613 
Q 991 1019 1311 708 
Q 1631 397 2203 397 
Q 2534 397 2845 478 
Q 3156 559 3463 722 
L 3463 178 
Q 3153 47 2828 -22 
Q 2503 -91 2169 -91 
Q 1331 -91 842 396 
Q 353 884 353 1716 
Q 353 2575 817 3079 
Q 1281 3584 2069 3584 
Q 2775 3584 3186 3129 
Q 3597 2675 3597 1894 
z
M 3022 2063 
Q 3016 2534 2758 2815 
Q 2500 3097 2075 3097 
Q 1594 3097 1305 2825 
Q 1016 2553 972 2059 
L 3022 2063 
z
" transform="scale(0.015625)"/>
       <path id="DejaVuSans-63" d="M 3122 3366 
L 3122 2828 
Q 2878 2963 2633 3030 
Q 2388 3097 2138 3097 
Q 1578 3097 1268 2742 
Q 959 2388 959 1747 
Q 959 1106 1268 751 
Q 1578 397 2138 397 
Q 2388 397 2633 464 
Q 2878 531 3122 666 
L 3122 134 
Q 2881 22 2623 -34 
Q 2366 -91 2075 -91 
Q 1284 -91 818 406 
Q 353 903 353 1747 
Q 353 2603 823 3093 
Q 1294 3584 2113 3584 
Q 2378 3584 2631 3529 
Q 2884 3475 3122 3366 
z
" transform="scale(0.015625)"/>
       <path id="DejaVuSans-68" d="M 3513 2113 
L 3513 0 
L 2938 0 
L 2938 2094 
Q 2938 2591 2744 2837 
Q 2550 3084 2163 3084 
Q 1697 3084 1428 2787 
Q 1159 2491 1159 1978 
L 1159 0 
L 581 0 
L 581 4863 
L 1159 4863 
L 1159 2956 
Q 1366 3272 1645 3428 
Q 1925 3584 2291 3584 
Q 2894 3584 3203 3211 
Q 3513 2838 3513 2113 
z
" transform="scale(0.015625)"/>
       <path id="DejaVuSans-6f" d="M 1959 3097 
Q 1497 3097 1228 2736 
Q 959 2375 959 1747 
Q 959 1119 1226 758 
Q 1494 397 1959 397 
Q 2419 397 2687 759 
Q 2956 1122 2956 1747 
Q 2956 2369 2687 2733 
Q 2419 3097 1959 3097 
z
M 1959 3584 
Q 2709 3584 3137 3096 
Q 3566 2609 3566 1747 
Q 3566 888 3137 398 
Q 2709 -91 1959 -91 
Q 1206 -91 779 398 
Q 353 888 353 1747 
Q 353 2609 779 3096 
Q 1206 3584 1959 3584 
z
" transform="scale(0.015625)"/>
       <path id="DejaVuSans-6c" d="M 603 4863 
L 1178 4863 
L 1178 0 
L 603 0 
L 603 4863 
z
" transform="scale(0.015625)"/>
       <path id="DejaVuSans-20" transform="scale(0.015625)"/>
       <path id="DejaVuSans-6e" d="M 3513 2113 
L 3513 0 
L 2938 0 
L 2938 2094 
Q 2938 2591 2744 2837 
Q 2550 3084 2163 3084 
Q 1697 3084 1428 2787 
Q 1159 2491 1159 1978 
L 1159 0 
L 581 0 
L 581 3500 
L 1159 3500 
L 1159 2956 
Q 1366 3272 1645 3428 
Q 1925 3584 2291 3584 
Q 2894 3584 3203 3211 
Q 3513 2838 3513 2113 
z
" transform="scale(0.015625)"/>
       <path id="DejaVuSans-72" d="M 2631 2963 
Q 2534 3019 2420 3045 
Q 2306 3072 2169 3072 
Q 1681 3072 1420 2755 
Q 1159 2438 1159 1844 
L 1159 0 
L 581 0 
L 581 3500 
L 1159 3500 
L 1159 2956 
Q 1341 3275 1631 3429 
Q 1922 3584 2338 3584 
Q 2397 3584 2469 3576 
Q 2541 3569 2628 3553 
L 2631 2963 
z
" transform="scale(0.015625)"/>
       <path id="DejaVuSans-69" d="M 603 3500 
L 1178 3500 
L 1178 0 
L 603 0 
L 603 3500 
z
M 603 4863 
L 1178 4863 
L 1178 4134 
L 603 4134 
L 603 4863 
z
" transform="scale(0.015625)"/>
       <path id="DejaVuSans-5b" d="M 550 4863 
L 1875 4863 
L 1875 4416 
L 1125 4416 
L 1125 -397 
L 1875 -397 
L 1875 -844 
L 550 -844 
L 550 4863 
z
" transform="scale(0.015625)"/>
       <path id="DejaVuSans-4d" d="M 628 4666 
L 1569 4666 
L 2759 1491 
L 3956 4666 
L 4897 4666 
L 4897 0 
L 4281 0 
L 4281 4097 
L 3078 897 
L 2444 897 
L 1241 4097 
L 1241 0 
L 628 0 
L 628 4666 
z
" transform="scale(0.015625)"/>
       <path id="DejaVuSans-5d" d="M 1947 4863 
L 1947 -844 
L 622 -844 
L 622 -397 
L 1369 -397 
L 1369 4416 
L 622 4416 
L 622 4863 
L 1947 4863 
z
" transform="scale(0.015625)"/>
      </defs>
      <use xlink:href="#DejaVuSans-43"/>
      <use xlink:href="#DejaVuSans-61" x="69.824219"/>
      <use xlink:href="#DejaVuSans-74" x="131.103516"/>
      <use xlink:href="#DejaVuSans-65" x="170.3125"/>
      <use xlink:href="#DejaVuSans-63" x="231.835938"/>
      <use xlink:href="#DejaVuSans-68" x="286.816406"/>
      <use xlink:href="#DejaVuSans-6f" x="350.195312"/>
      <use xlink:href="#DejaVuSans-6c" x="411.376953"/>
      <use xlink:href="#DejaVuSans-20" x="439.160156"/>
      <use xlink:href="#DejaVuSans-43" x="470.947266"/>
      <use xlink:href="#DejaVuSans-6f" x="540.771484"/>
      <use xlink:href="#DejaVuSans-6e" x="601.953125"/>
      <use xlink:href="#DejaVuSans-63" x="665.332031"/>
      <use xlink:href="#DejaVuSans-65" x="720.3125"/>
      <use xlink:href="#DejaVuSans-6e" x="781.835938"/>
      <use xlink:href="#DejaVuSans-74" x="845.214844"/>
      <use xlink:href="#DejaVuSans-72" x="884.423828"/>
      <use xlink:href="#DejaVuSans-61" x="925.537109"/>
      <use xlink:href="#DejaVuSans-74" x="986.816406"/>
      <use xlink:href="#DejaVuSans-69" x="1026.025391"/>
      <use xlink:href="#DejaVuSans-6f" x="1053.808594"/>
      <use xlink:href="#DejaVuSans-6e" x="1114.990234"/>
      <use xlink:href="#DejaVuSans-20" x="1178.369141"/>
      <use xlink:href="#DejaVuSans-5b" x="1210.15625"/>
      <use xlink:href="#DejaVuSans-4d" x="1249.169922"/>
      <use xlink:href="#DejaVuSans-5d" x="1335.449219"/>
     </g>
    </g>
   </g>
   <g id="matplotlib.axis_2">
    <g id="ytick_1">
     <g id="line2d_8">
      <defs>
       <path id="m98e4a86e71" d="M 0 0 
L -3.5 0 
" style="stroke: #000000; stroke-width: 0.8"/>
      </defs>
      <g>
       <use xlink:href="#m98e4a86e71" x="57.6" y="306.883482" style="stroke: #000000; stroke-width: 0.8"/>
      </g>
     </g>
     <g id="text_9">
      <!-- 0.0 -->
      <g transform="translate(34.696875 310.682701) scale(0.1 -0.1)">
       <use xlink:href="#DejaVuSans-30"/>
       <use xlink:href="#DejaVuSans-2e" x="63.623047"/>
       <use xlink:href="#DejaVuSans-30" x="95.410156"/>
      </g>
     </g>
    </g>
    <g id="ytick_2">
     <g id="line2d_9">
      <g>
       <use xlink:href="#m98e4a86e71" x="57.6" y="251.281549" style="stroke: #000000; stroke-width: 0.8"/>
      </g>
     </g>
     <g id="text_10">
      <!-- 0.2 -->
      <g transform="translate(34.696875 255.080768) scale(0.1 -0.1)">
       <use xlink:href="#DejaVuSans-30"/>
       <use xlink:href="#DejaVuSans-2e" x="63.623047"/>
       <use xlink:href="#DejaVuSans-32" x="95.410156"/>
      </g>
     </g>
    </g>
    <g id="ytick_3">
     <g id="line2d_10">
      <g>
       <use xlink:href="#m98e4a86e71" x="57.6" y="195.679617" style="stroke: #000000; stroke-width: 0.8"/>
      </g>
     </g>
     <g id="text_11">
      <!-- 0.4 -->
      <g transform="translate(34.696875 199.478835) scale(0.1 -0.1)">
       <defs>
        <path id="DejaVuSans-34" d="M 2419 4116 
L 825 1625 
L 2419 1625 
L 2419 4116 
z
M 2253 4666 
L 3047 4666 
L 3047 1625 
L 3713 1625 
L 3713 1100 
L 3047 1100 
L 3047 0 
L 2419 0 
L 2419 1100 
L 313 1100 
L 313 1709 
L 2253 4666 
z
" transform="scale(0.015625)"/>
       </defs>
       <use xlink:href="#DejaVuSans-30"/>
       <use xlink:href="#DejaVuSans-2e" x="63.623047"/>
       <use xlink:href="#DejaVuSans-34" x="95.410156"/>
      </g>
     </g>
    </g>
    <g id="ytick_4">
     <g id="line2d_11">
      <g>
       <use xlink:href="#m98e4a86e71" x="57.6" y="140.077684" style="stroke: #000000; stroke-width: 0.8"/>
      </g>
     </g>
     <g id="text_12">
      <!-- 0.6 -->
      <g transform="translate(34.696875 143.876903) scale(0.1 -0.1)">
       <defs>
        <path id="DejaVuSans-36" d="M 2113 2584 
Q 1688 2584 1439 2293 
Q 1191 2003 1191 1497 
Q 1191 994 1439 701 
Q 1688 409 2113 409 
Q 2538 409 2786 701 
Q 3034 994 3034 1497 
Q 3034 2003 2786 2293 
Q 2538 2584 2113 2584 
z
M 3366 4563 
L 3366 3988 
Q 3128 4100 2886 4159 
Q 2644 4219 2406 4219 
Q 1781 4219 1451 3797 
Q 1122 3375 1075 2522 
Q 1259 2794 1537 2939 
Q 1816 3084 2150 3084 
Q 2853 3084 3261 2657 
Q 3669 2231 3669 1497 
Q 3669 778 3244 343 
Q 2819 -91 2113 -91 
Q 1303 -91 875 529 
Q 447 1150 447 2328 
Q 447 3434 972 4092 
Q 1497 4750 2381 4750 
Q 2619 4750 2861 4703 
Q 3103 4656 3366 4563 
z
" transform="scale(0.015625)"/>
       </defs>
       <use xlink:href="#DejaVuSans-30"/>
       <use xlink:href="#DejaVuSans-2e" x="63.623047"/>
       <use xlink:href="#DejaVuSans-36" x="95.410156"/>
      </g>
     </g>
    </g>
    <g id="ytick_5">
     <g id="line2d_12">
      <g>
       <use xlink:href="#m98e4a86e71" x="57.6" y="84.475751" style="stroke: #000000; stroke-width: 0.8"/>
      </g>
     </g>
     <g id="text_13">
      <!-- 0.8 -->
      <g transform="translate(34.696875 88.27497) scale(0.1 -0.1)">
       <defs>
        <path id="DejaVuSans-38" d="M 2034 2216 
Q 1584 2216 1326 1975 
Q 1069 1734 1069 1313 
Q 1069 891 1326 650 
Q 1584 409 2034 409 
Q 2484 409 2743 651 
Q 3003 894 3003 1313 
Q 3003 1734 2745 1975 
Q 2488 2216 2034 2216 
z
M 1403 2484 
Q 997 2584 770 2862 
Q 544 3141 544 3541 
Q 544 4100 942 4425 
Q 1341 4750 2034 4750 
Q 2731 4750 3128 4425 
Q 3525 4100 3525 3541 
Q 3525 3141 3298 2862 
Q 3072 2584 2669 2484 
Q 3125 2378 3379 2068 
Q 3634 1759 3634 1313 
Q 3634 634 3220 271 
Q 2806 -91 2034 -91 
Q 1263 -91 848 271 
Q 434 634 434 1313 
Q 434 1759 690 2068 
Q 947 2378 1403 2484 
z
M 1172 3481 
Q 1172 3119 1398 2916 
Q 1625 2713 2034 2713 
Q 2441 2713 2670 2916 
Q 2900 3119 2900 3481 
Q 2900 3844 2670 4047 
Q 2441 4250 2034 4250 
Q 1625 4250 1398 4047 
Q 1172 3844 1172 3481 
z
" transform="scale(0.015625)"/>
       </defs>
       <use xlink:href="#DejaVuSans-30"/>
       <use xlink:href="#DejaVuSans-2e" x="63.623047"/>
       <use xlink:href="#DejaVuSans-38" x="95.410156"/>
      </g>
     </g>
    </g>
    <g id="text_14">
     <!-- Absorbance -->
     <g transform="translate(28.617187 204.074875) rotate(-90) scale(0.1 -0.1)">
      <defs>
       <path id="DejaVuSans-41" d="M 2188 4044 
L 1331 1722 
L 3047 1722 
L 2188 4044 
z
M 1831 4666 
L 2547 4666 
L 4325 0 
L 3669 0 
L 3244 1197 
L 1141 1197 
L 716 0 
L 50 0 
L 1831 4666 
z
" transform="scale(0.015625)"/>
       <path id="DejaVuSans-62" d="M 3116 1747 
Q 3116 2381 2855 2742 
Q 2594 3103 2138 3103 
Q 1681 3103 1420 2742 
Q 1159 2381 1159 1747 
Q 1159 1113 1420 752 
Q 1681 391 2138 391 
Q 2594 391 2855 752 
Q 3116 1113 3116 1747 
z
M 1159 2969 
Q 1341 3281 1617 3432 
Q 1894 3584 2278 3584 
Q 2916 3584 3314 3078 
Q 3713 2572 3713 1747 
Q 3713 922 3314 415 
Q 2916 -91 2278 -91 
Q 1894 -91 1617 61 
Q 1341 213 1159 525 
L 1159 0 
L 581 0 
L 581 4863 
L 1159 4863 
L 1159 2969 
z
" transform="scale(0.015625)"/>
       <path id="DejaVuSans-73" d="M 2834 3397 
L 2834 2853 
Q 2591 2978 2328 3040 
Q 2066 3103 1784 3103 
Q 1356 3103 1142 2972 
Q 928 2841 928 2578 
Q 928 2378 1081 2264 
Q 1234 2150 1697 2047 
L 1894 2003 
Q 2506 1872 2764 1633 
Q 3022 1394 3022 966 
Q 3022 478 2636 193 
Q 2250 -91 1575 -91 
Q 1294 -91 989 -36 
Q 684 19 347 128 
L 347 722 
Q 666 556 975 473 
Q 1284 391 1588 391 
Q 1994 391 2212 530 
Q 2431 669 2431 922 
Q 2431 1156 2273 1281 
Q 2116 1406 1581 1522 
L 1381 1569 
Q 847 1681 609 1914 
Q 372 2147 372 2553 
Q 372 3047 722 3315 
Q 1072 3584 1716 3584 
Q 2034 3584 2315 3537 
Q 2597 3491 2834 3397 
z
" transform="scale(0.015625)"/>
      </defs>
      <use xlink:href="#DejaVuSans-41"/>
      <use xlink:href="#DejaVuSans-62" x="68.408203"/>
      <use xlink:href="#DejaVuSans-73" x="131.884766"/>
      <use xlink:href="#DejaVuSans-6f" x="183.984375"/>
      <use xlink:href="#DejaVuSans-72" x="245.166016"/>
      <use xlink:href="#DejaVuSans-62" x="286.279297"/>
      <use xlink:href="#DejaVuSans-61" x="349.755859"/>
      <use xlink:href="#DejaVuSans-6e" x="411.035156"/>
      <use xlink:href="#DejaVuSans-63" x="474.414062"/>
      <use xlink:href="#DejaVuSans-65" x="529.394531"/>
     </g>
    </g>
   </g>
   <g id="line2d_13">
    <defs>
     <path id="me6d65ea890" d="M 0 1.5 
C 0.397805 1.5 0.77937 1.341951 1.06066 1.06066 
C 1.341951 0.77937 1.5 0.397805 1.5 0 
C 1.5 -0.397805 1.341951 -0.77937 1.06066 -1.06066 
C 0.77937 -1.341951 0.397805 -1.5 0 -1.5 
C -0.397805 -1.5 -0.77937 -1.341951 -1.06066 -1.06066 
C -1.341951 -0.77937 -1.5 -0.397805 -1.5 0 
C -1.5 0.397805 -1.341951 0.77937 -1.06066 1.06066 
C -0.77937 1.341951 -0.397805 1.5 0 1.5 
z
" style="stroke: #000000"/>
    </defs>
    <g clip-path="url(#p12e96bc0c8)">
     <use xlink:href="#me6d65ea890" x="73.832727" y="116.421799" style="stroke: #000000"/>
     <use xlink:href="#me6d65ea890" x="75.596964" y="117.978918" style="stroke: #000000"/>
     <use xlink:href="#me6d65ea890" x="77.350884" y="118.339236" style="stroke: #000000"/>
     <use xlink:href="#me6d65ea890" x="79.094486" y="119.273753" style="stroke: #000000"/>
     <use xlink:href="#me6d65ea890" x="83.407065" y="120.381984" style="stroke: #000000"/>
     <use xlink:href="#me6d65ea890" x="87.665788" y="121.83996" style="stroke: #000000"/>
     <use xlink:href="#me6d65ea890" x="91.862711" y="123.465564" style="stroke: #000000"/>
     <use xlink:href="#me6d65ea890" x="96.001859" y="125.390328" style="stroke: #000000"/>
     <use xlink:href="#me6d65ea890" x="100.084364" y="127.487337" style="stroke: #000000"/>
     <use xlink:href="#me6d65ea890" x="104.111364" y="129.954622" style="stroke: #000000"/>
     <use xlink:href="#me6d65ea890" x="109.658186" y="132.411054" style="stroke: #000000"/>
     <use xlink:href="#me6d65ea890" x="115.101424" y="135.3796" style="stroke: #000000"/>
     <use xlink:href="#me6d65ea890" x="120.443967" y="138.225665" style="stroke: #000000"/>
     <use xlink:href="#me6d65ea890" x="127.907101" y="141.501358" style="stroke: #000000"/>
     <use xlink:href="#me6d65ea890" x="135.178129" y="144.926086" style="stroke: #000000"/>
     <use xlink:href="#me6d65ea890" x="142.264274" y="148.596653" style="stroke: #000000"/>
     <use xlink:href="#me6d65ea890" x="149.172654" y="151.651462" style="stroke: #000000"/>
     <use xlink:href="#me6d65ea890" x="155.909872" y="154.91922" style="stroke: #000000"/>
     <use xlink:href="#me6d65ea890" x="162.482118" y="158.017112" style="stroke: #000000"/>
     <use xlink:href="#me6d65ea890" x="172.044282" y="161.109339" style="stroke: #000000"/>
     <use xlink:href="#me6d65ea890" x="184.270133" y="164.626295" style="stroke: #000000"/>
     <use xlink:href="#me6d65ea890" x="195.93504" y="167.850228" style="stroke: #000000"/>
     <use xlink:href="#me6d65ea890" x="207.076969" y="170.408783" style="stroke: #000000"/>
     <use xlink:href="#me6d65ea890" x="222.883396" y="174.235794" style="stroke: #000000"/>
     <use xlink:href="#me6d65ea890" x="237.6937" y="176.651432" style="stroke: #000000"/>
     <use xlink:href="#me6d65ea890" x="256.047333" y="179.567702" style="stroke: #000000"/>
     <use xlink:href="#me6d65ea890" x="272.978229" y="181.908505" style="stroke: #000000"/>
     <use xlink:href="#me6d65ea890" x="288.64558" y="183.830926" style="stroke: #000000"/>
     <use xlink:href="#me6d65ea890" x="303.18578" y="184.75251" style="stroke: #000000"/>
     <use xlink:href="#me6d65ea890" x="316.716239" y="186.333132" style="stroke: #000000"/>
     <use xlink:href="#me6d65ea890" x="341.141323" y="187.976448" style="stroke: #000000"/>
     <use xlink:href="#me6d65ea890" x="362.587736" y="188.886953" style="stroke: #000000"/>
     <use xlink:href="#me6d65ea890" x="381.56917" y="189.735347" style="stroke: #000000"/>
     <use xlink:href="#me6d65ea890" x="398.487273" y="190.674409" style="stroke: #000000"/>
    </g>
   </g>
   <g id="line2d_14">
    <defs>
     <path id="mbb6c438d98" d="M 0 1.5 
C 0.397805 1.5 0.77937 1.341951 1.06066 1.06066 
C 1.341951 0.77937 1.5 0.397805 1.5 0 
C 1.5 -0.397805 1.341951 -0.77937 1.06066 -1.06066 
C 0.77937 -1.341951 0.397805 -1.5 0 -1.5 
C -0.397805 -1.5 -0.77937 -1.341951 -1.06066 -1.06066 
C -1.341951 -0.77937 -1.5 -0.397805 -1.5 0 
C -1.5 0.397805 -1.341951 0.77937 -1.06066 1.06066 
C -0.77937 1.341951 -0.397805 1.5 0 1.5 
z
" style="stroke: #ff0000"/>
    </defs>
    <g clip-path="url(#p12e96bc0c8)">
     <use xlink:href="#mbb6c438d98" x="73.832727" y="298.272037" style="fill: #ff0000; stroke: #ff0000"/>
     <use xlink:href="#mbb6c438d98" x="75.596964" y="297.667279" style="fill: #ff0000; stroke: #ff0000"/>
     <use xlink:href="#mbb6c438d98" x="77.350884" y="296.948263" style="fill: #ff0000; stroke: #ff0000"/>
     <use xlink:href="#mbb6c438d98" x="79.094486" y="296.565177" style="fill: #ff0000; stroke: #ff0000"/>
     <use xlink:href="#mbb6c438d98" x="83.407065" y="295.432924" style="fill: #ff0000; stroke: #ff0000"/>
     <use xlink:href="#mbb6c438d98" x="87.665788" y="294.069649" style="fill: #ff0000; stroke: #ff0000"/>
     <use xlink:href="#mbb6c438d98" x="91.862711" y="292.329366" style="fill: #ff0000; stroke: #ff0000"/>
     <use xlink:href="#mbb6c438d98" x="96.001859" y="290.529395" style="fill: #ff0000; stroke: #ff0000"/>
     <use xlink:href="#mbb6c438d98" x="100.084364" y="288.310707" style="fill: #ff0000; stroke: #ff0000"/>
     <use xlink:href="#mbb6c438d98" x="104.111364" y="286.182299" style="fill: #ff0000; stroke: #ff0000"/>
     <use xlink:href="#mbb6c438d98" x="109.658186" y="283.545504" style="fill: #ff0000; stroke: #ff0000"/>
     <use xlink:href="#mbb6c438d98" x="115.101424" y="280.521867" style="fill: #ff0000; stroke: #ff0000"/>
     <use xlink:href="#mbb6c438d98" x="120.443967" y="277.778598" style="fill: #ff0000; stroke: #ff0000"/>
     <use xlink:href="#mbb6c438d98" x="127.907101" y="274.759671" style="fill: #ff0000; stroke: #ff0000"/>
     <use xlink:href="#mbb6c438d98" x="135.178129" y="271.466147" style="fill: #ff0000; stroke: #ff0000"/>
     <use xlink:href="#mbb6c438d98" x="142.264274" y="268.056205" style="fill: #ff0000; stroke: #ff0000"/>
     <use xlink:href="#mbb6c438d98" x="149.172654" y="264.82549" style="fill: #ff0000; stroke: #ff0000"/>
     <use xlink:href="#mbb6c438d98" x="155.909872" y="261.902173" style="fill: #ff0000; stroke: #ff0000"/>
     <use xlink:href="#mbb6c438d98" x="162.482118" y="258.783323" style="fill: #ff0000; stroke: #ff0000"/>
     <use xlink:href="#mbb6c438d98" x="172.044282" y="255.452474" style="fill: #ff0000; stroke: #ff0000"/>
     <use xlink:href="#mbb6c438d98" x="184.270133" y="251.986501" style="fill: #ff0000; stroke: #ff0000"/>
     <use xlink:href="#mbb6c438d98" x="195.93504" y="248.146689" style="fill: #ff0000; stroke: #ff0000"/>
     <use xlink:href="#mbb6c438d98" x="207.076969" y="244.36679" style="fill: #ff0000; stroke: #ff0000"/>
     <use xlink:href="#mbb6c438d98" x="222.883396" y="240.273287" style="fill: #ff0000; stroke: #ff0000"/>
     <use xlink:href="#mbb6c438d98" x="237.6937" y="236.24236" style="fill: #ff0000; stroke: #ff0000"/>
     <use xlink:href="#mbb6c438d98" x="256.047333" y="232.81223" style="fill: #ff0000; stroke: #ff0000"/>
     <use xlink:href="#mbb6c438d98" x="272.978229" y="229.086719" style="fill: #ff0000; stroke: #ff0000"/>
     <use xlink:href="#mbb6c438d98" x="288.64558" y="225.22524" style="fill: #ff0000; stroke: #ff0000"/>
     <use xlink:href="#mbb6c438d98" x="303.18578" y="222.460728" style="fill: #ff0000; stroke: #ff0000"/>
     <use xlink:href="#mbb6c438d98" x="316.716239" y="220.071532" style="fill: #ff0000; stroke: #ff0000"/>
     <use xlink:href="#mbb6c438d98" x="341.141323" y="215.637929" style="fill: #ff0000; stroke: #ff0000"/>
     <use xlink:href="#mbb6c438d98" x="362.587736" y="211.333521" style="fill: #ff0000; stroke: #ff0000"/>
     <use xlink:href="#mbb6c438d98" x="381.56917" y="207.970124" style="fill: #ff0000; stroke: #ff0000"/>
     <use xlink:href="#mbb6c438d98" x="398.487273" y="205.614133" style="fill: #ff0000; stroke: #ff0000"/>
    </g>
   </g>
   <g id="line2d_15">
    <path d="M 73.832727 112.032767 
L 77.112066 114.896668 
L 80.391405 117.607535 
L 83.670744 120.16608 
L 86.950083 122.58038 
L 90.229421 124.861233 
L 93.50876 127.019934 
L 96.788099 129.067286 
L 100.067438 131.013205 
L 103.346777 132.866616 
L 106.626116 134.635476 
L 109.905455 136.326851 
L 113.184793 137.947012 
L 116.464132 139.501528 
L 119.743471 140.995357 
L 123.02281 142.432927 
L 126.302149 143.8182 
L 129.581488 145.154733 
L 132.860826 146.445734 
L 136.140165 147.694101 
L 139.419504 148.902459 
L 142.698843 150.073198 
L 145.978182 151.208495 
L 149.257521 152.310341 
L 152.53686 153.380563 
L 155.816198 154.420837 
L 159.095537 155.432708 
L 162.374876 156.417604 
L 165.654215 157.376844 
L 168.933554 158.311652 
L 172.212893 159.223164 
L 175.492231 160.11244 
L 178.77157 160.980464 
L 182.050909 161.828158 
L 185.330248 162.656384 
L 188.609587 163.46595 
L 191.888926 164.257612 
L 195.168264 165.032082 
L 198.447603 165.790029 
L 201.726942 166.532085 
L 205.006281 167.258845 
L 208.28562 167.970869 
L 211.564959 168.668689 
L 214.844298 169.352808 
L 218.123636 170.023702 
L 221.402975 170.681823 
L 224.682314 171.3276 
L 227.961653 171.961439 
L 231.240992 172.58373 
L 234.520331 173.194839 
L 237.799669 173.79512 
L 241.079008 174.384908 
L 244.358347 174.964521 
L 247.637686 175.534266 
L 250.917025 176.094435 
L 254.196364 176.645306 
L 257.475702 177.187147 
L 260.755041 177.720214 
L 264.03438 178.244752 
L 267.313719 178.760996 
L 270.593058 179.269172 
L 273.872397 179.769496 
L 277.151736 180.262177 
L 280.431074 180.747414 
L 283.710413 181.2254 
L 286.989752 181.696319 
L 290.269091 182.160351 
L 293.54843 182.617665 
L 296.827769 183.068429 
L 300.107107 183.512801 
L 303.386446 183.950934 
L 306.665785 184.382978 
L 309.945124 184.809075 
L 313.224463 185.229363 
L 316.503802 185.643977 
L 319.78314 186.053044 
L 323.062479 186.456691 
L 326.341818 186.855038 
L 329.621157 187.248202 
L 332.900496 187.636295 
L 336.179835 188.019428 
L 339.459174 188.397707 
L 342.738512 188.771233 
L 346.017851 189.140108 
L 349.29719 189.504427 
L 352.576529 189.864285 
L 355.855868 190.219772 
L 359.135207 190.570976 
L 362.414545 190.917984 
L 365.693884 191.260878 
L 368.973223 191.59974 
L 372.252562 191.934647 
L 375.531901 192.265677 
L 378.81124 192.592903 
L 382.090579 192.916397 
L 385.369917 193.236231 
L 388.649256 193.552472 
L 391.928595 193.865186 
L 395.207934 194.174438 
L 398.487273 194.480292 
" clip-path="url(#p12e96bc0c8)" style="fill: none; stroke: #000000; stroke-width: 1.5; stroke-linecap: square"/>
   </g>
   <g id="line2d_16">
    <path d="M 73.832727 286.985415 
L 77.112066 284.815026 
L 80.391405 282.760612 
L 83.670744 280.821635 
L 86.950083 278.991973 
L 90.229421 277.263443 
L 93.50876 275.627485 
L 96.788099 274.075913 
L 100.067438 272.60121 
L 103.346777 271.196614 
L 106.626116 269.856095 
L 109.905455 268.574297 
L 113.184793 267.346469 
L 116.464132 266.168389 
L 119.743471 265.036299 
L 123.02281 263.946846 
L 126.302149 262.897026 
L 129.581488 261.884142 
L 132.860826 260.905765 
L 136.140165 259.959699 
L 139.419504 259.043952 
L 142.698843 258.156715 
L 145.978182 257.296337 
L 149.257521 256.46131 
L 152.53686 255.650249 
L 155.816198 254.861884 
L 159.095537 254.095044 
L 162.374876 253.348647 
L 165.654215 252.621693 
L 168.933554 251.913254 
L 172.212893 251.22247 
L 175.492231 250.548539 
L 178.77157 249.890712 
L 182.050909 249.248292 
L 185.330248 248.620626 
L 188.609587 248.007102 
L 191.888926 247.407146 
L 195.168264 246.820219 
L 198.447603 246.245813 
L 201.726942 245.683451 
L 205.006281 245.132681 
L 208.28562 244.593078 
L 211.564959 244.064239 
L 214.844298 243.545784 
L 218.123636 243.037351 
L 221.402975 242.538598 
L 224.682314 242.049201 
L 227.961653 241.568849 
L 231.240992 241.09725 
L 234.520331 240.634125 
L 237.799669 240.179205 
L 241.079008 239.732239 
L 244.358347 239.292982 
L 247.637686 238.861205 
L 250.917025 238.436685 
L 254.196364 238.01921 
L 257.475702 237.608579 
L 260.755041 237.204598 
L 264.03438 236.80708 
L 267.313719 236.415848 
L 270.593058 236.03073 
L 273.872397 235.651562 
L 277.151736 235.278187 
L 280.431074 234.910454 
L 283.710413 234.548215 
L 286.989752 234.191332 
L 290.269091 233.839669 
L 293.54843 233.493095 
L 296.827769 233.151487 
L 300.107107 232.814723 
L 303.386446 232.482686 
L 306.665785 232.155265 
L 309.945124 231.83235 
L 313.224463 231.513837 
L 316.503802 231.199625 
L 319.78314 230.889615 
L 323.062479 230.583714 
L 326.341818 230.281829 
L 329.621157 229.983873 
L 332.900496 229.689758 
L 336.179835 229.399404 
L 339.459174 229.112728 
L 342.738512 228.829653 
L 346.017851 228.550103 
L 349.29719 228.274006 
L 352.576529 228.001291 
L 355.855868 227.731887 
L 359.135207 227.465729 
L 362.414545 227.202751 
L 365.693884 226.942891 
L 368.973223 226.686087 
L 372.252562 226.43228 
L 375.531901 226.181411 
L 378.81124 225.933425 
L 382.090579 225.688266 
L 385.369917 225.445883 
L 388.649256 225.206222 
L 391.928595 224.969233 
L 395.207934 224.734868 
L 398.487273 224.503078 
" clip-path="url(#p12e96bc0c8)" style="fill: none; stroke: #ff0000; stroke-width: 1.5; stroke-linecap: square"/>
   </g>
   <g id="patch_3">
    <path d="M 57.6 307.584 
L 57.6 41.472 
" style="fill: none; stroke: #000000; stroke-width: 0.8; stroke-linejoin: miter; stroke-linecap: square"/>
   </g>
   <g id="patch_4">
    <path d="M 414.72 307.584 
L 414.72 41.472 
" style="fill: none; stroke: #000000; stroke-width: 0.8; stroke-linejoin: miter; stroke-linecap: square"/>
   </g>
   <g id="patch_5">
    <path d="M 57.6 307.584 
L 414.72 307.584 
" style="fill: none; stroke: #000000; stroke-width: 0.8; stroke-linejoin: miter; stroke-linecap: square"/>
   </g>
   <g id="patch_6">
    <path d="M 57.6 41.472 
L 414.72 41.472 
" style="fill: none; stroke: #000000; stroke-width: 0.8; stroke-linejoin: miter; stroke-linecap: square"/>
   </g>
   <g id="text_15">
    <!-- $K_{G} = 7.13×10³ M^{-1}$ -->
    <g transform="translate(297.346 98.014713) scale(0.1 -0.1)">
     <defs>
      <path id="DejaVuSans-Oblique-4b" d="M 1081 4666 
L 1716 4666 
L 1331 2700 
L 3781 4666 
L 4622 4666 
L 1850 2438 
L 3878 0 
L 3109 0 
L 1247 2272 
L 806 0 
L 172 0 
L 1081 4666 
z
" transform="scale(0.015625)"/>
      <path id="DejaVuSans-Oblique-47" d="M 3494 697 
L 3738 1919 
L 2700 1919 
L 2797 2438 
L 4453 2438 
L 4050 384 
Q 3634 156 3143 32 
Q 2653 -91 2156 -91 
Q 1278 -91 783 396 
Q 288 884 288 1753 
Q 288 2475 589 3126 
Q 891 3778 1422 4213 
Q 1756 4484 2153 4617 
Q 2550 4750 3034 4750 
Q 3472 4750 3873 4639 
Q 4275 4528 4641 4306 
L 4513 3634 
Q 4231 3928 3853 4083 
Q 3475 4238 3047 4238 
Q 2550 4238 2172 4048 
Q 1794 3859 1497 3463 
Q 1244 3125 1098 2667 
Q 953 2209 953 1734 
Q 953 1081 1287 751 
Q 1622 422 2284 422 
Q 2616 422 2925 492 
Q 3234 563 3494 697 
z
" transform="scale(0.015625)"/>
      <path id="DejaVuSans-3d" d="M 678 2906 
L 4684 2906 
L 4684 2381 
L 678 2381 
L 678 2906 
z
M 678 1631 
L 4684 1631 
L 4684 1100 
L 678 1100 
L 678 1631 
z
" transform="scale(0.015625)"/>
      <path id="DejaVuSans-37" d="M 525 4666 
L 3525 4666 
L 3525 4397 
L 1831 0 
L 1172 0 
L 2766 4134 
L 525 4134 
L 525 4666 
z
" transform="scale(0.015625)"/>
      <path id="DejaVuSans-d7" d="M 4488 3438 
L 3059 2003 
L 4488 575 
L 4116 197 
L 2681 1631 
L 1247 197 
L 878 575 
L 2303 2003 
L 878 3438 
L 1247 3816 
L 2681 2381 
L 4116 3816 
L 4488 3438 
z
" transform="scale(0.015625)"/>
      <path id="DejaVuSans-b3" d="M 1638 3500 
Q 1925 3444 2083 3273 
Q 2241 3103 2241 2847 
Q 2241 2459 1944 2250 
Q 1647 2041 1094 2041 
Q 916 2041 720 2073 
Q 525 2106 306 2169 
L 306 2547 
Q 469 2463 655 2422 
Q 841 2381 1050 2381 
Q 1391 2381 1578 2504 
Q 1766 2628 1766 2847 
Q 1766 3078 1592 3197 
Q 1419 3316 1081 3316 
L 813 3316 
L 813 3653 
L 1106 3653 
Q 1400 3653 1551 3751 
Q 1703 3850 1703 4038 
Q 1703 4219 1547 4314 
Q 1391 4409 1094 4409 
Q 969 4409 809 4381 
Q 650 4353 397 4281 
L 397 4641 
Q 625 4694 825 4722 
Q 1025 4750 1197 4750 
Q 1647 4750 1911 4565 
Q 2175 4381 2175 4072 
Q 2175 3856 2034 3706 
Q 1894 3556 1638 3500 
z
" transform="scale(0.015625)"/>
      <path id="DejaVuSans-Oblique-4d" d="M 1081 4666 
L 2028 4666 
L 2572 1522 
L 4378 4666 
L 5350 4666 
L 4441 0 
L 3828 0 
L 4622 4091 
L 2791 897 
L 2175 897 
L 1581 4103 
L 788 0 
L 172 0 
L 1081 4666 
z
" transform="scale(0.015625)"/>
      <path id="DejaVuSans-2212" d="M 678 2272 
L 4684 2272 
L 4684 1741 
L 678 1741 
L 678 2272 
z
" transform="scale(0.015625)"/>
     </defs>
     <use xlink:href="#DejaVuSans-Oblique-4b" transform="translate(0 0.684375)"/>
     <use xlink:href="#DejaVuSans-Oblique-47" transform="translate(65.576172 -15.721875) scale(0.7)"/>
     <use xlink:href="#DejaVuSans-3d" transform="translate(142.036133 0.684375)"/>
     <use xlink:href="#DejaVuSans-37" transform="translate(245.307617 0.684375)"/>
     <use xlink:href="#DejaVuSans-2e" transform="translate(308.930664 0.684375)"/>
     <use xlink:href="#DejaVuSans-31" transform="translate(340.717773 0.684375)"/>
     <use xlink:href="#DejaVuSans-33" transform="translate(404.34082 0.684375)"/>
     <use xlink:href="#DejaVuSans-d7" transform="translate(467.963867 0.684375)"/>
     <use xlink:href="#DejaVuSans-31" transform="translate(551.75293 0.684375)"/>
     <use xlink:href="#DejaVuSans-30" transform="translate(615.375977 0.684375)"/>
     <use xlink:href="#DejaVuSans-b3" transform="translate(678.999023 0.684375)"/>
     <use xlink:href="#DejaVuSans-Oblique-4d" transform="translate(719.086914 0.684375)"/>
     <use xlink:href="#DejaVuSans-2212" transform="translate(812.382982 38.965625) scale(0.7)"/>
     <use xlink:href="#DejaVuSans-31" transform="translate(871.035326 38.965625) scale(0.7)"/>
    </g>
   </g>
   <g id="text_16">
    <!-- IDA Titration of Alizarin:PBA complex &amp; Catechol in MeCN  -->
    <g transform="translate(62.158125 22.034625) scale(0.12 -0.12)">
     <defs>
      <path id="DejaVuSans-49" d="M 628 4666 
L 1259 4666 
L 1259 0 
L 628 0 
L 628 4666 
z
" transform="scale(0.015625)"/>
      <path id="DejaVuSans-44" d="M 1259 4147 
L 1259 519 
L 2022 519 
Q 2988 519 3436 956 
Q 3884 1394 3884 2338 
Q 3884 3275 3436 3711 
Q 2988 4147 2022 4147 
L 1259 4147 
z
M 628 4666 
L 1925 4666 
Q 3281 4666 3915 4102 
Q 4550 3538 4550 2338 
Q 4550 1131 3912 565 
Q 3275 0 1925 0 
L 628 0 
L 628 4666 
z
" transform="scale(0.015625)"/>
      <path id="DejaVuSans-54" d="M -19 4666 
L 3928 4666 
L 3928 4134 
L 2272 4134 
L 2272 0 
L 1638 0 
L 1638 4134 
L -19 4134 
L -19 4666 
z
" transform="scale(0.015625)"/>
      <path id="DejaVuSans-66" d="M 2375 4863 
L 2375 4384 
L 1825 4384 
Q 1516 4384 1395 4259 
Q 1275 4134 1275 3809 
L 1275 3500 
L 2222 3500 
L 2222 3053 
L 1275 3053 
L 1275 0 
L 697 0 
L 697 3053 
L 147 3053 
L 147 3500 
L 697 3500 
L 697 3744 
Q 697 4328 969 4595 
Q 1241 4863 1831 4863 
L 2375 4863 
z
" transform="scale(0.015625)"/>
      <path id="DejaVuSans-7a" d="M 353 3500 
L 3084 3500 
L 3084 2975 
L 922 459 
L 3084 459 
L 3084 0 
L 275 0 
L 275 525 
L 2438 3041 
L 353 3041 
L 353 3500 
z
" transform="scale(0.015625)"/>
      <path id="DejaVuSans-3a" d="M 750 794 
L 1409 794 
L 1409 0 
L 750 0 
L 750 794 
z
M 750 3309 
L 1409 3309 
L 1409 2516 
L 750 2516 
L 750 3309 
z
" transform="scale(0.015625)"/>
      <path id="DejaVuSans-50" d="M 1259 4147 
L 1259 2394 
L 2053 2394 
Q 2494 2394 2734 2622 
Q 2975 2850 2975 3272 
Q 2975 3691 2734 3919 
Q 2494 4147 2053 4147 
L 1259 4147 
z
M 628 4666 
L 2053 4666 
Q 2838 4666 3239 4311 
Q 3641 3956 3641 3272 
Q 3641 2581 3239 2228 
Q 2838 1875 2053 1875 
L 1259 1875 
L 1259 0 
L 628 0 
L 628 4666 
z
" transform="scale(0.015625)"/>
      <path id="DejaVuSans-42" d="M 1259 2228 
L 1259 519 
L 2272 519 
Q 2781 519 3026 730 
Q 3272 941 3272 1375 
Q 3272 1813 3026 2020 
Q 2781 2228 2272 2228 
L 1259 2228 
z
M 1259 4147 
L 1259 2741 
L 2194 2741 
Q 2656 2741 2882 2914 
Q 3109 3088 3109 3444 
Q 3109 3797 2882 3972 
Q 2656 4147 2194 4147 
L 1259 4147 
z
M 628 4666 
L 2241 4666 
Q 2963 4666 3353 4366 
Q 3744 4066 3744 3513 
Q 3744 3084 3544 2831 
Q 3344 2578 2956 2516 
Q 3422 2416 3680 2098 
Q 3938 1781 3938 1306 
Q 3938 681 3513 340 
Q 3088 0 2303 0 
L 628 0 
L 628 4666 
z
" transform="scale(0.015625)"/>
      <path id="DejaVuSans-6d" d="M 3328 2828 
Q 3544 3216 3844 3400 
Q 4144 3584 4550 3584 
Q 5097 3584 5394 3201 
Q 5691 2819 5691 2113 
L 5691 0 
L 5113 0 
L 5113 2094 
Q 5113 2597 4934 2840 
Q 4756 3084 4391 3084 
Q 3944 3084 3684 2787 
Q 3425 2491 3425 1978 
L 3425 0 
L 2847 0 
L 2847 2094 
Q 2847 2600 2669 2842 
Q 2491 3084 2119 3084 
Q 1678 3084 1418 2786 
Q 1159 2488 1159 1978 
L 1159 0 
L 581 0 
L 581 3500 
L 1159 3500 
L 1159 2956 
Q 1356 3278 1631 3431 
Q 1906 3584 2284 3584 
Q 2666 3584 2933 3390 
Q 3200 3197 3328 2828 
z
" transform="scale(0.015625)"/>
      <path id="DejaVuSans-70" d="M 1159 525 
L 1159 -1331 
L 581 -1331 
L 581 3500 
L 1159 3500 
L 1159 2969 
Q 1341 3281 1617 3432 
Q 1894 3584 2278 3584 
Q 2916 3584 3314 3078 
Q 3713 2572 3713 1747 
Q 3713 922 3314 415 
Q 2916 -91 2278 -91 
Q 1894 -91 1617 61 
Q 1341 213 1159 525 
z
M 3116 1747 
Q 3116 2381 2855 2742 
Q 2594 3103 2138 3103 
Q 1681 3103 1420 2742 
Q 1159 2381 1159 1747 
Q 1159 1113 1420 752 
Q 1681 391 2138 391 
Q 2594 391 2855 752 
Q 3116 1113 3116 1747 
z
" transform="scale(0.015625)"/>
      <path id="DejaVuSans-78" d="M 3513 3500 
L 2247 1797 
L 3578 0 
L 2900 0 
L 1881 1375 
L 863 0 
L 184 0 
L 1544 1831 
L 300 3500 
L 978 3500 
L 1906 2253 
L 2834 3500 
L 3513 3500 
z
" transform="scale(0.015625)"/>
      <path id="DejaVuSans-26" d="M 1556 2509 
Q 1272 2256 1139 2004 
Q 1006 1753 1006 1478 
Q 1006 1022 1337 719 
Q 1669 416 2169 416 
Q 2466 416 2725 514 
Q 2984 613 3213 813 
L 1556 2509 
z
M 1997 2859 
L 3584 1234 
Q 3769 1513 3872 1830 
Q 3975 2147 3994 2503 
L 4575 2503 
Q 4538 2091 4375 1687 
Q 4213 1284 3922 891 
L 4794 0 
L 4006 0 
L 3559 459 
Q 3234 181 2878 45 
Q 2522 -91 2113 -91 
Q 1359 -91 881 339 
Q 403 769 403 1441 
Q 403 1841 612 2192 
Q 822 2544 1241 2853 
Q 1091 3050 1012 3245 
Q 934 3441 934 3628 
Q 934 4134 1281 4442 
Q 1628 4750 2203 4750 
Q 2463 4750 2720 4694 
Q 2978 4638 3244 4525 
L 3244 3956 
Q 2972 4103 2725 4179 
Q 2478 4256 2266 4256 
Q 1938 4256 1733 4082 
Q 1528 3909 1528 3634 
Q 1528 3475 1620 3314 
Q 1713 3153 1997 2859 
z
" transform="scale(0.015625)"/>
      <path id="DejaVuSans-4e" d="M 628 4666 
L 1478 4666 
L 3547 763 
L 3547 4666 
L 4159 4666 
L 4159 0 
L 3309 0 
L 1241 3903 
L 1241 0 
L 628 0 
L 628 4666 
z
" transform="scale(0.015625)"/>
     </defs>
     <use xlink:href="#DejaVuSans-49"/>
     <use xlink:href="#DejaVuSans-44" x="29.492188"/>
     <use xlink:href="#DejaVuSans-41" x="104.744141"/>
     <use xlink:href="#DejaVuSans-20" x="173.152344"/>
     <use xlink:href="#DejaVuSans-54" x="204.939453"/>
     <use xlink:href="#DejaVuSans-69" x="262.898438"/>
     <use xlink:href="#DejaVuSans-74" x="290.681641"/>
     <use xlink:href="#DejaVuSans-72" x="329.890625"/>
     <use xlink:href="#DejaVuSans-61" x="371.003906"/>
     <use xlink:href="#DejaVuSans-74" x="432.283203"/>
     <use xlink:href="#DejaVuSans-69" x="471.492188"/>
     <use xlink:href="#DejaVuSans-6f" x="499.275391"/>
     <use xlink:href="#DejaVuSans-6e" x="560.457031"/>
     <use xlink:href="#DejaVuSans-20" x="623.835938"/>
     <use xlink:href="#DejaVuSans-6f" x="655.623047"/>
     <use xlink:href="#DejaVuSans-66" x="716.804688"/>
     <use xlink:href="#DejaVuSans-20" x="752.009766"/>
     <use xlink:href="#DejaVuSans-41" x="783.796875"/>
     <use xlink:href="#DejaVuSans-6c" x="852.205078"/>
     <use xlink:href="#DejaVuSans-69" x="879.988281"/>
     <use xlink:href="#DejaVuSans-7a" x="907.771484"/>
     <use xlink:href="#DejaVuSans-61" x="960.261719"/>
     <use xlink:href="#DejaVuSans-72" x="1021.541016"/>
     <use xlink:href="#DejaVuSans-69" x="1062.654297"/>
     <use xlink:href="#DejaVuSans-6e" x="1090.4375"/>
     <use xlink:href="#DejaVuSans-3a" x="1153.816406"/>
     <use xlink:href="#DejaVuSans-50" x="1187.507812"/>
     <use xlink:href="#DejaVuSans-42" x="1247.810547"/>
     <use xlink:href="#DejaVuSans-41" x="1316.414062"/>
     <use xlink:href="#DejaVuSans-20" x="1384.822266"/>
     <use xlink:href="#DejaVuSans-63" x="1416.609375"/>
     <use xlink:href="#DejaVuSans-6f" x="1471.589844"/>
     <use xlink:href="#DejaVuSans-6d" x="1532.771484"/>
     <use xlink:href="#DejaVuSans-70" x="1630.183594"/>
     <use xlink:href="#DejaVuSans-6c" x="1693.660156"/>
     <use xlink:href="#DejaVuSans-65" x="1721.443359"/>
     <use xlink:href="#DejaVuSans-78" x="1781.216797"/>
     <use xlink:href="#DejaVuSans-20" x="1840.396484"/>
     <use xlink:href="#DejaVuSans-26" x="1872.183594"/>
     <use xlink:href="#DejaVuSans-20" x="1950.162109"/>
     <use xlink:href="#DejaVuSans-43" x="1981.949219"/>
     <use xlink:href="#DejaVuSans-61" x="2051.773438"/>
     <use xlink:href="#DejaVuSans-74" x="2113.052734"/>
     <use xlink:href="#DejaVuSans-65" x="2152.261719"/>
     <use xlink:href="#DejaVuSans-63" x="2213.785156"/>
     <use xlink:href="#DejaVuSans-68" x="2268.765625"/>
     <use xlink:href="#DejaVuSans-6f" x="2332.144531"/>
     <use xlink:href="#DejaVuSans-6c" x="2393.326172"/>
     <use xlink:href="#DejaVuSans-20" x="2421.109375"/>
     <use xlink:href="#DejaVuSans-69" x="2452.896484"/>
     <use xlink:href="#DejaVuSans-6e" x="2480.679688"/>
     <use xlink:href="#DejaVuSans-20" x="2544.058594"/>
     <use xlink:href="#DejaVuSans-4d" x="2575.845703"/>
     <use xlink:href="#DejaVuSans-65" x="2662.125"/>
     <use xlink:href="#DejaVuSans-43" x="2723.648438"/>
     <use xlink:href="#DejaVuSans-4e" x="2793.472656"/>
     <use xlink:href="#DejaVuSans-20" x="2868.277344"/>
    </g>
    <!--  -->
    <g transform="translate(236.16 35.472) scale(0.12 -0.12)"/>
   </g>
   <g id="legend_1">
    <g id="patch_7">
     <path d="M 337.37625 78.82825 
L 407.72 78.82825 
Q 409.72 78.82825 409.72 76.82825 
L 409.72 48.472 
Q 409.72 46.472 407.72 46.472 
L 337.37625 46.472 
Q 335.37625 46.472 335.37625 48.472 
L 335.37625 76.82825 
Q 335.37625 78.82825 337.37625 78.82825 
z
" style="fill: #ffffff; opacity: 0.8; stroke: #cccccc; stroke-linejoin: miter"/>
    </g>
    <g id="line2d_17">
     <g>
      <use xlink:href="#me6d65ea890" x="349.37625" y="54.570437" style="stroke: #000000"/>
     </g>
    </g>
    <g id="text_17">
     <!-- 440 nm -->
     <g transform="translate(367.37625 58.070437) scale(0.1 -0.1)">
      <use xlink:href="#DejaVuSans-34"/>
      <use xlink:href="#DejaVuSans-34" x="63.623047"/>
      <use xlink:href="#DejaVuSans-30" x="127.246094"/>
      <use xlink:href="#DejaVuSans-20" x="190.869141"/>
      <use xlink:href="#DejaVuSans-6e" x="222.65625"/>
      <use xlink:href="#DejaVuSans-6d" x="286.035156"/>
     </g>
    </g>
    <g id="line2d_18">
     <g>
      <use xlink:href="#mbb6c438d98" x="349.37625" y="69.248562" style="fill: #ff0000; stroke: #ff0000"/>
     </g>
    </g>
    <g id="text_18">
     <!-- 570 nm -->
     <g transform="translate(367.37625 72.748562) scale(0.1 -0.1)">
      <use xlink:href="#DejaVuSans-35"/>
      <use xlink:href="#DejaVuSans-37" x="63.623047"/>
      <use xlink:href="#DejaVuSans-30" x="127.246094"/>
      <use xlink:href="#DejaVuSans-20" x="190.869141"/>
      <use xlink:href="#DejaVuSans-6e" x="222.65625"/>
      <use xlink:href="#DejaVuSans-6d" x="286.035156"/>
     </g>
    </g>
   </g>
  </g>
 </g>
 <defs>
  <clipPath id="p12e96bc0c8">
   <rect x="57.6" y="41.472" width="357.12" height="266.112"/>
  </clipPath>
 </defs>
</svg>
