<?xml version="1.0" encoding="utf-8" standalone="no"?>
<!DOCTYPE svg PUBLIC "-//W3C//DTD SVG 1.1//EN"
  "http://www.w3.org/Graphics/SVG/1.1/DTD/svg11.dtd">
<svg xmlns:xlink="http://www.w3.org/1999/xlink" width="460.8pt" height="345.6pt" viewBox="0 0 460.8 345.6" xmlns="http://www.w3.org/2000/svg" version="1.1">
 <metadata>
  <rdf:RDF xmlns:dc="http://purl.org/dc/elements/1.1/" xmlns:cc="http://creativecommons.org/ns#" xmlns:rdf="http://www.w3.org/1999/02/22-rdf-syntax-ns#">
   <cc:Work>
    <dc:type rdf:resource="http://purl.org/dc/dcmitype/StillImage"/>
    <dc:date>2024-11-03T21:06:54.962257</dc:date>
    <dc:format>image/svg+xml</dc:format>
    <dc:creator>
     <cc:Agent>
      <dc:title>Matplotlib v3.9.2, https://matplotlib.org/</dc:title>
     </cc:Agent>
    </dc:creator>
   </cc:Work>
  </rdf:RDF>
 </metadata>
 <defs>
  <style type="text/css">*{stroke-linejoin: round; stroke-linecap: butt}</style>
 </defs>
 <g id="figure_1">
  <g id="patch_1">
   <path d="M 0 345.6 
L 460.8 345.6 
L 460.8 0 
L 0 0 
z
" style="fill: #ffffff"/>
  </g>
  <g id="axes_1">
   <g id="patch_2">
    <path d="M 57.6 307.584 
L 414.72 307.584 
L 414.72 41.472 
L 57.6 41.472 
z
" style="fill: #ffffff"/>
   </g>
   <g id="matplotlib.axis_1">
    <g id="xtick_1">
     <g id="line2d_1">
      <defs>
       <path id="m678f30d073" d="M 0 0 
L 0 3.5 
" style="stroke: #000000; stroke-width: 0.8"/>
      </defs>
      <g>
       <use xlink:href="#m678f30d073" x="57.6" y="307.584" style="stroke: #000000; stroke-width: 0.8"/>
      </g>
     </g>
     <g id="text_1">
      <!-- 200 -->
      <g transform="translate(48.05625 322.182437) scale(0.1 -0.1)">
       <defs>
        <path id="DejaVuSans-32" d="M 1228 531 
L 3431 531 
L 3431 0 
L 469 0 
L 469 531 
Q 828 903 1448 1529 
Q 2069 2156 2228 2338 
Q 2531 2678 2651 2914 
Q 2772 3150 2772 3378 
Q 2772 3750 2511 3984 
Q 2250 4219 1831 4219 
Q 1534 4219 1204 4116 
Q 875 4013 500 3803 
L 500 4441 
Q 881 4594 1212 4672 
Q 1544 4750 1819 4750 
Q 2544 4750 2975 4387 
Q 3406 4025 3406 3419 
Q 3406 3131 3298 2873 
Q 3191 2616 2906 2266 
Q 2828 2175 2409 1742 
Q 1991 1309 1228 531 
z
" transform="scale(0.015625)"/>
        <path id="DejaVuSans-30" d="M 2034 4250 
Q 1547 4250 1301 3770 
Q 1056 3291 1056 2328 
Q 1056 1369 1301 889 
Q 1547 409 2034 409 
Q 2525 409 2770 889 
Q 3016 1369 3016 2328 
Q 3016 3291 2770 3770 
Q 2525 4250 2034 4250 
z
M 2034 4750 
Q 2819 4750 3233 4129 
Q 3647 3509 3647 2328 
Q 3647 1150 3233 529 
Q 2819 -91 2034 -91 
Q 1250 -91 836 529 
Q 422 1150 422 2328 
Q 422 3509 836 4129 
Q 1250 4750 2034 4750 
z
" transform="scale(0.015625)"/>
       </defs>
       <use xlink:href="#DejaVuSans-32"/>
       <use xlink:href="#DejaVuSans-30" x="63.623047"/>
       <use xlink:href="#DejaVuSans-30" x="127.246094"/>
      </g>
     </g>
    </g>
    <g id="xtick_2">
     <g id="line2d_2">
      <g>
       <use xlink:href="#m678f30d073" x="108.617143" y="307.584" style="stroke: #000000; stroke-width: 0.8"/>
      </g>
     </g>
     <g id="text_2">
      <!-- 300 -->
      <g transform="translate(99.073393 322.182437) scale(0.1 -0.1)">
       <defs>
        <path id="DejaVuSans-33" d="M 2597 2516 
Q 3050 2419 3304 2112 
Q 3559 1806 3559 1356 
Q 3559 666 3084 287 
Q 2609 -91 1734 -91 
Q 1441 -91 1130 -33 
Q 819 25 488 141 
L 488 750 
Q 750 597 1062 519 
Q 1375 441 1716 441 
Q 2309 441 2620 675 
Q 2931 909 2931 1356 
Q 2931 1769 2642 2001 
Q 2353 2234 1838 2234 
L 1294 2234 
L 1294 2753 
L 1863 2753 
Q 2328 2753 2575 2939 
Q 2822 3125 2822 3475 
Q 2822 3834 2567 4026 
Q 2313 4219 1838 4219 
Q 1578 4219 1281 4162 
Q 984 4106 628 3988 
L 628 4550 
Q 988 4650 1302 4700 
Q 1616 4750 1894 4750 
Q 2613 4750 3031 4423 
Q 3450 4097 3450 3541 
Q 3450 3153 3228 2886 
Q 3006 2619 2597 2516 
z
" transform="scale(0.015625)"/>
       </defs>
       <use xlink:href="#DejaVuSans-33"/>
       <use xlink:href="#DejaVuSans-30" x="63.623047"/>
       <use xlink:href="#DejaVuSans-30" x="127.246094"/>
      </g>
     </g>
    </g>
    <g id="xtick_3">
     <g id="line2d_3">
      <g>
       <use xlink:href="#m678f30d073" x="159.634286" y="307.584" style="stroke: #000000; stroke-width: 0.8"/>
      </g>
     </g>
     <g id="text_3">
      <!-- 400 -->
      <g transform="translate(150.090536 322.182437) scale(0.1 -0.1)">
       <defs>
        <path id="DejaVuSans-34" d="M 2419 4116 
L 825 1625 
L 2419 1625 
L 2419 4116 
z
M 2253 4666 
L 3047 4666 
L 3047 1625 
L 3713 1625 
L 3713 1100 
L 3047 1100 
L 3047 0 
L 2419 0 
L 2419 1100 
L 313 1100 
L 313 1709 
L 2253 4666 
z
" transform="scale(0.015625)"/>
       </defs>
       <use xlink:href="#DejaVuSans-34"/>
       <use xlink:href="#DejaVuSans-30" x="63.623047"/>
       <use xlink:href="#DejaVuSans-30" x="127.246094"/>
      </g>
     </g>
    </g>
    <g id="xtick_4">
     <g id="line2d_4">
      <g>
       <use xlink:href="#m678f30d073" x="210.651429" y="307.584" style="stroke: #000000; stroke-width: 0.8"/>
      </g>
     </g>
     <g id="text_4">
      <!-- 500 -->
      <g transform="translate(201.107679 322.182437) scale(0.1 -0.1)">
       <defs>
        <path id="DejaVuSans-35" d="M 691 4666 
L 3169 4666 
L 3169 4134 
L 1269 4134 
L 1269 2991 
Q 1406 3038 1543 3061 
Q 1681 3084 1819 3084 
Q 2600 3084 3056 2656 
Q 3513 2228 3513 1497 
Q 3513 744 3044 326 
Q 2575 -91 1722 -91 
Q 1428 -91 1123 -41 
Q 819 9 494 109 
L 494 744 
Q 775 591 1075 516 
Q 1375 441 1709 441 
Q 2250 441 2565 725 
Q 2881 1009 2881 1497 
Q 2881 1984 2565 2268 
Q 2250 2553 1709 2553 
Q 1456 2553 1204 2497 
Q 953 2441 691 2322 
L 691 4666 
z
" transform="scale(0.015625)"/>
       </defs>
       <use xlink:href="#DejaVuSans-35"/>
       <use xlink:href="#DejaVuSans-30" x="63.623047"/>
       <use xlink:href="#DejaVuSans-30" x="127.246094"/>
      </g>
     </g>
    </g>
    <g id="xtick_5">
     <g id="line2d_5">
      <g>
       <use xlink:href="#m678f30d073" x="261.668571" y="307.584" style="stroke: #000000; stroke-width: 0.8"/>
      </g>
     </g>
     <g id="text_5">
      <!-- 600 -->
      <g transform="translate(252.124821 322.182437) scale(0.1 -0.1)">
       <defs>
        <path id="DejaVuSans-36" d="M 2113 2584 
Q 1688 2584 1439 2293 
Q 1191 2003 1191 1497 
Q 1191 994 1439 701 
Q 1688 409 2113 409 
Q 2538 409 2786 701 
Q 3034 994 3034 1497 
Q 3034 2003 2786 2293 
Q 2538 2584 2113 2584 
z
M 3366 4563 
L 3366 3988 
Q 3128 4100 2886 4159 
Q 2644 4219 2406 4219 
Q 1781 4219 1451 3797 
Q 1122 3375 1075 2522 
Q 1259 2794 1537 2939 
Q 1816 3084 2150 3084 
Q 2853 3084 3261 2657 
Q 3669 2231 3669 1497 
Q 3669 778 3244 343 
Q 2819 -91 2113 -91 
Q 1303 -91 875 529 
Q 447 1150 447 2328 
Q 447 3434 972 4092 
Q 1497 4750 2381 4750 
Q 2619 4750 2861 4703 
Q 3103 4656 3366 4563 
z
" transform="scale(0.015625)"/>
       </defs>
       <use xlink:href="#DejaVuSans-36"/>
       <use xlink:href="#DejaVuSans-30" x="63.623047"/>
       <use xlink:href="#DejaVuSans-30" x="127.246094"/>
      </g>
     </g>
    </g>
    <g id="xtick_6">
     <g id="line2d_6">
      <g>
       <use xlink:href="#m678f30d073" x="312.685714" y="307.584" style="stroke: #000000; stroke-width: 0.8"/>
      </g>
     </g>
     <g id="text_6">
      <!-- 700 -->
      <g transform="translate(303.141964 322.182437) scale(0.1 -0.1)">
       <defs>
        <path id="DejaVuSans-37" d="M 525 4666 
L 3525 4666 
L 3525 4397 
L 1831 0 
L 1172 0 
L 2766 4134 
L 525 4134 
L 525 4666 
z
" transform="scale(0.015625)"/>
       </defs>
       <use xlink:href="#DejaVuSans-37"/>
       <use xlink:href="#DejaVuSans-30" x="63.623047"/>
       <use xlink:href="#DejaVuSans-30" x="127.246094"/>
      </g>
     </g>
    </g>
    <g id="xtick_7">
     <g id="line2d_7">
      <g>
       <use xlink:href="#m678f30d073" x="363.702857" y="307.584" style="stroke: #000000; stroke-width: 0.8"/>
      </g>
     </g>
     <g id="text_7">
      <!-- 800 -->
      <g transform="translate(354.159107 322.182437) scale(0.1 -0.1)">
       <defs>
        <path id="DejaVuSans-38" d="M 2034 2216 
Q 1584 2216 1326 1975 
Q 1069 1734 1069 1313 
Q 1069 891 1326 650 
Q 1584 409 2034 409 
Q 2484 409 2743 651 
Q 3003 894 3003 1313 
Q 3003 1734 2745 1975 
Q 2488 2216 2034 2216 
z
M 1403 2484 
Q 997 2584 770 2862 
Q 544 3141 544 3541 
Q 544 4100 942 4425 
Q 1341 4750 2034 4750 
Q 2731 4750 3128 4425 
Q 3525 4100 3525 3541 
Q 3525 3141 3298 2862 
Q 3072 2584 2669 2484 
Q 3125 2378 3379 2068 
Q 3634 1759 3634 1313 
Q 3634 634 3220 271 
Q 2806 -91 2034 -91 
Q 1263 -91 848 271 
Q 434 634 434 1313 
Q 434 1759 690 2068 
Q 947 2378 1403 2484 
z
M 1172 3481 
Q 1172 3119 1398 2916 
Q 1625 2713 2034 2713 
Q 2441 2713 2670 2916 
Q 2900 3119 2900 3481 
Q 2900 3844 2670 4047 
Q 2441 4250 2034 4250 
Q 1625 4250 1398 4047 
Q 1172 3844 1172 3481 
z
" transform="scale(0.015625)"/>
       </defs>
       <use xlink:href="#DejaVuSans-38"/>
       <use xlink:href="#DejaVuSans-30" x="63.623047"/>
       <use xlink:href="#DejaVuSans-30" x="127.246094"/>
      </g>
     </g>
    </g>
    <g id="xtick_8">
     <g id="line2d_8">
      <g>
       <use xlink:href="#m678f30d073" x="414.72" y="307.584" style="stroke: #000000; stroke-width: 0.8"/>
      </g>
     </g>
     <g id="text_8">
      <!-- 900 -->
      <g transform="translate(405.17625 322.182437) scale(0.1 -0.1)">
       <defs>
        <path id="DejaVuSans-39" d="M 703 97 
L 703 672 
Q 941 559 1184 500 
Q 1428 441 1663 441 
Q 2288 441 2617 861 
Q 2947 1281 2994 2138 
Q 2813 1869 2534 1725 
Q 2256 1581 1919 1581 
Q 1219 1581 811 2004 
Q 403 2428 403 3163 
Q 403 3881 828 4315 
Q 1253 4750 1959 4750 
Q 2769 4750 3195 4129 
Q 3622 3509 3622 2328 
Q 3622 1225 3098 567 
Q 2575 -91 1691 -91 
Q 1453 -91 1209 -44 
Q 966 3 703 97 
z
M 1959 2075 
Q 2384 2075 2632 2365 
Q 2881 2656 2881 3163 
Q 2881 3666 2632 3958 
Q 2384 4250 1959 4250 
Q 1534 4250 1286 3958 
Q 1038 3666 1038 3163 
Q 1038 2656 1286 2365 
Q 1534 2075 1959 2075 
z
" transform="scale(0.015625)"/>
       </defs>
       <use xlink:href="#DejaVuSans-39"/>
       <use xlink:href="#DejaVuSans-30" x="63.623047"/>
       <use xlink:href="#DejaVuSans-30" x="127.246094"/>
      </g>
     </g>
    </g>
    <g id="text_9">
     <!-- Wavelength (nm) -->
     <g transform="translate(192.967812 335.860562) scale(0.1 -0.1)">
      <defs>
       <path id="DejaVuSans-57" d="M 213 4666 
L 850 4666 
L 1831 722 
L 2809 4666 
L 3519 4666 
L 4500 722 
L 5478 4666 
L 6119 4666 
L 4947 0 
L 4153 0 
L 3169 4050 
L 2175 0 
L 1381 0 
L 213 4666 
z
" transform="scale(0.015625)"/>
       <path id="DejaVuSans-61" d="M 2194 1759 
Q 1497 1759 1228 1600 
Q 959 1441 959 1056 
Q 959 750 1161 570 
Q 1363 391 1709 391 
Q 2188 391 2477 730 
Q 2766 1069 2766 1631 
L 2766 1759 
L 2194 1759 
z
M 3341 1997 
L 3341 0 
L 2766 0 
L 2766 531 
Q 2569 213 2275 61 
Q 1981 -91 1556 -91 
Q 1019 -91 701 211 
Q 384 513 384 1019 
Q 384 1609 779 1909 
Q 1175 2209 1959 2209 
L 2766 2209 
L 2766 2266 
Q 2766 2663 2505 2880 
Q 2244 3097 1772 3097 
Q 1472 3097 1187 3025 
Q 903 2953 641 2809 
L 641 3341 
Q 956 3463 1253 3523 
Q 1550 3584 1831 3584 
Q 2591 3584 2966 3190 
Q 3341 2797 3341 1997 
z
" transform="scale(0.015625)"/>
       <path id="DejaVuSans-76" d="M 191 3500 
L 800 3500 
L 1894 563 
L 2988 3500 
L 3597 3500 
L 2284 0 
L 1503 0 
L 191 3500 
z
" transform="scale(0.015625)"/>
       <path id="DejaVuSans-65" d="M 3597 1894 
L 3597 1613 
L 953 1613 
Q 991 1019 1311 708 
Q 1631 397 2203 397 
Q 2534 397 2845 478 
Q 3156 559 3463 722 
L 3463 178 
Q 3153 47 2828 -22 
Q 2503 -91 2169 -91 
Q 1331 -91 842 396 
Q 353 884 353 1716 
Q 353 2575 817 3079 
Q 1281 3584 2069 3584 
Q 2775 3584 3186 3129 
Q 3597 2675 3597 1894 
z
M 3022 2063 
Q 3016 2534 2758 2815 
Q 2500 3097 2075 3097 
Q 1594 3097 1305 2825 
Q 1016 2553 972 2059 
L 3022 2063 
z
" transform="scale(0.015625)"/>
       <path id="DejaVuSans-6c" d="M 603 4863 
L 1178 4863 
L 1178 0 
L 603 0 
L 603 4863 
z
" transform="scale(0.015625)"/>
       <path id="DejaVuSans-6e" d="M 3513 2113 
L 3513 0 
L 2938 0 
L 2938 2094 
Q 2938 2591 2744 2837 
Q 2550 3084 2163 3084 
Q 1697 3084 1428 2787 
Q 1159 2491 1159 1978 
L 1159 0 
L 581 0 
L 581 3500 
L 1159 3500 
L 1159 2956 
Q 1366 3272 1645 3428 
Q 1925 3584 2291 3584 
Q 2894 3584 3203 3211 
Q 3513 2838 3513 2113 
z
" transform="scale(0.015625)"/>
       <path id="DejaVuSans-67" d="M 2906 1791 
Q 2906 2416 2648 2759 
Q 2391 3103 1925 3103 
Q 1463 3103 1205 2759 
Q 947 2416 947 1791 
Q 947 1169 1205 825 
Q 1463 481 1925 481 
Q 2391 481 2648 825 
Q 2906 1169 2906 1791 
z
M 3481 434 
Q 3481 -459 3084 -895 
Q 2688 -1331 1869 -1331 
Q 1566 -1331 1297 -1286 
Q 1028 -1241 775 -1147 
L 775 -588 
Q 1028 -725 1275 -790 
Q 1522 -856 1778 -856 
Q 2344 -856 2625 -561 
Q 2906 -266 2906 331 
L 2906 616 
Q 2728 306 2450 153 
Q 2172 0 1784 0 
Q 1141 0 747 490 
Q 353 981 353 1791 
Q 353 2603 747 3093 
Q 1141 3584 1784 3584 
Q 2172 3584 2450 3431 
Q 2728 3278 2906 2969 
L 2906 3500 
L 3481 3500 
L 3481 434 
z
" transform="scale(0.015625)"/>
       <path id="DejaVuSans-74" d="M 1172 4494 
L 1172 3500 
L 2356 3500 
L 2356 3053 
L 1172 3053 
L 1172 1153 
Q 1172 725 1289 603 
Q 1406 481 1766 481 
L 2356 481 
L 2356 0 
L 1766 0 
Q 1100 0 847 248 
Q 594 497 594 1153 
L 594 3053 
L 172 3053 
L 172 3500 
L 594 3500 
L 594 4494 
L 1172 4494 
z
" transform="scale(0.015625)"/>
       <path id="DejaVuSans-68" d="M 3513 2113 
L 3513 0 
L 2938 0 
L 2938 2094 
Q 2938 2591 2744 2837 
Q 2550 3084 2163 3084 
Q 1697 3084 1428 2787 
Q 1159 2491 1159 1978 
L 1159 0 
L 581 0 
L 581 4863 
L 1159 4863 
L 1159 2956 
Q 1366 3272 1645 3428 
Q 1925 3584 2291 3584 
Q 2894 3584 3203 3211 
Q 3513 2838 3513 2113 
z
" transform="scale(0.015625)"/>
       <path id="DejaVuSans-20" transform="scale(0.015625)"/>
       <path id="DejaVuSans-28" d="M 1984 4856 
Q 1566 4138 1362 3434 
Q 1159 2731 1159 2009 
Q 1159 1288 1364 580 
Q 1569 -128 1984 -844 
L 1484 -844 
Q 1016 -109 783 600 
Q 550 1309 550 2009 
Q 550 2706 781 3412 
Q 1013 4119 1484 4856 
L 1984 4856 
z
" transform="scale(0.015625)"/>
       <path id="DejaVuSans-6d" d="M 3328 2828 
Q 3544 3216 3844 3400 
Q 4144 3584 4550 3584 
Q 5097 3584 5394 3201 
Q 5691 2819 5691 2113 
L 5691 0 
L 5113 0 
L 5113 2094 
Q 5113 2597 4934 2840 
Q 4756 3084 4391 3084 
Q 3944 3084 3684 2787 
Q 3425 2491 3425 1978 
L 3425 0 
L 2847 0 
L 2847 2094 
Q 2847 2600 2669 2842 
Q 2491 3084 2119 3084 
Q 1678 3084 1418 2786 
Q 1159 2488 1159 1978 
L 1159 0 
L 581 0 
L 581 3500 
L 1159 3500 
L 1159 2956 
Q 1356 3278 1631 3431 
Q 1906 3584 2284 3584 
Q 2666 3584 2933 3390 
Q 3200 3197 3328 2828 
z
" transform="scale(0.015625)"/>
       <path id="DejaVuSans-29" d="M 513 4856 
L 1013 4856 
Q 1481 4119 1714 3412 
Q 1947 2706 1947 2009 
Q 1947 1309 1714 600 
Q 1481 -109 1013 -844 
L 513 -844 
Q 928 -128 1133 580 
Q 1338 1288 1338 2009 
Q 1338 2731 1133 3434 
Q 928 4138 513 4856 
z
" transform="scale(0.015625)"/>
      </defs>
      <use xlink:href="#DejaVuSans-57"/>
      <use xlink:href="#DejaVuSans-61" x="92.501953"/>
      <use xlink:href="#DejaVuSans-76" x="153.78125"/>
      <use xlink:href="#DejaVuSans-65" x="212.960938"/>
      <use xlink:href="#DejaVuSans-6c" x="274.484375"/>
      <use xlink:href="#DejaVuSans-65" x="302.267578"/>
      <use xlink:href="#DejaVuSans-6e" x="363.791016"/>
      <use xlink:href="#DejaVuSans-67" x="427.169922"/>
      <use xlink:href="#DejaVuSans-74" x="490.646484"/>
      <use xlink:href="#DejaVuSans-68" x="529.855469"/>
      <use xlink:href="#DejaVuSans-20" x="593.234375"/>
      <use xlink:href="#DejaVuSans-28" x="625.021484"/>
      <use xlink:href="#DejaVuSans-6e" x="664.035156"/>
      <use xlink:href="#DejaVuSans-6d" x="727.414062"/>
      <use xlink:href="#DejaVuSans-29" x="824.826172"/>
     </g>
    </g>
   </g>
   <g id="matplotlib.axis_2">
    <g id="ytick_1">
     <g id="line2d_9">
      <defs>
       <path id="mbb1ae05046" d="M 0 0 
L -3.5 0 
" style="stroke: #000000; stroke-width: 0.8"/>
      </defs>
      <g>
       <use xlink:href="#mbb1ae05046" x="57.6" y="307.584" style="stroke: #000000; stroke-width: 0.8"/>
      </g>
     </g>
     <g id="text_10">
      <!-- 0.0 -->
      <g transform="translate(34.696875 311.383219) scale(0.1 -0.1)">
       <defs>
        <path id="DejaVuSans-2e" d="M 684 794 
L 1344 794 
L 1344 0 
L 684 0 
L 684 794 
z
" transform="scale(0.015625)"/>
       </defs>
       <use xlink:href="#DejaVuSans-30"/>
       <use xlink:href="#DejaVuSans-2e" x="63.623047"/>
       <use xlink:href="#DejaVuSans-30" x="95.410156"/>
      </g>
     </g>
    </g>
    <g id="ytick_2">
     <g id="line2d_10">
      <g>
       <use xlink:href="#mbb1ae05046" x="57.6" y="263.232" style="stroke: #000000; stroke-width: 0.8"/>
      </g>
     </g>
     <g id="text_11">
      <!-- 0.2 -->
      <g transform="translate(34.696875 267.031219) scale(0.1 -0.1)">
       <use xlink:href="#DejaVuSans-30"/>
       <use xlink:href="#DejaVuSans-2e" x="63.623047"/>
       <use xlink:href="#DejaVuSans-32" x="95.410156"/>
      </g>
     </g>
    </g>
    <g id="ytick_3">
     <g id="line2d_11">
      <g>
       <use xlink:href="#mbb1ae05046" x="57.6" y="218.88" style="stroke: #000000; stroke-width: 0.8"/>
      </g>
     </g>
     <g id="text_12">
      <!-- 0.4 -->
      <g transform="translate(34.696875 222.679219) scale(0.1 -0.1)">
       <use xlink:href="#DejaVuSans-30"/>
       <use xlink:href="#DejaVuSans-2e" x="63.623047"/>
       <use xlink:href="#DejaVuSans-34" x="95.410156"/>
      </g>
     </g>
    </g>
    <g id="ytick_4">
     <g id="line2d_12">
      <g>
       <use xlink:href="#mbb1ae05046" x="57.6" y="174.528" style="stroke: #000000; stroke-width: 0.8"/>
      </g>
     </g>
     <g id="text_13">
      <!-- 0.6 -->
      <g transform="translate(34.696875 178.327219) scale(0.1 -0.1)">
       <use xlink:href="#DejaVuSans-30"/>
       <use xlink:href="#DejaVuSans-2e" x="63.623047"/>
       <use xlink:href="#DejaVuSans-36" x="95.410156"/>
      </g>
     </g>
    </g>
    <g id="ytick_5">
     <g id="line2d_13">
      <g>
       <use xlink:href="#mbb1ae05046" x="57.6" y="130.176" style="stroke: #000000; stroke-width: 0.8"/>
      </g>
     </g>
     <g id="text_14">
      <!-- 0.8 -->
      <g transform="translate(34.696875 133.975219) scale(0.1 -0.1)">
       <use xlink:href="#DejaVuSans-30"/>
       <use xlink:href="#DejaVuSans-2e" x="63.623047"/>
       <use xlink:href="#DejaVuSans-38" x="95.410156"/>
      </g>
     </g>
    </g>
    <g id="ytick_6">
     <g id="line2d_14">
      <g>
       <use xlink:href="#mbb1ae05046" x="57.6" y="85.824" style="stroke: #000000; stroke-width: 0.8"/>
      </g>
     </g>
     <g id="text_15">
      <!-- 1.0 -->
      <g transform="translate(34.696875 89.623219) scale(0.1 -0.1)">
       <defs>
        <path id="DejaVuSans-31" d="M 794 531 
L 1825 531 
L 1825 4091 
L 703 3866 
L 703 4441 
L 1819 4666 
L 2450 4666 
L 2450 531 
L 3481 531 
L 3481 0 
L 794 0 
L 794 531 
z
" transform="scale(0.015625)"/>
       </defs>
       <use xlink:href="#DejaVuSans-31"/>
       <use xlink:href="#DejaVuSans-2e" x="63.623047"/>
       <use xlink:href="#DejaVuSans-30" x="95.410156"/>
      </g>
     </g>
    </g>
    <g id="ytick_7">
     <g id="line2d_15">
      <g>
       <use xlink:href="#mbb1ae05046" x="57.6" y="41.472" style="stroke: #000000; stroke-width: 0.8"/>
      </g>
     </g>
     <g id="text_16">
      <!-- 1.2 -->
      <g transform="translate(34.696875 45.271219) scale(0.1 -0.1)">
       <use xlink:href="#DejaVuSans-31"/>
       <use xlink:href="#DejaVuSans-2e" x="63.623047"/>
       <use xlink:href="#DejaVuSans-32" x="95.410156"/>
      </g>
     </g>
    </g>
    <g id="text_17">
     <!-- Absorbance -->
     <g transform="translate(28.617187 204.074875) rotate(-90) scale(0.1 -0.1)">
      <defs>
       <path id="DejaVuSans-41" d="M 2188 4044 
L 1331 1722 
L 3047 1722 
L 2188 4044 
z
M 1831 4666 
L 2547 4666 
L 4325 0 
L 3669 0 
L 3244 1197 
L 1141 1197 
L 716 0 
L 50 0 
L 1831 4666 
z
" transform="scale(0.015625)"/>
       <path id="DejaVuSans-62" d="M 3116 1747 
Q 3116 2381 2855 2742 
Q 2594 3103 2138 3103 
Q 1681 3103 1420 2742 
Q 1159 2381 1159 1747 
Q 1159 1113 1420 752 
Q 1681 391 2138 391 
Q 2594 391 2855 752 
Q 3116 1113 3116 1747 
z
M 1159 2969 
Q 1341 3281 1617 3432 
Q 1894 3584 2278 3584 
Q 2916 3584 3314 3078 
Q 3713 2572 3713 1747 
Q 3713 922 3314 415 
Q 2916 -91 2278 -91 
Q 1894 -91 1617 61 
Q 1341 213 1159 525 
L 1159 0 
L 581 0 
L 581 4863 
L 1159 4863 
L 1159 2969 
z
" transform="scale(0.015625)"/>
       <path id="DejaVuSans-73" d="M 2834 3397 
L 2834 2853 
Q 2591 2978 2328 3040 
Q 2066 3103 1784 3103 
Q 1356 3103 1142 2972 
Q 928 2841 928 2578 
Q 928 2378 1081 2264 
Q 1234 2150 1697 2047 
L 1894 2003 
Q 2506 1872 2764 1633 
Q 3022 1394 3022 966 
Q 3022 478 2636 193 
Q 2250 -91 1575 -91 
Q 1294 -91 989 -36 
Q 684 19 347 128 
L 347 722 
Q 666 556 975 473 
Q 1284 391 1588 391 
Q 1994 391 2212 530 
Q 2431 669 2431 922 
Q 2431 1156 2273 1281 
Q 2116 1406 1581 1522 
L 1381 1569 
Q 847 1681 609 1914 
Q 372 2147 372 2553 
Q 372 3047 722 3315 
Q 1072 3584 1716 3584 
Q 2034 3584 2315 3537 
Q 2597 3491 2834 3397 
z
" transform="scale(0.015625)"/>
       <path id="DejaVuSans-6f" d="M 1959 3097 
Q 1497 3097 1228 2736 
Q 959 2375 959 1747 
Q 959 1119 1226 758 
Q 1494 397 1959 397 
Q 2419 397 2687 759 
Q 2956 1122 2956 1747 
Q 2956 2369 2687 2733 
Q 2419 3097 1959 3097 
z
M 1959 3584 
Q 2709 3584 3137 3096 
Q 3566 2609 3566 1747 
Q 3566 888 3137 398 
Q 2709 -91 1959 -91 
Q 1206 -91 779 398 
Q 353 888 353 1747 
Q 353 2609 779 3096 
Q 1206 3584 1959 3584 
z
" transform="scale(0.015625)"/>
       <path id="DejaVuSans-72" d="M 2631 2963 
Q 2534 3019 2420 3045 
Q 2306 3072 2169 3072 
Q 1681 3072 1420 2755 
Q 1159 2438 1159 1844 
L 1159 0 
L 581 0 
L 581 3500 
L 1159 3500 
L 1159 2956 
Q 1341 3275 1631 3429 
Q 1922 3584 2338 3584 
Q 2397 3584 2469 3576 
Q 2541 3569 2628 3553 
L 2631 2963 
z
" transform="scale(0.015625)"/>
       <path id="DejaVuSans-63" d="M 3122 3366 
L 3122 2828 
Q 2878 2963 2633 3030 
Q 2388 3097 2138 3097 
Q 1578 3097 1268 2742 
Q 959 2388 959 1747 
Q 959 1106 1268 751 
Q 1578 397 2138 397 
Q 2388 397 2633 464 
Q 2878 531 3122 666 
L 3122 134 
Q 2881 22 2623 -34 
Q 2366 -91 2075 -91 
Q 1284 -91 818 406 
Q 353 903 353 1747 
Q 353 2603 823 3093 
Q 1294 3584 2113 3584 
Q 2378 3584 2631 3529 
Q 2884 3475 3122 3366 
z
" transform="scale(0.015625)"/>
      </defs>
      <use xlink:href="#DejaVuSans-41"/>
      <use xlink:href="#DejaVuSans-62" x="68.408203"/>
      <use xlink:href="#DejaVuSans-73" x="131.884766"/>
      <use xlink:href="#DejaVuSans-6f" x="183.984375"/>
      <use xlink:href="#DejaVuSans-72" x="245.166016"/>
      <use xlink:href="#DejaVuSans-62" x="286.279297"/>
      <use xlink:href="#DejaVuSans-61" x="349.755859"/>
      <use xlink:href="#DejaVuSans-6e" x="411.035156"/>
      <use xlink:href="#DejaVuSans-63" x="474.414062"/>
      <use xlink:href="#DejaVuSans-65" x="529.394531"/>
     </g>
    </g>
   </g>
   <g id="line2d_16">
    <path d="M 363.702857 308.284389 
L 363.192686 308.115815 
L 362.172343 308.09933 
L 360.641829 308.114012 
L 341.765486 307.856366 
L 338.194286 307.584 
L 332.5824 306.963738 
L 331.051886 306.9434 
L 329.0112 306.801224 
L 327.480686 306.686423 
L 325.950171 306.740646 
L 324.929829 306.778824 
L 321.8688 307.069937 
L 321.358629 306.912907 
L 315.236571 306.766545 
L 308.094171 305.750464 
L 303.502629 304.425742 
L 299.931429 302.902919 
L 297.890743 301.754781 
L 293.809371 298.522481 
L 291.768686 296.587627 
L 289.217829 293.747503 
L 287.177143 291.186775 
L 284.626286 287.589666 
L 282.075429 283.79801 
L 279.0144 278.75365 
L 274.933029 271.950436 
L 271.361829 265.979549 
L 266.260114 257.79747 
L 259.117714 246.833601 
L 255.036343 241.043515 
L 252.485486 237.780101 
L 247.893943 233.047198 
L 245.853257 231.489532 
L 244.322743 230.407975 
L 242.792229 229.691709 
L 241.261714 229.103485 
L 239.7312 228.737771 
L 237.180343 228.543104 
L 235.649829 228.68102 
L 233.609143 229.02117 
L 231.568457 229.696381 
L 229.527771 230.564429 
L 226.976914 231.969019 
L 224.936229 233.295477 
L 223.405714 234.427923 
L 220.854857 236.318767 
L 219.324343 237.516655 
L 216.773486 239.334867 
L 214.222629 240.770908 
L 212.181943 241.410847 
L 211.1616 241.412116 
L 210.141257 241.338268 
L 209.120914 241.036542 
L 208.100571 240.504732 
L 206.570057 239.400388 
L 205.039543 237.905738 
L 203.509029 236.045473 
L 201.978514 233.881163 
L 199.427657 229.577843 
L 197.386971 225.44849 
L 195.346286 220.483064 
L 193.815771 216.141696 
L 192.285257 211.38769 
L 187.693714 196.593956 
L 185.653029 191.105992 
L 183.612343 186.706233 
L 181.061486 182.119494 
L 179.0208 178.850344 
L 178.000457 177.311711 
L 176.980114 176.090441 
L 175.959771 174.988661 
L 174.939429 174.313384 
L 173.919086 174.039812 
L 172.898743 174.142806 
L 171.8784 174.549191 
L 170.347886 175.693256 
L 167.797029 178.066482 
L 162.185143 183.171866 
L 160.654629 185.120466 
L 155.552914 192.775218 
L 152.491886 195.990703 
L 150.961371 197.148368 
L 150.4512 197.470807 
L 149.941029 197.543664 
L 149.430857 197.908148 
L 148.410514 197.971978 
L 147.390171 197.649011 
L 146.369829 196.508938 
L 145.859657 195.74444 
L 145.349486 194.75254 
L 144.839314 193.501463 
L 143.818971 190.305276 
L 143.3088 186.550315 
L 142.798629 185.903932 
L 141.268114 177.869574 
L 139.7376 168.07936 
L 135.656229 140.49261 
L 134.635886 135.053936 
L 134.125714 133.565716 
L 133.615543 132.704317 
L 133.105371 117.829035 
L 132.5952 115.686238 
L 130.044343 101.045904 
L 129.534171 97.709686 
L 128.513829 89.011498 
L 127.493486 76.67226 
L 126.473143 58.83525 
L 125.962971 46.917704 
L 124.942629 13.876458 
L 124.606095 -1 
L 124.606095 -1 
" clip-path="url(#p3549fc2d42)" style="fill: none; stroke: #e01f1f; stroke-width: 0.5; stroke-linecap: square"/>
   </g>
   <g id="line2d_17">
    <path d="M 363.702857 308.252407 
L 363.192686 308.068045 
L 359.621486 308.120302 
L 357.070629 308.127213 
L 351.968914 308.100134 
L 349.928229 308.029926 
L 347.377371 308.001236 
L 342.275657 307.870628 
L 336.1536 307.313285 
L 333.602743 307.060857 
L 325.44 306.803119 
L 320.338286 307.035983 
L 315.746743 306.904246 
L 312.685714 306.669775 
L 311.1552 306.424573 
L 308.094171 305.976762 
L 306.053486 305.526917 
L 303.502629 304.755508 
L 300.951771 303.795029 
L 297.380571 301.847097 
L 295.850057 300.762379 
L 294.829714 300.045268 
L 291.768686 297.491353 
L 288.197486 293.699221 
L 285.136457 289.80211 
L 281.565257 284.774715 
L 277.994057 279.289872 
L 269.831314 266.522602 
L 266.770286 262.020008 
L 261.668571 254.573659 
L 257.077029 248.122343 
L 251.975314 241.882114 
L 248.914286 238.811649 
L 247.893943 237.927925 
L 244.832914 235.636941 
L 243.3024 234.805283 
L 241.771886 234.219239 
L 239.221029 233.549626 
L 236.670171 233.2838 
L 234.629486 233.320269 
L 232.078629 233.60454 
L 226.976914 234.865689 
L 218.304 237.868649 
L 214.222629 238.487731 
L 212.692114 238.336472 
L 211.671771 238.04271 
L 210.651429 237.643694 
L 209.631086 237.037969 
L 208.100571 235.754416 
L 206.059886 233.441907 
L 204.529371 231.320053 
L 202.488686 228.00577 
L 199.427657 222.173532 
L 196.8768 216.437712 
L 195.346286 212.542356 
L 194.325943 209.673749 
L 192.285257 203.465633 
L 188.203886 190.637028 
L 186.1632 185.210871 
L 184.632686 181.998584 
L 183.102171 179.252164 
L 180.551314 175.507406 
L 178.510629 172.923077 
L 177.490286 171.866859 
L 175.959771 170.736581 
L 174.939429 170.469658 
L 174.429257 170.422338 
L 173.408914 170.696901 
L 172.388571 171.335472 
L 171.8784 171.720127 
L 169.837714 173.985917 
L 167.286857 177.199063 
L 163.715657 181.574619 
L 161.1648 185.101823 
L 155.552914 195.008156 
L 153.512229 197.768072 
L 151.471543 199.961263 
L 149.941029 201.179262 
L 148.920686 201.589738 
L 148.410514 201.704873 
L 147.390171 201.514403 
L 146.369829 200.567781 
L 145.859657 199.939725 
L 144.839314 197.920554 
L 143.818971 195.046515 
L 143.3088 191.457821 
L 142.798629 190.910982 
L 141.778286 185.900318 
L 140.757943 180.632869 
L 137.186743 157.87965 
L 136.676571 154.066899 
L 134.635886 142.971111 
L 134.125714 141.409202 
L 133.615543 140.218359 
L 133.105371 126.308673 
L 132.5952 124.055704 
L 130.044343 109.674402 
L 129.024 102.108646 
L 128.003657 91.578863 
L 126.983314 76.401168 
L 125.962971 54.062318 
L 125.4528 39.233523 
L 124.472564 -1 
L 124.472564 -1 
" clip-path="url(#p3549fc2d42)" style="fill: none; stroke: #d81f27; stroke-width: 0.5; stroke-linecap: square"/>
   </g>
   <g id="line2d_18">
    <path d="M 363.702857 308.158234 
L 363.192686 307.99431 
L 360.131657 307.99902 
L 350.948571 308.020525 
L 339.214629 307.722763 
L 334.623086 307.119038 
L 330.541714 306.947872 
L 330.031543 306.982147 
L 328.501029 306.805513 
L 326.970514 306.759626 
L 324.929829 306.87493 
L 322.889143 307.023112 
L 321.358629 307.063697 
L 319.317943 307.055271 
L 318.2976 307.087099 
L 316.256914 307.028039 
L 308.604343 306.156471 
L 305.543314 305.592782 
L 303.502629 304.995946 
L 301.461943 304.267448 
L 298.911086 303.169895 
L 297.380571 302.335715 
L 296.360229 301.606954 
L 294.319543 300.323817 
L 291.258514 297.836562 
L 288.707657 295.335517 
L 287.687314 294.221748 
L 283.605943 289.324339 
L 281.565257 286.572237 
L 276.973714 280.056564 
L 275.4432 277.795621 
L 269.831314 269.724766 
L 258.097371 254.009696 
L 254.016 249.109355 
L 250.954971 245.943463 
L 247.383771 242.923663 
L 244.322743 240.850867 
L 242.282057 239.895145 
L 240.751543 239.346495 
L 238.710857 238.797013 
L 234.119314 238.100501 
L 231.058286 237.87152 
L 227.487086 237.501927 
L 225.4464 237.200433 
L 223.915886 236.95879 
L 218.304 235.448033 
L 215.242971 234.057408 
L 213.202286 232.820871 
L 211.1616 231.019546 
L 209.631086 229.377859 
L 208.100571 227.303478 
L 206.059886 223.940718 
L 204.0192 220.129805 
L 201.468343 214.825101 
L 197.897143 206.656648 
L 195.346286 200.10811 
L 192.285257 191.345108 
L 189.224229 182.288476 
L 187.693714 178.322715 
L 186.1632 174.758726 
L 184.632686 172.140268 
L 183.102171 170.010278 
L 181.571657 168.33566 
L 180.041143 167.018216 
L 178.510629 165.910197 
L 177.490286 165.416137 
L 175.959771 165.15084 
L 174.939429 165.409211 
L 174.429257 165.636956 
L 173.408914 166.472249 
L 172.388571 167.613868 
L 171.368229 168.971019 
L 161.674971 185.401668 
L 159.124114 190.632609 
L 156.573257 196.075962 
L 154.532571 199.675448 
L 153.002057 201.945905 
L 151.471543 203.891273 
L 149.941029 205.279591 
L 149.430857 205.682037 
L 148.410514 206.06919 
L 147.900343 206.165225 
L 147.390171 206.042992 
L 146.88 205.768013 
L 145.859657 204.764403 
L 145.349486 204.030682 
L 144.839314 203.051564 
L 143.818971 200.396208 
L 143.3088 197.019643 
L 142.798629 196.718988 
L 141.268114 189.810573 
L 139.7376 181.439607 
L 137.186743 165.930367 
L 136.676571 162.224219 
L 134.635886 151.711104 
L 134.125714 150.281162 
L 133.615543 149.324779 
L 133.105371 136.015028 
L 132.085029 131.113213 
L 130.554514 122.730999 
L 129.534171 115.813345 
L 128.513829 106.702612 
L 127.493486 93.863921 
L 126.473143 74.791736 
L 125.962971 62.132373 
L 125.4528 46.642841 
L 124.432457 3.991898 
L 124.343318 -1 
L 124.343318 -1 
" clip-path="url(#p3549fc2d42)" style="fill: none; stroke: #cf1f30; stroke-width: 0.5; stroke-linecap: square"/>
   </g>
   <g id="line2d_19">
    <path d="M 363.702857 308.163254 
L 363.192686 308.010727 
L 361.152 307.998222 
L 354.519771 308.119639 
L 352.989257 308.06302 
L 345.336686 307.961279 
L 342.785829 307.84853 
L 340.745143 307.773286 
L 335.643429 307.232029 
L 333.602743 307.078043 
L 325.950171 306.813724 
L 321.8688 307.183231 
L 321.358629 307.048079 
L 317.277257 307.089219 
L 313.706057 306.918528 
L 309.114514 306.379681 
L 303.502629 305.161901 
L 300.951771 304.320791 
L 299.421257 303.725349 
L 297.380571 302.775626 
L 295.339886 301.537938 
L 293.809371 300.581554 
L 291.768686 299.091781 
L 288.197486 295.918307 
L 285.136457 292.671149 
L 281.565257 288.462817 
L 266.770286 269.319787 
L 260.138057 261.23882 
L 254.016 254.407512 
L 249.424457 250.207529 
L 246.8736 248.342684 
L 245.343086 247.322102 
L 244.322743 246.695453 
L 242.282057 245.770086 
L 239.221029 244.681425 
L 235.649829 243.642859 
L 232.078629 242.503421 
L 229.527771 241.466937 
L 226.976914 240.040578 
L 225.4464 239.059662 
L 221.8752 236.151421 
L 219.834514 234.196047 
L 217.793829 232.044288 
L 215.242971 229.094873 
L 213.202286 226.392613 
L 211.1616 223.303663 
L 209.631086 220.695442 
L 208.100571 217.769331 
L 206.570057 214.490075 
L 203.509029 207.293959 
L 199.427657 196.969913 
L 194.836114 184.917213 
L 192.285257 177.807344 
L 189.7344 170.841906 
L 188.203886 167.158031 
L 186.673371 164.154495 
L 185.653029 162.451233 
L 184.632686 161.060681 
L 183.102171 159.724005 
L 182.081829 159.060888 
L 180.551314 158.40927 
L 178.510629 158.036274 
L 178.000457 158.034397 
L 176.469943 158.56778 
L 175.4496 159.181554 
L 174.939429 159.61653 
L 173.408914 161.599443 
L 172.388571 163.274128 
L 170.858057 166.291027 
L 162.185143 185.072193 
L 160.654629 188.636341 
L 157.5936 196.250554 
L 155.552914 200.853782 
L 153.512229 204.620151 
L 151.981714 207.016773 
L 150.961371 208.333549 
L 150.4512 208.934145 
L 149.941029 209.334027 
L 149.430857 209.910672 
L 148.410514 210.507191 
L 147.900343 210.625412 
L 147.390171 210.625749 
L 146.88 210.419053 
L 145.859657 209.600956 
L 144.839314 208.11618 
L 143.818971 205.745909 
L 143.3088 202.65376 
L 142.798629 202.456198 
L 141.268114 196.295428 
L 139.7376 188.631794 
L 137.696914 177.129053 
L 135.146057 163.258637 
L 134.635886 160.888213 
L 133.615543 157.970938 
L 133.105371 146.095847 
L 132.5952 144.010812 
L 130.554514 132.904317 
L 129.534171 125.775176 
L 129.024 121.783812 
L 128.003657 110.614228 
L 126.983314 94.368366 
L 126.473143 83.644742 
L 125.4528 54.893109 
L 124.432457 10.897877 
L 124.225193 -1 
L 124.225193 -1 
" clip-path="url(#p3549fc2d42)" style="fill: none; stroke: #c61f39; stroke-width: 0.5; stroke-linecap: square"/>
   </g>
   <g id="line2d_20">
    <path d="M 363.702857 308.043031 
L 362.682514 307.898427 
L 358.090971 307.949283 
L 352.479086 308.022808 
L 350.4384 307.992503 
L 347.377371 307.979526 
L 346.357029 307.964611 
L 343.806171 307.90683 
L 339.7248 307.720687 
L 334.112914 307.095327 
L 326.460343 306.805007 
L 322.378971 307.115524 
L 321.8688 307.25544 
L 320.848457 307.106041 
L 317.277257 307.186767 
L 313.706057 307.007824 
L 312.175543 306.86805 
L 310.134857 306.660946 
L 308.094171 306.33654 
L 306.563657 306.100541 
L 304.522971 305.697029 
L 303.502629 305.427549 
L 299.931429 304.329095 
L 297.890743 303.495068 
L 294.829714 301.874683 
L 292.789029 300.600945 
L 291.258514 299.539241 
L 288.197486 297.019116 
L 283.605943 292.52202 
L 280.544914 289.059804 
L 270.341486 276.84829 
L 268.3008 274.554395 
L 262.688914 268.237813 
L 260.138057 265.494373 
L 257.5872 262.768404 
L 252.995657 258.303662 
L 250.4448 256.146652 
L 246.8736 253.609012 
L 245.853257 253.077083 
L 244.322743 252.057637 
L 241.261714 250.680527 
L 236.16 248.71791 
L 232.5888 246.872245 
L 231.058286 245.87564 
L 229.0176 244.259252 
L 226.976914 242.195406 
L 225.4464 240.40515 
L 223.915886 238.364176 
L 221.8752 235.337033 
L 219.834514 232.022103 
L 215.242971 223.631555 
L 213.202286 219.575265 
L 210.651429 214.030609 
L 208.610743 209.141853 
L 206.570057 203.727176 
L 202.488686 192.208976 
L 199.937829 184.880046 
L 195.346286 172.256292 
L 191.775086 162.803017 
L 189.224229 156.773726 
L 187.693714 153.909375 
L 186.1632 151.583892 
L 185.142857 150.626729 
L 184.122514 149.911454 
L 183.102171 149.526853 
L 182.081829 149.410099 
L 180.551314 149.562435 
L 179.530971 149.927065 
L 178.510629 150.381114 
L 177.490286 151.162399 
L 175.959771 152.737434 
L 174.939429 154.197962 
L 173.408914 157.018839 
L 171.8784 160.487751 
L 166.776686 174.05356 
L 159.124114 194.573306 
L 157.083429 200.151655 
L 155.552914 203.98367 
L 153.512229 208.263945 
L 151.981714 210.934317 
L 150.961371 212.46636 
L 149.430857 214.276403 
L 148.410514 215.036427 
L 147.390171 215.369658 
L 146.369829 214.886899 
L 145.859657 214.585458 
L 145.349486 214.021859 
L 144.839314 213.274134 
L 143.818971 211.23094 
L 143.3088 208.295153 
L 142.798629 208.214041 
L 142.288457 206.535563 
L 140.247771 198.086089 
L 139.227429 193.215006 
L 138.717257 189.996441 
L 138.207086 187.873246 
L 136.1664 176.863506 
L 134.635886 169.410156 
L 134.125714 168.165767 
L 133.615543 166.611273 
L 133.105371 155.808223 
L 132.085029 151.095292 
L 130.554514 142.75252 
L 129.534171 135.667289 
L 128.513829 126.109988 
L 127.493486 112.33991 
L 126.983314 103.355077 
L 125.962971 78.853497 
L 124.942629 42.301094 
L 124.11305 -1 
L 124.11305 -1 
" clip-path="url(#p3549fc2d42)" style="fill: none; stroke: #bd1f42; stroke-width: 0.5; stroke-linecap: square"/>
   </g>
   <g id="line2d_21">
    <path d="M 363.702857 308.117174 
L 363.192686 307.982105 
L 341.765486 307.839715 
L 333.602743 307.080886 
L 331.562057 307.047759 
L 326.460343 306.821981 
L 322.889143 307.109359 
L 321.358629 307.19274 
L 319.317943 307.223073 
L 317.277257 307.257351 
L 311.1552 306.887788 
L 309.114514 306.704518 
L 301.461943 305.225516 
L 298.911086 304.36944 
L 297.380571 303.795099 
L 296.360229 303.246592 
L 293.2992 301.691257 
L 289.728 299.371054 
L 288.197486 298.194218 
L 284.626286 295.077425 
L 280.034743 290.53535 
L 276.463543 286.682427 
L 264.7296 274.450817 
L 263.199086 272.976106 
L 262.178743 271.940003 
L 255.036343 265.203761 
L 252.995657 263.47669 
L 247.893943 259.835885 
L 245.343086 258.342157 
L 244.322743 257.715317 
L 241.771886 256.595382 
L 238.200686 255.008841 
L 236.670171 254.252686 
L 234.119314 252.66601 
L 232.5888 251.495404 
L 231.058286 250.059732 
L 230.037943 248.963906 
L 227.997257 246.365388 
L 226.466743 244.028472 
L 224.426057 240.433625 
L 221.8752 235.145384 
L 218.814171 228.034834 
L 216.263314 221.710162 
L 211.671771 209.412409 
L 208.610743 200.494723 
L 205.039543 189.061687 
L 199.427657 170.979075 
L 196.8768 163.483242 
L 194.325943 156.573386 
L 191.775086 150.219674 
L 190.244571 146.845138 
L 188.714057 144.023467 
L 187.693714 142.538156 
L 186.673371 141.416694 
L 186.1632 140.852884 
L 185.653029 140.46236 
L 184.632686 140.004517 
L 183.612343 139.943517 
L 182.592 140.105899 
L 181.061486 140.895022 
L 179.0208 142.648578 
L 178.000457 143.880939 
L 176.980114 145.37163 
L 175.4496 148.0398 
L 174.429257 150.230275 
L 172.898743 154.145398 
L 171.368229 158.596416 
L 162.185143 187.109227 
L 158.613943 198.308082 
L 157.083429 202.936729 
L 155.552914 207.164647 
L 153.002057 213.022198 
L 151.471543 215.885934 
L 149.941029 218.189812 
L 148.920686 219.28226 
L 147.900343 219.925954 
L 147.390171 220.081866 
L 146.88 220.059038 
L 146.369829 219.910918 
L 145.859657 219.64194 
L 144.839314 218.599984 
L 143.818971 216.834215 
L 143.3088 214.128664 
L 142.798629 214.262086 
L 142.288457 212.739407 
L 139.7376 203.086475 
L 137.186743 190.882919 
L 136.1664 185.668737 
L 134.635886 178.799144 
L 133.615543 176.030649 
L 133.105371 165.758073 
L 132.085029 161.123366 
L 130.554514 152.845389 
L 129.534171 145.734885 
L 128.513829 135.899334 
L 128.003657 129.498156 
L 126.983314 112.500591 
L 126.473143 101.167845 
L 125.4528 70.498741 
L 124.432457 24.820021 
L 124.001598 -1 
L 124.001598 -1 
" clip-path="url(#p3549fc2d42)" style="fill: none; stroke: #b41f4b; stroke-width: 0.5; stroke-linecap: square"/>
   </g>
   <g id="line2d_22">
    <path d="M 363.702857 308.118724 
L 363.192686 307.925192 
L 361.662171 307.975488 
L 360.131657 307.941904 
L 357.070629 308.055499 
L 351.458743 307.976424 
L 344.826514 307.909483 
L 342.275657 307.789557 
L 341.255314 307.777871 
L 336.1536 307.29706 
L 334.623086 307.145585 
L 329.0112 306.955443 
L 327.480686 306.817383 
L 326.460343 306.806719 
L 321.8688 307.26187 
L 320.848457 307.171273 
L 317.277257 307.273782 
L 311.665371 306.991785 
L 304.0128 306.00083 
L 300.4416 305.134116 
L 298.400914 304.534219 
L 297.380571 304.169439 
L 295.850057 303.489653 
L 293.2992 302.329493 
L 290.748343 300.942399 
L 284.626286 296.499144 
L 276.973714 289.513684 
L 272.382171 285.128432 
L 258.607543 272.875603 
L 256.566857 271.183735 
L 254.016 269.205428 
L 250.954971 267.030868 
L 243.3024 262.711947 
L 236.670171 259.314117 
L 234.629486 257.794941 
L 232.5888 255.846411 
L 230.548114 253.32105 
L 229.0176 251.003376 
L 226.976914 247.272728 
L 224.936229 242.76453 
L 222.895543 237.625004 
L 221.365029 233.363683 
L 219.324343 227.29614 
L 216.773486 219.338433 
L 211.671771 202.504677 
L 208.610743 191.839001 
L 204.0192 174.893976 
L 201.468343 165.583903 
L 198.917486 156.915151 
L 196.8768 150.626446 
L 194.836114 144.996455 
L 192.795429 139.934769 
L 190.754743 135.629506 
L 189.224229 133.008074 
L 188.203886 131.664247 
L 187.183543 130.680714 
L 186.1632 129.890533 
L 185.142857 129.699389 
L 184.122514 129.836221 
L 183.102171 130.321464 
L 182.081829 131.134446 
L 181.061486 132.187148 
L 179.530971 134.233442 
L 178.000457 136.820084 
L 176.980114 138.837668 
L 175.4496 142.382306 
L 173.919086 146.651855 
L 171.8784 153.287042 
L 168.3072 166.165281 
L 164.225829 180.641501 
L 157.083429 205.235639 
L 155.552914 209.850989 
L 153.512229 215.092432 
L 151.981714 218.534928 
L 150.961371 220.425171 
L 148.920686 223.280369 
L 147.900343 224.105808 
L 147.390171 224.391415 
L 146.369829 224.28733 
L 145.859657 224.153472 
L 145.349486 223.851443 
L 144.839314 223.361143 
L 144.329143 222.498965 
L 143.818971 221.915525 
L 143.3088 219.46089 
L 142.798629 219.674433 
L 142.288457 218.37024 
L 139.227429 207.634858 
L 138.207086 203.158145 
L 137.696914 200.484694 
L 137.186743 198.591966 
L 135.146057 189.4331 
L 133.615543 183.628117 
L 133.105371 174.90619 
L 132.085029 170.547935 
L 130.554514 162.211204 
L 129.534171 154.869043 
L 129.024 150.426009 
L 128.003657 138.453344 
L 126.983314 120.889364 
L 126.473143 109.282161 
L 125.4528 78.006552 
L 124.432457 30.882399 
L 123.909576 -1 
L 123.909576 -1 
" clip-path="url(#p3549fc2d42)" style="fill: none; stroke: #ac1f53; stroke-width: 0.5; stroke-linecap: square"/>
   </g>
   <g id="line2d_23">
    <path d="M 363.702857 308.148599 
L 363.192686 307.968845 
L 361.662171 307.981778 
L 355.029943 308.04959 
L 352.989257 308.033817 
L 351.458743 308.036504 
L 349.418057 308.008389 
L 340.234971 307.767584 
L 337.684114 307.515187 
L 337.173943 307.5041 
L 336.1536 307.324736 
L 334.112914 307.126606 
L 326.970514 306.776539 
L 324.419657 307.055619 
L 323.399314 307.041494 
L 322.889143 307.170158 
L 322.378971 307.157633 
L 321.8688 307.272447 
L 321.358629 307.165886 
L 319.828114 307.238816 
L 318.807771 307.2402 
L 317.277257 307.277464 
L 310.645029 306.984725 
L 307.073829 306.587623 
L 301.972114 305.762304 
L 297.380571 304.482174 
L 296.360229 304.020422 
L 293.809371 303.074307 
L 290.238171 301.279043 
L 287.687314 299.764101 
L 284.626286 297.642093 
L 283.605943 296.910547 
L 280.034743 294.021183 
L 267.790629 283.683207 
L 255.546514 274.361123 
L 253.505829 272.966526 
L 250.4448 271.053208 
L 245.343086 268.318419 
L 243.812571 267.517409 
L 242.282057 266.82099 
L 239.221029 265.263052 
L 237.180343 263.93204 
L 235.649829 262.736532 
L 234.119314 261.252618 
L 232.5888 259.427741 
L 231.568457 258.01258 
L 230.548114 256.424347 
L 229.0176 253.551471 
L 227.487086 250.226039 
L 225.956571 246.397454 
L 224.426057 242.10365 
L 222.385371 235.660545 
L 219.834514 226.72803 
L 217.283657 217.227632 
L 212.692114 199.435497 
L 207.080229 176.793236 
L 200.958171 151.974782 
L 198.917486 144.631273 
L 197.386971 139.62579 
L 195.346286 133.746588 
L 193.815771 129.835787 
L 192.285257 126.487224 
L 190.754743 123.692439 
L 189.7344 122.180678 
L 188.714057 120.986597 
L 187.693714 120.148621 
L 187.183543 119.8647 
L 186.1632 119.592965 
L 185.653029 119.56949 
L 184.632686 119.878407 
L 183.612343 120.627982 
L 182.592 121.711667 
L 181.571657 123.094447 
L 180.551314 124.762126 
L 179.0208 127.765292 
L 177.490286 131.329175 
L 175.4496 137.035156 
L 172.898743 145.858491 
L 169.327543 160.094977 
L 165.246171 176.385199 
L 162.185143 188.34651 
L 160.144457 196.095995 
L 157.5936 205.550216 
L 156.063086 210.668124 
L 155.042743 213.771614 
L 153.512229 217.96389 
L 151.981714 221.635705 
L 150.4512 224.644891 
L 149.941029 225.296958 
L 149.430857 226.179089 
L 148.410514 227.371168 
L 147.900343 227.820154 
L 147.390171 228.097017 
L 146.369829 228.247675 
L 145.859657 228.117247 
L 144.839314 227.511311 
L 144.329143 226.759112 
L 143.818971 226.2885 
L 143.3088 224.031916 
L 142.798629 224.269132 
L 142.288457 223.163888 
L 141.268114 220.444816 
L 140.247771 217.16718 
L 139.227429 213.546175 
L 134.635886 194.516307 
L 133.615543 191.645321 
L 133.105371 182.854356 
L 132.085029 178.555781 
L 130.554514 170.373633 
L 129.534171 162.978547 
L 128.513829 152.788161 
L 127.493486 138.050107 
L 126.473143 116.246477 
L 125.962971 101.804902 
L 124.942629 62.51541 
L 123.922286 4.940477 
L 123.8428 -1 
L 123.8428 -1 
" clip-path="url(#p3549fc2d42)" style="fill: none; stroke: #a31f5c; stroke-width: 0.5; stroke-linecap: square"/>
   </g>
   <g id="line2d_24">
    <path d="M 363.702857 308.146377 
L 363.192686 307.977432 
L 360.131657 307.980185 
L 357.070629 308.064349 
L 356.050286 308.042229 
L 352.479086 308.037379 
L 347.377371 307.98734 
L 346.357029 307.989804 
L 337.173943 307.438899 
L 332.5824 307.065186 
L 330.541714 307.039086 
L 325.44 306.931406 
L 322.889143 307.177756 
L 321.8688 307.371948 
L 321.358629 307.230224 
L 316.256914 307.365487 
L 308.094171 306.844017 
L 305.543314 306.57326 
L 298.400914 305.188965 
L 296.8704 304.664756 
L 292.278857 303.016916 
L 288.197486 301.030624 
L 282.5856 297.52585 
L 267.280457 286.222443 
L 256.566857 278.899266 
L 253.505829 277.041926 
L 252.485486 276.51919 
L 250.954971 275.700875 
L 249.934629 275.155123 
L 247.893943 274.114397 
L 245.343086 272.891894 
L 244.832914 272.543076 
L 242.792229 271.624846 
L 239.221029 269.709615 
L 237.690514 268.658123 
L 236.670171 267.810576 
L 235.649829 266.886818 
L 234.629486 265.78939 
L 233.098971 263.798195 
L 231.568457 261.398494 
L 230.037943 258.514524 
L 228.507429 255.036947 
L 226.976914 250.988842 
L 225.4464 246.360136 
L 223.915886 241.226531 
L 221.365029 231.500398 
L 218.814171 220.899694 
L 212.181943 191.592657 
L 201.468343 143.583735 
L 199.427657 135.498819 
L 197.386971 128.444782 
L 195.856457 123.819301 
L 193.815771 118.67495 
L 192.285257 115.511332 
L 190.754743 113.014876 
L 189.7344 111.711139 
L 188.714057 110.802896 
L 187.693714 110.267504 
L 187.183543 110.160491 
L 186.1632 110.246394 
L 185.653029 110.345859 
L 184.632686 111.043449 
L 183.612343 112.178075 
L 182.592 113.636792 
L 181.061486 116.447571 
L 179.530971 120.052364 
L 178.000457 124.102812 
L 176.469943 128.928413 
L 175.4496 132.415936 
L 173.919086 138.227052 
L 171.368229 149.01703 
L 163.205486 184.864336 
L 158.613943 203.734049 
L 157.083429 209.547313 
L 155.042743 216.448921 
L 153.002057 222.359964 
L 150.961371 227.123196 
L 149.941029 228.867949 
L 148.920686 230.531484 
L 147.390171 231.953059 
L 146.369829 232.200108 
L 145.349486 232.076924 
L 144.839314 231.774815 
L 144.329143 231.17106 
L 143.818971 230.805842 
L 143.3088 228.73029 
L 142.798629 229.132354 
L 142.288457 228.137235 
L 141.778286 226.770317 
L 141.268114 225.836774 
L 140.247771 222.835294 
L 139.227429 219.59213 
L 134.635886 201.994577 
L 133.615543 199.599495 
L 133.105371 190.928589 
L 132.5952 189.01495 
L 131.064686 181.450675 
L 130.044343 175.080824 
L 129.024 166.361936 
L 128.513829 160.74593 
L 127.493486 145.555744 
L 126.473143 123.291179 
L 125.4528 90.344599 
L 124.432457 42.064843 
L 123.777131 -1 
L 123.777131 -1 
" clip-path="url(#p3549fc2d42)" style="fill: none; stroke: #9a1f65; stroke-width: 0.5; stroke-linecap: square"/>
   </g>
   <g id="line2d_25">
    <path d="M 363.702857 308.136401 
L 363.192686 307.964776 
L 360.641829 307.974923 
L 359.111314 307.987985 
L 350.948571 307.996245 
L 339.214629 307.695247 
L 336.1536 307.28718 
L 332.072229 307.04835 
L 330.031543 307.006455 
L 326.460343 306.863344 
L 322.378971 307.236645 
L 321.8688 307.377537 
L 321.358629 307.240562 
L 317.277257 307.399474 
L 311.665371 307.250279 
L 303.502629 306.490166 
L 300.951771 306.135858 
L 298.911086 305.727269 
L 297.380571 305.353197 
L 294.829714 304.603709 
L 292.278857 303.793336 
L 290.748343 303.192922 
L 288.707657 302.320792 
L 285.136457 300.560242 
L 284.116114 300.003813 
L 283.095771 299.449511 
L 281.055086 298.211605 
L 274.933029 294.318735 
L 273.402514 293.359864 
L 268.810971 290.529577 
L 264.219429 287.855449 
L 256.566857 283.527302 
L 252.995657 281.800104 
L 247.383771 279.27182 
L 245.343086 278.339266 
L 244.322743 277.806395 
L 242.282057 276.873418 
L 239.221029 275.062869 
L 237.180343 273.431506 
L 235.139657 271.196447 
L 233.609143 269.097385 
L 232.5888 267.441777 
L 231.058286 264.422274 
L 229.527771 260.795655 
L 227.997257 256.517468 
L 226.466743 251.5625 
L 224.936229 245.899914 
L 223.405714 239.647809 
L 221.365029 230.464186 
L 218.814171 218.090832 
L 213.712457 192.03598 
L 208.610743 165.909203 
L 203.509029 140.178792 
L 200.958171 128.371668 
L 199.427657 121.969182 
L 197.386971 114.576079 
L 195.856457 109.849494 
L 194.836114 107.144472 
L 193.3056 103.723818 
L 192.285257 101.881397 
L 191.264914 100.363768 
L 189.7344 98.794496 
L 189.224229 98.462211 
L 188.203886 98.182308 
L 187.183543 98.23863 
L 186.1632 98.729768 
L 185.653029 99.074518 
L 184.632686 100.235713 
L 183.612343 101.818956 
L 182.081829 104.948062 
L 181.061486 107.497813 
L 180.041143 110.308632 
L 178.000457 116.919287 
L 176.469943 122.665568 
L 174.429257 131.208948 
L 171.8784 143.242059 
L 164.736 178.340662 
L 160.654629 197.207534 
L 158.613943 206.168217 
L 156.573257 214.419296 
L 155.042743 219.886593 
L 153.512229 224.794971 
L 151.981714 229.020934 
L 150.4512 232.530762 
L 148.410514 235.75889 
L 147.390171 236.786928 
L 145.859657 237.358722 
L 144.839314 237.104382 
L 144.329143 236.623508 
L 143.818971 236.375738 
L 143.3088 234.502513 
L 142.798629 235.077169 
L 142.288457 234.289837 
L 141.778286 233.192782 
L 141.268114 232.429592 
L 139.7376 228.51778 
L 139.227429 227.037683 
L 138.717257 225.20123 
L 138.207086 223.916223 
L 134.635886 211.068723 
L 133.615543 208.559789 
L 133.105371 200.795308 
L 132.085029 196.495894 
L 131.064686 191.33884 
L 130.554514 188.448133 
L 129.534171 180.918607 
L 128.513829 170.350651 
L 127.493486 154.795597 
L 126.983314 144.497656 
L 125.962971 116.866917 
L 125.4528 98.52678 
L 124.432457 48.708761 
L 123.699688 -1 
L 123.699688 -1 
" clip-path="url(#p3549fc2d42)" style="fill: none; stroke: #911f6e; stroke-width: 0.5; stroke-linecap: square"/>
   </g>
   <g id="line2d_26">
    <path d="M 363.702857 308.154034 
L 363.192686 308.019323 
L 357.070629 308.077296 
L 349.418057 307.985545 
L 338.194286 307.584 
L 334.112914 307.103823 
L 327.990857 306.871562 
L 326.970514 306.807385 
L 324.419657 307.050077 
L 322.378971 307.231389 
L 321.8688 307.371832 
L 321.358629 307.269183 
L 313.706057 307.40882 
L 311.1552 307.281692 
L 307.584 307.0766 
L 301.972114 306.487434 
L 297.890743 305.872206 
L 289.217829 303.438568 
L 284.116114 301.370977 
L 279.0144 298.824466 
L 269.321143 293.872125 
L 265.749943 292.135194 
L 261.668571 290.215607 
L 260.138057 289.518485 
L 258.607543 288.805268 
L 254.016 286.836601 
L 245.343086 283.403063 
L 243.812571 282.659261 
L 242.792229 282.201344 
L 239.7312 280.426456 
L 238.200686 279.248121 
L 236.16 277.113667 
L 234.629486 275.032204 
L 233.609143 273.404132 
L 232.078629 270.464009 
L 230.037943 265.410069 
L 228.507429 260.788415 
L 226.976914 255.455725 
L 224.936229 247.055042 
L 222.895543 237.457625 
L 220.854857 226.859096 
L 217.283657 206.713806 
L 204.529371 134.251979 
L 201.468343 118.566214 
L 199.937829 111.532572 
L 198.407314 105.226233 
L 196.8768 99.764309 
L 195.346286 95.249607 
L 193.815771 91.63535 
L 192.795429 89.753131 
L 191.775086 88.223367 
L 190.754743 87.18009 
L 190.244571 86.783737 
L 189.224229 86.35159 
L 188.714057 86.302287 
L 187.693714 86.539813 
L 186.673371 87.143291 
L 185.142857 88.873808 
L 184.122514 90.681294 
L 183.102171 92.913656 
L 181.571657 97.065274 
L 180.551314 100.196786 
L 178.510629 107.605909 
L 176.980114 114.019498 
L 174.939429 123.44651 
L 171.8784 139.359346 
L 162.695314 188.252111 
L 158.613943 207.899421 
L 156.573257 216.709189 
L 154.532571 224.357854 
L 152.491886 230.87835 
L 151.471543 233.620223 
L 150.4512 236.099179 
L 148.920686 238.889847 
L 147.900343 240.244552 
L 147.390171 240.766416 
L 146.369829 241.346874 
L 145.349486 241.632236 
L 144.839314 241.572405 
L 144.329143 241.218409 
L 143.818971 241.100221 
L 143.3088 239.420381 
L 142.798629 240.173255 
L 141.268114 237.947634 
L 140.757943 237.137976 
L 138.717257 232.048215 
L 137.696914 229.285405 
L 137.186743 227.812293 
L 136.676571 225.790843 
L 136.1664 224.406582 
L 134.635886 219.068285 
L 133.615543 216.763951 
L 133.105371 209.459289 
L 132.085029 205.352849 
L 131.064686 200.387866 
L 130.044343 193.80401 
L 129.024 184.828457 
L 128.003657 171.585364 
L 127.493486 163.027841 
L 126.983314 152.430077 
L 125.962971 123.957251 
L 125.4528 105.546345 
L 124.432457 54.446927 
L 123.635979 -1 
L 123.635979 -1 
" clip-path="url(#p3549fc2d42)" style="fill: none; stroke: #881f77; stroke-width: 0.5; stroke-linecap: square"/>
   </g>
   <g id="line2d_27">
    <path d="M 363.702857 308.213823 
L 363.192686 308.058508 
L 356.560457 308.10667 
L 355.029943 308.093734 
L 353.499429 308.095033 
L 350.4384 308.052199 
L 348.907886 308.013617 
L 340.234971 307.771373 
L 338.704457 307.625929 
L 336.1536 307.312337 
L 333.092571 307.070223 
L 332.072229 307.081092 
L 330.541714 307.047094 
L 329.0112 306.968568 
L 326.970514 306.838711 
L 323.399314 307.144135 
L 319.828114 307.368439 
L 312.685714 307.412927 
L 299.421257 306.367413 
L 297.380571 306.049424 
L 296.360229 305.725049 
L 294.829714 305.471697 
L 292.278857 304.941268 
L 286.1568 303.098524 
L 282.5856 301.755235 
L 279.524571 300.468015 
L 269.321143 296.155771 
L 267.280457 295.354693 
L 254.016 290.23983 
L 252.995657 289.948631 
L 245.853257 287.501165 
L 244.322743 286.738431 
L 241.771886 285.486562 
L 240.751543 284.925679 
L 238.200686 282.924701 
L 236.670171 281.296119 
L 235.139657 279.241437 
L 233.609143 276.625117 
L 232.5888 274.542091 
L 231.058286 270.865108 
L 229.527771 266.412095 
L 227.997257 261.115447 
L 225.956571 252.775355 
L 224.426057 245.589992 
L 222.385371 234.864359 
L 219.834514 220.068073 
L 215.242971 191.511002 
L 207.5904 144.56915 
L 204.0192 123.704191 
L 201.978514 112.597789 
L 199.937829 102.650243 
L 198.407314 96.089644 
L 196.8768 90.478621 
L 195.346286 85.881294 
L 194.325943 83.35556 
L 193.3056 81.343369 
L 192.285257 79.730068 
L 191.264914 78.592269 
L 190.244571 77.919952 
L 189.7344 77.719569 
L 188.714057 77.74804 
L 188.203886 77.918842 
L 187.183543 78.620899 
L 186.1632 79.751111 
L 185.653029 80.396965 
L 184.632686 82.220854 
L 183.612343 84.567036 
L 182.081829 88.840418 
L 180.551314 93.989078 
L 179.0208 100.071835 
L 177.490286 106.810426 
L 175.4496 116.80598 
L 172.898743 130.689112 
L 162.185143 191.170759 
L 157.5936 213.952317 
L 155.552914 222.610079 
L 153.512229 230.052862 
L 151.981714 234.823813 
L 150.4512 238.79038 
L 148.920686 241.784723 
L 147.900343 243.249758 
L 147.390171 243.838464 
L 146.369829 244.569284 
L 145.349486 244.971485 
L 144.839314 245.022923 
L 144.329143 244.78508 
L 143.818971 244.77742 
L 143.3088 243.231233 
L 142.798629 244.043164 
L 142.288457 243.503317 
L 141.778286 242.736248 
L 141.268114 242.332269 
L 140.757943 241.56204 
L 139.227429 238.624825 
L 138.717257 237.137657 
L 138.207086 236.10342 
L 137.186743 233.427411 
L 136.676571 231.606721 
L 136.1664 230.381843 
L 134.635886 225.2282 
L 134.125714 224.196633 
L 133.615543 222.90045 
L 133.105371 216.154999 
L 132.5952 214.402804 
L 131.574857 209.795062 
L 130.554514 204.152593 
L 129.534171 196.387174 
L 128.513829 185.455275 
L 127.493486 169.137851 
L 126.473143 145.338275 
L 125.962971 129.605215 
L 124.942629 87.019833 
L 123.922286 25.160336 
L 123.59158 -1 
L 123.59158 -1 
" clip-path="url(#p3549fc2d42)" style="fill: none; stroke: #801f80; stroke-width: 0.5; stroke-linecap: square"/>
   </g>
   <g id="line2d_28">
    <path d="M 363.702857 308.106613 
L 363.192686 307.951206 
L 357.5808 307.969129 
L 356.050286 307.962751 
L 352.479086 307.962276 
L 349.928229 307.926998 
L 348.397714 307.928974 
L 337.684114 307.528394 
L 334.623086 307.179054 
L 332.5824 307.101544 
L 331.051886 307.131821 
L 330.031543 307.076333 
L 326.970514 306.917309 
L 324.419657 307.143506 
L 321.358629 307.383479 
L 312.685714 307.532066 
L 311.665371 307.464652 
L 309.624686 307.411343 
L 297.890743 306.403381 
L 289.217829 304.660871 
L 288.707657 304.458616 
L 287.687314 304.234851 
L 276.973714 300.592221 
L 274.933029 299.820468 
L 271.872 298.688553 
L 268.810971 297.614826 
L 264.219429 296.041528 
L 262.688914 295.576401 
L 260.648229 294.878498 
L 256.566857 293.543524 
L 254.526171 292.924828 
L 252.485486 292.280092 
L 250.954971 291.840705 
L 244.322743 289.546978 
L 242.282057 288.610553 
L 240.751543 287.677491 
L 239.221029 286.552299 
L 238.200686 285.620666 
L 237.180343 284.529107 
L 236.16 283.241537 
L 234.629486 280.856194 
L 233.609143 278.959372 
L 232.078629 275.550991 
L 230.548114 271.320613 
L 229.0176 266.234018 
L 227.487086 260.336424 
L 225.956571 253.485662 
L 223.915886 243.030197 
L 221.365029 228.120277 
L 218.814171 211.817248 
L 214.7328 184.667912 
L 210.651429 157.837716 
L 204.0192 116.492308 
L 201.468343 102.304331 
L 199.937829 94.58805 
L 198.407314 87.918483 
L 196.8768 82.172624 
L 195.856457 78.987421 
L 194.325943 75.175239 
L 193.3056 73.174441 
L 192.285257 71.741222 
L 191.264914 70.737743 
L 190.244571 70.253861 
L 189.224229 70.308769 
L 188.714057 70.431035 
L 187.693714 71.114586 
L 186.673371 72.308138 
L 185.142857 74.839874 
L 184.122514 77.1947 
L 183.102171 80.027989 
L 181.571657 85.113163 
L 180.041143 91.12301 
L 178.000457 100.384322 
L 175.959771 110.924653 
L 173.919086 122.398302 
L 170.858057 140.820139 
L 166.266514 168.527053 
L 162.695314 189.039794 
L 160.144457 202.822568 
L 157.5936 215.519225 
L 155.552914 224.398744 
L 153.512229 232.08892 
L 151.981714 237.051438 
L 150.961371 239.872428 
L 149.941029 242.265666 
L 148.920686 244.254613 
L 147.900343 245.760578 
L 147.390171 246.374901 
L 145.859657 247.474573 
L 144.839314 247.773595 
L 144.329143 247.557971 
L 143.818971 247.601584 
L 143.3088 246.175165 
L 142.798629 247.081769 
L 142.288457 246.666204 
L 141.778286 246.0176 
L 141.268114 245.659546 
L 140.757943 245.015886 
L 138.207086 240.146052 
L 135.656229 233.23617 
L 134.125714 228.755332 
L 133.615543 227.518306 
L 133.105371 220.969584 
L 132.5952 219.332875 
L 131.574857 214.774917 
L 130.554514 209.1022 
L 129.534171 201.313226 
L 128.513829 190.259557 
L 127.493486 173.80698 
L 126.983314 163.104333 
L 125.962971 133.969473 
L 124.942629 90.921344 
L 123.922286 28.621518 
L 123.55135 -1 
L 123.55135 -1 
" clip-path="url(#p3549fc2d42)" style="fill: none; stroke: #771f88; stroke-width: 0.5; stroke-linecap: square"/>
   </g>
   <g id="line2d_29">
    <path d="M 363.702857 308.050456 
L 363.192686 307.871127 
L 354.0096 308.015143 
L 351.458743 307.986858 
L 347.377371 308.011019 
L 346.357029 307.947417 
L 343.296 307.896065 
L 341.765486 307.827686 
L 338.704457 307.660797 
L 334.623086 307.147212 
L 332.072229 307.11411 
L 327.990857 306.843169 
L 322.378971 307.2821 
L 321.8688 307.4376 
L 321.358629 307.306386 
L 317.787429 307.477367 
L 315.746743 307.506664 
L 312.685714 307.469945 
L 308.094171 307.336353 
L 305.543314 307.185194 
L 302.482286 306.976463 
L 296.8704 306.34697 
L 295.850057 306.187229 
L 289.728 305.216501 
L 285.646629 304.335735 
L 280.544914 302.915723 
L 271.361829 300.170006 
L 267.790629 299.212524 
L 264.7296 298.372507 
L 259.627886 296.993297 
L 258.097371 296.608714 
L 255.036343 295.86868 
L 253.505829 295.502339 
L 245.343086 293.205985 
L 244.832914 292.909291 
L 243.812571 292.497657 
L 241.261714 291.172145 
L 239.7312 290.075544 
L 238.710857 289.18915 
L 237.690514 288.175467 
L 235.649829 285.394426 
L 234.119314 282.684716 
L 232.5888 279.276214 
L 231.568457 276.577259 
L 230.037943 271.777312 
L 228.507429 266.114283 
L 226.976914 259.463512 
L 225.4464 251.865511 
L 223.915886 243.379166 
L 221.8752 230.891365 
L 218.814171 210.264448 
L 208.610743 139.223112 
L 204.0192 109.597179 
L 201.978514 97.568787 
L 200.448 89.332301 
L 198.407314 79.8567 
L 196.8768 74.018607 
L 195.856457 70.787062 
L 194.836114 68.113763 
L 193.815771 66.001908 
L 192.795429 64.344116 
L 191.775086 63.271111 
L 191.264914 62.882557 
L 190.244571 62.579576 
L 189.224229 62.779801 
L 188.714057 63.028932 
L 188.203886 63.40337 
L 187.693714 63.93095 
L 186.1632 66.199781 
L 185.142857 68.181809 
L 183.612343 72.334141 
L 182.592 75.712193 
L 181.061486 81.520811 
L 179.0208 90.748443 
L 176.980114 101.371677 
L 173.919086 119.381683 
L 162.185143 192.275849 
L 158.103771 214.246645 
L 156.573257 221.563144 
L 155.042743 228.138322 
L 153.002057 235.832827 
L 151.471543 240.645276 
L 150.4512 243.384361 
L 148.920686 246.637332 
L 147.900343 248.262013 
L 146.88 249.375432 
L 145.859657 250.22467 
L 144.839314 250.56063 
L 144.329143 250.434875 
L 143.818971 250.628822 
L 143.3088 249.355631 
L 142.798629 250.321326 
L 142.288457 250.010917 
L 141.778286 249.478551 
L 141.268114 249.196917 
L 140.757943 248.722678 
L 139.227429 246.402707 
L 138.717257 245.288218 
L 138.207086 244.567312 
L 137.186743 242.114217 
L 136.676571 240.61921 
L 135.656229 238.251093 
L 133.615543 232.652032 
L 133.105371 226.598222 
L 132.085029 222.634695 
L 131.064686 217.687318 
L 130.044343 211.082823 
L 129.024 201.790548 
L 128.003657 188.059793 
L 126.983314 167.934231 
L 125.962971 138.508445 
L 124.942629 94.911759 
L 123.922286 31.894768 
L 123.515134 -1 
L 123.515134 -1 
" clip-path="url(#p3549fc2d42)" style="fill: none; stroke: #6e1f91; stroke-width: 0.5; stroke-linecap: square"/>
   </g>
   <g id="line2d_30">
    <path d="M 363.702857 308.202468 
L 363.192686 308.045448 
L 358.090971 308.086013 
L 352.479086 308.104309 
L 349.928229 308.073042 
L 337.684114 307.581429 
L 335.133257 307.242727 
L 332.5824 307.1204 
L 325.950171 306.964023 
L 320.848457 307.347579 
L 317.277257 307.49636 
L 313.195886 307.523577 
L 309.114514 307.415197 
L 297.890743 306.731704 
L 295.339886 306.354363 
L 291.258514 305.872732 
L 289.217829 305.549904 
L 282.5856 304.245041 
L 279.0144 303.357908 
L 276.973714 302.869171 
L 269.831314 301.168113 
L 268.3008 300.831354 
L 262.688914 299.60935 
L 259.117714 298.818956 
L 257.5872 298.518147 
L 255.546514 298.057049 
L 253.505829 297.697165 
L 249.934629 296.955949 
L 245.343086 295.644614 
L 244.322743 295.196588 
L 241.771886 293.952299 
L 240.241371 292.923445 
L 238.710857 291.568897 
L 237.690514 290.435329 
L 236.16 288.35249 
L 234.629486 285.687799 
L 233.609143 283.600326 
L 232.5888 281.145667 
L 231.058286 276.712242 
L 230.037943 273.262456 
L 228.507429 267.267049 
L 226.976914 260.270824 
L 225.4464 252.258676 
L 223.405714 240.109406 
L 220.854857 223.023881 
L 217.793829 200.77149 
L 210.141257 144.512104 
L 206.059886 116.22865 
L 203.509029 99.651335 
L 201.468343 87.510948 
L 199.937829 79.337921 
L 198.407314 72.244521 
L 196.8768 66.347634 
L 195.856457 63.1347 
L 194.836114 60.482364 
L 193.815771 58.389993 
L 192.795429 56.877862 
L 191.775086 55.998633 
L 191.264914 55.681191 
L 190.244571 55.545919 
L 189.224229 55.92337 
L 188.714057 56.303464 
L 187.693714 57.437642 
L 186.673371 59.149204 
L 185.653029 61.129065 
L 184.632686 63.786079 
L 183.612343 66.951535 
L 182.081829 72.578591 
L 180.551314 79.200243 
L 179.0208 86.753759 
L 176.980114 98.10419 
L 173.919086 117.118402 
L 162.185143 192.939109 
L 158.103771 215.597125 
L 156.063086 225.39607 
L 154.0224 233.868668 
L 151.981714 241.005403 
L 150.961371 244.046041 
L 149.941029 246.460348 
L 148.920686 248.694997 
L 147.900343 250.314847 
L 147.390171 250.976722 
L 145.859657 252.348101 
L 145.349486 252.668478 
L 144.839314 252.851632 
L 144.329143 252.745049 
L 143.818971 252.97777 
L 143.3088 251.722451 
L 142.798629 252.766812 
L 142.288457 252.543548 
L 141.778286 252.088898 
L 141.268114 251.915485 
L 140.247771 250.819574 
L 139.227429 249.457724 
L 138.717257 248.446328 
L 138.207086 247.763391 
L 136.1664 243.066176 
L 135.146057 240.419756 
L 134.635886 238.776893 
L 134.125714 237.882945 
L 133.615543 236.532985 
L 133.105371 230.422021 
L 132.5952 228.686322 
L 131.574857 224.168131 
L 130.554514 218.532979 
L 129.534171 210.645717 
L 128.513829 199.427385 
L 127.493486 182.512174 
L 126.983314 171.479369 
L 125.962971 141.733511 
L 124.942629 98.031333 
L 123.922286 34.702888 
L 123.479275 -1 
L 123.479275 -1 
" clip-path="url(#p3549fc2d42)" style="fill: none; stroke: #651f9a; stroke-width: 0.5; stroke-linecap: square"/>
   </g>
   <g id="line2d_31">
    <path d="M 363.702857 307.989566 
L 363.192686 307.825585 
L 360.641829 307.893205 
L 354.0096 307.996921 
L 350.948571 307.945308 
L 347.377371 307.923103 
L 344.316343 307.853974 
L 342.785829 307.819661 
L 339.7248 307.713101 
L 334.623086 307.135064 
L 329.521371 306.970872 
L 327.480686 306.84695 
L 326.460343 306.863047 
L 321.8688 307.420235 
L 321.358629 307.274528 
L 320.338286 307.30224 
L 318.807771 307.415164 
L 316.767086 307.464903 
L 310.645029 307.420625 
L 307.073829 307.270832 
L 305.543314 307.218817 
L 297.890743 306.760909 
L 296.360229 306.501667 
L 294.319543 306.312504 
L 291.768686 306.045585 
L 289.217829 305.704885 
L 285.136457 305.029708 
L 282.5856 304.520725 
L 279.0144 303.742864 
L 275.4432 302.957742 
L 272.892343 302.434394 
L 271.872 302.20977 
L 247.383771 297.36474 
L 245.343086 296.704584 
L 244.322743 296.261234 
L 242.282057 295.31456 
L 240.241371 293.997825 
L 238.710857 292.587409 
L 237.180343 290.844487 
L 235.649829 288.570957 
L 234.119314 285.668803 
L 232.5888 282.111236 
L 231.058286 277.622428 
L 229.527771 272.205296 
L 227.997257 265.780892 
L 226.466743 258.366973 
L 224.426057 246.883481 
L 222.385371 233.853917 
L 219.834514 215.899043 
L 213.712457 169.885268 
L 209.631086 139.991963 
L 206.059886 114.96735 
L 203.509029 98.109669 
L 200.958171 82.952978 
L 199.427657 75.002104 
L 197.897143 68.155853 
L 196.366629 62.59679 
L 195.346286 59.620615 
L 194.325943 57.179846 
L 193.3056 55.424347 
L 192.795429 54.682372 
L 191.775086 53.714714 
L 191.264914 53.411124 
L 190.244571 53.283624 
L 189.7344 53.394443 
L 189.224229 53.647276 
L 188.203886 54.578902 
L 187.183543 55.986003 
L 186.1632 57.878969 
L 185.142857 60.161414 
L 184.122514 63.095212 
L 183.102171 66.493725 
L 181.571657 72.550998 
L 180.041143 79.565593 
L 178.000457 90.368102 
L 176.469943 99.339663 
L 173.408914 118.821684 
L 165.246171 173.212907 
L 161.674971 195.4301 
L 157.5936 217.956684 
L 155.552914 227.607845 
L 153.512229 235.901863 
L 151.981714 241.237734 
L 150.961371 244.274606 
L 149.941029 246.848559 
L 148.920686 249.057644 
L 147.900343 250.769657 
L 146.88 251.991654 
L 145.859657 252.911985 
L 144.839314 253.492457 
L 144.329143 253.424563 
L 143.818971 253.672928 
L 143.3088 252.525473 
L 142.798629 253.609915 
L 142.288457 253.478505 
L 141.778286 253.030094 
L 141.268114 252.976898 
L 140.757943 252.580162 
L 139.227429 250.726533 
L 138.207086 248.9826 
L 137.186743 247.069972 
L 133.615543 238.321582 
L 133.105371 232.260998 
L 132.085029 228.525017 
L 131.064686 223.483218 
L 130.044343 216.857646 
L 129.024 207.436497 
L 128.003657 193.550312 
L 126.983314 172.957484 
L 125.962971 143.028095 
L 124.942629 98.79371 
L 123.922286 35.205625 
L 123.478454 -1 
L 123.478454 -1 
" clip-path="url(#p3549fc2d42)" style="fill: none; stroke: #5c1fa3; stroke-width: 0.5; stroke-linecap: square"/>
   </g>
   <g id="line2d_32">
    <path d="M 363.702857 308.174587 
L 363.192686 307.998418 
L 360.131657 307.974653 
L 357.070629 308.015177 
L 350.948571 307.986385 
L 340.234971 307.774442 
L 338.704457 307.619668 
L 336.663771 307.384077 
L 334.623086 307.127693 
L 331.562057 307.064207 
L 326.970514 306.823215 
L 320.338286 307.358024 
L 315.236571 307.523231 
L 313.195886 307.490295 
L 312.175543 307.472489 
L 301.461943 307.081726 
L 298.911086 306.954289 
L 297.890743 306.87263 
L 296.360229 306.648892 
L 294.829714 306.575479 
L 288.707657 305.960696 
L 287.177143 305.737265 
L 283.605943 305.186694 
L 282.075429 304.945571 
L 259.117714 301.05161 
L 257.077029 300.746644 
L 255.036343 300.408677 
L 252.485486 300.093166 
L 250.954971 299.768292 
L 247.383771 299.040887 
L 246.363429 298.807983 
L 245.343086 298.462166 
L 244.322743 297.986873 
L 243.3024 297.516423 
L 241.771886 296.739704 
L 240.241371 295.69942 
L 238.200686 293.75083 
L 236.670171 291.76296 
L 235.649829 290.16907 
L 234.119314 287.21183 
L 232.5888 283.509361 
L 231.058286 278.887631 
L 230.037943 275.308931 
L 228.507429 269.089024 
L 226.976914 261.775198 
L 225.4464 253.44738 
L 223.405714 240.801955 
L 221.365029 226.711104 
L 218.304 203.752538 
L 210.651429 144.953665 
L 206.570057 115.302446 
L 202.998857 91.333429 
L 200.958171 79.118242 
L 199.427657 71.036881 
L 197.897143 64.065747 
L 196.366629 58.456191 
L 195.346286 55.45937 
L 194.325943 53.107927 
L 193.3056 51.280972 
L 192.795429 50.569346 
L 191.775086 49.725011 
L 191.264914 49.464406 
L 190.754743 49.370612 
L 189.7344 49.583235 
L 188.714057 50.315403 
L 187.693714 51.605895 
L 186.1632 54.405637 
L 185.142857 56.836757 
L 184.122514 59.924253 
L 183.102171 63.480008 
L 181.571657 69.753976 
L 180.041143 77.031951 
L 178.000457 88.185726 
L 175.4496 103.919763 
L 171.8784 128.057573 
L 166.776686 163.027103 
L 163.205486 186.285815 
L 160.654629 201.830334 
L 158.103771 216.071705 
L 156.063086 226.187628 
L 154.0224 234.981672 
L 152.491886 240.668362 
L 150.961371 245.495065 
L 149.941029 248.079745 
L 148.920686 250.379135 
L 147.390171 252.848971 
L 145.859657 254.352609 
L 144.839314 254.986339 
L 144.329143 254.965574 
L 143.818971 255.221734 
L 143.3088 254.168414 
L 142.798629 255.327653 
L 142.288457 255.129539 
L 141.778286 254.801269 
L 141.268114 254.810462 
L 140.247771 253.969243 
L 139.227429 252.855157 
L 138.717257 251.911106 
L 138.207086 251.289355 
L 137.186743 249.362023 
L 136.676571 248.069627 
L 136.1664 247.245416 
L 135.146057 244.606715 
L 134.635886 243.170151 
L 134.125714 242.089295 
L 133.615543 240.722938 
L 133.105371 235.119172 
L 132.085029 231.227451 
L 131.064686 226.264834 
L 130.044343 219.532607 
L 129.024 210.038343 
L 128.003657 196.006067 
L 126.983314 175.385745 
L 125.962971 145.402321 
L 124.942629 100.983837 
L 123.922286 36.864894 
L 123.457714 -1 
L 123.457714 -1 
" clip-path="url(#p3549fc2d42)" style="fill: none; stroke: #531fac; stroke-width: 0.5; stroke-linecap: square"/>
   </g>
   <g id="line2d_33">
    <path d="M 363.702857 308.165095 
L 363.192686 307.992142 
L 358.090971 308.047912 
L 356.560457 308.060659 
L 340.234971 307.765248 
L 337.684114 307.508196 
L 335.643429 307.273153 
L 333.602743 307.104789 
L 327.990857 306.862695 
L 326.460343 306.875886 
L 321.8688 307.402905 
L 321.358629 307.321279 
L 317.787429 307.515707 
L 315.746743 307.551208 
L 306.053486 307.363664 
L 303.502629 307.265028 
L 297.890743 307.022799 
L 295.850057 306.738272 
L 292.278857 306.529711 
L 289.728 306.267139 
L 287.687314 306.067699 
L 286.1568 305.868324 
L 281.565257 305.20028 
L 272.892343 303.756347 
L 271.872 303.583194 
L 249.934629 300.410324 
L 245.853257 299.500951 
L 243.812571 298.698319 
L 240.751543 296.903485 
L 239.221029 295.670009 
L 237.690514 294.003731 
L 236.670171 292.623676 
L 235.139657 290.077512 
L 234.119314 287.964967 
L 233.098971 285.608693 
L 231.568457 281.295852 
L 230.037943 275.967192 
L 228.507429 269.693535 
L 226.976914 262.277492 
L 225.4464 253.804141 
L 223.405714 241.03041 
L 221.365029 226.712865 
L 218.814171 207.487358 
L 209.631086 136.218515 
L 205.039543 103.192522 
L 201.978514 83.307831 
L 199.937829 71.755628 
L 198.407314 64.342354 
L 196.8768 58.201755 
L 195.856457 54.847336 
L 194.836114 52.200711 
L 193.815771 50.022529 
L 192.795429 48.556185 
L 191.775086 47.641531 
L 190.754743 47.358165 
L 190.244571 47.404719 
L 189.224229 47.881912 
L 188.203886 48.980534 
L 187.183543 50.570597 
L 186.1632 52.610652 
L 185.142857 55.0607 
L 184.122514 58.197816 
L 182.592 63.793149 
L 181.061486 70.509786 
L 179.530971 78.243409 
L 178.000457 86.850711 
L 175.4496 102.747065 
L 170.858057 134.3808 
L 166.266514 166.033781 
L 162.185143 192.606333 
L 159.634286 207.7781 
L 157.5936 218.924182 
L 155.552914 228.848617 
L 153.002057 239.302007 
L 151.471543 244.501602 
L 150.4512 247.393109 
L 149.430857 249.91279 
L 147.900343 252.717026 
L 146.88 254.041951 
L 145.859657 255.019463 
L 144.839314 255.725191 
L 144.329143 255.745464 
L 143.818971 256.000897 
L 143.3088 254.941996 
L 142.798629 256.12459 
L 142.288457 255.998059 
L 141.778286 255.676955 
L 141.268114 255.699598 
L 140.757943 255.420703 
L 139.227429 253.8954 
L 138.717257 253.03532 
L 138.207086 252.615466 
L 137.186743 250.598635 
L 135.146057 246.091758 
L 134.635886 244.460257 
L 134.125714 243.480352 
L 133.615543 242.081711 
L 133.105371 236.43373 
L 132.5952 234.798871 
L 131.574857 230.454628 
L 130.554514 224.606667 
L 129.534171 216.746647 
L 128.513829 205.166488 
L 128.003657 197.43418 
L 126.983314 176.686781 
L 125.962971 146.539468 
L 124.942629 101.805724 
L 123.922286 37.723223 
L 123.451742 -1 
L 123.451742 -1 
" clip-path="url(#p3549fc2d42)" style="fill: none; stroke: #4b1fb4; stroke-width: 0.5; stroke-linecap: square"/>
   </g>
   <g id="line2d_34">
    <path d="M 363.702857 308.129942 
L 363.192686 307.976206 
L 356.560457 308.037491 
L 355.540114 307.998743 
L 353.499429 308.013115 
L 350.948571 307.965572 
L 349.418057 307.963608 
L 343.296 307.856088 
L 336.663771 307.397589 
L 334.112914 307.119109 
L 332.072229 307.075662 
L 329.521371 307.004877 
L 327.480686 306.818883 
L 323.909486 307.14497 
L 321.8688 307.397612 
L 321.358629 307.333317 
L 319.828114 307.455853 
L 317.277257 307.557256 
L 313.706057 307.587444 
L 311.1552 307.554702 
L 304.522971 307.345163 
L 302.992457 307.28169 
L 298.400914 307.087272 
L 297.380571 307.029252 
L 295.850057 306.860517 
L 288.197486 306.306055 
L 284.626286 305.912439 
L 264.7296 303.309596 
L 249.424457 301.370186 
L 245.343086 300.428882 
L 244.322743 300.009864 
L 242.282057 299.04448 
L 239.7312 297.251398 
L 237.690514 295.07706 
L 236.16 292.898364 
L 234.629486 290.08365 
L 233.609143 287.817512 
L 232.5888 285.178563 
L 231.058286 280.506137 
L 229.527771 274.787349 
L 227.997257 268.032816 
L 226.466743 260.157315 
L 224.936229 251.290003 
L 222.895543 237.891091 
L 220.344686 219.233968 
L 217.283657 195.147411 
L 209.631086 135.093813 
L 206.059886 108.804905 
L 202.998857 87.874187 
L 200.958171 75.361292 
L 198.917486 64.62281 
L 197.386971 57.984979 
L 196.366629 54.295433 
L 195.346286 51.290629 
L 194.325943 48.823688 
L 193.3056 47.05119 
L 192.285257 45.885739 
L 191.775086 45.496286 
L 191.264914 45.306345 
L 190.244571 45.294502 
L 189.7344 45.486029 
L 188.714057 46.260811 
L 187.693714 47.615728 
L 186.673371 49.516572 
L 185.142857 53.182193 
L 184.122514 56.330333 
L 183.102171 60.026092 
L 181.571657 66.478264 
L 180.041143 74.000427 
L 178.000457 85.428831 
L 175.4496 101.652566 
L 171.368229 130.030885 
L 166.266514 165.699379 
L 162.185143 192.570431 
L 157.5936 219.156518 
L 155.552914 229.198712 
L 153.512229 237.865263 
L 151.981714 243.412093 
L 150.4512 248.001588 
L 148.920686 251.546021 
L 147.900343 253.417494 
L 146.88 254.754908 
L 145.859657 255.815312 
L 144.839314 256.55664 
L 144.329143 256.534589 
L 143.818971 256.919997 
L 143.3088 255.898413 
L 142.798629 257.035016 
L 142.288457 256.985026 
L 141.778286 256.72462 
L 141.268114 256.754185 
L 140.757943 256.532424 
L 139.227429 255.268996 
L 138.717257 254.439002 
L 138.207086 253.863861 
L 137.186743 252.126916 
L 136.676571 250.766547 
L 136.1664 250.110118 
L 134.635886 246.038085 
L 134.125714 245.188754 
L 133.615543 244.077252 
L 133.105371 238.132767 
L 132.085029 234.490766 
L 131.064686 229.540468 
L 130.044343 222.764331 
L 129.024 213.165044 
L 128.003657 199.016159 
L 126.983314 178.207039 
L 125.962971 147.749752 
L 124.942629 102.991555 
L 123.922286 38.645911 
L 123.442602 -1 
L 123.442602 -1 
" clip-path="url(#p3549fc2d42)" style="fill: none; stroke: #421fbd; stroke-width: 0.5; stroke-linecap: square"/>
   </g>
   <g id="line2d_35">
    <path d="M 363.702857 308.103463 
L 362.682514 307.910768 
L 359.621486 307.958916 
L 358.090971 307.957277 
L 351.968914 307.97601 
L 350.948571 307.940649 
L 349.418057 307.93671 
L 343.806171 307.845128 
L 342.275657 307.821887 
L 337.173943 307.422639 
L 335.133257 307.164268 
L 332.072229 307.068816 
L 330.031543 307.038862 
L 326.970514 306.851293 
L 322.378971 307.285959 
L 321.8688 307.437267 
L 320.848457 307.344078 
L 318.2976 307.501719 
L 315.236571 307.546547 
L 302.992457 307.290823 
L 297.380571 307.106017 
L 296.360229 306.932182 
L 293.809371 306.834918 
L 289.217829 306.52583 
L 275.4432 304.923052 
L 271.872 304.456967 
L 269.321143 304.170123 
L 262.688914 303.480714 
L 260.138057 303.198933 
L 253.505829 302.465445 
L 249.934629 302.007177 
L 245.343086 300.957389 
L 241.771886 299.282168 
L 240.241371 298.230507 
L 238.710857 296.812528 
L 237.690514 295.62219 
L 236.670171 294.248507 
L 235.139657 291.657493 
L 233.609143 288.299796 
L 232.5888 285.65286 
L 231.058286 280.978935 
L 230.037943 277.267917 
L 228.507429 270.796225 
L 226.976914 263.289963 
L 225.4464 254.646021 
L 223.405714 241.579748 
L 221.365029 227.038073 
L 218.304 203.245224 
L 208.610743 126.868135 
L 205.549714 104.412901 
L 202.998857 86.988027 
L 200.958171 74.431367 
L 199.427657 66.088503 
L 197.897143 59.015908 
L 196.366629 53.185401 
L 195.346286 50.177425 
L 194.325943 47.724257 
L 193.3056 45.911418 
L 192.285257 44.732168 
L 191.775086 44.361696 
L 191.264914 44.166996 
L 190.244571 44.155707 
L 189.224229 44.700709 
L 187.693714 46.557193 
L 186.673371 48.493672 
L 185.142857 52.125112 
L 183.612343 57.150621 
L 182.081829 63.263832 
L 180.551314 70.502709 
L 178.510629 81.663502 
L 176.469943 94.322654 
L 173.919086 111.511972 
L 163.715657 182.586122 
L 161.1648 198.831171 
L 158.613943 213.783943 
L 156.573257 224.53658 
L 154.532571 233.853077 
L 153.002057 240.106081 
L 150.961371 246.949418 
L 149.430857 250.883634 
L 148.410514 252.938671 
L 147.390171 254.579746 
L 145.859657 256.217887 
L 144.839314 257.005157 
L 144.329143 257.073351 
L 143.818971 257.39832 
L 143.3088 256.452257 
L 142.798629 257.634779 
L 142.288457 257.611212 
L 141.778286 257.326673 
L 141.268114 257.368792 
L 140.757943 257.249966 
L 139.227429 256.010471 
L 138.717257 255.118664 
L 138.207086 254.646021 
L 137.696914 253.72954 
L 137.186743 253.075074 
L 136.676571 251.69957 
L 136.1664 250.957397 
L 135.146057 248.598513 
L 134.635886 246.972305 
L 134.125714 246.106253 
L 133.615543 244.814015 
L 133.105371 239.054384 
L 132.5952 237.508296 
L 131.574857 233.023612 
L 130.554514 227.265355 
L 130.044343 223.6356 
L 129.024 213.996005 
L 128.003657 199.834074 
L 126.983314 178.867774 
L 125.962971 148.296601 
L 124.942629 103.52804 
L 123.922286 38.99112 
L 123.437583 -1 
L 123.437583 -1 
" clip-path="url(#p3549fc2d42)" style="fill: none; stroke: #391fc6; stroke-width: 0.5; stroke-linecap: square"/>
   </g>
   <g id="line2d_36">
    <path d="M 363.702857 308.099781 
L 363.192686 307.947178 
L 349.418057 307.996496 
L 348.397714 307.972104 
L 339.7248 307.720256 
L 337.173943 307.493364 
L 335.133257 307.187748 
L 326.460343 306.920968 
L 322.378971 307.337446 
L 321.8688 307.464451 
L 321.358629 307.333263 
L 318.2976 307.557116 
L 308.094171 307.493818 
L 305.543314 307.407311 
L 301.461943 307.321351 
L 299.421257 307.182531 
L 297.380571 307.108228 
L 295.850057 306.916814 
L 294.319543 306.87351 
L 291.768686 306.750294 
L 290.748343 306.68291 
L 286.1568 306.283397 
L 283.095771 306.014558 
L 274.933029 305.064849 
L 270.341486 304.578153 
L 268.810971 304.434441 
L 263.199086 303.836953 
L 260.648229 303.648036 
L 259.117714 303.4817 
L 250.4448 302.542727 
L 246.8736 301.959981 
L 245.343086 301.535604 
L 244.832914 301.25313 
L 243.812571 300.892881 
L 242.792229 300.408435 
L 241.261714 299.529525 
L 239.7312 298.345949 
L 238.200686 296.830005 
L 236.670171 294.805151 
L 235.649829 293.113943 
L 234.629486 291.172237 
L 233.098971 287.602233 
L 232.078629 284.695582 
L 230.548114 279.626679 
L 229.527771 275.689683 
L 227.997257 268.828043 
L 225.956571 257.951108 
L 224.426057 248.568138 
L 222.385371 234.620219 
L 219.834514 215.373293 
L 213.202286 161.847123 
L 208.610743 126.12852 
L 205.039543 99.944073 
L 202.488686 82.714453 
L 200.448 70.45414 
L 198.917486 62.482541 
L 197.386971 55.749884 
L 196.366629 52.017301 
L 195.346286 48.946618 
L 194.325943 46.515709 
L 193.3056 44.67847 
L 192.285257 43.482856 
L 191.264914 42.93751 
L 190.754743 42.879378 
L 190.244571 42.941582 
L 189.224229 43.516931 
L 188.203886 44.645346 
L 187.183543 46.355772 
L 186.1632 48.527689 
L 185.142857 51.039994 
L 183.612343 56.079037 
L 182.081829 62.285831 
L 180.551314 69.590084 
L 178.510629 80.804754 
L 176.469943 93.612858 
L 173.408914 114.571267 
L 163.205486 185.883221 
L 160.144457 205.01835 
L 158.103771 216.64797 
L 156.063086 227.127314 
L 154.532571 234.055001 
L 153.002057 240.247804 
L 151.471543 245.606827 
L 150.4512 248.608116 
L 148.410514 253.187823 
L 147.390171 254.857858 
L 145.859657 256.583165 
L 144.839314 257.398489 
L 144.329143 257.47316 
L 143.818971 257.831132 
L 143.3088 256.844936 
L 142.798629 258.118823 
L 142.288457 258.037031 
L 141.778286 257.826383 
L 141.268114 257.918529 
L 140.757943 257.74888 
L 139.227429 256.473423 
L 138.717257 255.672578 
L 138.207086 255.324286 
L 137.186743 253.594787 
L 136.676571 252.38948 
L 136.1664 251.568415 
L 135.146057 249.350203 
L 134.635886 247.753167 
L 133.615543 245.741128 
L 133.105371 239.98254 
L 132.085029 236.326448 
L 131.064686 231.263018 
L 130.044343 224.482427 
L 129.024 214.786959 
L 128.513829 208.464521 
L 128.003657 200.670141 
L 126.983314 179.661001 
L 125.962971 149.109325 
L 124.942629 104.20614 
L 123.922286 39.510763 
L 123.432187 -1 
L 123.432187 -1 
" clip-path="url(#p3549fc2d42)" style="fill: none; stroke: #301fcf; stroke-width: 0.5; stroke-linecap: square"/>
   </g>
   <g id="line2d_37">
    <path d="M 363.702857 308.167884 
L 363.192686 308.012477 
L 361.152 307.988204 
L 350.4384 308.011366 
L 347.887543 307.996724 
L 344.826514 307.906436 
L 340.745143 307.777715 
L 339.7248 307.723374 
L 333.092571 307.124304 
L 330.541714 307.066422 
L 329.0112 306.988724 
L 327.990857 306.918368 
L 326.460343 306.874774 
L 324.929829 307.07225 
L 320.338286 307.415039 
L 315.236571 307.580916 
L 310.134857 307.530101 
L 307.073829 307.456667 
L 297.890743 307.159023 
L 295.339886 306.947086 
L 290.748343 306.719925 
L 282.5856 306.094926 
L 274.933029 305.286069 
L 252.485486 303.320493 
L 245.853257 302.168313 
L 243.812571 301.397472 
L 240.751543 299.667349 
L 239.221029 298.360698 
L 237.690514 296.639118 
L 236.670171 295.244395 
L 235.139657 292.607175 
L 234.119314 290.455766 
L 233.098971 287.961118 
L 231.568457 283.453716 
L 230.037943 278.030279 
L 228.507429 271.490472 
L 226.976914 263.830271 
L 225.4464 255.054259 
L 223.915886 245.287054 
L 221.8752 230.833655 
L 219.324343 211.108313 
L 215.242971 177.896086 
L 211.1616 145.132668 
L 206.570057 110.183242 
L 203.509029 88.482817 
L 201.468343 75.403957 
L 199.937829 66.679227 
L 198.407314 59.038922 
L 196.8768 52.7773 
L 195.856457 49.403477 
L 194.836114 46.642067 
L 193.815771 44.563549 
L 192.795429 43.044201 
L 191.775086 42.232277 
L 191.264914 41.991287 
L 190.754743 41.985577 
L 190.244571 42.102239 
L 189.224229 42.708545 
L 188.203886 43.860434 
L 187.693714 44.620835 
L 186.673371 46.609631 
L 185.142857 50.403017 
L 184.122514 53.712098 
L 183.102171 57.526025 
L 181.571657 64.142549 
L 180.041143 71.841541 
L 178.000457 83.589475 
L 175.4496 100.224103 
L 172.388571 121.81121 
L 165.756343 168.961865 
L 162.695314 189.49327 
L 160.144457 205.412808 
L 157.5936 219.800632 
L 155.552914 229.995824 
L 153.002057 240.655651 
L 151.471543 246.07247 
L 150.4512 249.052081 
L 148.410514 253.618617 
L 147.390171 255.321311 
L 145.859657 257.003721 
L 144.839314 257.870381 
L 144.329143 257.928173 
L 143.818971 258.289184 
L 143.3088 257.321979 
L 142.798629 258.519741 
L 142.288457 258.523502 
L 141.778286 258.301094 
L 141.268114 258.419682 
L 140.757943 258.2442 
L 140.247771 257.782885 
L 139.7376 257.502245 
L 139.227429 257.040758 
L 138.717257 256.267982 
L 138.207086 255.862836 
L 137.696914 255.159688 
L 135.656229 251.183478 
L 135.146057 249.959968 
L 134.635886 248.373248 
L 134.125714 247.475711 
L 133.615543 246.263879 
L 133.105371 240.557627 
L 132.5952 238.869361 
L 131.574857 234.525343 
L 130.554514 228.707241 
L 130.044343 225.08968 
L 129.024 215.41885 
L 128.003657 201.212951 
L 126.983314 180.250886 
L 125.962971 149.747111 
L 124.942629 104.813896 
L 123.922286 40.101203 
L 123.424967 -1 
L 123.424967 -1 
" clip-path="url(#p3549fc2d42)" style="fill: none; stroke: #271fd8; stroke-width: 0.5; stroke-linecap: square"/>
   </g>
   <g id="line2d_38">
    <path d="M 363.702857 308.150125 
L 363.192686 307.956865 
L 357.5808 307.986868 
L 355.029943 308.020486 
L 352.989257 308.009576 
L 350.4384 307.997219 
L 346.8672 307.960024 
L 343.296 307.887291 
L 341.255314 307.810697 
L 338.194286 307.584 
L 335.133257 307.217189 
L 333.092571 307.074967 
L 325.950171 306.945351 
L 321.8688 307.446466 
L 321.358629 307.298956 
L 318.807771 307.479634 
L 304.522971 307.396879 
L 302.992457 307.326032 
L 300.4416 307.248786 
L 289.728 306.682616 
L 288.707657 306.627549 
L 286.666971 306.480159 
L 282.5856 306.162495 
L 279.524571 305.858906 
L 276.463543 305.538216 
L 273.912686 305.311344 
L 268.810971 304.864348 
L 265.239771 304.618376 
L 260.648229 304.269734 
L 255.546514 303.825094 
L 252.995657 303.5884 
L 250.4448 303.312672 
L 246.363429 302.576402 
L 245.343086 302.298732 
L 241.261714 300.264947 
L 240.241371 299.534585 
L 238.200686 297.563126 
L 237.180343 296.241098 
L 235.649829 293.856326 
L 234.119314 290.740907 
L 233.098971 288.224688 
L 232.078629 285.323305 
L 230.548114 280.262066 
L 229.0176 274.076635 
L 227.487086 266.791373 
L 225.956571 258.412847 
L 223.915886 245.608622 
L 221.8752 231.190119 
L 219.324343 211.447673 
L 207.080229 114.210079 
L 204.0192 92.2044 
L 201.468343 75.666739 
L 199.937829 66.884458 
L 198.407314 59.260808 
L 196.8768 52.927518 
L 195.856457 49.544575 
L 194.836114 46.793607 
L 193.815771 44.648443 
L 192.795429 43.181016 
L 192.285257 42.670407 
L 191.264914 42.078376 
L 190.754743 41.998937 
L 189.7344 42.33832 
L 188.714057 43.236637 
L 187.693714 44.64958 
L 186.673371 46.617729 
L 185.653029 48.950852 
L 184.632686 51.926551 
L 183.102171 57.380241 
L 181.571657 63.983308 
L 180.041143 71.722589 
L 178.510629 80.357464 
L 176.469943 93.193775 
L 173.408914 114.316007 
L 164.225829 179.138012 
L 161.674971 195.943019 
L 157.5936 219.707469 
L 155.552914 229.866297 
L 153.512229 238.632241 
L 151.981714 244.318599 
L 150.4512 249.03948 
L 148.410514 253.643793 
L 147.390171 255.306615 
L 145.859657 257.101986 
L 144.839314 257.860103 
L 144.329143 257.948062 
L 143.818971 258.390268 
L 143.3088 257.416632 
L 142.798629 258.597726 
L 142.288457 258.622708 
L 141.778286 258.380407 
L 141.268114 258.537168 
L 140.757943 258.405386 
L 140.247771 257.931639 
L 139.227429 257.271869 
L 138.717257 256.464023 
L 138.207086 256.040121 
L 137.186743 254.387391 
L 136.676571 253.212882 
L 136.1664 252.538629 
L 135.146057 250.237626 
L 134.635886 248.621688 
L 134.125714 247.776204 
L 133.615543 246.474218 
L 133.105371 240.836191 
L 132.5952 239.171836 
L 131.574857 234.848332 
L 130.554514 228.953857 
L 129.534171 220.87097 
L 129.024 215.637715 
L 128.003657 201.448602 
L 126.983314 180.372831 
L 125.962971 149.78848 
L 124.942629 104.763849 
L 123.922286 39.918646 
L 123.426806 -1 
L 123.426806 -1 
" clip-path="url(#p3549fc2d42)" style="fill: none; stroke: #1f1fe0; stroke-width: 0.5; stroke-linecap: square"/>
   </g>
   <g id="patch_3">
    <path d="M 57.6 307.584 
L 57.6 41.472 
" style="fill: none; stroke: #000000; stroke-width: 0.8; stroke-linejoin: miter; stroke-linecap: square"/>
   </g>
   <g id="patch_4">
    <path d="M 414.72 307.584 
L 414.72 41.472 
" style="fill: none; stroke: #000000; stroke-width: 0.8; stroke-linejoin: miter; stroke-linecap: square"/>
   </g>
   <g id="patch_5">
    <path d="M 57.6 307.584 
L 414.72 307.584 
" style="fill: none; stroke: #000000; stroke-width: 0.8; stroke-linejoin: miter; stroke-linecap: square"/>
   </g>
   <g id="patch_6">
    <path d="M 57.6 41.472 
L 414.72 41.472 
" style="fill: none; stroke: #000000; stroke-width: 0.8; stroke-linejoin: miter; stroke-linecap: square"/>
   </g>
   <g id="text_18">
    <!-- Direct Titration of Alizarin &amp; ompPBA in Acetone  -->
    <g transform="translate(90.0075 22.034625) scale(0.12 -0.12)">
     <defs>
      <path id="DejaVuSans-44" d="M 1259 4147 
L 1259 519 
L 2022 519 
Q 2988 519 3436 956 
Q 3884 1394 3884 2338 
Q 3884 3275 3436 3711 
Q 2988 4147 2022 4147 
L 1259 4147 
z
M 628 4666 
L 1925 4666 
Q 3281 4666 3915 4102 
Q 4550 3538 4550 2338 
Q 4550 1131 3912 565 
Q 3275 0 1925 0 
L 628 0 
L 628 4666 
z
" transform="scale(0.015625)"/>
      <path id="DejaVuSans-69" d="M 603 3500 
L 1178 3500 
L 1178 0 
L 603 0 
L 603 3500 
z
M 603 4863 
L 1178 4863 
L 1178 4134 
L 603 4134 
L 603 4863 
z
" transform="scale(0.015625)"/>
      <path id="DejaVuSans-54" d="M -19 4666 
L 3928 4666 
L 3928 4134 
L 2272 4134 
L 2272 0 
L 1638 0 
L 1638 4134 
L -19 4134 
L -19 4666 
z
" transform="scale(0.015625)"/>
      <path id="DejaVuSans-66" d="M 2375 4863 
L 2375 4384 
L 1825 4384 
Q 1516 4384 1395 4259 
Q 1275 4134 1275 3809 
L 1275 3500 
L 2222 3500 
L 2222 3053 
L 1275 3053 
L 1275 0 
L 697 0 
L 697 3053 
L 147 3053 
L 147 3500 
L 697 3500 
L 697 3744 
Q 697 4328 969 4595 
Q 1241 4863 1831 4863 
L 2375 4863 
z
" transform="scale(0.015625)"/>
      <path id="DejaVuSans-7a" d="M 353 3500 
L 3084 3500 
L 3084 2975 
L 922 459 
L 3084 459 
L 3084 0 
L 275 0 
L 275 525 
L 2438 3041 
L 353 3041 
L 353 3500 
z
" transform="scale(0.015625)"/>
      <path id="DejaVuSans-26" d="M 1556 2509 
Q 1272 2256 1139 2004 
Q 1006 1753 1006 1478 
Q 1006 1022 1337 719 
Q 1669 416 2169 416 
Q 2466 416 2725 514 
Q 2984 613 3213 813 
L 1556 2509 
z
M 1997 2859 
L 3584 1234 
Q 3769 1513 3872 1830 
Q 3975 2147 3994 2503 
L 4575 2503 
Q 4538 2091 4375 1687 
Q 4213 1284 3922 891 
L 4794 0 
L 4006 0 
L 3559 459 
Q 3234 181 2878 45 
Q 2522 -91 2113 -91 
Q 1359 -91 881 339 
Q 403 769 403 1441 
Q 403 1841 612 2192 
Q 822 2544 1241 2853 
Q 1091 3050 1012 3245 
Q 934 3441 934 3628 
Q 934 4134 1281 4442 
Q 1628 4750 2203 4750 
Q 2463 4750 2720 4694 
Q 2978 4638 3244 4525 
L 3244 3956 
Q 2972 4103 2725 4179 
Q 2478 4256 2266 4256 
Q 1938 4256 1733 4082 
Q 1528 3909 1528 3634 
Q 1528 3475 1620 3314 
Q 1713 3153 1997 2859 
z
" transform="scale(0.015625)"/>
      <path id="DejaVuSans-70" d="M 1159 525 
L 1159 -1331 
L 581 -1331 
L 581 3500 
L 1159 3500 
L 1159 2969 
Q 1341 3281 1617 3432 
Q 1894 3584 2278 3584 
Q 2916 3584 3314 3078 
Q 3713 2572 3713 1747 
Q 3713 922 3314 415 
Q 2916 -91 2278 -91 
Q 1894 -91 1617 61 
Q 1341 213 1159 525 
z
M 3116 1747 
Q 3116 2381 2855 2742 
Q 2594 3103 2138 3103 
Q 1681 3103 1420 2742 
Q 1159 2381 1159 1747 
Q 1159 1113 1420 752 
Q 1681 391 2138 391 
Q 2594 391 2855 752 
Q 3116 1113 3116 1747 
z
" transform="scale(0.015625)"/>
      <path id="DejaVuSans-50" d="M 1259 4147 
L 1259 2394 
L 2053 2394 
Q 2494 2394 2734 2622 
Q 2975 2850 2975 3272 
Q 2975 3691 2734 3919 
Q 2494 4147 2053 4147 
L 1259 4147 
z
M 628 4666 
L 2053 4666 
Q 2838 4666 3239 4311 
Q 3641 3956 3641 3272 
Q 3641 2581 3239 2228 
Q 2838 1875 2053 1875 
L 1259 1875 
L 1259 0 
L 628 0 
L 628 4666 
z
" transform="scale(0.015625)"/>
      <path id="DejaVuSans-42" d="M 1259 2228 
L 1259 519 
L 2272 519 
Q 2781 519 3026 730 
Q 3272 941 3272 1375 
Q 3272 1813 3026 2020 
Q 2781 2228 2272 2228 
L 1259 2228 
z
M 1259 4147 
L 1259 2741 
L 2194 2741 
Q 2656 2741 2882 2914 
Q 3109 3088 3109 3444 
Q 3109 3797 2882 3972 
Q 2656 4147 2194 4147 
L 1259 4147 
z
M 628 4666 
L 2241 4666 
Q 2963 4666 3353 4366 
Q 3744 4066 3744 3513 
Q 3744 3084 3544 2831 
Q 3344 2578 2956 2516 
Q 3422 2416 3680 2098 
Q 3938 1781 3938 1306 
Q 3938 681 3513 340 
Q 3088 0 2303 0 
L 628 0 
L 628 4666 
z
" transform="scale(0.015625)"/>
     </defs>
     <use xlink:href="#DejaVuSans-44"/>
     <use xlink:href="#DejaVuSans-69" x="77.001953"/>
     <use xlink:href="#DejaVuSans-72" x="104.785156"/>
     <use xlink:href="#DejaVuSans-65" x="143.648438"/>
     <use xlink:href="#DejaVuSans-63" x="205.171875"/>
     <use xlink:href="#DejaVuSans-74" x="260.152344"/>
     <use xlink:href="#DejaVuSans-20" x="299.361328"/>
     <use xlink:href="#DejaVuSans-54" x="331.148438"/>
     <use xlink:href="#DejaVuSans-69" x="389.107422"/>
     <use xlink:href="#DejaVuSans-74" x="416.890625"/>
     <use xlink:href="#DejaVuSans-72" x="456.099609"/>
     <use xlink:href="#DejaVuSans-61" x="497.212891"/>
     <use xlink:href="#DejaVuSans-74" x="558.492188"/>
     <use xlink:href="#DejaVuSans-69" x="597.701172"/>
     <use xlink:href="#DejaVuSans-6f" x="625.484375"/>
     <use xlink:href="#DejaVuSans-6e" x="686.666016"/>
     <use xlink:href="#DejaVuSans-20" x="750.044922"/>
     <use xlink:href="#DejaVuSans-6f" x="781.832031"/>
     <use xlink:href="#DejaVuSans-66" x="843.013672"/>
     <use xlink:href="#DejaVuSans-20" x="878.21875"/>
     <use xlink:href="#DejaVuSans-41" x="910.005859"/>
     <use xlink:href="#DejaVuSans-6c" x="978.414062"/>
     <use xlink:href="#DejaVuSans-69" x="1006.197266"/>
     <use xlink:href="#DejaVuSans-7a" x="1033.980469"/>
     <use xlink:href="#DejaVuSans-61" x="1086.470703"/>
     <use xlink:href="#DejaVuSans-72" x="1147.75"/>
     <use xlink:href="#DejaVuSans-69" x="1188.863281"/>
     <use xlink:href="#DejaVuSans-6e" x="1216.646484"/>
     <use xlink:href="#DejaVuSans-20" x="1280.025391"/>
     <use xlink:href="#DejaVuSans-26" x="1311.8125"/>
     <use xlink:href="#DejaVuSans-20" x="1389.791016"/>
     <use xlink:href="#DejaVuSans-6f" x="1421.578125"/>
     <use xlink:href="#DejaVuSans-6d" x="1482.759766"/>
     <use xlink:href="#DejaVuSans-70" x="1580.171875"/>
     <use xlink:href="#DejaVuSans-50" x="1643.648438"/>
     <use xlink:href="#DejaVuSans-42" x="1703.951172"/>
     <use xlink:href="#DejaVuSans-41" x="1772.554688"/>
     <use xlink:href="#DejaVuSans-20" x="1840.962891"/>
     <use xlink:href="#DejaVuSans-69" x="1872.75"/>
     <use xlink:href="#DejaVuSans-6e" x="1900.533203"/>
     <use xlink:href="#DejaVuSans-20" x="1963.912109"/>
     <use xlink:href="#DejaVuSans-41" x="1995.699219"/>
     <use xlink:href="#DejaVuSans-63" x="2062.357422"/>
     <use xlink:href="#DejaVuSans-65" x="2117.337891"/>
     <use xlink:href="#DejaVuSans-74" x="2178.861328"/>
     <use xlink:href="#DejaVuSans-6f" x="2218.070312"/>
     <use xlink:href="#DejaVuSans-6e" x="2279.251953"/>
     <use xlink:href="#DejaVuSans-65" x="2342.630859"/>
     <use xlink:href="#DejaVuSans-20" x="2404.154297"/>
    </g>
    <!--  -->
    <g transform="translate(236.16 35.472) scale(0.12 -0.12)"/>
   </g>
  </g>
 </g>
 <defs>
  <clipPath id="p3549fc2d42">
   <rect x="57.6" y="41.472" width="357.12" height="266.112"/>
  </clipPath>
 </defs>
</svg>
