<?xml version="1.0" encoding="utf-8" standalone="no"?>
<!DOCTYPE svg PUBLIC "-//W3C//DTD SVG 1.1//EN"
  "http://www.w3.org/Graphics/SVG/1.1/DTD/svg11.dtd">
<svg xmlns:xlink="http://www.w3.org/1999/xlink" width="460.8pt" height="345.6pt" viewBox="0 0 460.8 345.6" xmlns="http://www.w3.org/2000/svg" version="1.1">
 <metadata>
  <rdf:RDF xmlns:dc="http://purl.org/dc/elements/1.1/" xmlns:cc="http://creativecommons.org/ns#" xmlns:rdf="http://www.w3.org/1999/02/22-rdf-syntax-ns#">
   <cc:Work>
    <dc:type rdf:resource="http://purl.org/dc/dcmitype/StillImage"/>
    <dc:date>2024-11-03T21:06:52.342764</dc:date>
    <dc:format>image/svg+xml</dc:format>
    <dc:creator>
     <cc:Agent>
      <dc:title>Matplotlib v3.9.2, https://matplotlib.org/</dc:title>
     </cc:Agent>
    </dc:creator>
   </cc:Work>
  </rdf:RDF>
 </metadata>
 <defs>
  <style type="text/css">*{stroke-linejoin: round; stroke-linecap: butt}</style>
 </defs>
 <g id="figure_1">
  <g id="patch_1">
   <path d="M 0 345.6 
L 460.8 345.6 
L 460.8 0 
L 0 0 
z
" style="fill: #ffffff"/>
  </g>
  <g id="axes_1">
   <g id="patch_2">
    <path d="M 57.6 307.584 
L 414.72 307.584 
L 414.72 41.472 
L 57.6 41.472 
z
" style="fill: #ffffff"/>
   </g>
   <g id="matplotlib.axis_1">
    <g id="xtick_1">
     <g id="line2d_1">
      <defs>
       <path id="mcff09b314a" d="M 0 0 
L 0 3.5 
" style="stroke: #000000; stroke-width: 0.8"/>
      </defs>
      <g>
       <use xlink:href="#mcff09b314a" x="57.6" y="307.584" style="stroke: #000000; stroke-width: 0.8"/>
      </g>
     </g>
     <g id="text_1">
      <!-- 200 -->
      <g transform="translate(48.05625 322.182437) scale(0.1 -0.1)">
       <defs>
        <path id="DejaVuSans-32" d="M 1228 531 
L 3431 531 
L 3431 0 
L 469 0 
L 469 531 
Q 828 903 1448 1529 
Q 2069 2156 2228 2338 
Q 2531 2678 2651 2914 
Q 2772 3150 2772 3378 
Q 2772 3750 2511 3984 
Q 2250 4219 1831 4219 
Q 1534 4219 1204 4116 
Q 875 4013 500 3803 
L 500 4441 
Q 881 4594 1212 4672 
Q 1544 4750 1819 4750 
Q 2544 4750 2975 4387 
Q 3406 4025 3406 3419 
Q 3406 3131 3298 2873 
Q 3191 2616 2906 2266 
Q 2828 2175 2409 1742 
Q 1991 1309 1228 531 
z
" transform="scale(0.015625)"/>
        <path id="DejaVuSans-30" d="M 2034 4250 
Q 1547 4250 1301 3770 
Q 1056 3291 1056 2328 
Q 1056 1369 1301 889 
Q 1547 409 2034 409 
Q 2525 409 2770 889 
Q 3016 1369 3016 2328 
Q 3016 3291 2770 3770 
Q 2525 4250 2034 4250 
z
M 2034 4750 
Q 2819 4750 3233 4129 
Q 3647 3509 3647 2328 
Q 3647 1150 3233 529 
Q 2819 -91 2034 -91 
Q 1250 -91 836 529 
Q 422 1150 422 2328 
Q 422 3509 836 4129 
Q 1250 4750 2034 4750 
z
" transform="scale(0.015625)"/>
       </defs>
       <use xlink:href="#DejaVuSans-32"/>
       <use xlink:href="#DejaVuSans-30" x="63.623047"/>
       <use xlink:href="#DejaVuSans-30" x="127.246094"/>
      </g>
     </g>
    </g>
    <g id="xtick_2">
     <g id="line2d_2">
      <g>
       <use xlink:href="#mcff09b314a" x="108.617143" y="307.584" style="stroke: #000000; stroke-width: 0.8"/>
      </g>
     </g>
     <g id="text_2">
      <!-- 300 -->
      <g transform="translate(99.073393 322.182437) scale(0.1 -0.1)">
       <defs>
        <path id="DejaVuSans-33" d="M 2597 2516 
Q 3050 2419 3304 2112 
Q 3559 1806 3559 1356 
Q 3559 666 3084 287 
Q 2609 -91 1734 -91 
Q 1441 -91 1130 -33 
Q 819 25 488 141 
L 488 750 
Q 750 597 1062 519 
Q 1375 441 1716 441 
Q 2309 441 2620 675 
Q 2931 909 2931 1356 
Q 2931 1769 2642 2001 
Q 2353 2234 1838 2234 
L 1294 2234 
L 1294 2753 
L 1863 2753 
Q 2328 2753 2575 2939 
Q 2822 3125 2822 3475 
Q 2822 3834 2567 4026 
Q 2313 4219 1838 4219 
Q 1578 4219 1281 4162 
Q 984 4106 628 3988 
L 628 4550 
Q 988 4650 1302 4700 
Q 1616 4750 1894 4750 
Q 2613 4750 3031 4423 
Q 3450 4097 3450 3541 
Q 3450 3153 3228 2886 
Q 3006 2619 2597 2516 
z
" transform="scale(0.015625)"/>
       </defs>
       <use xlink:href="#DejaVuSans-33"/>
       <use xlink:href="#DejaVuSans-30" x="63.623047"/>
       <use xlink:href="#DejaVuSans-30" x="127.246094"/>
      </g>
     </g>
    </g>
    <g id="xtick_3">
     <g id="line2d_3">
      <g>
       <use xlink:href="#mcff09b314a" x="159.634286" y="307.584" style="stroke: #000000; stroke-width: 0.8"/>
      </g>
     </g>
     <g id="text_3">
      <!-- 400 -->
      <g transform="translate(150.090536 322.182437) scale(0.1 -0.1)">
       <defs>
        <path id="DejaVuSans-34" d="M 2419 4116 
L 825 1625 
L 2419 1625 
L 2419 4116 
z
M 2253 4666 
L 3047 4666 
L 3047 1625 
L 3713 1625 
L 3713 1100 
L 3047 1100 
L 3047 0 
L 2419 0 
L 2419 1100 
L 313 1100 
L 313 1709 
L 2253 4666 
z
" transform="scale(0.015625)"/>
       </defs>
       <use xlink:href="#DejaVuSans-34"/>
       <use xlink:href="#DejaVuSans-30" x="63.623047"/>
       <use xlink:href="#DejaVuSans-30" x="127.246094"/>
      </g>
     </g>
    </g>
    <g id="xtick_4">
     <g id="line2d_4">
      <g>
       <use xlink:href="#mcff09b314a" x="210.651429" y="307.584" style="stroke: #000000; stroke-width: 0.8"/>
      </g>
     </g>
     <g id="text_4">
      <!-- 500 -->
      <g transform="translate(201.107679 322.182437) scale(0.1 -0.1)">
       <defs>
        <path id="DejaVuSans-35" d="M 691 4666 
L 3169 4666 
L 3169 4134 
L 1269 4134 
L 1269 2991 
Q 1406 3038 1543 3061 
Q 1681 3084 1819 3084 
Q 2600 3084 3056 2656 
Q 3513 2228 3513 1497 
Q 3513 744 3044 326 
Q 2575 -91 1722 -91 
Q 1428 -91 1123 -41 
Q 819 9 494 109 
L 494 744 
Q 775 591 1075 516 
Q 1375 441 1709 441 
Q 2250 441 2565 725 
Q 2881 1009 2881 1497 
Q 2881 1984 2565 2268 
Q 2250 2553 1709 2553 
Q 1456 2553 1204 2497 
Q 953 2441 691 2322 
L 691 4666 
z
" transform="scale(0.015625)"/>
       </defs>
       <use xlink:href="#DejaVuSans-35"/>
       <use xlink:href="#DejaVuSans-30" x="63.623047"/>
       <use xlink:href="#DejaVuSans-30" x="127.246094"/>
      </g>
     </g>
    </g>
    <g id="xtick_5">
     <g id="line2d_5">
      <g>
       <use xlink:href="#mcff09b314a" x="261.668571" y="307.584" style="stroke: #000000; stroke-width: 0.8"/>
      </g>
     </g>
     <g id="text_5">
      <!-- 600 -->
      <g transform="translate(252.124821 322.182437) scale(0.1 -0.1)">
       <defs>
        <path id="DejaVuSans-36" d="M 2113 2584 
Q 1688 2584 1439 2293 
Q 1191 2003 1191 1497 
Q 1191 994 1439 701 
Q 1688 409 2113 409 
Q 2538 409 2786 701 
Q 3034 994 3034 1497 
Q 3034 2003 2786 2293 
Q 2538 2584 2113 2584 
z
M 3366 4563 
L 3366 3988 
Q 3128 4100 2886 4159 
Q 2644 4219 2406 4219 
Q 1781 4219 1451 3797 
Q 1122 3375 1075 2522 
Q 1259 2794 1537 2939 
Q 1816 3084 2150 3084 
Q 2853 3084 3261 2657 
Q 3669 2231 3669 1497 
Q 3669 778 3244 343 
Q 2819 -91 2113 -91 
Q 1303 -91 875 529 
Q 447 1150 447 2328 
Q 447 3434 972 4092 
Q 1497 4750 2381 4750 
Q 2619 4750 2861 4703 
Q 3103 4656 3366 4563 
z
" transform="scale(0.015625)"/>
       </defs>
       <use xlink:href="#DejaVuSans-36"/>
       <use xlink:href="#DejaVuSans-30" x="63.623047"/>
       <use xlink:href="#DejaVuSans-30" x="127.246094"/>
      </g>
     </g>
    </g>
    <g id="xtick_6">
     <g id="line2d_6">
      <g>
       <use xlink:href="#mcff09b314a" x="312.685714" y="307.584" style="stroke: #000000; stroke-width: 0.8"/>
      </g>
     </g>
     <g id="text_6">
      <!-- 700 -->
      <g transform="translate(303.141964 322.182437) scale(0.1 -0.1)">
       <defs>
        <path id="DejaVuSans-37" d="M 525 4666 
L 3525 4666 
L 3525 4397 
L 1831 0 
L 1172 0 
L 2766 4134 
L 525 4134 
L 525 4666 
z
" transform="scale(0.015625)"/>
       </defs>
       <use xlink:href="#DejaVuSans-37"/>
       <use xlink:href="#DejaVuSans-30" x="63.623047"/>
       <use xlink:href="#DejaVuSans-30" x="127.246094"/>
      </g>
     </g>
    </g>
    <g id="xtick_7">
     <g id="line2d_7">
      <g>
       <use xlink:href="#mcff09b314a" x="363.702857" y="307.584" style="stroke: #000000; stroke-width: 0.8"/>
      </g>
     </g>
     <g id="text_7">
      <!-- 800 -->
      <g transform="translate(354.159107 322.182437) scale(0.1 -0.1)">
       <defs>
        <path id="DejaVuSans-38" d="M 2034 2216 
Q 1584 2216 1326 1975 
Q 1069 1734 1069 1313 
Q 1069 891 1326 650 
Q 1584 409 2034 409 
Q 2484 409 2743 651 
Q 3003 894 3003 1313 
Q 3003 1734 2745 1975 
Q 2488 2216 2034 2216 
z
M 1403 2484 
Q 997 2584 770 2862 
Q 544 3141 544 3541 
Q 544 4100 942 4425 
Q 1341 4750 2034 4750 
Q 2731 4750 3128 4425 
Q 3525 4100 3525 3541 
Q 3525 3141 3298 2862 
Q 3072 2584 2669 2484 
Q 3125 2378 3379 2068 
Q 3634 1759 3634 1313 
Q 3634 634 3220 271 
Q 2806 -91 2034 -91 
Q 1263 -91 848 271 
Q 434 634 434 1313 
Q 434 1759 690 2068 
Q 947 2378 1403 2484 
z
M 1172 3481 
Q 1172 3119 1398 2916 
Q 1625 2713 2034 2713 
Q 2441 2713 2670 2916 
Q 2900 3119 2900 3481 
Q 2900 3844 2670 4047 
Q 2441 4250 2034 4250 
Q 1625 4250 1398 4047 
Q 1172 3844 1172 3481 
z
" transform="scale(0.015625)"/>
       </defs>
       <use xlink:href="#DejaVuSans-38"/>
       <use xlink:href="#DejaVuSans-30" x="63.623047"/>
       <use xlink:href="#DejaVuSans-30" x="127.246094"/>
      </g>
     </g>
    </g>
    <g id="xtick_8">
     <g id="line2d_8">
      <g>
       <use xlink:href="#mcff09b314a" x="414.72" y="307.584" style="stroke: #000000; stroke-width: 0.8"/>
      </g>
     </g>
     <g id="text_8">
      <!-- 900 -->
      <g transform="translate(405.17625 322.182437) scale(0.1 -0.1)">
       <defs>
        <path id="DejaVuSans-39" d="M 703 97 
L 703 672 
Q 941 559 1184 500 
Q 1428 441 1663 441 
Q 2288 441 2617 861 
Q 2947 1281 2994 2138 
Q 2813 1869 2534 1725 
Q 2256 1581 1919 1581 
Q 1219 1581 811 2004 
Q 403 2428 403 3163 
Q 403 3881 828 4315 
Q 1253 4750 1959 4750 
Q 2769 4750 3195 4129 
Q 3622 3509 3622 2328 
Q 3622 1225 3098 567 
Q 2575 -91 1691 -91 
Q 1453 -91 1209 -44 
Q 966 3 703 97 
z
M 1959 2075 
Q 2384 2075 2632 2365 
Q 2881 2656 2881 3163 
Q 2881 3666 2632 3958 
Q 2384 4250 1959 4250 
Q 1534 4250 1286 3958 
Q 1038 3666 1038 3163 
Q 1038 2656 1286 2365 
Q 1534 2075 1959 2075 
z
" transform="scale(0.015625)"/>
       </defs>
       <use xlink:href="#DejaVuSans-39"/>
       <use xlink:href="#DejaVuSans-30" x="63.623047"/>
       <use xlink:href="#DejaVuSans-30" x="127.246094"/>
      </g>
     </g>
    </g>
    <g id="text_9">
     <!-- Wavelength (nm) -->
     <g transform="translate(192.967812 335.860562) scale(0.1 -0.1)">
      <defs>
       <path id="DejaVuSans-57" d="M 213 4666 
L 850 4666 
L 1831 722 
L 2809 4666 
L 3519 4666 
L 4500 722 
L 5478 4666 
L 6119 4666 
L 4947 0 
L 4153 0 
L 3169 4050 
L 2175 0 
L 1381 0 
L 213 4666 
z
" transform="scale(0.015625)"/>
       <path id="DejaVuSans-61" d="M 2194 1759 
Q 1497 1759 1228 1600 
Q 959 1441 959 1056 
Q 959 750 1161 570 
Q 1363 391 1709 391 
Q 2188 391 2477 730 
Q 2766 1069 2766 1631 
L 2766 1759 
L 2194 1759 
z
M 3341 1997 
L 3341 0 
L 2766 0 
L 2766 531 
Q 2569 213 2275 61 
Q 1981 -91 1556 -91 
Q 1019 -91 701 211 
Q 384 513 384 1019 
Q 384 1609 779 1909 
Q 1175 2209 1959 2209 
L 2766 2209 
L 2766 2266 
Q 2766 2663 2505 2880 
Q 2244 3097 1772 3097 
Q 1472 3097 1187 3025 
Q 903 2953 641 2809 
L 641 3341 
Q 956 3463 1253 3523 
Q 1550 3584 1831 3584 
Q 2591 3584 2966 3190 
Q 3341 2797 3341 1997 
z
" transform="scale(0.015625)"/>
       <path id="DejaVuSans-76" d="M 191 3500 
L 800 3500 
L 1894 563 
L 2988 3500 
L 3597 3500 
L 2284 0 
L 1503 0 
L 191 3500 
z
" transform="scale(0.015625)"/>
       <path id="DejaVuSans-65" d="M 3597 1894 
L 3597 1613 
L 953 1613 
Q 991 1019 1311 708 
Q 1631 397 2203 397 
Q 2534 397 2845 478 
Q 3156 559 3463 722 
L 3463 178 
Q 3153 47 2828 -22 
Q 2503 -91 2169 -91 
Q 1331 -91 842 396 
Q 353 884 353 1716 
Q 353 2575 817 3079 
Q 1281 3584 2069 3584 
Q 2775 3584 3186 3129 
Q 3597 2675 3597 1894 
z
M 3022 2063 
Q 3016 2534 2758 2815 
Q 2500 3097 2075 3097 
Q 1594 3097 1305 2825 
Q 1016 2553 972 2059 
L 3022 2063 
z
" transform="scale(0.015625)"/>
       <path id="DejaVuSans-6c" d="M 603 4863 
L 1178 4863 
L 1178 0 
L 603 0 
L 603 4863 
z
" transform="scale(0.015625)"/>
       <path id="DejaVuSans-6e" d="M 3513 2113 
L 3513 0 
L 2938 0 
L 2938 2094 
Q 2938 2591 2744 2837 
Q 2550 3084 2163 3084 
Q 1697 3084 1428 2787 
Q 1159 2491 1159 1978 
L 1159 0 
L 581 0 
L 581 3500 
L 1159 3500 
L 1159 2956 
Q 1366 3272 1645 3428 
Q 1925 3584 2291 3584 
Q 2894 3584 3203 3211 
Q 3513 2838 3513 2113 
z
" transform="scale(0.015625)"/>
       <path id="DejaVuSans-67" d="M 2906 1791 
Q 2906 2416 2648 2759 
Q 2391 3103 1925 3103 
Q 1463 3103 1205 2759 
Q 947 2416 947 1791 
Q 947 1169 1205 825 
Q 1463 481 1925 481 
Q 2391 481 2648 825 
Q 2906 1169 2906 1791 
z
M 3481 434 
Q 3481 -459 3084 -895 
Q 2688 -1331 1869 -1331 
Q 1566 -1331 1297 -1286 
Q 1028 -1241 775 -1147 
L 775 -588 
Q 1028 -725 1275 -790 
Q 1522 -856 1778 -856 
Q 2344 -856 2625 -561 
Q 2906 -266 2906 331 
L 2906 616 
Q 2728 306 2450 153 
Q 2172 0 1784 0 
Q 1141 0 747 490 
Q 353 981 353 1791 
Q 353 2603 747 3093 
Q 1141 3584 1784 3584 
Q 2172 3584 2450 3431 
Q 2728 3278 2906 2969 
L 2906 3500 
L 3481 3500 
L 3481 434 
z
" transform="scale(0.015625)"/>
       <path id="DejaVuSans-74" d="M 1172 4494 
L 1172 3500 
L 2356 3500 
L 2356 3053 
L 1172 3053 
L 1172 1153 
Q 1172 725 1289 603 
Q 1406 481 1766 481 
L 2356 481 
L 2356 0 
L 1766 0 
Q 1100 0 847 248 
Q 594 497 594 1153 
L 594 3053 
L 172 3053 
L 172 3500 
L 594 3500 
L 594 4494 
L 1172 4494 
z
" transform="scale(0.015625)"/>
       <path id="DejaVuSans-68" d="M 3513 2113 
L 3513 0 
L 2938 0 
L 2938 2094 
Q 2938 2591 2744 2837 
Q 2550 3084 2163 3084 
Q 1697 3084 1428 2787 
Q 1159 2491 1159 1978 
L 1159 0 
L 581 0 
L 581 4863 
L 1159 4863 
L 1159 2956 
Q 1366 3272 1645 3428 
Q 1925 3584 2291 3584 
Q 2894 3584 3203 3211 
Q 3513 2838 3513 2113 
z
" transform="scale(0.015625)"/>
       <path id="DejaVuSans-20" transform="scale(0.015625)"/>
       <path id="DejaVuSans-28" d="M 1984 4856 
Q 1566 4138 1362 3434 
Q 1159 2731 1159 2009 
Q 1159 1288 1364 580 
Q 1569 -128 1984 -844 
L 1484 -844 
Q 1016 -109 783 600 
Q 550 1309 550 2009 
Q 550 2706 781 3412 
Q 1013 4119 1484 4856 
L 1984 4856 
z
" transform="scale(0.015625)"/>
       <path id="DejaVuSans-6d" d="M 3328 2828 
Q 3544 3216 3844 3400 
Q 4144 3584 4550 3584 
Q 5097 3584 5394 3201 
Q 5691 2819 5691 2113 
L 5691 0 
L 5113 0 
L 5113 2094 
Q 5113 2597 4934 2840 
Q 4756 3084 4391 3084 
Q 3944 3084 3684 2787 
Q 3425 2491 3425 1978 
L 3425 0 
L 2847 0 
L 2847 2094 
Q 2847 2600 2669 2842 
Q 2491 3084 2119 3084 
Q 1678 3084 1418 2786 
Q 1159 2488 1159 1978 
L 1159 0 
L 581 0 
L 581 3500 
L 1159 3500 
L 1159 2956 
Q 1356 3278 1631 3431 
Q 1906 3584 2284 3584 
Q 2666 3584 2933 3390 
Q 3200 3197 3328 2828 
z
" transform="scale(0.015625)"/>
       <path id="DejaVuSans-29" d="M 513 4856 
L 1013 4856 
Q 1481 4119 1714 3412 
Q 1947 2706 1947 2009 
Q 1947 1309 1714 600 
Q 1481 -109 1013 -844 
L 513 -844 
Q 928 -128 1133 580 
Q 1338 1288 1338 2009 
Q 1338 2731 1133 3434 
Q 928 4138 513 4856 
z
" transform="scale(0.015625)"/>
      </defs>
      <use xlink:href="#DejaVuSans-57"/>
      <use xlink:href="#DejaVuSans-61" x="92.501953"/>
      <use xlink:href="#DejaVuSans-76" x="153.78125"/>
      <use xlink:href="#DejaVuSans-65" x="212.960938"/>
      <use xlink:href="#DejaVuSans-6c" x="274.484375"/>
      <use xlink:href="#DejaVuSans-65" x="302.267578"/>
      <use xlink:href="#DejaVuSans-6e" x="363.791016"/>
      <use xlink:href="#DejaVuSans-67" x="427.169922"/>
      <use xlink:href="#DejaVuSans-74" x="490.646484"/>
      <use xlink:href="#DejaVuSans-68" x="529.855469"/>
      <use xlink:href="#DejaVuSans-20" x="593.234375"/>
      <use xlink:href="#DejaVuSans-28" x="625.021484"/>
      <use xlink:href="#DejaVuSans-6e" x="664.035156"/>
      <use xlink:href="#DejaVuSans-6d" x="727.414062"/>
      <use xlink:href="#DejaVuSans-29" x="824.826172"/>
     </g>
    </g>
   </g>
   <g id="matplotlib.axis_2">
    <g id="ytick_1">
     <g id="line2d_9">
      <defs>
       <path id="mf2aa8423a6" d="M 0 0 
L -3.5 0 
" style="stroke: #000000; stroke-width: 0.8"/>
      </defs>
      <g>
       <use xlink:href="#mf2aa8423a6" x="57.6" y="307.584" style="stroke: #000000; stroke-width: 0.8"/>
      </g>
     </g>
     <g id="text_10">
      <!-- 0.0 -->
      <g transform="translate(34.696875 311.383219) scale(0.1 -0.1)">
       <defs>
        <path id="DejaVuSans-2e" d="M 684 794 
L 1344 794 
L 1344 0 
L 684 0 
L 684 794 
z
" transform="scale(0.015625)"/>
       </defs>
       <use xlink:href="#DejaVuSans-30"/>
       <use xlink:href="#DejaVuSans-2e" x="63.623047"/>
       <use xlink:href="#DejaVuSans-30" x="95.410156"/>
      </g>
     </g>
    </g>
    <g id="ytick_2">
     <g id="line2d_10">
      <g>
       <use xlink:href="#mf2aa8423a6" x="57.6" y="263.232" style="stroke: #000000; stroke-width: 0.8"/>
      </g>
     </g>
     <g id="text_11">
      <!-- 0.2 -->
      <g transform="translate(34.696875 267.031219) scale(0.1 -0.1)">
       <use xlink:href="#DejaVuSans-30"/>
       <use xlink:href="#DejaVuSans-2e" x="63.623047"/>
       <use xlink:href="#DejaVuSans-32" x="95.410156"/>
      </g>
     </g>
    </g>
    <g id="ytick_3">
     <g id="line2d_11">
      <g>
       <use xlink:href="#mf2aa8423a6" x="57.6" y="218.88" style="stroke: #000000; stroke-width: 0.8"/>
      </g>
     </g>
     <g id="text_12">
      <!-- 0.4 -->
      <g transform="translate(34.696875 222.679219) scale(0.1 -0.1)">
       <use xlink:href="#DejaVuSans-30"/>
       <use xlink:href="#DejaVuSans-2e" x="63.623047"/>
       <use xlink:href="#DejaVuSans-34" x="95.410156"/>
      </g>
     </g>
    </g>
    <g id="ytick_4">
     <g id="line2d_12">
      <g>
       <use xlink:href="#mf2aa8423a6" x="57.6" y="174.528" style="stroke: #000000; stroke-width: 0.8"/>
      </g>
     </g>
     <g id="text_13">
      <!-- 0.6 -->
      <g transform="translate(34.696875 178.327219) scale(0.1 -0.1)">
       <use xlink:href="#DejaVuSans-30"/>
       <use xlink:href="#DejaVuSans-2e" x="63.623047"/>
       <use xlink:href="#DejaVuSans-36" x="95.410156"/>
      </g>
     </g>
    </g>
    <g id="ytick_5">
     <g id="line2d_13">
      <g>
       <use xlink:href="#mf2aa8423a6" x="57.6" y="130.176" style="stroke: #000000; stroke-width: 0.8"/>
      </g>
     </g>
     <g id="text_14">
      <!-- 0.8 -->
      <g transform="translate(34.696875 133.975219) scale(0.1 -0.1)">
       <use xlink:href="#DejaVuSans-30"/>
       <use xlink:href="#DejaVuSans-2e" x="63.623047"/>
       <use xlink:href="#DejaVuSans-38" x="95.410156"/>
      </g>
     </g>
    </g>
    <g id="ytick_6">
     <g id="line2d_14">
      <g>
       <use xlink:href="#mf2aa8423a6" x="57.6" y="85.824" style="stroke: #000000; stroke-width: 0.8"/>
      </g>
     </g>
     <g id="text_15">
      <!-- 1.0 -->
      <g transform="translate(34.696875 89.623219) scale(0.1 -0.1)">
       <defs>
        <path id="DejaVuSans-31" d="M 794 531 
L 1825 531 
L 1825 4091 
L 703 3866 
L 703 4441 
L 1819 4666 
L 2450 4666 
L 2450 531 
L 3481 531 
L 3481 0 
L 794 0 
L 794 531 
z
" transform="scale(0.015625)"/>
       </defs>
       <use xlink:href="#DejaVuSans-31"/>
       <use xlink:href="#DejaVuSans-2e" x="63.623047"/>
       <use xlink:href="#DejaVuSans-30" x="95.410156"/>
      </g>
     </g>
    </g>
    <g id="ytick_7">
     <g id="line2d_15">
      <g>
       <use xlink:href="#mf2aa8423a6" x="57.6" y="41.472" style="stroke: #000000; stroke-width: 0.8"/>
      </g>
     </g>
     <g id="text_16">
      <!-- 1.2 -->
      <g transform="translate(34.696875 45.271219) scale(0.1 -0.1)">
       <use xlink:href="#DejaVuSans-31"/>
       <use xlink:href="#DejaVuSans-2e" x="63.623047"/>
       <use xlink:href="#DejaVuSans-32" x="95.410156"/>
      </g>
     </g>
    </g>
    <g id="text_17">
     <!-- Absorbance -->
     <g transform="translate(28.617187 204.074875) rotate(-90) scale(0.1 -0.1)">
      <defs>
       <path id="DejaVuSans-41" d="M 2188 4044 
L 1331 1722 
L 3047 1722 
L 2188 4044 
z
M 1831 4666 
L 2547 4666 
L 4325 0 
L 3669 0 
L 3244 1197 
L 1141 1197 
L 716 0 
L 50 0 
L 1831 4666 
z
" transform="scale(0.015625)"/>
       <path id="DejaVuSans-62" d="M 3116 1747 
Q 3116 2381 2855 2742 
Q 2594 3103 2138 3103 
Q 1681 3103 1420 2742 
Q 1159 2381 1159 1747 
Q 1159 1113 1420 752 
Q 1681 391 2138 391 
Q 2594 391 2855 752 
Q 3116 1113 3116 1747 
z
M 1159 2969 
Q 1341 3281 1617 3432 
Q 1894 3584 2278 3584 
Q 2916 3584 3314 3078 
Q 3713 2572 3713 1747 
Q 3713 922 3314 415 
Q 2916 -91 2278 -91 
Q 1894 -91 1617 61 
Q 1341 213 1159 525 
L 1159 0 
L 581 0 
L 581 4863 
L 1159 4863 
L 1159 2969 
z
" transform="scale(0.015625)"/>
       <path id="DejaVuSans-73" d="M 2834 3397 
L 2834 2853 
Q 2591 2978 2328 3040 
Q 2066 3103 1784 3103 
Q 1356 3103 1142 2972 
Q 928 2841 928 2578 
Q 928 2378 1081 2264 
Q 1234 2150 1697 2047 
L 1894 2003 
Q 2506 1872 2764 1633 
Q 3022 1394 3022 966 
Q 3022 478 2636 193 
Q 2250 -91 1575 -91 
Q 1294 -91 989 -36 
Q 684 19 347 128 
L 347 722 
Q 666 556 975 473 
Q 1284 391 1588 391 
Q 1994 391 2212 530 
Q 2431 669 2431 922 
Q 2431 1156 2273 1281 
Q 2116 1406 1581 1522 
L 1381 1569 
Q 847 1681 609 1914 
Q 372 2147 372 2553 
Q 372 3047 722 3315 
Q 1072 3584 1716 3584 
Q 2034 3584 2315 3537 
Q 2597 3491 2834 3397 
z
" transform="scale(0.015625)"/>
       <path id="DejaVuSans-6f" d="M 1959 3097 
Q 1497 3097 1228 2736 
Q 959 2375 959 1747 
Q 959 1119 1226 758 
Q 1494 397 1959 397 
Q 2419 397 2687 759 
Q 2956 1122 2956 1747 
Q 2956 2369 2687 2733 
Q 2419 3097 1959 3097 
z
M 1959 3584 
Q 2709 3584 3137 3096 
Q 3566 2609 3566 1747 
Q 3566 888 3137 398 
Q 2709 -91 1959 -91 
Q 1206 -91 779 398 
Q 353 888 353 1747 
Q 353 2609 779 3096 
Q 1206 3584 1959 3584 
z
" transform="scale(0.015625)"/>
       <path id="DejaVuSans-72" d="M 2631 2963 
Q 2534 3019 2420 3045 
Q 2306 3072 2169 3072 
Q 1681 3072 1420 2755 
Q 1159 2438 1159 1844 
L 1159 0 
L 581 0 
L 581 3500 
L 1159 3500 
L 1159 2956 
Q 1341 3275 1631 3429 
Q 1922 3584 2338 3584 
Q 2397 3584 2469 3576 
Q 2541 3569 2628 3553 
L 2631 2963 
z
" transform="scale(0.015625)"/>
       <path id="DejaVuSans-63" d="M 3122 3366 
L 3122 2828 
Q 2878 2963 2633 3030 
Q 2388 3097 2138 3097 
Q 1578 3097 1268 2742 
Q 959 2388 959 1747 
Q 959 1106 1268 751 
Q 1578 397 2138 397 
Q 2388 397 2633 464 
Q 2878 531 3122 666 
L 3122 134 
Q 2881 22 2623 -34 
Q 2366 -91 2075 -91 
Q 1284 -91 818 406 
Q 353 903 353 1747 
Q 353 2603 823 3093 
Q 1294 3584 2113 3584 
Q 2378 3584 2631 3529 
Q 2884 3475 3122 3366 
z
" transform="scale(0.015625)"/>
      </defs>
      <use xlink:href="#DejaVuSans-41"/>
      <use xlink:href="#DejaVuSans-62" x="68.408203"/>
      <use xlink:href="#DejaVuSans-73" x="131.884766"/>
      <use xlink:href="#DejaVuSans-6f" x="183.984375"/>
      <use xlink:href="#DejaVuSans-72" x="245.166016"/>
      <use xlink:href="#DejaVuSans-62" x="286.279297"/>
      <use xlink:href="#DejaVuSans-61" x="349.755859"/>
      <use xlink:href="#DejaVuSans-6e" x="411.035156"/>
      <use xlink:href="#DejaVuSans-63" x="474.414062"/>
      <use xlink:href="#DejaVuSans-65" x="529.394531"/>
     </g>
    </g>
   </g>
   <g id="line2d_16">
    <path d="M 363.702857 308.98233 
L 363.192686 308.795646 
L 361.152 308.831324 
L 347.887543 308.507637 
L 345.846857 308.342905 
L 343.806171 308.203488 
L 335.133257 307.282694 
L 334.112914 307.205952 
L 326.460343 306.26968 
L 325.44 306.141365 
L 323.399314 305.891295 
L 317.277257 304.723486 
L 314.7264 304.113033 
L 312.685714 303.485095 
L 310.645029 302.913205 
L 308.094171 302.098141 
L 300.951771 299.539772 
L 297.380571 297.950736 
L 294.829714 296.50639 
L 292.789029 295.37627 
L 289.728 293.388706 
L 286.1568 290.625159 
L 283.605943 288.489935 
L 282.075429 287.233835 
L 274.933029 281.118545 
L 269.321143 277.060921 
L 257.077029 269.689935 
L 255.546514 268.909631 
L 254.016 268.083547 
L 250.954971 266.785266 
L 249.934629 266.442307 
L 248.404114 266.004291 
L 244.832914 265.272392 
L 242.792229 265.131109 
L 239.7312 265.253936 
L 234.629486 265.972109 
L 227.487086 267.577363 
L 226.466743 267.843754 
L 225.4464 268.094303 
L 221.365029 268.906713 
L 219.324343 269.021266 
L 216.773486 268.689936 
L 215.242971 268.161447 
L 213.712457 267.314049 
L 212.692114 266.594197 
L 211.1616 265.233323 
L 209.631086 263.510257 
L 207.5904 260.785702 
L 205.039543 256.866432 
L 202.488686 252.461981 
L 199.937829 247.581222 
L 198.407314 244.385108 
L 195.346286 237.314072 
L 191.264914 227.487965 
L 189.224229 223.21455 
L 187.693714 220.468665 
L 185.653029 217.270072 
L 183.612343 214.721987 
L 182.592 213.487148 
L 181.571657 212.439277 
L 180.551314 211.403276 
L 178.510629 209.856065 
L 177.490286 209.433316 
L 175.959771 209.220494 
L 174.429257 209.762198 
L 173.408914 210.422268 
L 171.368229 212.239343 
L 166.776686 217.210863 
L 164.736 219.711278 
L 162.185143 223.128806 
L 156.573257 231.269951 
L 155.552914 232.373212 
L 154.0224 233.68558 
L 152.491886 234.434382 
L 151.471543 234.678167 
L 150.4512 234.40981 
L 149.941029 234.248287 
L 148.920686 233.55841 
L 147.900343 232.48873 
L 146.88 231.156951 
L 143.818971 225.999567 
L 143.3088 223.334074 
L 142.798629 223.500203 
L 142.288457 222.307668 
L 141.778286 220.703819 
L 141.268114 219.592151 
L 140.247771 216.360983 
L 139.227429 213.206095 
L 138.717257 211.005866 
L 138.207086 209.739846 
L 136.676571 204.435519 
L 134.635886 199.416739 
L 133.615543 198.879199 
L 133.105371 192.121626 
L 132.085029 190.28374 
L 131.064686 188.048602 
L 129.024 183.93254 
L 128.003657 181.780185 
L 125.4528 177.665313 
L 124.432457 176.513556 
L 122.391771 174.442056 
L 120.861257 171.986667 
L 119.840914 169.467476 
L 118.820571 165.830749 
L 117.800229 160.900066 
L 116.779886 154.527386 
L 115.759543 146.455252 
L 114.7392 136.268209 
L 113.208686 117.647337 
L 112.698514 109.043247 
L 112.188343 102.82535 
L 111.168 85.880907 
L 110.147657 66.569438 
L 108.617143 32.180994 
L 107.20709 -1 
L 107.20709 -1 
" clip-path="url(#pa2ee084e97)" style="fill: none; stroke: #e01f1f; stroke-width: 0.5; stroke-linecap: square"/>
   </g>
   <g id="line2d_17">
    <path d="M 363.702857 308.928171 
L 362.682514 308.803311 
L 348.397714 308.486566 
L 339.214629 307.718092 
L 338.194286 307.584 
L 335.643429 307.396202 
L 319.828114 305.556332 
L 318.2976 305.24557 
L 316.767086 304.939099 
L 311.1552 303.433614 
L 310.134857 303.200749 
L 307.584 302.357773 
L 306.563657 302.07437 
L 304.522971 301.427952 
L 297.380571 298.634953 
L 295.339886 297.50085 
L 292.789029 296.134524 
L 288.707657 293.435971 
L 286.666971 291.878598 
L 276.973714 283.810087 
L 275.4432 282.59432 
L 273.402514 281.05005 
L 270.341486 278.961228 
L 267.280457 277.032409 
L 263.709257 275.002277 
L 262.178743 274.124022 
L 256.566857 271.013514 
L 252.485486 269.04702 
L 247.893943 267.551355 
L 243.3024 266.774693 
L 241.261714 266.751985 
L 238.710857 266.908297 
L 229.527771 268.263666 
L 228.507429 268.46365 
L 222.385371 269.415437 
L 218.304 269.252737 
L 216.773486 268.881456 
L 215.242971 268.221812 
L 214.222629 267.631301 
L 213.202286 266.908849 
L 211.671771 265.581894 
L 209.631086 263.238657 
L 207.5904 260.427905 
L 206.059886 258.024469 
L 203.509029 253.644445 
L 198.917486 244.556031 
L 196.8768 239.925791 
L 191.264914 226.309695 
L 189.224229 222.002356 
L 187.693714 219.239704 
L 186.673371 217.619973 
L 184.122514 214.059962 
L 182.081829 211.759778 
L 180.041143 209.866278 
L 179.0208 209.097014 
L 177.490286 208.425365 
L 176.980114 208.329218 
L 175.4496 208.416727 
L 173.919086 209.270559 
L 172.898743 210.009342 
L 170.858057 212.093862 
L 166.266514 217.490827 
L 163.205486 221.680361 
L 157.083429 231.082516 
L 156.063086 232.47862 
L 154.0224 234.438316 
L 152.491886 235.42245 
L 151.471543 235.730613 
L 150.4512 235.604534 
L 148.920686 234.915734 
L 147.390171 233.439867 
L 144.839314 229.796551 
L 144.329143 228.767905 
L 143.818971 228.009626 
L 143.3088 225.473238 
L 142.798629 225.772241 
L 142.288457 224.586679 
L 141.778286 223.107236 
L 141.268114 222.054071 
L 140.757943 220.739542 
L 138.717257 214.114843 
L 137.696914 211.026904 
L 137.186743 209.574822 
L 136.676571 207.72884 
L 136.1664 206.603571 
L 135.146057 204.068816 
L 134.635886 203.022981 
L 134.125714 202.386703 
L 133.615543 202.114962 
L 133.105371 195.612621 
L 126.473143 182.046561 
L 124.942629 179.794174 
L 124.432457 179.009809 
L 122.901943 177.264541 
L 121.8816 175.670736 
L 120.861257 173.731971 
L 119.840914 170.892919 
L 118.820571 167.090492 
L 117.800229 161.97945 
L 116.779886 155.503023 
L 115.759543 147.177501 
L 114.7392 137.087478 
L 113.208686 118.199392 
L 112.698514 109.642609 
L 112.188343 103.254214 
L 110.657829 77.184591 
L 109.127314 44.687394 
L 107.203975 -1 
L 107.203975 -1 
" clip-path="url(#pa2ee084e97)" style="fill: none; stroke: #d61f29; stroke-width: 0.5; stroke-linecap: square"/>
   </g>
   <g id="line2d_18">
    <path d="M 363.702857 308.843283 
L 363.192686 308.675751 
L 360.641829 308.675659 
L 355.540114 308.600908 
L 354.0096 308.561772 
L 352.989257 308.533759 
L 342.275657 307.937571 
L 321.8688 305.96134 
L 320.848457 305.739634 
L 318.807771 305.438181 
L 316.767086 305.062332 
L 306.563657 302.319974 
L 304.522971 301.68931 
L 297.380571 298.991972 
L 295.850057 298.113077 
L 293.2992 296.833418 
L 291.768686 295.986401 
L 289.217829 294.297531 
L 287.177143 292.832103 
L 281.055086 287.933169 
L 277.994057 285.418406 
L 274.422857 282.670249 
L 272.892343 281.577934 
L 265.749943 277.18594 
L 258.097371 273.055437 
L 254.016 271.049309 
L 250.954971 269.766427 
L 246.8736 268.694823 
L 243.812571 268.136538 
L 240.751543 268.093606 
L 235.649829 268.47032 
L 223.915886 269.642337 
L 221.8752 269.602316 
L 219.834514 269.453978 
L 216.773486 268.545348 
L 215.242971 267.810461 
L 213.202286 266.278434 
L 211.671771 264.786953 
L 209.631086 262.324216 
L 208.100571 260.122374 
L 206.570057 257.749303 
L 202.488686 250.36463 
L 199.427657 244.058205 
L 196.366629 236.954621 
L 190.754743 223.254485 
L 189.224229 220.044888 
L 187.693714 217.292652 
L 185.653029 214.121936 
L 183.612343 211.539728 
L 180.551314 208.479771 
L 179.0208 207.370972 
L 178.000457 206.841588 
L 176.469943 206.731482 
L 175.4496 206.928562 
L 174.429257 207.453512 
L 172.388571 209.245981 
L 170.858057 210.957002 
L 169.327543 212.804677 
L 167.286857 215.318958 
L 163.205486 221.217907 
L 157.083429 231.226884 
L 155.552914 233.322976 
L 153.512229 235.333515 
L 151.981714 236.243972 
L 150.961371 236.464943 
L 150.4512 236.461909 
L 148.920686 235.89566 
L 147.390171 234.578249 
L 145.349486 232.058304 
L 143.818971 229.575766 
L 143.3088 227.040092 
L 142.798629 227.457045 
L 142.288457 226.401343 
L 141.778286 224.895398 
L 141.268114 223.963475 
L 140.757943 222.73085 
L 136.1664 209.096328 
L 134.635886 205.388911 
L 133.615543 204.645753 
L 133.105371 198.378659 
L 132.085029 196.332134 
L 128.513829 188.784566 
L 126.983314 185.330153 
L 125.4528 182.547119 
L 121.8816 176.966696 
L 120.861257 174.70339 
L 119.840914 171.574668 
L 118.820571 167.689919 
L 118.3104 165.301466 
L 117.290057 159.315187 
L 116.269714 151.927542 
L 115.249371 142.729095 
L 113.718857 125.368816 
L 113.208686 118.648783 
L 112.698514 110.156398 
L 112.188343 103.956873 
L 110.657829 77.868719 
L 109.637486 57.410991 
L 107.5968 10.278986 
L 107.113876 -1 
L 107.113876 -1 
" clip-path="url(#pa2ee084e97)" style="fill: none; stroke: #cc1f33; stroke-width: 0.5; stroke-linecap: square"/>
   </g>
   <g id="line2d_19">
    <path d="M 363.702857 308.951044 
L 363.192686 308.737082 
L 361.152 308.760529 
L 359.621486 308.765926 
L 352.989257 308.599759 
L 348.907886 308.436408 
L 347.887543 308.443456 
L 344.316343 308.175548 
L 339.7248 307.717091 
L 336.1536 307.407418 
L 335.133257 307.356071 
L 326.460343 306.498884 
L 321.8688 306.139223 
L 320.848457 305.896478 
L 316.256914 305.140941 
L 310.134857 303.667011 
L 308.604343 303.257697 
L 299.931429 300.530154 
L 296.8704 299.178476 
L 295.339886 298.4703 
L 290.748343 296.009279 
L 287.687314 294.011525 
L 284.626286 291.709757 
L 282.5856 290.174657 
L 278.504229 286.954455 
L 274.422857 283.904116 
L 269.831314 280.95138 
L 264.7296 278.14709 
L 262.688914 277.12388 
L 261.1584 276.292188 
L 257.5872 274.517791 
L 253.505829 272.600868 
L 249.934629 271.328969 
L 248.404114 270.898676 
L 244.322743 270.057914 
L 241.771886 269.867595 
L 240.241371 269.856433 
L 235.649829 270.004461 
L 231.568457 270.179423 
L 225.4464 270.059652 
L 224.426057 269.959196 
L 222.895543 269.740059 
L 221.365029 269.465857 
L 219.324343 268.878036 
L 217.283657 267.976338 
L 214.7328 266.272561 
L 213.202286 264.901422 
L 211.671771 263.242923 
L 209.631086 260.567631 
L 207.5904 257.360549 
L 206.059886 254.687343 
L 203.509029 249.870777 
L 198.917486 240.016198 
L 195.856457 232.523346 
L 191.264914 221.003018 
L 188.714057 215.666122 
L 187.693714 213.890168 
L 185.653029 210.663712 
L 184.122514 208.740028 
L 182.592 207.016906 
L 180.551314 205.187974 
L 179.530971 204.537388 
L 178.510629 203.994779 
L 177.490286 203.755151 
L 176.469943 203.867543 
L 175.4496 204.151887 
L 174.429257 204.781682 
L 172.898743 206.208881 
L 170.858057 208.628191 
L 168.3072 212.14901 
L 166.266514 215.058566 
L 160.654629 224.653181 
L 157.083429 231.03703 
L 155.042743 233.928524 
L 153.512229 235.640397 
L 152.491886 236.438509 
L 151.471543 237.008287 
L 150.961371 237.196174 
L 150.4512 237.253295 
L 149.941029 237.083742 
L 149.430857 237.132966 
L 148.410514 236.670034 
L 147.390171 235.893745 
L 144.839314 233.041383 
L 144.329143 232.100524 
L 143.818971 231.565489 
L 143.3088 229.241454 
L 142.798629 229.560482 
L 142.288457 228.587352 
L 141.778286 227.289398 
L 141.268114 226.474043 
L 140.247771 223.766807 
L 138.207086 217.93975 
L 136.676571 213.401825 
L 136.1664 212.314545 
L 135.656229 210.923622 
L 135.146057 210.05958 
L 134.635886 208.731687 
L 133.615543 207.950257 
L 133.105371 201.888661 
L 131.574857 198.885462 
L 130.554514 196.75281 
L 129.024 193.21786 
L 128.003657 190.735798 
L 126.473143 187.269846 
L 125.4528 185.19561 
L 123.412114 181.336452 
L 122.901943 180.39745 
L 120.861257 175.487731 
L 119.840914 172.138692 
L 118.3104 165.302631 
L 117.290057 159.288013 
L 116.269714 151.821351 
L 115.249371 142.483138 
L 114.229029 131.434287 
L 113.208686 118.776127 
L 112.698514 110.502696 
L 112.188343 104.342257 
L 111.168 88.118694 
L 109.637486 59.059797 
L 108.106971 24.643675 
L 106.986237 -1 
L 106.986237 -1 
" clip-path="url(#pa2ee084e97)" style="fill: none; stroke: #c21f3d; stroke-width: 0.5; stroke-linecap: square"/>
   </g>
   <g id="line2d_20">
    <path d="M 363.702857 308.853069 
L 363.192686 308.727881 
L 345.336686 308.267889 
L 342.275657 307.960431 
L 331.562057 307.079575 
L 330.541714 306.949677 
L 327.990857 306.689955 
L 323.909486 306.288174 
L 321.8688 306.214309 
L 321.358629 305.994458 
L 319.828114 305.840641 
L 313.706057 304.697789 
L 309.624686 303.666778 
L 307.584 303.163325 
L 304.522971 302.245285 
L 302.992457 301.806725 
L 297.380571 299.728261 
L 296.360229 299.146579 
L 291.258514 296.628616 
L 287.687314 294.324662 
L 279.524571 288.171535 
L 275.953371 285.47306 
L 272.382171 283.035066 
L 270.341486 281.811853 
L 265.749943 279.293598 
L 261.668571 277.255159 
L 256.056686 274.537253 
L 252.995657 273.226785 
L 247.893943 271.611991 
L 245.853257 271.283707 
L 244.322743 270.887285 
L 242.792229 270.773016 
L 239.221029 270.687985 
L 235.649829 270.647313 
L 234.629486 270.643391 
L 230.548114 270.457332 
L 227.487086 270.097239 
L 222.385371 268.89537 
L 219.324343 267.60573 
L 216.773486 266.087747 
L 214.7328 264.450561 
L 212.181943 261.676766 
L 210.651429 259.700445 
L 208.610743 256.568672 
L 207.080229 253.932218 
L 204.0192 248.019843 
L 201.468343 242.593779 
L 198.917486 236.752229 
L 190.244571 215.214213 
L 188.203886 211.280783 
L 186.1632 208.016953 
L 185.142857 206.585227 
L 183.102171 204.273128 
L 181.061486 202.444778 
L 180.041143 201.817435 
L 179.0208 201.271066 
L 178.000457 201.035397 
L 177.490286 200.970239 
L 175.959771 201.341828 
L 174.939429 201.925948 
L 173.919086 202.846358 
L 172.388571 204.59809 
L 169.327543 208.918574 
L 163.205486 219.14794 
L 156.063086 232.68584 
L 155.042743 234.105676 
L 153.512229 236.016281 
L 152.491886 236.969241 
L 151.471543 237.692248 
L 150.4512 238.064881 
L 149.941029 237.926403 
L 149.430857 238.105387 
L 148.410514 237.748682 
L 147.390171 237.15566 
L 146.369829 236.242664 
L 144.839314 234.631221 
L 144.329143 233.824385 
L 143.818971 233.301603 
L 143.3088 231.061548 
L 142.798629 231.524374 
L 142.288457 230.55162 
L 141.778286 229.324157 
L 141.268114 228.533877 
L 140.247771 225.947876 
L 139.227429 223.359707 
L 138.717257 221.685736 
L 137.696914 219.073854 
L 136.676571 215.974739 
L 135.656229 213.834836 
L 134.635886 211.715388 
L 134.125714 211.113417 
L 133.615543 210.765905 
L 133.105371 204.785183 
L 131.574857 201.809961 
L 129.534171 197.307849 
L 124.942629 186.113085 
L 123.922286 183.866091 
L 122.901943 181.637799 
L 121.371429 177.660578 
L 120.351086 174.29503 
L 118.820571 167.826164 
L 117.800229 162.436647 
L 116.779886 155.797455 
L 115.759543 147.36681 
L 114.7392 137.285353 
L 113.208686 119.207658 
L 112.698514 111.076611 
L 112.188343 105.300536 
L 110.657829 80.946891 
L 109.127314 50.663194 
L 106.790241 -1 
L 106.790241 -1 
" clip-path="url(#pa2ee084e97)" style="fill: none; stroke: #b81f47; stroke-width: 0.5; stroke-linecap: square"/>
   </g>
   <g id="line2d_21">
    <path d="M 363.702857 308.832972 
L 363.192686 308.668294 
L 360.641829 308.644851 
L 356.050286 308.603803 
L 345.336686 308.206868 
L 342.785829 307.944266 
L 321.8688 306.347522 
L 321.358629 306.150467 
L 317.787429 305.750366 
L 316.256914 305.459715 
L 314.7264 305.177952 
L 309.624686 303.998214 
L 308.604343 303.807694 
L 300.951771 301.657542 
L 298.400914 300.743062 
L 297.380571 300.316252 
L 296.360229 299.790152 
L 294.319543 298.986611 
L 288.707657 295.955776 
L 286.1568 294.256419 
L 280.544914 290.249464 
L 276.463543 287.307346 
L 275.4432 286.607765 
L 269.831314 283.237214 
L 264.7296 280.628312 
L 260.138057 278.517615 
L 255.546514 276.53975 
L 252.485486 275.309168 
L 246.8736 273.761801 
L 245.853257 273.591575 
L 242.792229 273.062018 
L 235.139657 272.618283 
L 231.568457 272.154783 
L 229.0176 271.641726 
L 225.4464 270.484327 
L 223.405714 269.685049 
L 218.814171 266.927248 
L 217.283657 265.742724 
L 215.753143 264.383247 
L 214.222629 262.754303 
L 212.181943 260.234368 
L 210.651429 257.980411 
L 208.610743 254.597507 
L 206.570057 250.812819 
L 203.509029 244.361459 
L 199.427657 234.838063 
L 195.856457 225.529689 
L 191.775086 214.864825 
L 189.7344 210.237546 
L 188.203886 207.26344 
L 186.673371 204.757361 
L 185.142857 202.528951 
L 183.612343 200.778845 
L 182.081829 199.286389 
L 180.551314 198.159494 
L 179.530971 197.645258 
L 178.510629 197.323771 
L 177.490286 197.299344 
L 176.469943 197.581336 
L 174.939429 198.5399 
L 173.919086 199.558671 
L 171.8784 202.268194 
L 169.837714 205.472114 
L 166.266514 211.654898 
L 164.225829 215.540743 
L 161.1648 221.947049 
L 157.083429 230.588751 
L 155.552914 233.354767 
L 153.512229 236.297461 
L 152.491886 237.462885 
L 151.471543 238.386825 
L 150.4512 239.004604 
L 149.941029 239.014941 
L 149.430857 239.195141 
L 148.410514 239.100699 
L 147.390171 238.714087 
L 145.349486 237.21879 
L 144.839314 236.773313 
L 144.329143 236.038501 
L 143.818971 235.685001 
L 143.3088 233.524115 
L 142.798629 234.080015 
L 142.288457 233.340254 
L 141.778286 232.181095 
L 141.268114 231.490213 
L 140.247771 229.212732 
L 137.696914 222.831659 
L 137.186743 221.530936 
L 136.676571 219.920239 
L 136.1664 219.01341 
L 134.635886 215.659962 
L 134.125714 215.530751 
L 133.615543 214.763952 
L 133.105371 209.154357 
L 131.574857 206.123117 
L 129.534171 201.603762 
L 128.003657 197.587237 
L 126.983314 194.611651 
L 125.962971 191.914441 
L 125.4528 190.380738 
L 124.432457 187.857859 
L 122.391771 182.27511 
L 120.861257 177.179004 
L 119.840914 173.195769 
L 118.3104 165.740687 
L 117.290057 159.364875 
L 116.269714 151.769974 
L 115.249371 142.645785 
L 113.718857 125.975204 
L 112.188343 106.111226 
L 110.657829 82.706323 
L 109.127314 53.44929 
L 106.596732 -1 
L 106.596732 -1 
" clip-path="url(#pa2ee084e97)" style="fill: none; stroke: #ad1f52; stroke-width: 0.5; stroke-linecap: square"/>
   </g>
   <g id="line2d_22">
    <path d="M 363.702857 308.812631 
L 363.192686 308.644214 
L 354.519771 308.548326 
L 354.0096 308.585481 
L 352.989257 308.499196 
L 343.296 308.015322 
L 340.745143 307.737013 
L 322.378971 306.400332 
L 321.8688 306.473254 
L 321.358629 306.282739 
L 316.767086 305.705509 
L 311.665371 304.732034 
L 309.114514 304.202946 
L 307.584 303.830228 
L 305.543314 303.33355 
L 302.482286 302.508396 
L 298.400914 301.127884 
L 297.380571 300.742757 
L 295.850057 300.066746 
L 292.789029 298.766898 
L 288.197486 296.297837 
L 286.666971 295.289546 
L 280.544914 291.091772 
L 279.0144 289.975815 
L 275.953371 287.872182 
L 268.3008 283.623354 
L 267.280457 283.139512 
L 265.239771 282.20137 
L 262.178743 280.830109 
L 260.648229 280.209689 
L 251.465143 276.505567 
L 244.322743 274.791857 
L 235.139657 273.832334 
L 232.078629 273.211032 
L 229.0176 272.241435 
L 224.936229 270.289349 
L 222.895543 268.990112 
L 219.834514 266.706623 
L 216.773486 263.789037 
L 214.7328 261.45866 
L 212.692114 258.761553 
L 210.141257 254.749879 
L 207.5904 249.990299 
L 205.549714 245.778334 
L 201.468343 236.224331 
L 198.917486 229.717933 
L 195.346286 220.031499 
L 191.264914 209.322911 
L 189.7344 205.861605 
L 188.203886 202.850799 
L 186.673371 200.315892 
L 185.142857 198.106568 
L 183.102171 195.816279 
L 181.061486 194.218192 
L 179.530971 193.487068 
L 178.510629 193.25401 
L 178.000457 193.252226 
L 176.980114 193.529908 
L 175.959771 194.130848 
L 174.939429 194.904863 
L 173.408914 196.737621 
L 171.8784 199.03302 
L 170.347886 201.614566 
L 166.776686 208.186565 
L 161.1648 220.412896 
L 157.083429 229.784842 
L 155.042743 233.615727 
L 153.512229 236.034145 
L 151.981714 237.985342 
L 150.4512 239.231832 
L 148.920686 239.767753 
L 147.390171 239.640365 
L 145.349486 238.564254 
L 143.818971 237.210084 
L 143.3088 235.198911 
L 142.798629 235.79576 
L 142.288457 235.145841 
L 141.778286 234.160715 
L 141.268114 233.528462 
L 140.757943 232.641103 
L 135.146057 219.67712 
L 134.635886 218.577613 
L 134.125714 218.339743 
L 133.615543 217.827774 
L 133.105371 212.3554 
L 132.5952 211.487353 
L 131.574857 209.230055 
L 130.554514 207.155422 
L 126.983314 197.345791 
L 121.8816 181.343297 
L 120.351086 175.144777 
L 118.820571 167.803872 
L 117.800229 162.017037 
L 116.269714 150.967565 
L 115.249371 141.733469 
L 113.718857 125.362512 
L 113.208686 119.256663 
L 112.698514 111.753666 
L 112.188343 106.1163 
L 111.168 91.63441 
L 110.147657 75.233515 
L 108.617143 45.000179 
L 106.391361 -1 
L 106.391361 -1 
" clip-path="url(#pa2ee084e97)" style="fill: none; stroke: #a31f5c; stroke-width: 0.5; stroke-linecap: square"/>
   </g>
   <g id="line2d_23">
    <path d="M 363.702857 308.918814 
L 363.192686 308.755205 
L 361.152 308.730626 
L 359.621486 308.714719 
L 356.560457 308.662829 
L 355.540114 308.641052 
L 352.989257 308.559012 
L 351.968914 308.55055 
L 346.8672 308.337726 
L 343.806171 308.086018 
L 339.214629 307.704499 
L 338.194286 307.584 
L 325.950171 306.682128 
L 323.909486 306.641839 
L 322.378971 306.523314 
L 321.8688 306.594364 
L 320.848457 306.362385 
L 319.828114 306.296695 
L 317.277257 306.007253 
L 313.195886 305.332248 
L 307.073829 304.096696 
L 297.890743 301.5763 
L 295.339886 300.503886 
L 292.789029 299.493302 
L 291.258514 298.769185 
L 287.687314 296.834445 
L 286.1568 295.889991 
L 281.565257 293.012796 
L 281.055086 292.583394 
L 280.034743 291.957232 
L 276.463543 289.617162 
L 273.912686 288.092957 
L 271.872 286.895796 
L 264.219429 283.390395 
L 260.138057 281.774625 
L 257.5872 280.725457 
L 250.954971 278.4734 
L 244.322743 276.929513 
L 237.180343 276.041751 
L 232.5888 274.893906 
L 230.548114 274.106375 
L 226.976914 272.167405 
L 224.936229 270.753824 
L 222.895543 269.146372 
L 220.344686 266.765192 
L 217.793829 264.017248 
L 215.242971 260.879613 
L 213.202286 257.965596 
L 210.651429 253.745885 
L 208.610743 249.888104 
L 205.549714 243.298658 
L 201.468343 233.19389 
L 198.917486 226.398826 
L 195.346286 216.296722 
L 191.775086 206.534054 
L 190.244571 202.8607 
L 188.714057 199.623233 
L 186.673371 196.109895 
L 184.632686 193.228334 
L 183.102171 191.618523 
L 181.571657 190.413987 
L 180.551314 189.863394 
L 179.530971 189.474034 
L 178.510629 189.381085 
L 178.000457 189.41643 
L 176.980114 189.804879 
L 176.469943 190.078225 
L 174.939429 191.367039 
L 173.919086 192.691237 
L 172.898743 194.203342 
L 170.347886 198.737084 
L 167.797029 203.85977 
L 164.736 210.512663 
L 161.1648 219.241543 
L 156.573257 230.512482 
L 155.042743 233.582914 
L 153.512229 236.308166 
L 151.981714 238.53458 
L 150.961371 239.670099 
L 150.4512 240.144299 
L 148.920686 241.021163 
L 147.390171 241.203927 
L 145.349486 240.531564 
L 144.839314 240.280761 
L 144.329143 239.772743 
L 143.818971 239.628892 
L 143.3088 237.725947 
L 142.798629 238.504602 
L 142.288457 237.874781 
L 141.778286 236.992458 
L 141.268114 236.452896 
L 140.757943 235.709434 
L 137.186743 228.106569 
L 136.676571 226.709844 
L 136.1664 225.926206 
L 135.656229 224.757192 
L 135.146057 223.967025 
L 134.635886 222.745602 
L 134.125714 222.471132 
L 133.615543 222.00255 
L 133.105371 216.810205 
L 132.5952 215.968858 
L 129.534171 209.093957 
L 128.003657 204.487714 
L 122.901943 187.167558 
L 119.840914 173.738146 
L 118.3104 165.660142 
L 116.779886 155.355447 
L 115.759543 146.908254 
L 114.229029 131.65256 
L 113.208686 119.957432 
L 112.698514 112.810869 
L 112.188343 107.377614 
L 110.657829 85.889628 
L 109.637486 68.596986 
L 108.106971 38.186503 
L 106.576457 7.559089 
L 106.112582 -1 
L 106.112582 -1 
" clip-path="url(#pa2ee084e97)" style="fill: none; stroke: #991f66; stroke-width: 0.5; stroke-linecap: square"/>
   </g>
   <g id="line2d_24">
    <path d="M 363.702857 308.704581 
L 363.192686 308.545078 
L 345.336686 308.146352 
L 343.296 307.99887 
L 341.765486 307.875664 
L 331.562057 307.175984 
L 331.051886 307.062218 
L 330.541714 307.124191 
L 326.460343 306.796799 
L 321.8688 306.7389 
L 321.358629 306.542531 
L 318.807771 306.386535 
L 312.685714 305.536413 
L 304.0128 303.821302 
L 302.992457 303.571075 
L 296.8704 301.685775 
L 295.850057 301.286216 
L 291.258514 299.485013 
L 283.095771 294.91773 
L 280.034743 292.987543 
L 276.973714 291.073637 
L 273.912686 289.241434 
L 268.3008 286.510127 
L 263.709257 284.670072 
L 260.138057 283.360219 
L 256.566857 282.025559 
L 254.016 281.223695 
L 249.934629 280.011176 
L 245.853257 279.157206 
L 245.343086 279.071557 
L 244.832914 278.869706 
L 239.221029 278.092119 
L 237.690514 277.799936 
L 236.16 277.438681 
L 234.119314 276.856226 
L 232.078629 276.035984 
L 230.037943 274.952904 
L 229.0176 274.338019 
L 225.956571 272.008003 
L 223.405714 269.660252 
L 221.8752 268.032279 
L 220.344686 266.321013 
L 216.263314 261.038459 
L 214.222629 257.974247 
L 213.202286 256.375605 
L 211.1616 252.798457 
L 208.610743 247.716099 
L 206.059886 242.012881 
L 202.488686 232.995043 
L 199.427657 224.595957 
L 195.346286 212.689672 
L 191.775086 202.760723 
L 190.244571 199.053015 
L 188.714057 195.764567 
L 186.673371 192.209275 
L 184.632686 189.402026 
L 183.102171 187.85307 
L 182.081829 187.029078 
L 181.061486 186.412329 
L 179.530971 185.914661 
L 178.000457 186.008416 
L 176.980114 186.537675 
L 175.959771 187.333222 
L 175.4496 187.774754 
L 173.919086 189.792563 
L 172.388571 192.389317 
L 170.858057 195.365055 
L 167.797029 201.940326 
L 165.246171 207.894222 
L 161.674971 217.199793 
L 156.063086 231.893283 
L 154.532571 235.10245 
L 153.002057 237.94589 
L 150.961371 240.953933 
L 150.4512 241.513937 
L 149.941029 241.812775 
L 149.430857 242.373135 
L 148.920686 242.709842 
L 147.390171 243.229234 
L 145.349486 243.00983 
L 144.839314 242.832478 
L 144.329143 242.484827 
L 143.818971 242.33103 
L 143.3088 240.684049 
L 142.798629 241.569452 
L 140.757943 239.098341 
L 137.186743 232.266703 
L 136.676571 230.940548 
L 135.146057 228.226742 
L 134.635886 227.20846 
L 134.125714 226.96034 
L 133.615543 226.462427 
L 133.105371 221.437011 
L 132.085029 219.536425 
L 131.064686 217.445402 
L 129.024 212.213589 
L 125.4528 199.762567 
L 122.391771 187.475421 
L 120.351086 177.704862 
L 118.3104 166.478864 
L 117.290057 159.868249 
L 116.269714 152.165185 
L 114.7392 137.915164 
L 113.208686 121.359857 
L 112.698514 114.496092 
L 112.188343 109.269922 
L 110.657829 88.784225 
L 109.637486 72.313645 
L 108.106971 43.055317 
L 106.066286 4.623404 
L 105.744227 -1 
L 105.744227 -1 
" clip-path="url(#pa2ee084e97)" style="fill: none; stroke: #8f1f70; stroke-width: 0.5; stroke-linecap: square"/>
   </g>
   <g id="line2d_25">
    <path d="M 363.702857 308.68345 
L 363.192686 308.548645 
L 361.152 308.588126 
L 346.8672 308.262055 
L 343.296 308.000258 
L 342.785829 307.885468 
L 341.765486 307.836265 
L 325.44 306.815491 
L 324.419657 306.797281 
L 322.378971 306.740613 
L 321.8688 306.802607 
L 321.358629 306.633386 
L 318.2976 306.433083 
L 316.256914 306.22425 
L 314.216229 305.946887 
L 312.175543 305.64407 
L 308.604343 305.037092 
L 307.584 304.863972 
L 301.972114 303.646322 
L 299.421257 302.926685 
L 297.890743 302.524999 
L 296.8704 302.131487 
L 296.360229 301.878335 
L 295.339886 301.62135 
L 293.809371 301.05207 
L 292.278857 300.466061 
L 289.728 299.370044 
L 286.1568 297.495923 
L 281.565257 294.84767 
L 277.994057 292.728407 
L 275.953371 291.480387 
L 270.341486 288.716684 
L 267.790629 287.624987 
L 262.178743 285.632392 
L 260.648229 285.089806 
L 255.036343 283.21981 
L 251.975314 282.381965 
L 247.383771 281.263423 
L 245.343086 280.891155 
L 244.832914 280.668099 
L 240.751543 280.042883 
L 238.200686 279.529925 
L 236.16 278.992619 
L 232.078629 277.155668 
L 230.037943 275.800451 
L 226.976914 273.18645 
L 224.426057 270.434729 
L 219.834514 264.416558 
L 216.263314 258.981377 
L 213.712457 254.660311 
L 210.651429 248.780875 
L 207.5904 242.013575 
L 205.549714 236.932108 
L 202.998857 230.191871 
L 200.448 222.955903 
L 192.795429 200.357215 
L 190.244571 193.951504 
L 188.203886 189.728376 
L 185.653029 185.678404 
L 184.122514 183.947992 
L 183.102171 183.016512 
L 181.571657 182.009702 
L 180.551314 181.642826 
L 179.0208 181.505016 
L 178.000457 181.856282 
L 177.490286 182.09546 
L 176.469943 182.98315 
L 174.939429 184.716773 
L 173.408914 187.226051 
L 171.368229 191.292136 
L 169.327543 195.861745 
L 164.736 207.378451 
L 161.1648 217.533553 
L 158.103771 226.444926 
L 155.552914 233.050882 
L 152.491886 239.408077 
L 150.961371 241.856764 
L 149.430857 243.621046 
L 148.410514 244.340928 
L 147.390171 244.880952 
L 145.349486 245.076439 
L 144.839314 245.037083 
L 144.329143 244.730665 
L 143.818971 244.760788 
L 143.3088 243.143119 
L 142.798629 244.066015 
L 142.288457 243.67674 
L 141.778286 243.091582 
L 141.268114 242.775 
L 140.247771 241.362387 
L 139.227429 239.723879 
L 138.717257 238.605101 
L 138.207086 237.943564 
L 137.696914 236.833767 
L 137.186743 236.067338 
L 136.676571 234.577487 
L 136.1664 234.00363 
L 134.635886 231.199183 
L 134.125714 230.922882 
L 133.615543 230.2703 
L 133.105371 225.721628 
L 131.064686 221.469547 
L 130.044343 219.069112 
L 128.513829 214.373067 
L 126.983314 208.808254 
L 125.4528 202.661119 
L 123.412114 193.683114 
L 121.8816 186.122671 
L 119.840914 175.342118 
L 117.800229 162.866709 
L 116.779886 155.701033 
L 115.759543 147.275002 
L 114.229029 132.534595 
L 113.208686 121.72524 
L 112.698514 115.082148 
L 112.188343 110.235452 
L 110.657829 90.999497 
L 109.637486 75.453788 
L 108.106971 47.588999 
L 106.576457 19.171251 
L 105.342215 -1 
L 105.342215 -1 
" clip-path="url(#pa2ee084e97)" style="fill: none; stroke: #851f7a; stroke-width: 0.5; stroke-linecap: square"/>
   </g>
   <g id="line2d_26">
    <path d="M 363.702857 308.714868 
L 363.192686 308.479791 
L 362.172343 308.5455 
L 355.540114 308.479378 
L 353.499429 308.405648 
L 351.458743 308.398656 
L 348.397714 308.290516 
L 345.846857 308.192305 
L 341.255314 307.800642 
L 337.684114 307.515977 
L 323.399314 306.91149 
L 321.8688 306.960259 
L 321.358629 306.805552 
L 318.2976 306.705418 
L 316.767086 306.545791 
L 315.746743 306.453421 
L 311.1552 305.837469 
L 308.604343 305.407442 
L 307.584 305.335799 
L 299.931429 303.736835 
L 298.400914 303.347297 
L 296.8704 302.848917 
L 295.339886 302.36789 
L 292.278857 301.355876 
L 286.666971 298.888781 
L 285.136457 298.074354 
L 272.892343 291.651597 
L 269.831314 290.389706 
L 267.280457 289.450711 
L 262.178743 287.790469 
L 259.117714 286.900541 
L 258.097371 286.557025 
L 256.566857 286.094738 
L 254.526171 285.492028 
L 253.505829 285.276403 
L 251.975314 284.867891 
L 250.4448 284.495494 
L 245.343086 283.431286 
L 244.322743 283.150575 
L 239.221029 282.128031 
L 237.180343 281.54765 
L 234.629486 280.468098 
L 233.609143 279.936225 
L 232.078629 278.946797 
L 231.058286 278.183981 
L 228.507429 275.852428 
L 226.466743 273.610549 
L 223.915886 270.241478 
L 221.365029 266.422475 
L 217.793829 260.470093 
L 214.7328 254.915372 
L 211.671771 248.760435 
L 209.631086 244.284521 
L 206.570057 236.750521 
L 202.998857 226.841333 
L 199.427657 216.045169 
L 193.3056 197.227984 
L 191.264914 191.702917 
L 189.224229 187.021564 
L 187.693714 184.086193 
L 185.653029 180.87055 
L 184.632686 179.646953 
L 183.102171 178.252898 
L 181.571657 177.339367 
L 180.551314 177.020234 
L 179.530971 177.017432 
L 178.510629 177.296462 
L 177.490286 177.889392 
L 176.469943 178.877511 
L 175.4496 180.057145 
L 173.919086 182.58461 
L 172.388571 185.713677 
L 169.837714 191.705257 
L 166.776686 199.716179 
L 165.246171 203.896758 
L 161.674971 214.634611 
L 158.103771 225.878215 
L 156.063086 231.706316 
L 154.532571 235.481237 
L 153.002057 238.988329 
L 151.471543 241.970003 
L 150.4512 243.606567 
L 149.941029 244.176174 
L 149.430857 244.933554 
L 148.410514 245.984961 
L 147.390171 246.752757 
L 146.369829 247.132462 
L 145.349486 247.448608 
L 144.839314 247.533031 
L 144.329143 247.361185 
L 143.818971 247.470068 
L 143.3088 246.084148 
L 142.798629 247.094262 
L 142.288457 246.838846 
L 141.778286 246.240417 
L 141.268114 246.114067 
L 140.247771 245.010588 
L 139.227429 243.556233 
L 138.717257 242.623285 
L 138.207086 242.015353 
L 137.696914 240.947834 
L 137.186743 240.188259 
L 136.676571 239.012142 
L 136.1664 238.413244 
L 134.125714 235.068514 
L 133.615543 234.983027 
L 133.105371 230.488304 
L 131.574857 227.551387 
L 130.044343 223.902565 
L 129.024 220.864273 
L 126.983314 213.060759 
L 123.922286 199.009133 
L 121.371429 185.183757 
L 117.800229 163.364953 
L 116.269714 151.981027 
L 114.7392 138.014716 
L 113.208686 122.63743 
L 112.698514 116.268042 
L 112.188343 111.705703 
L 110.657829 93.516396 
L 109.637486 78.799821 
L 108.106971 52.238901 
L 106.066286 16.800002 
L 104.899966 -1 
L 104.899966 -1 
" clip-path="url(#pa2ee084e97)" style="fill: none; stroke: #7a1f85; stroke-width: 0.5; stroke-linecap: square"/>
   </g>
   <g id="line2d_27">
    <path d="M 363.702857 308.671373 
L 363.192686 308.532231 
L 357.070629 308.492535 
L 355.029943 308.496972 
L 353.499429 308.441735 
L 348.397714 308.323285 
L 347.377371 308.278791 
L 340.745143 307.79611 
L 339.7248 307.70056 
L 333.602743 307.36168 
L 332.072229 307.311698 
L 324.419657 307.05447 
L 322.378971 307.060581 
L 321.8688 307.140306 
L 321.358629 306.992592 
L 319.317943 306.967203 
L 309.624686 306.035754 
L 307.073829 305.656388 
L 300.4416 304.481701 
L 294.319543 302.896433 
L 291.768686 302.061412 
L 288.197486 300.689559 
L 285.136457 299.334286 
L 272.382171 293.285423 
L 268.3008 291.792279 
L 267.280457 291.512008 
L 266.260114 291.200435 
L 257.077029 288.668609 
L 256.056686 288.432985 
L 246.363429 286.291624 
L 245.343086 286.125847 
L 244.322743 285.795908 
L 242.282057 285.428626 
L 237.180343 283.902704 
L 236.16 283.444356 
L 234.119314 282.303185 
L 232.078629 280.766528 
L 230.548114 279.337485 
L 229.0176 277.628454 
L 227.487086 275.751677 
L 224.936229 272.003007 
L 222.895543 268.585462 
L 219.834514 262.930421 
L 217.283657 257.908855 
L 212.181943 246.993237 
L 210.141257 242.218677 
L 207.5904 235.680992 
L 205.549714 230.01567 
L 201.468343 217.580655 
L 193.815771 193.008676 
L 191.775086 187.250815 
L 190.244571 183.423789 
L 188.714057 180.116982 
L 186.673371 176.591972 
L 184.632686 173.888721 
L 184.122514 173.335406 
L 182.592 172.224875 
L 182.081829 171.95252 
L 180.551314 171.625971 
L 179.530971 171.728489 
L 178.510629 172.116739 
L 177.490286 172.940533 
L 175.959771 174.827194 
L 174.939429 176.427462 
L 173.919086 178.355243 
L 172.388571 181.704639 
L 169.837714 188.303359 
L 167.797029 193.934195 
L 165.246171 201.548368 
L 162.695314 209.828315 
L 157.5936 226.952092 
L 155.552914 233.067246 
L 152.491886 240.780911 
L 150.961371 243.95934 
L 149.430857 246.530418 
L 147.900343 248.401613 
L 146.88 249.254712 
L 144.839314 250.365368 
L 144.329143 250.343968 
L 143.818971 250.63083 
L 143.3088 249.361883 
L 142.798629 250.493621 
L 142.288457 250.416911 
L 141.778286 250.01313 
L 141.268114 249.947377 
L 140.757943 249.654303 
L 139.227429 248.013469 
L 138.717257 247.083482 
L 138.207086 246.609706 
L 136.676571 243.915515 
L 136.1664 243.431786 
L 135.656229 242.500946 
L 135.146057 241.89505 
L 134.635886 240.932448 
L 134.125714 240.774811 
L 133.615543 240.158551 
L 133.105371 235.705188 
L 132.085029 234.07206 
L 130.554514 230.635954 
L 129.024 225.950636 
L 127.493486 219.962254 
L 125.4528 210.258505 
L 122.901943 195.982669 
L 119.330743 173.425816 
L 117.290057 159.647688 
L 116.269714 151.717223 
L 114.229029 133.19193 
L 111.168 102.233829 
L 110.147657 89.797637 
L 109.127314 74.748315 
L 105.045943 9.323493 
L 104.403153 -1 
L 104.403153 -1 
" clip-path="url(#pa2ee084e97)" style="fill: none; stroke: #701f8f; stroke-width: 0.5; stroke-linecap: square"/>
   </g>
   <g id="line2d_28">
    <path d="M 363.702857 308.688459 
L 363.192686 308.549432 
L 359.111314 308.53513 
L 358.090971 308.500074 
L 356.050286 308.501503 
L 346.357029 308.179075 
L 327.990857 307.14334 
L 326.460343 307.142679 
L 321.8688 307.287465 
L 321.358629 307.140553 
L 315.746743 307.030202 
L 313.195886 306.826379 
L 311.1552 306.633568 
L 310.134857 306.507299 
L 306.053486 306.018523 
L 304.0128 305.735687 
L 302.992457 305.581592 
L 298.400914 304.825457 
L 296.8704 304.412047 
L 295.850057 304.142087 
L 292.278857 303.301081 
L 288.707657 302.12157 
L 287.687314 301.776617 
L 282.5856 299.714011 
L 281.565257 299.268754 
L 276.973714 297.266806 
L 275.4432 296.668939 
L 270.851657 295.005088 
L 270.341486 294.956035 
L 268.810971 294.460028 
L 266.260114 293.763484 
L 263.709257 293.190788 
L 262.178743 292.821282 
L 258.607543 292.024841 
L 255.546514 291.384963 
L 252.995657 290.900817 
L 245.343086 289.405625 
L 244.832914 289.175787 
L 242.282057 288.64223 
L 240.241371 288.076539 
L 238.200686 287.37306 
L 236.16 286.333143 
L 234.629486 285.313504 
L 232.5888 283.620985 
L 231.058286 282.03699 
L 229.527771 280.238471 
L 227.997257 278.105656 
L 225.956571 274.831668 
L 223.405714 270.126414 
L 220.854857 264.853479 
L 218.814171 260.401507 
L 214.7328 251.075645 
L 212.692114 246.232908 
L 208.610743 235.68185 
L 205.549714 226.784256 
L 202.998857 218.638359 
L 199.427657 206.536958 
L 195.856457 194.248853 
L 192.795429 184.584884 
L 191.264914 180.317648 
L 189.7344 176.526879 
L 188.203886 173.287734 
L 186.673371 170.688191 
L 185.142857 168.495549 
L 183.612343 166.990767 
L 182.592 166.340392 
L 181.571657 165.88707 
L 180.041143 165.85536 
L 178.510629 166.530929 
L 176.980114 168.035909 
L 175.4496 170.353566 
L 173.919086 173.476433 
L 171.8784 178.384725 
L 169.837714 184.104505 
L 167.797029 190.266187 
L 163.715657 203.81279 
L 160.654629 215.005419 
L 157.5936 226.103592 
L 155.042743 234.238274 
L 152.491886 241.351316 
L 150.961371 245.009113 
L 148.920686 248.841869 
L 147.390171 250.959394 
L 144.839314 253.361137 
L 143.818971 253.824025 
L 143.3088 252.897297 
L 142.798629 254.13889 
L 141.268114 254.065904 
L 140.757943 253.912952 
L 139.227429 252.740192 
L 138.717257 251.933066 
L 138.207086 251.626344 
L 137.696914 250.855349 
L 137.186743 250.315753 
L 136.676571 249.332359 
L 136.1664 248.935742 
L 135.146057 247.565314 
L 134.635886 246.698542 
L 133.615543 245.854095 
L 133.105371 241.881996 
L 131.574857 239.051324 
L 130.554514 236.478072 
L 130.044343 235.164593 
L 129.024 231.725064 
L 128.003657 227.613536 
L 126.473143 220.239651 
L 124.942629 211.68653 
L 122.391771 195.501556 
L 115.759543 147.567474 
L 113.208686 124.00701 
L 112.698514 118.612656 
L 111.678171 109.762263 
L 110.147657 93.310584 
L 109.127314 79.374899 
L 103.966367 -1 
L 103.966367 -1 
" clip-path="url(#pa2ee084e97)" style="fill: none; stroke: #661f99; stroke-width: 0.5; stroke-linecap: square"/>
   </g>
   <g id="line2d_29">
    <path d="M 363.702857 308.625527 
L 363.192686 308.451193 
L 345.336686 308.120039 
L 342.785829 307.888863 
L 339.214629 307.619126 
L 325.950171 307.234777 
L 322.378971 307.364093 
L 321.8688 307.430522 
L 321.358629 307.301272 
L 312.685714 307.094219 
L 311.1552 306.955706 
L 307.584 306.618564 
L 302.482286 306.028442 
L 296.8704 305.073599 
L 295.850057 304.832908 
L 291.768686 303.95568 
L 287.177143 302.613883 
L 285.646629 302.056793 
L 274.933029 298.0433 
L 268.810971 296.29417 
L 263.199086 295.098423 
L 258.607543 294.273023 
L 257.077029 293.955095 
L 251.975314 293.085232 
L 249.934629 292.681211 
L 248.404114 292.443754 
L 241.771886 290.920538 
L 237.690514 289.312119 
L 235.649829 287.968295 
L 234.119314 286.746248 
L 233.098971 285.820726 
L 231.058286 283.469057 
L 229.0176 280.625225 
L 226.976914 277.113334 
L 225.4464 274.146739 
L 222.895543 268.597381 
L 220.344686 262.583493 
L 214.7328 248.452717 
L 209.120914 233.310961 
L 206.059886 224.046504 
L 202.488686 211.986904 
L 199.937829 202.960825 
L 194.836114 185.009514 
L 192.285257 177.12707 
L 190.754743 172.963727 
L 188.714057 168.324711 
L 187.183543 165.541042 
L 185.653029 163.272476 
L 184.632686 162.026435 
L 183.102171 160.819057 
L 182.081829 160.440297 
L 181.061486 160.276514 
L 180.041143 160.499646 
L 179.530971 160.701629 
L 178.510629 161.434404 
L 177.490286 162.573314 
L 176.469943 164.057885 
L 174.939429 166.877824 
L 173.408914 170.505166 
L 171.368229 176.130689 
L 168.817371 184.077095 
L 165.756343 194.47487 
L 162.695314 205.916664 
L 156.573257 229.250659 
L 155.042743 234.322569 
L 152.491886 242.026551 
L 150.961371 246.055011 
L 149.430857 249.440453 
L 147.900343 252.199536 
L 146.369829 254.271522 
L 145.349486 255.418567 
L 144.839314 255.919764 
L 144.329143 256.220968 
L 143.818971 256.72129 
L 143.3088 255.834539 
L 142.798629 257.266268 
L 142.288457 257.384198 
L 141.778286 257.258846 
L 141.268114 257.555975 
L 140.757943 257.485514 
L 139.7376 256.969773 
L 139.227429 256.706191 
L 138.717257 256.07488 
L 138.207086 255.805985 
L 135.146057 252.140287 
L 134.635886 251.271948 
L 134.125714 251.016115 
L 133.615543 250.624468 
L 133.105371 246.607164 
L 132.5952 245.880971 
L 130.554514 241.259535 
L 129.534171 238.1375 
L 128.003657 231.869917 
L 126.473143 223.921304 
L 124.942629 214.650521 
L 122.391771 196.765114 
L 117.800229 163.113477 
L 116.269714 151.271247 
L 113.208686 124.228811 
L 112.698514 119.090765 
L 112.188343 115.496811 
L 110.657829 101.428126 
L 109.637486 89.907052 
L 108.617143 75.796017 
L 106.066286 38.524109 
L 104.535771 17.45381 
L 103.613449 -1 
L 103.613449 -1 
" clip-path="url(#pa2ee084e97)" style="fill: none; stroke: #5c1fa3; stroke-width: 0.5; stroke-linecap: square"/>
   </g>
   <g id="line2d_30">
    <path d="M 363.702857 308.661059 
L 363.192686 308.447166 
L 361.662171 308.459141 
L 360.641829 308.458489 
L 359.111314 308.441475 
L 357.070629 308.439281 
L 352.989257 308.333881 
L 346.8672 308.176641 
L 345.336686 308.038964 
L 344.316343 307.994325 
L 337.684114 307.533146 
L 331.562057 307.367283 
L 327.990857 307.289134 
L 322.378971 307.495098 
L 321.8688 307.615788 
L 321.358629 307.464199 
L 313.195886 307.487302 
L 308.094171 307.207906 
L 305.033143 306.940878 
L 303.502629 306.849661 
L 301.972114 306.687056 
L 297.380571 306.122112 
L 295.339886 305.7671 
L 291.768686 305.16995 
L 284.116114 303.276634 
L 271.361829 299.642653 
L 268.810971 299.126269 
L 266.260114 298.719259 
L 259.117714 297.684576 
L 249.424457 296.355288 
L 245.343086 295.582737 
L 244.322743 295.255702 
L 241.261714 294.380313 
L 239.7312 293.72721 
L 236.670171 291.873308 
L 235.649829 291.079094 
L 234.119314 289.664165 
L 231.568457 286.477303 
L 229.527771 283.217059 
L 227.487086 279.32495 
L 225.956571 276.016536 
L 222.895543 268.338289 
L 219.834514 259.894188 
L 216.773486 251.125387 
L 208.610743 226.913827 
L 205.549714 216.755415 
L 200.958171 199.89217 
L 196.366629 182.711992 
L 194.325943 175.669111 
L 192.285257 169.358834 
L 190.244571 163.994113 
L 188.714057 160.624071 
L 187.183543 157.859806 
L 186.1632 156.356135 
L 185.142857 155.040502 
L 184.122514 154.092697 
L 183.102171 153.479029 
L 182.081829 153.185274 
L 181.061486 153.195689 
L 179.530971 153.976948 
L 178.510629 154.91164 
L 177.490286 156.266927 
L 176.469943 158.039821 
L 174.939429 161.254461 
L 172.898743 166.718143 
L 170.858057 173.128599 
L 168.3072 181.976018 
L 165.756343 191.423742 
L 162.695314 203.793414 
L 157.5936 225.077249 
L 155.552914 232.751088 
L 152.491886 242.964923 
L 150.961371 247.437367 
L 149.430857 251.31057 
L 147.900343 254.629911 
L 146.88 256.312424 
L 145.349486 258.666412 
L 144.839314 259.349838 
L 144.329143 259.719596 
L 143.818971 260.433004 
L 143.3088 259.809303 
L 142.798629 261.21034 
L 142.288457 261.570155 
L 141.778286 261.664928 
L 141.268114 262.047465 
L 140.757943 262.111803 
L 139.227429 261.837736 
L 138.717257 261.259696 
L 138.207086 261.15466 
L 137.186743 260.216124 
L 136.676571 259.394594 
L 136.1664 259.108379 
L 135.146057 258.128141 
L 134.635886 257.133906 
L 134.125714 256.9852 
L 133.615543 256.465521 
L 133.105371 252.830472 
L 132.5952 252.136683 
L 131.574857 249.996728 
L 131.064686 248.841719 
L 130.044343 245.864745 
L 129.024 242.119135 
L 127.493486 234.691526 
L 126.473143 228.757675 
L 124.942629 218.579912 
L 122.391771 198.632455 
L 118.820571 170.034085 
L 116.269714 150.318067 
L 113.208686 124.25467 
L 112.698514 119.728562 
L 111.678171 112.524726 
L 110.147657 99.215807 
L 109.127314 87.39117 
L 107.086629 59.246504 
L 105.556114 40.182686 
L 105.045943 33.999287 
L 104.535771 26.464012 
L 103.515429 5.889385 
L 103.257505 -1 
L 103.257505 -1 
" clip-path="url(#pa2ee084e97)" style="fill: none; stroke: #521fad; stroke-width: 0.5; stroke-linecap: square"/>
   </g>
   <g id="line2d_31">
    <path d="M 363.702857 308.562253 
L 363.192686 308.398535 
L 355.540114 308.36046 
L 354.519771 308.332214 
L 351.458743 308.266478 
L 343.806171 307.966328 
L 338.704457 307.592778 
L 324.929829 307.459045 
L 322.378971 307.599831 
L 321.8688 307.760968 
L 321.358629 307.596487 
L 319.317943 307.713286 
L 316.767086 307.748744 
L 313.706057 307.69344 
L 310.645029 307.623946 
L 308.604343 307.49648 
L 306.563657 307.417003 
L 297.380571 306.603646 
L 294.829714 306.208229 
L 292.278857 305.860807 
L 288.707657 305.189048 
L 282.075429 303.561117 
L 274.422857 301.562146 
L 270.341486 300.704969 
L 264.219429 299.777111 
L 252.485486 298.425973 
L 246.363429 297.455016 
L 245.343086 297.240741 
L 244.322743 296.904561 
L 241.771886 296.143092 
L 240.241371 295.512226 
L 237.690514 294.160414 
L 236.16 293.060619 
L 234.629486 291.655322 
L 233.098971 289.955674 
L 231.568457 287.909534 
L 229.527771 284.581049 
L 227.487086 280.607995 
L 225.956571 277.200815 
L 223.915886 272.158196 
L 221.365029 265.196946 
L 218.304 256.391894 
L 208.610743 227.397593 
L 205.549714 217.025486 
L 202.488686 205.712673 
L 194.325943 174.80632 
L 192.285257 168.249608 
L 190.244571 162.631725 
L 188.714057 159.02902 
L 187.183543 156.101646 
L 185.653029 153.728659 
L 184.632686 152.505313 
L 183.612343 151.59855 
L 183.102171 151.260726 
L 182.081829 150.963892 
L 181.571657 150.865828 
L 180.551314 151.077156 
L 180.041143 151.243345 
L 179.0208 151.982822 
L 178.000457 153.063361 
L 176.980114 154.629619 
L 175.959771 156.584035 
L 174.429257 160.087565 
L 173.408914 162.830774 
L 171.8784 167.39643 
L 169.327543 176.054092 
L 166.776686 185.484699 
L 164.225829 195.635868 
L 156.063086 230.046221 
L 154.0224 237.478006 
L 151.471543 245.831465 
L 149.941029 250.121547 
L 148.920686 252.798494 
L 147.390171 256.105934 
L 145.349486 259.552121 
L 144.839314 260.302764 
L 144.329143 260.753865 
L 143.818971 261.550562 
L 143.3088 261.043804 
L 142.798629 262.556896 
L 141.268114 263.537204 
L 140.757943 263.69221 
L 139.227429 263.639947 
L 138.717257 263.169606 
L 138.207086 263.110526 
L 137.696914 262.581518 
L 137.186743 262.316512 
L 136.676571 261.60582 
L 136.1664 261.345245 
L 135.146057 260.093517 
L 134.635886 259.2407 
L 134.125714 259.160745 
L 133.615543 258.883169 
L 133.105371 255.159834 
L 132.5952 254.418388 
L 131.574857 252.316807 
L 130.554514 249.701383 
L 129.534171 246.328862 
L 128.003657 239.41738 
L 126.473143 230.556763 
L 125.4528 223.760066 
L 123.922286 212.296218 
L 122.391771 199.634787 
L 119.330743 174.194991 
L 116.779886 154.585074 
L 112.698514 119.368012 
L 111.678171 112.296845 
L 110.657829 104.034636 
L 109.637486 93.750125 
L 108.617143 81.189447 
L 105.556114 41.033097 
L 104.535771 27.543173 
L 103.515429 7.671396 
L 103.174824 -1 
L 103.174824 -1 
" clip-path="url(#pa2ee084e97)" style="fill: none; stroke: #471fb8; stroke-width: 0.5; stroke-linecap: square"/>
   </g>
   <g id="line2d_32">
    <path d="M 363.702857 308.5632 
L 363.192686 308.427452 
L 356.050286 308.373833 
L 354.519771 308.361615 
L 340.234971 307.678082 
L 338.194286 307.584 
L 336.1536 307.513819 
L 325.44 307.421157 
L 324.419657 307.495817 
L 322.378971 307.650169 
L 321.8688 307.731285 
L 320.848457 307.646317 
L 318.807771 307.756938 
L 311.1552 307.715154 
L 298.911086 307.024434 
L 296.360229 306.593426 
L 294.829714 306.47741 
L 293.2992 306.328573 
L 286.666971 305.192874 
L 283.095771 304.441053 
L 280.034743 303.685291 
L 268.810971 301.329954 
L 260.138057 300.255894 
L 258.097371 300.07205 
L 245.343086 298.259228 
L 243.812571 297.77966 
L 242.792229 297.52611 
L 241.261714 297.002526 
L 237.690514 295.154829 
L 236.670171 294.443156 
L 235.139657 293.153049 
L 232.5888 290.246343 
L 231.568457 288.821504 
L 230.037943 286.362927 
L 228.507429 283.509174 
L 226.466743 279.203569 
L 224.426057 274.278685 
L 221.8752 267.348775 
L 217.793829 255.527557 
L 209.631086 230.984955 
L 206.570057 220.948121 
L 203.509029 209.742518 
L 199.937829 195.732607 
L 195.856457 179.860654 
L 193.3056 170.80192 
L 191.264914 164.550277 
L 189.7344 160.466388 
L 188.203886 156.952891 
L 186.673371 154.091792 
L 185.142857 151.727144 
L 183.612343 150.198954 
L 182.081829 149.386858 
L 181.061486 149.341639 
L 180.551314 149.407293 
L 179.530971 149.932124 
L 178.510629 150.803528 
L 177.490286 152.121713 
L 176.469943 153.865302 
L 175.4496 155.929586 
L 173.919086 159.652084 
L 171.8784 165.684627 
L 169.837714 172.572223 
L 166.266514 185.966979 
L 163.715657 196.407343 
L 156.063086 229.357042 
L 152.491886 242.240144 
L 150.961371 247.115074 
L 149.430857 251.483757 
L 147.900343 255.137536 
L 146.88 257.225899 
L 145.349486 259.966758 
L 143.818971 262.128923 
L 143.3088 261.633872 
L 142.798629 263.176754 
L 142.288457 263.608663 
L 141.778286 263.832443 
L 141.268114 264.341373 
L 140.757943 264.602787 
L 139.227429 264.585924 
L 138.717257 264.097148 
L 138.207086 264.112369 
L 137.696914 263.6804 
L 137.186743 263.405686 
L 136.676571 262.615617 
L 136.1664 262.554768 
L 135.146057 261.332325 
L 134.635886 260.446182 
L 134.125714 260.39454 
L 133.615543 259.81346 
L 133.105371 256.269681 
L 132.5952 255.611144 
L 131.574857 253.468558 
L 130.554514 250.89821 
L 129.024 245.350217 
L 127.493486 237.656214 
L 125.962971 228.223723 
L 123.922286 212.848235 
L 121.8816 195.46587 
L 118.3104 166.29084 
L 115.759543 145.417871 
L 112.698514 118.699909 
L 111.678171 111.413845 
L 110.657829 103.337732 
L 109.637486 93.186325 
L 108.617143 80.683316 
L 106.066286 47.000789 
L 104.535771 27.291699 
L 103.515429 7.35978 
L 103.177182 -1 
L 103.177182 -1 
" clip-path="url(#pa2ee084e97)" style="fill: none; stroke: #3d1fc2; stroke-width: 0.5; stroke-linecap: square"/>
   </g>
   <g id="line2d_33">
    <path d="M 363.702857 308.479382 
L 362.682514 308.364432 
L 358.090971 308.361334 
L 351.968914 308.290998 
L 348.907886 308.126658 
L 347.887543 308.174952 
L 334.112914 307.449338 
L 333.092571 307.426368 
L 331.562057 307.427667 
L 329.521371 307.385366 
L 327.990857 307.403704 
L 324.419657 307.501617 
L 321.8688 307.823386 
L 321.358629 307.653771 
L 318.807771 307.820172 
L 316.256914 307.865195 
L 311.1552 307.813291 
L 308.604343 307.715994 
L 306.053486 307.617048 
L 304.522971 307.513244 
L 302.992457 307.467975 
L 300.951771 307.310338 
L 299.931429 307.25918 
L 291.258514 306.314761 
L 286.666971 305.589409 
L 281.055086 304.475215 
L 278.504229 303.856482 
L 270.851657 302.360695 
L 265.749943 301.629292 
L 261.1584 301.115069 
L 250.4448 299.901227 
L 245.343086 299.095596 
L 244.322743 298.723326 
L 243.3024 298.432909 
L 242.282057 298.142432 
L 238.710857 296.526138 
L 237.180343 295.494812 
L 236.16 294.697529 
L 234.629486 293.277595 
L 232.5888 290.860469 
L 230.548114 287.736844 
L 229.0176 284.978663 
L 226.976914 280.723554 
L 224.936229 275.790887 
L 222.385371 268.929426 
L 218.814171 258.478213 
L 210.141257 232.066411 
L 207.080229 222.007721 
L 204.0192 210.839948 
L 200.958171 198.892417 
L 196.366629 180.737675 
L 193.815771 171.486607 
L 191.775086 164.962424 
L 190.244571 160.733666 
L 188.714057 157.045759 
L 187.693714 154.880226 
L 186.1632 152.275687 
L 185.142857 150.705926 
L 184.122514 149.631863 
L 183.102171 148.870458 
L 182.081829 148.405174 
L 181.571657 148.316191 
L 180.551314 148.449124 
L 180.041143 148.657729 
L 179.0208 149.367373 
L 178.000457 150.513856 
L 176.980114 152.046805 
L 175.4496 155.11462 
L 174.429257 157.535047 
L 172.388571 163.425523 
L 171.368229 166.685804 
L 168.817371 175.673306 
L 165.246171 189.55312 
L 162.695314 200.46993 
L 157.5936 222.904862 
L 155.552914 231.155821 
L 151.471543 245.569481 
L 150.4512 248.667082 
L 148.410514 254.12398 
L 146.88 257.436102 
L 144.839314 260.970228 
L 144.329143 261.58588 
L 143.818971 262.379276 
L 143.3088 261.903295 
L 142.798629 263.484258 
L 142.288457 263.952787 
L 141.778286 264.256647 
L 141.268114 264.719176 
L 140.757943 264.952399 
L 139.227429 264.973399 
L 138.717257 264.466201 
L 138.207086 264.464162 
L 137.186743 263.873572 
L 136.676571 263.092535 
L 136.1664 262.897161 
L 135.146057 261.833811 
L 134.635886 260.991939 
L 134.125714 260.685425 
L 133.615543 260.133679 
L 133.105371 256.751178 
L 132.085029 254.926457 
L 131.064686 252.64315 
L 130.044343 249.507147 
L 128.513829 243.073559 
L 127.493486 237.717173 
L 125.962971 227.945881 
L 123.922286 212.495579 
L 111.678171 109.331531 
L 110.657829 101.018737 
L 109.637486 90.712046 
L 108.617143 77.861354 
L 105.556114 37.470994 
L 104.535771 24.077243 
L 104.0256 14.997003 
L 103.322811 -1 
L 103.322811 -1 
" clip-path="url(#pa2ee084e97)" style="fill: none; stroke: #331fcc; stroke-width: 0.5; stroke-linecap: square"/>
   </g>
   <g id="line2d_34">
    <path d="M 363.702857 308.520721 
L 363.192686 308.388257 
L 352.989257 308.295025 
L 348.397714 308.208391 
L 345.336686 308.070633 
L 336.663771 307.531474 
L 331.562057 307.46521 
L 328.501029 307.44557 
L 322.378971 307.691925 
L 321.8688 307.819003 
L 321.358629 307.717437 
L 316.256914 307.919629 
L 300.4416 307.388851 
L 298.400914 307.253547 
L 289.728 306.317639 
L 284.116114 305.375365 
L 269.831314 302.559577 
L 265.749943 302.000318 
L 261.668571 301.52856 
L 259.627886 301.331952 
L 251.975314 300.520994 
L 244.832914 299.285582 
L 243.812571 298.968295 
L 242.792229 298.668132 
L 240.241371 297.638163 
L 237.180343 295.891812 
L 235.139657 294.083393 
L 233.098971 291.781562 
L 231.568457 289.619711 
L 230.037943 287.120825 
L 228.507429 284.162031 
L 226.466743 279.740587 
L 224.936229 275.94761 
L 222.895543 270.476079 
L 219.324343 260.03255 
L 214.222629 244.518928 
L 211.1616 235.160874 
L 208.100571 225.293236 
L 205.039543 214.494825 
L 201.978514 202.693154 
L 196.8768 182.327462 
L 194.325943 172.909412 
L 192.285257 166.166089 
L 190.754743 161.655525 
L 189.224229 157.791899 
L 187.693714 154.518017 
L 186.673371 152.656153 
L 185.142857 150.293633 
L 184.122514 149.144361 
L 183.102171 148.415446 
L 182.081829 147.938397 
L 181.061486 147.900184 
L 180.041143 148.265369 
L 179.0208 148.942973 
L 178.000457 150.121047 
L 176.980114 151.653771 
L 175.959771 153.646717 
L 174.429257 157.14159 
L 172.388571 163.027995 
L 170.347886 169.817092 
L 167.797029 179.192249 
L 164.736 191.385522 
L 161.1648 206.997485 
L 158.103771 220.618651 
L 155.552914 230.976403 
L 153.002057 240.380395 
L 150.961371 247.100171 
L 149.430857 251.543971 
L 147.900343 255.298695 
L 146.88 257.431966 
L 145.349486 260.28941 
L 144.839314 261.042727 
L 144.329143 261.596108 
L 143.818971 262.525831 
L 143.3088 262.002682 
L 142.798629 263.601644 
L 142.288457 264.111516 
L 141.778286 264.290632 
L 141.268114 264.875423 
L 140.757943 265.051109 
L 139.227429 265.079983 
L 138.717257 264.747506 
L 138.207086 264.664511 
L 137.696914 264.193117 
L 137.186743 263.954523 
L 136.676571 263.201095 
L 136.1664 262.949687 
L 135.146057 261.833601 
L 134.635886 261.032962 
L 133.615543 260.256604 
L 133.105371 256.751537 
L 131.574857 253.672391 
L 130.554514 251.011401 
L 129.534171 247.299206 
L 129.024 245.294311 
L 128.003657 240.201847 
L 126.473143 231.062359 
L 124.432457 215.992125 
L 122.391771 198.539764 
L 118.820571 168.005826 
L 116.269714 147.186231 
L 112.698514 114.610851 
L 111.678171 107.056264 
L 110.147657 93.353399 
L 109.127314 81.471448 
L 104.535771 19.916545 
L 103.515429 -0.318699 
L 103.488987 -1 
L 103.488987 -1 
" clip-path="url(#pa2ee084e97)" style="fill: none; stroke: #291fd6; stroke-width: 0.5; stroke-linecap: square"/>
   </g>
   <g id="line2d_35">
    <path d="M 363.702857 308.648607 
L 363.192686 308.493337 
L 360.641829 308.497582 
L 359.621486 308.509973 
L 356.560457 308.444605 
L 354.0096 308.408961 
L 351.458743 308.350033 
L 350.4384 308.31111 
L 346.357029 308.129353 
L 343.296 307.970441 
L 342.275657 307.874142 
L 339.214629 307.639467 
L 330.031543 307.396362 
L 327.990857 307.410712 
L 326.460343 307.451122 
L 316.767086 307.874775 
L 313.706057 307.836696 
L 309.624686 307.754925 
L 305.033143 307.562265 
L 302.482286 307.462474 
L 300.4416 307.340117 
L 297.890743 307.204218 
L 294.829714 306.863171 
L 293.809371 306.801153 
L 285.136457 305.704192 
L 268.3008 302.6118 
L 266.260114 302.397975 
L 248.404114 300.383725 
L 246.8736 300.103765 
L 244.832914 299.645761 
L 242.792229 298.950032 
L 238.710857 297.136579 
L 237.690514 296.492442 
L 235.649829 294.886021 
L 234.629486 293.871186 
L 233.098971 292.101756 
L 231.568457 289.987366 
L 229.527771 286.557387 
L 227.997257 283.483956 
L 225.956571 278.962087 
L 223.405714 272.326057 
L 221.365029 266.541658 
L 217.793829 255.949787 
L 208.610743 227.59831 
L 205.549714 216.942891 
L 202.998857 207.279437 
L 194.325943 173.151981 
L 192.285257 166.289406 
L 190.754743 161.71603 
L 189.224229 157.733931 
L 188.203886 155.362265 
L 186.673371 152.397907 
L 185.142857 149.918463 
L 183.612343 148.292697 
L 182.592 147.621702 
L 182.081829 147.408907 
L 181.061486 147.317928 
L 180.551314 147.408391 
L 179.530971 147.936699 
L 179.0208 148.25685 
L 178.000457 149.348426 
L 176.980114 150.878996 
L 175.959771 152.793256 
L 174.429257 156.26501 
L 172.388571 162.065736 
L 170.347886 168.850921 
L 168.3072 176.291767 
L 165.756343 186.236842 
L 163.715657 194.812567 
L 159.634286 213.041613 
L 157.083429 224.086003 
L 154.532571 234.032757 
L 152.491886 241.474383 
L 150.4512 248.001924 
L 148.920686 252.26113 
L 147.390171 255.935089 
L 145.349486 259.754633 
L 144.839314 260.634487 
L 144.329143 261.18053 
L 143.818971 262.076933 
L 143.3088 261.624163 
L 142.798629 263.266401 
L 141.268114 264.448966 
L 140.757943 264.734632 
L 139.227429 264.714921 
L 138.717257 264.343712 
L 138.207086 264.31905 
L 137.186743 263.600124 
L 136.676571 262.916123 
L 136.1664 262.61255 
L 135.146057 261.45501 
L 134.635886 260.771382 
L 134.125714 260.504483 
L 133.615543 259.713409 
L 133.105371 256.224819 
L 132.5952 255.502221 
L 132.085029 254.50597 
L 130.554514 250.421776 
L 129.534171 246.844192 
L 128.513829 242.083102 
L 127.493486 236.592237 
L 125.962971 226.638735 
L 123.922286 210.795174 
L 121.8816 192.934934 
L 119.330743 170.585721 
L 116.269714 144.899074 
L 112.188343 106.743019 
L 110.657829 92.838224 
L 109.637486 81.336434 
L 108.106971 59.912317 
L 106.066286 30.803668 
L 104.535771 9.724962 
L 103.942873 -1 
L 103.942873 -1 
" clip-path="url(#pa2ee084e97)" style="fill: none; stroke: #1f1fe0; stroke-width: 0.5; stroke-linecap: square"/>
   </g>
   <g id="patch_3">
    <path d="M 57.6 307.584 
L 57.6 41.472 
" style="fill: none; stroke: #000000; stroke-width: 0.8; stroke-linejoin: miter; stroke-linecap: square"/>
   </g>
   <g id="patch_4">
    <path d="M 414.72 307.584 
L 414.72 41.472 
" style="fill: none; stroke: #000000; stroke-width: 0.8; stroke-linejoin: miter; stroke-linecap: square"/>
   </g>
   <g id="patch_5">
    <path d="M 57.6 307.584 
L 414.72 307.584 
" style="fill: none; stroke: #000000; stroke-width: 0.8; stroke-linejoin: miter; stroke-linecap: square"/>
   </g>
   <g id="patch_6">
    <path d="M 57.6 41.472 
L 414.72 41.472 
" style="fill: none; stroke: #000000; stroke-width: 0.8; stroke-linejoin: miter; stroke-linecap: square"/>
   </g>
   <g id="text_18">
    <!-- Direct Titration of Alizarin &amp; ompPBA in DMF  -->
    <g transform="translate(101.267812 22.034625) scale(0.12 -0.12)">
     <defs>
      <path id="DejaVuSans-44" d="M 1259 4147 
L 1259 519 
L 2022 519 
Q 2988 519 3436 956 
Q 3884 1394 3884 2338 
Q 3884 3275 3436 3711 
Q 2988 4147 2022 4147 
L 1259 4147 
z
M 628 4666 
L 1925 4666 
Q 3281 4666 3915 4102 
Q 4550 3538 4550 2338 
Q 4550 1131 3912 565 
Q 3275 0 1925 0 
L 628 0 
L 628 4666 
z
" transform="scale(0.015625)"/>
      <path id="DejaVuSans-69" d="M 603 3500 
L 1178 3500 
L 1178 0 
L 603 0 
L 603 3500 
z
M 603 4863 
L 1178 4863 
L 1178 4134 
L 603 4134 
L 603 4863 
z
" transform="scale(0.015625)"/>
      <path id="DejaVuSans-54" d="M -19 4666 
L 3928 4666 
L 3928 4134 
L 2272 4134 
L 2272 0 
L 1638 0 
L 1638 4134 
L -19 4134 
L -19 4666 
z
" transform="scale(0.015625)"/>
      <path id="DejaVuSans-66" d="M 2375 4863 
L 2375 4384 
L 1825 4384 
Q 1516 4384 1395 4259 
Q 1275 4134 1275 3809 
L 1275 3500 
L 2222 3500 
L 2222 3053 
L 1275 3053 
L 1275 0 
L 697 0 
L 697 3053 
L 147 3053 
L 147 3500 
L 697 3500 
L 697 3744 
Q 697 4328 969 4595 
Q 1241 4863 1831 4863 
L 2375 4863 
z
" transform="scale(0.015625)"/>
      <path id="DejaVuSans-7a" d="M 353 3500 
L 3084 3500 
L 3084 2975 
L 922 459 
L 3084 459 
L 3084 0 
L 275 0 
L 275 525 
L 2438 3041 
L 353 3041 
L 353 3500 
z
" transform="scale(0.015625)"/>
      <path id="DejaVuSans-26" d="M 1556 2509 
Q 1272 2256 1139 2004 
Q 1006 1753 1006 1478 
Q 1006 1022 1337 719 
Q 1669 416 2169 416 
Q 2466 416 2725 514 
Q 2984 613 3213 813 
L 1556 2509 
z
M 1997 2859 
L 3584 1234 
Q 3769 1513 3872 1830 
Q 3975 2147 3994 2503 
L 4575 2503 
Q 4538 2091 4375 1687 
Q 4213 1284 3922 891 
L 4794 0 
L 4006 0 
L 3559 459 
Q 3234 181 2878 45 
Q 2522 -91 2113 -91 
Q 1359 -91 881 339 
Q 403 769 403 1441 
Q 403 1841 612 2192 
Q 822 2544 1241 2853 
Q 1091 3050 1012 3245 
Q 934 3441 934 3628 
Q 934 4134 1281 4442 
Q 1628 4750 2203 4750 
Q 2463 4750 2720 4694 
Q 2978 4638 3244 4525 
L 3244 3956 
Q 2972 4103 2725 4179 
Q 2478 4256 2266 4256 
Q 1938 4256 1733 4082 
Q 1528 3909 1528 3634 
Q 1528 3475 1620 3314 
Q 1713 3153 1997 2859 
z
" transform="scale(0.015625)"/>
      <path id="DejaVuSans-70" d="M 1159 525 
L 1159 -1331 
L 581 -1331 
L 581 3500 
L 1159 3500 
L 1159 2969 
Q 1341 3281 1617 3432 
Q 1894 3584 2278 3584 
Q 2916 3584 3314 3078 
Q 3713 2572 3713 1747 
Q 3713 922 3314 415 
Q 2916 -91 2278 -91 
Q 1894 -91 1617 61 
Q 1341 213 1159 525 
z
M 3116 1747 
Q 3116 2381 2855 2742 
Q 2594 3103 2138 3103 
Q 1681 3103 1420 2742 
Q 1159 2381 1159 1747 
Q 1159 1113 1420 752 
Q 1681 391 2138 391 
Q 2594 391 2855 752 
Q 3116 1113 3116 1747 
z
" transform="scale(0.015625)"/>
      <path id="DejaVuSans-50" d="M 1259 4147 
L 1259 2394 
L 2053 2394 
Q 2494 2394 2734 2622 
Q 2975 2850 2975 3272 
Q 2975 3691 2734 3919 
Q 2494 4147 2053 4147 
L 1259 4147 
z
M 628 4666 
L 2053 4666 
Q 2838 4666 3239 4311 
Q 3641 3956 3641 3272 
Q 3641 2581 3239 2228 
Q 2838 1875 2053 1875 
L 1259 1875 
L 1259 0 
L 628 0 
L 628 4666 
z
" transform="scale(0.015625)"/>
      <path id="DejaVuSans-42" d="M 1259 2228 
L 1259 519 
L 2272 519 
Q 2781 519 3026 730 
Q 3272 941 3272 1375 
Q 3272 1813 3026 2020 
Q 2781 2228 2272 2228 
L 1259 2228 
z
M 1259 4147 
L 1259 2741 
L 2194 2741 
Q 2656 2741 2882 2914 
Q 3109 3088 3109 3444 
Q 3109 3797 2882 3972 
Q 2656 4147 2194 4147 
L 1259 4147 
z
M 628 4666 
L 2241 4666 
Q 2963 4666 3353 4366 
Q 3744 4066 3744 3513 
Q 3744 3084 3544 2831 
Q 3344 2578 2956 2516 
Q 3422 2416 3680 2098 
Q 3938 1781 3938 1306 
Q 3938 681 3513 340 
Q 3088 0 2303 0 
L 628 0 
L 628 4666 
z
" transform="scale(0.015625)"/>
      <path id="DejaVuSans-4d" d="M 628 4666 
L 1569 4666 
L 2759 1491 
L 3956 4666 
L 4897 4666 
L 4897 0 
L 4281 0 
L 4281 4097 
L 3078 897 
L 2444 897 
L 1241 4097 
L 1241 0 
L 628 0 
L 628 4666 
z
" transform="scale(0.015625)"/>
      <path id="DejaVuSans-46" d="M 628 4666 
L 3309 4666 
L 3309 4134 
L 1259 4134 
L 1259 2759 
L 3109 2759 
L 3109 2228 
L 1259 2228 
L 1259 0 
L 628 0 
L 628 4666 
z
" transform="scale(0.015625)"/>
     </defs>
     <use xlink:href="#DejaVuSans-44"/>
     <use xlink:href="#DejaVuSans-69" x="77.001953"/>
     <use xlink:href="#DejaVuSans-72" x="104.785156"/>
     <use xlink:href="#DejaVuSans-65" x="143.648438"/>
     <use xlink:href="#DejaVuSans-63" x="205.171875"/>
     <use xlink:href="#DejaVuSans-74" x="260.152344"/>
     <use xlink:href="#DejaVuSans-20" x="299.361328"/>
     <use xlink:href="#DejaVuSans-54" x="331.148438"/>
     <use xlink:href="#DejaVuSans-69" x="389.107422"/>
     <use xlink:href="#DejaVuSans-74" x="416.890625"/>
     <use xlink:href="#DejaVuSans-72" x="456.099609"/>
     <use xlink:href="#DejaVuSans-61" x="497.212891"/>
     <use xlink:href="#DejaVuSans-74" x="558.492188"/>
     <use xlink:href="#DejaVuSans-69" x="597.701172"/>
     <use xlink:href="#DejaVuSans-6f" x="625.484375"/>
     <use xlink:href="#DejaVuSans-6e" x="686.666016"/>
     <use xlink:href="#DejaVuSans-20" x="750.044922"/>
     <use xlink:href="#DejaVuSans-6f" x="781.832031"/>
     <use xlink:href="#DejaVuSans-66" x="843.013672"/>
     <use xlink:href="#DejaVuSans-20" x="878.21875"/>
     <use xlink:href="#DejaVuSans-41" x="910.005859"/>
     <use xlink:href="#DejaVuSans-6c" x="978.414062"/>
     <use xlink:href="#DejaVuSans-69" x="1006.197266"/>
     <use xlink:href="#DejaVuSans-7a" x="1033.980469"/>
     <use xlink:href="#DejaVuSans-61" x="1086.470703"/>
     <use xlink:href="#DejaVuSans-72" x="1147.75"/>
     <use xlink:href="#DejaVuSans-69" x="1188.863281"/>
     <use xlink:href="#DejaVuSans-6e" x="1216.646484"/>
     <use xlink:href="#DejaVuSans-20" x="1280.025391"/>
     <use xlink:href="#DejaVuSans-26" x="1311.8125"/>
     <use xlink:href="#DejaVuSans-20" x="1389.791016"/>
     <use xlink:href="#DejaVuSans-6f" x="1421.578125"/>
     <use xlink:href="#DejaVuSans-6d" x="1482.759766"/>
     <use xlink:href="#DejaVuSans-70" x="1580.171875"/>
     <use xlink:href="#DejaVuSans-50" x="1643.648438"/>
     <use xlink:href="#DejaVuSans-42" x="1703.951172"/>
     <use xlink:href="#DejaVuSans-41" x="1772.554688"/>
     <use xlink:href="#DejaVuSans-20" x="1840.962891"/>
     <use xlink:href="#DejaVuSans-69" x="1872.75"/>
     <use xlink:href="#DejaVuSans-6e" x="1900.533203"/>
     <use xlink:href="#DejaVuSans-20" x="1963.912109"/>
     <use xlink:href="#DejaVuSans-44" x="1995.699219"/>
     <use xlink:href="#DejaVuSans-4d" x="2072.701172"/>
     <use xlink:href="#DejaVuSans-46" x="2158.980469"/>
     <use xlink:href="#DejaVuSans-20" x="2216.5"/>
    </g>
    <!--  -->
    <g transform="translate(236.16 35.472) scale(0.12 -0.12)"/>
   </g>
  </g>
 </g>
 <defs>
  <clipPath id="pa2ee084e97">
   <rect x="57.6" y="41.472" width="357.12" height="266.112"/>
  </clipPath>
 </defs>
</svg>
