<?xml version="1.0" encoding="utf-8" standalone="no"?>
<!DOCTYPE svg PUBLIC "-//W3C//DTD SVG 1.1//EN"
  "http://www.w3.org/Graphics/SVG/1.1/DTD/svg11.dtd">
<svg xmlns:xlink="http://www.w3.org/1999/xlink" width="460.8pt" height="345.6pt" viewBox="0 0 460.8 345.6" xmlns="http://www.w3.org/2000/svg" version="1.1">
 <metadata>
  <rdf:RDF xmlns:dc="http://purl.org/dc/elements/1.1/" xmlns:cc="http://creativecommons.org/ns#" xmlns:rdf="http://www.w3.org/1999/02/22-rdf-syntax-ns#">
   <cc:Work>
    <dc:type rdf:resource="http://purl.org/dc/dcmitype/StillImage"/>
    <dc:date>2024-11-03T21:06:47.171680</dc:date>
    <dc:format>image/svg+xml</dc:format>
    <dc:creator>
     <cc:Agent>
      <dc:title>Matplotlib v3.9.2, https://matplotlib.org/</dc:title>
     </cc:Agent>
    </dc:creator>
   </cc:Work>
  </rdf:RDF>
 </metadata>
 <defs>
  <style type="text/css">*{stroke-linejoin: round; stroke-linecap: butt}</style>
 </defs>
 <g id="figure_1">
  <g id="patch_1">
   <path d="M 0 345.6 
L 460.8 345.6 
L 460.8 0 
L 0 0 
z
" style="fill: #ffffff"/>
  </g>
  <g id="axes_1">
   <g id="patch_2">
    <path d="M 57.6 307.584 
L 414.72 307.584 
L 414.72 41.472 
L 57.6 41.472 
z
" style="fill: #ffffff"/>
   </g>
   <g id="matplotlib.axis_1">
    <g id="xtick_1">
     <g id="line2d_1">
      <defs>
       <path id="m8a16d8637d" d="M 0 0 
L 0 3.5 
" style="stroke: #000000; stroke-width: 0.8"/>
      </defs>
      <g>
       <use xlink:href="#m8a16d8637d" x="57.6" y="307.584" style="stroke: #000000; stroke-width: 0.8"/>
      </g>
     </g>
     <g id="text_1">
      <!-- 200 -->
      <g transform="translate(48.05625 322.182437) scale(0.1 -0.1)">
       <defs>
        <path id="DejaVuSans-32" d="M 1228 531 
L 3431 531 
L 3431 0 
L 469 0 
L 469 531 
Q 828 903 1448 1529 
Q 2069 2156 2228 2338 
Q 2531 2678 2651 2914 
Q 2772 3150 2772 3378 
Q 2772 3750 2511 3984 
Q 2250 4219 1831 4219 
Q 1534 4219 1204 4116 
Q 875 4013 500 3803 
L 500 4441 
Q 881 4594 1212 4672 
Q 1544 4750 1819 4750 
Q 2544 4750 2975 4387 
Q 3406 4025 3406 3419 
Q 3406 3131 3298 2873 
Q 3191 2616 2906 2266 
Q 2828 2175 2409 1742 
Q 1991 1309 1228 531 
z
" transform="scale(0.015625)"/>
        <path id="DejaVuSans-30" d="M 2034 4250 
Q 1547 4250 1301 3770 
Q 1056 3291 1056 2328 
Q 1056 1369 1301 889 
Q 1547 409 2034 409 
Q 2525 409 2770 889 
Q 3016 1369 3016 2328 
Q 3016 3291 2770 3770 
Q 2525 4250 2034 4250 
z
M 2034 4750 
Q 2819 4750 3233 4129 
Q 3647 3509 3647 2328 
Q 3647 1150 3233 529 
Q 2819 -91 2034 -91 
Q 1250 -91 836 529 
Q 422 1150 422 2328 
Q 422 3509 836 4129 
Q 1250 4750 2034 4750 
z
" transform="scale(0.015625)"/>
       </defs>
       <use xlink:href="#DejaVuSans-32"/>
       <use xlink:href="#DejaVuSans-30" x="63.623047"/>
       <use xlink:href="#DejaVuSans-30" x="127.246094"/>
      </g>
     </g>
    </g>
    <g id="xtick_2">
     <g id="line2d_2">
      <g>
       <use xlink:href="#m8a16d8637d" x="108.617143" y="307.584" style="stroke: #000000; stroke-width: 0.8"/>
      </g>
     </g>
     <g id="text_2">
      <!-- 300 -->
      <g transform="translate(99.073393 322.182437) scale(0.1 -0.1)">
       <defs>
        <path id="DejaVuSans-33" d="M 2597 2516 
Q 3050 2419 3304 2112 
Q 3559 1806 3559 1356 
Q 3559 666 3084 287 
Q 2609 -91 1734 -91 
Q 1441 -91 1130 -33 
Q 819 25 488 141 
L 488 750 
Q 750 597 1062 519 
Q 1375 441 1716 441 
Q 2309 441 2620 675 
Q 2931 909 2931 1356 
Q 2931 1769 2642 2001 
Q 2353 2234 1838 2234 
L 1294 2234 
L 1294 2753 
L 1863 2753 
Q 2328 2753 2575 2939 
Q 2822 3125 2822 3475 
Q 2822 3834 2567 4026 
Q 2313 4219 1838 4219 
Q 1578 4219 1281 4162 
Q 984 4106 628 3988 
L 628 4550 
Q 988 4650 1302 4700 
Q 1616 4750 1894 4750 
Q 2613 4750 3031 4423 
Q 3450 4097 3450 3541 
Q 3450 3153 3228 2886 
Q 3006 2619 2597 2516 
z
" transform="scale(0.015625)"/>
       </defs>
       <use xlink:href="#DejaVuSans-33"/>
       <use xlink:href="#DejaVuSans-30" x="63.623047"/>
       <use xlink:href="#DejaVuSans-30" x="127.246094"/>
      </g>
     </g>
    </g>
    <g id="xtick_3">
     <g id="line2d_3">
      <g>
       <use xlink:href="#m8a16d8637d" x="159.634286" y="307.584" style="stroke: #000000; stroke-width: 0.8"/>
      </g>
     </g>
     <g id="text_3">
      <!-- 400 -->
      <g transform="translate(150.090536 322.182437) scale(0.1 -0.1)">
       <defs>
        <path id="DejaVuSans-34" d="M 2419 4116 
L 825 1625 
L 2419 1625 
L 2419 4116 
z
M 2253 4666 
L 3047 4666 
L 3047 1625 
L 3713 1625 
L 3713 1100 
L 3047 1100 
L 3047 0 
L 2419 0 
L 2419 1100 
L 313 1100 
L 313 1709 
L 2253 4666 
z
" transform="scale(0.015625)"/>
       </defs>
       <use xlink:href="#DejaVuSans-34"/>
       <use xlink:href="#DejaVuSans-30" x="63.623047"/>
       <use xlink:href="#DejaVuSans-30" x="127.246094"/>
      </g>
     </g>
    </g>
    <g id="xtick_4">
     <g id="line2d_4">
      <g>
       <use xlink:href="#m8a16d8637d" x="210.651429" y="307.584" style="stroke: #000000; stroke-width: 0.8"/>
      </g>
     </g>
     <g id="text_4">
      <!-- 500 -->
      <g transform="translate(201.107679 322.182437) scale(0.1 -0.1)">
       <defs>
        <path id="DejaVuSans-35" d="M 691 4666 
L 3169 4666 
L 3169 4134 
L 1269 4134 
L 1269 2991 
Q 1406 3038 1543 3061 
Q 1681 3084 1819 3084 
Q 2600 3084 3056 2656 
Q 3513 2228 3513 1497 
Q 3513 744 3044 326 
Q 2575 -91 1722 -91 
Q 1428 -91 1123 -41 
Q 819 9 494 109 
L 494 744 
Q 775 591 1075 516 
Q 1375 441 1709 441 
Q 2250 441 2565 725 
Q 2881 1009 2881 1497 
Q 2881 1984 2565 2268 
Q 2250 2553 1709 2553 
Q 1456 2553 1204 2497 
Q 953 2441 691 2322 
L 691 4666 
z
" transform="scale(0.015625)"/>
       </defs>
       <use xlink:href="#DejaVuSans-35"/>
       <use xlink:href="#DejaVuSans-30" x="63.623047"/>
       <use xlink:href="#DejaVuSans-30" x="127.246094"/>
      </g>
     </g>
    </g>
    <g id="xtick_5">
     <g id="line2d_5">
      <g>
       <use xlink:href="#m8a16d8637d" x="261.668571" y="307.584" style="stroke: #000000; stroke-width: 0.8"/>
      </g>
     </g>
     <g id="text_5">
      <!-- 600 -->
      <g transform="translate(252.124821 322.182437) scale(0.1 -0.1)">
       <defs>
        <path id="DejaVuSans-36" d="M 2113 2584 
Q 1688 2584 1439 2293 
Q 1191 2003 1191 1497 
Q 1191 994 1439 701 
Q 1688 409 2113 409 
Q 2538 409 2786 701 
Q 3034 994 3034 1497 
Q 3034 2003 2786 2293 
Q 2538 2584 2113 2584 
z
M 3366 4563 
L 3366 3988 
Q 3128 4100 2886 4159 
Q 2644 4219 2406 4219 
Q 1781 4219 1451 3797 
Q 1122 3375 1075 2522 
Q 1259 2794 1537 2939 
Q 1816 3084 2150 3084 
Q 2853 3084 3261 2657 
Q 3669 2231 3669 1497 
Q 3669 778 3244 343 
Q 2819 -91 2113 -91 
Q 1303 -91 875 529 
Q 447 1150 447 2328 
Q 447 3434 972 4092 
Q 1497 4750 2381 4750 
Q 2619 4750 2861 4703 
Q 3103 4656 3366 4563 
z
" transform="scale(0.015625)"/>
       </defs>
       <use xlink:href="#DejaVuSans-36"/>
       <use xlink:href="#DejaVuSans-30" x="63.623047"/>
       <use xlink:href="#DejaVuSans-30" x="127.246094"/>
      </g>
     </g>
    </g>
    <g id="xtick_6">
     <g id="line2d_6">
      <g>
       <use xlink:href="#m8a16d8637d" x="312.685714" y="307.584" style="stroke: #000000; stroke-width: 0.8"/>
      </g>
     </g>
     <g id="text_6">
      <!-- 700 -->
      <g transform="translate(303.141964 322.182437) scale(0.1 -0.1)">
       <defs>
        <path id="DejaVuSans-37" d="M 525 4666 
L 3525 4666 
L 3525 4397 
L 1831 0 
L 1172 0 
L 2766 4134 
L 525 4134 
L 525 4666 
z
" transform="scale(0.015625)"/>
       </defs>
       <use xlink:href="#DejaVuSans-37"/>
       <use xlink:href="#DejaVuSans-30" x="63.623047"/>
       <use xlink:href="#DejaVuSans-30" x="127.246094"/>
      </g>
     </g>
    </g>
    <g id="xtick_7">
     <g id="line2d_7">
      <g>
       <use xlink:href="#m8a16d8637d" x="363.702857" y="307.584" style="stroke: #000000; stroke-width: 0.8"/>
      </g>
     </g>
     <g id="text_7">
      <!-- 800 -->
      <g transform="translate(354.159107 322.182437) scale(0.1 -0.1)">
       <defs>
        <path id="DejaVuSans-38" d="M 2034 2216 
Q 1584 2216 1326 1975 
Q 1069 1734 1069 1313 
Q 1069 891 1326 650 
Q 1584 409 2034 409 
Q 2484 409 2743 651 
Q 3003 894 3003 1313 
Q 3003 1734 2745 1975 
Q 2488 2216 2034 2216 
z
M 1403 2484 
Q 997 2584 770 2862 
Q 544 3141 544 3541 
Q 544 4100 942 4425 
Q 1341 4750 2034 4750 
Q 2731 4750 3128 4425 
Q 3525 4100 3525 3541 
Q 3525 3141 3298 2862 
Q 3072 2584 2669 2484 
Q 3125 2378 3379 2068 
Q 3634 1759 3634 1313 
Q 3634 634 3220 271 
Q 2806 -91 2034 -91 
Q 1263 -91 848 271 
Q 434 634 434 1313 
Q 434 1759 690 2068 
Q 947 2378 1403 2484 
z
M 1172 3481 
Q 1172 3119 1398 2916 
Q 1625 2713 2034 2713 
Q 2441 2713 2670 2916 
Q 2900 3119 2900 3481 
Q 2900 3844 2670 4047 
Q 2441 4250 2034 4250 
Q 1625 4250 1398 4047 
Q 1172 3844 1172 3481 
z
" transform="scale(0.015625)"/>
       </defs>
       <use xlink:href="#DejaVuSans-38"/>
       <use xlink:href="#DejaVuSans-30" x="63.623047"/>
       <use xlink:href="#DejaVuSans-30" x="127.246094"/>
      </g>
     </g>
    </g>
    <g id="xtick_8">
     <g id="line2d_8">
      <g>
       <use xlink:href="#m8a16d8637d" x="414.72" y="307.584" style="stroke: #000000; stroke-width: 0.8"/>
      </g>
     </g>
     <g id="text_8">
      <!-- 900 -->
      <g transform="translate(405.17625 322.182437) scale(0.1 -0.1)">
       <defs>
        <path id="DejaVuSans-39" d="M 703 97 
L 703 672 
Q 941 559 1184 500 
Q 1428 441 1663 441 
Q 2288 441 2617 861 
Q 2947 1281 2994 2138 
Q 2813 1869 2534 1725 
Q 2256 1581 1919 1581 
Q 1219 1581 811 2004 
Q 403 2428 403 3163 
Q 403 3881 828 4315 
Q 1253 4750 1959 4750 
Q 2769 4750 3195 4129 
Q 3622 3509 3622 2328 
Q 3622 1225 3098 567 
Q 2575 -91 1691 -91 
Q 1453 -91 1209 -44 
Q 966 3 703 97 
z
M 1959 2075 
Q 2384 2075 2632 2365 
Q 2881 2656 2881 3163 
Q 2881 3666 2632 3958 
Q 2384 4250 1959 4250 
Q 1534 4250 1286 3958 
Q 1038 3666 1038 3163 
Q 1038 2656 1286 2365 
Q 1534 2075 1959 2075 
z
" transform="scale(0.015625)"/>
       </defs>
       <use xlink:href="#DejaVuSans-39"/>
       <use xlink:href="#DejaVuSans-30" x="63.623047"/>
       <use xlink:href="#DejaVuSans-30" x="127.246094"/>
      </g>
     </g>
    </g>
    <g id="text_9">
     <!-- Wavelength (nm) -->
     <g transform="translate(192.967812 335.860562) scale(0.1 -0.1)">
      <defs>
       <path id="DejaVuSans-57" d="M 213 4666 
L 850 4666 
L 1831 722 
L 2809 4666 
L 3519 4666 
L 4500 722 
L 5478 4666 
L 6119 4666 
L 4947 0 
L 4153 0 
L 3169 4050 
L 2175 0 
L 1381 0 
L 213 4666 
z
" transform="scale(0.015625)"/>
       <path id="DejaVuSans-61" d="M 2194 1759 
Q 1497 1759 1228 1600 
Q 959 1441 959 1056 
Q 959 750 1161 570 
Q 1363 391 1709 391 
Q 2188 391 2477 730 
Q 2766 1069 2766 1631 
L 2766 1759 
L 2194 1759 
z
M 3341 1997 
L 3341 0 
L 2766 0 
L 2766 531 
Q 2569 213 2275 61 
Q 1981 -91 1556 -91 
Q 1019 -91 701 211 
Q 384 513 384 1019 
Q 384 1609 779 1909 
Q 1175 2209 1959 2209 
L 2766 2209 
L 2766 2266 
Q 2766 2663 2505 2880 
Q 2244 3097 1772 3097 
Q 1472 3097 1187 3025 
Q 903 2953 641 2809 
L 641 3341 
Q 956 3463 1253 3523 
Q 1550 3584 1831 3584 
Q 2591 3584 2966 3190 
Q 3341 2797 3341 1997 
z
" transform="scale(0.015625)"/>
       <path id="DejaVuSans-76" d="M 191 3500 
L 800 3500 
L 1894 563 
L 2988 3500 
L 3597 3500 
L 2284 0 
L 1503 0 
L 191 3500 
z
" transform="scale(0.015625)"/>
       <path id="DejaVuSans-65" d="M 3597 1894 
L 3597 1613 
L 953 1613 
Q 991 1019 1311 708 
Q 1631 397 2203 397 
Q 2534 397 2845 478 
Q 3156 559 3463 722 
L 3463 178 
Q 3153 47 2828 -22 
Q 2503 -91 2169 -91 
Q 1331 -91 842 396 
Q 353 884 353 1716 
Q 353 2575 817 3079 
Q 1281 3584 2069 3584 
Q 2775 3584 3186 3129 
Q 3597 2675 3597 1894 
z
M 3022 2063 
Q 3016 2534 2758 2815 
Q 2500 3097 2075 3097 
Q 1594 3097 1305 2825 
Q 1016 2553 972 2059 
L 3022 2063 
z
" transform="scale(0.015625)"/>
       <path id="DejaVuSans-6c" d="M 603 4863 
L 1178 4863 
L 1178 0 
L 603 0 
L 603 4863 
z
" transform="scale(0.015625)"/>
       <path id="DejaVuSans-6e" d="M 3513 2113 
L 3513 0 
L 2938 0 
L 2938 2094 
Q 2938 2591 2744 2837 
Q 2550 3084 2163 3084 
Q 1697 3084 1428 2787 
Q 1159 2491 1159 1978 
L 1159 0 
L 581 0 
L 581 3500 
L 1159 3500 
L 1159 2956 
Q 1366 3272 1645 3428 
Q 1925 3584 2291 3584 
Q 2894 3584 3203 3211 
Q 3513 2838 3513 2113 
z
" transform="scale(0.015625)"/>
       <path id="DejaVuSans-67" d="M 2906 1791 
Q 2906 2416 2648 2759 
Q 2391 3103 1925 3103 
Q 1463 3103 1205 2759 
Q 947 2416 947 1791 
Q 947 1169 1205 825 
Q 1463 481 1925 481 
Q 2391 481 2648 825 
Q 2906 1169 2906 1791 
z
M 3481 434 
Q 3481 -459 3084 -895 
Q 2688 -1331 1869 -1331 
Q 1566 -1331 1297 -1286 
Q 1028 -1241 775 -1147 
L 775 -588 
Q 1028 -725 1275 -790 
Q 1522 -856 1778 -856 
Q 2344 -856 2625 -561 
Q 2906 -266 2906 331 
L 2906 616 
Q 2728 306 2450 153 
Q 2172 0 1784 0 
Q 1141 0 747 490 
Q 353 981 353 1791 
Q 353 2603 747 3093 
Q 1141 3584 1784 3584 
Q 2172 3584 2450 3431 
Q 2728 3278 2906 2969 
L 2906 3500 
L 3481 3500 
L 3481 434 
z
" transform="scale(0.015625)"/>
       <path id="DejaVuSans-74" d="M 1172 4494 
L 1172 3500 
L 2356 3500 
L 2356 3053 
L 1172 3053 
L 1172 1153 
Q 1172 725 1289 603 
Q 1406 481 1766 481 
L 2356 481 
L 2356 0 
L 1766 0 
Q 1100 0 847 248 
Q 594 497 594 1153 
L 594 3053 
L 172 3053 
L 172 3500 
L 594 3500 
L 594 4494 
L 1172 4494 
z
" transform="scale(0.015625)"/>
       <path id="DejaVuSans-68" d="M 3513 2113 
L 3513 0 
L 2938 0 
L 2938 2094 
Q 2938 2591 2744 2837 
Q 2550 3084 2163 3084 
Q 1697 3084 1428 2787 
Q 1159 2491 1159 1978 
L 1159 0 
L 581 0 
L 581 4863 
L 1159 4863 
L 1159 2956 
Q 1366 3272 1645 3428 
Q 1925 3584 2291 3584 
Q 2894 3584 3203 3211 
Q 3513 2838 3513 2113 
z
" transform="scale(0.015625)"/>
       <path id="DejaVuSans-20" transform="scale(0.015625)"/>
       <path id="DejaVuSans-28" d="M 1984 4856 
Q 1566 4138 1362 3434 
Q 1159 2731 1159 2009 
Q 1159 1288 1364 580 
Q 1569 -128 1984 -844 
L 1484 -844 
Q 1016 -109 783 600 
Q 550 1309 550 2009 
Q 550 2706 781 3412 
Q 1013 4119 1484 4856 
L 1984 4856 
z
" transform="scale(0.015625)"/>
       <path id="DejaVuSans-6d" d="M 3328 2828 
Q 3544 3216 3844 3400 
Q 4144 3584 4550 3584 
Q 5097 3584 5394 3201 
Q 5691 2819 5691 2113 
L 5691 0 
L 5113 0 
L 5113 2094 
Q 5113 2597 4934 2840 
Q 4756 3084 4391 3084 
Q 3944 3084 3684 2787 
Q 3425 2491 3425 1978 
L 3425 0 
L 2847 0 
L 2847 2094 
Q 2847 2600 2669 2842 
Q 2491 3084 2119 3084 
Q 1678 3084 1418 2786 
Q 1159 2488 1159 1978 
L 1159 0 
L 581 0 
L 581 3500 
L 1159 3500 
L 1159 2956 
Q 1356 3278 1631 3431 
Q 1906 3584 2284 3584 
Q 2666 3584 2933 3390 
Q 3200 3197 3328 2828 
z
" transform="scale(0.015625)"/>
       <path id="DejaVuSans-29" d="M 513 4856 
L 1013 4856 
Q 1481 4119 1714 3412 
Q 1947 2706 1947 2009 
Q 1947 1309 1714 600 
Q 1481 -109 1013 -844 
L 513 -844 
Q 928 -128 1133 580 
Q 1338 1288 1338 2009 
Q 1338 2731 1133 3434 
Q 928 4138 513 4856 
z
" transform="scale(0.015625)"/>
      </defs>
      <use xlink:href="#DejaVuSans-57"/>
      <use xlink:href="#DejaVuSans-61" x="92.501953"/>
      <use xlink:href="#DejaVuSans-76" x="153.78125"/>
      <use xlink:href="#DejaVuSans-65" x="212.960938"/>
      <use xlink:href="#DejaVuSans-6c" x="274.484375"/>
      <use xlink:href="#DejaVuSans-65" x="302.267578"/>
      <use xlink:href="#DejaVuSans-6e" x="363.791016"/>
      <use xlink:href="#DejaVuSans-67" x="427.169922"/>
      <use xlink:href="#DejaVuSans-74" x="490.646484"/>
      <use xlink:href="#DejaVuSans-68" x="529.855469"/>
      <use xlink:href="#DejaVuSans-20" x="593.234375"/>
      <use xlink:href="#DejaVuSans-28" x="625.021484"/>
      <use xlink:href="#DejaVuSans-6e" x="664.035156"/>
      <use xlink:href="#DejaVuSans-6d" x="727.414062"/>
      <use xlink:href="#DejaVuSans-29" x="824.826172"/>
     </g>
    </g>
   </g>
   <g id="matplotlib.axis_2">
    <g id="ytick_1">
     <g id="line2d_9">
      <defs>
       <path id="m86be9514c2" d="M 0 0 
L -3.5 0 
" style="stroke: #000000; stroke-width: 0.8"/>
      </defs>
      <g>
       <use xlink:href="#m86be9514c2" x="57.6" y="307.584" style="stroke: #000000; stroke-width: 0.8"/>
      </g>
     </g>
     <g id="text_10">
      <!-- 0.0 -->
      <g transform="translate(34.696875 311.383219) scale(0.1 -0.1)">
       <defs>
        <path id="DejaVuSans-2e" d="M 684 794 
L 1344 794 
L 1344 0 
L 684 0 
L 684 794 
z
" transform="scale(0.015625)"/>
       </defs>
       <use xlink:href="#DejaVuSans-30"/>
       <use xlink:href="#DejaVuSans-2e" x="63.623047"/>
       <use xlink:href="#DejaVuSans-30" x="95.410156"/>
      </g>
     </g>
    </g>
    <g id="ytick_2">
     <g id="line2d_10">
      <g>
       <use xlink:href="#m86be9514c2" x="57.6" y="263.232" style="stroke: #000000; stroke-width: 0.8"/>
      </g>
     </g>
     <g id="text_11">
      <!-- 0.2 -->
      <g transform="translate(34.696875 267.031219) scale(0.1 -0.1)">
       <use xlink:href="#DejaVuSans-30"/>
       <use xlink:href="#DejaVuSans-2e" x="63.623047"/>
       <use xlink:href="#DejaVuSans-32" x="95.410156"/>
      </g>
     </g>
    </g>
    <g id="ytick_3">
     <g id="line2d_11">
      <g>
       <use xlink:href="#m86be9514c2" x="57.6" y="218.88" style="stroke: #000000; stroke-width: 0.8"/>
      </g>
     </g>
     <g id="text_12">
      <!-- 0.4 -->
      <g transform="translate(34.696875 222.679219) scale(0.1 -0.1)">
       <use xlink:href="#DejaVuSans-30"/>
       <use xlink:href="#DejaVuSans-2e" x="63.623047"/>
       <use xlink:href="#DejaVuSans-34" x="95.410156"/>
      </g>
     </g>
    </g>
    <g id="ytick_4">
     <g id="line2d_12">
      <g>
       <use xlink:href="#m86be9514c2" x="57.6" y="174.528" style="stroke: #000000; stroke-width: 0.8"/>
      </g>
     </g>
     <g id="text_13">
      <!-- 0.6 -->
      <g transform="translate(34.696875 178.327219) scale(0.1 -0.1)">
       <use xlink:href="#DejaVuSans-30"/>
       <use xlink:href="#DejaVuSans-2e" x="63.623047"/>
       <use xlink:href="#DejaVuSans-36" x="95.410156"/>
      </g>
     </g>
    </g>
    <g id="ytick_5">
     <g id="line2d_13">
      <g>
       <use xlink:href="#m86be9514c2" x="57.6" y="130.176" style="stroke: #000000; stroke-width: 0.8"/>
      </g>
     </g>
     <g id="text_14">
      <!-- 0.8 -->
      <g transform="translate(34.696875 133.975219) scale(0.1 -0.1)">
       <use xlink:href="#DejaVuSans-30"/>
       <use xlink:href="#DejaVuSans-2e" x="63.623047"/>
       <use xlink:href="#DejaVuSans-38" x="95.410156"/>
      </g>
     </g>
    </g>
    <g id="ytick_6">
     <g id="line2d_14">
      <g>
       <use xlink:href="#m86be9514c2" x="57.6" y="85.824" style="stroke: #000000; stroke-width: 0.8"/>
      </g>
     </g>
     <g id="text_15">
      <!-- 1.0 -->
      <g transform="translate(34.696875 89.623219) scale(0.1 -0.1)">
       <defs>
        <path id="DejaVuSans-31" d="M 794 531 
L 1825 531 
L 1825 4091 
L 703 3866 
L 703 4441 
L 1819 4666 
L 2450 4666 
L 2450 531 
L 3481 531 
L 3481 0 
L 794 0 
L 794 531 
z
" transform="scale(0.015625)"/>
       </defs>
       <use xlink:href="#DejaVuSans-31"/>
       <use xlink:href="#DejaVuSans-2e" x="63.623047"/>
       <use xlink:href="#DejaVuSans-30" x="95.410156"/>
      </g>
     </g>
    </g>
    <g id="ytick_7">
     <g id="line2d_15">
      <g>
       <use xlink:href="#m86be9514c2" x="57.6" y="41.472" style="stroke: #000000; stroke-width: 0.8"/>
      </g>
     </g>
     <g id="text_16">
      <!-- 1.2 -->
      <g transform="translate(34.696875 45.271219) scale(0.1 -0.1)">
       <use xlink:href="#DejaVuSans-31"/>
       <use xlink:href="#DejaVuSans-2e" x="63.623047"/>
       <use xlink:href="#DejaVuSans-32" x="95.410156"/>
      </g>
     </g>
    </g>
    <g id="text_17">
     <!-- Absorbance -->
     <g transform="translate(28.617187 204.074875) rotate(-90) scale(0.1 -0.1)">
      <defs>
       <path id="DejaVuSans-41" d="M 2188 4044 
L 1331 1722 
L 3047 1722 
L 2188 4044 
z
M 1831 4666 
L 2547 4666 
L 4325 0 
L 3669 0 
L 3244 1197 
L 1141 1197 
L 716 0 
L 50 0 
L 1831 4666 
z
" transform="scale(0.015625)"/>
       <path id="DejaVuSans-62" d="M 3116 1747 
Q 3116 2381 2855 2742 
Q 2594 3103 2138 3103 
Q 1681 3103 1420 2742 
Q 1159 2381 1159 1747 
Q 1159 1113 1420 752 
Q 1681 391 2138 391 
Q 2594 391 2855 752 
Q 3116 1113 3116 1747 
z
M 1159 2969 
Q 1341 3281 1617 3432 
Q 1894 3584 2278 3584 
Q 2916 3584 3314 3078 
Q 3713 2572 3713 1747 
Q 3713 922 3314 415 
Q 2916 -91 2278 -91 
Q 1894 -91 1617 61 
Q 1341 213 1159 525 
L 1159 0 
L 581 0 
L 581 4863 
L 1159 4863 
L 1159 2969 
z
" transform="scale(0.015625)"/>
       <path id="DejaVuSans-73" d="M 2834 3397 
L 2834 2853 
Q 2591 2978 2328 3040 
Q 2066 3103 1784 3103 
Q 1356 3103 1142 2972 
Q 928 2841 928 2578 
Q 928 2378 1081 2264 
Q 1234 2150 1697 2047 
L 1894 2003 
Q 2506 1872 2764 1633 
Q 3022 1394 3022 966 
Q 3022 478 2636 193 
Q 2250 -91 1575 -91 
Q 1294 -91 989 -36 
Q 684 19 347 128 
L 347 722 
Q 666 556 975 473 
Q 1284 391 1588 391 
Q 1994 391 2212 530 
Q 2431 669 2431 922 
Q 2431 1156 2273 1281 
Q 2116 1406 1581 1522 
L 1381 1569 
Q 847 1681 609 1914 
Q 372 2147 372 2553 
Q 372 3047 722 3315 
Q 1072 3584 1716 3584 
Q 2034 3584 2315 3537 
Q 2597 3491 2834 3397 
z
" transform="scale(0.015625)"/>
       <path id="DejaVuSans-6f" d="M 1959 3097 
Q 1497 3097 1228 2736 
Q 959 2375 959 1747 
Q 959 1119 1226 758 
Q 1494 397 1959 397 
Q 2419 397 2687 759 
Q 2956 1122 2956 1747 
Q 2956 2369 2687 2733 
Q 2419 3097 1959 3097 
z
M 1959 3584 
Q 2709 3584 3137 3096 
Q 3566 2609 3566 1747 
Q 3566 888 3137 398 
Q 2709 -91 1959 -91 
Q 1206 -91 779 398 
Q 353 888 353 1747 
Q 353 2609 779 3096 
Q 1206 3584 1959 3584 
z
" transform="scale(0.015625)"/>
       <path id="DejaVuSans-72" d="M 2631 2963 
Q 2534 3019 2420 3045 
Q 2306 3072 2169 3072 
Q 1681 3072 1420 2755 
Q 1159 2438 1159 1844 
L 1159 0 
L 581 0 
L 581 3500 
L 1159 3500 
L 1159 2956 
Q 1341 3275 1631 3429 
Q 1922 3584 2338 3584 
Q 2397 3584 2469 3576 
Q 2541 3569 2628 3553 
L 2631 2963 
z
" transform="scale(0.015625)"/>
       <path id="DejaVuSans-63" d="M 3122 3366 
L 3122 2828 
Q 2878 2963 2633 3030 
Q 2388 3097 2138 3097 
Q 1578 3097 1268 2742 
Q 959 2388 959 1747 
Q 959 1106 1268 751 
Q 1578 397 2138 397 
Q 2388 397 2633 464 
Q 2878 531 3122 666 
L 3122 134 
Q 2881 22 2623 -34 
Q 2366 -91 2075 -91 
Q 1284 -91 818 406 
Q 353 903 353 1747 
Q 353 2603 823 3093 
Q 1294 3584 2113 3584 
Q 2378 3584 2631 3529 
Q 2884 3475 3122 3366 
z
" transform="scale(0.015625)"/>
      </defs>
      <use xlink:href="#DejaVuSans-41"/>
      <use xlink:href="#DejaVuSans-62" x="68.408203"/>
      <use xlink:href="#DejaVuSans-73" x="131.884766"/>
      <use xlink:href="#DejaVuSans-6f" x="183.984375"/>
      <use xlink:href="#DejaVuSans-72" x="245.166016"/>
      <use xlink:href="#DejaVuSans-62" x="286.279297"/>
      <use xlink:href="#DejaVuSans-61" x="349.755859"/>
      <use xlink:href="#DejaVuSans-6e" x="411.035156"/>
      <use xlink:href="#DejaVuSans-63" x="474.414062"/>
      <use xlink:href="#DejaVuSans-65" x="529.394531"/>
     </g>
    </g>
   </g>
   <g id="line2d_16">
    <path d="M 363.702857 308.234564 
L 363.192686 308.08024 
L 357.5808 308.231858 
L 352.989257 308.287027 
L 350.948571 308.251073 
L 348.397714 308.171381 
L 346.8672 308.081574 
L 345.336686 307.98404 
L 342.785829 307.722394 
L 333.602743 307.678354 
L 331.051886 307.883349 
L 330.031543 308.001223 
L 326.970514 308.204431 
L 322.378971 308.46085 
L 321.8688 308.587382 
L 321.358629 308.468558 
L 316.256914 308.648523 
L 310.134857 308.509697 
L 304.522971 308.147638 
L 300.4416 307.512348 
L 297.890743 307.000201 
L 292.789029 305.214528 
L 291.258514 304.463951 
L 289.217829 303.163903 
L 287.687314 302.014664 
L 285.136457 299.597778 
L 283.095771 297.121406 
L 281.565257 295.049584 
L 279.0144 290.681538 
L 276.973714 286.584336 
L 274.422857 280.625244 
L 272.382171 275.248585 
L 270.341486 269.475031 
L 267.280457 260.067688 
L 263.199086 246.72623 
L 259.117714 232.822552 
L 244.832914 183.501705 
L 242.282057 175.997835 
L 240.241371 170.666808 
L 238.200686 165.950348 
L 236.670171 162.928518 
L 235.649829 161.069602 
L 233.609143 158.00451 
L 232.078629 156.192438 
L 231.058286 155.188867 
L 229.527771 154.134407 
L 227.997257 153.435615 
L 226.466743 153.236448 
L 225.4464 153.382744 
L 224.426057 153.72296 
L 223.405714 154.238181 
L 222.385371 154.923782 
L 221.365029 155.861078 
L 219.834514 157.525744 
L 217.793829 160.412645 
L 216.263314 162.957241 
L 213.712457 167.950458 
L 211.671771 172.449033 
L 208.100571 181.157572 
L 205.039543 189.372724 
L 200.958171 200.947292 
L 195.856457 215.631476 
L 192.285257 225.270371 
L 190.244571 230.521747 
L 187.183543 238.131036 
L 181.061486 251.895887 
L 179.530971 254.977147 
L 175.959771 261.138802 
L 174.939429 262.762978 
L 172.898743 265.543713 
L 171.368229 267.187256 
L 170.347886 268.102369 
L 168.817371 269.060762 
L 167.286857 269.544343 
L 165.756343 269.627503 
L 163.205486 269.086328 
L 161.1648 268.339 
L 158.613943 266.884295 
L 156.573257 265.08549 
L 156.063086 264.608045 
L 151.981714 258.940886 
L 150.961371 257.212351 
L 150.4512 256.106318 
L 149.941029 255.298776 
L 148.920686 253.119001 
L 147.900343 250.647328 
L 146.369829 246.091406 
L 144.839314 240.358131 
L 144.329143 237.671614 
L 143.818971 235.617277 
L 143.3088 231.228675 
L 142.798629 230.088741 
L 141.268114 220.267908 
L 138.717257 200.186686 
L 135.146057 166.865927 
L 134.125714 158.167117 
L 133.615543 155.193837 
L 133.105371 136.608323 
L 132.085029 127.126127 
L 130.554514 112.298733 
L 129.024 99.216278 
L 127.493486 87.231359 
L 126.473143 80.099746 
L 125.4528 74.439222 
L 124.942629 72.22025 
L 124.432457 70.747033 
L 123.922286 69.883268 
L 123.412114 69.563077 
L 122.901943 69.907218 
L 122.391771 70.747271 
L 121.8816 72.361391 
L 120.861257 77.032394 
L 119.840914 83.471216 
L 118.820571 91.058676 
L 116.779886 109.637462 
L 112.698514 148.234837 
L 111.168 155.515007 
L 110.657829 157.092711 
L 110.147657 157.824945 
L 109.637486 157.946285 
L 109.127314 157.222564 
L 108.617143 155.506494 
L 108.106971 152.747953 
L 107.5968 149.213691 
L 106.576457 139.253085 
L 105.556114 126.065097 
L 104.0256 102.635081 
L 101.984914 67.888947 
L 100.964571 48.043949 
L 99.944229 24.186412 
L 99.105374 -1 
L 99.105374 -1 
" clip-path="url(#pf1e587ec82)" style="fill: none; stroke: #e01f1f; stroke-width: 0.5; stroke-linecap: square"/>
   </g>
   <g id="line2d_17">
    <path d="M 363.702857 308.403396 
L 363.192686 308.259186 
L 352.479086 308.377304 
L 349.418057 308.234747 
L 346.357029 308.073946 
L 341.765486 307.725088 
L 339.7248 307.626372 
L 336.663771 307.610939 
L 327.990857 308.107772 
L 325.950171 308.247128 
L 323.909486 308.355843 
L 322.378971 308.428293 
L 321.8688 308.582157 
L 321.358629 308.456287 
L 316.767086 308.64118 
L 310.645029 308.568454 
L 309.114514 308.485757 
L 308.094171 308.505864 
L 306.563657 308.382279 
L 302.992457 307.98022 
L 300.951771 307.65672 
L 299.421257 307.412359 
L 297.380571 306.951949 
L 295.339886 306.315576 
L 293.2992 305.611381 
L 290.748343 304.386096 
L 289.217829 303.477685 
L 287.177143 301.962111 
L 285.136457 300.07536 
L 283.605943 298.390613 
L 282.075429 296.524035 
L 279.524571 292.673392 
L 277.483886 288.963086 
L 275.4432 284.676459 
L 273.912686 281.210934 
L 271.361829 274.738917 
L 268.3008 266.205506 
L 265.239771 257.091204 
L 261.1584 244.331316 
L 253.505829 219.417468 
L 248.914286 204.478787 
L 245.343086 193.195853 
L 242.792229 186.204178 
L 240.751543 181.061228 
L 239.221029 177.53947 
L 236.670171 172.511014 
L 235.139657 169.964779 
L 233.609143 167.793431 
L 232.078629 165.959272 
L 230.548114 164.544451 
L 229.527771 163.816844 
L 228.507429 163.208436 
L 227.487086 162.824389 
L 225.956571 162.508983 
L 224.936229 162.548003 
L 223.915886 162.686791 
L 222.895543 163.038771 
L 221.8752 163.546749 
L 220.854857 164.11734 
L 218.304 166.429367 
L 216.773486 168.168516 
L 214.222629 171.792091 
L 210.651429 177.911568 
L 209.120914 180.771174 
L 205.549714 188.210315 
L 201.468343 197.473887 
L 197.897143 206.056353 
L 193.815771 215.742773 
L 190.754743 222.814614 
L 183.612343 238.931661 
L 178.000457 250.452967 
L 173.919086 257.547054 
L 172.388571 259.783676 
L 170.858057 261.691952 
L 169.837714 262.740467 
L 168.817371 263.568676 
L 167.797029 264.256897 
L 166.776686 264.753038 
L 164.736 265.268699 
L 163.205486 265.316003 
L 160.654629 265.053673 
L 158.613943 264.439268 
L 156.573257 263.240881 
L 155.042743 261.809512 
L 153.002057 259.604134 
L 151.471543 257.561954 
L 149.430857 254.219095 
L 148.410514 252.153823 
L 147.390171 249.679784 
L 146.369829 246.809842 
L 144.839314 241.52973 
L 144.329143 239.04854 
L 143.818971 237.170696 
L 143.3088 232.98327 
L 142.798629 232.044071 
L 141.268114 222.90525 
L 138.207086 199.87994 
L 137.696914 194.68961 
L 136.676571 186.518738 
L 135.146057 172.629962 
L 134.635886 168.812163 
L 134.125714 164.088287 
L 133.615543 161.525794 
L 133.105371 143.774873 
L 132.085029 134.634876 
L 130.044343 115.803098 
L 126.983314 91.834768 
L 125.962971 85.102786 
L 124.942629 80.072916 
L 124.432457 78.208739 
L 123.922286 77.122701 
L 123.412114 76.388683 
L 122.901943 76.358044 
L 122.391771 76.988169 
L 121.8816 77.852621 
L 121.371429 79.580495 
L 120.351086 84.224561 
L 119.330743 90.18225 
L 118.3104 97.444205 
L 117.290057 105.645267 
L 112.698514 145.577415 
L 110.657829 153.910736 
L 110.147657 154.575346 
L 109.637486 154.635924 
L 109.127314 153.967136 
L 108.617143 152.334353 
L 108.106971 149.838544 
L 107.5968 146.307044 
L 107.086629 141.981002 
L 106.066286 130.539724 
L 105.045943 116.226362 
L 103.005257 82.291888 
L 101.474743 53.853732 
L 100.4544 32.165918 
L 99.22223 -1 
L 99.22223 -1 
" clip-path="url(#pf1e587ec82)" style="fill: none; stroke: #d31f2c; stroke-width: 0.5; stroke-linecap: square"/>
   </g>
   <g id="line2d_18">
    <path d="M 363.702857 308.292396 
L 363.192686 308.109513 
L 360.131657 308.223644 
L 357.070629 308.299094 
L 354.0096 308.303555 
L 352.479086 308.309875 
L 351.458743 308.265291 
L 348.907886 308.182104 
L 344.826514 307.891443 
L 342.785829 307.699361 
L 341.765486 307.69854 
L 339.7248 307.59365 
L 336.663771 307.609671 
L 332.072229 307.738433 
L 325.950171 308.236501 
L 324.929829 308.262997 
L 321.8688 308.519533 
L 321.358629 308.371873 
L 317.277257 308.564921 
L 312.685714 308.601804 
L 310.645029 308.520763 
L 302.482286 307.900025 
L 300.4416 307.62743 
L 297.380571 307.046773 
L 296.360229 306.655859 
L 294.829714 306.278437 
L 293.2992 305.76583 
L 290.238171 304.35438 
L 288.197486 303.100306 
L 286.666971 301.921431 
L 284.116114 299.522313 
L 282.075429 297.205734 
L 280.034743 294.329433 
L 277.994057 290.985945 
L 275.4432 286.037453 
L 273.402514 281.553374 
L 270.341486 274.012367 
L 266.770286 264.28399 
L 260.138057 244.697846 
L 244.832914 198.038586 
L 242.282057 191.396565 
L 240.241371 186.59485 
L 237.180343 180.451263 
L 235.649829 177.85862 
L 233.609143 174.932964 
L 231.568457 172.606134 
L 230.037943 171.277944 
L 228.507429 170.188919 
L 226.976914 169.461391 
L 225.956571 169.132132 
L 224.426057 168.932872 
L 222.895543 168.994468 
L 221.365029 169.402545 
L 219.834514 170.085118 
L 217.283657 171.833718 
L 215.242971 173.715316 
L 213.202286 176.062212 
L 211.1616 178.743349 
L 208.610743 182.446404 
L 205.549714 187.51187 
L 200.448 197.035055 
L 196.8768 204.323043 
L 191.264914 216.051335 
L 178.000457 244.942992 
L 173.408914 253.753747 
L 171.368229 257.020492 
L 169.837714 259.076811 
L 168.3072 260.694517 
L 166.776686 261.966488 
L 165.756343 262.592565 
L 164.225829 263.343921 
L 163.205486 263.687544 
L 162.695314 263.706099 
L 161.674971 263.99381 
L 160.144457 264.159242 
L 158.103771 263.96138 
L 156.063086 263.137953 
L 153.512229 261.177169 
L 152.491886 260.217122 
L 150.961371 258.398741 
L 150.4512 257.578149 
L 149.941029 257.029156 
L 148.920686 255.316258 
L 147.390171 252.119995 
L 145.859657 247.997139 
L 144.839314 244.647161 
L 144.329143 242.26617 
L 143.818971 240.537516 
L 143.3088 236.6109 
L 142.798629 235.78854 
L 141.268114 227.294239 
L 138.207086 205.412953 
L 137.696914 200.595958 
L 137.186743 197.05623 
L 134.125714 171.512456 
L 133.615543 168.687309 
L 133.105371 152.374882 
L 132.085029 143.656933 
L 130.554514 130.235358 
L 128.513829 113.758023 
L 126.983314 102.684561 
L 125.962971 96.07996 
L 124.942629 91.072507 
L 124.432457 88.819868 
L 123.922286 87.60682 
L 123.412114 86.691967 
L 122.901943 86.411747 
L 121.8816 87.356988 
L 121.371429 88.603398 
L 120.351086 92.180037 
L 119.330743 97.329305 
L 118.3104 103.836172 
L 117.290057 111.307724 
L 112.698514 148.779461 
L 110.657829 157.182294 
L 110.147657 157.98646 
L 109.637486 158.197563 
L 109.127314 157.806207 
L 108.617143 156.447431 
L 108.106971 154.212385 
L 107.5968 151.073696 
L 106.576457 142.216998 
L 105.556114 129.842944 
L 104.0256 106.729299 
L 101.984914 70.980413 
L 100.4544 39.259347 
L 99.434057 13.425836 
L 98.953143 -1 
L 98.953143 -1 
" clip-path="url(#pf1e587ec82)" style="fill: none; stroke: #c51f3a; stroke-width: 0.5; stroke-linecap: square"/>
   </g>
   <g id="line2d_19">
    <path d="M 363.702857 308.182673 
L 363.192686 308.056762 
L 360.641829 308.118118 
L 357.070629 308.249937 
L 347.377371 308.106676 
L 344.826514 307.950266 
L 341.255314 307.650915 
L 339.214629 307.621949 
L 336.663771 307.605658 
L 332.072229 307.768277 
L 327.990857 308.195169 
L 325.44 308.301526 
L 323.399314 308.447962 
L 316.256914 308.729543 
L 315.236571 308.713747 
L 309.624686 308.596758 
L 304.522971 308.275284 
L 299.421257 307.676391 
L 297.380571 307.279524 
L 295.850057 306.833009 
L 293.809371 306.298647 
L 290.238171 304.86984 
L 287.687314 303.431596 
L 285.136457 301.4867 
L 283.095771 299.600859 
L 280.544914 296.60867 
L 279.0144 294.469705 
L 277.483886 292.106499 
L 274.933029 287.575075 
L 271.361829 280.125639 
L 268.3008 272.937552 
L 264.7296 263.911407 
L 259.117714 248.961262 
L 244.832914 210.21011 
L 242.282057 204.264931 
L 240.241371 199.952854 
L 238.200686 196.129231 
L 236.670171 193.576784 
L 235.139657 191.256205 
L 233.098971 188.606289 
L 231.568457 186.860253 
L 228.507429 184.117335 
L 227.487086 183.349414 
L 225.956571 182.404385 
L 222.895543 181.117488 
L 220.854857 180.664377 
L 219.324343 180.489768 
L 217.793829 180.531339 
L 216.263314 180.754285 
L 213.712457 181.503002 
L 212.181943 182.165603 
L 209.631086 183.553816 
L 205.549714 186.671581 
L 203.509029 188.562167 
L 200.958171 191.292819 
L 197.386971 195.811195 
L 193.815771 201.121655 
L 190.244571 207.208173 
L 186.1632 215.200075 
L 184.122514 219.588836 
L 181.061486 226.499386 
L 172.898743 244.884536 
L 170.347886 249.775446 
L 167.797029 253.733145 
L 166.266514 255.663435 
L 164.225829 257.764344 
L 162.185143 259.371354 
L 159.124114 261.097641 
L 157.5936 261.492394 
L 156.063086 261.548438 
L 154.0224 260.962646 
L 153.002057 260.513792 
L 150.961371 259.033183 
L 150.4512 258.403071 
L 149.941029 257.991415 
L 148.920686 256.686393 
L 147.900343 255.117184 
L 146.369829 251.983323 
L 144.839314 247.841948 
L 144.329143 245.786389 
L 143.818971 244.340506 
L 143.3088 240.759935 
L 142.798629 240.211742 
L 141.268114 232.726556 
L 138.207086 213.437213 
L 137.696914 209.119591 
L 137.186743 206.027118 
L 136.1664 197.960912 
L 135.656229 193.340328 
L 135.146057 190.343336 
L 134.125714 182.928819 
L 133.615543 180.307533 
L 133.105371 165.633626 
L 132.085029 157.58112 
L 129.534171 137.334284 
L 126.473143 115.760567 
L 125.4528 109.735704 
L 124.432457 104.956855 
L 123.922286 103.115889 
L 123.412114 101.711815 
L 122.901943 100.729154 
L 121.8816 100.152007 
L 120.861257 101.451395 
L 120.351086 102.650684 
L 119.840914 104.140754 
L 118.820571 108.257173 
L 117.290057 116.459649 
L 115.759543 126.898678 
L 113.718857 141.256598 
L 112.698514 148.199512 
L 111.678171 152.496739 
L 111.168 154.481622 
L 110.657829 155.880779 
L 110.147657 156.773187 
L 109.637486 157.244842 
L 109.127314 156.925325 
L 108.617143 155.8135 
L 108.106971 154.077589 
L 107.5968 151.305024 
L 107.086629 147.687542 
L 106.066286 137.778948 
L 105.045943 124.60669 
L 104.0256 108.604751 
L 102.495086 81.086113 
L 100.4544 38.869115 
L 99.434057 13.866721 
L 98.91368 -1 
L 98.91368 -1 
" clip-path="url(#pf1e587ec82)" style="fill: none; stroke: #b71f48; stroke-width: 0.5; stroke-linecap: square"/>
   </g>
   <g id="line2d_20">
    <path d="M 363.702857 308.288409 
L 363.192686 308.133394 
L 359.111314 308.295631 
L 356.560457 308.267372 
L 355.029943 308.36478 
L 354.0096 308.286174 
L 352.989257 308.321978 
L 348.397714 308.208501 
L 344.826514 307.93296 
L 338.194286 307.584 
L 329.521371 308.016511 
L 321.8688 308.592914 
L 321.358629 308.481998 
L 315.236571 308.715173 
L 302.992457 308.182168 
L 297.380571 307.42495 
L 295.339886 306.898024 
L 294.319543 306.662512 
L 291.258514 305.65933 
L 289.728 305.01884 
L 286.1568 302.949149 
L 282.5856 300.063061 
L 280.544914 297.870436 
L 277.994057 294.578917 
L 274.933029 289.856245 
L 272.382171 285.224122 
L 269.321143 279.084116 
L 264.7296 268.985651 
L 252.995657 241.056473 
L 248.914286 231.150074 
L 246.363429 225.319323 
L 243.3024 218.545526 
L 241.261714 214.574544 
L 239.7312 211.816723 
L 237.690514 208.484437 
L 235.649829 205.504509 
L 233.098971 202.271014 
L 229.527771 198.473643 
L 226.466743 195.767861 
L 223.915886 193.732511 
L 221.365029 191.972426 
L 220.344686 191.278154 
L 216.263314 189.062803 
L 213.712457 188.087571 
L 210.651429 187.360982 
L 207.5904 187.006451 
L 204.529371 187.222405 
L 201.978514 187.824759 
L 200.448 188.375088 
L 197.897143 189.883266 
L 195.856457 191.541852 
L 193.815771 193.605487 
L 191.775086 196.140434 
L 189.7344 199.119048 
L 188.203886 201.630117 
L 184.632686 208.480452 
L 182.081829 214.13896 
L 176.980114 226.56882 
L 171.8784 239.281333 
L 170.347886 242.740675 
L 167.797029 247.819994 
L 165.246171 252.011332 
L 163.205486 254.872993 
L 161.1648 257.182399 
L 160.144457 258.267694 
L 158.103771 259.991916 
L 156.063086 260.991555 
L 153.002057 261.20969 
L 151.981714 261.002876 
L 150.961371 260.5676 
L 150.4512 260.100009 
L 149.430857 259.484001 
L 148.410514 258.433968 
L 147.390171 257.017959 
L 146.88 256.225802 
L 145.349486 253.075342 
L 143.818971 248.799363 
L 143.3088 245.548163 
L 142.798629 245.232102 
L 141.268114 238.691192 
L 138.717257 224.973575 
L 136.1664 208.096755 
L 135.656229 203.864448 
L 135.146057 201.193383 
L 134.125714 194.318303 
L 133.615543 192.177052 
L 133.105371 179.366794 
L 132.085029 172.135346 
L 129.534171 153.569288 
L 125.4528 127.031182 
L 123.922286 119.916118 
L 123.412114 117.986856 
L 122.391771 115.579594 
L 121.8816 114.924699 
L 121.371429 114.69361 
L 120.861257 114.784959 
L 120.351086 115.182105 
L 119.840914 116.030867 
L 118.820571 118.599176 
L 118.3104 120.297468 
L 117.290057 124.840602 
L 115.759543 133.182818 
L 114.229029 142.508726 
L 112.698514 151.717827 
L 112.188343 153.454385 
L 111.168 157.444771 
L 110.657829 158.948786 
L 110.147657 159.995249 
L 109.637486 160.562668 
L 109.127314 160.420337 
L 108.617143 159.71791 
L 108.106971 158.218072 
L 107.5968 156.031259 
L 106.576457 148.836253 
L 105.556114 138.151674 
L 104.535771 124.124785 
L 103.005257 97.933068 
L 101.474743 67.686197 
L 99.944229 34.072562 
L 98.923886 8.255758 
L 98.623877 -1 
L 98.623877 -1 
" clip-path="url(#pf1e587ec82)" style="fill: none; stroke: #a91f56; stroke-width: 0.5; stroke-linecap: square"/>
   </g>
   <g id="line2d_21">
    <path d="M 363.702857 308.232491 
L 363.192686 308.088602 
L 361.152 308.162602 
L 350.948571 308.214356 
L 345.336686 307.940287 
L 341.765486 307.64916 
L 339.7248 307.551313 
L 337.684114 307.555581 
L 328.501029 308.063104 
L 326.970514 308.192007 
L 322.889143 308.436765 
L 320.338286 308.527819 
L 316.767086 308.70832 
L 314.216229 308.743621 
L 310.645029 308.693998 
L 304.0128 308.379137 
L 298.911086 307.93315 
L 296.8704 307.576668 
L 295.850057 307.336568 
L 294.319543 307.080731 
L 291.258514 306.272862 
L 289.217829 305.577198 
L 284.116114 302.785867 
L 282.075429 301.324239 
L 280.034743 299.417993 
L 277.483886 296.647929 
L 274.422857 292.65572 
L 271.872 288.774569 
L 269.321143 284.476502 
L 266.260114 278.888074 
L 261.668571 270.027847 
L 252.485486 251.621019 
L 246.8736 240.67045 
L 243.812571 235.004857 
L 241.261714 230.751679 
L 238.710857 226.858431 
L 236.16 223.412723 
L 233.609143 220.18433 
L 231.568457 217.860169 
L 227.487086 213.206151 
L 223.405714 208.162917 
L 218.304 201.089701 
L 214.222629 195.34981 
L 211.1616 191.338619 
L 207.5904 187.040308 
L 203.509029 182.959842 
L 200.958171 181.059302 
L 199.427657 180.291922 
L 197.386971 179.769708 
L 195.856457 179.80463 
L 193.815771 180.502867 
L 192.285257 181.46845 
L 190.754743 182.871599 
L 189.224229 184.667532 
L 187.183543 187.683043 
L 186.1632 189.385102 
L 184.632686 192.380403 
L 183.102171 195.729508 
L 180.551314 202.043553 
L 176.980114 211.890604 
L 170.858057 229.993809 
L 168.3072 236.82679 
L 165.246171 244.023177 
L 163.205486 248.224244 
L 160.654629 252.833044 
L 159.124114 255.239162 
L 157.5936 257.268282 
L 156.063086 258.928992 
L 153.512229 260.702299 
L 152.491886 261.115069 
L 151.471543 261.345418 
L 150.961371 261.344535 
L 150.4512 261.219249 
L 149.941029 261.247853 
L 148.920686 260.857458 
L 147.900343 260.185677 
L 146.88 259.158452 
L 145.349486 256.9505 
L 144.839314 255.956307 
L 144.329143 254.506056 
L 143.818971 253.721248 
L 143.3088 250.975191 
L 142.798629 250.975443 
L 141.268114 245.752247 
L 138.717257 234.735502 
L 138.207086 231.716019 
L 137.696914 229.596538 
L 136.1664 221.026636 
L 135.656229 217.30501 
L 135.146057 215.049529 
L 134.125714 209.164585 
L 133.615543 207.56973 
L 133.105371 196.283498 
L 132.085029 189.939845 
L 124.432457 141.15667 
L 122.901943 133.932452 
L 121.8816 130.224309 
L 120.861257 127.70365 
L 120.351086 127.013542 
L 119.840914 126.70037 
L 119.330743 126.671951 
L 118.820571 127.13442 
L 118.3104 127.835406 
L 117.800229 128.809964 
L 117.290057 130.172402 
L 116.269714 133.729584 
L 112.698514 149.814689 
L 112.188343 151.120462 
L 110.657829 155.922495 
L 110.147657 156.999822 
L 109.637486 157.551459 
L 109.127314 157.803022 
L 108.617143 157.374669 
L 108.106971 156.334141 
L 107.5968 154.416365 
L 107.086629 151.734302 
L 106.576457 148.184417 
L 105.556114 138.088697 
L 104.535771 124.072091 
L 103.515429 106.519703 
L 101.984914 75.385632 
L 99.434057 17.881415 
L 98.694656 -1 
L 98.694656 -1 
" clip-path="url(#pf1e587ec82)" style="fill: none; stroke: #9b1f64; stroke-width: 0.5; stroke-linecap: square"/>
   </g>
   <g id="line2d_22">
    <path d="M 363.702857 308.265589 
L 363.192686 308.106459 
L 361.662171 308.190159 
L 359.621486 308.220395 
L 353.499429 308.316898 
L 351.968914 308.256179 
L 350.948571 308.29219 
L 339.214629 307.60618 
L 330.541714 307.942798 
L 326.970514 308.242045 
L 322.378971 308.512145 
L 321.8688 308.61993 
L 321.358629 308.524974 
L 313.706057 308.767467 
L 310.645029 308.756594 
L 302.482286 308.420541 
L 301.461943 308.337909 
L 299.421257 308.182355 
L 297.380571 307.994256 
L 296.360229 307.768137 
L 292.278857 307.144261 
L 289.217829 306.36618 
L 284.626286 304.586677 
L 281.055086 302.478803 
L 279.524571 301.422691 
L 275.953371 298.319112 
L 272.892343 295.06279 
L 268.810971 290.023165 
L 264.7296 284.464941 
L 255.546514 271.265384 
L 249.424457 262.330313 
L 244.322743 255.125351 
L 240.241371 250.015704 
L 235.139657 244.268801 
L 232.5888 241.426563 
L 229.527771 237.622689 
L 227.487086 234.708367 
L 226.466743 233.110994 
L 224.936229 230.45273 
L 222.385371 225.482565 
L 219.834514 219.80963 
L 215.753143 209.739804 
L 207.5904 189.030453 
L 204.0192 180.712769 
L 201.468343 175.393294 
L 199.427657 171.823146 
L 197.897143 169.637879 
L 196.8768 168.487721 
L 195.346286 167.20311 
L 194.325943 166.690546 
L 192.795429 166.391477 
L 191.775086 166.527912 
L 190.244571 167.212588 
L 189.7344 167.56277 
L 188.203886 169.069098 
L 186.673371 171.08462 
L 185.653029 172.73279 
L 184.122514 175.734052 
L 182.592 179.231621 
L 180.551314 184.648288 
L 178.000457 192.434889 
L 174.939429 202.9439 
L 169.837714 221.002587 
L 165.756343 234.281547 
L 163.715657 240.3549 
L 160.654629 248.406778 
L 158.103771 254.102508 
L 156.573257 257.006324 
L 155.552914 258.741075 
L 153.512229 261.521912 
L 151.981714 263.130837 
L 150.961371 263.862393 
L 148.920686 264.665508 
L 147.390171 264.499454 
L 145.349486 263.151814 
L 144.839314 262.562149 
L 144.329143 261.733573 
L 143.818971 261.161231 
L 143.3088 258.969609 
L 142.798629 259.344684 
L 142.288457 258.267308 
L 141.778286 256.888757 
L 141.268114 255.861573 
L 139.7376 251.417775 
L 139.227429 249.721096 
L 138.717257 247.443852 
L 138.207086 246.134934 
L 135.656229 235.558141 
L 134.635886 231.016455 
L 133.615543 227.344753 
L 133.105371 218.85137 
L 132.5952 216.569064 
L 130.554514 205.556621 
L 128.003657 191.205344 
L 121.8816 152.873081 
L 120.861257 148.062575 
L 120.351086 145.954303 
L 119.330743 143.063979 
L 118.820571 142.23265 
L 118.3104 141.777491 
L 117.800229 141.495711 
L 117.290057 141.807456 
L 116.779886 142.284491 
L 116.269714 143.051197 
L 115.249371 145.268649 
L 113.718857 149.565031 
L 113.208686 151.012764 
L 112.698514 153.166255 
L 112.188343 154.310385 
L 111.168 157.337766 
L 110.147657 159.948676 
L 109.637486 160.867283 
L 109.127314 161.45051 
L 108.617143 161.639276 
L 108.106971 161.12297 
L 107.5968 159.990987 
L 107.086629 158.035844 
L 106.576457 155.267984 
L 106.066286 151.552174 
L 105.045943 140.635819 
L 104.0256 125.291552 
L 103.005257 105.834923 
L 100.964571 60.450527 
L 98.240515 -1 
L 98.240515 -1 
" clip-path="url(#pf1e587ec82)" style="fill: none; stroke: #8d1f72; stroke-width: 0.5; stroke-linecap: square"/>
   </g>
   <g id="line2d_23">
    <path d="M 363.702857 308.186299 
L 363.192686 307.972595 
L 361.152 308.070787 
L 349.928229 308.166699 
L 339.7248 307.545889 
L 332.072229 307.74294 
L 329.521371 308.024249 
L 322.378971 308.472955 
L 321.8688 308.58616 
L 320.848457 308.50194 
L 319.317943 308.644866 
L 317.277257 308.670393 
L 315.746743 308.777257 
L 310.134857 308.740461 
L 297.380571 308.133065 
L 296.360229 307.910926 
L 291.258514 307.261623 
L 289.728 306.966274 
L 285.136457 305.610417 
L 282.5856 304.605903 
L 279.0144 302.694873 
L 274.933029 299.864129 
L 271.361829 296.833674 
L 263.709257 289.169566 
L 245.853257 269.865925 
L 244.832914 268.661894 
L 241.261714 265.075957 
L 234.629486 258.710517 
L 233.098971 257.075747 
L 230.548114 253.920397 
L 228.507429 250.85592 
L 226.976914 248.175516 
L 225.4464 245.125394 
L 223.405714 240.486358 
L 221.365029 235.124599 
L 218.814171 227.590348 
L 215.242971 215.933069 
L 203.509029 176.586158 
L 200.958171 169.18486 
L 198.917486 164.068201 
L 197.386971 160.893757 
L 195.856457 158.382906 
L 194.836114 157.07913 
L 193.815771 156.078811 
L 193.3056 155.682035 
L 192.285257 155.179106 
L 191.264914 155.050482 
L 190.754743 155.063 
L 189.224229 155.627511 
L 188.203886 156.416277 
L 186.673371 157.986236 
L 185.653029 159.496821 
L 184.122514 162.396517 
L 182.592 165.862561 
L 181.061486 169.958717 
L 179.0208 176.240219 
L 176.980114 183.329667 
L 172.898743 199.199809 
L 168.3072 217.297542 
L 165.756343 226.74222 
L 163.205486 235.594992 
L 161.1648 242.038314 
L 159.124114 247.885489 
L 157.083429 253.061662 
L 155.042743 257.375305 
L 153.512229 260.112159 
L 151.981714 262.356421 
L 150.4512 263.953992 
L 149.941029 264.484355 
L 148.410514 265.336792 
L 147.900343 265.539142 
L 146.369829 265.517396 
L 145.349486 265.208334 
L 144.839314 264.894124 
L 144.329143 264.116854 
L 143.818971 264.042467 
L 143.3088 262.185507 
L 142.798629 262.848105 
L 141.268114 260.334693 
L 140.757943 259.061476 
L 140.247771 258.361739 
L 138.717257 254.620253 
L 138.207086 253.209491 
L 137.696914 251.109057 
L 137.186743 250.148622 
L 136.1664 246.840645 
L 135.656229 244.392209 
L 135.146057 243.46441 
L 134.635886 241.838809 
L 134.125714 239.491683 
L 133.615543 238.334949 
L 133.105371 230.918126 
L 132.5952 229.08053 
L 129.534171 214.663421 
L 128.003657 206.433663 
L 126.473143 197.163799 
L 124.432457 183.17848 
L 121.371429 161.31114 
L 120.351086 155.355909 
L 119.330743 150.483464 
L 118.3104 147.364906 
L 117.800229 146.348566 
L 117.290057 145.767374 
L 116.779886 145.573044 
L 116.269714 145.513802 
L 115.759543 145.771234 
L 114.7392 147.03874 
L 114.229029 147.857789 
L 113.208686 150.002398 
L 112.698514 151.458802 
L 111.678171 153.77408 
L 109.637486 159.14451 
L 109.127314 160.054829 
L 108.617143 160.386572 
L 108.106971 160.354902 
L 107.5968 159.770035 
L 107.086629 158.362392 
L 106.576457 156.137947 
L 106.066286 152.755956 
L 105.556114 148.314151 
L 105.045943 142.7072 
L 104.0256 127.604226 
L 103.005257 107.676114 
L 98.02692 -1 
L 98.02692 -1 
" clip-path="url(#pf1e587ec82)" style="fill: none; stroke: #801f80; stroke-width: 0.5; stroke-linecap: square"/>
   </g>
   <g id="line2d_24">
    <path d="M 363.702857 308.286482 
L 363.192686 308.106905 
L 360.641829 308.199543 
L 351.968914 308.290546 
L 347.887543 308.096833 
L 345.846857 307.973949 
L 344.316343 307.828461 
L 342.785829 307.697263 
L 340.745143 307.5755 
L 339.7248 307.584726 
L 332.5824 307.753024 
L 329.0112 308.115519 
L 326.970514 308.313338 
L 325.44 308.359546 
L 320.848457 308.64071 
L 319.317943 308.67041 
L 317.277257 308.782785 
L 314.7264 308.878735 
L 310.645029 308.87011 
L 297.890743 308.406064 
L 295.339886 308.090363 
L 293.2992 307.926953 
L 290.238171 307.535947 
L 284.116114 306.105192 
L 282.075429 305.433862 
L 275.953371 302.624358 
L 271.872 300.103808 
L 267.280457 296.747295 
L 263.709257 293.918422 
L 260.138057 291.073444 
L 249.424457 282.320368 
L 248.404114 281.575776 
L 234.629486 270.377671 
L 233.098971 268.81285 
L 231.058286 266.298632 
L 229.527771 264.070315 
L 227.997257 261.406764 
L 226.466743 258.375814 
L 224.426057 253.50285 
L 222.895543 249.276587 
L 221.365029 244.619112 
L 219.324343 237.728396 
L 216.773486 228.285351 
L 213.712457 216.178319 
L 203.509029 175.268051 
L 201.468343 167.886778 
L 199.427657 161.324369 
L 197.897143 157.114472 
L 196.8768 154.623686 
L 195.346286 151.579902 
L 194.325943 149.978392 
L 193.3056 148.784284 
L 192.795429 148.254298 
L 191.775086 147.569782 
L 190.754743 147.290169 
L 189.7344 147.272471 
L 189.224229 147.446762 
L 188.203886 148.040538 
L 187.183543 148.867663 
L 186.1632 150.119929 
L 185.142857 151.705393 
L 184.122514 153.640405 
L 182.592 157.126778 
L 181.061486 161.357889 
L 179.530971 166.179537 
L 178.000457 171.549835 
L 174.939429 183.69547 
L 171.8784 196.826912 
L 167.797029 214.353088 
L 163.205486 232.695465 
L 161.1648 239.966475 
L 159.124114 246.677778 
L 157.083429 252.612349 
L 155.552914 256.535175 
L 153.512229 261.106968 
L 151.981714 263.918536 
L 150.961371 265.39409 
L 148.920686 267.688811 
L 147.900343 268.388161 
L 146.88 268.783668 
L 145.859657 268.992122 
L 144.839314 268.881765 
L 144.329143 268.536288 
L 143.818971 268.479392 
L 143.3088 266.910199 
L 142.798629 267.799098 
L 141.268114 266.141524 
L 140.757943 265.333813 
L 140.247771 264.737334 
L 138.717257 262.151445 
L 138.207086 261.061848 
L 137.696914 259.339566 
L 137.186743 258.804924 
L 136.1664 256.289477 
L 135.656229 254.267983 
L 135.146057 253.652699 
L 134.635886 252.332294 
L 134.125714 250.624862 
L 133.615543 249.645684 
L 133.105371 243.589099 
L 131.574857 237.914365 
L 130.044343 231.588246 
L 128.003657 221.511309 
L 126.473143 212.318546 
L 124.432457 197.864763 
L 119.840914 162.538131 
L 118.820571 157.349011 
L 117.800229 153.824319 
L 117.290057 152.569409 
L 116.269714 151.189775 
L 115.759543 150.904426 
L 115.249371 150.951033 
L 114.229029 151.512332 
L 113.208686 152.71478 
L 112.698514 153.96316 
L 112.188343 154.80805 
L 111.168 157.278771 
L 109.637486 161.16233 
L 108.617143 163.024987 
L 108.106971 163.111551 
L 107.5968 162.843293 
L 107.086629 161.806241 
L 106.576457 159.940002 
L 106.066286 156.779781 
L 105.556114 152.617113 
L 105.045943 147.13548 
L 104.0256 132.080474 
L 103.005257 111.88343 
L 99.434057 32.472615 
L 98.413714 13.422227 
L 97.830328 -1 
L 97.830328 -1 
" clip-path="url(#pf1e587ec82)" style="fill: none; stroke: #721f8d; stroke-width: 0.5; stroke-linecap: square"/>
   </g>
   <g id="line2d_25">
    <path d="M 363.702857 308.299917 
L 363.192686 308.141865 
L 354.519771 308.268529 
L 347.377371 308.108171 
L 345.336686 307.928765 
L 340.745143 307.59672 
L 340.234971 307.653634 
L 339.214629 307.612952 
L 338.194286 307.584 
L 336.663771 307.619861 
L 333.602743 307.689115 
L 325.950171 308.306713 
L 324.419657 308.40342 
L 322.378971 308.527903 
L 321.8688 308.660258 
L 321.358629 308.516436 
L 315.746743 308.74296 
L 314.216229 308.809185 
L 301.972114 308.565913 
L 299.931429 308.451142 
L 298.911086 308.442712 
L 296.8704 308.247922 
L 295.850057 308.147918 
L 293.809371 308.017736 
L 291.258514 307.77939 
L 289.217829 307.462238 
L 287.687314 307.230851 
L 284.626286 306.583282 
L 280.544914 305.424588 
L 278.504229 304.685685 
L 273.912686 302.620813 
L 270.851657 300.920367 
L 266.260114 298.092182 
L 261.1584 294.697199 
L 254.016 289.897097 
L 245.853257 284.547602 
L 244.832914 283.715347 
L 241.261714 281.360096 
L 236.670171 278.071359 
L 232.5888 274.110554 
L 231.058286 272.163471 
L 229.527771 269.84704 
L 227.997257 267.110747 
L 226.466743 263.868129 
L 224.936229 260.077816 
L 223.405714 255.765613 
L 221.8752 250.914561 
L 219.834514 243.661912 
L 217.793829 235.713676 
L 215.242971 225.044853 
L 211.1616 207.142183 
L 204.0192 175.847461 
L 201.468343 165.577239 
L 198.917486 156.702287 
L 197.386971 152.205072 
L 196.366629 149.625145 
L 194.836114 146.42301 
L 193.3056 144.093866 
L 192.285257 143.039485 
L 191.264914 142.330053 
L 190.244571 142.114495 
L 189.224229 142.223754 
L 188.203886 142.624046 
L 186.673371 143.923725 
L 185.653029 145.284365 
L 184.632686 147.042944 
L 183.612343 149.11484 
L 182.592 151.560302 
L 181.571657 154.314667 
L 180.041143 158.996959 
L 178.000457 166.275053 
L 175.959771 174.43391 
L 173.919086 183.279214 
L 165.246171 221.685021 
L 162.695314 232.060135 
L 159.634286 243.205946 
L 157.083429 251.242544 
L 155.552914 255.447871 
L 153.512229 260.391362 
L 151.981714 263.446603 
L 150.961371 265.159352 
L 148.920686 267.74112 
L 147.900343 268.701502 
L 146.369829 269.478752 
L 145.349486 269.767613 
L 144.839314 269.764041 
L 144.329143 269.391186 
L 143.818971 269.590509 
L 143.3088 268.258995 
L 142.798629 269.225685 
L 141.268114 268.021829 
L 140.757943 267.299549 
L 140.247771 266.941383 
L 138.717257 264.952683 
L 138.207086 264.034714 
L 137.696914 262.680839 
L 137.186743 262.262111 
L 136.1664 260.221478 
L 135.656229 258.419531 
L 135.146057 257.854062 
L 134.635886 256.900726 
L 134.125714 255.105503 
L 133.615543 254.432056 
L 133.105371 248.482694 
L 132.085029 245.309579 
L 130.044343 237.509304 
L 128.513829 230.517768 
L 126.983314 221.911167 
L 125.4528 211.687352 
L 123.922286 199.778113 
L 120.351086 169.388284 
L 119.330743 162.465673 
L 118.3104 157.378714 
L 117.290057 153.812928 
L 116.779886 152.661805 
L 115.759543 151.198197 
L 115.249371 150.967293 
L 114.7392 150.880372 
L 113.718857 151.229312 
L 113.208686 151.832552 
L 112.698514 152.808841 
L 112.188343 153.448906 
L 111.678171 154.463725 
L 109.127314 160.778867 
L 108.617143 161.644403 
L 108.106971 162.072347 
L 107.5968 161.853035 
L 107.086629 160.903406 
L 106.576457 159.147735 
L 106.066286 156.354973 
L 105.556114 152.272021 
L 105.045943 146.798068 
L 104.0256 131.879828 
L 103.005257 111.415782 
L 99.434057 31.451758 
L 98.413714 13.258789 
L 97.821787 -1 
L 97.821787 -1 
" clip-path="url(#pf1e587ec82)" style="fill: none; stroke: #641f9b; stroke-width: 0.5; stroke-linecap: square"/>
   </g>
   <g id="line2d_26">
    <path d="M 363.702857 308.231314 
L 363.192686 308.074648 
L 359.621486 308.228135 
L 354.519771 308.271748 
L 352.479086 308.313289 
L 350.4384 308.260299 
L 339.214629 307.582238 
L 332.5824 307.736586 
L 330.031543 307.974024 
L 327.480686 308.212944 
L 324.419657 308.372141 
L 321.8688 308.641285 
L 321.358629 308.512226 
L 319.828114 308.621342 
L 317.787429 308.71556 
L 313.706057 308.850026 
L 311.665371 308.826031 
L 297.380571 308.442169 
L 294.829714 308.197576 
L 293.2992 308.124219 
L 289.728 307.764366 
L 288.707657 307.627352 
L 286.666971 307.310867 
L 280.544914 305.985498 
L 273.912686 303.564018 
L 270.341486 301.829623 
L 264.219429 298.386033 
L 250.954971 290.619995 
L 244.322743 286.799036 
L 242.792229 285.901176 
L 238.200686 282.990753 
L 235.649829 281.052657 
L 234.119314 279.652085 
L 232.078629 277.362764 
L 231.058286 276.030681 
L 229.527771 273.652684 
L 227.997257 270.890692 
L 226.466743 267.514599 
L 224.936229 263.645398 
L 223.405714 259.155371 
L 221.8752 254.121724 
L 219.834514 246.586667 
L 217.283657 236.106272 
L 213.712457 220.162526 
L 203.509029 173.309043 
L 200.958171 162.77762 
L 198.917486 155.342167 
L 197.386971 150.607334 
L 195.856457 146.58307 
L 194.325943 143.510405 
L 193.3056 141.938899 
L 192.285257 140.737919 
L 191.264914 139.975826 
L 190.244571 139.64584 
L 189.224229 139.640011 
L 188.203886 140.140481 
L 187.183543 140.847429 
L 186.673371 141.282629 
L 185.653029 142.657175 
L 184.632686 144.352003 
L 183.102171 147.626308 
L 181.571657 151.663988 
L 180.041143 156.481684 
L 178.000457 163.83865 
L 175.959771 172.199979 
L 172.898743 185.920821 
L 164.736 223.042474 
L 162.185143 233.58648 
L 159.634286 243.151632 
L 157.083429 251.574266 
L 155.042743 257.375793 
L 153.002057 262.309687 
L 151.471543 265.364657 
L 150.4512 266.978566 
L 149.430857 268.480764 
L 148.410514 269.649535 
L 147.390171 270.527427 
L 145.859657 271.287461 
L 145.349486 271.503693 
L 144.839314 271.583298 
L 144.329143 271.441219 
L 143.818971 271.613792 
L 143.3088 270.297743 
L 142.798629 271.391946 
L 142.288457 271.081192 
L 141.778286 270.615006 
L 141.268114 270.571231 
L 139.227429 268.496149 
L 138.717257 267.622233 
L 138.207086 267.209037 
L 137.186743 265.612963 
L 136.676571 264.492496 
L 136.1664 263.887184 
L 134.125714 259.576035 
L 133.615543 258.485173 
L 133.105371 253.500994 
L 132.085029 250.396133 
L 130.044343 242.828255 
L 129.024 238.351324 
L 128.003657 233.24629 
L 126.473143 223.851272 
L 124.942629 212.757811 
L 123.412114 199.983234 
L 120.351086 172.839965 
L 119.330743 165.553676 
L 118.3104 160.008769 
L 117.290057 156.077361 
L 116.269714 153.714459 
L 115.759543 152.953463 
L 115.249371 152.582357 
L 114.229029 152.253733 
L 113.718857 152.43043 
L 113.208686 152.818719 
L 112.698514 153.822383 
L 112.188343 154.375342 
L 111.168 156.576616 
L 109.127314 161.728487 
L 108.617143 162.641872 
L 108.106971 163.077681 
L 107.5968 162.982591 
L 107.086629 161.995159 
L 106.576457 160.29803 
L 106.066286 157.611473 
L 105.556114 153.59978 
L 105.045943 148.135674 
L 104.535771 141.339559 
L 103.515429 123.35316 
L 101.984914 88.072097 
L 100.4544 51.311062 
L 99.434057 31.421282 
L 98.413714 13.309207 
L 97.806659 -1 
L 97.806659 -1 
" clip-path="url(#pf1e587ec82)" style="fill: none; stroke: #561fa9; stroke-width: 0.5; stroke-linecap: square"/>
   </g>
   <g id="line2d_27">
    <path d="M 363.702857 308.113072 
L 363.192686 307.978181 
L 362.172343 308.028062 
L 360.131657 308.04824 
L 357.070629 308.135396 
L 354.0096 308.164382 
L 351.968914 308.216438 
L 346.357029 307.997353 
L 340.745143 307.626337 
L 337.173943 307.594119 
L 335.133257 307.628494 
L 329.521371 308.067531 
L 321.8688 308.681656 
L 321.358629 308.569456 
L 313.195886 308.921735 
L 301.461943 308.754347 
L 299.421257 308.645784 
L 297.890743 308.637071 
L 295.850057 308.414347 
L 292.278857 308.238501 
L 290.748343 308.097726 
L 283.605943 307.072291 
L 281.055086 306.519257 
L 277.483886 305.543743 
L 275.4432 304.87104 
L 268.810971 302.119505 
L 251.465143 293.463881 
L 250.4448 293.054112 
L 247.383771 291.561003 
L 245.853257 290.831164 
L 244.322743 289.917802 
L 237.690514 286.131768 
L 235.139657 284.18381 
L 233.098971 282.192752 
L 231.568457 280.331353 
L 230.548114 278.85836 
L 229.0176 276.311933 
L 227.997257 274.34849 
L 226.466743 270.933318 
L 224.936229 266.910604 
L 222.895543 260.595006 
L 221.365029 255.149327 
L 219.324343 247.109318 
L 216.263314 233.649636 
L 213.202286 219.178182 
L 201.978514 165.700773 
L 199.937829 157.348074 
L 198.407314 151.851929 
L 196.8768 147.020975 
L 195.346286 143.070692 
L 194.325943 140.949611 
L 193.3056 139.220284 
L 192.285257 137.933003 
L 191.775086 137.409573 
L 190.244571 136.556488 
L 189.224229 136.572019 
L 188.714057 136.653614 
L 188.203886 136.876018 
L 187.183543 137.626955 
L 186.1632 138.62701 
L 185.142857 140.106612 
L 184.122514 141.988752 
L 182.592 145.573202 
L 181.571657 148.308388 
L 180.041143 153.150563 
L 178.000457 160.631949 
L 175.4496 171.345898 
L 171.8784 187.949516 
L 165.756343 216.655441 
L 163.205486 227.882979 
L 160.654629 238.166202 
L 158.613943 245.555604 
L 156.573257 252.282312 
L 155.042743 256.702886 
L 153.002057 261.891222 
L 151.471543 265.109186 
L 149.941029 267.654489 
L 148.920686 269.052972 
L 147.900343 270.168393 
L 146.88 271.015011 
L 144.839314 271.983941 
L 144.329143 271.901164 
L 143.818971 272.173718 
L 143.3088 270.909714 
L 142.798629 272.097549 
L 142.288457 271.859647 
L 141.778286 271.495073 
L 141.268114 271.447317 
L 140.757943 271.237036 
L 139.7376 270.286664 
L 139.227429 269.897373 
L 138.717257 268.9425 
L 138.207086 268.808903 
L 137.186743 267.452608 
L 136.676571 266.497154 
L 136.1664 266.079841 
L 133.615543 261.350811 
L 133.105371 256.123246 
L 132.085029 253.269513 
L 130.554514 247.925591 
L 129.534171 243.88501 
L 128.513829 239.255834 
L 127.493486 233.794088 
L 126.473143 227.359437 
L 124.942629 216.256722 
L 123.412114 203.15062 
L 120.351086 174.650723 
L 119.330743 167.034422 
L 118.3104 160.973434 
L 117.290057 156.615101 
L 116.269714 153.670411 
L 115.759543 152.792926 
L 114.7392 151.705461 
L 114.229029 151.42306 
L 113.208686 151.703478 
L 112.698514 152.618766 
L 112.188343 153.055817 
L 111.168 155.126181 
L 108.617143 161.185371 
L 108.106971 161.756966 
L 107.5968 161.725812 
L 107.086629 160.930873 
L 106.576457 159.294692 
L 106.066286 156.59883 
L 105.556114 152.72603 
L 105.045943 147.441054 
L 104.535771 140.624609 
L 103.515429 122.484288 
L 102.495086 99.445535 
L 100.4544 50.002984 
L 99.434057 29.874171 
L 98.413714 12.314897 
L 97.836546 -1 
L 97.836546 -1 
" clip-path="url(#pf1e587ec82)" style="fill: none; stroke: #481fb7; stroke-width: 0.5; stroke-linecap: square"/>
   </g>
   <g id="line2d_28">
    <path d="M 363.702857 308.457096 
L 363.192686 308.304987 
L 356.050286 308.472194 
L 354.519771 308.417185 
L 352.479086 308.460861 
L 350.948571 308.402819 
L 346.357029 308.140366 
L 343.806171 307.895069 
L 338.194286 307.584 
L 336.663771 307.610249 
L 335.133257 307.616598 
L 332.5824 307.719731 
L 321.8688 308.618887 
L 321.358629 308.494192 
L 319.317943 308.618806 
L 313.706057 308.796039 
L 301.461943 308.694156 
L 296.8704 308.478424 
L 295.850057 308.368081 
L 293.2992 308.28924 
L 290.748343 308.097837 
L 287.687314 307.786827 
L 282.5856 307.002415 
L 279.524571 306.395167 
L 272.892343 304.509092 
L 266.260114 301.961221 
L 264.219429 301.057974 
L 245.343086 293.15443 
L 243.812571 292.374592 
L 242.282057 291.675605 
L 240.751543 290.940211 
L 238.200686 289.506041 
L 236.16 288.140087 
L 234.119314 286.413474 
L 231.568457 283.475203 
L 230.037943 281.19436 
L 228.507429 278.436737 
L 226.976914 275.118393 
L 225.4464 271.174464 
L 223.915886 266.656762 
L 222.385371 261.463998 
L 220.344686 253.634329 
L 218.304 244.944676 
L 215.242971 230.621256 
L 210.141257 205.193899 
L 203.509029 172.224505 
L 200.958171 160.741313 
L 198.917486 152.547098 
L 197.386971 147.303071 
L 196.366629 144.236921 
L 195.346286 141.560357 
L 194.325943 139.282592 
L 193.3056 137.490148 
L 192.285257 136.052791 
L 191.264914 135.139512 
L 190.244571 134.585218 
L 189.224229 134.48344 
L 188.714057 134.525936 
L 187.693714 135.077652 
L 186.673371 135.791103 
L 185.653029 137.106749 
L 184.122514 139.749515 
L 182.592 143.296691 
L 181.061486 147.634708 
L 179.530971 152.782337 
L 178.000457 158.542617 
L 175.959771 167.105665 
L 172.898743 181.311644 
L 166.776686 210.762096 
L 162.695314 229.196892 
L 159.634286 241.398406 
L 157.083429 250.40214 
L 155.552914 255.095333 
L 154.0224 259.411515 
L 151.981714 264.293757 
L 150.4512 267.093998 
L 149.430857 268.725596 
L 148.410514 270.061647 
L 147.390171 271.132603 
L 145.859657 272.303474 
L 144.839314 272.755064 
L 144.329143 272.699869 
L 143.818971 272.991523 
L 143.3088 271.857484 
L 142.798629 273.019165 
L 141.268114 272.59441 
L 140.757943 272.150731 
L 140.247771 272.055456 
L 138.717257 270.987143 
L 138.207086 270.399607 
L 137.696914 269.38867 
L 137.186743 269.293649 
L 136.676571 268.796407 
L 136.1664 267.959614 
L 135.656229 266.493845 
L 135.146057 266.327894 
L 134.635886 265.582201 
L 134.125714 264.182558 
L 133.615543 263.74642 
L 133.105371 259.053111 
L 132.5952 257.82851 
L 130.554514 251.331671 
L 129.024 245.253738 
L 128.003657 240.25302 
L 126.983314 234.410816 
L 125.962971 227.714409 
L 124.432457 215.646238 
L 123.412114 206.629009 
L 119.840914 173.231764 
L 118.820571 165.990667 
L 117.800229 160.539184 
L 116.779886 156.752037 
L 115.759543 154.219628 
L 114.7392 152.953945 
L 114.229029 152.64799 
L 113.718857 152.546133 
L 113.208686 152.791616 
L 112.698514 153.504261 
L 112.188343 153.950273 
L 111.678171 154.893782 
L 109.637486 160.101909 
L 109.127314 161.475688 
L 108.617143 162.413433 
L 108.106971 162.989114 
L 107.5968 163.153267 
L 107.086629 162.467177 
L 106.576457 160.998772 
L 106.066286 158.514899 
L 105.556114 154.67065 
L 105.045943 149.451089 
L 104.535771 142.725835 
L 103.515429 124.566559 
L 101.984914 89.163745 
L 100.4544 52.119847 
L 99.434057 32.48549 
L 98.413714 15.158111 
L 97.732536 -1 
L 97.732536 -1 
" clip-path="url(#pf1e587ec82)" style="fill: none; stroke: #3a1fc5; stroke-width: 0.5; stroke-linecap: square"/>
   </g>
   <g id="line2d_29">
    <path d="M 363.702857 308.265338 
L 363.192686 308.12726 
L 354.519771 308.252954 
L 352.479086 308.2675 
L 350.948571 308.169836 
L 349.418057 308.140661 
L 339.7248 307.558778 
L 337.684114 307.603894 
L 336.663771 307.590226 
L 329.521371 308.043422 
L 327.990857 308.201023 
L 322.378971 308.562731 
L 321.8688 308.721076 
L 321.358629 308.577007 
L 318.2976 308.789261 
L 316.767086 308.829407 
L 311.665371 308.894007 
L 309.114514 308.869675 
L 305.033143 308.766481 
L 297.890743 308.607855 
L 294.829714 308.340564 
L 293.2992 308.250061 
L 289.728 308.049175 
L 282.075429 307.021061 
L 280.544914 306.701263 
L 277.483886 305.998508 
L 268.810971 303.212448 
L 264.7296 301.61679 
L 262.178743 300.600578 
L 258.607543 299.170001 
L 251.465143 296.38478 
L 246.8736 294.662639 
L 242.282057 292.604839 
L 237.180343 289.88866 
L 235.139657 288.343682 
L 233.098971 286.423529 
L 231.058286 283.834329 
L 229.527771 281.407315 
L 227.997257 278.48272 
L 226.466743 274.937057 
L 224.936229 270.747784 
L 222.895543 264.172805 
L 221.365029 258.513566 
L 219.324343 250.100967 
L 216.773486 238.479489 
L 212.692114 218.281058 
L 201.978514 164.553083 
L 199.937829 155.728241 
L 198.407314 149.807482 
L 196.8768 144.687809 
L 195.346286 140.468674 
L 194.325943 138.182554 
L 193.3056 136.312165 
L 192.285257 134.903306 
L 191.264914 133.850828 
L 190.244571 133.304359 
L 189.7344 133.179239 
L 188.714057 133.253378 
L 188.203886 133.432362 
L 187.183543 134.096853 
L 186.673371 134.46611 
L 185.653029 135.77746 
L 184.632686 137.427678 
L 183.102171 140.69199 
L 181.571657 144.771043 
L 180.041143 149.656758 
L 178.510629 155.2251 
L 175.959771 165.93774 
L 173.408914 177.812024 
L 163.715657 224.233718 
L 161.1648 235.091973 
L 159.124114 243.014692 
L 156.573257 251.887152 
L 154.532571 257.975854 
L 153.002057 261.994649 
L 151.471543 265.378474 
L 149.941029 268.154698 
L 148.410514 270.353791 
L 147.390171 271.41752 
L 145.859657 272.630225 
L 144.839314 273.165631 
L 144.329143 272.925451 
L 143.818971 273.513021 
L 143.3088 272.35139 
L 142.798629 273.623711 
L 142.288457 273.443141 
L 141.778286 273.414511 
L 141.268114 273.234463 
L 140.757943 272.914004 
L 139.7376 272.524581 
L 138.207086 271.387007 
L 137.696914 270.395011 
L 137.186743 270.301782 
L 136.1664 269.084173 
L 135.656229 267.685614 
L 135.146057 267.71273 
L 134.635886 266.89886 
L 134.125714 265.475177 
L 133.615543 264.895088 
L 133.105371 260.168156 
L 132.085029 257.472126 
L 131.574857 256.030298 
L 129.534171 248.540056 
L 128.513829 243.963144 
L 127.493486 238.572088 
L 125.962971 228.610008 
L 123.922286 211.911392 
L 121.8816 192.098197 
L 120.351086 177.554447 
L 119.330743 169.286423 
L 118.3104 162.930054 
L 117.290057 158.032257 
L 116.269714 154.80214 
L 115.759543 153.654546 
L 114.7392 152.284482 
L 113.718857 151.794388 
L 113.208686 151.981064 
L 112.698514 152.686069 
L 112.188343 153.104628 
L 111.678171 153.938666 
L 110.657829 156.472093 
L 109.127314 160.58567 
L 108.617143 161.586861 
L 108.106971 162.215982 
L 107.5968 162.395429 
L 107.086629 161.758813 
L 106.576457 160.280574 
L 106.066286 157.787197 
L 105.556114 153.845307 
L 105.045943 148.647662 
L 104.535771 141.960092 
L 103.515429 123.790242 
L 102.495086 100.485505 
L 99.944229 39.899423 
L 97.79758 -1 
L 97.79758 -1 
" clip-path="url(#pf1e587ec82)" style="fill: none; stroke: #2c1fd3; stroke-width: 0.5; stroke-linecap: square"/>
   </g>
   <g id="line2d_30">
    <path d="M 363.702857 308.252006 
L 362.682514 308.134441 
L 355.540114 308.300078 
L 353.499429 308.288985 
L 351.968914 308.317077 
L 344.826514 307.94417 
L 343.806171 307.84889 
L 341.765486 307.687848 
L 340.234971 307.619792 
L 338.194286 307.584 
L 336.663771 307.630458 
L 332.5824 307.751106 
L 331.051886 307.866843 
L 323.909486 308.424607 
L 322.889143 308.474168 
L 321.358629 308.554054 
L 318.2976 308.70277 
L 313.195886 308.859291 
L 306.563657 308.798315 
L 303.502629 308.769767 
L 298.911086 308.709262 
L 296.8704 308.592707 
L 296.360229 308.489637 
L 294.319543 308.539986 
L 284.116114 308.063479 
L 274.422857 307.263936 
L 271.872 306.965073 
L 270.341486 306.76698 
L 267.790629 306.441319 
L 251.975314 304.249806 
L 250.954971 304.103202 
L 248.404114 303.745028 
L 245.343086 303.238155 
L 244.322743 302.925338 
L 242.792229 302.569203 
L 239.7312 301.635884 
L 237.690514 300.763713 
L 234.629486 298.785146 
L 233.098971 297.39999 
L 231.058286 294.862597 
L 230.037943 293.299613 
L 228.507429 290.501839 
L 226.976914 287.064451 
L 225.956571 284.469903 
L 224.426057 279.964601 
L 222.895543 274.694829 
L 220.854857 266.688992 
L 218.814171 257.655858 
L 216.773486 247.843088 
L 212.181943 223.788194 
L 201.978514 169.497698 
L 199.937829 160.020392 
L 198.407314 153.672866 
L 196.8768 148.124694 
L 195.856457 144.905429 
L 194.325943 140.937408 
L 193.3056 138.817001 
L 192.285257 137.159989 
L 191.264914 135.937264 
L 190.244571 135.170598 
L 189.224229 134.82146 
L 188.203886 134.88944 
L 187.183543 135.433371 
L 186.1632 136.210915 
L 185.142857 137.517137 
L 184.122514 139.270839 
L 182.592 142.633492 
L 181.571657 145.350688 
L 180.041143 150.137375 
L 178.000457 157.63071 
L 175.959771 166.222837 
L 173.408914 178.114556 
L 167.286857 208.095687 
L 163.715657 225.045787 
L 161.674971 234.000998 
L 159.634286 242.329151 
L 157.083429 251.705795 
L 155.552914 256.685894 
L 153.512229 262.612028 
L 151.981714 266.401756 
L 150.4512 269.425056 
L 149.430857 271.255088 
L 148.410514 272.767562 
L 147.390171 274.014899 
L 145.349486 275.865312 
L 144.839314 276.202799 
L 144.329143 276.366004 
L 143.818971 276.758494 
L 143.3088 275.845099 
L 142.798629 277.185611 
L 142.288457 277.279217 
L 141.778286 277.176788 
L 141.268114 277.433821 
L 140.757943 277.558367 
L 140.247771 277.337512 
L 139.227429 277.303902 
L 138.717257 276.987349 
L 138.207086 277.065355 
L 137.186743 276.613513 
L 136.676571 276.076479 
L 136.1664 275.922873 
L 135.146057 274.980125 
L 134.635886 274.113878 
L 134.125714 273.875251 
L 133.615543 273.339287 
L 133.105371 269.476669 
L 132.5952 268.530051 
L 131.064686 264.829253 
L 129.024 257.817576 
L 128.003657 253.235218 
L 126.983314 247.717326 
L 125.962971 241.210808 
L 124.432457 229.217821 
L 122.901943 214.807175 
L 120.351086 188.866572 
L 118.820571 176.241893 
L 117.800229 169.974693 
L 116.779886 165.283823 
L 115.759543 161.975891 
L 114.7392 159.922341 
L 114.229029 159.223959 
L 113.718857 158.85383 
L 113.208686 158.660571 
L 112.698514 159.214891 
L 112.188343 159.368603 
L 111.168 161.215438 
L 109.637486 165.20244 
L 108.617143 167.808275 
L 108.106971 168.583863 
L 107.5968 169.033947 
L 107.086629 168.793539 
L 106.576457 167.523204 
L 106.066286 165.448465 
L 105.556114 161.950486 
L 105.045943 157.039538 
L 104.535771 150.595825 
L 103.515429 132.718342 
L 102.495086 109.432441 
L 99.944229 47.656917 
L 98.413714 18.870786 
L 97.752183 -1 
L 97.752183 -1 
" clip-path="url(#pf1e587ec82)" style="fill: none; stroke: #1f1fe0; stroke-width: 0.5; stroke-linecap: square"/>
   </g>
   <g id="patch_3">
    <path d="M 57.6 307.584 
L 57.6 41.472 
" style="fill: none; stroke: #000000; stroke-width: 0.8; stroke-linejoin: miter; stroke-linecap: square"/>
   </g>
   <g id="patch_4">
    <path d="M 414.72 307.584 
L 414.72 41.472 
" style="fill: none; stroke: #000000; stroke-width: 0.8; stroke-linejoin: miter; stroke-linecap: square"/>
   </g>
   <g id="patch_5">
    <path d="M 57.6 307.584 
L 414.72 307.584 
" style="fill: none; stroke: #000000; stroke-width: 0.8; stroke-linejoin: miter; stroke-linecap: square"/>
   </g>
   <g id="patch_6">
    <path d="M 57.6 41.472 
L 414.72 41.472 
" style="fill: none; stroke: #000000; stroke-width: 0.8; stroke-linejoin: miter; stroke-linecap: square"/>
   </g>
   <g id="text_18">
    <!-- Direct Titration of Alizarin &amp; ompPBA in MeOH  -->
    <g transform="translate(96.411563 22.034625) scale(0.12 -0.12)">
     <defs>
      <path id="DejaVuSans-44" d="M 1259 4147 
L 1259 519 
L 2022 519 
Q 2988 519 3436 956 
Q 3884 1394 3884 2338 
Q 3884 3275 3436 3711 
Q 2988 4147 2022 4147 
L 1259 4147 
z
M 628 4666 
L 1925 4666 
Q 3281 4666 3915 4102 
Q 4550 3538 4550 2338 
Q 4550 1131 3912 565 
Q 3275 0 1925 0 
L 628 0 
L 628 4666 
z
" transform="scale(0.015625)"/>
      <path id="DejaVuSans-69" d="M 603 3500 
L 1178 3500 
L 1178 0 
L 603 0 
L 603 3500 
z
M 603 4863 
L 1178 4863 
L 1178 4134 
L 603 4134 
L 603 4863 
z
" transform="scale(0.015625)"/>
      <path id="DejaVuSans-54" d="M -19 4666 
L 3928 4666 
L 3928 4134 
L 2272 4134 
L 2272 0 
L 1638 0 
L 1638 4134 
L -19 4134 
L -19 4666 
z
" transform="scale(0.015625)"/>
      <path id="DejaVuSans-66" d="M 2375 4863 
L 2375 4384 
L 1825 4384 
Q 1516 4384 1395 4259 
Q 1275 4134 1275 3809 
L 1275 3500 
L 2222 3500 
L 2222 3053 
L 1275 3053 
L 1275 0 
L 697 0 
L 697 3053 
L 147 3053 
L 147 3500 
L 697 3500 
L 697 3744 
Q 697 4328 969 4595 
Q 1241 4863 1831 4863 
L 2375 4863 
z
" transform="scale(0.015625)"/>
      <path id="DejaVuSans-7a" d="M 353 3500 
L 3084 3500 
L 3084 2975 
L 922 459 
L 3084 459 
L 3084 0 
L 275 0 
L 275 525 
L 2438 3041 
L 353 3041 
L 353 3500 
z
" transform="scale(0.015625)"/>
      <path id="DejaVuSans-26" d="M 1556 2509 
Q 1272 2256 1139 2004 
Q 1006 1753 1006 1478 
Q 1006 1022 1337 719 
Q 1669 416 2169 416 
Q 2466 416 2725 514 
Q 2984 613 3213 813 
L 1556 2509 
z
M 1997 2859 
L 3584 1234 
Q 3769 1513 3872 1830 
Q 3975 2147 3994 2503 
L 4575 2503 
Q 4538 2091 4375 1687 
Q 4213 1284 3922 891 
L 4794 0 
L 4006 0 
L 3559 459 
Q 3234 181 2878 45 
Q 2522 -91 2113 -91 
Q 1359 -91 881 339 
Q 403 769 403 1441 
Q 403 1841 612 2192 
Q 822 2544 1241 2853 
Q 1091 3050 1012 3245 
Q 934 3441 934 3628 
Q 934 4134 1281 4442 
Q 1628 4750 2203 4750 
Q 2463 4750 2720 4694 
Q 2978 4638 3244 4525 
L 3244 3956 
Q 2972 4103 2725 4179 
Q 2478 4256 2266 4256 
Q 1938 4256 1733 4082 
Q 1528 3909 1528 3634 
Q 1528 3475 1620 3314 
Q 1713 3153 1997 2859 
z
" transform="scale(0.015625)"/>
      <path id="DejaVuSans-70" d="M 1159 525 
L 1159 -1331 
L 581 -1331 
L 581 3500 
L 1159 3500 
L 1159 2969 
Q 1341 3281 1617 3432 
Q 1894 3584 2278 3584 
Q 2916 3584 3314 3078 
Q 3713 2572 3713 1747 
Q 3713 922 3314 415 
Q 2916 -91 2278 -91 
Q 1894 -91 1617 61 
Q 1341 213 1159 525 
z
M 3116 1747 
Q 3116 2381 2855 2742 
Q 2594 3103 2138 3103 
Q 1681 3103 1420 2742 
Q 1159 2381 1159 1747 
Q 1159 1113 1420 752 
Q 1681 391 2138 391 
Q 2594 391 2855 752 
Q 3116 1113 3116 1747 
z
" transform="scale(0.015625)"/>
      <path id="DejaVuSans-50" d="M 1259 4147 
L 1259 2394 
L 2053 2394 
Q 2494 2394 2734 2622 
Q 2975 2850 2975 3272 
Q 2975 3691 2734 3919 
Q 2494 4147 2053 4147 
L 1259 4147 
z
M 628 4666 
L 2053 4666 
Q 2838 4666 3239 4311 
Q 3641 3956 3641 3272 
Q 3641 2581 3239 2228 
Q 2838 1875 2053 1875 
L 1259 1875 
L 1259 0 
L 628 0 
L 628 4666 
z
" transform="scale(0.015625)"/>
      <path id="DejaVuSans-42" d="M 1259 2228 
L 1259 519 
L 2272 519 
Q 2781 519 3026 730 
Q 3272 941 3272 1375 
Q 3272 1813 3026 2020 
Q 2781 2228 2272 2228 
L 1259 2228 
z
M 1259 4147 
L 1259 2741 
L 2194 2741 
Q 2656 2741 2882 2914 
Q 3109 3088 3109 3444 
Q 3109 3797 2882 3972 
Q 2656 4147 2194 4147 
L 1259 4147 
z
M 628 4666 
L 2241 4666 
Q 2963 4666 3353 4366 
Q 3744 4066 3744 3513 
Q 3744 3084 3544 2831 
Q 3344 2578 2956 2516 
Q 3422 2416 3680 2098 
Q 3938 1781 3938 1306 
Q 3938 681 3513 340 
Q 3088 0 2303 0 
L 628 0 
L 628 4666 
z
" transform="scale(0.015625)"/>
      <path id="DejaVuSans-4d" d="M 628 4666 
L 1569 4666 
L 2759 1491 
L 3956 4666 
L 4897 4666 
L 4897 0 
L 4281 0 
L 4281 4097 
L 3078 897 
L 2444 897 
L 1241 4097 
L 1241 0 
L 628 0 
L 628 4666 
z
" transform="scale(0.015625)"/>
      <path id="DejaVuSans-4f" d="M 2522 4238 
Q 1834 4238 1429 3725 
Q 1025 3213 1025 2328 
Q 1025 1447 1429 934 
Q 1834 422 2522 422 
Q 3209 422 3611 934 
Q 4013 1447 4013 2328 
Q 4013 3213 3611 3725 
Q 3209 4238 2522 4238 
z
M 2522 4750 
Q 3503 4750 4090 4092 
Q 4678 3434 4678 2328 
Q 4678 1225 4090 567 
Q 3503 -91 2522 -91 
Q 1538 -91 948 565 
Q 359 1222 359 2328 
Q 359 3434 948 4092 
Q 1538 4750 2522 4750 
z
" transform="scale(0.015625)"/>
      <path id="DejaVuSans-48" d="M 628 4666 
L 1259 4666 
L 1259 2753 
L 3553 2753 
L 3553 4666 
L 4184 4666 
L 4184 0 
L 3553 0 
L 3553 2222 
L 1259 2222 
L 1259 0 
L 628 0 
L 628 4666 
z
" transform="scale(0.015625)"/>
     </defs>
     <use xlink:href="#DejaVuSans-44"/>
     <use xlink:href="#DejaVuSans-69" x="77.001953"/>
     <use xlink:href="#DejaVuSans-72" x="104.785156"/>
     <use xlink:href="#DejaVuSans-65" x="143.648438"/>
     <use xlink:href="#DejaVuSans-63" x="205.171875"/>
     <use xlink:href="#DejaVuSans-74" x="260.152344"/>
     <use xlink:href="#DejaVuSans-20" x="299.361328"/>
     <use xlink:href="#DejaVuSans-54" x="331.148438"/>
     <use xlink:href="#DejaVuSans-69" x="389.107422"/>
     <use xlink:href="#DejaVuSans-74" x="416.890625"/>
     <use xlink:href="#DejaVuSans-72" x="456.099609"/>
     <use xlink:href="#DejaVuSans-61" x="497.212891"/>
     <use xlink:href="#DejaVuSans-74" x="558.492188"/>
     <use xlink:href="#DejaVuSans-69" x="597.701172"/>
     <use xlink:href="#DejaVuSans-6f" x="625.484375"/>
     <use xlink:href="#DejaVuSans-6e" x="686.666016"/>
     <use xlink:href="#DejaVuSans-20" x="750.044922"/>
     <use xlink:href="#DejaVuSans-6f" x="781.832031"/>
     <use xlink:href="#DejaVuSans-66" x="843.013672"/>
     <use xlink:href="#DejaVuSans-20" x="878.21875"/>
     <use xlink:href="#DejaVuSans-41" x="910.005859"/>
     <use xlink:href="#DejaVuSans-6c" x="978.414062"/>
     <use xlink:href="#DejaVuSans-69" x="1006.197266"/>
     <use xlink:href="#DejaVuSans-7a" x="1033.980469"/>
     <use xlink:href="#DejaVuSans-61" x="1086.470703"/>
     <use xlink:href="#DejaVuSans-72" x="1147.75"/>
     <use xlink:href="#DejaVuSans-69" x="1188.863281"/>
     <use xlink:href="#DejaVuSans-6e" x="1216.646484"/>
     <use xlink:href="#DejaVuSans-20" x="1280.025391"/>
     <use xlink:href="#DejaVuSans-26" x="1311.8125"/>
     <use xlink:href="#DejaVuSans-20" x="1389.791016"/>
     <use xlink:href="#DejaVuSans-6f" x="1421.578125"/>
     <use xlink:href="#DejaVuSans-6d" x="1482.759766"/>
     <use xlink:href="#DejaVuSans-70" x="1580.171875"/>
     <use xlink:href="#DejaVuSans-50" x="1643.648438"/>
     <use xlink:href="#DejaVuSans-42" x="1703.951172"/>
     <use xlink:href="#DejaVuSans-41" x="1772.554688"/>
     <use xlink:href="#DejaVuSans-20" x="1840.962891"/>
     <use xlink:href="#DejaVuSans-69" x="1872.75"/>
     <use xlink:href="#DejaVuSans-6e" x="1900.533203"/>
     <use xlink:href="#DejaVuSans-20" x="1963.912109"/>
     <use xlink:href="#DejaVuSans-4d" x="1995.699219"/>
     <use xlink:href="#DejaVuSans-65" x="2081.978516"/>
     <use xlink:href="#DejaVuSans-4f" x="2143.501953"/>
     <use xlink:href="#DejaVuSans-48" x="2222.212891"/>
     <use xlink:href="#DejaVuSans-20" x="2297.408203"/>
    </g>
    <!--  -->
    <g transform="translate(236.16 35.472) scale(0.12 -0.12)"/>
   </g>
  </g>
 </g>
 <defs>
  <clipPath id="pf1e587ec82">
   <rect x="57.6" y="41.472" width="357.12" height="266.112"/>
  </clipPath>
 </defs>
</svg>
