<?xml version="1.0" encoding="utf-8" standalone="no"?>
<!DOCTYPE svg PUBLIC "-//W3C//DTD SVG 1.1//EN"
  "http://www.w3.org/Graphics/SVG/1.1/DTD/svg11.dtd">
<svg xmlns:xlink="http://www.w3.org/1999/xlink" width="460.8pt" height="345.6pt" viewBox="0 0 460.8 345.6" xmlns="http://www.w3.org/2000/svg" version="1.1">
 <metadata>
  <rdf:RDF xmlns:dc="http://purl.org/dc/elements/1.1/" xmlns:cc="http://creativecommons.org/ns#" xmlns:rdf="http://www.w3.org/1999/02/22-rdf-syntax-ns#">
   <cc:Work>
    <dc:type rdf:resource="http://purl.org/dc/dcmitype/StillImage"/>
    <dc:date>2024-10-03T15:28:49.088132</dc:date>
    <dc:format>image/svg+xml</dc:format>
    <dc:creator>
     <cc:Agent>
      <dc:title>Matplotlib v3.9.2, https://matplotlib.org/</dc:title>
     </cc:Agent>
    </dc:creator>
   </cc:Work>
  </rdf:RDF>
 </metadata>
 <defs>
  <style type="text/css">*{stroke-linejoin: round; stroke-linecap: butt}</style>
 </defs>
 <g id="figure_1">
  <g id="patch_1">
   <path d="M 0 345.6 
L 460.8 345.6 
L 460.8 0 
L 0 0 
z
" style="fill: #ffffff"/>
  </g>
  <g id="axes_1">
   <g id="patch_2">
    <path d="M 57.6 307.584 
L 414.72 307.584 
L 414.72 41.472 
L 57.6 41.472 
z
" style="fill: #ffffff"/>
   </g>
   <g id="matplotlib.axis_1">
    <g id="xtick_1">
     <g id="line2d_1">
      <defs>
       <path id="m1ca0276cee" d="M 0 0 
L 0 3.5 
" style="stroke: #000000; stroke-width: 0.8"/>
      </defs>
      <g>
       <use xlink:href="#m1ca0276cee" x="57.6" y="307.584" style="stroke: #000000; stroke-width: 0.8"/>
      </g>
     </g>
     <g id="text_1">
      <!-- 200 -->
      <g transform="translate(48.05625 322.182437) scale(0.1 -0.1)">
       <defs>
        <path id="DejaVuSans-32" d="M 1228 531 
L 3431 531 
L 3431 0 
L 469 0 
L 469 531 
Q 828 903 1448 1529 
Q 2069 2156 2228 2338 
Q 2531 2678 2651 2914 
Q 2772 3150 2772 3378 
Q 2772 3750 2511 3984 
Q 2250 4219 1831 4219 
Q 1534 4219 1204 4116 
Q 875 4013 500 3803 
L 500 4441 
Q 881 4594 1212 4672 
Q 1544 4750 1819 4750 
Q 2544 4750 2975 4387 
Q 3406 4025 3406 3419 
Q 3406 3131 3298 2873 
Q 3191 2616 2906 2266 
Q 2828 2175 2409 1742 
Q 1991 1309 1228 531 
z
" transform="scale(0.015625)"/>
        <path id="DejaVuSans-30" d="M 2034 4250 
Q 1547 4250 1301 3770 
Q 1056 3291 1056 2328 
Q 1056 1369 1301 889 
Q 1547 409 2034 409 
Q 2525 409 2770 889 
Q 3016 1369 3016 2328 
Q 3016 3291 2770 3770 
Q 2525 4250 2034 4250 
z
M 2034 4750 
Q 2819 4750 3233 4129 
Q 3647 3509 3647 2328 
Q 3647 1150 3233 529 
Q 2819 -91 2034 -91 
Q 1250 -91 836 529 
Q 422 1150 422 2328 
Q 422 3509 836 4129 
Q 1250 4750 2034 4750 
z
" transform="scale(0.015625)"/>
       </defs>
       <use xlink:href="#DejaVuSans-32"/>
       <use xlink:href="#DejaVuSans-30" x="63.623047"/>
       <use xlink:href="#DejaVuSans-30" x="127.246094"/>
      </g>
     </g>
    </g>
    <g id="xtick_2">
     <g id="line2d_2">
      <g>
       <use xlink:href="#m1ca0276cee" x="108.617143" y="307.584" style="stroke: #000000; stroke-width: 0.8"/>
      </g>
     </g>
     <g id="text_2">
      <!-- 300 -->
      <g transform="translate(99.073393 322.182437) scale(0.1 -0.1)">
       <defs>
        <path id="DejaVuSans-33" d="M 2597 2516 
Q 3050 2419 3304 2112 
Q 3559 1806 3559 1356 
Q 3559 666 3084 287 
Q 2609 -91 1734 -91 
Q 1441 -91 1130 -33 
Q 819 25 488 141 
L 488 750 
Q 750 597 1062 519 
Q 1375 441 1716 441 
Q 2309 441 2620 675 
Q 2931 909 2931 1356 
Q 2931 1769 2642 2001 
Q 2353 2234 1838 2234 
L 1294 2234 
L 1294 2753 
L 1863 2753 
Q 2328 2753 2575 2939 
Q 2822 3125 2822 3475 
Q 2822 3834 2567 4026 
Q 2313 4219 1838 4219 
Q 1578 4219 1281 4162 
Q 984 4106 628 3988 
L 628 4550 
Q 988 4650 1302 4700 
Q 1616 4750 1894 4750 
Q 2613 4750 3031 4423 
Q 3450 4097 3450 3541 
Q 3450 3153 3228 2886 
Q 3006 2619 2597 2516 
z
" transform="scale(0.015625)"/>
       </defs>
       <use xlink:href="#DejaVuSans-33"/>
       <use xlink:href="#DejaVuSans-30" x="63.623047"/>
       <use xlink:href="#DejaVuSans-30" x="127.246094"/>
      </g>
     </g>
    </g>
    <g id="xtick_3">
     <g id="line2d_3">
      <g>
       <use xlink:href="#m1ca0276cee" x="159.634286" y="307.584" style="stroke: #000000; stroke-width: 0.8"/>
      </g>
     </g>
     <g id="text_3">
      <!-- 400 -->
      <g transform="translate(150.090536 322.182437) scale(0.1 -0.1)">
       <defs>
        <path id="DejaVuSans-34" d="M 2419 4116 
L 825 1625 
L 2419 1625 
L 2419 4116 
z
M 2253 4666 
L 3047 4666 
L 3047 1625 
L 3713 1625 
L 3713 1100 
L 3047 1100 
L 3047 0 
L 2419 0 
L 2419 1100 
L 313 1100 
L 313 1709 
L 2253 4666 
z
" transform="scale(0.015625)"/>
       </defs>
       <use xlink:href="#DejaVuSans-34"/>
       <use xlink:href="#DejaVuSans-30" x="63.623047"/>
       <use xlink:href="#DejaVuSans-30" x="127.246094"/>
      </g>
     </g>
    </g>
    <g id="xtick_4">
     <g id="line2d_4">
      <g>
       <use xlink:href="#m1ca0276cee" x="210.651429" y="307.584" style="stroke: #000000; stroke-width: 0.8"/>
      </g>
     </g>
     <g id="text_4">
      <!-- 500 -->
      <g transform="translate(201.107679 322.182437) scale(0.1 -0.1)">
       <defs>
        <path id="DejaVuSans-35" d="M 691 4666 
L 3169 4666 
L 3169 4134 
L 1269 4134 
L 1269 2991 
Q 1406 3038 1543 3061 
Q 1681 3084 1819 3084 
Q 2600 3084 3056 2656 
Q 3513 2228 3513 1497 
Q 3513 744 3044 326 
Q 2575 -91 1722 -91 
Q 1428 -91 1123 -41 
Q 819 9 494 109 
L 494 744 
Q 775 591 1075 516 
Q 1375 441 1709 441 
Q 2250 441 2565 725 
Q 2881 1009 2881 1497 
Q 2881 1984 2565 2268 
Q 2250 2553 1709 2553 
Q 1456 2553 1204 2497 
Q 953 2441 691 2322 
L 691 4666 
z
" transform="scale(0.015625)"/>
       </defs>
       <use xlink:href="#DejaVuSans-35"/>
       <use xlink:href="#DejaVuSans-30" x="63.623047"/>
       <use xlink:href="#DejaVuSans-30" x="127.246094"/>
      </g>
     </g>
    </g>
    <g id="xtick_5">
     <g id="line2d_5">
      <g>
       <use xlink:href="#m1ca0276cee" x="261.668571" y="307.584" style="stroke: #000000; stroke-width: 0.8"/>
      </g>
     </g>
     <g id="text_5">
      <!-- 600 -->
      <g transform="translate(252.124821 322.182437) scale(0.1 -0.1)">
       <defs>
        <path id="DejaVuSans-36" d="M 2113 2584 
Q 1688 2584 1439 2293 
Q 1191 2003 1191 1497 
Q 1191 994 1439 701 
Q 1688 409 2113 409 
Q 2538 409 2786 701 
Q 3034 994 3034 1497 
Q 3034 2003 2786 2293 
Q 2538 2584 2113 2584 
z
M 3366 4563 
L 3366 3988 
Q 3128 4100 2886 4159 
Q 2644 4219 2406 4219 
Q 1781 4219 1451 3797 
Q 1122 3375 1075 2522 
Q 1259 2794 1537 2939 
Q 1816 3084 2150 3084 
Q 2853 3084 3261 2657 
Q 3669 2231 3669 1497 
Q 3669 778 3244 343 
Q 2819 -91 2113 -91 
Q 1303 -91 875 529 
Q 447 1150 447 2328 
Q 447 3434 972 4092 
Q 1497 4750 2381 4750 
Q 2619 4750 2861 4703 
Q 3103 4656 3366 4563 
z
" transform="scale(0.015625)"/>
       </defs>
       <use xlink:href="#DejaVuSans-36"/>
       <use xlink:href="#DejaVuSans-30" x="63.623047"/>
       <use xlink:href="#DejaVuSans-30" x="127.246094"/>
      </g>
     </g>
    </g>
    <g id="xtick_6">
     <g id="line2d_6">
      <g>
       <use xlink:href="#m1ca0276cee" x="312.685714" y="307.584" style="stroke: #000000; stroke-width: 0.8"/>
      </g>
     </g>
     <g id="text_6">
      <!-- 700 -->
      <g transform="translate(303.141964 322.182437) scale(0.1 -0.1)">
       <defs>
        <path id="DejaVuSans-37" d="M 525 4666 
L 3525 4666 
L 3525 4397 
L 1831 0 
L 1172 0 
L 2766 4134 
L 525 4134 
L 525 4666 
z
" transform="scale(0.015625)"/>
       </defs>
       <use xlink:href="#DejaVuSans-37"/>
       <use xlink:href="#DejaVuSans-30" x="63.623047"/>
       <use xlink:href="#DejaVuSans-30" x="127.246094"/>
      </g>
     </g>
    </g>
    <g id="xtick_7">
     <g id="line2d_7">
      <g>
       <use xlink:href="#m1ca0276cee" x="363.702857" y="307.584" style="stroke: #000000; stroke-width: 0.8"/>
      </g>
     </g>
     <g id="text_7">
      <!-- 800 -->
      <g transform="translate(354.159107 322.182437) scale(0.1 -0.1)">
       <defs>
        <path id="DejaVuSans-38" d="M 2034 2216 
Q 1584 2216 1326 1975 
Q 1069 1734 1069 1313 
Q 1069 891 1326 650 
Q 1584 409 2034 409 
Q 2484 409 2743 651 
Q 3003 894 3003 1313 
Q 3003 1734 2745 1975 
Q 2488 2216 2034 2216 
z
M 1403 2484 
Q 997 2584 770 2862 
Q 544 3141 544 3541 
Q 544 4100 942 4425 
Q 1341 4750 2034 4750 
Q 2731 4750 3128 4425 
Q 3525 4100 3525 3541 
Q 3525 3141 3298 2862 
Q 3072 2584 2669 2484 
Q 3125 2378 3379 2068 
Q 3634 1759 3634 1313 
Q 3634 634 3220 271 
Q 2806 -91 2034 -91 
Q 1263 -91 848 271 
Q 434 634 434 1313 
Q 434 1759 690 2068 
Q 947 2378 1403 2484 
z
M 1172 3481 
Q 1172 3119 1398 2916 
Q 1625 2713 2034 2713 
Q 2441 2713 2670 2916 
Q 2900 3119 2900 3481 
Q 2900 3844 2670 4047 
Q 2441 4250 2034 4250 
Q 1625 4250 1398 4047 
Q 1172 3844 1172 3481 
z
" transform="scale(0.015625)"/>
       </defs>
       <use xlink:href="#DejaVuSans-38"/>
       <use xlink:href="#DejaVuSans-30" x="63.623047"/>
       <use xlink:href="#DejaVuSans-30" x="127.246094"/>
      </g>
     </g>
    </g>
    <g id="xtick_8">
     <g id="line2d_8">
      <g>
       <use xlink:href="#m1ca0276cee" x="414.72" y="307.584" style="stroke: #000000; stroke-width: 0.8"/>
      </g>
     </g>
     <g id="text_8">
      <!-- 900 -->
      <g transform="translate(405.17625 322.182437) scale(0.1 -0.1)">
       <defs>
        <path id="DejaVuSans-39" d="M 703 97 
L 703 672 
Q 941 559 1184 500 
Q 1428 441 1663 441 
Q 2288 441 2617 861 
Q 2947 1281 2994 2138 
Q 2813 1869 2534 1725 
Q 2256 1581 1919 1581 
Q 1219 1581 811 2004 
Q 403 2428 403 3163 
Q 403 3881 828 4315 
Q 1253 4750 1959 4750 
Q 2769 4750 3195 4129 
Q 3622 3509 3622 2328 
Q 3622 1225 3098 567 
Q 2575 -91 1691 -91 
Q 1453 -91 1209 -44 
Q 966 3 703 97 
z
M 1959 2075 
Q 2384 2075 2632 2365 
Q 2881 2656 2881 3163 
Q 2881 3666 2632 3958 
Q 2384 4250 1959 4250 
Q 1534 4250 1286 3958 
Q 1038 3666 1038 3163 
Q 1038 2656 1286 2365 
Q 1534 2075 1959 2075 
z
" transform="scale(0.015625)"/>
       </defs>
       <use xlink:href="#DejaVuSans-39"/>
       <use xlink:href="#DejaVuSans-30" x="63.623047"/>
       <use xlink:href="#DejaVuSans-30" x="127.246094"/>
      </g>
     </g>
    </g>
    <g id="text_9">
     <!-- Wavelength (nm) -->
     <g transform="translate(192.967812 335.860562) scale(0.1 -0.1)">
      <defs>
       <path id="DejaVuSans-57" d="M 213 4666 
L 850 4666 
L 1831 722 
L 2809 4666 
L 3519 4666 
L 4500 722 
L 5478 4666 
L 6119 4666 
L 4947 0 
L 4153 0 
L 3169 4050 
L 2175 0 
L 1381 0 
L 213 4666 
z
" transform="scale(0.015625)"/>
       <path id="DejaVuSans-61" d="M 2194 1759 
Q 1497 1759 1228 1600 
Q 959 1441 959 1056 
Q 959 750 1161 570 
Q 1363 391 1709 391 
Q 2188 391 2477 730 
Q 2766 1069 2766 1631 
L 2766 1759 
L 2194 1759 
z
M 3341 1997 
L 3341 0 
L 2766 0 
L 2766 531 
Q 2569 213 2275 61 
Q 1981 -91 1556 -91 
Q 1019 -91 701 211 
Q 384 513 384 1019 
Q 384 1609 779 1909 
Q 1175 2209 1959 2209 
L 2766 2209 
L 2766 2266 
Q 2766 2663 2505 2880 
Q 2244 3097 1772 3097 
Q 1472 3097 1187 3025 
Q 903 2953 641 2809 
L 641 3341 
Q 956 3463 1253 3523 
Q 1550 3584 1831 3584 
Q 2591 3584 2966 3190 
Q 3341 2797 3341 1997 
z
" transform="scale(0.015625)"/>
       <path id="DejaVuSans-76" d="M 191 3500 
L 800 3500 
L 1894 563 
L 2988 3500 
L 3597 3500 
L 2284 0 
L 1503 0 
L 191 3500 
z
" transform="scale(0.015625)"/>
       <path id="DejaVuSans-65" d="M 3597 1894 
L 3597 1613 
L 953 1613 
Q 991 1019 1311 708 
Q 1631 397 2203 397 
Q 2534 397 2845 478 
Q 3156 559 3463 722 
L 3463 178 
Q 3153 47 2828 -22 
Q 2503 -91 2169 -91 
Q 1331 -91 842 396 
Q 353 884 353 1716 
Q 353 2575 817 3079 
Q 1281 3584 2069 3584 
Q 2775 3584 3186 3129 
Q 3597 2675 3597 1894 
z
M 3022 2063 
Q 3016 2534 2758 2815 
Q 2500 3097 2075 3097 
Q 1594 3097 1305 2825 
Q 1016 2553 972 2059 
L 3022 2063 
z
" transform="scale(0.015625)"/>
       <path id="DejaVuSans-6c" d="M 603 4863 
L 1178 4863 
L 1178 0 
L 603 0 
L 603 4863 
z
" transform="scale(0.015625)"/>
       <path id="DejaVuSans-6e" d="M 3513 2113 
L 3513 0 
L 2938 0 
L 2938 2094 
Q 2938 2591 2744 2837 
Q 2550 3084 2163 3084 
Q 1697 3084 1428 2787 
Q 1159 2491 1159 1978 
L 1159 0 
L 581 0 
L 581 3500 
L 1159 3500 
L 1159 2956 
Q 1366 3272 1645 3428 
Q 1925 3584 2291 3584 
Q 2894 3584 3203 3211 
Q 3513 2838 3513 2113 
z
" transform="scale(0.015625)"/>
       <path id="DejaVuSans-67" d="M 2906 1791 
Q 2906 2416 2648 2759 
Q 2391 3103 1925 3103 
Q 1463 3103 1205 2759 
Q 947 2416 947 1791 
Q 947 1169 1205 825 
Q 1463 481 1925 481 
Q 2391 481 2648 825 
Q 2906 1169 2906 1791 
z
M 3481 434 
Q 3481 -459 3084 -895 
Q 2688 -1331 1869 -1331 
Q 1566 -1331 1297 -1286 
Q 1028 -1241 775 -1147 
L 775 -588 
Q 1028 -725 1275 -790 
Q 1522 -856 1778 -856 
Q 2344 -856 2625 -561 
Q 2906 -266 2906 331 
L 2906 616 
Q 2728 306 2450 153 
Q 2172 0 1784 0 
Q 1141 0 747 490 
Q 353 981 353 1791 
Q 353 2603 747 3093 
Q 1141 3584 1784 3584 
Q 2172 3584 2450 3431 
Q 2728 3278 2906 2969 
L 2906 3500 
L 3481 3500 
L 3481 434 
z
" transform="scale(0.015625)"/>
       <path id="DejaVuSans-74" d="M 1172 4494 
L 1172 3500 
L 2356 3500 
L 2356 3053 
L 1172 3053 
L 1172 1153 
Q 1172 725 1289 603 
Q 1406 481 1766 481 
L 2356 481 
L 2356 0 
L 1766 0 
Q 1100 0 847 248 
Q 594 497 594 1153 
L 594 3053 
L 172 3053 
L 172 3500 
L 594 3500 
L 594 4494 
L 1172 4494 
z
" transform="scale(0.015625)"/>
       <path id="DejaVuSans-68" d="M 3513 2113 
L 3513 0 
L 2938 0 
L 2938 2094 
Q 2938 2591 2744 2837 
Q 2550 3084 2163 3084 
Q 1697 3084 1428 2787 
Q 1159 2491 1159 1978 
L 1159 0 
L 581 0 
L 581 4863 
L 1159 4863 
L 1159 2956 
Q 1366 3272 1645 3428 
Q 1925 3584 2291 3584 
Q 2894 3584 3203 3211 
Q 3513 2838 3513 2113 
z
" transform="scale(0.015625)"/>
       <path id="DejaVuSans-20" transform="scale(0.015625)"/>
       <path id="DejaVuSans-28" d="M 1984 4856 
Q 1566 4138 1362 3434 
Q 1159 2731 1159 2009 
Q 1159 1288 1364 580 
Q 1569 -128 1984 -844 
L 1484 -844 
Q 1016 -109 783 600 
Q 550 1309 550 2009 
Q 550 2706 781 3412 
Q 1013 4119 1484 4856 
L 1984 4856 
z
" transform="scale(0.015625)"/>
       <path id="DejaVuSans-6d" d="M 3328 2828 
Q 3544 3216 3844 3400 
Q 4144 3584 4550 3584 
Q 5097 3584 5394 3201 
Q 5691 2819 5691 2113 
L 5691 0 
L 5113 0 
L 5113 2094 
Q 5113 2597 4934 2840 
Q 4756 3084 4391 3084 
Q 3944 3084 3684 2787 
Q 3425 2491 3425 1978 
L 3425 0 
L 2847 0 
L 2847 2094 
Q 2847 2600 2669 2842 
Q 2491 3084 2119 3084 
Q 1678 3084 1418 2786 
Q 1159 2488 1159 1978 
L 1159 0 
L 581 0 
L 581 3500 
L 1159 3500 
L 1159 2956 
Q 1356 3278 1631 3431 
Q 1906 3584 2284 3584 
Q 2666 3584 2933 3390 
Q 3200 3197 3328 2828 
z
" transform="scale(0.015625)"/>
       <path id="DejaVuSans-29" d="M 513 4856 
L 1013 4856 
Q 1481 4119 1714 3412 
Q 1947 2706 1947 2009 
Q 1947 1309 1714 600 
Q 1481 -109 1013 -844 
L 513 -844 
Q 928 -128 1133 580 
Q 1338 1288 1338 2009 
Q 1338 2731 1133 3434 
Q 928 4138 513 4856 
z
" transform="scale(0.015625)"/>
      </defs>
      <use xlink:href="#DejaVuSans-57"/>
      <use xlink:href="#DejaVuSans-61" x="92.501953"/>
      <use xlink:href="#DejaVuSans-76" x="153.78125"/>
      <use xlink:href="#DejaVuSans-65" x="212.960938"/>
      <use xlink:href="#DejaVuSans-6c" x="274.484375"/>
      <use xlink:href="#DejaVuSans-65" x="302.267578"/>
      <use xlink:href="#DejaVuSans-6e" x="363.791016"/>
      <use xlink:href="#DejaVuSans-67" x="427.169922"/>
      <use xlink:href="#DejaVuSans-74" x="490.646484"/>
      <use xlink:href="#DejaVuSans-68" x="529.855469"/>
      <use xlink:href="#DejaVuSans-20" x="593.234375"/>
      <use xlink:href="#DejaVuSans-28" x="625.021484"/>
      <use xlink:href="#DejaVuSans-6e" x="664.035156"/>
      <use xlink:href="#DejaVuSans-6d" x="727.414062"/>
      <use xlink:href="#DejaVuSans-29" x="824.826172"/>
     </g>
    </g>
   </g>
   <g id="matplotlib.axis_2">
    <g id="ytick_1">
     <g id="line2d_9">
      <defs>
       <path id="mce9c4d353e" d="M 0 0 
L -3.5 0 
" style="stroke: #000000; stroke-width: 0.8"/>
      </defs>
      <g>
       <use xlink:href="#mce9c4d353e" x="57.6" y="307.584" style="stroke: #000000; stroke-width: 0.8"/>
      </g>
     </g>
     <g id="text_10">
      <!-- 0.0 -->
      <g transform="translate(34.696875 311.383219) scale(0.1 -0.1)">
       <defs>
        <path id="DejaVuSans-2e" d="M 684 794 
L 1344 794 
L 1344 0 
L 684 0 
L 684 794 
z
" transform="scale(0.015625)"/>
       </defs>
       <use xlink:href="#DejaVuSans-30"/>
       <use xlink:href="#DejaVuSans-2e" x="63.623047"/>
       <use xlink:href="#DejaVuSans-30" x="95.410156"/>
      </g>
     </g>
    </g>
    <g id="ytick_2">
     <g id="line2d_10">
      <g>
       <use xlink:href="#mce9c4d353e" x="57.6" y="263.232" style="stroke: #000000; stroke-width: 0.8"/>
      </g>
     </g>
     <g id="text_11">
      <!-- 0.2 -->
      <g transform="translate(34.696875 267.031219) scale(0.1 -0.1)">
       <use xlink:href="#DejaVuSans-30"/>
       <use xlink:href="#DejaVuSans-2e" x="63.623047"/>
       <use xlink:href="#DejaVuSans-32" x="95.410156"/>
      </g>
     </g>
    </g>
    <g id="ytick_3">
     <g id="line2d_11">
      <g>
       <use xlink:href="#mce9c4d353e" x="57.6" y="218.88" style="stroke: #000000; stroke-width: 0.8"/>
      </g>
     </g>
     <g id="text_12">
      <!-- 0.4 -->
      <g transform="translate(34.696875 222.679219) scale(0.1 -0.1)">
       <use xlink:href="#DejaVuSans-30"/>
       <use xlink:href="#DejaVuSans-2e" x="63.623047"/>
       <use xlink:href="#DejaVuSans-34" x="95.410156"/>
      </g>
     </g>
    </g>
    <g id="ytick_4">
     <g id="line2d_12">
      <g>
       <use xlink:href="#mce9c4d353e" x="57.6" y="174.528" style="stroke: #000000; stroke-width: 0.8"/>
      </g>
     </g>
     <g id="text_13">
      <!-- 0.6 -->
      <g transform="translate(34.696875 178.327219) scale(0.1 -0.1)">
       <use xlink:href="#DejaVuSans-30"/>
       <use xlink:href="#DejaVuSans-2e" x="63.623047"/>
       <use xlink:href="#DejaVuSans-36" x="95.410156"/>
      </g>
     </g>
    </g>
    <g id="ytick_5">
     <g id="line2d_13">
      <g>
       <use xlink:href="#mce9c4d353e" x="57.6" y="130.176" style="stroke: #000000; stroke-width: 0.8"/>
      </g>
     </g>
     <g id="text_14">
      <!-- 0.8 -->
      <g transform="translate(34.696875 133.975219) scale(0.1 -0.1)">
       <use xlink:href="#DejaVuSans-30"/>
       <use xlink:href="#DejaVuSans-2e" x="63.623047"/>
       <use xlink:href="#DejaVuSans-38" x="95.410156"/>
      </g>
     </g>
    </g>
    <g id="ytick_6">
     <g id="line2d_14">
      <g>
       <use xlink:href="#mce9c4d353e" x="57.6" y="85.824" style="stroke: #000000; stroke-width: 0.8"/>
      </g>
     </g>
     <g id="text_15">
      <!-- 1.0 -->
      <g transform="translate(34.696875 89.623219) scale(0.1 -0.1)">
       <defs>
        <path id="DejaVuSans-31" d="M 794 531 
L 1825 531 
L 1825 4091 
L 703 3866 
L 703 4441 
L 1819 4666 
L 2450 4666 
L 2450 531 
L 3481 531 
L 3481 0 
L 794 0 
L 794 531 
z
" transform="scale(0.015625)"/>
       </defs>
       <use xlink:href="#DejaVuSans-31"/>
       <use xlink:href="#DejaVuSans-2e" x="63.623047"/>
       <use xlink:href="#DejaVuSans-30" x="95.410156"/>
      </g>
     </g>
    </g>
    <g id="ytick_7">
     <g id="line2d_15">
      <g>
       <use xlink:href="#mce9c4d353e" x="57.6" y="41.472" style="stroke: #000000; stroke-width: 0.8"/>
      </g>
     </g>
     <g id="text_16">
      <!-- 1.2 -->
      <g transform="translate(34.696875 45.271219) scale(0.1 -0.1)">
       <use xlink:href="#DejaVuSans-31"/>
       <use xlink:href="#DejaVuSans-2e" x="63.623047"/>
       <use xlink:href="#DejaVuSans-32" x="95.410156"/>
      </g>
     </g>
    </g>
    <g id="text_17">
     <!-- Absorbance -->
     <g transform="translate(28.617187 204.074875) rotate(-90) scale(0.1 -0.1)">
      <defs>
       <path id="DejaVuSans-41" d="M 2188 4044 
L 1331 1722 
L 3047 1722 
L 2188 4044 
z
M 1831 4666 
L 2547 4666 
L 4325 0 
L 3669 0 
L 3244 1197 
L 1141 1197 
L 716 0 
L 50 0 
L 1831 4666 
z
" transform="scale(0.015625)"/>
       <path id="DejaVuSans-62" d="M 3116 1747 
Q 3116 2381 2855 2742 
Q 2594 3103 2138 3103 
Q 1681 3103 1420 2742 
Q 1159 2381 1159 1747 
Q 1159 1113 1420 752 
Q 1681 391 2138 391 
Q 2594 391 2855 752 
Q 3116 1113 3116 1747 
z
M 1159 2969 
Q 1341 3281 1617 3432 
Q 1894 3584 2278 3584 
Q 2916 3584 3314 3078 
Q 3713 2572 3713 1747 
Q 3713 922 3314 415 
Q 2916 -91 2278 -91 
Q 1894 -91 1617 61 
Q 1341 213 1159 525 
L 1159 0 
L 581 0 
L 581 4863 
L 1159 4863 
L 1159 2969 
z
" transform="scale(0.015625)"/>
       <path id="DejaVuSans-73" d="M 2834 3397 
L 2834 2853 
Q 2591 2978 2328 3040 
Q 2066 3103 1784 3103 
Q 1356 3103 1142 2972 
Q 928 2841 928 2578 
Q 928 2378 1081 2264 
Q 1234 2150 1697 2047 
L 1894 2003 
Q 2506 1872 2764 1633 
Q 3022 1394 3022 966 
Q 3022 478 2636 193 
Q 2250 -91 1575 -91 
Q 1294 -91 989 -36 
Q 684 19 347 128 
L 347 722 
Q 666 556 975 473 
Q 1284 391 1588 391 
Q 1994 391 2212 530 
Q 2431 669 2431 922 
Q 2431 1156 2273 1281 
Q 2116 1406 1581 1522 
L 1381 1569 
Q 847 1681 609 1914 
Q 372 2147 372 2553 
Q 372 3047 722 3315 
Q 1072 3584 1716 3584 
Q 2034 3584 2315 3537 
Q 2597 3491 2834 3397 
z
" transform="scale(0.015625)"/>
       <path id="DejaVuSans-6f" d="M 1959 3097 
Q 1497 3097 1228 2736 
Q 959 2375 959 1747 
Q 959 1119 1226 758 
Q 1494 397 1959 397 
Q 2419 397 2687 759 
Q 2956 1122 2956 1747 
Q 2956 2369 2687 2733 
Q 2419 3097 1959 3097 
z
M 1959 3584 
Q 2709 3584 3137 3096 
Q 3566 2609 3566 1747 
Q 3566 888 3137 398 
Q 2709 -91 1959 -91 
Q 1206 -91 779 398 
Q 353 888 353 1747 
Q 353 2609 779 3096 
Q 1206 3584 1959 3584 
z
" transform="scale(0.015625)"/>
       <path id="DejaVuSans-72" d="M 2631 2963 
Q 2534 3019 2420 3045 
Q 2306 3072 2169 3072 
Q 1681 3072 1420 2755 
Q 1159 2438 1159 1844 
L 1159 0 
L 581 0 
L 581 3500 
L 1159 3500 
L 1159 2956 
Q 1341 3275 1631 3429 
Q 1922 3584 2338 3584 
Q 2397 3584 2469 3576 
Q 2541 3569 2628 3553 
L 2631 2963 
z
" transform="scale(0.015625)"/>
       <path id="DejaVuSans-63" d="M 3122 3366 
L 3122 2828 
Q 2878 2963 2633 3030 
Q 2388 3097 2138 3097 
Q 1578 3097 1268 2742 
Q 959 2388 959 1747 
Q 959 1106 1268 751 
Q 1578 397 2138 397 
Q 2388 397 2633 464 
Q 2878 531 3122 666 
L 3122 134 
Q 2881 22 2623 -34 
Q 2366 -91 2075 -91 
Q 1284 -91 818 406 
Q 353 903 353 1747 
Q 353 2603 823 3093 
Q 1294 3584 2113 3584 
Q 2378 3584 2631 3529 
Q 2884 3475 3122 3366 
z
" transform="scale(0.015625)"/>
      </defs>
      <use xlink:href="#DejaVuSans-41"/>
      <use xlink:href="#DejaVuSans-62" x="68.408203"/>
      <use xlink:href="#DejaVuSans-73" x="131.884766"/>
      <use xlink:href="#DejaVuSans-6f" x="183.984375"/>
      <use xlink:href="#DejaVuSans-72" x="245.166016"/>
      <use xlink:href="#DejaVuSans-62" x="286.279297"/>
      <use xlink:href="#DejaVuSans-61" x="349.755859"/>
      <use xlink:href="#DejaVuSans-6e" x="411.035156"/>
      <use xlink:href="#DejaVuSans-63" x="474.414062"/>
      <use xlink:href="#DejaVuSans-65" x="529.394531"/>
     </g>
    </g>
   </g>
   <g id="line2d_16">
    <path d="M 363.702857 308.415641 
L 363.192686 308.287539 
L 356.560457 308.255738 
L 340.745143 307.815925 
L 338.194286 307.584 
L 334.623086 307.057768 
L 332.5824 307.013089 
L 325.950171 306.788858 
L 322.378971 307.057393 
L 321.8688 307.224272 
L 321.358629 307.083622 
L 314.7264 307.218356 
L 312.685714 307.139561 
L 309.114514 307.104937 
L 307.584 307.008669 
L 302.482286 306.706836 
L 298.400914 306.299341 
L 297.380571 306.174762 
L 295.850057 305.94598 
L 293.2992 305.682415 
L 282.5856 303.891415 
L 276.463543 302.544114 
L 275.4432 302.354351 
L 271.872 301.590071 
L 270.341486 301.322172 
L 262.178743 299.725767 
L 259.117714 299.092558 
L 252.485486 297.34037 
L 249.934629 296.397588 
L 248.404114 295.704804 
L 245.853257 294.159722 
L 243.812571 292.33059 
L 242.792229 291.247424 
L 241.261714 289.312452 
L 239.7312 286.846487 
L 238.200686 283.854458 
L 236.670171 280.21436 
L 235.139657 275.826398 
L 233.609143 270.702829 
L 232.078629 264.722184 
L 230.548114 257.991966 
L 228.507429 247.667996 
L 226.466743 236.083779 
L 224.426057 223.412586 
L 221.365029 202.87029 
L 213.202286 146.542568 
L 210.141257 127.259477 
L 207.5904 112.60159 
L 205.549714 102.164875 
L 204.0192 95.227208 
L 202.488686 89.196688 
L 201.468343 85.765354 
L 200.448 82.909304 
L 199.427657 80.547895 
L 198.407314 78.756549 
L 197.386971 77.593424 
L 196.8768 77.197732 
L 195.856457 76.907044 
L 195.346286 76.975195 
L 194.836114 77.189537 
L 193.815771 78.028003 
L 192.795429 79.371658 
L 191.775086 81.136436 
L 190.244571 84.65711 
L 189.224229 87.549298 
L 188.203886 90.847303 
L 186.673371 96.414575 
L 185.142857 102.838553 
L 183.102171 112.710823 
L 181.061486 123.777862 
L 177.490286 145.076184 
L 169.837714 191.521597 
L 167.286857 205.636075 
L 164.225829 221.023578 
L 161.674971 232.297385 
L 159.634286 240.413555 
L 157.5936 247.295812 
L 156.063086 251.817143 
L 153.512229 257.655044 
L 151.981714 260.2035 
L 150.961371 261.419827 
L 149.430857 262.644941 
L 148.410514 262.952188 
L 147.900343 263.010092 
L 146.369829 262.560114 
L 145.349486 262.067377 
L 144.839314 261.695332 
L 144.329143 260.924984 
L 143.818971 260.79186 
L 143.3088 258.936793 
L 142.798629 259.695079 
L 141.268114 257.424382 
L 140.757943 256.41405 
L 140.247771 255.743085 
L 138.717257 252.785247 
L 138.207086 251.601809 
L 137.696914 249.881265 
L 137.186743 249.204871 
L 136.1664 246.677015 
L 135.656229 244.784803 
L 135.146057 243.95662 
L 134.635886 242.616865 
L 134.125714 240.820747 
L 133.615543 239.840175 
L 133.105371 233.779862 
L 132.085029 229.865901 
L 131.064686 224.662335 
L 130.044343 218.053735 
L 129.024 209.184983 
L 128.003657 196.671777 
L 126.983314 178.555393 
L 126.473143 166.694882 
L 125.4528 134.928254 
L 124.432457 87.26617 
L 123.922286 55.781123 
L 123.213383 -1 
L 123.213383 -1 
" clip-path="url(#pf33d51424c)" style="fill: none; stroke: #e01f1f; stroke-width: 0.5; stroke-linecap: square"/>
   </g>
   <g id="line2d_17">
    <path d="M 363.702857 308.306973 
L 363.192686 308.119527 
L 359.111314 308.127901 
L 355.540114 308.144318 
L 352.989257 308.149162 
L 351.968914 308.067678 
L 350.4384 308.091597 
L 348.907886 308.035304 
L 345.336686 307.963204 
L 341.765486 307.820799 
L 338.194286 307.584 
L 335.133257 307.116171 
L 326.460343 306.777829 
L 321.8688 307.254537 
L 321.358629 307.130869 
L 319.828114 307.225977 
L 318.2976 307.304205 
L 315.746743 307.309251 
L 308.094171 307.110472 
L 302.992457 306.78498 
L 301.461943 306.679662 
L 296.8704 306.190496 
L 296.360229 306.071777 
L 294.829714 305.980349 
L 292.789029 305.712633 
L 289.728 305.256902 
L 286.1568 304.653587 
L 284.626286 304.361111 
L 265.749943 300.203599 
L 264.219429 299.893198 
L 262.178743 299.441828 
L 260.648229 299.104887 
L 254.526171 297.607887 
L 249.934629 296.101862 
L 248.404114 295.411732 
L 246.363429 294.212645 
L 245.343086 293.381025 
L 242.792229 291.010185 
L 240.751543 288.308839 
L 239.221029 285.777823 
L 238.200686 283.794476 
L 236.670171 280.23229 
L 235.649829 277.509328 
L 234.119314 272.775969 
L 232.5888 267.236428 
L 231.058286 260.957626 
L 229.0176 251.291674 
L 226.976914 240.29089 
L 224.426057 224.951487 
L 221.365029 204.832732 
L 212.181943 142.88061 
L 209.120914 124.363063 
L 206.059886 107.971592 
L 204.0192 98.56758 
L 202.488686 92.524198 
L 200.958171 87.525813 
L 199.937829 84.893966 
L 198.917486 82.783036 
L 197.897143 81.248224 
L 197.386971 80.672187 
L 196.8768 80.270547 
L 195.856457 79.889209 
L 194.836114 80.075556 
L 194.325943 80.357573 
L 193.3056 81.34831 
L 192.285257 82.79258 
L 191.264914 84.723005 
L 189.7344 88.37866 
L 188.203886 93.039314 
L 186.673371 98.466582 
L 185.142857 104.627933 
L 183.102171 114.307354 
L 181.061486 125.260745 
L 178.510629 139.978443 
L 173.919086 167.914305 
L 170.347886 189.240054 
L 167.286857 206.199625 
L 164.225829 221.554228 
L 162.185143 230.813286 
L 158.613943 244.61327 
L 156.573257 251.022828 
L 155.552914 253.810862 
L 153.512229 258.391018 
L 152.491886 260.252261 
L 150.961371 262.346853 
L 149.430857 263.613553 
L 148.410514 264.005881 
L 147.390171 264.053687 
L 145.859657 263.473641 
L 144.839314 262.855076 
L 144.329143 262.19254 
L 143.818971 261.968576 
L 143.3088 260.112402 
L 142.798629 260.737617 
L 142.288457 260.077279 
L 141.778286 259.216627 
L 140.757943 257.852841 
L 139.227429 254.899543 
L 138.207086 252.633796 
L 137.186743 250.240974 
L 136.676571 248.707278 
L 136.1664 247.637353 
L 134.635886 242.917648 
L 134.125714 242.170657 
L 133.615543 240.848693 
L 133.105371 234.509944 
L 132.5952 232.733428 
L 131.574857 228.109216 
L 130.554514 222.353305 
L 129.534171 214.710184 
L 128.513829 204.306348 
L 127.493486 189.364673 
L 126.473143 167.63505 
L 125.962971 153.259379 
L 124.942629 115.017751 
L 123.922286 57.14449 
L 123.198008 -1 
L 123.198008 -1 
" clip-path="url(#pf33d51424c)" style="fill: none; stroke: #d61f29; stroke-width: 0.5; stroke-linecap: square"/>
   </g>
   <g id="line2d_18">
    <path d="M 363.702857 308.316785 
L 363.192686 308.132267 
L 343.296 307.932562 
L 339.7248 307.730144 
L 338.704457 307.651585 
L 333.602743 307.079624 
L 328.501029 306.866177 
L 326.970514 306.752071 
L 323.399314 307.086907 
L 321.8688 307.305521 
L 321.358629 307.194503 
L 313.706057 307.345339 
L 308.094171 307.156683 
L 305.033143 306.974776 
L 303.502629 306.887188 
L 301.972114 306.756403 
L 300.951771 306.680489 
L 296.8704 306.218117 
L 295.850057 306.06551 
L 294.319543 305.922559 
L 290.748343 305.458145 
L 288.707657 305.062702 
L 286.1568 304.576684 
L 280.544914 303.311285 
L 276.463543 302.294592 
L 272.892343 301.434819 
L 271.361829 301.051495 
L 264.219429 299.416808 
L 261.668571 298.841699 
L 252.485486 296.317527 
L 249.934629 295.416926 
L 248.404114 294.710364 
L 246.363429 293.570139 
L 245.343086 292.700876 
L 242.282057 289.748909 
L 240.241371 286.962234 
L 238.710857 284.338446 
L 237.180343 281.058955 
L 235.649829 277.197895 
L 234.119314 272.571643 
L 232.5888 267.275036 
L 231.058286 261.13023 
L 229.0176 251.722579 
L 226.976914 240.995214 
L 224.936229 229.167742 
L 221.8752 209.65154 
L 217.283657 178.638551 
L 212.692114 148.431017 
L 209.631086 129.921783 
L 207.080229 115.83006 
L 205.039543 105.88102 
L 203.509029 99.218749 
L 201.978514 93.522999 
L 200.958171 90.277218 
L 199.937829 87.556929 
L 198.917486 85.391516 
L 197.897143 83.818583 
L 196.8768 82.762682 
L 196.366629 82.436701 
L 195.346286 82.326781 
L 194.836114 82.413993 
L 193.815771 83.027199 
L 192.795429 84.177608 
L 192.285257 84.861503 
L 190.754743 87.764438 
L 189.7344 90.194937 
L 188.714057 93.078863 
L 187.183543 98.084703 
L 185.142857 105.902327 
L 183.612343 112.846206 
L 181.571657 123.234716 
L 179.0208 137.521721 
L 175.959771 155.687963 
L 169.837714 191.983343 
L 166.266514 211.085672 
L 164.225829 221.036298 
L 161.674971 232.291052 
L 159.634286 240.252982 
L 158.103771 245.633246 
L 156.573257 250.348265 
L 155.042743 254.313822 
L 154.0224 256.705909 
L 152.491886 259.577629 
L 150.961371 261.66391 
L 149.430857 263.008851 
L 147.900343 263.445809 
L 147.390171 263.444785 
L 145.859657 262.901045 
L 144.839314 262.220778 
L 144.329143 261.560751 
L 143.818971 261.313556 
L 143.3088 259.452584 
L 142.798629 260.118123 
L 140.757943 257.054033 
L 137.696914 250.539463 
L 135.146057 243.808782 
L 134.635886 241.906412 
L 134.125714 240.94685 
L 133.615543 239.748949 
L 133.105371 233.364248 
L 132.085029 229.277424 
L 131.064686 224.136536 
L 130.044343 217.582296 
L 129.024 208.779692 
L 128.003657 196.310119 
L 126.983314 178.341968 
L 126.473143 166.537897 
L 125.4528 134.596885 
L 124.942629 113.883575 
L 123.922286 56.020412 
L 123.208034 -1 
L 123.208034 -1 
" clip-path="url(#pf33d51424c)" style="fill: none; stroke: #cb1f34; stroke-width: 0.5; stroke-linecap: square"/>
   </g>
   <g id="line2d_19">
    <path d="M 363.702857 308.30426 
L 363.192686 308.108496 
L 350.948571 308.097169 
L 346.8672 307.987501 
L 345.336686 307.944207 
L 340.234971 307.77647 
L 334.623086 307.129064 
L 330.031543 306.939408 
L 328.501029 306.830605 
L 326.970514 306.77914 
L 325.44 306.869827 
L 323.399314 307.058456 
L 321.358629 307.172739 
L 310.645029 307.21275 
L 306.563657 307.04759 
L 305.033143 306.961314 
L 296.8704 306.098693 
L 296.360229 305.954487 
L 294.829714 305.824897 
L 291.768686 305.351085 
L 290.238171 305.067656 
L 281.055086 302.937336 
L 277.483886 301.921773 
L 274.933029 301.24083 
L 271.361829 300.224707 
L 265.239771 298.662528 
L 262.178743 297.868252 
L 256.056686 296.134762 
L 252.995657 295.139585 
L 248.404114 293.300742 
L 246.8736 292.436398 
L 245.853257 291.770926 
L 242.282057 288.44481 
L 240.241371 285.758156 
L 238.710857 283.188387 
L 237.690514 281.226308 
L 236.16 277.743381 
L 234.629486 273.618314 
L 233.098971 268.767989 
L 231.568457 263.131625 
L 230.037943 256.765617 
L 228.507429 249.682983 
L 226.466743 239.070515 
L 223.915886 224.312615 
L 221.365029 208.279786 
L 212.181943 148.657885 
L 209.631086 133.633531 
L 207.080229 119.776862 
L 205.039543 109.872684 
L 203.509029 103.273964 
L 201.978514 97.522514 
L 200.448 92.830375 
L 199.427657 90.299632 
L 198.407314 88.276337 
L 197.386971 86.881172 
L 196.366629 86.025404 
L 195.856457 85.765235 
L 194.836114 85.758375 
L 193.815771 86.198757 
L 193.3056 86.601177 
L 192.285257 87.822566 
L 191.264914 89.474093 
L 189.7344 92.724288 
L 188.714057 95.381633 
L 187.183543 100.1233 
L 185.142857 107.562917 
L 183.102171 116.587549 
L 181.061486 126.842134 
L 177.490286 146.74578 
L 168.817371 196.773813 
L 165.756343 212.523996 
L 162.695314 226.609877 
L 159.634286 238.764051 
L 157.5936 245.732581 
L 156.063086 250.17317 
L 154.532571 253.938134 
L 153.002057 257.064911 
L 151.981714 258.75774 
L 150.961371 260.085319 
L 150.4512 260.468265 
L 149.941029 261.043381 
L 149.430857 261.434271 
L 148.410514 261.793653 
L 147.900343 261.909462 
L 146.88 261.738472 
L 145.859657 261.358351 
L 144.839314 260.699156 
L 144.329143 260.04891 
L 143.818971 259.680761 
L 143.3088 257.775866 
L 142.798629 258.395291 
L 140.757943 255.210224 
L 139.227429 251.980827 
L 138.717257 250.364427 
L 138.207086 249.62228 
L 135.146057 241.291854 
L 133.615543 236.515602 
L 133.105371 230.588479 
L 132.5952 228.879957 
L 131.064686 221.455104 
L 130.044343 214.877976 
L 129.024 206.034411 
L 128.003657 193.686931 
L 126.983314 175.646934 
L 126.473143 163.807268 
L 125.4528 132.148894 
L 124.942629 111.000463 
L 123.922286 53.606616 
L 123.234593 -1 
L 123.234593 -1 
" clip-path="url(#pf33d51424c)" style="fill: none; stroke: #c01f3f; stroke-width: 0.5; stroke-linecap: square"/>
   </g>
   <g id="line2d_20">
    <path d="M 363.702857 308.307001 
L 363.192686 308.120189 
L 361.152 308.136246 
L 352.989257 308.154828 
L 351.968914 308.119464 
L 338.194286 307.584 
L 333.092571 307.056567 
L 326.970514 306.781651 
L 325.44 306.888088 
L 323.909486 307.030644 
L 317.787429 307.311451 
L 313.195886 307.288682 
L 310.645029 307.188196 
L 307.584 307.050642 
L 305.543314 306.908658 
L 300.4416 306.455631 
L 296.8704 305.938636 
L 295.850057 305.774026 
L 293.809371 305.480657 
L 288.707657 304.456271 
L 287.177143 304.077527 
L 278.504229 301.532197 
L 277.483886 301.159518 
L 276.463543 300.864553 
L 262.178743 296.44038 
L 260.648229 295.970471 
L 253.505829 293.605885 
L 252.485486 293.233331 
L 251.975314 293.126189 
L 247.893943 291.195371 
L 246.363429 290.315776 
L 245.853257 289.990612 
L 244.322743 288.653848 
L 242.792229 287.280866 
L 241.261714 285.548969 
L 239.7312 283.436701 
L 238.200686 280.929776 
L 236.670171 277.812357 
L 235.139657 274.159024 
L 233.609143 269.825778 
L 232.078629 264.801437 
L 230.548114 259.089832 
L 228.507429 250.338461 
L 226.466743 240.270737 
L 224.426057 229.177982 
L 221.8752 214.003347 
L 217.793829 188.205254 
L 214.222629 165.616188 
L 210.651429 144.431488 
L 208.100571 130.485545 
L 206.059886 120.243701 
L 204.0192 111.013451 
L 202.488686 105.025004 
L 200.958171 99.849221 
L 199.427657 95.795336 
L 198.407314 93.774434 
L 197.386971 92.203047 
L 196.366629 91.195405 
L 195.346286 90.727239 
L 194.325943 90.770885 
L 193.3056 91.258811 
L 192.285257 92.275455 
L 191.264914 93.724047 
L 189.7344 96.608859 
L 188.203886 100.412899 
L 186.1632 106.736408 
L 185.142857 110.39357 
L 183.612343 116.662251 
L 182.081829 123.597697 
L 179.530971 136.518047 
L 176.469943 153.351473 
L 168.3072 198.719156 
L 165.756343 211.461263 
L 162.695314 225.221725 
L 160.654629 233.363802 
L 158.103771 242.416462 
L 156.573257 246.992548 
L 155.552914 249.722876 
L 153.512229 254.302943 
L 151.981714 256.929441 
L 150.961371 258.267634 
L 148.920686 259.853911 
L 147.900343 260.13385 
L 146.88 259.976381 
L 145.859657 259.531469 
L 145.349486 259.235041 
L 144.839314 258.77512 
L 144.329143 258.149314 
L 143.818971 257.778518 
L 143.3088 255.834468 
L 142.798629 256.443504 
L 142.288457 255.629273 
L 141.778286 254.521852 
L 141.268114 253.930816 
L 139.7376 250.710499 
L 139.227429 249.616729 
L 138.717257 248.135277 
L 138.207086 247.008046 
L 135.146057 238.267256 
L 134.635886 236.480166 
L 133.615543 233.915565 
L 133.105371 227.384204 
L 132.085029 223.204121 
L 131.574857 220.903733 
L 130.554514 215.150121 
L 129.534171 207.510457 
L 129.024 202.862116 
L 128.003657 190.425006 
L 126.983314 172.496595 
L 125.962971 146.488197 
L 124.942629 108.166627 
L 123.922286 50.568867 
L 123.266078 -1 
L 123.266078 -1 
" clip-path="url(#pf33d51424c)" style="fill: none; stroke: #b51f4a; stroke-width: 0.5; stroke-linecap: square"/>
   </g>
   <g id="line2d_21">
    <path d="M 363.702857 308.317461 
L 363.192686 308.153011 
L 361.152 308.132975 
L 353.499429 308.16708 
L 350.948571 308.08825 
L 346.357029 308.020482 
L 337.173943 307.456054 
L 334.623086 307.106706 
L 328.501029 306.849455 
L 327.480686 306.760797 
L 325.44 306.858051 
L 321.8688 307.258591 
L 320.848457 307.185874 
L 315.236571 307.285399 
L 311.1552 307.206669 
L 304.522971 306.795674 
L 303.502629 306.655005 
L 297.380571 305.897129 
L 295.850057 305.555379 
L 292.278857 304.890874 
L 285.646629 303.022259 
L 281.565257 301.600782 
L 270.851657 297.472606 
L 267.280457 296.210549 
L 254.526171 291.337565 
L 251.465143 290.050329 
L 248.404114 288.620057 
L 245.853257 287.146871 
L 244.832914 286.259372 
L 242.792229 284.553343 
L 240.751543 282.319731 
L 239.221029 280.284983 
L 237.690514 277.819169 
L 236.16 274.880322 
L 234.629486 271.374717 
L 233.098971 267.287291 
L 231.568457 262.566185 
L 230.037943 257.161573 
L 227.997257 248.941365 
L 225.956571 239.496886 
L 223.915886 229.030608 
L 220.854857 211.782239 
L 211.1616 154.928959 
L 208.100571 138.832552 
L 205.549714 126.686242 
L 202.998857 116.049883 
L 201.468343 110.620964 
L 200.448 107.541782 
L 199.427657 104.840144 
L 198.407314 102.678471 
L 197.386971 100.951033 
L 196.8768 100.243636 
L 195.856457 99.302744 
L 194.836114 98.828604 
L 193.815771 98.886909 
L 193.3056 99.042325 
L 192.795429 99.335988 
L 191.775086 100.250906 
L 190.754743 101.580418 
L 189.7344 103.270938 
L 188.714057 105.363758 
L 187.693714 107.739046 
L 186.1632 111.956093 
L 184.632686 117.122148 
L 183.102171 122.95736 
L 181.061486 131.922775 
L 179.0208 141.743073 
L 175.959771 157.480798 
L 168.3072 197.914863 
L 165.756343 210.049131 
L 163.205486 221.203124 
L 160.654629 231.187443 
L 158.613943 238.282509 
L 157.083429 242.989009 
L 155.552914 247.096605 
L 154.0224 250.506744 
L 153.002057 252.46501 
L 151.981714 254.16193 
L 150.961371 255.472587 
L 149.430857 256.813261 
L 148.410514 257.268487 
L 147.900343 257.35779 
L 146.88 257.226913 
L 145.859657 256.793821 
L 144.839314 255.988948 
L 144.329143 255.311414 
L 143.818971 254.878692 
L 143.3088 252.830376 
L 142.798629 253.37708 
L 142.288457 252.469487 
L 141.778286 251.322118 
L 141.268114 250.585576 
L 140.757943 249.559997 
L 137.696914 241.537575 
L 134.125714 230.583186 
L 133.615543 229.271683 
L 133.105371 222.247268 
L 132.5952 220.372054 
L 131.064686 212.958026 
L 130.044343 206.416984 
L 129.024 197.782407 
L 128.003657 185.451965 
L 127.493486 177.467267 
L 126.473143 155.797482 
L 125.962971 141.623675 
L 124.942629 103.418238 
L 123.922286 46.048686 
L 123.314437 -1 
L 123.314437 -1 
" clip-path="url(#pf33d51424c)" style="fill: none; stroke: #ab1f54; stroke-width: 0.5; stroke-linecap: square"/>
   </g>
   <g id="line2d_22">
    <path d="M 363.702857 308.284708 
L 362.682514 308.115054 
L 355.540114 308.162598 
L 352.479086 308.089834 
L 351.458743 308.094282 
L 341.255314 307.814113 
L 338.194286 307.584 
L 332.5824 307.026384 
L 330.031543 306.997816 
L 327.480686 306.756207 
L 325.44 306.869238 
L 322.378971 307.137206 
L 321.8688 307.247854 
L 321.358629 307.143853 
L 317.787429 307.285764 
L 313.195886 307.235985 
L 304.522971 306.700575 
L 296.8704 305.529201 
L 296.360229 305.359486 
L 294.829714 305.127839 
L 290.238171 303.961776 
L 285.136457 302.153668 
L 281.055086 300.439936 
L 279.524571 299.720579 
L 274.422857 297.365056 
L 273.402514 296.896405 
L 269.321143 295.040975 
L 266.770286 293.953632 
L 247.893943 285.296802 
L 245.853257 284.064581 
L 241.771886 280.622635 
L 240.241371 278.96628 
L 238.200686 276.246168 
L 236.670171 273.749434 
L 235.139657 270.793423 
L 233.609143 267.330333 
L 232.078629 263.285208 
L 230.548114 258.674363 
L 228.507429 251.457775 
L 226.466743 243.205245 
L 224.426057 233.861844 
L 221.8752 220.942927 
L 218.814171 204.188981 
L 213.202286 172.993228 
L 210.141257 157.041809 
L 207.080229 142.21086 
L 204.529371 131.127681 
L 202.998857 125.095932 
L 201.468343 119.725145 
L 199.937829 115.199195 
L 198.917486 112.733298 
L 197.897143 110.612416 
L 196.8768 109.006319 
L 195.856457 107.892735 
L 194.836114 107.231892 
L 194.325943 107.022427 
L 193.3056 107.017999 
L 192.285257 107.416203 
L 191.264914 108.211168 
L 190.244571 109.427231 
L 189.224229 110.894064 
L 187.693714 113.884408 
L 186.1632 117.52822 
L 184.632686 122.048909 
L 183.102171 127.374412 
L 181.061486 135.505657 
L 179.0208 144.489075 
L 176.469943 156.57129 
L 172.898743 174.442429 
L 168.817371 194.735025 
L 166.266514 206.509481 
L 163.205486 219.389325 
L 160.654629 228.944954 
L 158.613943 235.814244 
L 157.083429 240.377541 
L 155.552914 244.363843 
L 154.0224 247.680795 
L 152.491886 250.455773 
L 150.961371 252.576474 
L 149.430857 253.949516 
L 148.920686 254.219443 
L 147.900343 254.473752 
L 147.390171 254.426633 
L 145.859657 253.783799 
L 144.839314 252.93805 
L 144.329143 252.191859 
L 143.818971 251.707914 
L 143.3088 249.555626 
L 142.798629 250.046652 
L 142.288457 249.125812 
L 141.778286 247.784702 
L 141.268114 246.99 
L 140.247771 244.426734 
L 139.227429 241.685752 
L 138.207086 238.586129 
L 137.186743 235.344247 
L 136.676571 233.321858 
L 136.1664 232.001454 
L 135.146057 228.661654 
L 134.635886 226.531162 
L 134.125714 225.439533 
L 133.615543 224.003135 
L 133.105371 216.749811 
L 132.085029 212.487962 
L 131.064686 207.322581 
L 130.044343 200.753497 
L 129.024 192.138892 
L 128.513829 186.779168 
L 127.493486 171.962772 
L 126.983314 162.4327 
L 125.962971 136.679858 
L 124.942629 98.636684 
L 123.922286 41.598452 
L 123.360349 -1 
L 123.360349 -1 
" clip-path="url(#pf33d51424c)" style="fill: none; stroke: #a01f5f; stroke-width: 0.5; stroke-linecap: square"/>
   </g>
   <g id="line2d_23">
    <path d="M 363.702857 308.346738 
L 363.192686 308.162512 
L 362.172343 308.167987 
L 354.0096 308.175848 
L 352.479086 308.147652 
L 349.928229 308.106652 
L 348.397714 308.064621 
L 340.745143 307.799841 
L 333.602743 307.086076 
L 330.031543 306.973342 
L 326.970514 306.74592 
L 325.950171 306.828886 
L 322.889143 307.129216 
L 322.378971 307.126289 
L 321.8688 307.270794 
L 321.358629 307.141905 
L 313.706057 307.231345 
L 311.665371 307.163223 
L 307.584 306.944551 
L 299.931429 305.961897 
L 297.890743 305.580648 
L 291.768686 303.965475 
L 287.177143 302.312703 
L 285.646629 301.664166 
L 284.116114 300.941508 
L 280.034743 298.922256 
L 276.463543 297.000913 
L 274.422857 295.922848 
L 272.892343 295.102819 
L 271.361829 294.253963 
L 264.7296 290.879875 
L 252.485486 284.656987 
L 247.383771 281.941473 
L 245.343086 280.620291 
L 244.322743 279.826362 
L 241.261714 277.242869 
L 239.7312 275.653381 
L 238.200686 273.774938 
L 236.670171 271.55207 
L 235.139657 268.922406 
L 233.609143 265.837977 
L 232.078629 262.240378 
L 230.548114 258.132061 
L 229.0176 253.425171 
L 227.487086 248.12737 
L 225.4464 240.210004 
L 222.895543 228.911163 
L 219.834514 213.842885 
L 210.141257 164.593409 
L 207.080229 150.63775 
L 204.0192 137.950907 
L 201.978514 130.510656 
L 200.448 125.728027 
L 198.917486 121.740641 
L 197.897143 119.570853 
L 196.8768 117.817032 
L 195.856457 116.556531 
L 194.836114 115.695515 
L 193.815771 115.194926 
L 193.3056 115.102083 
L 192.285257 115.281028 
L 191.264914 115.761222 
L 190.244571 116.626665 
L 189.224229 117.776744 
L 188.203886 119.343584 
L 187.183543 121.223715 
L 186.1632 123.302075 
L 184.632686 127.316822 
L 183.102171 132.000792 
L 181.061486 139.312803 
L 178.510629 149.666418 
L 175.4496 163.300167 
L 172.898743 175.303934 
L 168.817371 194.513757 
L 166.266514 205.736873 
L 162.695314 219.878818 
L 159.124114 232.163328 
L 157.083429 238.110793 
L 156.063086 240.799663 
L 154.0224 245.241699 
L 152.491886 247.90714 
L 151.471543 249.331477 
L 150.961371 249.997826 
L 148.920686 251.597869 
L 147.900343 251.88789 
L 147.390171 251.873839 
L 146.369829 251.464526 
L 145.859657 251.169714 
L 144.839314 250.237229 
L 144.329143 249.400693 
L 143.818971 248.894446 
L 143.3088 246.660617 
L 142.798629 247.086036 
L 141.268114 243.691368 
L 140.247771 240.926528 
L 139.227429 238.049653 
L 138.717257 236.087016 
L 138.207086 234.668904 
L 134.125714 220.630826 
L 133.615543 219.039659 
L 133.105371 211.602725 
L 132.5952 209.697592 
L 131.064686 202.158668 
L 130.044343 195.732291 
L 129.024 187.077814 
L 128.003657 175.065548 
L 127.493486 167.212488 
L 126.473143 145.99276 
L 125.962971 131.933949 
L 124.942629 93.879937 
L 123.922286 37.040978 
L 123.410335 -1 
L 123.410335 -1 
" clip-path="url(#pf33d51424c)" style="fill: none; stroke: #951f6a; stroke-width: 0.5; stroke-linecap: square"/>
   </g>
   <g id="line2d_24">
    <path d="M 363.702857 308.272075 
L 363.192686 308.13472 
L 361.152 308.117925 
L 352.989257 308.105417 
L 351.458743 308.093977 
L 345.846857 308.000888 
L 337.173943 307.447892 
L 332.072229 307.023475 
L 331.051886 307.000916 
L 329.0112 306.894485 
L 326.970514 306.78046 
L 325.44 306.920135 
L 321.358629 307.163855 
L 313.706057 307.24283 
L 311.1552 307.121175 
L 308.094171 306.895158 
L 304.522971 306.526393 
L 303.502629 306.387154 
L 302.482286 306.279721 
L 300.4416 305.918286 
L 297.890743 305.45044 
L 291.258514 303.417893 
L 283.605943 299.885982 
L 281.055086 298.403572 
L 279.524571 297.431538 
L 276.973714 295.883644 
L 257.077029 283.888433 
L 245.853257 277.40261 
L 244.322743 276.222286 
L 242.792229 275.081321 
L 241.261714 273.843277 
L 238.200686 270.721259 
L 236.16 268.05024 
L 234.119314 264.735703 
L 232.5888 261.767727 
L 231.058286 258.394958 
L 229.0176 253.074214 
L 226.976914 246.782921 
L 224.936229 239.562094 
L 222.385371 229.283107 
L 219.324343 215.536649 
L 212.181943 182.041704 
L 209.120914 168.579445 
L 205.039543 151.914205 
L 202.488686 142.642186 
L 200.958171 137.745963 
L 199.427657 133.493756 
L 197.897143 129.980365 
L 196.366629 127.418506 
L 195.346286 126.124616 
L 194.325943 125.27555 
L 193.3056 124.724719 
L 192.795429 124.602546 
L 191.775086 124.604608 
L 190.754743 124.922102 
L 190.244571 125.178015 
L 189.224229 126.069128 
L 188.203886 127.241954 
L 187.183543 128.724041 
L 185.653029 131.400459 
L 184.122514 135.017611 
L 182.592 139.305704 
L 180.551314 145.908032 
L 178.000457 155.288913 
L 174.429257 169.973315 
L 166.266514 205.025305 
L 163.715657 214.609088 
L 161.674971 221.66019 
L 159.634286 228.307624 
L 157.5936 234.240081 
L 156.063086 238.139964 
L 154.532571 241.387079 
L 153.002057 244.154213 
L 151.471543 246.360575 
L 150.4512 247.477404 
L 149.941029 247.773981 
L 148.920686 248.531719 
L 148.410514 248.703942 
L 147.390171 248.77163 
L 146.369829 248.345749 
L 145.349486 247.555489 
L 144.839314 246.982578 
L 144.329143 246.101253 
L 143.818971 245.495819 
L 143.3088 243.131925 
L 142.798629 243.442269 
L 140.757943 238.320587 
L 139.227429 233.412711 
L 138.717257 231.257251 
L 138.207086 229.822821 
L 134.635886 216.006057 
L 133.615543 213.077421 
L 133.105371 205.187813 
L 132.085029 200.790467 
L 131.064686 195.461792 
L 130.044343 189.067653 
L 129.024 180.46774 
L 128.003657 168.834498 
L 126.983314 151.39133 
L 126.473143 139.986745 
L 125.962971 126.02572 
L 124.942629 88.394047 
L 123.922286 31.889594 
L 123.474563 -1 
L 123.474563 -1 
" clip-path="url(#pf33d51424c)" style="fill: none; stroke: #8a1f75; stroke-width: 0.5; stroke-linecap: square"/>
   </g>
   <g id="line2d_25">
    <path d="M 363.702857 308.304537 
L 363.192686 308.140763 
L 358.090971 308.14739 
L 355.540114 308.159238 
L 354.519771 308.128958 
L 349.928229 308.099065 
L 347.887543 308.040532 
L 340.745143 307.784228 
L 337.173943 307.450344 
L 334.623086 307.099771 
L 332.5824 307.015713 
L 330.541714 306.946873 
L 329.0112 306.881748 
L 327.990857 306.785402 
L 326.460343 306.782243 
L 324.419657 306.91318 
L 322.889143 307.066498 
L 318.2976 307.23874 
L 315.236571 307.235424 
L 313.195886 307.124813 
L 311.1552 307.003403 
L 305.543314 306.587425 
L 300.4416 305.695803 
L 297.380571 304.97912 
L 295.850057 304.440016 
L 294.319543 303.980672 
L 291.258514 302.847508 
L 289.217829 301.935762 
L 286.1568 300.340133 
L 282.5856 298.278918 
L 280.544914 296.91683 
L 278.504229 295.536699 
L 276.463543 294.057487 
L 267.790629 288.013025 
L 251.975314 277.521417 
L 250.954971 276.971369 
L 247.383771 274.756993 
L 245.343086 273.378972 
L 239.7312 269.04902 
L 237.690514 267.002185 
L 236.16 265.187724 
L 234.119314 262.349961 
L 232.078629 258.838044 
L 230.037943 254.597991 
L 228.507429 250.909545 
L 226.976914 246.678143 
L 225.4464 241.985938 
L 223.405714 234.959685 
L 220.854857 225.153927 
L 217.793829 212.298318 
L 211.671771 186.181249 
L 208.100571 171.889036 
L 205.549714 162.260795 
L 202.998857 153.183357 
L 200.958171 146.7517 
L 199.427657 142.572509 
L 197.897143 139.063757 
L 196.8768 137.120815 
L 195.856457 135.566347 
L 194.836114 134.334278 
L 193.815771 133.42006 
L 192.795429 132.822623 
L 191.775086 132.640268 
L 191.264914 132.585295 
L 189.7344 132.972779 
L 188.203886 134.118892 
L 187.183543 135.280787 
L 186.1632 136.614581 
L 185.142857 138.389445 
L 184.122514 140.489562 
L 182.081829 145.524547 
L 179.530971 153.223196 
L 177.490286 160.147618 
L 174.429257 171.62206 
L 171.368229 184.040844 
L 167.286857 200.459206 
L 163.715657 213.204433 
L 161.674971 219.872566 
L 159.124114 227.596507 
L 157.083429 233.055075 
L 155.552914 236.636643 
L 153.002057 241.269051 
L 151.471543 243.346202 
L 150.4512 244.397648 
L 149.941029 244.688786 
L 149.430857 245.165636 
L 147.900343 245.632896 
L 146.88 245.369344 
L 145.859657 244.700001 
L 144.839314 243.588169 
L 144.329143 242.599468 
L 143.818971 241.935816 
L 143.3088 239.490837 
L 142.798629 239.724648 
L 140.757943 234.143042 
L 139.227429 228.762229 
L 137.696914 222.744227 
L 137.186743 220.787127 
L 136.676571 218.274274 
L 136.1664 216.629065 
L 134.635886 210.174455 
L 134.125714 208.698574 
L 133.615543 207.563016 
L 133.105371 198.840751 
L 132.085029 194.425216 
L 130.554514 186.073153 
L 129.534171 178.637541 
L 128.513829 168.818089 
L 127.493486 154.656125 
L 126.983314 145.242794 
L 125.962971 119.928933 
L 124.942629 82.600796 
L 123.922286 26.277521 
L 123.54919 -1 
L 123.54919 -1 
" clip-path="url(#pf33d51424c)" style="fill: none; stroke: #801f80; stroke-width: 0.5; stroke-linecap: square"/>
   </g>
   <g id="line2d_26">
    <path d="M 363.702857 308.292618 
L 363.192686 308.145336 
L 351.458743 308.121506 
L 346.8672 307.99332 
L 345.336686 307.968716 
L 339.7248 307.735039 
L 336.663771 307.386722 
L 334.112914 307.089793 
L 329.0112 306.888531 
L 327.990857 306.733611 
L 326.460343 306.760471 
L 321.8688 307.230226 
L 320.848457 307.091554 
L 316.767086 307.252064 
L 315.236571 307.206717 
L 306.053486 306.554449 
L 301.972114 305.865352 
L 297.380571 304.780381 
L 296.360229 304.361738 
L 293.809371 303.560441 
L 289.728 301.720391 
L 287.177143 300.346611 
L 282.075429 297.11398 
L 263.199086 282.686248 
L 256.566857 277.789735 
L 241.261714 267.359067 
L 238.200686 264.756097 
L 235.139657 261.473613 
L 233.098971 258.694937 
L 231.058286 255.355921 
L 229.0176 251.305555 
L 226.976914 246.46899 
L 224.936229 240.840883 
L 222.895543 234.38353 
L 220.344686 225.363181 
L 217.283657 213.59548 
L 210.141257 186.000812 
L 206.059886 171.251602 
L 202.488686 159.339475 
L 200.958171 154.668459 
L 198.917486 149.333677 
L 197.386971 146.025838 
L 195.856457 143.482366 
L 194.836114 142.096651 
L 193.815771 141.0076 
L 192.795429 140.234021 
L 191.775086 139.797697 
L 190.754743 139.562722 
L 189.7344 139.68545 
L 188.714057 140.064778 
L 187.693714 140.762368 
L 186.1632 142.273005 
L 185.142857 143.741583 
L 184.122514 145.524126 
L 182.592 148.71217 
L 181.061486 152.441463 
L 178.510629 159.67373 
L 175.959771 167.885512 
L 172.898743 179.007551 
L 168.817371 194.63874 
L 165.246171 207.222172 
L 162.695314 215.477706 
L 158.103771 228.609464 
L 155.552914 234.472612 
L 153.002057 238.870183 
L 151.981714 240.27659 
L 150.4512 241.929333 
L 149.941029 242.144739 
L 149.430857 242.593898 
L 148.920686 242.87269 
L 147.900343 243.030942 
L 147.390171 242.981949 
L 146.369829 242.43291 
L 145.349486 241.49798 
L 144.839314 240.783353 
L 144.329143 239.719911 
L 143.818971 239.047819 
L 143.3088 236.511028 
L 142.798629 236.609184 
L 141.268114 232.26623 
L 140.757943 230.671705 
L 137.186743 216.352415 
L 136.676571 213.826086 
L 136.1664 211.984518 
L 134.635886 205.178992 
L 133.615543 202.364499 
L 133.105371 193.438473 
L 132.085029 188.783199 
L 131.064686 183.433745 
L 130.044343 176.955508 
L 129.024 168.575224 
L 128.003657 156.84972 
L 126.983314 139.828059 
L 125.962971 114.790597 
L 124.942629 77.992631 
L 123.922286 21.429187 
L 123.614754 -1 
L 123.614754 -1 
" clip-path="url(#pf33d51424c)" style="fill: none; stroke: #751f8a; stroke-width: 0.5; stroke-linecap: square"/>
   </g>
   <g id="line2d_27">
    <path d="M 363.702857 308.254585 
L 363.192686 308.066625 
L 353.499429 308.113734 
L 352.479086 308.098481 
L 349.418057 308.042206 
L 339.7248 307.723458 
L 336.663771 307.397084 
L 335.643429 307.228609 
L 333.602743 307.065391 
L 330.031543 306.974584 
L 329.0112 306.879301 
L 326.970514 306.776471 
L 325.44 306.871137 
L 321.8688 307.249487 
L 321.358629 307.137307 
L 319.317943 307.220077 
L 313.195886 307.166708 
L 309.624686 306.951059 
L 307.073829 306.638721 
L 304.522971 306.313576 
L 301.461943 305.75259 
L 297.890743 304.910361 
L 292.278857 302.770565 
L 288.197486 300.686864 
L 281.565257 296.204821 
L 278.504229 293.734696 
L 276.463543 292.077661 
L 266.770286 284.014925 
L 256.566857 275.908313 
L 250.954971 271.792422 
L 245.853257 268.372069 
L 244.832914 267.526984 
L 240.751543 264.714402 
L 237.180343 261.765343 
L 235.139657 259.675761 
L 233.609143 257.884362 
L 232.078629 255.782071 
L 230.548114 253.388162 
L 229.0176 250.673395 
L 227.487086 247.469648 
L 225.956571 243.924117 
L 223.915886 238.486058 
L 221.365029 230.676246 
L 218.814171 222.027175 
L 209.631086 189.354723 
L 205.549714 175.629189 
L 201.468343 162.914733 
L 199.427657 157.46871 
L 197.897143 153.972066 
L 196.366629 151.118739 
L 194.836114 148.800473 
L 193.815771 147.627779 
L 192.285257 146.325998 
L 190.754743 145.672729 
L 189.224229 145.608001 
L 188.203886 145.95197 
L 187.183543 146.561185 
L 186.1632 147.315995 
L 185.142857 148.521575 
L 183.612343 150.927264 
L 182.592 152.860835 
L 181.571657 155.003355 
L 179.530971 159.924521 
L 177.490286 165.512466 
L 175.4496 171.727191 
L 173.408914 178.624212 
L 165.246171 207.027526 
L 161.1648 219.059573 
L 159.634286 223.344236 
L 157.083429 229.715832 
L 155.552914 232.996448 
L 152.491886 237.952278 
L 150.961371 239.685829 
L 150.4512 240.175242 
L 149.941029 240.379506 
L 149.430857 240.82536 
L 148.920686 241.066507 
L 147.900343 241.185125 
L 147.390171 241.168523 
L 145.859657 240.054285 
L 144.839314 238.813367 
L 143.818971 236.918762 
L 143.3088 234.289267 
L 142.798629 234.432285 
L 142.288457 233.017101 
L 141.778286 231.236799 
L 141.268114 229.866351 
L 140.247771 226.098396 
L 139.227429 222.108717 
L 138.717257 219.669382 
L 138.207086 217.798596 
L 134.635886 201.450612 
L 133.615543 198.580623 
L 133.105371 189.355846 
L 132.085029 184.568697 
L 131.064686 179.169213 
L 130.044343 172.705938 
L 129.024 164.193607 
L 128.003657 152.562837 
L 126.983314 135.683242 
L 125.962971 110.537803 
L 124.942629 73.911696 
L 123.922286 17.454286 
L 123.668596 -1 
L 123.668596 -1 
" clip-path="url(#pf33d51424c)" style="fill: none; stroke: #6a1f95; stroke-width: 0.5; stroke-linecap: square"/>
   </g>
   <g id="line2d_28">
    <path d="M 363.702857 308.277037 
L 363.192686 308.091732 
L 347.887543 308.007247 
L 346.357029 307.973382 
L 343.296 307.876008 
L 337.684114 307.500785 
L 334.623086 307.080417 
L 325.44 306.831876 
L 319.828114 307.153614 
L 310.645029 306.875905 
L 308.604343 306.671669 
L 307.584 306.632605 
L 302.992457 305.890102 
L 297.890743 304.642939 
L 290.748343 301.506996 
L 288.197486 299.983486 
L 284.116114 297.127105 
L 277.483886 291.528666 
L 273.912686 288.292411 
L 267.790629 282.703255 
L 266.260114 281.348134 
L 263.709257 279.079701 
L 252.995657 269.882596 
L 240.751543 261.04088 
L 238.710857 259.590289 
L 235.139657 256.50581 
L 233.098971 254.382823 
L 230.548114 251.080787 
L 228.507429 247.824934 
L 226.466743 243.98551 
L 223.915886 238.153245 
L 221.365029 231.2773 
L 218.304 222.010615 
L 213.712457 207.277181 
L 209.120914 192.828137 
L 203.509029 175.770827 
L 201.468343 170.00686 
L 199.427657 164.808487 
L 197.897143 161.468819 
L 196.8768 159.450521 
L 195.346286 156.922752 
L 193.815771 154.943936 
L 192.285257 153.465273 
L 191.264914 152.789308 
L 190.754743 152.494509 
L 189.224229 152.134294 
L 188.203886 152.237816 
L 187.183543 152.628856 
L 186.1632 153.148465 
L 185.142857 154.086938 
L 183.612343 156.067036 
L 182.081829 158.61503 
L 181.061486 160.5304 
L 178.510629 166.157482 
L 176.469943 171.438493 
L 174.429257 177.319571 
L 171.8784 185.523171 
L 167.797029 199.035071 
L 164.225829 209.701917 
L 162.185143 215.276948 
L 159.124114 223.196759 
L 157.5936 226.824723 
L 155.552914 230.982203 
L 153.002057 234.905343 
L 151.471543 236.705955 
L 150.4512 237.579871 
L 149.941029 237.805567 
L 149.430857 238.271982 
L 148.410514 238.485108 
L 147.390171 238.382801 
L 146.369829 237.682753 
L 145.349486 236.602987 
L 144.839314 235.776973 
L 144.329143 234.633867 
L 143.818971 233.765059 
L 143.3088 231.085673 
L 142.798629 231.038677 
L 142.288457 229.521252 
L 139.7376 219.97941 
L 138.207086 213.133059 
L 134.635886 196.051249 
L 133.615543 192.840034 
L 133.105371 183.299982 
L 132.5952 181.077626 
L 130.554514 169.622773 
L 129.534171 162.297147 
L 128.513829 152.589136 
L 127.493486 138.544481 
L 126.983314 129.398615 
L 125.962971 104.702599 
L 125.4528 88.032045 
L 124.942629 67.575903 
L 123.922286 12.315112 
L 123.737254 -1 
L 123.737254 -1 
" clip-path="url(#pf33d51424c)" style="fill: none; stroke: #5f1fa0; stroke-width: 0.5; stroke-linecap: square"/>
   </g>
   <g id="line2d_29">
    <path d="M 363.702857 308.222162 
L 363.192686 308.095765 
L 362.172343 308.102113 
L 360.641829 308.063366 
L 358.601143 308.128739 
L 357.070629 308.125554 
L 355.029943 308.09984 
L 352.479086 308.081616 
L 346.357029 307.986749 
L 344.316343 307.907872 
L 340.234971 307.74501 
L 332.072229 306.984278 
L 330.541714 306.977298 
L 326.460343 306.751489 
L 323.909486 306.96066 
L 321.8688 307.184945 
L 320.848457 307.084971 
L 318.807771 307.177741 
L 312.175543 306.981864 
L 310.645029 306.83848 
L 308.094171 306.564681 
L 306.053486 306.318963 
L 302.992457 305.76355 
L 298.911086 304.73664 
L 297.380571 304.228473 
L 296.360229 303.707787 
L 295.339886 303.352776 
L 292.789029 302.197536 
L 290.238171 300.769821 
L 287.687314 299.095949 
L 285.136457 297.187054 
L 280.034743 292.773505 
L 274.422857 287.32528 
L 272.892343 285.78585 
L 269.831314 282.698156 
L 256.566857 269.836229 
L 250.954971 264.9176 
L 246.8736 261.784958 
L 242.282057 258.440407 
L 238.710857 255.979556 
L 237.180343 254.919872 
L 235.139657 253.286172 
L 233.609143 251.947147 
L 231.568457 249.858288 
L 229.527771 247.346598 
L 227.997257 245.201824 
L 225.956571 241.780464 
L 223.405714 236.68944 
L 221.365029 231.907823 
L 218.814171 225.346497 
L 206.570057 191.378 
L 199.937829 174.028891 
L 197.897143 169.606252 
L 196.366629 166.784621 
L 194.325943 163.713582 
L 192.795429 161.932228 
L 191.775086 160.963803 
L 190.244571 159.925787 
L 189.224229 159.506897 
L 188.203886 159.359465 
L 187.183543 159.457528 
L 186.673371 159.662829 
L 186.1632 159.718371 
L 185.142857 160.417969 
L 184.122514 161.355041 
L 183.102171 162.579787 
L 182.081829 163.992466 
L 180.551314 166.486134 
L 178.000457 171.453536 
L 175.959771 176.12795 
L 173.919086 181.469023 
L 170.858057 190.575143 
L 167.797029 199.791917 
L 165.756343 205.51711 
L 162.185143 214.625959 
L 159.124114 221.970619 
L 156.573257 227.357215 
L 155.552914 229.15402 
L 153.512229 232.18487 
L 151.981714 233.92501 
L 150.961371 234.871791 
L 150.4512 235.239103 
L 149.941029 235.408148 
L 149.430857 235.806688 
L 148.410514 235.975474 
L 147.900343 235.944835 
L 147.390171 235.782076 
L 146.369829 234.986324 
L 145.349486 233.758405 
L 144.839314 232.954663 
L 144.329143 231.712898 
L 143.818971 230.77274 
L 143.3088 227.91051 
L 142.798629 227.842061 
L 141.268114 222.531964 
L 139.7376 215.92546 
L 138.207086 208.556717 
L 134.635886 190.482895 
L 133.615543 187.436375 
L 133.105371 176.984221 
L 132.085029 171.853722 
L 131.064686 166.228689 
L 130.044343 159.645937 
L 129.024 151.247055 
L 128.513829 145.980914 
L 127.493486 132.016228 
L 126.473143 111.808874 
L 125.962971 98.273123 
L 124.942629 61.27336 
L 124.432457 36.78049 
L 123.818414 -1 
L 123.818414 -1 
" clip-path="url(#pf33d51424c)" style="fill: none; stroke: #541fab; stroke-width: 0.5; stroke-linecap: square"/>
   </g>
   <g id="line2d_30">
    <path d="M 363.702857 308.293302 
L 363.192686 308.123907 
L 356.050286 308.155265 
L 354.0096 308.132503 
L 348.907886 308.036802 
L 347.887543 308.036938 
L 340.234971 307.753789 
L 338.194286 307.584 
L 335.643429 307.199939 
L 333.602743 307.039571 
L 331.562057 307.005098 
L 326.460343 306.75806 
L 322.889143 307.023155 
L 321.8688 307.165603 
L 321.358629 307.064871 
L 318.807771 307.148271 
L 310.645029 306.80319 
L 308.094171 306.530689 
L 306.563657 306.362021 
L 303.502629 305.801449 
L 300.951771 305.104631 
L 299.421257 304.705804 
L 296.8704 303.745769 
L 296.360229 303.452392 
L 295.339886 303.082987 
L 291.768686 301.239061 
L 287.687314 298.525069 
L 284.116114 295.544687 
L 283.095771 294.695089 
L 280.034743 291.693188 
L 258.607543 268.808601 
L 250.4448 260.944926 
L 247.383771 258.356754 
L 245.853257 257.221099 
L 244.832914 256.239972 
L 243.3024 255.226921 
L 241.771886 254.168383 
L 239.7312 252.830844 
L 236.670171 250.791203 
L 234.119314 248.929385 
L 231.058286 246.286851 
L 228.507429 243.50878 
L 225.956571 239.995898 
L 224.426057 237.51833 
L 222.895543 234.746326 
L 220.854857 230.628902 
L 217.283657 222.526347 
L 199.937829 180.930842 
L 198.407314 177.778644 
L 196.366629 174.084327 
L 194.836114 171.713771 
L 192.795429 169.16135 
L 191.264914 167.601172 
L 190.244571 166.829747 
L 189.224229 166.245211 
L 188.203886 165.905642 
L 187.183543 165.804459 
L 185.653029 166.060001 
L 184.632686 166.644471 
L 183.612343 167.491675 
L 182.081829 169.170774 
L 181.061486 170.477432 
L 179.0208 173.590201 
L 177.490286 176.340811 
L 175.4496 180.519513 
L 173.408914 185.483017 
L 170.858057 192.425256 
L 166.776686 203.47654 
L 163.205486 212.062118 
L 159.124114 220.991408 
L 157.083429 225.048591 
L 155.552914 227.63029 
L 152.491886 231.427919 
L 150.961371 232.723448 
L 150.4512 233.011414 
L 149.941029 233.102948 
L 149.430857 233.467161 
L 148.920686 233.567485 
L 147.900343 233.498666 
L 147.390171 233.283511 
L 146.369829 232.385254 
L 145.859657 231.776569 
L 144.839314 230.121499 
L 143.818971 227.761795 
L 143.3088 224.785303 
L 142.798629 224.621586 
L 141.268114 218.943998 
L 140.247771 214.364125 
L 138.207086 204.083447 
L 135.656229 190.139322 
L 134.635886 184.936852 
L 133.615543 181.343532 
L 133.105371 170.67586 
L 132.085029 165.605331 
L 130.554514 156.346584 
L 129.534171 148.879909 
L 128.513829 139.041516 
L 127.493486 125.269931 
L 126.983314 116.238426 
L 125.962971 91.753447 
L 124.942629 55.324645 
L 123.922286 0.569545 
L 123.900393 -1 
L 123.900393 -1 
" clip-path="url(#pf33d51424c)" style="fill: none; stroke: #4a1fb5; stroke-width: 0.5; stroke-linecap: square"/>
   </g>
   <g id="line2d_31">
    <path d="M 363.702857 308.296272 
L 363.192686 308.130416 
L 361.662171 308.153624 
L 360.131657 308.125535 
L 357.070629 308.184382 
L 339.7248 307.737456 
L 332.072229 307.019595 
L 329.0112 306.877583 
L 327.480686 306.737322 
L 325.44 306.842099 
L 323.909486 306.970703 
L 322.378971 307.095183 
L 321.8688 307.198362 
L 321.358629 307.041026 
L 320.338286 307.108489 
L 314.216229 307.080652 
L 312.175543 306.911887 
L 310.134857 306.727703 
L 304.0128 305.797595 
L 299.421257 304.502851 
L 297.890743 303.981184 
L 293.2992 301.723542 
L 290.238171 299.767445 
L 287.177143 297.370198 
L 284.626286 295.098494 
L 281.055086 291.536209 
L 276.463543 286.317834 
L 272.892343 282.035059 
L 267.790629 275.902733 
L 258.097371 264.40246 
L 255.546514 261.516379 
L 252.995657 258.730506 
L 246.363429 252.497692 
L 245.343086 251.546249 
L 244.322743 250.722977 
L 241.771886 248.84808 
L 239.221029 247.187803 
L 236.16 245.279511 
L 231.568457 242.279868 
L 228.507429 239.752264 
L 225.4464 236.462097 
L 223.405714 233.795427 
L 221.365029 230.728102 
L 218.304 225.481153 
L 215.242971 219.837291 
L 204.529371 198.861764 
L 200.958171 191.514282 
L 198.407314 186.690955 
L 196.366629 183.321032 
L 194.325943 180.369072 
L 193.3056 179.029726 
L 191.264914 176.702195 
L 188.714057 174.773594 
L 187.693714 174.329683 
L 186.1632 174.133212 
L 185.653029 174.113993 
L 184.632686 174.430549 
L 183.612343 175.000704 
L 182.592 175.738053 
L 181.061486 177.153151 
L 179.0208 179.550024 
L 178.000457 180.952551 
L 175.959771 184.156339 
L 174.429257 187.104385 
L 172.388571 191.614659 
L 168.817371 200.227513 
L 166.266514 206.041093 
L 164.225829 210.320556 
L 160.654629 217.223677 
L 158.613943 221.03652 
L 156.573257 224.442918 
L 155.552914 225.914159 
L 153.002057 228.659556 
L 151.471543 229.831464 
L 150.4512 230.323911 
L 149.941029 230.350538 
L 149.430857 230.658258 
L 148.410514 230.623369 
L 147.900343 230.452389 
L 147.390171 230.137459 
L 146.369829 229.099389 
L 145.349486 227.53775 
L 144.839314 226.565988 
L 143.818971 223.990693 
L 143.3088 220.860893 
L 142.798629 220.531648 
L 141.268114 214.446307 
L 139.7376 206.59704 
L 137.696914 195.147837 
L 134.635886 177.541084 
L 134.125714 175.537484 
L 133.615543 174.009465 
L 133.105371 162.173434 
L 132.085029 156.772827 
L 130.554514 147.272694 
L 129.534171 139.570027 
L 128.513829 129.640443 
L 127.493486 115.835126 
L 126.983314 106.939634 
L 126.473143 95.95181 
L 125.4528 66.164328 
L 124.942629 46.373867 
L 124.03556 -1 
L 124.03556 -1 
" clip-path="url(#pf33d51424c)" style="fill: none; stroke: #3f1fc0; stroke-width: 0.5; stroke-linecap: square"/>
   </g>
   <g id="line2d_32">
    <path d="M 363.702857 308.243314 
L 363.192686 308.082197 
L 360.641829 308.078012 
L 351.968914 308.079222 
L 348.397714 308.009921 
L 346.357029 307.991976 
L 341.765486 307.85449 
L 331.051886 306.954437 
L 330.031543 306.9395 
L 327.480686 306.730217 
L 324.929829 306.847377 
L 323.909486 306.953178 
L 322.889143 307.027865 
L 321.358629 307.031467 
L 319.317943 307.107738 
L 318.2976 307.139363 
L 312.175543 306.92566 
L 310.134857 306.710426 
L 306.053486 306.143893 
L 303.502629 305.600622 
L 300.951771 304.895083 
L 298.400914 304.016627 
L 296.8704 303.23592 
L 291.768686 300.416024 
L 288.707657 298.11524 
L 284.626286 294.2914 
L 282.075429 291.596206 
L 277.994057 286.761185 
L 275.4432 283.464733 
L 273.402514 280.795936 
L 255.546514 257.432808 
L 251.975314 253.173341 
L 248.404114 249.311182 
L 243.3024 244.574419 
L 241.261714 243.065864 
L 236.670171 240.170167 
L 227.997257 235.141559 
L 225.4464 233.102766 
L 223.915886 231.70846 
L 221.8752 229.571095 
L 216.773486 223.166276 
L 211.671771 216.112768 
L 207.080229 209.19401 
L 205.039543 205.905819 
L 199.937829 197.350689 
L 197.897143 194.152915 
L 196.8768 192.636502 
L 193.815771 188.513752 
L 191.264914 185.56166 
L 189.7344 184.088615 
L 188.714057 183.327989 
L 187.693714 182.743413 
L 186.1632 182.252129 
L 185.142857 182.236968 
L 184.122514 182.505424 
L 183.102171 182.87168 
L 182.081829 183.462045 
L 180.041143 184.996316 
L 177.490286 187.570732 
L 175.959771 189.580002 
L 174.429257 191.986828 
L 172.898743 194.666009 
L 170.347886 199.931 
L 167.797029 205.216009 
L 165.246171 209.980734 
L 162.695314 214.179269 
L 159.124114 220.029887 
L 157.083429 223.079428 
L 155.552914 224.909463 
L 154.532571 225.878965 
L 153.512229 226.709169 
L 151.981714 227.779636 
L 150.4512 228.311876 
L 149.430857 228.438881 
L 148.920686 228.389267 
L 147.900343 227.951721 
L 147.390171 227.597355 
L 145.859657 225.668555 
L 144.839314 223.569106 
L 143.818971 220.678907 
L 143.3088 217.441553 
L 142.798629 216.980921 
L 141.778286 212.444496 
L 140.757943 207.720561 
L 138.717257 195.711216 
L 137.186743 186.384515 
L 136.1664 179.655666 
L 134.635886 170.764641 
L 133.615543 166.546576 
L 133.105371 153.734269 
L 132.5952 151.122354 
L 130.554514 137.970795 
L 129.534171 130.186243 
L 128.513829 120.027156 
L 127.493486 106.276706 
L 126.983314 97.391114 
L 126.473143 86.445178 
L 125.4528 56.99355 
L 124.942629 37.419044 
L 124.185777 -1 
L 124.185777 -1 
" clip-path="url(#pf33d51424c)" style="fill: none; stroke: #341fcb; stroke-width: 0.5; stroke-linecap: square"/>
   </g>
   <g id="line2d_33">
    <path d="M 363.702857 308.337617 
L 363.192686 308.127465 
L 361.152 308.163299 
L 355.029943 308.182045 
L 352.479086 308.166407 
L 348.397714 308.07668 
L 342.785829 307.896327 
L 340.234971 307.77792 
L 338.704457 307.651671 
L 333.602743 307.075689 
L 325.950171 306.769246 
L 322.378971 307.031461 
L 321.8688 307.165734 
L 320.848457 307.041433 
L 319.317943 307.085587 
L 317.787429 307.101929 
L 314.216229 306.989482 
L 312.175543 306.863589 
L 310.645029 306.700624 
L 306.563657 306.159678 
L 304.0128 305.608305 
L 301.972114 305.077076 
L 298.911086 303.954925 
L 297.380571 303.311176 
L 296.360229 302.711463 
L 293.2992 301.033848 
L 291.768686 299.999382 
L 287.687314 296.623562 
L 285.646629 294.638921 
L 279.524571 287.475186 
L 273.402514 279.126749 
L 269.831314 274.045008 
L 255.036343 253.05662 
L 251.975314 249.051199 
L 249.424457 246.058502 
L 246.8736 243.260558 
L 244.322743 240.671272 
L 242.282057 238.914312 
L 239.7312 237.00263 
L 234.629486 234.067682 
L 231.058286 232.360732 
L 228.507429 231.108743 
L 227.487086 230.572591 
L 225.4464 229.368755 
L 223.405714 228.03239 
L 218.814171 224.224286 
L 213.712457 219.285256 
L 209.631086 215.063781 
L 207.080229 212.056028 
L 204.0192 208.04717 
L 195.856457 197.097242 
L 193.815771 194.628312 
L 190.754743 191.186258 
L 188.714057 189.422352 
L 187.183543 188.550709 
L 186.1632 188.067634 
L 184.632686 187.982827 
L 183.612343 188.183092 
L 182.081829 188.728821 
L 180.551314 189.56348 
L 179.0208 190.572867 
L 177.490286 191.862461 
L 175.959771 193.40913 
L 174.429257 195.475898 
L 173.408914 196.99701 
L 170.858057 201.552284 
L 167.286857 207.995197 
L 164.225829 212.69339 
L 158.613943 220.395872 
L 156.573257 222.828777 
L 155.552914 223.838871 
L 153.512229 225.206906 
L 152.491886 225.728459 
L 150.961371 226.253085 
L 150.4512 226.312526 
L 149.941029 226.136107 
L 149.430857 226.186804 
L 148.920686 226.107847 
L 148.410514 225.895745 
L 147.390171 225.11487 
L 146.369829 223.696428 
L 145.349486 221.797144 
L 144.839314 220.602058 
L 143.818971 217.594062 
L 143.3088 214.053885 
L 142.798629 213.527058 
L 142.288457 211.338738 
L 139.7376 197.41896 
L 138.717257 190.746656 
L 137.186743 180.712241 
L 136.1664 173.698889 
L 134.635886 164.198412 
L 134.125714 161.970967 
L 133.615543 160.432969 
L 133.105371 146.560689 
L 132.085029 140.35983 
L 130.044343 126.098811 
L 129.024 117.290597 
L 128.003657 105.368226 
L 126.983314 88.790792 
L 126.473143 77.983366 
L 125.962971 64.80253 
L 124.942629 29.342429 
L 124.327184 -1 
L 124.327184 -1 
" clip-path="url(#pf33d51424c)" style="fill: none; stroke: #291fd6; stroke-width: 0.5; stroke-linecap: square"/>
   </g>
   <g id="line2d_34">
    <path d="M 363.702857 308.331275 
L 363.192686 308.177084 
L 358.601143 308.186961 
L 354.0096 308.178132 
L 350.4384 308.113389 
L 348.907886 308.076547 
L 340.234971 307.754466 
L 337.173943 307.423818 
L 335.133257 307.145081 
L 332.072229 307.005037 
L 329.521371 306.899529 
L 327.480686 306.699653 
L 323.399314 306.925634 
L 321.358629 306.994537 
L 318.807771 307.066398 
L 311.665371 306.715865 
L 309.624686 306.490266 
L 307.073829 306.162379 
L 302.992457 305.237455 
L 300.4416 304.449814 
L 296.8704 302.803887 
L 295.339886 301.981603 
L 293.809371 301.097926 
L 291.768686 299.692833 
L 289.217829 297.628575 
L 287.687314 296.259029 
L 281.565257 289.463937 
L 279.0144 286.083586 
L 273.912686 278.841392 
L 268.3008 270.41467 
L 252.995657 247.67489 
L 249.424457 243.042271 
L 246.363429 239.546546 
L 242.792229 235.903719 
L 240.241371 233.804309 
L 238.710857 232.769564 
L 235.649829 230.940831 
L 233.609143 229.94985 
L 224.426057 226.021958 
L 217.283657 221.730738 
L 209.631086 216.162661 
L 207.080229 213.803109 
L 204.0192 210.587293 
L 197.386971 202.889061 
L 194.836114 200.079306 
L 189.7344 194.645714 
L 188.714057 193.812945 
L 187.693714 193.114867 
L 186.1632 192.326101 
L 184.632686 192.198019 
L 183.102171 192.428936 
L 182.081829 192.69081 
L 180.041143 193.620664 
L 178.000457 194.824513 
L 176.469943 196.102806 
L 175.4496 197.055422 
L 173.919086 198.969285 
L 172.898743 200.406787 
L 166.266514 211.017352 
L 163.715657 214.325547 
L 157.083429 222.053361 
L 155.552914 223.336617 
L 153.002057 224.64311 
L 151.471543 225.033383 
L 150.4512 225.081707 
L 149.941029 224.84849 
L 149.430857 224.888917 
L 148.410514 224.374548 
L 147.900343 224.017274 
L 147.390171 223.498451 
L 146.369829 222.01074 
L 145.349486 219.988735 
L 144.839314 218.635358 
L 143.818971 215.431577 
L 143.3088 211.831886 
L 142.798629 211.25805 
L 141.778286 206.148072 
L 140.757943 200.8726 
L 139.227429 191.088612 
L 136.1664 169.740802 
L 134.635886 159.584201 
L 133.615543 155.387549 
L 133.105371 141.300134 
L 132.085029 134.647896 
L 131.064686 127.645924 
L 129.534171 115.635773 
L 128.513829 105.295574 
L 127.493486 91.206111 
L 126.473143 71.452212 
L 125.4528 42.070824 
L 124.942629 22.556354 
L 124.446646 -1 
L 124.446646 -1 
" clip-path="url(#pf33d51424c)" style="fill: none; stroke: #1f1fe0; stroke-width: 0.5; stroke-linecap: square"/>
   </g>
   <g id="patch_3">
    <path d="M 57.6 307.584 
L 57.6 41.472 
" style="fill: none; stroke: #000000; stroke-width: 0.8; stroke-linejoin: miter; stroke-linecap: square"/>
   </g>
   <g id="patch_4">
    <path d="M 414.72 307.584 
L 414.72 41.472 
" style="fill: none; stroke: #000000; stroke-width: 0.8; stroke-linejoin: miter; stroke-linecap: square"/>
   </g>
   <g id="patch_5">
    <path d="M 57.6 307.584 
L 414.72 307.584 
" style="fill: none; stroke: #000000; stroke-width: 0.8; stroke-linejoin: miter; stroke-linecap: square"/>
   </g>
   <g id="patch_6">
    <path d="M 57.6 41.472 
L 414.72 41.472 
" style="fill: none; stroke: #000000; stroke-width: 0.8; stroke-linejoin: miter; stroke-linecap: square"/>
   </g>
   <g id="text_18">
    <!-- IDA Titration of Alizarin:PBA complex &amp; Catechol in Acetone  -->
    <g transform="translate(55.197188 22.034625) scale(0.12 -0.12)">
     <defs>
      <path id="DejaVuSans-49" d="M 628 4666 
L 1259 4666 
L 1259 0 
L 628 0 
L 628 4666 
z
" transform="scale(0.015625)"/>
      <path id="DejaVuSans-44" d="M 1259 4147 
L 1259 519 
L 2022 519 
Q 2988 519 3436 956 
Q 3884 1394 3884 2338 
Q 3884 3275 3436 3711 
Q 2988 4147 2022 4147 
L 1259 4147 
z
M 628 4666 
L 1925 4666 
Q 3281 4666 3915 4102 
Q 4550 3538 4550 2338 
Q 4550 1131 3912 565 
Q 3275 0 1925 0 
L 628 0 
L 628 4666 
z
" transform="scale(0.015625)"/>
      <path id="DejaVuSans-54" d="M -19 4666 
L 3928 4666 
L 3928 4134 
L 2272 4134 
L 2272 0 
L 1638 0 
L 1638 4134 
L -19 4134 
L -19 4666 
z
" transform="scale(0.015625)"/>
      <path id="DejaVuSans-69" d="M 603 3500 
L 1178 3500 
L 1178 0 
L 603 0 
L 603 3500 
z
M 603 4863 
L 1178 4863 
L 1178 4134 
L 603 4134 
L 603 4863 
z
" transform="scale(0.015625)"/>
      <path id="DejaVuSans-66" d="M 2375 4863 
L 2375 4384 
L 1825 4384 
Q 1516 4384 1395 4259 
Q 1275 4134 1275 3809 
L 1275 3500 
L 2222 3500 
L 2222 3053 
L 1275 3053 
L 1275 0 
L 697 0 
L 697 3053 
L 147 3053 
L 147 3500 
L 697 3500 
L 697 3744 
Q 697 4328 969 4595 
Q 1241 4863 1831 4863 
L 2375 4863 
z
" transform="scale(0.015625)"/>
      <path id="DejaVuSans-7a" d="M 353 3500 
L 3084 3500 
L 3084 2975 
L 922 459 
L 3084 459 
L 3084 0 
L 275 0 
L 275 525 
L 2438 3041 
L 353 3041 
L 353 3500 
z
" transform="scale(0.015625)"/>
      <path id="DejaVuSans-3a" d="M 750 794 
L 1409 794 
L 1409 0 
L 750 0 
L 750 794 
z
M 750 3309 
L 1409 3309 
L 1409 2516 
L 750 2516 
L 750 3309 
z
" transform="scale(0.015625)"/>
      <path id="DejaVuSans-50" d="M 1259 4147 
L 1259 2394 
L 2053 2394 
Q 2494 2394 2734 2622 
Q 2975 2850 2975 3272 
Q 2975 3691 2734 3919 
Q 2494 4147 2053 4147 
L 1259 4147 
z
M 628 4666 
L 2053 4666 
Q 2838 4666 3239 4311 
Q 3641 3956 3641 3272 
Q 3641 2581 3239 2228 
Q 2838 1875 2053 1875 
L 1259 1875 
L 1259 0 
L 628 0 
L 628 4666 
z
" transform="scale(0.015625)"/>
      <path id="DejaVuSans-42" d="M 1259 2228 
L 1259 519 
L 2272 519 
Q 2781 519 3026 730 
Q 3272 941 3272 1375 
Q 3272 1813 3026 2020 
Q 2781 2228 2272 2228 
L 1259 2228 
z
M 1259 4147 
L 1259 2741 
L 2194 2741 
Q 2656 2741 2882 2914 
Q 3109 3088 3109 3444 
Q 3109 3797 2882 3972 
Q 2656 4147 2194 4147 
L 1259 4147 
z
M 628 4666 
L 2241 4666 
Q 2963 4666 3353 4366 
Q 3744 4066 3744 3513 
Q 3744 3084 3544 2831 
Q 3344 2578 2956 2516 
Q 3422 2416 3680 2098 
Q 3938 1781 3938 1306 
Q 3938 681 3513 340 
Q 3088 0 2303 0 
L 628 0 
L 628 4666 
z
" transform="scale(0.015625)"/>
      <path id="DejaVuSans-70" d="M 1159 525 
L 1159 -1331 
L 581 -1331 
L 581 3500 
L 1159 3500 
L 1159 2969 
Q 1341 3281 1617 3432 
Q 1894 3584 2278 3584 
Q 2916 3584 3314 3078 
Q 3713 2572 3713 1747 
Q 3713 922 3314 415 
Q 2916 -91 2278 -91 
Q 1894 -91 1617 61 
Q 1341 213 1159 525 
z
M 3116 1747 
Q 3116 2381 2855 2742 
Q 2594 3103 2138 3103 
Q 1681 3103 1420 2742 
Q 1159 2381 1159 1747 
Q 1159 1113 1420 752 
Q 1681 391 2138 391 
Q 2594 391 2855 752 
Q 3116 1113 3116 1747 
z
" transform="scale(0.015625)"/>
      <path id="DejaVuSans-78" d="M 3513 3500 
L 2247 1797 
L 3578 0 
L 2900 0 
L 1881 1375 
L 863 0 
L 184 0 
L 1544 1831 
L 300 3500 
L 978 3500 
L 1906 2253 
L 2834 3500 
L 3513 3500 
z
" transform="scale(0.015625)"/>
      <path id="DejaVuSans-26" d="M 1556 2509 
Q 1272 2256 1139 2004 
Q 1006 1753 1006 1478 
Q 1006 1022 1337 719 
Q 1669 416 2169 416 
Q 2466 416 2725 514 
Q 2984 613 3213 813 
L 1556 2509 
z
M 1997 2859 
L 3584 1234 
Q 3769 1513 3872 1830 
Q 3975 2147 3994 2503 
L 4575 2503 
Q 4538 2091 4375 1687 
Q 4213 1284 3922 891 
L 4794 0 
L 4006 0 
L 3559 459 
Q 3234 181 2878 45 
Q 2522 -91 2113 -91 
Q 1359 -91 881 339 
Q 403 769 403 1441 
Q 403 1841 612 2192 
Q 822 2544 1241 2853 
Q 1091 3050 1012 3245 
Q 934 3441 934 3628 
Q 934 4134 1281 4442 
Q 1628 4750 2203 4750 
Q 2463 4750 2720 4694 
Q 2978 4638 3244 4525 
L 3244 3956 
Q 2972 4103 2725 4179 
Q 2478 4256 2266 4256 
Q 1938 4256 1733 4082 
Q 1528 3909 1528 3634 
Q 1528 3475 1620 3314 
Q 1713 3153 1997 2859 
z
" transform="scale(0.015625)"/>
      <path id="DejaVuSans-43" d="M 4122 4306 
L 4122 3641 
Q 3803 3938 3442 4084 
Q 3081 4231 2675 4231 
Q 1875 4231 1450 3742 
Q 1025 3253 1025 2328 
Q 1025 1406 1450 917 
Q 1875 428 2675 428 
Q 3081 428 3442 575 
Q 3803 722 4122 1019 
L 4122 359 
Q 3791 134 3420 21 
Q 3050 -91 2638 -91 
Q 1578 -91 968 557 
Q 359 1206 359 2328 
Q 359 3453 968 4101 
Q 1578 4750 2638 4750 
Q 3056 4750 3426 4639 
Q 3797 4528 4122 4306 
z
" transform="scale(0.015625)"/>
     </defs>
     <use xlink:href="#DejaVuSans-49"/>
     <use xlink:href="#DejaVuSans-44" x="29.492188"/>
     <use xlink:href="#DejaVuSans-41" x="104.744141"/>
     <use xlink:href="#DejaVuSans-20" x="173.152344"/>
     <use xlink:href="#DejaVuSans-54" x="204.939453"/>
     <use xlink:href="#DejaVuSans-69" x="262.898438"/>
     <use xlink:href="#DejaVuSans-74" x="290.681641"/>
     <use xlink:href="#DejaVuSans-72" x="329.890625"/>
     <use xlink:href="#DejaVuSans-61" x="371.003906"/>
     <use xlink:href="#DejaVuSans-74" x="432.283203"/>
     <use xlink:href="#DejaVuSans-69" x="471.492188"/>
     <use xlink:href="#DejaVuSans-6f" x="499.275391"/>
     <use xlink:href="#DejaVuSans-6e" x="560.457031"/>
     <use xlink:href="#DejaVuSans-20" x="623.835938"/>
     <use xlink:href="#DejaVuSans-6f" x="655.623047"/>
     <use xlink:href="#DejaVuSans-66" x="716.804688"/>
     <use xlink:href="#DejaVuSans-20" x="752.009766"/>
     <use xlink:href="#DejaVuSans-41" x="783.796875"/>
     <use xlink:href="#DejaVuSans-6c" x="852.205078"/>
     <use xlink:href="#DejaVuSans-69" x="879.988281"/>
     <use xlink:href="#DejaVuSans-7a" x="907.771484"/>
     <use xlink:href="#DejaVuSans-61" x="960.261719"/>
     <use xlink:href="#DejaVuSans-72" x="1021.541016"/>
     <use xlink:href="#DejaVuSans-69" x="1062.654297"/>
     <use xlink:href="#DejaVuSans-6e" x="1090.4375"/>
     <use xlink:href="#DejaVuSans-3a" x="1153.816406"/>
     <use xlink:href="#DejaVuSans-50" x="1187.507812"/>
     <use xlink:href="#DejaVuSans-42" x="1247.810547"/>
     <use xlink:href="#DejaVuSans-41" x="1316.414062"/>
     <use xlink:href="#DejaVuSans-20" x="1384.822266"/>
     <use xlink:href="#DejaVuSans-63" x="1416.609375"/>
     <use xlink:href="#DejaVuSans-6f" x="1471.589844"/>
     <use xlink:href="#DejaVuSans-6d" x="1532.771484"/>
     <use xlink:href="#DejaVuSans-70" x="1630.183594"/>
     <use xlink:href="#DejaVuSans-6c" x="1693.660156"/>
     <use xlink:href="#DejaVuSans-65" x="1721.443359"/>
     <use xlink:href="#DejaVuSans-78" x="1781.216797"/>
     <use xlink:href="#DejaVuSans-20" x="1840.396484"/>
     <use xlink:href="#DejaVuSans-26" x="1872.183594"/>
     <use xlink:href="#DejaVuSans-20" x="1950.162109"/>
     <use xlink:href="#DejaVuSans-43" x="1981.949219"/>
     <use xlink:href="#DejaVuSans-61" x="2051.773438"/>
     <use xlink:href="#DejaVuSans-74" x="2113.052734"/>
     <use xlink:href="#DejaVuSans-65" x="2152.261719"/>
     <use xlink:href="#DejaVuSans-63" x="2213.785156"/>
     <use xlink:href="#DejaVuSans-68" x="2268.765625"/>
     <use xlink:href="#DejaVuSans-6f" x="2332.144531"/>
     <use xlink:href="#DejaVuSans-6c" x="2393.326172"/>
     <use xlink:href="#DejaVuSans-20" x="2421.109375"/>
     <use xlink:href="#DejaVuSans-69" x="2452.896484"/>
     <use xlink:href="#DejaVuSans-6e" x="2480.679688"/>
     <use xlink:href="#DejaVuSans-20" x="2544.058594"/>
     <use xlink:href="#DejaVuSans-41" x="2575.845703"/>
     <use xlink:href="#DejaVuSans-63" x="2642.503906"/>
     <use xlink:href="#DejaVuSans-65" x="2697.484375"/>
     <use xlink:href="#DejaVuSans-74" x="2759.007812"/>
     <use xlink:href="#DejaVuSans-6f" x="2798.216797"/>
     <use xlink:href="#DejaVuSans-6e" x="2859.398438"/>
     <use xlink:href="#DejaVuSans-65" x="2922.777344"/>
     <use xlink:href="#DejaVuSans-20" x="2984.300781"/>
    </g>
    <!--  -->
    <g transform="translate(236.16 35.472) scale(0.12 -0.12)"/>
   </g>
  </g>
 </g>
 <defs>
  <clipPath id="pf33d51424c">
   <rect x="57.6" y="41.472" width="357.12" height="266.112"/>
  </clipPath>
 </defs>
</svg>
