<?xml version="1.0" encoding="utf-8" standalone="no"?>
<!DOCTYPE svg PUBLIC "-//W3C//DTD SVG 1.1//EN"
  "http://www.w3.org/Graphics/SVG/1.1/DTD/svg11.dtd">
<svg xmlns:xlink="http://www.w3.org/1999/xlink" width="460.8pt" height="345.6pt" viewBox="0 0 460.8 345.6" xmlns="http://www.w3.org/2000/svg" version="1.1">
 <metadata>
  <rdf:RDF xmlns:dc="http://purl.org/dc/elements/1.1/" xmlns:cc="http://creativecommons.org/ns#" xmlns:rdf="http://www.w3.org/1999/02/22-rdf-syntax-ns#">
   <cc:Work>
    <dc:type rdf:resource="http://purl.org/dc/dcmitype/StillImage"/>
    <dc:date>2024-11-03T21:07:13.363611</dc:date>
    <dc:format>image/svg+xml</dc:format>
    <dc:creator>
     <cc:Agent>
      <dc:title>Matplotlib v3.9.2, https://matplotlib.org/</dc:title>
     </cc:Agent>
    </dc:creator>
   </cc:Work>
  </rdf:RDF>
 </metadata>
 <defs>
  <style type="text/css">*{stroke-linejoin: round; stroke-linecap: butt}</style>
 </defs>
 <g id="figure_1">
  <g id="patch_1">
   <path d="M 0 345.6 
L 460.8 345.6 
L 460.8 0 
L 0 0 
z
" style="fill: #ffffff"/>
  </g>
  <g id="axes_1">
   <g id="patch_2">
    <path d="M 57.6 307.584 
L 414.72 307.584 
L 414.72 41.472 
L 57.6 41.472 
z
" style="fill: #ffffff"/>
   </g>
   <g id="matplotlib.axis_1">
    <g id="xtick_1">
     <g id="line2d_1">
      <defs>
       <path id="mb0eb563f6b" d="M 0 0 
L 0 3.5 
" style="stroke: #000000; stroke-width: 0.8"/>
      </defs>
      <g>
       <use xlink:href="#mb0eb563f6b" x="57.6" y="307.584" style="stroke: #000000; stroke-width: 0.8"/>
      </g>
     </g>
     <g id="text_1">
      <!-- 200 -->
      <g transform="translate(48.05625 322.182437) scale(0.1 -0.1)">
       <defs>
        <path id="DejaVuSans-32" d="M 1228 531 
L 3431 531 
L 3431 0 
L 469 0 
L 469 531 
Q 828 903 1448 1529 
Q 2069 2156 2228 2338 
Q 2531 2678 2651 2914 
Q 2772 3150 2772 3378 
Q 2772 3750 2511 3984 
Q 2250 4219 1831 4219 
Q 1534 4219 1204 4116 
Q 875 4013 500 3803 
L 500 4441 
Q 881 4594 1212 4672 
Q 1544 4750 1819 4750 
Q 2544 4750 2975 4387 
Q 3406 4025 3406 3419 
Q 3406 3131 3298 2873 
Q 3191 2616 2906 2266 
Q 2828 2175 2409 1742 
Q 1991 1309 1228 531 
z
" transform="scale(0.015625)"/>
        <path id="DejaVuSans-30" d="M 2034 4250 
Q 1547 4250 1301 3770 
Q 1056 3291 1056 2328 
Q 1056 1369 1301 889 
Q 1547 409 2034 409 
Q 2525 409 2770 889 
Q 3016 1369 3016 2328 
Q 3016 3291 2770 3770 
Q 2525 4250 2034 4250 
z
M 2034 4750 
Q 2819 4750 3233 4129 
Q 3647 3509 3647 2328 
Q 3647 1150 3233 529 
Q 2819 -91 2034 -91 
Q 1250 -91 836 529 
Q 422 1150 422 2328 
Q 422 3509 836 4129 
Q 1250 4750 2034 4750 
z
" transform="scale(0.015625)"/>
       </defs>
       <use xlink:href="#DejaVuSans-32"/>
       <use xlink:href="#DejaVuSans-30" x="63.623047"/>
       <use xlink:href="#DejaVuSans-30" x="127.246094"/>
      </g>
     </g>
    </g>
    <g id="xtick_2">
     <g id="line2d_2">
      <g>
       <use xlink:href="#mb0eb563f6b" x="108.617143" y="307.584" style="stroke: #000000; stroke-width: 0.8"/>
      </g>
     </g>
     <g id="text_2">
      <!-- 300 -->
      <g transform="translate(99.073393 322.182437) scale(0.1 -0.1)">
       <defs>
        <path id="DejaVuSans-33" d="M 2597 2516 
Q 3050 2419 3304 2112 
Q 3559 1806 3559 1356 
Q 3559 666 3084 287 
Q 2609 -91 1734 -91 
Q 1441 -91 1130 -33 
Q 819 25 488 141 
L 488 750 
Q 750 597 1062 519 
Q 1375 441 1716 441 
Q 2309 441 2620 675 
Q 2931 909 2931 1356 
Q 2931 1769 2642 2001 
Q 2353 2234 1838 2234 
L 1294 2234 
L 1294 2753 
L 1863 2753 
Q 2328 2753 2575 2939 
Q 2822 3125 2822 3475 
Q 2822 3834 2567 4026 
Q 2313 4219 1838 4219 
Q 1578 4219 1281 4162 
Q 984 4106 628 3988 
L 628 4550 
Q 988 4650 1302 4700 
Q 1616 4750 1894 4750 
Q 2613 4750 3031 4423 
Q 3450 4097 3450 3541 
Q 3450 3153 3228 2886 
Q 3006 2619 2597 2516 
z
" transform="scale(0.015625)"/>
       </defs>
       <use xlink:href="#DejaVuSans-33"/>
       <use xlink:href="#DejaVuSans-30" x="63.623047"/>
       <use xlink:href="#DejaVuSans-30" x="127.246094"/>
      </g>
     </g>
    </g>
    <g id="xtick_3">
     <g id="line2d_3">
      <g>
       <use xlink:href="#mb0eb563f6b" x="159.634286" y="307.584" style="stroke: #000000; stroke-width: 0.8"/>
      </g>
     </g>
     <g id="text_3">
      <!-- 400 -->
      <g transform="translate(150.090536 322.182437) scale(0.1 -0.1)">
       <defs>
        <path id="DejaVuSans-34" d="M 2419 4116 
L 825 1625 
L 2419 1625 
L 2419 4116 
z
M 2253 4666 
L 3047 4666 
L 3047 1625 
L 3713 1625 
L 3713 1100 
L 3047 1100 
L 3047 0 
L 2419 0 
L 2419 1100 
L 313 1100 
L 313 1709 
L 2253 4666 
z
" transform="scale(0.015625)"/>
       </defs>
       <use xlink:href="#DejaVuSans-34"/>
       <use xlink:href="#DejaVuSans-30" x="63.623047"/>
       <use xlink:href="#DejaVuSans-30" x="127.246094"/>
      </g>
     </g>
    </g>
    <g id="xtick_4">
     <g id="line2d_4">
      <g>
       <use xlink:href="#mb0eb563f6b" x="210.651429" y="307.584" style="stroke: #000000; stroke-width: 0.8"/>
      </g>
     </g>
     <g id="text_4">
      <!-- 500 -->
      <g transform="translate(201.107679 322.182437) scale(0.1 -0.1)">
       <defs>
        <path id="DejaVuSans-35" d="M 691 4666 
L 3169 4666 
L 3169 4134 
L 1269 4134 
L 1269 2991 
Q 1406 3038 1543 3061 
Q 1681 3084 1819 3084 
Q 2600 3084 3056 2656 
Q 3513 2228 3513 1497 
Q 3513 744 3044 326 
Q 2575 -91 1722 -91 
Q 1428 -91 1123 -41 
Q 819 9 494 109 
L 494 744 
Q 775 591 1075 516 
Q 1375 441 1709 441 
Q 2250 441 2565 725 
Q 2881 1009 2881 1497 
Q 2881 1984 2565 2268 
Q 2250 2553 1709 2553 
Q 1456 2553 1204 2497 
Q 953 2441 691 2322 
L 691 4666 
z
" transform="scale(0.015625)"/>
       </defs>
       <use xlink:href="#DejaVuSans-35"/>
       <use xlink:href="#DejaVuSans-30" x="63.623047"/>
       <use xlink:href="#DejaVuSans-30" x="127.246094"/>
      </g>
     </g>
    </g>
    <g id="xtick_5">
     <g id="line2d_5">
      <g>
       <use xlink:href="#mb0eb563f6b" x="261.668571" y="307.584" style="stroke: #000000; stroke-width: 0.8"/>
      </g>
     </g>
     <g id="text_5">
      <!-- 600 -->
      <g transform="translate(252.124821 322.182437) scale(0.1 -0.1)">
       <defs>
        <path id="DejaVuSans-36" d="M 2113 2584 
Q 1688 2584 1439 2293 
Q 1191 2003 1191 1497 
Q 1191 994 1439 701 
Q 1688 409 2113 409 
Q 2538 409 2786 701 
Q 3034 994 3034 1497 
Q 3034 2003 2786 2293 
Q 2538 2584 2113 2584 
z
M 3366 4563 
L 3366 3988 
Q 3128 4100 2886 4159 
Q 2644 4219 2406 4219 
Q 1781 4219 1451 3797 
Q 1122 3375 1075 2522 
Q 1259 2794 1537 2939 
Q 1816 3084 2150 3084 
Q 2853 3084 3261 2657 
Q 3669 2231 3669 1497 
Q 3669 778 3244 343 
Q 2819 -91 2113 -91 
Q 1303 -91 875 529 
Q 447 1150 447 2328 
Q 447 3434 972 4092 
Q 1497 4750 2381 4750 
Q 2619 4750 2861 4703 
Q 3103 4656 3366 4563 
z
" transform="scale(0.015625)"/>
       </defs>
       <use xlink:href="#DejaVuSans-36"/>
       <use xlink:href="#DejaVuSans-30" x="63.623047"/>
       <use xlink:href="#DejaVuSans-30" x="127.246094"/>
      </g>
     </g>
    </g>
    <g id="xtick_6">
     <g id="line2d_6">
      <g>
       <use xlink:href="#mb0eb563f6b" x="312.685714" y="307.584" style="stroke: #000000; stroke-width: 0.8"/>
      </g>
     </g>
     <g id="text_6">
      <!-- 700 -->
      <g transform="translate(303.141964 322.182437) scale(0.1 -0.1)">
       <defs>
        <path id="DejaVuSans-37" d="M 525 4666 
L 3525 4666 
L 3525 4397 
L 1831 0 
L 1172 0 
L 2766 4134 
L 525 4134 
L 525 4666 
z
" transform="scale(0.015625)"/>
       </defs>
       <use xlink:href="#DejaVuSans-37"/>
       <use xlink:href="#DejaVuSans-30" x="63.623047"/>
       <use xlink:href="#DejaVuSans-30" x="127.246094"/>
      </g>
     </g>
    </g>
    <g id="xtick_7">
     <g id="line2d_7">
      <g>
       <use xlink:href="#mb0eb563f6b" x="363.702857" y="307.584" style="stroke: #000000; stroke-width: 0.8"/>
      </g>
     </g>
     <g id="text_7">
      <!-- 800 -->
      <g transform="translate(354.159107 322.182437) scale(0.1 -0.1)">
       <defs>
        <path id="DejaVuSans-38" d="M 2034 2216 
Q 1584 2216 1326 1975 
Q 1069 1734 1069 1313 
Q 1069 891 1326 650 
Q 1584 409 2034 409 
Q 2484 409 2743 651 
Q 3003 894 3003 1313 
Q 3003 1734 2745 1975 
Q 2488 2216 2034 2216 
z
M 1403 2484 
Q 997 2584 770 2862 
Q 544 3141 544 3541 
Q 544 4100 942 4425 
Q 1341 4750 2034 4750 
Q 2731 4750 3128 4425 
Q 3525 4100 3525 3541 
Q 3525 3141 3298 2862 
Q 3072 2584 2669 2484 
Q 3125 2378 3379 2068 
Q 3634 1759 3634 1313 
Q 3634 634 3220 271 
Q 2806 -91 2034 -91 
Q 1263 -91 848 271 
Q 434 634 434 1313 
Q 434 1759 690 2068 
Q 947 2378 1403 2484 
z
M 1172 3481 
Q 1172 3119 1398 2916 
Q 1625 2713 2034 2713 
Q 2441 2713 2670 2916 
Q 2900 3119 2900 3481 
Q 2900 3844 2670 4047 
Q 2441 4250 2034 4250 
Q 1625 4250 1398 4047 
Q 1172 3844 1172 3481 
z
" transform="scale(0.015625)"/>
       </defs>
       <use xlink:href="#DejaVuSans-38"/>
       <use xlink:href="#DejaVuSans-30" x="63.623047"/>
       <use xlink:href="#DejaVuSans-30" x="127.246094"/>
      </g>
     </g>
    </g>
    <g id="xtick_8">
     <g id="line2d_8">
      <g>
       <use xlink:href="#mb0eb563f6b" x="414.72" y="307.584" style="stroke: #000000; stroke-width: 0.8"/>
      </g>
     </g>
     <g id="text_8">
      <!-- 900 -->
      <g transform="translate(405.17625 322.182437) scale(0.1 -0.1)">
       <defs>
        <path id="DejaVuSans-39" d="M 703 97 
L 703 672 
Q 941 559 1184 500 
Q 1428 441 1663 441 
Q 2288 441 2617 861 
Q 2947 1281 2994 2138 
Q 2813 1869 2534 1725 
Q 2256 1581 1919 1581 
Q 1219 1581 811 2004 
Q 403 2428 403 3163 
Q 403 3881 828 4315 
Q 1253 4750 1959 4750 
Q 2769 4750 3195 4129 
Q 3622 3509 3622 2328 
Q 3622 1225 3098 567 
Q 2575 -91 1691 -91 
Q 1453 -91 1209 -44 
Q 966 3 703 97 
z
M 1959 2075 
Q 2384 2075 2632 2365 
Q 2881 2656 2881 3163 
Q 2881 3666 2632 3958 
Q 2384 4250 1959 4250 
Q 1534 4250 1286 3958 
Q 1038 3666 1038 3163 
Q 1038 2656 1286 2365 
Q 1534 2075 1959 2075 
z
" transform="scale(0.015625)"/>
       </defs>
       <use xlink:href="#DejaVuSans-39"/>
       <use xlink:href="#DejaVuSans-30" x="63.623047"/>
       <use xlink:href="#DejaVuSans-30" x="127.246094"/>
      </g>
     </g>
    </g>
    <g id="text_9">
     <!-- Wavelength (nm) -->
     <g transform="translate(192.967812 335.860562) scale(0.1 -0.1)">
      <defs>
       <path id="DejaVuSans-57" d="M 213 4666 
L 850 4666 
L 1831 722 
L 2809 4666 
L 3519 4666 
L 4500 722 
L 5478 4666 
L 6119 4666 
L 4947 0 
L 4153 0 
L 3169 4050 
L 2175 0 
L 1381 0 
L 213 4666 
z
" transform="scale(0.015625)"/>
       <path id="DejaVuSans-61" d="M 2194 1759 
Q 1497 1759 1228 1600 
Q 959 1441 959 1056 
Q 959 750 1161 570 
Q 1363 391 1709 391 
Q 2188 391 2477 730 
Q 2766 1069 2766 1631 
L 2766 1759 
L 2194 1759 
z
M 3341 1997 
L 3341 0 
L 2766 0 
L 2766 531 
Q 2569 213 2275 61 
Q 1981 -91 1556 -91 
Q 1019 -91 701 211 
Q 384 513 384 1019 
Q 384 1609 779 1909 
Q 1175 2209 1959 2209 
L 2766 2209 
L 2766 2266 
Q 2766 2663 2505 2880 
Q 2244 3097 1772 3097 
Q 1472 3097 1187 3025 
Q 903 2953 641 2809 
L 641 3341 
Q 956 3463 1253 3523 
Q 1550 3584 1831 3584 
Q 2591 3584 2966 3190 
Q 3341 2797 3341 1997 
z
" transform="scale(0.015625)"/>
       <path id="DejaVuSans-76" d="M 191 3500 
L 800 3500 
L 1894 563 
L 2988 3500 
L 3597 3500 
L 2284 0 
L 1503 0 
L 191 3500 
z
" transform="scale(0.015625)"/>
       <path id="DejaVuSans-65" d="M 3597 1894 
L 3597 1613 
L 953 1613 
Q 991 1019 1311 708 
Q 1631 397 2203 397 
Q 2534 397 2845 478 
Q 3156 559 3463 722 
L 3463 178 
Q 3153 47 2828 -22 
Q 2503 -91 2169 -91 
Q 1331 -91 842 396 
Q 353 884 353 1716 
Q 353 2575 817 3079 
Q 1281 3584 2069 3584 
Q 2775 3584 3186 3129 
Q 3597 2675 3597 1894 
z
M 3022 2063 
Q 3016 2534 2758 2815 
Q 2500 3097 2075 3097 
Q 1594 3097 1305 2825 
Q 1016 2553 972 2059 
L 3022 2063 
z
" transform="scale(0.015625)"/>
       <path id="DejaVuSans-6c" d="M 603 4863 
L 1178 4863 
L 1178 0 
L 603 0 
L 603 4863 
z
" transform="scale(0.015625)"/>
       <path id="DejaVuSans-6e" d="M 3513 2113 
L 3513 0 
L 2938 0 
L 2938 2094 
Q 2938 2591 2744 2837 
Q 2550 3084 2163 3084 
Q 1697 3084 1428 2787 
Q 1159 2491 1159 1978 
L 1159 0 
L 581 0 
L 581 3500 
L 1159 3500 
L 1159 2956 
Q 1366 3272 1645 3428 
Q 1925 3584 2291 3584 
Q 2894 3584 3203 3211 
Q 3513 2838 3513 2113 
z
" transform="scale(0.015625)"/>
       <path id="DejaVuSans-67" d="M 2906 1791 
Q 2906 2416 2648 2759 
Q 2391 3103 1925 3103 
Q 1463 3103 1205 2759 
Q 947 2416 947 1791 
Q 947 1169 1205 825 
Q 1463 481 1925 481 
Q 2391 481 2648 825 
Q 2906 1169 2906 1791 
z
M 3481 434 
Q 3481 -459 3084 -895 
Q 2688 -1331 1869 -1331 
Q 1566 -1331 1297 -1286 
Q 1028 -1241 775 -1147 
L 775 -588 
Q 1028 -725 1275 -790 
Q 1522 -856 1778 -856 
Q 2344 -856 2625 -561 
Q 2906 -266 2906 331 
L 2906 616 
Q 2728 306 2450 153 
Q 2172 0 1784 0 
Q 1141 0 747 490 
Q 353 981 353 1791 
Q 353 2603 747 3093 
Q 1141 3584 1784 3584 
Q 2172 3584 2450 3431 
Q 2728 3278 2906 2969 
L 2906 3500 
L 3481 3500 
L 3481 434 
z
" transform="scale(0.015625)"/>
       <path id="DejaVuSans-74" d="M 1172 4494 
L 1172 3500 
L 2356 3500 
L 2356 3053 
L 1172 3053 
L 1172 1153 
Q 1172 725 1289 603 
Q 1406 481 1766 481 
L 2356 481 
L 2356 0 
L 1766 0 
Q 1100 0 847 248 
Q 594 497 594 1153 
L 594 3053 
L 172 3053 
L 172 3500 
L 594 3500 
L 594 4494 
L 1172 4494 
z
" transform="scale(0.015625)"/>
       <path id="DejaVuSans-68" d="M 3513 2113 
L 3513 0 
L 2938 0 
L 2938 2094 
Q 2938 2591 2744 2837 
Q 2550 3084 2163 3084 
Q 1697 3084 1428 2787 
Q 1159 2491 1159 1978 
L 1159 0 
L 581 0 
L 581 4863 
L 1159 4863 
L 1159 2956 
Q 1366 3272 1645 3428 
Q 1925 3584 2291 3584 
Q 2894 3584 3203 3211 
Q 3513 2838 3513 2113 
z
" transform="scale(0.015625)"/>
       <path id="DejaVuSans-20" transform="scale(0.015625)"/>
       <path id="DejaVuSans-28" d="M 1984 4856 
Q 1566 4138 1362 3434 
Q 1159 2731 1159 2009 
Q 1159 1288 1364 580 
Q 1569 -128 1984 -844 
L 1484 -844 
Q 1016 -109 783 600 
Q 550 1309 550 2009 
Q 550 2706 781 3412 
Q 1013 4119 1484 4856 
L 1984 4856 
z
" transform="scale(0.015625)"/>
       <path id="DejaVuSans-6d" d="M 3328 2828 
Q 3544 3216 3844 3400 
Q 4144 3584 4550 3584 
Q 5097 3584 5394 3201 
Q 5691 2819 5691 2113 
L 5691 0 
L 5113 0 
L 5113 2094 
Q 5113 2597 4934 2840 
Q 4756 3084 4391 3084 
Q 3944 3084 3684 2787 
Q 3425 2491 3425 1978 
L 3425 0 
L 2847 0 
L 2847 2094 
Q 2847 2600 2669 2842 
Q 2491 3084 2119 3084 
Q 1678 3084 1418 2786 
Q 1159 2488 1159 1978 
L 1159 0 
L 581 0 
L 581 3500 
L 1159 3500 
L 1159 2956 
Q 1356 3278 1631 3431 
Q 1906 3584 2284 3584 
Q 2666 3584 2933 3390 
Q 3200 3197 3328 2828 
z
" transform="scale(0.015625)"/>
       <path id="DejaVuSans-29" d="M 513 4856 
L 1013 4856 
Q 1481 4119 1714 3412 
Q 1947 2706 1947 2009 
Q 1947 1309 1714 600 
Q 1481 -109 1013 -844 
L 513 -844 
Q 928 -128 1133 580 
Q 1338 1288 1338 2009 
Q 1338 2731 1133 3434 
Q 928 4138 513 4856 
z
" transform="scale(0.015625)"/>
      </defs>
      <use xlink:href="#DejaVuSans-57"/>
      <use xlink:href="#DejaVuSans-61" x="92.501953"/>
      <use xlink:href="#DejaVuSans-76" x="153.78125"/>
      <use xlink:href="#DejaVuSans-65" x="212.960938"/>
      <use xlink:href="#DejaVuSans-6c" x="274.484375"/>
      <use xlink:href="#DejaVuSans-65" x="302.267578"/>
      <use xlink:href="#DejaVuSans-6e" x="363.791016"/>
      <use xlink:href="#DejaVuSans-67" x="427.169922"/>
      <use xlink:href="#DejaVuSans-74" x="490.646484"/>
      <use xlink:href="#DejaVuSans-68" x="529.855469"/>
      <use xlink:href="#DejaVuSans-20" x="593.234375"/>
      <use xlink:href="#DejaVuSans-28" x="625.021484"/>
      <use xlink:href="#DejaVuSans-6e" x="664.035156"/>
      <use xlink:href="#DejaVuSans-6d" x="727.414062"/>
      <use xlink:href="#DejaVuSans-29" x="824.826172"/>
     </g>
    </g>
   </g>
   <g id="matplotlib.axis_2">
    <g id="ytick_1">
     <g id="line2d_9">
      <defs>
       <path id="m1569e6eb57" d="M 0 0 
L -3.5 0 
" style="stroke: #000000; stroke-width: 0.8"/>
      </defs>
      <g>
       <use xlink:href="#m1569e6eb57" x="57.6" y="307.584" style="stroke: #000000; stroke-width: 0.8"/>
      </g>
     </g>
     <g id="text_10">
      <!-- 0.0 -->
      <g transform="translate(34.696875 311.383219) scale(0.1 -0.1)">
       <defs>
        <path id="DejaVuSans-2e" d="M 684 794 
L 1344 794 
L 1344 0 
L 684 0 
L 684 794 
z
" transform="scale(0.015625)"/>
       </defs>
       <use xlink:href="#DejaVuSans-30"/>
       <use xlink:href="#DejaVuSans-2e" x="63.623047"/>
       <use xlink:href="#DejaVuSans-30" x="95.410156"/>
      </g>
     </g>
    </g>
    <g id="ytick_2">
     <g id="line2d_10">
      <g>
       <use xlink:href="#m1569e6eb57" x="57.6" y="263.232" style="stroke: #000000; stroke-width: 0.8"/>
      </g>
     </g>
     <g id="text_11">
      <!-- 0.2 -->
      <g transform="translate(34.696875 267.031219) scale(0.1 -0.1)">
       <use xlink:href="#DejaVuSans-30"/>
       <use xlink:href="#DejaVuSans-2e" x="63.623047"/>
       <use xlink:href="#DejaVuSans-32" x="95.410156"/>
      </g>
     </g>
    </g>
    <g id="ytick_3">
     <g id="line2d_11">
      <g>
       <use xlink:href="#m1569e6eb57" x="57.6" y="218.88" style="stroke: #000000; stroke-width: 0.8"/>
      </g>
     </g>
     <g id="text_12">
      <!-- 0.4 -->
      <g transform="translate(34.696875 222.679219) scale(0.1 -0.1)">
       <use xlink:href="#DejaVuSans-30"/>
       <use xlink:href="#DejaVuSans-2e" x="63.623047"/>
       <use xlink:href="#DejaVuSans-34" x="95.410156"/>
      </g>
     </g>
    </g>
    <g id="ytick_4">
     <g id="line2d_12">
      <g>
       <use xlink:href="#m1569e6eb57" x="57.6" y="174.528" style="stroke: #000000; stroke-width: 0.8"/>
      </g>
     </g>
     <g id="text_13">
      <!-- 0.6 -->
      <g transform="translate(34.696875 178.327219) scale(0.1 -0.1)">
       <use xlink:href="#DejaVuSans-30"/>
       <use xlink:href="#DejaVuSans-2e" x="63.623047"/>
       <use xlink:href="#DejaVuSans-36" x="95.410156"/>
      </g>
     </g>
    </g>
    <g id="ytick_5">
     <g id="line2d_13">
      <g>
       <use xlink:href="#m1569e6eb57" x="57.6" y="130.176" style="stroke: #000000; stroke-width: 0.8"/>
      </g>
     </g>
     <g id="text_14">
      <!-- 0.8 -->
      <g transform="translate(34.696875 133.975219) scale(0.1 -0.1)">
       <use xlink:href="#DejaVuSans-30"/>
       <use xlink:href="#DejaVuSans-2e" x="63.623047"/>
       <use xlink:href="#DejaVuSans-38" x="95.410156"/>
      </g>
     </g>
    </g>
    <g id="ytick_6">
     <g id="line2d_14">
      <g>
       <use xlink:href="#m1569e6eb57" x="57.6" y="85.824" style="stroke: #000000; stroke-width: 0.8"/>
      </g>
     </g>
     <g id="text_15">
      <!-- 1.0 -->
      <g transform="translate(34.696875 89.623219) scale(0.1 -0.1)">
       <defs>
        <path id="DejaVuSans-31" d="M 794 531 
L 1825 531 
L 1825 4091 
L 703 3866 
L 703 4441 
L 1819 4666 
L 2450 4666 
L 2450 531 
L 3481 531 
L 3481 0 
L 794 0 
L 794 531 
z
" transform="scale(0.015625)"/>
       </defs>
       <use xlink:href="#DejaVuSans-31"/>
       <use xlink:href="#DejaVuSans-2e" x="63.623047"/>
       <use xlink:href="#DejaVuSans-30" x="95.410156"/>
      </g>
     </g>
    </g>
    <g id="ytick_7">
     <g id="line2d_15">
      <g>
       <use xlink:href="#m1569e6eb57" x="57.6" y="41.472" style="stroke: #000000; stroke-width: 0.8"/>
      </g>
     </g>
     <g id="text_16">
      <!-- 1.2 -->
      <g transform="translate(34.696875 45.271219) scale(0.1 -0.1)">
       <use xlink:href="#DejaVuSans-31"/>
       <use xlink:href="#DejaVuSans-2e" x="63.623047"/>
       <use xlink:href="#DejaVuSans-32" x="95.410156"/>
      </g>
     </g>
    </g>
    <g id="text_17">
     <!-- Absorbance -->
     <g transform="translate(28.617187 204.074875) rotate(-90) scale(0.1 -0.1)">
      <defs>
       <path id="DejaVuSans-41" d="M 2188 4044 
L 1331 1722 
L 3047 1722 
L 2188 4044 
z
M 1831 4666 
L 2547 4666 
L 4325 0 
L 3669 0 
L 3244 1197 
L 1141 1197 
L 716 0 
L 50 0 
L 1831 4666 
z
" transform="scale(0.015625)"/>
       <path id="DejaVuSans-62" d="M 3116 1747 
Q 3116 2381 2855 2742 
Q 2594 3103 2138 3103 
Q 1681 3103 1420 2742 
Q 1159 2381 1159 1747 
Q 1159 1113 1420 752 
Q 1681 391 2138 391 
Q 2594 391 2855 752 
Q 3116 1113 3116 1747 
z
M 1159 2969 
Q 1341 3281 1617 3432 
Q 1894 3584 2278 3584 
Q 2916 3584 3314 3078 
Q 3713 2572 3713 1747 
Q 3713 922 3314 415 
Q 2916 -91 2278 -91 
Q 1894 -91 1617 61 
Q 1341 213 1159 525 
L 1159 0 
L 581 0 
L 581 4863 
L 1159 4863 
L 1159 2969 
z
" transform="scale(0.015625)"/>
       <path id="DejaVuSans-73" d="M 2834 3397 
L 2834 2853 
Q 2591 2978 2328 3040 
Q 2066 3103 1784 3103 
Q 1356 3103 1142 2972 
Q 928 2841 928 2578 
Q 928 2378 1081 2264 
Q 1234 2150 1697 2047 
L 1894 2003 
Q 2506 1872 2764 1633 
Q 3022 1394 3022 966 
Q 3022 478 2636 193 
Q 2250 -91 1575 -91 
Q 1294 -91 989 -36 
Q 684 19 347 128 
L 347 722 
Q 666 556 975 473 
Q 1284 391 1588 391 
Q 1994 391 2212 530 
Q 2431 669 2431 922 
Q 2431 1156 2273 1281 
Q 2116 1406 1581 1522 
L 1381 1569 
Q 847 1681 609 1914 
Q 372 2147 372 2553 
Q 372 3047 722 3315 
Q 1072 3584 1716 3584 
Q 2034 3584 2315 3537 
Q 2597 3491 2834 3397 
z
" transform="scale(0.015625)"/>
       <path id="DejaVuSans-6f" d="M 1959 3097 
Q 1497 3097 1228 2736 
Q 959 2375 959 1747 
Q 959 1119 1226 758 
Q 1494 397 1959 397 
Q 2419 397 2687 759 
Q 2956 1122 2956 1747 
Q 2956 2369 2687 2733 
Q 2419 3097 1959 3097 
z
M 1959 3584 
Q 2709 3584 3137 3096 
Q 3566 2609 3566 1747 
Q 3566 888 3137 398 
Q 2709 -91 1959 -91 
Q 1206 -91 779 398 
Q 353 888 353 1747 
Q 353 2609 779 3096 
Q 1206 3584 1959 3584 
z
" transform="scale(0.015625)"/>
       <path id="DejaVuSans-72" d="M 2631 2963 
Q 2534 3019 2420 3045 
Q 2306 3072 2169 3072 
Q 1681 3072 1420 2755 
Q 1159 2438 1159 1844 
L 1159 0 
L 581 0 
L 581 3500 
L 1159 3500 
L 1159 2956 
Q 1341 3275 1631 3429 
Q 1922 3584 2338 3584 
Q 2397 3584 2469 3576 
Q 2541 3569 2628 3553 
L 2631 2963 
z
" transform="scale(0.015625)"/>
       <path id="DejaVuSans-63" d="M 3122 3366 
L 3122 2828 
Q 2878 2963 2633 3030 
Q 2388 3097 2138 3097 
Q 1578 3097 1268 2742 
Q 959 2388 959 1747 
Q 959 1106 1268 751 
Q 1578 397 2138 397 
Q 2388 397 2633 464 
Q 2878 531 3122 666 
L 3122 134 
Q 2881 22 2623 -34 
Q 2366 -91 2075 -91 
Q 1284 -91 818 406 
Q 353 903 353 1747 
Q 353 2603 823 3093 
Q 1294 3584 2113 3584 
Q 2378 3584 2631 3529 
Q 2884 3475 3122 3366 
z
" transform="scale(0.015625)"/>
      </defs>
      <use xlink:href="#DejaVuSans-41"/>
      <use xlink:href="#DejaVuSans-62" x="68.408203"/>
      <use xlink:href="#DejaVuSans-73" x="131.884766"/>
      <use xlink:href="#DejaVuSans-6f" x="183.984375"/>
      <use xlink:href="#DejaVuSans-72" x="245.166016"/>
      <use xlink:href="#DejaVuSans-62" x="286.279297"/>
      <use xlink:href="#DejaVuSans-61" x="349.755859"/>
      <use xlink:href="#DejaVuSans-6e" x="411.035156"/>
      <use xlink:href="#DejaVuSans-63" x="474.414062"/>
      <use xlink:href="#DejaVuSans-65" x="529.394531"/>
     </g>
    </g>
   </g>
   <g id="line2d_16">
    <path d="M 97.611621 -1 
L 97.903543 7.325351 
L 98.413714 18.106129 
L 99.944229 43.802306 
L 100.964571 65.767036 
L 103.515429 126.256826 
L 104.535771 144.361379 
L 105.556114 156.463316 
L 106.066286 160.432923 
L 106.576457 163.06025 
L 107.086629 164.531524 
L 107.5968 165.302182 
L 108.106971 165.220958 
L 108.617143 164.573253 
L 109.127314 163.545983 
L 110.657829 159.418831 
L 111.678171 156.66444 
L 112.188343 155.690318 
L 112.698514 155.16131 
L 113.208686 154.12899 
L 114.229029 153.482713 
L 115.249371 153.848731 
L 115.759543 154.442216 
L 116.779886 156.42505 
L 117.800229 159.757567 
L 118.3104 161.915234 
L 119.330743 167.824097 
L 120.351086 175.332196 
L 122.391771 194.002107 
L 124.942629 216.729174 
L 126.473143 228.311811 
L 128.003657 237.903928 
L 129.534171 245.559077 
L 130.554514 249.849827 
L 131.574857 253.573287 
L 132.5952 256.8092 
L 133.105371 258.067104 
L 133.615543 262.414424 
L 134.125714 263.825672 
L 134.635886 264.771666 
L 135.146057 265.333593 
L 135.656229 266.619092 
L 136.676571 268.284068 
L 137.186743 268.663363 
L 137.696914 269.574521 
L 138.717257 270.728179 
L 139.227429 271.258832 
L 139.7376 271.35337 
L 140.247771 272.042748 
L 141.268114 272.653806 
L 142.288457 273.077156 
L 142.798629 273.20843 
L 143.3088 272.090309 
L 143.818971 273.258364 
L 144.329143 273.000043 
L 144.839314 273.087344 
L 145.859657 272.66096 
L 147.390171 271.649524 
L 148.410514 270.584867 
L 149.430857 269.300725 
L 151.981714 264.879977 
L 153.512229 261.395081 
L 155.042743 257.379085 
L 156.063086 254.437171 
L 157.5936 249.547883 
L 160.144457 240.533489 
L 162.695314 230.385525 
L 165.756343 216.866059 
L 170.347886 195.296816 
L 174.939429 173.632199 
L 176.469943 166.931622 
L 178.510629 158.584727 
L 180.041143 153.074728 
L 181.571657 148.204822 
L 183.102171 144.157334 
L 184.632686 140.909967 
L 185.653029 139.22792 
L 186.1632 138.542571 
L 187.693714 137.181521 
L 188.714057 136.669207 
L 189.224229 136.533975 
L 190.244571 136.636466 
L 190.754743 136.828761 
L 191.775086 137.503615 
L 192.795429 138.671141 
L 193.815771 140.223864 
L 194.836114 142.226962 
L 195.856457 144.571134 
L 196.8768 147.378543 
L 198.407314 152.239025 
L 200.448 159.937449 
L 201.978514 166.394882 
L 204.0192 175.621999 
L 209.631086 202.969465 
L 217.283657 239.793497 
L 220.344686 252.827987 
L 222.385371 260.497745 
L 223.915886 265.565482 
L 225.4464 270.02978 
L 226.976914 273.8868 
L 228.507429 277.125433 
L 230.037943 279.825066 
L 231.568457 282.082493 
L 233.098971 283.895221 
L 234.629486 285.401342 
L 236.670171 287.051138 
L 241.771886 289.979976 
L 245.343086 291.791406 
L 246.363429 292.34095 
L 252.485486 295.139858 
L 254.016 295.850422 
L 256.056686 296.798699 
L 257.077029 297.175588 
L 258.607543 297.867889 
L 264.7296 300.695834 
L 272.382171 303.854678 
L 274.422857 304.633329 
L 278.504229 305.870706 
L 284.626286 307.208744 
L 285.646629 307.36374 
L 287.177143 307.58989 
L 294.319543 308.231661 
L 305.033143 308.694984 
L 306.053486 308.713969 
L 308.094171 308.756296 
L 315.746743 308.756011 
L 319.317943 308.602235 
L 320.848457 308.520526 
L 321.358629 308.473392 
L 321.8688 308.606177 
L 322.889143 308.454566 
L 324.419657 308.368653 
L 327.480686 308.177174 
L 329.0112 308.075609 
L 335.643429 307.606339 
L 338.704457 307.615697 
L 341.765486 307.690726 
L 350.4384 308.27263 
L 355.540114 308.320424 
L 363.192686 308.151183 
L 363.702857 308.268789 
L 363.702857 308.268789 
" clip-path="url(#pd4da73fd3a)" style="fill: none; stroke: #e01f1f; stroke-width: 0.5; stroke-linecap: square"/>
   </g>
   <g id="line2d_17">
    <path d="M 106.239354 -1 
L 108.617143 109.70163 
L 109.127314 124.643888 
L 109.637486 135.715646 
L 110.147657 143.164423 
L 110.657829 147.870123 
L 111.168 150.823484 
L 111.678171 152.431563 
L 112.188343 153.446119 
L 112.698514 154.024601 
L 113.718857 154.345056 
L 114.7392 154.744066 
L 115.249371 155.235667 
L 116.269714 156.788311 
L 117.290057 159.487808 
L 118.3104 163.510195 
L 119.330743 169.312838 
L 120.351086 176.681038 
L 122.391771 194.681792 
L 124.432457 212.769017 
L 125.962971 224.078961 
L 126.983314 230.463081 
L 128.513829 238.529347 
L 130.554514 246.781615 
L 132.085029 251.893159 
L 133.105371 254.767229 
L 133.615543 260.266312 
L 134.125714 260.980804 
L 134.635886 262.390079 
L 135.656229 264.2912 
L 136.1664 264.878658 
L 136.676571 266.230548 
L 139.227429 269.676672 
L 139.7376 270.038579 
L 140.247771 270.588002 
L 140.757943 270.776734 
L 141.268114 271.40641 
L 142.798629 272.124262 
L 143.3088 271.101175 
L 143.818971 272.257568 
L 144.329143 272.133597 
L 144.839314 272.209713 
L 145.349486 272.105658 
L 146.369829 271.573494 
L 147.900343 270.482659 
L 149.430857 268.777216 
L 151.471543 265.518524 
L 153.002057 262.351542 
L 154.532571 258.649747 
L 156.573257 252.948557 
L 159.124114 244.60344 
L 160.654629 239.055215 
L 163.205486 228.978443 
L 166.266514 215.700627 
L 171.368229 192.104561 
L 175.4496 173.385995 
L 178.510629 160.862869 
L 180.041143 155.47088 
L 181.061486 152.174594 
L 182.592 147.90215 
L 183.612343 145.474572 
L 185.142857 142.536426 
L 186.1632 141.176579 
L 187.183543 140.076279 
L 188.203886 139.34168 
L 188.714057 139.114992 
L 189.7344 138.986844 
L 190.754743 139.208615 
L 191.775086 139.837973 
L 192.285257 140.301975 
L 193.3056 141.592243 
L 194.836114 144.229325 
L 196.366629 147.79153 
L 197.386971 150.641486 
L 198.917486 155.531484 
L 200.448 161.192603 
L 202.488686 169.574698 
L 205.549714 183.304528 
L 211.1616 209.863016 
L 215.753143 231.247776 
L 218.814171 244.530232 
L 221.365029 254.411296 
L 223.405714 261.336832 
L 225.4464 267.165769 
L 226.976914 270.897242 
L 228.507429 274.080033 
L 230.548114 277.494124 
L 232.078629 279.536766 
L 233.609143 281.247896 
L 235.649829 283.122961 
L 238.200686 284.969121 
L 243.812571 288.216603 
L 245.343086 289.102196 
L 246.363429 289.733049 
L 249.424457 291.386339 
L 252.485486 293.040928 
L 256.566857 295.252973 
L 258.097371 295.943495 
L 261.1584 297.564056 
L 266.770286 300.44109 
L 268.3008 301.15942 
L 270.341486 302.148406 
L 275.953371 304.489683 
L 277.483886 305.024601 
L 281.565257 306.187095 
L 286.666971 307.214743 
L 292.278857 307.915194 
L 297.380571 308.286101 
L 298.911086 308.376694 
L 310.134857 308.687792 
L 311.665371 308.679927 
L 319.828114 308.42194 
L 321.358629 308.341103 
L 321.8688 308.441346 
L 323.399314 308.296332 
L 325.44 308.160756 
L 328.501029 308.052124 
L 331.562057 307.742704 
L 335.133257 307.562861 
L 345.336686 307.912735 
L 347.887543 308.084383 
L 351.968914 308.253997 
L 355.029943 308.228293 
L 357.070629 308.243698 
L 358.601143 308.188189 
L 361.152 308.147687 
L 363.192686 308.031279 
L 363.702857 308.204219 
L 363.702857 308.204219 
" clip-path="url(#pd4da73fd3a)" style="fill: none; stroke: #d31f2c; stroke-width: 0.5; stroke-linecap: square"/>
   </g>
   <g id="line2d_18">
    <path d="M 107.637417 -1 
L 108.617143 68.54745 
L 109.127314 94.432207 
L 109.637486 113.847027 
L 110.147657 127.579117 
L 110.657829 136.69564 
L 111.168 142.68114 
L 111.678171 146.400928 
L 112.188343 148.672786 
L 112.698514 150.01841 
L 113.208686 150.818121 
L 114.229029 151.818137 
L 115.249371 152.486448 
L 116.269714 153.97172 
L 117.290057 156.243009 
L 118.3104 160.082262 
L 118.820571 162.440934 
L 119.840914 168.596232 
L 120.861257 176.300221 
L 123.412114 198.664859 
L 124.942629 211.226753 
L 126.473143 222.019156 
L 128.003657 230.879112 
L 129.534171 237.981362 
L 131.064686 244.144841 
L 132.5952 249.341905 
L 133.105371 250.78057 
L 133.615543 256.510181 
L 134.125714 257.35062 
L 134.635886 258.948641 
L 137.696914 265.088179 
L 138.207086 265.530682 
L 138.717257 266.635515 
L 139.227429 267.382507 
L 141.778286 269.863393 
L 142.288457 270.223875 
L 142.798629 270.439096 
L 143.3088 269.490505 
L 143.818971 270.838499 
L 144.329143 270.668843 
L 144.839314 270.915202 
L 145.859657 270.7024 
L 147.390171 269.953588 
L 148.920686 268.604065 
L 149.430857 268.036774 
L 151.981714 264.105687 
L 154.0224 259.731287 
L 156.063086 254.504668 
L 158.103771 248.355629 
L 160.654629 239.671954 
L 163.205486 229.921203 
L 166.266514 217.048998 
L 172.388571 189.500223 
L 175.4496 175.880194 
L 178.000457 165.51315 
L 180.041143 158.269912 
L 181.571657 153.553862 
L 183.102171 149.587175 
L 184.632686 146.398998 
L 185.653029 144.715325 
L 186.673371 143.550443 
L 187.693714 142.544466 
L 188.714057 141.984409 
L 189.7344 141.765851 
L 190.244571 141.763194 
L 191.264914 142.149951 
L 191.775086 142.455126 
L 192.795429 143.447118 
L 193.815771 144.767034 
L 195.346286 147.520513 
L 196.8768 151.117719 
L 198.407314 155.52172 
L 199.937829 160.673182 
L 201.978514 168.411128 
L 205.039543 181.286881 
L 210.651429 206.579099 
L 217.793829 237.945052 
L 220.344686 247.888191 
L 221.8752 253.326743 
L 223.915886 259.729413 
L 225.4464 263.914358 
L 226.976914 267.496349 
L 228.507429 270.572273 
L 230.037943 273.157637 
L 231.058286 274.657756 
L 232.5888 276.572462 
L 235.649829 279.592913 
L 239.7312 282.535638 
L 241.261714 283.494643 
L 244.832914 285.695768 
L 246.8736 287.040072 
L 268.3008 300.189788 
L 271.872 302.101476 
L 277.483886 304.63186 
L 283.095771 306.399608 
L 287.177143 307.277592 
L 292.278857 307.963482 
L 295.339886 308.190177 
L 297.380571 308.387995 
L 298.400914 308.479523 
L 309.114514 308.766957 
L 315.746743 308.755404 
L 328.501029 308.13842 
L 330.031543 307.93323 
L 337.684114 307.549474 
L 339.7248 307.580541 
L 343.296 307.737922 
L 344.316343 307.83041 
L 345.846857 307.951792 
L 348.397714 308.120418 
L 356.050286 308.231082 
L 357.5808 308.212896 
L 360.131657 308.161048 
L 362.682514 308.06738 
L 363.192686 308.064595 
L 363.702857 308.202988 
L 363.702857 308.202988 
" clip-path="url(#pd4da73fd3a)" style="fill: none; stroke: #c51f3a; stroke-width: 0.5; stroke-linecap: square"/>
   </g>
   <g id="line2d_19">
    <path d="M 108.390742 -1 
L 109.127314 59.476148 
L 109.637486 89.032845 
L 110.147657 110.251952 
L 110.657829 125.054786 
L 111.168 134.791652 
L 111.678171 141.20351 
L 112.188343 145.236061 
L 112.698514 147.607793 
L 113.208686 149.271467 
L 113.718857 150.164048 
L 114.7392 151.113636 
L 115.759543 151.790857 
L 116.779886 153.191256 
L 117.800229 155.704698 
L 118.820571 159.468727 
L 119.840914 164.915623 
L 120.861257 171.620548 
L 122.901943 187.979397 
L 124.942629 204.259665 
L 126.473143 214.690215 
L 128.003657 223.518977 
L 129.534171 230.87579 
L 132.085029 241.219901 
L 133.105371 244.852134 
L 133.615543 250.239807 
L 134.635886 253.312486 
L 135.146057 254.433108 
L 136.1664 257.294135 
L 136.676571 258.535659 
L 137.186743 259.428804 
L 137.696914 260.845947 
L 139.227429 263.857493 
L 139.7376 264.354378 
L 140.757943 266.171439 
L 142.288457 267.891825 
L 142.798629 268.359756 
L 143.3088 267.472143 
L 143.818971 268.930335 
L 144.329143 269.010772 
L 144.839314 269.345497 
L 145.859657 269.362964 
L 147.390171 268.964701 
L 148.920686 267.914484 
L 150.961371 265.526097 
L 151.981714 263.953442 
L 153.512229 261.086665 
L 155.552914 256.577869 
L 158.103771 249.598348 
L 160.144457 243.255858 
L 162.695314 234.375566 
L 166.266514 220.407107 
L 169.837714 205.417965 
L 176.980114 175.41326 
L 179.0208 167.943757 
L 181.061486 161.480337 
L 182.592 157.319017 
L 184.632686 152.930916 
L 186.1632 150.517257 
L 188.203886 148.546914 
L 189.224229 148.044963 
L 190.244571 147.890895 
L 191.264914 148.092019 
L 191.775086 148.320266 
L 192.795429 149.101366 
L 193.815771 150.20768 
L 194.836114 151.66382 
L 195.856457 153.511527 
L 196.8768 155.655646 
L 198.407314 159.545589 
L 199.937829 164.08296 
L 201.978514 170.94305 
L 205.549714 184.508145 
L 210.141257 203.119051 
L 215.753143 225.791554 
L 218.814171 237.337862 
L 221.365029 246.058607 
L 223.405714 252.138602 
L 224.936229 256.136383 
L 226.466743 259.692445 
L 228.507429 263.656518 
L 230.548114 266.868546 
L 232.5888 269.42523 
L 234.119314 271.046247 
L 237.180343 273.751173 
L 241.261714 276.856718 
L 243.3024 278.376479 
L 245.343086 279.94324 
L 246.363429 280.817184 
L 252.485486 285.755593 
L 254.016 286.949102 
L 255.546514 288.185781 
L 257.077029 289.331343 
L 261.668571 292.913801 
L 270.851657 299.587104 
L 276.973714 303.207177 
L 279.0144 304.186938 
L 285.646629 306.450582 
L 288.197486 307.040704 
L 291.768686 307.604379 
L 294.319543 307.883662 
L 302.992457 308.505796 
L 304.0128 308.526995 
L 316.767086 308.650632 
L 322.378971 308.47489 
L 323.909486 308.360263 
L 328.501029 308.091319 
L 336.1536 307.591267 
L 340.234971 307.623183 
L 342.785829 307.698922 
L 346.357029 308.049674 
L 347.377371 308.127762 
L 351.458743 308.293012 
L 360.641829 308.225713 
L 363.192686 308.15235 
L 363.702857 308.326615 
L 363.702857 308.326615 
" clip-path="url(#pd4da73fd3a)" style="fill: none; stroke: #b71f48; stroke-width: 0.5; stroke-linecap: square"/>
   </g>
   <g id="line2d_20">
    <path d="M 108.769231 -1 
L 109.127314 31.249939 
L 109.637486 66.898077 
L 110.147657 92.649756 
L 110.657829 110.683224 
L 111.168 122.765637 
L 111.678171 130.847342 
L 112.188343 135.988705 
L 112.698514 138.889273 
L 113.208686 140.98101 
L 113.718857 142.05995 
L 114.229029 142.551115 
L 116.269714 143.158095 
L 116.779886 143.603195 
L 117.290057 144.252817 
L 117.800229 145.128729 
L 118.3104 146.366442 
L 119.330743 150.075551 
L 120.351086 155.232578 
L 121.8816 165.405081 
L 127.493486 208.157484 
L 129.024 217.428901 
L 130.554514 225.325303 
L 132.085029 232.204883 
L 133.105371 236.379977 
L 133.615543 243.778453 
L 134.125714 244.76872 
L 134.635886 246.966967 
L 137.696914 255.923133 
L 138.207086 257.002175 
L 138.717257 258.590484 
L 140.247771 261.70819 
L 140.757943 262.45228 
L 141.268114 263.522439 
L 142.798629 265.67218 
L 143.3088 264.853719 
L 143.818971 266.552702 
L 144.329143 266.695019 
L 144.839314 267.162243 
L 145.349486 267.408232 
L 146.369829 267.506858 
L 147.390171 267.472689 
L 148.920686 266.705689 
L 149.430857 266.322601 
L 150.4512 265.312969 
L 151.471543 264.094835 
L 152.491886 262.601877 
L 154.0224 259.926836 
L 156.063086 255.62345 
L 157.5936 251.82205 
L 159.124114 247.63588 
L 161.674971 239.830761 
L 163.715657 232.85241 
L 166.266514 223.457498 
L 170.858057 205.272711 
L 176.980114 180.835595 
L 179.0208 173.614034 
L 181.061486 167.323795 
L 182.592 163.293028 
L 184.122514 159.876392 
L 185.653029 157.153539 
L 187.183543 155.255908 
L 188.203886 154.286677 
L 189.224229 153.694011 
L 190.244571 153.358395 
L 191.264914 153.395405 
L 192.285257 153.764886 
L 193.3056 154.430593 
L 194.325943 155.475127 
L 195.346286 156.857471 
L 196.366629 158.486501 
L 197.897143 161.608667 
L 199.427657 165.360496 
L 200.958171 169.650612 
L 202.998857 176.076362 
L 205.549714 184.727468 
L 211.1616 205.028206 
L 215.242971 219.827095 
L 218.304 230.405719 
L 220.854857 238.435272 
L 222.895543 244.156274 
L 224.426057 248.02721 
L 226.976914 253.396094 
L 229.0176 256.937906 
L 231.058286 259.830973 
L 233.609143 262.774103 
L 236.16 265.246493 
L 242.792229 271.042352 
L 243.812571 271.938332 
L 245.343086 273.348646 
L 246.363429 274.424641 
L 252.485486 280.35869 
L 258.097371 285.797994 
L 268.810971 295.803142 
L 271.872 298.406891 
L 273.402514 299.591559 
L 276.463543 301.760421 
L 280.034743 303.788531 
L 281.565257 304.52863 
L 284.116114 305.555016 
L 288.197486 306.72126 
L 292.789029 307.54893 
L 294.829714 307.793565 
L 297.380571 308.079452 
L 299.421257 308.240228 
L 308.604343 308.604744 
L 313.706057 308.6423 
L 315.746743 308.624213 
L 317.787429 308.529087 
L 321.358629 308.347749 
L 321.8688 308.439956 
L 323.399314 308.302337 
L 328.501029 308.071582 
L 334.623086 307.609569 
L 336.1536 307.605943 
L 340.234971 307.628253 
L 344.316343 307.852705 
L 346.8672 308.105687 
L 348.907886 308.198767 
L 354.0096 308.324354 
L 356.560457 308.270881 
L 362.172343 308.149742 
L 363.192686 308.097392 
L 363.702857 308.285681 
L 363.702857 308.285681 
" clip-path="url(#pd4da73fd3a)" style="fill: none; stroke: #a91f56; stroke-width: 0.5; stroke-linecap: square"/>
   </g>
   <g id="line2d_21">
    <path d="M 108.944352 -1 
L 109.127314 17.017198 
L 109.637486 56.20314 
L 110.147657 84.709501 
L 110.657829 104.730773 
L 111.168 118.515748 
L 111.678171 127.40557 
L 112.188343 133.324637 
L 113.208686 139.04825 
L 113.718857 140.225504 
L 114.229029 140.752173 
L 114.7392 140.822267 
L 115.249371 141.062649 
L 115.759543 141.124151 
L 116.269714 141.300796 
L 117.290057 142.067541 
L 118.3104 144.100339 
L 119.330743 147.399335 
L 120.351086 152.299697 
L 121.8816 161.901793 
L 123.412114 173.27944 
L 126.983314 198.855724 
L 128.513829 207.733828 
L 130.554514 218.037571 
L 132.5952 227.446349 
L 133.105371 229.442434 
L 133.615543 237.034441 
L 134.125714 237.894974 
L 134.635886 240.102169 
L 137.696914 250.122421 
L 138.207086 251.289472 
L 139.227429 254.368524 
L 141.778286 259.582818 
L 142.798629 261.151835 
L 143.3088 260.594892 
L 143.818971 262.392265 
L 144.329143 262.663444 
L 144.839314 263.21712 
L 145.349486 263.566466 
L 146.369829 263.82264 
L 147.390171 263.943755 
L 148.410514 263.686121 
L 148.920686 263.492373 
L 149.430857 263.150548 
L 149.941029 262.671292 
L 150.4512 262.345358 
L 151.981714 260.698708 
L 153.512229 258.39224 
L 155.552914 254.690559 
L 157.083429 251.326164 
L 159.124114 246.204337 
L 161.674971 238.86437 
L 164.225829 230.583835 
L 167.286857 219.669714 
L 169.327543 212.018299 
L 177.490286 180.870852 
L 179.530971 174.124872 
L 181.571657 168.220569 
L 183.102171 164.488435 
L 184.632686 161.345701 
L 185.653029 159.601689 
L 187.183543 157.641668 
L 188.203886 156.67528 
L 189.224229 155.999143 
L 190.244571 155.621758 
L 191.264914 155.584906 
L 192.285257 155.808461 
L 193.3056 156.358406 
L 194.325943 157.275942 
L 195.346286 158.470882 
L 196.366629 160.012224 
L 197.386971 161.768569 
L 198.917486 164.975555 
L 200.448 168.750344 
L 201.978514 172.962699 
L 204.0192 179.081303 
L 207.080229 189.015116 
L 216.263314 219.843887 
L 218.814171 227.941605 
L 221.365029 235.354118 
L 223.915886 241.813051 
L 225.4464 245.190833 
L 227.487086 249.051525 
L 229.0176 251.585751 
L 230.548114 253.788581 
L 234.119314 257.991211 
L 238.200686 261.903839 
L 242.282057 265.776322 
L 243.3024 266.780491 
L 248.914286 272.830858 
L 254.016 278.495185 
L 258.607543 283.484128 
L 260.648229 285.679014 
L 270.851657 296.029611 
L 272.382171 297.390105 
L 275.4432 299.924382 
L 278.504229 302.037087 
L 280.034743 302.935918 
L 282.075429 304.037886 
L 286.666971 305.813011 
L 289.217829 306.541921 
L 290.748343 306.842739 
L 294.829714 307.511753 
L 297.380571 307.862358 
L 298.400914 307.986837 
L 302.482286 308.226845 
L 304.0128 308.324223 
L 310.134857 308.582671 
L 314.7264 308.614889 
L 319.828114 308.456264 
L 329.0112 308.04884 
L 331.562057 307.771952 
L 335.133257 307.632257 
L 339.214629 307.591228 
L 343.806171 307.848296 
L 349.928229 308.279111 
L 354.519771 308.382798 
L 357.5808 308.345041 
L 359.621486 308.309142 
L 363.702857 308.406317 
L 363.702857 308.406317 
" clip-path="url(#pd4da73fd3a)" style="fill: none; stroke: #9b1f64; stroke-width: 0.5; stroke-linecap: square"/>
   </g>
   <g id="line2d_22">
    <path d="M 109.016851 -1 
L 109.127314 10.544463 
L 109.637486 52.180507 
L 110.147657 82.627101 
L 110.657829 103.979986 
L 111.168 118.62673 
L 111.678171 128.429316 
L 112.188343 134.787231 
L 112.698514 138.139376 
L 113.208686 140.732284 
L 113.718857 141.881754 
L 114.229029 142.365887 
L 114.7392 142.484386 
L 116.779886 142.31981 
L 117.800229 143.216937 
L 118.820571 145.459463 
L 119.330743 147.025365 
L 120.351086 151.287326 
L 121.8816 160.013154 
L 123.922286 174.559904 
L 127.493486 199.369965 
L 129.534171 210.859581 
L 133.105371 227.888208 
L 133.615543 234.655211 
L 134.125714 236.898181 
L 135.656229 242.364038 
L 138.207086 251.043814 
L 139.227429 254.043837 
L 139.7376 254.938327 
L 140.247771 256.624399 
L 141.268114 258.889182 
L 142.288457 260.858894 
L 142.798629 261.639584 
L 143.3088 261.091192 
L 143.818971 262.983391 
L 144.329143 263.297657 
L 144.839314 263.991126 
L 145.859657 264.578045 
L 146.369829 264.797096 
L 147.390171 264.966117 
L 148.410514 264.796266 
L 149.430857 264.381131 
L 151.981714 262.08179 
L 153.002057 260.773476 
L 154.532571 258.343784 
L 156.573257 254.440107 
L 158.613943 249.670233 
L 160.144457 245.697817 
L 162.695314 238.321104 
L 165.756343 228.358885 
L 169.837714 213.725174 
L 177.490286 185.324002 
L 179.530971 178.690493 
L 181.061486 174.260016 
L 183.102171 169.152094 
L 184.632686 166.029438 
L 185.653029 164.231536 
L 187.693714 161.724055 
L 188.714057 160.80151 
L 189.7344 160.193975 
L 190.754743 159.852172 
L 191.775086 159.820291 
L 192.795429 160.132749 
L 193.815771 160.715633 
L 194.836114 161.627036 
L 195.856457 162.733297 
L 197.386971 165.00801 
L 199.427657 168.968959 
L 201.468343 173.833989 
L 203.509029 179.325561 
L 206.570057 188.283508 
L 210.651429 200.931834 
L 217.793829 222.95128 
L 220.344686 230.141924 
L 222.895543 236.605054 
L 224.936229 241.082567 
L 226.976914 244.94456 
L 228.507429 247.433582 
L 230.548114 250.303795 
L 232.5888 252.803926 
L 235.139657 255.525798 
L 244.322743 264.765353 
L 247.383771 268.343597 
L 250.4448 271.952666 
L 261.668571 285.188785 
L 267.790629 291.988807 
L 271.872 296.133441 
L 273.912686 298.01869 
L 279.524571 302.230743 
L 281.565257 303.434293 
L 283.605943 304.40831 
L 287.177143 305.764252 
L 289.217829 306.330877 
L 291.768686 306.895032 
L 295.339886 307.416956 
L 302.482286 308.138716 
L 312.685714 308.511589 
L 318.807771 308.423333 
L 324.419657 308.254754 
L 337.684114 307.574332 
L 342.785829 307.751199 
L 345.846857 308.056096 
L 349.928229 308.333905 
L 357.070629 308.43169 
L 360.131657 308.384152 
L 361.152 308.355521 
L 363.702857 308.483398 
L 363.702857 308.483398 
" clip-path="url(#pd4da73fd3a)" style="fill: none; stroke: #8d1f72; stroke-width: 0.5; stroke-linecap: square"/>
   </g>
   <g id="line2d_23">
    <path d="M 109.303915 -1 
L 109.637486 28.929641 
L 110.147657 62.713682 
L 110.657829 86.664352 
L 111.168 102.998312 
L 111.678171 114.040078 
L 112.188343 121.067798 
L 112.698514 124.993522 
L 113.208686 127.922337 
L 113.718857 129.097847 
L 114.7392 129.743609 
L 115.759543 128.80807 
L 117.290057 128.354642 
L 117.800229 128.545589 
L 118.3104 129.118057 
L 119.330743 131.147669 
L 120.351086 134.457874 
L 121.371429 139.2653 
L 122.391771 145.305892 
L 123.412114 152.007103 
L 128.513829 188.500145 
L 130.554514 200.44833 
L 132.5952 211.33511 
L 133.105371 213.666514 
L 133.615543 223.286151 
L 134.125714 224.706251 
L 134.635886 227.269736 
L 136.1664 233.233592 
L 137.186743 237.775258 
L 137.696914 239.845423 
L 138.207086 241.315157 
L 138.717257 243.548894 
L 140.247771 248.218483 
L 142.798629 254.432838 
L 143.3088 254.046353 
L 143.818971 256.22552 
L 144.329143 256.709256 
L 144.839314 257.552494 
L 145.859657 258.541727 
L 147.390171 259.352643 
L 148.410514 259.479006 
L 149.430857 259.294527 
L 151.471543 258.167881 
L 152.491886 257.241311 
L 154.0224 255.443442 
L 156.063086 252.33286 
L 157.5936 249.487219 
L 159.124114 246.246818 
L 161.1648 241.350079 
L 163.715657 234.525313 
L 167.286857 223.620148 
L 170.347886 213.398091 
L 179.0208 183.908779 
L 181.571657 176.86377 
L 183.612343 172.103466 
L 185.142857 169.186455 
L 186.1632 167.637658 
L 187.693714 165.664327 
L 188.714057 164.651424 
L 189.224229 164.213039 
L 190.754743 163.410314 
L 191.264914 163.247125 
L 192.285257 163.177625 
L 193.3056 163.405489 
L 194.325943 163.845276 
L 195.346286 164.586498 
L 196.366629 165.559654 
L 197.386971 166.759141 
L 198.917486 169.053654 
L 200.448 171.795687 
L 202.488686 176.06468 
L 204.529371 180.834554 
L 209.120914 192.578351 
L 219.834514 220.694333 
L 222.385371 226.503004 
L 224.426057 230.647683 
L 225.956571 233.434577 
L 227.487086 235.977349 
L 230.548114 240.274199 
L 234.119314 244.512203 
L 238.200686 248.953486 
L 245.343086 257.555203 
L 246.363429 259.092309 
L 250.954971 265.480351 
L 265.239771 285.364732 
L 271.872 293.576537 
L 276.973714 298.75516 
L 280.034743 301.195967 
L 283.605943 303.440887 
L 285.136457 304.192061 
L 286.1568 304.56265 
L 288.197486 305.362508 
L 290.748343 306.11046 
L 292.789029 306.589268 
L 295.850057 307.065572 
L 296.8704 307.218828 
L 297.890743 307.49894 
L 298.911086 307.560703 
L 300.4416 307.707282 
L 301.972114 307.848962 
L 305.033143 308.090192 
L 316.767086 308.328584 
L 320.848457 308.169507 
L 321.358629 308.138879 
L 321.8688 308.252713 
L 322.889143 308.139037 
L 329.521371 307.864457 
L 333.092571 307.598877 
L 338.194286 307.584 
L 339.214629 307.734215 
L 339.7248 307.601943 
L 349.928229 308.452239 
L 361.662171 308.578916 
L 362.682514 308.523639 
L 363.192686 308.48147 
L 363.702857 308.639295 
L 363.702857 308.639295 
" clip-path="url(#pd4da73fd3a)" style="fill: none; stroke: #801f80; stroke-width: 0.5; stroke-linecap: square"/>
   </g>
   <g id="line2d_24">
    <path d="M 109.344893 -1 
L 109.637486 26.295159 
L 110.147657 61.880486 
L 110.657829 87.148058 
L 111.168 104.347501 
L 111.678171 116.019458 
L 112.188343 123.490931 
L 112.698514 127.739992 
L 113.208686 130.514527 
L 113.718857 131.78243 
L 114.229029 132.01229 
L 114.7392 131.757131 
L 116.269714 130.073299 
L 117.290057 129.425251 
L 117.800229 129.463371 
L 118.3104 129.72806 
L 119.330743 130.964346 
L 120.351086 133.522913 
L 121.371429 137.660468 
L 122.391771 142.947665 
L 123.922286 153.074381 
L 128.513829 186.096104 
L 130.044343 195.283435 
L 132.5952 209.923431 
L 133.105371 212.367988 
L 133.615543 221.606102 
L 134.125714 223.036447 
L 134.635886 225.918146 
L 136.1664 232.458105 
L 137.186743 237.368783 
L 139.227429 245.40552 
L 141.268114 251.908865 
L 142.798629 255.716609 
L 143.3088 255.399342 
L 143.818971 257.686146 
L 144.329143 258.285867 
L 144.839314 259.232151 
L 145.859657 260.330713 
L 146.369829 260.755963 
L 147.900343 261.539713 
L 148.920686 261.619768 
L 149.430857 261.604485 
L 151.981714 260.387679 
L 153.512229 258.893746 
L 155.042743 257.024863 
L 156.063086 255.593772 
L 158.103771 251.971815 
L 159.634286 248.842736 
L 161.1648 245.353785 
L 162.695314 241.636151 
L 165.756343 233.255913 
L 168.817371 224.023105 
L 173.408914 208.8145 
L 176.980114 196.949568 
L 179.0208 190.741544 
L 181.061486 185.143581 
L 182.592 181.408089 
L 184.122514 178.096893 
L 185.653029 175.310779 
L 187.183543 173.16317 
L 188.203886 171.973147 
L 189.7344 170.573527 
L 191.775086 169.650545 
L 192.795429 169.553566 
L 194.325943 169.863433 
L 195.346286 170.396896 
L 196.366629 171.125838 
L 197.897143 172.628161 
L 199.937829 175.435252 
L 201.468343 177.986787 
L 203.509029 181.813099 
L 206.059886 187.215517 
L 220.854857 221.067617 
L 224.426057 227.888238 
L 226.976914 232.059076 
L 230.037943 236.252681 
L 234.629486 241.59191 
L 236.670171 243.849393 
L 242.282057 250.578686 
L 245.343086 254.736919 
L 246.363429 256.349893 
L 262.178743 280.178889 
L 270.341486 291.466023 
L 273.402514 295.111427 
L 275.4432 297.338905 
L 277.483886 299.302601 
L 280.034743 301.413942 
L 283.605943 303.725441 
L 288.197486 305.800437 
L 291.768686 306.811528 
L 295.339886 307.49078 
L 296.360229 307.604611 
L 298.911086 308.06877 
L 302.482286 308.311862 
L 306.563657 308.562905 
L 313.195886 308.762624 
L 322.889143 308.445206 
L 335.643429 307.590801 
L 337.173943 307.603315 
L 339.7248 307.57825 
L 343.296 307.770036 
L 344.316343 307.835507 
L 347.377371 308.121784 
L 353.499429 308.323429 
L 355.540114 308.252586 
L 357.070629 308.268789 
L 360.641829 308.197461 
L 362.172343 308.156515 
L 363.192686 308.136241 
L 363.702857 308.272033 
L 363.702857 308.272033 
" clip-path="url(#pd4da73fd3a)" style="fill: none; stroke: #721f8d; stroke-width: 0.5; stroke-linecap: square"/>
   </g>
   <g id="line2d_25">
    <path d="M 109.452508 -1 
L 109.637486 17.198655 
L 110.147657 54.686649 
L 110.657829 81.281592 
L 111.168 99.934055 
L 111.678171 112.26872 
L 112.188343 120.26427 
L 112.698514 124.516675 
L 113.208686 127.64935 
L 113.718857 128.849432 
L 114.229029 129.003288 
L 114.7392 128.532373 
L 115.249371 127.771735 
L 116.269714 125.962399 
L 117.290057 124.792031 
L 118.3104 124.278937 
L 118.820571 124.527937 
L 119.840914 125.751071 
L 120.351086 126.882128 
L 120.861257 128.373415 
L 121.8816 132.407645 
L 122.901943 137.786666 
L 123.922286 144.610897 
L 126.983314 168.357601 
L 128.513829 179.325281 
L 130.554514 192.538145 
L 132.085029 201.777931 
L 133.105371 207.41613 
L 133.615543 216.510136 
L 136.676571 231.678862 
L 137.186743 233.666462 
L 138.207086 238.766354 
L 139.227429 243.125765 
L 139.7376 244.679221 
L 140.757943 248.650673 
L 142.288457 253.21207 
L 142.798629 254.565794 
L 143.3088 254.299469 
L 143.818971 256.752501 
L 144.329143 257.479983 
L 144.839314 258.50276 
L 145.859657 259.895978 
L 146.88 260.791077 
L 147.390171 261.208251 
L 148.410514 261.637986 
L 148.920686 261.777124 
L 149.430857 261.770208 
L 149.941029 261.63141 
L 150.4512 261.624791 
L 151.471543 261.233167 
L 152.491886 260.612826 
L 153.512229 259.765802 
L 155.042743 258.196048 
L 156.573257 256.183582 
L 158.103771 253.743477 
L 160.144457 249.874765 
L 162.185143 245.485534 
L 164.225829 240.56957 
L 166.776686 233.852907 
L 169.327543 226.533289 
L 173.919086 211.972402 
L 177.490286 200.769945 
L 180.041143 193.483266 
L 182.592 187.153505 
L 184.632686 182.831666 
L 185.653029 181.002993 
L 188.714057 176.888028 
L 189.7344 175.906702 
L 190.754743 175.175659 
L 191.775086 174.641721 
L 193.3056 174.27413 
L 194.325943 174.275967 
L 195.346286 174.582227 
L 196.366629 175.017995 
L 197.897143 176.061167 
L 199.427657 177.571011 
L 200.958171 179.44645 
L 202.998857 182.428916 
L 205.549714 186.657331 
L 212.692114 200.244024 
L 216.773486 208.385473 
L 220.344686 215.300451 
L 223.405714 220.739898 
L 226.466743 225.428112 
L 229.0176 228.805913 
L 231.058286 231.344885 
L 232.5888 233.067762 
L 238.710857 240.238917 
L 241.771886 244.254054 
L 245.343086 249.51572 
L 246.363429 251.297443 
L 247.893943 253.724056 
L 262.178743 277.506919 
L 270.341486 289.866274 
L 272.892343 293.274011 
L 274.422857 295.135758 
L 277.994057 298.934028 
L 279.524571 300.309676 
L 281.055086 301.54984 
L 283.095771 302.982541 
L 287.177143 305.083521 
L 290.748343 306.346668 
L 292.789029 306.854618 
L 294.319543 307.137743 
L 295.850057 307.409823 
L 296.8704 307.595488 
L 298.911086 307.904764 
L 301.461943 308.135447 
L 307.073829 308.491706 
L 310.645029 308.610577 
L 315.746743 308.667448 
L 320.848457 308.473537 
L 321.358629 308.415259 
L 321.8688 308.535128 
L 323.399314 308.401849 
L 325.44 308.258048 
L 330.541714 307.933044 
L 333.092571 307.701346 
L 335.643429 307.637598 
L 338.704457 307.583965 
L 346.8672 308.102286 
L 350.948571 308.301633 
L 351.968914 308.258357 
L 352.989257 308.289009 
L 357.070629 308.239939 
L 360.131657 308.226951 
L 361.152 308.164531 
L 363.192686 308.114537 
L 363.702857 308.236317 
L 363.702857 308.236317 
" clip-path="url(#pd4da73fd3a)" style="fill: none; stroke: #641f9b; stroke-width: 0.5; stroke-linecap: square"/>
   </g>
   <g id="line2d_26">
    <path d="M 109.624564 -1 
L 109.637486 0.321287 
L 110.147657 39.564648 
L 110.657829 67.76557 
L 111.168 87.189232 
L 111.678171 100.43214 
L 112.188343 108.99852 
L 112.698514 113.543477 
L 113.208686 116.933769 
L 113.718857 118.107032 
L 114.229029 118.441644 
L 114.7392 117.974602 
L 116.779886 114.141192 
L 117.800229 112.83386 
L 118.3104 112.594324 
L 118.820571 112.486796 
L 119.330743 112.807225 
L 120.351086 114.068876 
L 120.861257 115.336343 
L 121.371429 116.911695 
L 121.8816 118.865807 
L 122.901943 124.191111 
L 123.922286 130.915467 
L 125.4528 143.321389 
L 128.003657 164.96729 
L 129.024 172.739774 
L 132.5952 196.785825 
L 133.105371 199.396068 
L 133.615543 210.186694 
L 134.125714 212.105593 
L 135.656229 220.444379 
L 136.1664 222.779042 
L 136.676571 226.065514 
L 138.207086 233.127468 
L 139.227429 238.111175 
L 140.757943 243.913732 
L 141.778286 247.466605 
L 142.798629 250.448641 
L 143.3088 250.349838 
L 143.818971 252.946605 
L 144.329143 253.796418 
L 144.839314 254.933352 
L 145.859657 256.451424 
L 146.88 257.533265 
L 147.390171 258.029129 
L 148.410514 258.598428 
L 149.430857 258.881262 
L 149.941029 258.8066 
L 150.4512 258.883612 
L 151.471543 258.615142 
L 151.981714 258.472293 
L 153.002057 257.874664 
L 154.532571 256.625639 
L 156.063086 255.061225 
L 157.083429 253.715287 
L 159.124114 250.595169 
L 162.185143 244.803768 
L 165.246171 237.919964 
L 167.797029 231.414973 
L 169.837714 225.777634 
L 172.898743 216.653055 
L 177.490286 202.809954 
L 180.551314 194.526339 
L 182.592 189.608121 
L 185.142857 184.449772 
L 186.1632 182.794055 
L 187.183543 181.280166 
L 188.714057 179.310312 
L 189.7344 178.283412 
L 190.754743 177.438826 
L 192.285257 176.520867 
L 193.815771 176.146958 
L 194.836114 176.113967 
L 195.856457 176.229875 
L 196.8768 176.618204 
L 198.407314 177.465169 
L 199.937829 178.732425 
L 201.468343 180.316672 
L 203.509029 182.828091 
L 205.549714 185.698496 
L 207.5904 188.831316 
L 215.242971 201.591493 
L 219.324343 208.722491 
L 223.915886 216.07526 
L 225.956571 218.951586 
L 239.221029 235.242026 
L 242.282057 239.659622 
L 246.8736 247.24301 
L 256.056686 263.545805 
L 258.607543 268.16744 
L 262.178743 274.567477 
L 265.239771 279.958577 
L 269.831314 287.356397 
L 272.892343 291.792299 
L 275.4432 295.070334 
L 277.483886 297.33363 
L 281.055086 300.60906 
L 284.116114 302.719373 
L 286.666971 304.12068 
L 291.258514 305.803105 
L 295.850057 306.817553 
L 296.8704 306.967023 
L 297.890743 307.237088 
L 300.4416 307.481866 
L 303.502629 307.790477 
L 306.053486 307.922093 
L 310.134857 308.164516 
L 315.746743 308.30258 
L 317.787429 308.230542 
L 327.990857 307.987173 
L 333.602743 307.602358 
L 339.7248 307.597105 
L 341.255314 307.72 
L 343.296 307.854537 
L 345.846857 308.113069 
L 353.499429 308.468881 
L 357.5808 308.501005 
L 359.111314 308.452276 
L 361.152 308.446571 
L 362.682514 308.40922 
L 363.192686 308.418408 
L 363.702857 308.548376 
L 363.702857 308.548376 
" clip-path="url(#pd4da73fd3a)" style="fill: none; stroke: #561fa9; stroke-width: 0.5; stroke-linecap: square"/>
   </g>
   <g id="line2d_27">
    <path d="M 109.746258 -1 
L 110.147657 30.681005 
L 110.657829 60.241971 
L 111.168 80.414456 
L 111.678171 94.285982 
L 112.188343 103.112279 
L 112.698514 108.007961 
L 113.208686 111.518932 
L 113.718857 112.722781 
L 114.229029 112.754729 
L 114.7392 112.124261 
L 117.290057 106.608909 
L 117.800229 105.816706 
L 118.3104 105.318086 
L 118.820571 105.05879 
L 119.330743 104.986448 
L 120.351086 105.689589 
L 120.861257 106.593642 
L 121.8816 109.676658 
L 122.901943 114.678942 
L 123.922286 121.667167 
L 125.4528 134.819942 
L 128.003657 158.63994 
L 130.044343 174.75809 
L 133.105371 195.696884 
L 133.615543 206.336601 
L 136.1664 220.300917 
L 138.207086 231.428798 
L 139.227429 236.362277 
L 139.7376 238.196912 
L 140.757943 242.694265 
L 142.288457 248.109193 
L 142.798629 249.64088 
L 143.3088 249.521588 
L 143.818971 252.295865 
L 144.329143 253.200672 
L 144.839314 254.472917 
L 145.859657 256.130924 
L 146.88 257.356748 
L 147.390171 257.980829 
L 148.920686 258.897126 
L 149.430857 259.116147 
L 149.941029 259.071807 
L 150.4512 259.201088 
L 151.471543 259.100616 
L 152.491886 258.76536 
L 153.512229 258.232502 
L 155.042743 257.119992 
L 156.573257 255.615607 
L 158.613943 252.879628 
L 160.654629 249.556582 
L 162.695314 245.767241 
L 164.736 241.500732 
L 167.286857 235.584481 
L 169.327543 230.36726 
L 172.388571 221.826193 
L 176.980114 208.481501 
L 179.530971 201.54811 
L 181.571657 196.458422 
L 184.122514 190.904884 
L 185.653029 188.040652 
L 188.203886 184.258594 
L 189.224229 183.051956 
L 190.754743 181.595591 
L 191.775086 180.798775 
L 192.795429 180.262616 
L 193.815771 179.862602 
L 194.836114 179.645934 
L 196.366629 179.699863 
L 197.897143 180.093255 
L 199.427657 180.852955 
L 201.978514 182.868689 
L 203.509029 184.393483 
L 205.039543 186.107213 
L 207.5904 189.262676 
L 212.181943 195.516486 
L 216.773486 202.364614 
L 220.344686 207.770641 
L 224.936229 214.172954 
L 230.548114 220.906966 
L 234.629486 225.657039 
L 237.180343 228.897156 
L 239.7312 232.446149 
L 243.812571 238.830632 
L 245.343086 241.418451 
L 246.363429 243.400624 
L 256.056686 261.586213 
L 261.668571 272.315445 
L 267.280457 282.538123 
L 272.382171 290.769691 
L 275.953371 295.568034 
L 279.524571 299.422172 
L 282.075429 301.601149 
L 285.646629 303.887564 
L 288.197486 305.132854 
L 290.238171 305.891194 
L 292.278857 306.486338 
L 294.319543 306.96064 
L 298.911086 307.79848 
L 311.1552 308.573892 
L 316.767086 308.61252 
L 321.358629 308.380899 
L 321.8688 308.508278 
L 322.889143 308.350177 
L 325.44 308.247486 
L 329.521371 307.95904 
L 331.051886 307.835414 
L 332.5824 307.696975 
L 338.704457 307.550889 
L 352.989257 308.292275 
L 355.029943 308.277606 
L 359.621486 308.267557 
L 363.192686 308.173595 
L 363.702857 308.298155 
L 363.702857 308.298155 
" clip-path="url(#pd4da73fd3a)" style="fill: none; stroke: #481fb7; stroke-width: 0.5; stroke-linecap: square"/>
   </g>
   <g id="line2d_28">
    <path d="M 109.844275 -1 
L 110.147657 24.086395 
L 110.657829 54.626307 
L 111.168 76.129229 
L 111.678171 90.705152 
L 112.188343 100.197698 
L 112.698514 105.337713 
L 113.208686 109.115648 
L 113.718857 110.48599 
L 114.229029 110.618011 
L 114.7392 109.810977 
L 115.759543 107.558854 
L 116.779886 104.975503 
L 117.290057 103.913852 
L 118.820571 101.790458 
L 119.840914 101.506431 
L 120.351086 101.774081 
L 120.861257 102.367883 
L 121.371429 103.482895 
L 121.8816 104.947956 
L 122.391771 106.842706 
L 123.412114 112.838728 
L 124.432457 120.460409 
L 129.534171 166.699093 
L 133.105371 192.22234 
L 133.615543 203.262566 
L 134.635886 208.752011 
L 137.186743 223.62455 
L 138.717257 232.037753 
L 140.247771 239.241225 
L 140.757943 241.089032 
L 141.778286 245.242276 
L 142.798629 248.741636 
L 143.3088 248.780074 
L 143.818971 251.622457 
L 144.329143 252.622842 
L 145.349486 254.944792 
L 146.369829 256.512075 
L 147.900343 258.246673 
L 148.920686 258.950812 
L 149.430857 259.181772 
L 149.941029 259.182238 
L 150.4512 259.436168 
L 151.981714 259.374334 
L 154.0224 258.564713 
L 156.063086 257.107999 
L 157.5936 255.523665 
L 159.634286 252.81053 
L 162.185143 248.727328 
L 164.736 243.920332 
L 168.3072 236.076226 
L 170.858057 229.68904 
L 173.919086 221.349282 
L 177.490286 211.475696 
L 180.551314 203.670524 
L 182.592 198.983818 
L 184.122514 195.733735 
L 185.653029 192.853958 
L 187.183543 190.458751 
L 188.714057 188.316747 
L 190.244571 186.560283 
L 191.775086 185.178071 
L 192.795429 184.471163 
L 194.325943 183.719037 
L 196.366629 183.254268 
L 197.386971 183.243442 
L 198.407314 183.366937 
L 199.427657 183.637997 
L 200.448 184.066562 
L 202.998857 185.564576 
L 205.549714 187.589576 
L 207.080229 189.021381 
L 209.631086 191.522517 
L 214.7328 197.306219 
L 217.283657 200.432436 
L 221.8752 206.249633 
L 225.956571 211.086752 
L 230.548114 216.130495 
L 235.139657 221.52522 
L 238.200686 225.635353 
L 241.771886 231.141512 
L 245.343086 237.357294 
L 246.363429 239.52327 
L 247.893943 242.37893 
L 254.526171 255.612189 
L 263.199086 273.175339 
L 267.280457 281.037069 
L 272.892343 290.551171 
L 275.953371 294.803874 
L 277.994057 297.229182 
L 280.544914 299.841444 
L 283.095771 301.937969 
L 285.646629 303.587325 
L 287.687314 304.632958 
L 289.728 305.492422 
L 291.768686 306.166685 
L 294.319543 306.82934 
L 296.360229 307.146948 
L 298.400914 307.603184 
L 306.053486 308.330144 
L 306.563657 308.288123 
L 308.094171 308.402638 
L 313.195886 308.564063 
L 318.2976 308.524235 
L 321.358629 308.372695 
L 321.8688 308.521094 
L 322.889143 308.35931 
L 336.1536 307.616622 
L 343.296 307.84612 
L 345.336686 308.045865 
L 346.8672 308.109374 
L 347.887543 308.194229 
L 350.948571 308.342125 
L 352.989257 308.388114 
L 355.540114 308.385563 
L 358.090971 308.352617 
L 360.641829 308.333737 
L 363.192686 308.254308 
L 363.702857 308.379753 
L 363.702857 308.379753 
" clip-path="url(#pd4da73fd3a)" style="fill: none; stroke: #3a1fc5; stroke-width: 0.5; stroke-linecap: square"/>
   </g>
   <g id="line2d_29">
    <path d="M 110.288671 -1 
L 110.657829 23.496954 
L 111.168 47.087964 
L 111.678171 63.263666 
L 112.188343 73.907506 
L 112.698514 79.834266 
L 113.208686 84.283367 
L 113.718857 85.77924 
L 114.229029 85.963101 
L 114.7392 85.327662 
L 115.249371 84.226583 
L 116.779886 80.201803 
L 117.800229 78.106709 
L 118.820571 76.600447 
L 119.840914 75.772635 
L 120.351086 75.666707 
L 120.861257 76.034747 
L 121.371429 76.603831 
L 121.8816 78.025974 
L 122.391771 80.027723 
L 122.901943 82.774065 
L 123.922286 90.28264 
L 124.942629 100.315099 
L 125.962971 111.19895 
L 128.003657 132.901159 
L 130.044343 150.783466 
L 132.5952 171.118413 
L 133.105371 174.481767 
L 133.615543 186.630376 
L 134.635886 193.024376 
L 135.146057 195.8139 
L 135.656229 199.598682 
L 136.1664 202.525752 
L 136.676571 206.172088 
L 137.186743 208.904168 
L 138.207086 215.434755 
L 139.227429 221.372505 
L 139.7376 223.650674 
L 140.757943 228.919914 
L 142.288457 235.476336 
L 142.798629 237.275474 
L 143.3088 237.515869 
L 143.818971 240.581244 
L 145.859657 245.484355 
L 147.390171 248.134999 
L 148.920686 249.630845 
L 149.430857 250.064921 
L 149.941029 250.224633 
L 150.4512 250.640119 
L 151.981714 251.040351 
L 153.002057 251.03174 
L 154.0224 250.872735 
L 155.552914 250.33992 
L 156.573257 249.759158 
L 158.103771 248.541093 
L 159.124114 247.524073 
L 162.185143 243.770928 
L 164.225829 240.692982 
L 165.756343 238.161049 
L 167.797029 234.356877 
L 170.347886 228.954526 
L 174.429257 219.054484 
L 178.510629 208.954224 
L 180.551314 204.173564 
L 183.102171 198.655199 
L 185.142857 194.718015 
L 186.1632 193.029861 
L 188.203886 189.896327 
L 190.244571 187.304358 
L 192.285257 185.306231 
L 193.815771 184.098469 
L 196.366629 182.870074 
L 197.386971 182.549698 
L 198.917486 182.285829 
L 200.448 182.34445 
L 201.468343 182.492306 
L 202.998857 182.836514 
L 206.570057 184.322962 
L 211.1616 187.111205 
L 216.773486 191.623633 
L 221.8752 196.548341 
L 224.426057 199.115487 
L 229.0176 203.7923 
L 232.078629 207.148688 
L 235.139657 211.041916 
L 238.200686 215.441285 
L 242.792229 223.457375 
L 245.343086 228.405783 
L 246.363429 230.735198 
L 252.995657 245.211544 
L 258.607543 257.803911 
L 264.7296 271.306766 
L 269.831314 281.635379 
L 272.382171 286.300322 
L 274.422857 289.662502 
L 276.463543 292.659186 
L 279.0144 295.922568 
L 281.565257 298.598058 
L 283.095771 299.975082 
L 285.136457 301.50876 
L 290.238171 304.188818 
L 292.278857 304.959087 
L 295.850057 305.894419 
L 297.380571 306.297724 
L 298.400914 306.498239 
L 306.053486 307.563953 
L 307.073829 307.626385 
L 314.7264 307.974685 
L 318.807771 307.977189 
L 320.338286 307.919249 
L 321.358629 307.922083 
L 321.8688 308.062501 
L 322.889143 307.951632 
L 338.194286 307.584 
L 339.214629 307.696246 
L 339.7248 307.608034 
L 348.397714 308.428563 
L 349.418057 308.525038 
L 349.928229 308.455642 
L 351.458743 308.570424 
L 353.499429 308.658914 
L 355.540114 308.669145 
L 357.070629 308.66698 
L 361.152 308.730979 
L 362.172343 308.630332 
L 363.702857 308.801216 
L 363.702857 308.801216 
" clip-path="url(#pd4da73fd3a)" style="fill: none; stroke: #2c1fd3; stroke-width: 0.5; stroke-linecap: square"/>
   </g>
   <g id="line2d_30">
    <path d="M 110.252217 -1 
L 110.657829 26.085213 
L 111.168 50.365644 
L 111.678171 67.015287 
L 112.188343 77.889992 
L 112.698514 83.767819 
L 113.208686 87.996669 
L 113.718857 89.492251 
L 114.229029 89.595563 
L 115.249371 87.514149 
L 116.269714 84.249163 
L 117.290057 81.225483 
L 119.330743 77.465564 
L 119.840914 76.788119 
L 120.351086 76.455873 
L 120.861257 76.537692 
L 121.371429 77.124463 
L 121.8816 78.095161 
L 122.391771 80.002878 
L 122.901943 82.6918 
L 123.922286 90.243479 
L 124.942629 100.375667 
L 128.513829 139.982733 
L 130.044343 153.817302 
L 132.5952 174.862513 
L 133.105371 178.405036 
L 133.615543 191.136622 
L 134.635886 197.66822 
L 135.146057 200.208071 
L 136.676571 211.034861 
L 138.207086 220.717006 
L 139.227429 226.779817 
L 139.7376 229.150802 
L 140.757943 234.702992 
L 142.288457 241.305967 
L 142.798629 243.257872 
L 143.3088 243.479318 
L 143.818971 246.661488 
L 146.369829 252.64287 
L 147.390171 254.294612 
L 148.410514 255.536258 
L 149.430857 256.376842 
L 149.941029 256.605638 
L 150.4512 256.972263 
L 151.471543 257.332319 
L 152.491886 257.462109 
L 153.512229 257.414086 
L 154.532571 257.249093 
L 156.063086 256.688977 
L 157.5936 255.664366 
L 159.634286 253.809944 
L 163.715657 248.501172 
L 165.246171 246.112356 
L 167.286857 242.617602 
L 170.347886 236.371154 
L 176.469943 221.563905 
L 178.510629 216.519217 
L 181.571657 209.471637 
L 184.122514 204.075881 
L 186.1632 200.338605 
L 188.203886 197.051657 
L 189.7344 194.886363 
L 191.264914 193.016409 
L 193.3056 191.039285 
L 194.325943 190.176327 
L 195.856457 189.091201 
L 197.897143 188.11359 
L 199.427657 187.619081 
L 200.958171 187.421631 
L 201.468343 187.339918 
L 205.039543 187.667419 
L 206.059886 187.877716 
L 208.100571 188.58358 
L 208.610743 188.694637 
L 210.651429 189.549704 
L 213.202286 190.816365 
L 215.753143 192.380072 
L 218.814171 194.592462 
L 220.854857 196.283048 
L 221.8752 197.079071 
L 227.997257 202.568912 
L 229.527771 204.075716 
L 232.5888 207.379655 
L 236.16 211.961802 
L 239.221029 216.640518 
L 241.771886 221.103894 
L 245.343086 228.096111 
L 246.363429 230.491007 
L 252.995657 245.341103 
L 256.566857 253.626512 
L 267.280457 277.334475 
L 269.831314 282.44491 
L 271.872 286.250645 
L 275.953371 292.877368 
L 279.0144 296.869468 
L 281.055086 299.139755 
L 283.605943 301.432357 
L 286.1568 303.200029 
L 288.197486 304.331002 
L 289.728 305.072013 
L 291.258514 305.700952 
L 295.850057 306.908859 
L 296.360229 306.953718 
L 297.380571 307.28259 
L 301.972114 307.923468 
L 304.0128 308.064861 
L 306.053486 308.231137 
L 309.624686 308.424467 
L 318.807771 308.464558 
L 320.338286 308.335432 
L 321.358629 308.318916 
L 321.8688 308.464069 
L 322.889143 308.318323 
L 337.684114 307.544278 
L 339.214629 307.59351 
L 340.234971 307.608487 
L 343.806171 307.820502 
L 352.479086 308.310668 
L 357.5808 308.3191 
L 360.131657 308.234496 
L 362.682514 308.18816 
L 363.192686 308.171705 
L 363.702857 308.330386 
L 363.702857 308.330386 
" clip-path="url(#pd4da73fd3a)" style="fill: none; stroke: #1f1fe0; stroke-width: 0.5; stroke-linecap: square"/>
   </g>
   <g id="patch_3">
    <path d="M 57.6 307.584 
L 57.6 41.472 
" style="fill: none; stroke: #000000; stroke-width: 0.8; stroke-linejoin: miter; stroke-linecap: square"/>
   </g>
   <g id="patch_4">
    <path d="M 414.72 307.584 
L 414.72 41.472 
" style="fill: none; stroke: #000000; stroke-width: 0.8; stroke-linejoin: miter; stroke-linecap: square"/>
   </g>
   <g id="patch_5">
    <path d="M 57.6 307.584 
L 414.72 307.584 
" style="fill: none; stroke: #000000; stroke-width: 0.8; stroke-linejoin: miter; stroke-linecap: square"/>
   </g>
   <g id="patch_6">
    <path d="M 57.6 41.472 
L 414.72 41.472 
" style="fill: none; stroke: #000000; stroke-width: 0.8; stroke-linejoin: miter; stroke-linecap: square"/>
   </g>
   <g id="text_18">
    <!-- IDA Titration of Alizarin:ompPBA complex &amp; Catechol in MeOH  -->
    <g transform="translate(48.276563 22.034625) scale(0.12 -0.12)">
     <defs>
      <path id="DejaVuSans-49" d="M 628 4666 
L 1259 4666 
L 1259 0 
L 628 0 
L 628 4666 
z
" transform="scale(0.015625)"/>
      <path id="DejaVuSans-44" d="M 1259 4147 
L 1259 519 
L 2022 519 
Q 2988 519 3436 956 
Q 3884 1394 3884 2338 
Q 3884 3275 3436 3711 
Q 2988 4147 2022 4147 
L 1259 4147 
z
M 628 4666 
L 1925 4666 
Q 3281 4666 3915 4102 
Q 4550 3538 4550 2338 
Q 4550 1131 3912 565 
Q 3275 0 1925 0 
L 628 0 
L 628 4666 
z
" transform="scale(0.015625)"/>
      <path id="DejaVuSans-54" d="M -19 4666 
L 3928 4666 
L 3928 4134 
L 2272 4134 
L 2272 0 
L 1638 0 
L 1638 4134 
L -19 4134 
L -19 4666 
z
" transform="scale(0.015625)"/>
      <path id="DejaVuSans-69" d="M 603 3500 
L 1178 3500 
L 1178 0 
L 603 0 
L 603 3500 
z
M 603 4863 
L 1178 4863 
L 1178 4134 
L 603 4134 
L 603 4863 
z
" transform="scale(0.015625)"/>
      <path id="DejaVuSans-66" d="M 2375 4863 
L 2375 4384 
L 1825 4384 
Q 1516 4384 1395 4259 
Q 1275 4134 1275 3809 
L 1275 3500 
L 2222 3500 
L 2222 3053 
L 1275 3053 
L 1275 0 
L 697 0 
L 697 3053 
L 147 3053 
L 147 3500 
L 697 3500 
L 697 3744 
Q 697 4328 969 4595 
Q 1241 4863 1831 4863 
L 2375 4863 
z
" transform="scale(0.015625)"/>
      <path id="DejaVuSans-7a" d="M 353 3500 
L 3084 3500 
L 3084 2975 
L 922 459 
L 3084 459 
L 3084 0 
L 275 0 
L 275 525 
L 2438 3041 
L 353 3041 
L 353 3500 
z
" transform="scale(0.015625)"/>
      <path id="DejaVuSans-3a" d="M 750 794 
L 1409 794 
L 1409 0 
L 750 0 
L 750 794 
z
M 750 3309 
L 1409 3309 
L 1409 2516 
L 750 2516 
L 750 3309 
z
" transform="scale(0.015625)"/>
      <path id="DejaVuSans-70" d="M 1159 525 
L 1159 -1331 
L 581 -1331 
L 581 3500 
L 1159 3500 
L 1159 2969 
Q 1341 3281 1617 3432 
Q 1894 3584 2278 3584 
Q 2916 3584 3314 3078 
Q 3713 2572 3713 1747 
Q 3713 922 3314 415 
Q 2916 -91 2278 -91 
Q 1894 -91 1617 61 
Q 1341 213 1159 525 
z
M 3116 1747 
Q 3116 2381 2855 2742 
Q 2594 3103 2138 3103 
Q 1681 3103 1420 2742 
Q 1159 2381 1159 1747 
Q 1159 1113 1420 752 
Q 1681 391 2138 391 
Q 2594 391 2855 752 
Q 3116 1113 3116 1747 
z
" transform="scale(0.015625)"/>
      <path id="DejaVuSans-50" d="M 1259 4147 
L 1259 2394 
L 2053 2394 
Q 2494 2394 2734 2622 
Q 2975 2850 2975 3272 
Q 2975 3691 2734 3919 
Q 2494 4147 2053 4147 
L 1259 4147 
z
M 628 4666 
L 2053 4666 
Q 2838 4666 3239 4311 
Q 3641 3956 3641 3272 
Q 3641 2581 3239 2228 
Q 2838 1875 2053 1875 
L 1259 1875 
L 1259 0 
L 628 0 
L 628 4666 
z
" transform="scale(0.015625)"/>
      <path id="DejaVuSans-42" d="M 1259 2228 
L 1259 519 
L 2272 519 
Q 2781 519 3026 730 
Q 3272 941 3272 1375 
Q 3272 1813 3026 2020 
Q 2781 2228 2272 2228 
L 1259 2228 
z
M 1259 4147 
L 1259 2741 
L 2194 2741 
Q 2656 2741 2882 2914 
Q 3109 3088 3109 3444 
Q 3109 3797 2882 3972 
Q 2656 4147 2194 4147 
L 1259 4147 
z
M 628 4666 
L 2241 4666 
Q 2963 4666 3353 4366 
Q 3744 4066 3744 3513 
Q 3744 3084 3544 2831 
Q 3344 2578 2956 2516 
Q 3422 2416 3680 2098 
Q 3938 1781 3938 1306 
Q 3938 681 3513 340 
Q 3088 0 2303 0 
L 628 0 
L 628 4666 
z
" transform="scale(0.015625)"/>
      <path id="DejaVuSans-78" d="M 3513 3500 
L 2247 1797 
L 3578 0 
L 2900 0 
L 1881 1375 
L 863 0 
L 184 0 
L 1544 1831 
L 300 3500 
L 978 3500 
L 1906 2253 
L 2834 3500 
L 3513 3500 
z
" transform="scale(0.015625)"/>
      <path id="DejaVuSans-26" d="M 1556 2509 
Q 1272 2256 1139 2004 
Q 1006 1753 1006 1478 
Q 1006 1022 1337 719 
Q 1669 416 2169 416 
Q 2466 416 2725 514 
Q 2984 613 3213 813 
L 1556 2509 
z
M 1997 2859 
L 3584 1234 
Q 3769 1513 3872 1830 
Q 3975 2147 3994 2503 
L 4575 2503 
Q 4538 2091 4375 1687 
Q 4213 1284 3922 891 
L 4794 0 
L 4006 0 
L 3559 459 
Q 3234 181 2878 45 
Q 2522 -91 2113 -91 
Q 1359 -91 881 339 
Q 403 769 403 1441 
Q 403 1841 612 2192 
Q 822 2544 1241 2853 
Q 1091 3050 1012 3245 
Q 934 3441 934 3628 
Q 934 4134 1281 4442 
Q 1628 4750 2203 4750 
Q 2463 4750 2720 4694 
Q 2978 4638 3244 4525 
L 3244 3956 
Q 2972 4103 2725 4179 
Q 2478 4256 2266 4256 
Q 1938 4256 1733 4082 
Q 1528 3909 1528 3634 
Q 1528 3475 1620 3314 
Q 1713 3153 1997 2859 
z
" transform="scale(0.015625)"/>
      <path id="DejaVuSans-43" d="M 4122 4306 
L 4122 3641 
Q 3803 3938 3442 4084 
Q 3081 4231 2675 4231 
Q 1875 4231 1450 3742 
Q 1025 3253 1025 2328 
Q 1025 1406 1450 917 
Q 1875 428 2675 428 
Q 3081 428 3442 575 
Q 3803 722 4122 1019 
L 4122 359 
Q 3791 134 3420 21 
Q 3050 -91 2638 -91 
Q 1578 -91 968 557 
Q 359 1206 359 2328 
Q 359 3453 968 4101 
Q 1578 4750 2638 4750 
Q 3056 4750 3426 4639 
Q 3797 4528 4122 4306 
z
" transform="scale(0.015625)"/>
      <path id="DejaVuSans-4d" d="M 628 4666 
L 1569 4666 
L 2759 1491 
L 3956 4666 
L 4897 4666 
L 4897 0 
L 4281 0 
L 4281 4097 
L 3078 897 
L 2444 897 
L 1241 4097 
L 1241 0 
L 628 0 
L 628 4666 
z
" transform="scale(0.015625)"/>
      <path id="DejaVuSans-4f" d="M 2522 4238 
Q 1834 4238 1429 3725 
Q 1025 3213 1025 2328 
Q 1025 1447 1429 934 
Q 1834 422 2522 422 
Q 3209 422 3611 934 
Q 4013 1447 4013 2328 
Q 4013 3213 3611 3725 
Q 3209 4238 2522 4238 
z
M 2522 4750 
Q 3503 4750 4090 4092 
Q 4678 3434 4678 2328 
Q 4678 1225 4090 567 
Q 3503 -91 2522 -91 
Q 1538 -91 948 565 
Q 359 1222 359 2328 
Q 359 3434 948 4092 
Q 1538 4750 2522 4750 
z
" transform="scale(0.015625)"/>
      <path id="DejaVuSans-48" d="M 628 4666 
L 1259 4666 
L 1259 2753 
L 3553 2753 
L 3553 4666 
L 4184 4666 
L 4184 0 
L 3553 0 
L 3553 2222 
L 1259 2222 
L 1259 0 
L 628 0 
L 628 4666 
z
" transform="scale(0.015625)"/>
     </defs>
     <use xlink:href="#DejaVuSans-49"/>
     <use xlink:href="#DejaVuSans-44" x="29.492188"/>
     <use xlink:href="#DejaVuSans-41" x="104.744141"/>
     <use xlink:href="#DejaVuSans-20" x="173.152344"/>
     <use xlink:href="#DejaVuSans-54" x="204.939453"/>
     <use xlink:href="#DejaVuSans-69" x="262.898438"/>
     <use xlink:href="#DejaVuSans-74" x="290.681641"/>
     <use xlink:href="#DejaVuSans-72" x="329.890625"/>
     <use xlink:href="#DejaVuSans-61" x="371.003906"/>
     <use xlink:href="#DejaVuSans-74" x="432.283203"/>
     <use xlink:href="#DejaVuSans-69" x="471.492188"/>
     <use xlink:href="#DejaVuSans-6f" x="499.275391"/>
     <use xlink:href="#DejaVuSans-6e" x="560.457031"/>
     <use xlink:href="#DejaVuSans-20" x="623.835938"/>
     <use xlink:href="#DejaVuSans-6f" x="655.623047"/>
     <use xlink:href="#DejaVuSans-66" x="716.804688"/>
     <use xlink:href="#DejaVuSans-20" x="752.009766"/>
     <use xlink:href="#DejaVuSans-41" x="783.796875"/>
     <use xlink:href="#DejaVuSans-6c" x="852.205078"/>
     <use xlink:href="#DejaVuSans-69" x="879.988281"/>
     <use xlink:href="#DejaVuSans-7a" x="907.771484"/>
     <use xlink:href="#DejaVuSans-61" x="960.261719"/>
     <use xlink:href="#DejaVuSans-72" x="1021.541016"/>
     <use xlink:href="#DejaVuSans-69" x="1062.654297"/>
     <use xlink:href="#DejaVuSans-6e" x="1090.4375"/>
     <use xlink:href="#DejaVuSans-3a" x="1153.816406"/>
     <use xlink:href="#DejaVuSans-6f" x="1187.507812"/>
     <use xlink:href="#DejaVuSans-6d" x="1248.689453"/>
     <use xlink:href="#DejaVuSans-70" x="1346.101562"/>
     <use xlink:href="#DejaVuSans-50" x="1409.578125"/>
     <use xlink:href="#DejaVuSans-42" x="1469.880859"/>
     <use xlink:href="#DejaVuSans-41" x="1538.484375"/>
     <use xlink:href="#DejaVuSans-20" x="1606.892578"/>
     <use xlink:href="#DejaVuSans-63" x="1638.679688"/>
     <use xlink:href="#DejaVuSans-6f" x="1693.660156"/>
     <use xlink:href="#DejaVuSans-6d" x="1754.841797"/>
     <use xlink:href="#DejaVuSans-70" x="1852.253906"/>
     <use xlink:href="#DejaVuSans-6c" x="1915.730469"/>
     <use xlink:href="#DejaVuSans-65" x="1943.513672"/>
     <use xlink:href="#DejaVuSans-78" x="2003.287109"/>
     <use xlink:href="#DejaVuSans-20" x="2062.466797"/>
     <use xlink:href="#DejaVuSans-26" x="2094.253906"/>
     <use xlink:href="#DejaVuSans-20" x="2172.232422"/>
     <use xlink:href="#DejaVuSans-43" x="2204.019531"/>
     <use xlink:href="#DejaVuSans-61" x="2273.84375"/>
     <use xlink:href="#DejaVuSans-74" x="2335.123047"/>
     <use xlink:href="#DejaVuSans-65" x="2374.332031"/>
     <use xlink:href="#DejaVuSans-63" x="2435.855469"/>
     <use xlink:href="#DejaVuSans-68" x="2490.835938"/>
     <use xlink:href="#DejaVuSans-6f" x="2554.214844"/>
     <use xlink:href="#DejaVuSans-6c" x="2615.396484"/>
     <use xlink:href="#DejaVuSans-20" x="2643.179688"/>
     <use xlink:href="#DejaVuSans-69" x="2674.966797"/>
     <use xlink:href="#DejaVuSans-6e" x="2702.75"/>
     <use xlink:href="#DejaVuSans-20" x="2766.128906"/>
     <use xlink:href="#DejaVuSans-4d" x="2797.916016"/>
     <use xlink:href="#DejaVuSans-65" x="2884.195312"/>
     <use xlink:href="#DejaVuSans-4f" x="2945.71875"/>
     <use xlink:href="#DejaVuSans-48" x="3024.429688"/>
     <use xlink:href="#DejaVuSans-20" x="3099.625"/>
    </g>
    <!--  -->
    <g transform="translate(236.16 35.472) scale(0.12 -0.12)"/>
   </g>
  </g>
 </g>
 <defs>
  <clipPath id="pd4da73fd3a">
   <rect x="57.6" y="41.472" width="357.12" height="266.112"/>
  </clipPath>
 </defs>
</svg>
