<?xml version="1.0" encoding="utf-8" standalone="no"?>
<!DOCTYPE svg PUBLIC "-//W3C//DTD SVG 1.1//EN"
  "http://www.w3.org/Graphics/SVG/1.1/DTD/svg11.dtd">
<svg xmlns:xlink="http://www.w3.org/1999/xlink" width="460.8pt" height="345.6pt" viewBox="0 0 460.8 345.6" xmlns="http://www.w3.org/2000/svg" version="1.1">
 <metadata>
  <rdf:RDF xmlns:dc="http://purl.org/dc/elements/1.1/" xmlns:cc="http://creativecommons.org/ns#" xmlns:rdf="http://www.w3.org/1999/02/22-rdf-syntax-ns#">
   <cc:Work>
    <dc:type rdf:resource="http://purl.org/dc/dcmitype/StillImage"/>
    <dc:date>2024-11-03T21:07:16.367153</dc:date>
    <dc:format>image/svg+xml</dc:format>
    <dc:creator>
     <cc:Agent>
      <dc:title>Matplotlib v3.9.2, https://matplotlib.org/</dc:title>
     </cc:Agent>
    </dc:creator>
   </cc:Work>
  </rdf:RDF>
 </metadata>
 <defs>
  <style type="text/css">*{stroke-linejoin: round; stroke-linecap: butt}</style>
 </defs>
 <g id="figure_1">
  <g id="patch_1">
   <path d="M 0 345.6 
L 460.8 345.6 
L 460.8 0 
L 0 0 
z
" style="fill: #ffffff"/>
  </g>
  <g id="axes_1">
   <g id="patch_2">
    <path d="M 57.6 307.584 
L 414.72 307.584 
L 414.72 41.472 
L 57.6 41.472 
z
" style="fill: #ffffff"/>
   </g>
   <g id="matplotlib.axis_1">
    <g id="xtick_1">
     <g id="line2d_1">
      <defs>
       <path id="m99e6a018b5" d="M 0 0 
L 0 3.5 
" style="stroke: #000000; stroke-width: 0.8"/>
      </defs>
      <g>
       <use xlink:href="#m99e6a018b5" x="57.6" y="307.584" style="stroke: #000000; stroke-width: 0.8"/>
      </g>
     </g>
     <g id="text_1">
      <!-- 200 -->
      <g transform="translate(48.05625 322.182437) scale(0.1 -0.1)">
       <defs>
        <path id="DejaVuSans-32" d="M 1228 531 
L 3431 531 
L 3431 0 
L 469 0 
L 469 531 
Q 828 903 1448 1529 
Q 2069 2156 2228 2338 
Q 2531 2678 2651 2914 
Q 2772 3150 2772 3378 
Q 2772 3750 2511 3984 
Q 2250 4219 1831 4219 
Q 1534 4219 1204 4116 
Q 875 4013 500 3803 
L 500 4441 
Q 881 4594 1212 4672 
Q 1544 4750 1819 4750 
Q 2544 4750 2975 4387 
Q 3406 4025 3406 3419 
Q 3406 3131 3298 2873 
Q 3191 2616 2906 2266 
Q 2828 2175 2409 1742 
Q 1991 1309 1228 531 
z
" transform="scale(0.015625)"/>
        <path id="DejaVuSans-30" d="M 2034 4250 
Q 1547 4250 1301 3770 
Q 1056 3291 1056 2328 
Q 1056 1369 1301 889 
Q 1547 409 2034 409 
Q 2525 409 2770 889 
Q 3016 1369 3016 2328 
Q 3016 3291 2770 3770 
Q 2525 4250 2034 4250 
z
M 2034 4750 
Q 2819 4750 3233 4129 
Q 3647 3509 3647 2328 
Q 3647 1150 3233 529 
Q 2819 -91 2034 -91 
Q 1250 -91 836 529 
Q 422 1150 422 2328 
Q 422 3509 836 4129 
Q 1250 4750 2034 4750 
z
" transform="scale(0.015625)"/>
       </defs>
       <use xlink:href="#DejaVuSans-32"/>
       <use xlink:href="#DejaVuSans-30" x="63.623047"/>
       <use xlink:href="#DejaVuSans-30" x="127.246094"/>
      </g>
     </g>
    </g>
    <g id="xtick_2">
     <g id="line2d_2">
      <g>
       <use xlink:href="#m99e6a018b5" x="108.617143" y="307.584" style="stroke: #000000; stroke-width: 0.8"/>
      </g>
     </g>
     <g id="text_2">
      <!-- 300 -->
      <g transform="translate(99.073393 322.182437) scale(0.1 -0.1)">
       <defs>
        <path id="DejaVuSans-33" d="M 2597 2516 
Q 3050 2419 3304 2112 
Q 3559 1806 3559 1356 
Q 3559 666 3084 287 
Q 2609 -91 1734 -91 
Q 1441 -91 1130 -33 
Q 819 25 488 141 
L 488 750 
Q 750 597 1062 519 
Q 1375 441 1716 441 
Q 2309 441 2620 675 
Q 2931 909 2931 1356 
Q 2931 1769 2642 2001 
Q 2353 2234 1838 2234 
L 1294 2234 
L 1294 2753 
L 1863 2753 
Q 2328 2753 2575 2939 
Q 2822 3125 2822 3475 
Q 2822 3834 2567 4026 
Q 2313 4219 1838 4219 
Q 1578 4219 1281 4162 
Q 984 4106 628 3988 
L 628 4550 
Q 988 4650 1302 4700 
Q 1616 4750 1894 4750 
Q 2613 4750 3031 4423 
Q 3450 4097 3450 3541 
Q 3450 3153 3228 2886 
Q 3006 2619 2597 2516 
z
" transform="scale(0.015625)"/>
       </defs>
       <use xlink:href="#DejaVuSans-33"/>
       <use xlink:href="#DejaVuSans-30" x="63.623047"/>
       <use xlink:href="#DejaVuSans-30" x="127.246094"/>
      </g>
     </g>
    </g>
    <g id="xtick_3">
     <g id="line2d_3">
      <g>
       <use xlink:href="#m99e6a018b5" x="159.634286" y="307.584" style="stroke: #000000; stroke-width: 0.8"/>
      </g>
     </g>
     <g id="text_3">
      <!-- 400 -->
      <g transform="translate(150.090536 322.182437) scale(0.1 -0.1)">
       <defs>
        <path id="DejaVuSans-34" d="M 2419 4116 
L 825 1625 
L 2419 1625 
L 2419 4116 
z
M 2253 4666 
L 3047 4666 
L 3047 1625 
L 3713 1625 
L 3713 1100 
L 3047 1100 
L 3047 0 
L 2419 0 
L 2419 1100 
L 313 1100 
L 313 1709 
L 2253 4666 
z
" transform="scale(0.015625)"/>
       </defs>
       <use xlink:href="#DejaVuSans-34"/>
       <use xlink:href="#DejaVuSans-30" x="63.623047"/>
       <use xlink:href="#DejaVuSans-30" x="127.246094"/>
      </g>
     </g>
    </g>
    <g id="xtick_4">
     <g id="line2d_4">
      <g>
       <use xlink:href="#m99e6a018b5" x="210.651429" y="307.584" style="stroke: #000000; stroke-width: 0.8"/>
      </g>
     </g>
     <g id="text_4">
      <!-- 500 -->
      <g transform="translate(201.107679 322.182437) scale(0.1 -0.1)">
       <defs>
        <path id="DejaVuSans-35" d="M 691 4666 
L 3169 4666 
L 3169 4134 
L 1269 4134 
L 1269 2991 
Q 1406 3038 1543 3061 
Q 1681 3084 1819 3084 
Q 2600 3084 3056 2656 
Q 3513 2228 3513 1497 
Q 3513 744 3044 326 
Q 2575 -91 1722 -91 
Q 1428 -91 1123 -41 
Q 819 9 494 109 
L 494 744 
Q 775 591 1075 516 
Q 1375 441 1709 441 
Q 2250 441 2565 725 
Q 2881 1009 2881 1497 
Q 2881 1984 2565 2268 
Q 2250 2553 1709 2553 
Q 1456 2553 1204 2497 
Q 953 2441 691 2322 
L 691 4666 
z
" transform="scale(0.015625)"/>
       </defs>
       <use xlink:href="#DejaVuSans-35"/>
       <use xlink:href="#DejaVuSans-30" x="63.623047"/>
       <use xlink:href="#DejaVuSans-30" x="127.246094"/>
      </g>
     </g>
    </g>
    <g id="xtick_5">
     <g id="line2d_5">
      <g>
       <use xlink:href="#m99e6a018b5" x="261.668571" y="307.584" style="stroke: #000000; stroke-width: 0.8"/>
      </g>
     </g>
     <g id="text_5">
      <!-- 600 -->
      <g transform="translate(252.124821 322.182437) scale(0.1 -0.1)">
       <defs>
        <path id="DejaVuSans-36" d="M 2113 2584 
Q 1688 2584 1439 2293 
Q 1191 2003 1191 1497 
Q 1191 994 1439 701 
Q 1688 409 2113 409 
Q 2538 409 2786 701 
Q 3034 994 3034 1497 
Q 3034 2003 2786 2293 
Q 2538 2584 2113 2584 
z
M 3366 4563 
L 3366 3988 
Q 3128 4100 2886 4159 
Q 2644 4219 2406 4219 
Q 1781 4219 1451 3797 
Q 1122 3375 1075 2522 
Q 1259 2794 1537 2939 
Q 1816 3084 2150 3084 
Q 2853 3084 3261 2657 
Q 3669 2231 3669 1497 
Q 3669 778 3244 343 
Q 2819 -91 2113 -91 
Q 1303 -91 875 529 
Q 447 1150 447 2328 
Q 447 3434 972 4092 
Q 1497 4750 2381 4750 
Q 2619 4750 2861 4703 
Q 3103 4656 3366 4563 
z
" transform="scale(0.015625)"/>
       </defs>
       <use xlink:href="#DejaVuSans-36"/>
       <use xlink:href="#DejaVuSans-30" x="63.623047"/>
       <use xlink:href="#DejaVuSans-30" x="127.246094"/>
      </g>
     </g>
    </g>
    <g id="xtick_6">
     <g id="line2d_6">
      <g>
       <use xlink:href="#m99e6a018b5" x="312.685714" y="307.584" style="stroke: #000000; stroke-width: 0.8"/>
      </g>
     </g>
     <g id="text_6">
      <!-- 700 -->
      <g transform="translate(303.141964 322.182437) scale(0.1 -0.1)">
       <defs>
        <path id="DejaVuSans-37" d="M 525 4666 
L 3525 4666 
L 3525 4397 
L 1831 0 
L 1172 0 
L 2766 4134 
L 525 4134 
L 525 4666 
z
" transform="scale(0.015625)"/>
       </defs>
       <use xlink:href="#DejaVuSans-37"/>
       <use xlink:href="#DejaVuSans-30" x="63.623047"/>
       <use xlink:href="#DejaVuSans-30" x="127.246094"/>
      </g>
     </g>
    </g>
    <g id="xtick_7">
     <g id="line2d_7">
      <g>
       <use xlink:href="#m99e6a018b5" x="363.702857" y="307.584" style="stroke: #000000; stroke-width: 0.8"/>
      </g>
     </g>
     <g id="text_7">
      <!-- 800 -->
      <g transform="translate(354.159107 322.182437) scale(0.1 -0.1)">
       <defs>
        <path id="DejaVuSans-38" d="M 2034 2216 
Q 1584 2216 1326 1975 
Q 1069 1734 1069 1313 
Q 1069 891 1326 650 
Q 1584 409 2034 409 
Q 2484 409 2743 651 
Q 3003 894 3003 1313 
Q 3003 1734 2745 1975 
Q 2488 2216 2034 2216 
z
M 1403 2484 
Q 997 2584 770 2862 
Q 544 3141 544 3541 
Q 544 4100 942 4425 
Q 1341 4750 2034 4750 
Q 2731 4750 3128 4425 
Q 3525 4100 3525 3541 
Q 3525 3141 3298 2862 
Q 3072 2584 2669 2484 
Q 3125 2378 3379 2068 
Q 3634 1759 3634 1313 
Q 3634 634 3220 271 
Q 2806 -91 2034 -91 
Q 1263 -91 848 271 
Q 434 634 434 1313 
Q 434 1759 690 2068 
Q 947 2378 1403 2484 
z
M 1172 3481 
Q 1172 3119 1398 2916 
Q 1625 2713 2034 2713 
Q 2441 2713 2670 2916 
Q 2900 3119 2900 3481 
Q 2900 3844 2670 4047 
Q 2441 4250 2034 4250 
Q 1625 4250 1398 4047 
Q 1172 3844 1172 3481 
z
" transform="scale(0.015625)"/>
       </defs>
       <use xlink:href="#DejaVuSans-38"/>
       <use xlink:href="#DejaVuSans-30" x="63.623047"/>
       <use xlink:href="#DejaVuSans-30" x="127.246094"/>
      </g>
     </g>
    </g>
    <g id="xtick_8">
     <g id="line2d_8">
      <g>
       <use xlink:href="#m99e6a018b5" x="414.72" y="307.584" style="stroke: #000000; stroke-width: 0.8"/>
      </g>
     </g>
     <g id="text_8">
      <!-- 900 -->
      <g transform="translate(405.17625 322.182437) scale(0.1 -0.1)">
       <defs>
        <path id="DejaVuSans-39" d="M 703 97 
L 703 672 
Q 941 559 1184 500 
Q 1428 441 1663 441 
Q 2288 441 2617 861 
Q 2947 1281 2994 2138 
Q 2813 1869 2534 1725 
Q 2256 1581 1919 1581 
Q 1219 1581 811 2004 
Q 403 2428 403 3163 
Q 403 3881 828 4315 
Q 1253 4750 1959 4750 
Q 2769 4750 3195 4129 
Q 3622 3509 3622 2328 
Q 3622 1225 3098 567 
Q 2575 -91 1691 -91 
Q 1453 -91 1209 -44 
Q 966 3 703 97 
z
M 1959 2075 
Q 2384 2075 2632 2365 
Q 2881 2656 2881 3163 
Q 2881 3666 2632 3958 
Q 2384 4250 1959 4250 
Q 1534 4250 1286 3958 
Q 1038 3666 1038 3163 
Q 1038 2656 1286 2365 
Q 1534 2075 1959 2075 
z
" transform="scale(0.015625)"/>
       </defs>
       <use xlink:href="#DejaVuSans-39"/>
       <use xlink:href="#DejaVuSans-30" x="63.623047"/>
       <use xlink:href="#DejaVuSans-30" x="127.246094"/>
      </g>
     </g>
    </g>
    <g id="text_9">
     <!-- Wavelength (nm) -->
     <g transform="translate(192.967812 335.860562) scale(0.1 -0.1)">
      <defs>
       <path id="DejaVuSans-57" d="M 213 4666 
L 850 4666 
L 1831 722 
L 2809 4666 
L 3519 4666 
L 4500 722 
L 5478 4666 
L 6119 4666 
L 4947 0 
L 4153 0 
L 3169 4050 
L 2175 0 
L 1381 0 
L 213 4666 
z
" transform="scale(0.015625)"/>
       <path id="DejaVuSans-61" d="M 2194 1759 
Q 1497 1759 1228 1600 
Q 959 1441 959 1056 
Q 959 750 1161 570 
Q 1363 391 1709 391 
Q 2188 391 2477 730 
Q 2766 1069 2766 1631 
L 2766 1759 
L 2194 1759 
z
M 3341 1997 
L 3341 0 
L 2766 0 
L 2766 531 
Q 2569 213 2275 61 
Q 1981 -91 1556 -91 
Q 1019 -91 701 211 
Q 384 513 384 1019 
Q 384 1609 779 1909 
Q 1175 2209 1959 2209 
L 2766 2209 
L 2766 2266 
Q 2766 2663 2505 2880 
Q 2244 3097 1772 3097 
Q 1472 3097 1187 3025 
Q 903 2953 641 2809 
L 641 3341 
Q 956 3463 1253 3523 
Q 1550 3584 1831 3584 
Q 2591 3584 2966 3190 
Q 3341 2797 3341 1997 
z
" transform="scale(0.015625)"/>
       <path id="DejaVuSans-76" d="M 191 3500 
L 800 3500 
L 1894 563 
L 2988 3500 
L 3597 3500 
L 2284 0 
L 1503 0 
L 191 3500 
z
" transform="scale(0.015625)"/>
       <path id="DejaVuSans-65" d="M 3597 1894 
L 3597 1613 
L 953 1613 
Q 991 1019 1311 708 
Q 1631 397 2203 397 
Q 2534 397 2845 478 
Q 3156 559 3463 722 
L 3463 178 
Q 3153 47 2828 -22 
Q 2503 -91 2169 -91 
Q 1331 -91 842 396 
Q 353 884 353 1716 
Q 353 2575 817 3079 
Q 1281 3584 2069 3584 
Q 2775 3584 3186 3129 
Q 3597 2675 3597 1894 
z
M 3022 2063 
Q 3016 2534 2758 2815 
Q 2500 3097 2075 3097 
Q 1594 3097 1305 2825 
Q 1016 2553 972 2059 
L 3022 2063 
z
" transform="scale(0.015625)"/>
       <path id="DejaVuSans-6c" d="M 603 4863 
L 1178 4863 
L 1178 0 
L 603 0 
L 603 4863 
z
" transform="scale(0.015625)"/>
       <path id="DejaVuSans-6e" d="M 3513 2113 
L 3513 0 
L 2938 0 
L 2938 2094 
Q 2938 2591 2744 2837 
Q 2550 3084 2163 3084 
Q 1697 3084 1428 2787 
Q 1159 2491 1159 1978 
L 1159 0 
L 581 0 
L 581 3500 
L 1159 3500 
L 1159 2956 
Q 1366 3272 1645 3428 
Q 1925 3584 2291 3584 
Q 2894 3584 3203 3211 
Q 3513 2838 3513 2113 
z
" transform="scale(0.015625)"/>
       <path id="DejaVuSans-67" d="M 2906 1791 
Q 2906 2416 2648 2759 
Q 2391 3103 1925 3103 
Q 1463 3103 1205 2759 
Q 947 2416 947 1791 
Q 947 1169 1205 825 
Q 1463 481 1925 481 
Q 2391 481 2648 825 
Q 2906 1169 2906 1791 
z
M 3481 434 
Q 3481 -459 3084 -895 
Q 2688 -1331 1869 -1331 
Q 1566 -1331 1297 -1286 
Q 1028 -1241 775 -1147 
L 775 -588 
Q 1028 -725 1275 -790 
Q 1522 -856 1778 -856 
Q 2344 -856 2625 -561 
Q 2906 -266 2906 331 
L 2906 616 
Q 2728 306 2450 153 
Q 2172 0 1784 0 
Q 1141 0 747 490 
Q 353 981 353 1791 
Q 353 2603 747 3093 
Q 1141 3584 1784 3584 
Q 2172 3584 2450 3431 
Q 2728 3278 2906 2969 
L 2906 3500 
L 3481 3500 
L 3481 434 
z
" transform="scale(0.015625)"/>
       <path id="DejaVuSans-74" d="M 1172 4494 
L 1172 3500 
L 2356 3500 
L 2356 3053 
L 1172 3053 
L 1172 1153 
Q 1172 725 1289 603 
Q 1406 481 1766 481 
L 2356 481 
L 2356 0 
L 1766 0 
Q 1100 0 847 248 
Q 594 497 594 1153 
L 594 3053 
L 172 3053 
L 172 3500 
L 594 3500 
L 594 4494 
L 1172 4494 
z
" transform="scale(0.015625)"/>
       <path id="DejaVuSans-68" d="M 3513 2113 
L 3513 0 
L 2938 0 
L 2938 2094 
Q 2938 2591 2744 2837 
Q 2550 3084 2163 3084 
Q 1697 3084 1428 2787 
Q 1159 2491 1159 1978 
L 1159 0 
L 581 0 
L 581 4863 
L 1159 4863 
L 1159 2956 
Q 1366 3272 1645 3428 
Q 1925 3584 2291 3584 
Q 2894 3584 3203 3211 
Q 3513 2838 3513 2113 
z
" transform="scale(0.015625)"/>
       <path id="DejaVuSans-20" transform="scale(0.015625)"/>
       <path id="DejaVuSans-28" d="M 1984 4856 
Q 1566 4138 1362 3434 
Q 1159 2731 1159 2009 
Q 1159 1288 1364 580 
Q 1569 -128 1984 -844 
L 1484 -844 
Q 1016 -109 783 600 
Q 550 1309 550 2009 
Q 550 2706 781 3412 
Q 1013 4119 1484 4856 
L 1984 4856 
z
" transform="scale(0.015625)"/>
       <path id="DejaVuSans-6d" d="M 3328 2828 
Q 3544 3216 3844 3400 
Q 4144 3584 4550 3584 
Q 5097 3584 5394 3201 
Q 5691 2819 5691 2113 
L 5691 0 
L 5113 0 
L 5113 2094 
Q 5113 2597 4934 2840 
Q 4756 3084 4391 3084 
Q 3944 3084 3684 2787 
Q 3425 2491 3425 1978 
L 3425 0 
L 2847 0 
L 2847 2094 
Q 2847 2600 2669 2842 
Q 2491 3084 2119 3084 
Q 1678 3084 1418 2786 
Q 1159 2488 1159 1978 
L 1159 0 
L 581 0 
L 581 3500 
L 1159 3500 
L 1159 2956 
Q 1356 3278 1631 3431 
Q 1906 3584 2284 3584 
Q 2666 3584 2933 3390 
Q 3200 3197 3328 2828 
z
" transform="scale(0.015625)"/>
       <path id="DejaVuSans-29" d="M 513 4856 
L 1013 4856 
Q 1481 4119 1714 3412 
Q 1947 2706 1947 2009 
Q 1947 1309 1714 600 
Q 1481 -109 1013 -844 
L 513 -844 
Q 928 -128 1133 580 
Q 1338 1288 1338 2009 
Q 1338 2731 1133 3434 
Q 928 4138 513 4856 
z
" transform="scale(0.015625)"/>
      </defs>
      <use xlink:href="#DejaVuSans-57"/>
      <use xlink:href="#DejaVuSans-61" x="92.501953"/>
      <use xlink:href="#DejaVuSans-76" x="153.78125"/>
      <use xlink:href="#DejaVuSans-65" x="212.960938"/>
      <use xlink:href="#DejaVuSans-6c" x="274.484375"/>
      <use xlink:href="#DejaVuSans-65" x="302.267578"/>
      <use xlink:href="#DejaVuSans-6e" x="363.791016"/>
      <use xlink:href="#DejaVuSans-67" x="427.169922"/>
      <use xlink:href="#DejaVuSans-74" x="490.646484"/>
      <use xlink:href="#DejaVuSans-68" x="529.855469"/>
      <use xlink:href="#DejaVuSans-20" x="593.234375"/>
      <use xlink:href="#DejaVuSans-28" x="625.021484"/>
      <use xlink:href="#DejaVuSans-6e" x="664.035156"/>
      <use xlink:href="#DejaVuSans-6d" x="727.414062"/>
      <use xlink:href="#DejaVuSans-29" x="824.826172"/>
     </g>
    </g>
   </g>
   <g id="matplotlib.axis_2">
    <g id="ytick_1">
     <g id="line2d_9">
      <defs>
       <path id="mcdb1c52872" d="M 0 0 
L -3.5 0 
" style="stroke: #000000; stroke-width: 0.8"/>
      </defs>
      <g>
       <use xlink:href="#mcdb1c52872" x="57.6" y="307.584" style="stroke: #000000; stroke-width: 0.8"/>
      </g>
     </g>
     <g id="text_10">
      <!-- 0.0 -->
      <g transform="translate(34.696875 311.383219) scale(0.1 -0.1)">
       <defs>
        <path id="DejaVuSans-2e" d="M 684 794 
L 1344 794 
L 1344 0 
L 684 0 
L 684 794 
z
" transform="scale(0.015625)"/>
       </defs>
       <use xlink:href="#DejaVuSans-30"/>
       <use xlink:href="#DejaVuSans-2e" x="63.623047"/>
       <use xlink:href="#DejaVuSans-30" x="95.410156"/>
      </g>
     </g>
    </g>
    <g id="ytick_2">
     <g id="line2d_10">
      <g>
       <use xlink:href="#mcdb1c52872" x="57.6" y="263.232" style="stroke: #000000; stroke-width: 0.8"/>
      </g>
     </g>
     <g id="text_11">
      <!-- 0.2 -->
      <g transform="translate(34.696875 267.031219) scale(0.1 -0.1)">
       <use xlink:href="#DejaVuSans-30"/>
       <use xlink:href="#DejaVuSans-2e" x="63.623047"/>
       <use xlink:href="#DejaVuSans-32" x="95.410156"/>
      </g>
     </g>
    </g>
    <g id="ytick_3">
     <g id="line2d_11">
      <g>
       <use xlink:href="#mcdb1c52872" x="57.6" y="218.88" style="stroke: #000000; stroke-width: 0.8"/>
      </g>
     </g>
     <g id="text_12">
      <!-- 0.4 -->
      <g transform="translate(34.696875 222.679219) scale(0.1 -0.1)">
       <use xlink:href="#DejaVuSans-30"/>
       <use xlink:href="#DejaVuSans-2e" x="63.623047"/>
       <use xlink:href="#DejaVuSans-34" x="95.410156"/>
      </g>
     </g>
    </g>
    <g id="ytick_4">
     <g id="line2d_12">
      <g>
       <use xlink:href="#mcdb1c52872" x="57.6" y="174.528" style="stroke: #000000; stroke-width: 0.8"/>
      </g>
     </g>
     <g id="text_13">
      <!-- 0.6 -->
      <g transform="translate(34.696875 178.327219) scale(0.1 -0.1)">
       <use xlink:href="#DejaVuSans-30"/>
       <use xlink:href="#DejaVuSans-2e" x="63.623047"/>
       <use xlink:href="#DejaVuSans-36" x="95.410156"/>
      </g>
     </g>
    </g>
    <g id="ytick_5">
     <g id="line2d_13">
      <g>
       <use xlink:href="#mcdb1c52872" x="57.6" y="130.176" style="stroke: #000000; stroke-width: 0.8"/>
      </g>
     </g>
     <g id="text_14">
      <!-- 0.8 -->
      <g transform="translate(34.696875 133.975219) scale(0.1 -0.1)">
       <use xlink:href="#DejaVuSans-30"/>
       <use xlink:href="#DejaVuSans-2e" x="63.623047"/>
       <use xlink:href="#DejaVuSans-38" x="95.410156"/>
      </g>
     </g>
    </g>
    <g id="ytick_6">
     <g id="line2d_14">
      <g>
       <use xlink:href="#mcdb1c52872" x="57.6" y="85.824" style="stroke: #000000; stroke-width: 0.8"/>
      </g>
     </g>
     <g id="text_15">
      <!-- 1.0 -->
      <g transform="translate(34.696875 89.623219) scale(0.1 -0.1)">
       <defs>
        <path id="DejaVuSans-31" d="M 794 531 
L 1825 531 
L 1825 4091 
L 703 3866 
L 703 4441 
L 1819 4666 
L 2450 4666 
L 2450 531 
L 3481 531 
L 3481 0 
L 794 0 
L 794 531 
z
" transform="scale(0.015625)"/>
       </defs>
       <use xlink:href="#DejaVuSans-31"/>
       <use xlink:href="#DejaVuSans-2e" x="63.623047"/>
       <use xlink:href="#DejaVuSans-30" x="95.410156"/>
      </g>
     </g>
    </g>
    <g id="ytick_7">
     <g id="line2d_15">
      <g>
       <use xlink:href="#mcdb1c52872" x="57.6" y="41.472" style="stroke: #000000; stroke-width: 0.8"/>
      </g>
     </g>
     <g id="text_16">
      <!-- 1.2 -->
      <g transform="translate(34.696875 45.271219) scale(0.1 -0.1)">
       <use xlink:href="#DejaVuSans-31"/>
       <use xlink:href="#DejaVuSans-2e" x="63.623047"/>
       <use xlink:href="#DejaVuSans-32" x="95.410156"/>
      </g>
     </g>
    </g>
    <g id="text_17">
     <!-- Absorbance -->
     <g transform="translate(28.617187 204.074875) rotate(-90) scale(0.1 -0.1)">
      <defs>
       <path id="DejaVuSans-41" d="M 2188 4044 
L 1331 1722 
L 3047 1722 
L 2188 4044 
z
M 1831 4666 
L 2547 4666 
L 4325 0 
L 3669 0 
L 3244 1197 
L 1141 1197 
L 716 0 
L 50 0 
L 1831 4666 
z
" transform="scale(0.015625)"/>
       <path id="DejaVuSans-62" d="M 3116 1747 
Q 3116 2381 2855 2742 
Q 2594 3103 2138 3103 
Q 1681 3103 1420 2742 
Q 1159 2381 1159 1747 
Q 1159 1113 1420 752 
Q 1681 391 2138 391 
Q 2594 391 2855 752 
Q 3116 1113 3116 1747 
z
M 1159 2969 
Q 1341 3281 1617 3432 
Q 1894 3584 2278 3584 
Q 2916 3584 3314 3078 
Q 3713 2572 3713 1747 
Q 3713 922 3314 415 
Q 2916 -91 2278 -91 
Q 1894 -91 1617 61 
Q 1341 213 1159 525 
L 1159 0 
L 581 0 
L 581 4863 
L 1159 4863 
L 1159 2969 
z
" transform="scale(0.015625)"/>
       <path id="DejaVuSans-73" d="M 2834 3397 
L 2834 2853 
Q 2591 2978 2328 3040 
Q 2066 3103 1784 3103 
Q 1356 3103 1142 2972 
Q 928 2841 928 2578 
Q 928 2378 1081 2264 
Q 1234 2150 1697 2047 
L 1894 2003 
Q 2506 1872 2764 1633 
Q 3022 1394 3022 966 
Q 3022 478 2636 193 
Q 2250 -91 1575 -91 
Q 1294 -91 989 -36 
Q 684 19 347 128 
L 347 722 
Q 666 556 975 473 
Q 1284 391 1588 391 
Q 1994 391 2212 530 
Q 2431 669 2431 922 
Q 2431 1156 2273 1281 
Q 2116 1406 1581 1522 
L 1381 1569 
Q 847 1681 609 1914 
Q 372 2147 372 2553 
Q 372 3047 722 3315 
Q 1072 3584 1716 3584 
Q 2034 3584 2315 3537 
Q 2597 3491 2834 3397 
z
" transform="scale(0.015625)"/>
       <path id="DejaVuSans-6f" d="M 1959 3097 
Q 1497 3097 1228 2736 
Q 959 2375 959 1747 
Q 959 1119 1226 758 
Q 1494 397 1959 397 
Q 2419 397 2687 759 
Q 2956 1122 2956 1747 
Q 2956 2369 2687 2733 
Q 2419 3097 1959 3097 
z
M 1959 3584 
Q 2709 3584 3137 3096 
Q 3566 2609 3566 1747 
Q 3566 888 3137 398 
Q 2709 -91 1959 -91 
Q 1206 -91 779 398 
Q 353 888 353 1747 
Q 353 2609 779 3096 
Q 1206 3584 1959 3584 
z
" transform="scale(0.015625)"/>
       <path id="DejaVuSans-72" d="M 2631 2963 
Q 2534 3019 2420 3045 
Q 2306 3072 2169 3072 
Q 1681 3072 1420 2755 
Q 1159 2438 1159 1844 
L 1159 0 
L 581 0 
L 581 3500 
L 1159 3500 
L 1159 2956 
Q 1341 3275 1631 3429 
Q 1922 3584 2338 3584 
Q 2397 3584 2469 3576 
Q 2541 3569 2628 3553 
L 2631 2963 
z
" transform="scale(0.015625)"/>
       <path id="DejaVuSans-63" d="M 3122 3366 
L 3122 2828 
Q 2878 2963 2633 3030 
Q 2388 3097 2138 3097 
Q 1578 3097 1268 2742 
Q 959 2388 959 1747 
Q 959 1106 1268 751 
Q 1578 397 2138 397 
Q 2388 397 2633 464 
Q 2878 531 3122 666 
L 3122 134 
Q 2881 22 2623 -34 
Q 2366 -91 2075 -91 
Q 1284 -91 818 406 
Q 353 903 353 1747 
Q 353 2603 823 3093 
Q 1294 3584 2113 3584 
Q 2378 3584 2631 3529 
Q 2884 3475 3122 3366 
z
" transform="scale(0.015625)"/>
      </defs>
      <use xlink:href="#DejaVuSans-41"/>
      <use xlink:href="#DejaVuSans-62" x="68.408203"/>
      <use xlink:href="#DejaVuSans-73" x="131.884766"/>
      <use xlink:href="#DejaVuSans-6f" x="183.984375"/>
      <use xlink:href="#DejaVuSans-72" x="245.166016"/>
      <use xlink:href="#DejaVuSans-62" x="286.279297"/>
      <use xlink:href="#DejaVuSans-61" x="349.755859"/>
      <use xlink:href="#DejaVuSans-6e" x="411.035156"/>
      <use xlink:href="#DejaVuSans-63" x="474.414062"/>
      <use xlink:href="#DejaVuSans-65" x="529.394531"/>
     </g>
    </g>
   </g>
   <g id="line2d_16">
    <path d="M 363.702857 308.704634 
L 363.192686 308.519495 
L 361.152 308.654249 
L 354.519771 308.602043 
L 353.499429 308.558457 
L 352.989257 308.618188 
L 351.458743 308.519819 
L 348.907886 308.479122 
L 345.846857 308.146728 
L 344.316343 307.982769 
L 339.7248 307.62638 
L 338.704457 307.675021 
L 337.684114 307.599273 
L 331.562057 307.666318 
L 331.051886 307.788646 
L 330.541714 307.721541 
L 329.521371 307.841167 
L 327.990857 307.914125 
L 321.8688 308.140136 
L 320.848457 308.045726 
L 318.807771 308.109722 
L 314.7264 308.196077 
L 312.685714 308.149822 
L 308.604343 308.128869 
L 307.584 308.043312 
L 301.461943 307.756098 
L 287.687314 306.468861 
L 285.646629 306.135928 
L 284.116114 305.897893 
L 281.055086 305.188144 
L 273.402514 302.86625 
L 270.851657 301.912686 
L 260.648229 297.41376 
L 257.077029 295.745653 
L 256.056686 295.347585 
L 250.954971 292.913486 
L 248.404114 291.713586 
L 239.7312 287.106716 
L 237.690514 285.860666 
L 235.139657 283.883027 
L 233.609143 282.449394 
L 231.568457 279.977464 
L 229.527771 276.818948 
L 227.997257 273.863624 
L 226.466743 270.355167 
L 224.936229 266.242945 
L 223.405714 261.520996 
L 221.8752 256.153163 
L 219.834514 248.142743 
L 217.793829 239.312157 
L 214.222629 222.447709 
L 209.120914 197.022625 
L 202.488686 164.668209 
L 199.937829 153.697753 
L 197.897143 146.168162 
L 196.366629 141.459686 
L 195.346286 138.796617 
L 193.815771 135.537381 
L 192.795429 133.957204 
L 191.775086 132.729814 
L 190.754743 131.978626 
L 190.244571 131.708544 
L 189.224229 131.588842 
L 188.203886 131.784177 
L 187.183543 132.425735 
L 185.142857 134.788321 
L 183.612343 137.634735 
L 182.081829 141.378078 
L 181.061486 144.295526 
L 179.530971 149.325713 
L 178.000457 154.981307 
L 175.959771 163.484081 
L 173.408914 174.99712 
L 164.225829 217.825539 
L 161.674971 228.543407 
L 159.124114 238.14937 
L 156.573257 246.626422 
L 155.042743 251.060151 
L 153.512229 255.05211 
L 151.981714 258.467308 
L 150.961371 260.410013 
L 149.430857 262.777915 
L 148.410514 264.006557 
L 147.390171 265.036829 
L 145.349486 266.306335 
L 144.839314 266.456047 
L 144.329143 266.321082 
L 143.818971 266.618962 
L 143.3088 265.366718 
L 142.798629 266.500248 
L 142.288457 266.420729 
L 141.268114 265.908168 
L 140.247771 265.254997 
L 139.7376 264.68276 
L 139.227429 264.628755 
L 137.696914 262.882346 
L 137.186743 261.842228 
L 136.676571 261.555419 
L 134.125714 257.04918 
L 133.615543 255.752415 
L 133.105371 250.998231 
L 132.085029 248.362187 
L 130.044343 241.359383 
L 128.513829 234.779611 
L 127.493486 229.591846 
L 126.473143 223.630846 
L 124.942629 212.733717 
L 123.922286 204.321571 
L 119.330743 163.159845 
L 118.3104 156.946178 
L 117.290057 152.554152 
L 116.779886 150.83746 
L 115.759543 148.640298 
L 115.249371 147.804105 
L 114.7392 147.400139 
L 113.718857 147.293906 
L 113.208686 147.684298 
L 112.698514 148.510339 
L 112.188343 148.901563 
L 111.168 151.150857 
L 109.127314 156.507171 
L 108.617143 157.430734 
L 108.106971 158.056378 
L 107.5968 158.117273 
L 107.086629 157.411383 
L 106.576457 155.790812 
L 106.066286 153.225596 
L 105.556114 149.379536 
L 105.045943 143.976722 
L 104.535771 137.305596 
L 103.515429 119.172848 
L 101.984914 83.617949 
L 100.4544 47.75219 
L 99.434057 28.834536 
L 98.413714 12.96171 
L 97.775433 -1 
L 97.775433 -1 
" clip-path="url(#p5a826e6fab)" style="fill: none; stroke: #e01f1f; stroke-width: 0.5; stroke-linecap: square"/>
   </g>
   <g id="line2d_17">
    <path d="M 363.702857 308.197256 
L 363.192686 308.074313 
L 359.621486 308.145538 
L 358.601143 308.178792 
L 348.907886 308.179982 
L 341.255314 307.670438 
L 338.194286 307.584 
L 335.133257 307.669133 
L 334.112914 307.67708 
L 321.8688 308.656855 
L 321.358629 308.540289 
L 316.256914 308.804227 
L 309.114514 308.856444 
L 308.094171 308.827867 
L 302.992457 308.743156 
L 301.972114 308.680441 
L 297.890743 308.551891 
L 286.666971 307.3954 
L 282.075429 306.457993 
L 280.034743 305.928289 
L 272.892343 303.358901 
L 271.361829 302.661134 
L 269.321143 301.750156 
L 266.770286 300.467972 
L 251.465143 292.238281 
L 245.343086 288.754741 
L 244.322743 288.115494 
L 241.771886 286.636971 
L 238.710857 284.795217 
L 236.16 282.966895 
L 234.119314 281.154919 
L 232.5888 279.577375 
L 230.548114 276.843917 
L 229.0176 274.372165 
L 227.487086 271.350544 
L 225.956571 267.843171 
L 224.426057 263.736569 
L 222.385371 257.376318 
L 220.344686 250.000005 
L 218.304 241.843698 
L 215.242971 228.486046 
L 208.610743 197.538545 
L 202.998857 171.809152 
L 200.448 161.340237 
L 198.407314 154.06102 
L 196.8768 149.44339 
L 195.346286 145.665138 
L 193.815771 142.726912 
L 192.795429 141.315476 
L 191.775086 140.276177 
L 190.754743 139.634764 
L 190.244571 139.472963 
L 189.224229 139.444558 
L 188.203886 139.793947 
L 187.183543 140.540099 
L 185.653029 142.219119 
L 184.632686 143.87292 
L 183.102171 147.077817 
L 181.571657 151.103469 
L 180.041143 155.860191 
L 178.510629 161.229259 
L 176.980114 167.256449 
L 174.939429 175.899717 
L 167.797029 208.747796 
L 164.736 222.396455 
L 161.1648 236.918382 
L 158.613943 246.094471 
L 156.063086 254.104637 
L 154.532571 258.176399 
L 153.002057 261.86997 
L 151.981714 264.020457 
L 150.4512 266.68725 
L 148.410514 269.366051 
L 147.390171 270.360994 
L 144.839314 271.478348 
L 144.329143 271.364159 
L 143.818971 271.469704 
L 143.3088 270.246084 
L 142.798629 271.284193 
L 141.268114 270.542288 
L 140.757943 269.939973 
L 140.247771 269.729501 
L 138.717257 268.149417 
L 138.207086 267.149253 
L 137.696914 266.655718 
L 136.676571 265.085812 
L 136.1664 263.877046 
L 135.656229 263.163641 
L 134.635886 261.312742 
L 134.125714 259.606932 
L 133.615543 258.990752 
L 133.105371 253.782556 
L 132.085029 250.919166 
L 129.534171 241.759117 
L 128.003657 235.100283 
L 126.473143 226.671648 
L 124.942629 216.298926 
L 123.412114 203.97282 
L 120.861257 181.129825 
L 119.840914 173.092586 
L 118.820571 166.611599 
L 117.800229 161.882 
L 116.779886 158.723564 
L 116.269714 157.547393 
L 115.249371 156.51046 
L 114.7392 156.102898 
L 113.718857 156.520677 
L 113.208686 156.964311 
L 112.698514 157.94824 
L 112.188343 158.469978 
L 111.168 160.95504 
L 108.617143 167.664103 
L 108.106971 168.334899 
L 107.5968 168.494122 
L 107.086629 167.852908 
L 106.576457 166.283675 
L 106.066286 163.821969 
L 105.556114 160.067999 
L 105.045943 155.041843 
L 104.535771 148.532027 
L 103.515429 131.162139 
L 102.495086 109.054642 
L 100.4544 61.735987 
L 99.434057 43.047664 
L 98.413714 26.255822 
L 97.903543 15.315186 
L 97.363015 -1 
L 97.363015 -1 
" clip-path="url(#p5a826e6fab)" style="fill: none; stroke: #d31f2c; stroke-width: 0.5; stroke-linecap: square"/>
   </g>
   <g id="line2d_18">
    <path d="M 363.702857 308.893003 
L 363.192686 308.710819 
L 357.5808 308.711272 
L 347.377371 308.353867 
L 342.785829 307.82821 
L 339.7248 307.632342 
L 339.214629 307.722195 
L 338.194286 307.584 
L 332.072229 307.664299 
L 331.051886 307.750576 
L 329.521371 307.855895 
L 326.970514 307.991409 
L 321.8688 308.233797 
L 321.358629 308.081325 
L 317.787429 308.22281 
L 306.053486 308.009863 
L 301.461943 307.676594 
L 299.421257 307.572343 
L 297.890743 307.466767 
L 295.339886 307.118915 
L 293.809371 307.005755 
L 289.728 306.428191 
L 286.666971 305.86532 
L 285.646629 305.590105 
L 284.116114 305.225613 
L 279.0144 303.511593 
L 273.912686 301.170776 
L 266.260114 296.606217 
L 261.668571 293.595903 
L 256.056686 289.779796 
L 249.934629 285.515207 
L 236.16 275.536458 
L 234.629486 274.159457 
L 233.098971 272.54613 
L 231.568457 270.688268 
L 230.037943 268.467884 
L 228.507429 265.873685 
L 226.976914 262.778479 
L 225.4464 259.204117 
L 223.915886 255.068089 
L 222.385371 250.385897 
L 220.854857 245.249398 
L 218.304 235.638848 
L 216.263314 227.326452 
L 208.610743 193.828513 
L 204.0192 173.892087 
L 201.468343 163.65783 
L 199.427657 156.384402 
L 197.897143 151.592481 
L 196.366629 147.568521 
L 195.346286 145.292341 
L 193.815771 142.604093 
L 192.795429 141.331828 
L 191.775086 140.363773 
L 190.754743 139.829439 
L 189.7344 139.700908 
L 188.714057 139.896123 
L 187.693714 140.447483 
L 186.673371 141.420467 
L 185.653029 142.582389 
L 184.632686 144.210877 
L 183.102171 147.383986 
L 182.081829 149.895788 
L 180.041143 155.892695 
L 178.510629 161.100175 
L 176.980114 166.889454 
L 173.919086 179.633544 
L 164.225829 221.626261 
L 161.1648 233.301602 
L 158.613943 241.915989 
L 156.573257 248.007748 
L 154.532571 253.24966 
L 153.002057 256.58601 
L 151.471543 259.37865 
L 150.4512 260.872702 
L 148.920686 262.641323 
L 147.900343 263.532165 
L 147.390171 263.924506 
L 145.859657 264.418192 
L 144.839314 264.515272 
L 144.329143 264.183551 
L 143.818971 264.372766 
L 143.3088 262.906095 
L 142.798629 263.7317 
L 141.268114 262.553351 
L 140.757943 261.790561 
L 140.247771 261.409429 
L 138.717257 259.295714 
L 138.207086 258.107803 
L 137.696914 257.544379 
L 136.676571 255.524167 
L 136.1664 254.15861 
L 135.656229 253.352224 
L 133.615543 248.512758 
L 133.105371 243.388406 
L 132.085029 240.230227 
L 129.534171 230.348188 
L 128.513829 225.782208 
L 127.493486 220.745564 
L 125.962971 211.577881 
L 124.432457 200.618449 
L 122.901943 188.132565 
L 120.861257 170.786747 
L 119.840914 163.355734 
L 118.820571 157.470215 
L 117.800229 153.118927 
L 117.290057 151.616247 
L 116.269714 149.552201 
L 115.759543 148.875126 
L 115.249371 148.589183 
L 114.7392 148.548577 
L 114.229029 148.659502 
L 113.718857 149.030754 
L 113.208686 149.551144 
L 112.698514 150.593351 
L 112.188343 151.239152 
L 111.168 153.442898 
L 109.127314 158.218812 
L 108.617143 159.027141 
L 108.106971 159.185585 
L 107.5968 159.046439 
L 107.086629 158.04156 
L 106.576457 156.214049 
L 106.066286 153.292874 
L 105.556114 149.242215 
L 105.045943 143.783687 
L 104.0256 128.586852 
L 103.005257 107.973933 
L 99.944229 38.504387 
L 98.413714 11.504949 
L 97.864071 -1 
L 97.864071 -1 
" clip-path="url(#p5a826e6fab)" style="fill: none; stroke: #c51f3a; stroke-width: 0.5; stroke-linecap: square"/>
   </g>
   <g id="line2d_19">
    <path d="M 363.702857 308.234001 
L 363.192686 308.045302 
L 361.152 308.124607 
L 350.4384 308.227738 
L 341.765486 307.673305 
L 340.234971 307.585328 
L 337.173943 307.561895 
L 336.1536 307.552671 
L 334.623086 307.602787 
L 333.092571 307.631248 
L 331.051886 307.747986 
L 324.419657 308.148513 
L 322.378971 308.293788 
L 321.8688 308.454013 
L 321.358629 308.285213 
L 319.828114 308.40731 
L 314.216229 308.673272 
L 310.134857 308.711389 
L 307.073829 308.630902 
L 304.522971 308.565071 
L 301.972114 308.425478 
L 297.890743 308.257971 
L 296.360229 307.980035 
L 294.829714 307.875191 
L 292.789029 307.657405 
L 291.258514 307.448783 
L 284.626286 305.920895 
L 282.075429 305.010872 
L 279.524571 303.876761 
L 275.4432 301.517663 
L 272.892343 299.809913 
L 269.831314 297.482291 
L 264.7296 293.303094 
L 255.546514 285.325616 
L 253.505829 283.385304 
L 241.261714 272.366036 
L 236.16 268.086052 
L 232.5888 264.472813 
L 230.548114 261.892812 
L 229.0176 259.604832 
L 226.976914 256.009001 
L 225.4464 252.805002 
L 224.426057 250.429269 
L 222.895543 246.526074 
L 220.854857 240.630133 
L 218.304 232.321073 
L 215.242971 221.457571 
L 202.488686 174.317562 
L 200.448 167.83943 
L 198.407314 162.218415 
L 196.8768 158.733786 
L 195.346286 155.933516 
L 194.325943 154.491334 
L 193.3056 153.393466 
L 192.285257 152.627131 
L 191.264914 152.190609 
L 190.244571 152.131075 
L 189.7344 152.194336 
L 188.203886 152.966065 
L 187.183543 153.877044 
L 185.142857 156.554851 
L 183.612343 159.476158 
L 182.592 161.872488 
L 181.061486 165.970997 
L 179.530971 170.604568 
L 177.490286 177.617708 
L 174.939429 187.39674 
L 165.246171 226.714981 
L 162.695314 236.013501 
L 160.654629 242.782176 
L 158.613943 248.998706 
L 156.063086 255.715775 
L 154.532571 259.068323 
L 153.512229 261.125439 
L 151.981714 263.731009 
L 150.961371 265.182612 
L 149.430857 266.846405 
L 147.900343 267.879723 
L 147.390171 268.146428 
L 145.349486 268.255717 
L 144.839314 268.115204 
L 144.329143 267.689438 
L 143.818971 267.550484 
L 143.3088 265.939404 
L 142.798629 266.824873 
L 141.778286 265.550728 
L 141.268114 264.901278 
L 140.757943 263.898457 
L 140.247771 263.231848 
L 138.717257 260.428782 
L 138.207086 258.870666 
L 137.696914 257.958113 
L 136.676571 255.358725 
L 136.1664 253.609366 
L 135.656229 252.590849 
L 134.635886 249.453515 
L 134.125714 247.648494 
L 133.615543 246.746834 
L 133.105371 239.618459 
L 132.085029 235.944675 
L 130.554514 229.728906 
L 128.003657 218.059413 
L 125.4528 203.049018 
L 123.922286 192.197147 
L 120.351086 166.478222 
L 119.330743 161.07747 
L 118.3104 157.365691 
L 117.290057 154.978521 
L 116.779886 154.4212 
L 115.759543 154.07604 
L 115.249371 154.287434 
L 114.7392 154.652223 
L 113.208686 156.893877 
L 112.698514 158.313126 
L 112.188343 159.054268 
L 111.678171 160.270172 
L 110.147657 164.48287 
L 109.127314 166.662638 
L 108.617143 167.228392 
L 108.106971 167.398256 
L 107.5968 166.996338 
L 107.086629 165.806791 
L 106.576457 163.843651 
L 106.066286 160.923441 
L 105.556114 156.728719 
L 105.045943 151.367343 
L 104.0256 136.638106 
L 103.005257 117.043601 
L 98.923886 30.185279 
L 98.413714 20.111844 
L 97.652585 -1 
L 97.652585 -1 
" clip-path="url(#p5a826e6fab)" style="fill: none; stroke: #b71f48; stroke-width: 0.5; stroke-linecap: square"/>
   </g>
   <g id="line2d_20">
    <path d="M 363.702857 308.068394 
L 363.192686 307.949982 
L 354.0096 308.220865 
L 346.357029 307.985095 
L 339.214629 307.567269 
L 333.092571 307.678904 
L 329.521371 307.998537 
L 327.480686 308.182193 
L 318.2976 308.662225 
L 315.746743 308.741407 
L 310.645029 308.817902 
L 309.624686 308.805858 
L 305.033143 308.659143 
L 302.992457 308.586698 
L 299.421257 308.305512 
L 296.8704 308.030805 
L 295.850057 307.864208 
L 294.319543 307.729887 
L 291.768686 307.353309 
L 290.238171 307.078221 
L 287.177143 306.258579 
L 285.646629 305.808241 
L 280.034743 303.234908 
L 278.504229 302.337757 
L 275.953371 300.607467 
L 272.382171 297.732965 
L 267.790629 293.452321 
L 258.607543 283.909005 
L 241.771886 265.77672 
L 237.180343 261.495047 
L 232.078629 256.229451 
L 230.037943 253.576405 
L 228.507429 251.293065 
L 226.976914 248.737227 
L 225.4464 245.758997 
L 223.915886 242.43149 
L 221.365029 236.018093 
L 219.834514 231.770215 
L 216.773486 222.411375 
L 213.712457 212.452659 
L 209.631086 198.812546 
L 201.978514 174.617733 
L 199.937829 169.198648 
L 198.407314 165.694748 
L 196.8768 162.751605 
L 195.856457 161.154205 
L 194.836114 159.867625 
L 193.815771 158.847465 
L 192.285257 157.899833 
L 191.264914 157.704207 
L 190.244571 157.754819 
L 189.224229 158.160107 
L 188.203886 158.883299 
L 187.183543 159.891695 
L 185.653029 161.894065 
L 184.632686 163.576562 
L 183.102171 166.749274 
L 181.571657 170.510712 
L 180.041143 174.835789 
L 178.000457 181.30496 
L 174.429257 194.400038 
L 165.246171 229.177076 
L 163.205486 236.071354 
L 160.654629 243.97311 
L 158.613943 249.604211 
L 156.573257 254.514125 
L 155.042743 257.705805 
L 153.002057 261.211668 
L 151.981714 262.649481 
L 150.961371 263.847679 
L 149.430857 265.184801 
L 148.410514 265.725378 
L 147.390171 266.049306 
L 145.859657 265.777936 
L 144.839314 265.339127 
L 144.329143 264.75238 
L 143.818971 264.512729 
L 143.3088 262.626799 
L 142.798629 263.313318 
L 141.268114 260.928566 
L 140.757943 259.651298 
L 140.247771 258.871239 
L 138.717257 255.214893 
L 138.207086 253.454483 
L 137.696914 252.351068 
L 136.676571 249.313912 
L 136.1664 247.109367 
L 135.656229 245.834333 
L 133.615543 239.237986 
L 133.105371 231.774696 
L 131.574857 225.289016 
L 130.044343 218.324887 
L 128.003657 208.307464 
L 126.473143 199.636372 
L 123.922286 182.99088 
L 120.861257 162.727138 
L 119.840914 157.457984 
L 118.820571 153.789785 
L 118.3104 152.621849 
L 117.290057 151.101642 
L 116.779886 150.956971 
L 116.269714 150.980076 
L 115.759543 151.309097 
L 114.7392 152.532747 
L 113.718857 154.436022 
L 113.208686 155.548337 
L 112.698514 157.300162 
L 112.188343 158.142117 
L 109.637486 164.586134 
L 109.127314 165.393722 
L 108.617143 165.88157 
L 108.106971 165.733013 
L 107.5968 165.076625 
L 107.086629 163.705344 
L 106.576457 161.40298 
L 106.066286 158.164323 
L 105.556114 153.843833 
L 105.045943 148.347898 
L 104.0256 133.450185 
L 103.005257 114.154445 
L 100.964571 68.550103 
L 99.434057 36.885213 
L 98.413714 16.025554 
L 97.804898 -1 
L 97.804898 -1 
" clip-path="url(#p5a826e6fab)" style="fill: none; stroke: #a91f56; stroke-width: 0.5; stroke-linecap: square"/>
   </g>
   <g id="line2d_21">
    <path d="M 363.702857 308.359708 
L 362.682514 308.23821 
L 356.050286 308.377693 
L 352.989257 308.37091 
L 343.806171 307.858273 
L 342.785829 307.725958 
L 340.745143 307.646242 
L 337.173943 307.57154 
L 333.092571 307.676996 
L 330.541714 307.841254 
L 327.480686 308.11508 
L 321.8688 308.470909 
L 321.358629 308.358331 
L 312.685714 308.528239 
L 309.114514 308.418509 
L 304.0128 308.157642 
L 302.482286 308.090666 
L 299.931429 307.88514 
L 297.380571 307.622211 
L 296.360229 307.403322 
L 294.319543 307.173606 
L 288.707657 305.940884 
L 286.1568 305.096061 
L 281.565257 302.94 
L 278.504229 300.981735 
L 275.953371 299.007435 
L 271.872 295.235287 
L 267.280457 290.355771 
L 262.688914 284.976853 
L 255.036343 275.72695 
L 248.404114 267.424179 
L 241.771886 259.597611 
L 239.221029 256.902809 
L 233.609143 251.150127 
L 230.037943 246.798627 
L 228.507429 244.609375 
L 226.466743 241.213623 
L 224.936229 238.3118 
L 222.895543 233.972328 
L 220.344686 227.723633 
L 217.793829 220.803183 
L 202.998857 177.613134 
L 201.468343 173.733844 
L 199.427657 169.153938 
L 197.897143 166.207425 
L 196.366629 163.890098 
L 195.346286 162.652028 
L 194.325943 161.709114 
L 193.3056 161.03529 
L 192.285257 160.615357 
L 191.264914 160.522871 
L 190.244571 160.6921 
L 189.224229 161.191896 
L 188.714057 161.504791 
L 187.183543 162.979383 
L 185.653029 164.955013 
L 184.632686 166.657482 
L 183.102171 169.758328 
L 181.571657 173.451959 
L 180.041143 177.592434 
L 178.000457 183.813398 
L 175.959771 190.767878 
L 169.837714 213.036594 
L 167.286857 222.025669 
L 164.225829 232.064539 
L 161.674971 239.629277 
L 159.124114 246.32296 
L 157.083429 250.950166 
L 155.042743 254.843056 
L 153.002057 257.932135 
L 151.471543 259.684608 
L 150.4512 260.51657 
L 149.941029 260.717007 
L 149.430857 261.105082 
L 148.410514 261.470822 
L 147.390171 261.515211 
L 146.369829 261.20728 
L 144.839314 260.239879 
L 144.329143 259.477205 
L 143.818971 259.142845 
L 143.3088 257.065221 
L 142.798629 257.590587 
L 141.778286 255.792378 
L 140.247771 252.288031 
L 138.717257 248.150517 
L 138.207086 246.160459 
L 137.696914 244.77366 
L 136.676571 241.262193 
L 136.1664 238.926136 
L 135.146057 235.496758 
L 133.615543 230.097585 
L 133.105371 222.714925 
L 132.085029 218.223678 
L 128.513829 200.55367 
L 126.473143 189.075812 
L 124.942629 179.400012 
L 121.8816 159.882912 
L 120.861257 154.242149 
L 119.840914 149.722358 
L 118.820571 146.672335 
L 118.3104 145.694446 
L 117.800229 145.096745 
L 117.290057 144.837647 
L 116.779886 144.863171 
L 116.269714 145.19116 
L 115.759543 145.795933 
L 114.229029 148.475009 
L 113.208686 150.812163 
L 112.698514 152.615141 
L 112.188343 153.539537 
L 110.657829 157.3569 
L 109.637486 159.340184 
L 109.127314 159.988734 
L 108.617143 160.181743 
L 108.106971 159.912401 
L 107.5968 158.799941 
L 107.086629 157.102521 
L 106.576457 154.469933 
L 106.066286 150.91443 
L 105.556114 146.257649 
L 104.535771 133.36039 
L 103.515429 115.870443 
L 101.984914 83.25188 
L 99.434057 27.863906 
L 98.413714 6.012533 
L 98.159853 -1 
L 98.159853 -1 
" clip-path="url(#p5a826e6fab)" style="fill: none; stroke: #9b1f64; stroke-width: 0.5; stroke-linecap: square"/>
   </g>
   <g id="line2d_22">
    <path d="M 363.702857 308.218846 
L 363.192686 308.070297 
L 349.418057 308.220801 
L 347.377371 308.074259 
L 345.336686 307.973376 
L 341.255314 307.653096 
L 340.234971 307.645442 
L 339.214629 307.600249 
L 337.173943 307.57123 
L 332.5824 307.696477 
L 325.950171 308.18231 
L 324.419657 308.204954 
L 322.889143 308.362383 
L 318.2976 308.485334 
L 316.767086 308.58714 
L 315.236571 308.650649 
L 306.053486 308.495401 
L 298.911086 308.084174 
L 297.380571 307.91536 
L 296.360229 307.690424 
L 293.809371 307.390144 
L 290.238171 306.650343 
L 287.687314 305.884272 
L 285.136457 304.904768 
L 282.5856 303.671083 
L 279.0144 301.347489 
L 275.953371 298.840573 
L 272.892343 295.878608 
L 268.810971 291.31215 
L 256.056686 275.070703 
L 248.404114 264.734992 
L 242.282057 256.910036 
L 239.221029 253.483886 
L 231.568457 245.272025 
L 229.0176 241.957729 
L 226.976914 238.932556 
L 225.4464 236.331162 
L 223.405714 232.438781 
L 220.854857 226.880695 
L 218.814171 221.960798 
L 214.7328 211.35977 
L 209.631086 197.604536 
L 205.039543 185.613821 
L 201.978514 178.401777 
L 199.937829 174.243167 
L 197.897143 170.856562 
L 196.366629 168.877019 
L 194.836114 167.516577 
L 194.325943 167.140871 
L 192.795429 166.569526 
L 191.775086 166.487231 
L 190.754743 166.706583 
L 189.7344 167.176573 
L 188.203886 168.379708 
L 187.183543 169.542145 
L 185.653029 171.613024 
L 184.122514 174.396891 
L 182.592 177.759875 
L 181.061486 181.549878 
L 179.0208 187.347035 
L 176.469943 195.61613 
L 172.898743 208.114975 
L 169.327543 220.788342 
L 166.776686 229.311723 
L 163.715657 238.746018 
L 161.1648 245.766832 
L 159.634286 249.609864 
L 158.103771 253.084087 
L 156.573257 256.218094 
L 155.042743 258.874421 
L 152.491886 262.293234 
L 151.471543 263.312343 
L 150.4512 264.079049 
L 149.941029 264.243265 
L 149.430857 264.621569 
L 148.410514 264.873235 
L 147.390171 264.822286 
L 145.859657 264.164205 
L 145.349486 263.845432 
L 144.839314 263.360182 
L 144.329143 262.555458 
L 143.818971 262.070175 
L 143.3088 259.994871 
L 142.798629 260.522102 
L 141.268114 257.316533 
L 138.717257 250.111299 
L 138.207086 247.982956 
L 137.696914 246.639235 
L 135.146057 236.797511 
L 134.125714 232.251608 
L 133.615543 230.762781 
L 133.105371 221.987181 
L 132.085029 217.373616 
L 126.983314 190.544716 
L 125.4528 181.445443 
L 121.371429 157.334307 
L 120.351086 152.853443 
L 119.840914 151.021372 
L 118.820571 148.705697 
L 118.3104 147.968613 
L 117.800229 147.677158 
L 117.290057 147.743683 
L 116.779886 148.003112 
L 115.759543 149.646986 
L 114.7392 151.68059 
L 111.678171 160.317553 
L 110.657829 162.976206 
L 109.637486 165.224681 
L 109.127314 165.71882 
L 108.617143 165.909912 
L 108.106971 165.581579 
L 107.5968 164.53304 
L 107.086629 162.78337 
L 106.576457 160.168997 
L 106.066286 156.656346 
L 105.556114 152.044466 
L 104.535771 139.418413 
L 103.515429 122.409123 
L 101.984914 90.698763 
L 99.434057 35.601028 
L 98.413714 12.859983 
L 97.931582 -1 
L 97.931582 -1 
" clip-path="url(#p5a826e6fab)" style="fill: none; stroke: #8d1f72; stroke-width: 0.5; stroke-linecap: square"/>
   </g>
   <g id="line2d_23">
    <path d="M 363.702857 308.6358 
L 363.192686 308.485598 
L 360.131657 308.506835 
L 350.948571 308.41987 
L 346.357029 308.169879 
L 344.316343 307.947297 
L 339.214629 307.586857 
L 338.194286 307.584 
L 328.501029 307.986651 
L 327.480686 308.083952 
L 325.950171 308.13593 
L 316.256914 308.480588 
L 304.522971 308.131562 
L 296.8704 307.343518 
L 295.850057 307.138712 
L 294.829714 306.990109 
L 292.789029 306.614064 
L 290.238171 305.974266 
L 286.666971 304.646532 
L 284.626286 303.669654 
L 280.544914 301.010167 
L 278.504229 299.334102 
L 275.953371 296.865294 
L 273.402514 294.037503 
L 269.321143 288.793095 
L 265.239771 283.022018 
L 251.975314 262.761997 
L 247.383771 255.676025 
L 242.792229 248.88832 
L 236.670171 241.412657 
L 234.119314 238.576712 
L 231.058286 235.079876 
L 229.0176 232.546542 
L 226.976914 229.730991 
L 224.426057 225.665587 
L 222.385371 222.001347 
L 220.854857 219.059142 
L 218.304 213.734591 
L 207.080229 188.980938 
L 203.509029 181.73651 
L 201.468343 178.124527 
L 199.937829 175.753905 
L 198.917486 174.377945 
L 197.386971 172.671432 
L 195.856457 171.432978 
L 194.325943 170.736803 
L 193.3056 170.51617 
L 192.795429 170.460469 
L 191.775086 170.647834 
L 190.754743 171.035885 
L 189.7344 171.650797 
L 188.203886 173.036974 
L 186.1632 175.684062 
L 185.142857 177.312629 
L 183.612343 180.274846 
L 182.081829 183.647479 
L 180.041143 188.882769 
L 178.000457 194.693858 
L 174.939429 204.348985 
L 167.797029 227.359537 
L 165.246171 234.710224 
L 162.695314 241.338359 
L 161.1648 244.98839 
L 159.634286 248.39695 
L 157.083429 253.204092 
L 155.552914 255.604295 
L 154.0224 257.476852 
L 151.981714 259.379903 
L 150.4512 260.214044 
L 149.941029 260.241933 
L 149.430857 260.490292 
L 147.900343 260.330616 
L 147.390171 260.156337 
L 145.859657 258.99927 
L 144.839314 257.802294 
L 144.329143 256.851555 
L 143.818971 256.265974 
L 143.3088 253.90942 
L 142.798629 254.201133 
L 141.268114 250.34939 
L 139.7376 245.475478 
L 138.717257 241.862087 
L 138.207086 239.518813 
L 137.696914 237.833177 
L 136.676571 233.517246 
L 136.1664 230.714498 
L 135.656229 228.872883 
L 133.615543 219.825253 
L 133.105371 210.538153 
L 132.085029 205.294357 
L 127.493486 178.872833 
L 124.942629 162.60577 
L 123.412114 153.558377 
L 121.8816 145.653291 
L 120.351086 140.126268 
L 119.840914 138.829946 
L 119.330743 137.909516 
L 118.820571 137.304954 
L 118.3104 137.199859 
L 117.800229 137.384235 
L 116.779886 138.655972 
L 116.269714 139.732254 
L 114.7392 144.005597 
L 113.208686 148.68576 
L 112.698514 150.855245 
L 112.188343 151.920134 
L 111.168 154.792522 
L 110.147657 157.084801 
L 109.127314 158.132123 
L 108.617143 157.902752 
L 108.106971 157.217284 
L 107.5968 155.67577 
L 107.086629 153.455211 
L 106.576457 150.348641 
L 106.066286 146.233531 
L 105.556114 141.180278 
L 104.535771 127.768895 
L 103.515429 110.202919 
L 101.984914 78.058244 
L 98.515586 -1 
L 98.515586 -1 
" clip-path="url(#p5a826e6fab)" style="fill: none; stroke: #801f80; stroke-width: 0.5; stroke-linecap: square"/>
   </g>
   <g id="line2d_24">
    <path d="M 363.702857 308.453344 
L 363.192686 308.280287 
L 356.050286 308.420525 
L 353.499429 308.385301 
L 351.968914 308.383824 
L 346.8672 308.146111 
L 343.296 307.84687 
L 342.275657 307.729077 
L 339.7248 307.614019 
L 338.704457 307.648983 
L 337.684114 307.61384 
L 330.541714 307.860052 
L 328.501029 308.072159 
L 322.378971 308.356822 
L 321.8688 308.474783 
L 321.358629 308.345151 
L 320.338286 308.435929 
L 318.2976 308.469807 
L 317.277257 308.547404 
L 312.685714 308.566365 
L 301.461943 307.989045 
L 297.380571 307.545281 
L 296.360229 307.276982 
L 293.809371 306.870018 
L 290.748343 306.152555 
L 289.217829 305.64337 
L 287.177143 304.806489 
L 284.626286 303.503737 
L 283.095771 302.610948 
L 279.0144 299.377488 
L 276.973714 297.384322 
L 275.4432 295.722388 
L 272.382171 291.919079 
L 269.321143 287.656463 
L 266.770286 283.831871 
L 257.5872 269.13606 
L 244.322743 247.071283 
L 240.751543 242.00361 
L 237.180343 237.532138 
L 234.119314 233.98974 
L 230.037943 229.296193 
L 227.487086 226.119298 
L 224.426057 221.709903 
L 220.854857 215.778075 
L 214.222629 203.159106 
L 211.671771 198.25094 
L 207.080229 189.706423 
L 201.978514 181.380782 
L 199.937829 178.783393 
L 198.407314 177.243505 
L 196.8768 176.060831 
L 195.856457 175.53678 
L 194.325943 175.102386 
L 192.795429 175.139581 
L 191.264914 175.708639 
L 190.244571 176.337998 
L 189.224229 177.18487 
L 188.203886 178.250354 
L 186.1632 181.02633 
L 185.142857 182.630008 
L 183.612343 185.605205 
L 181.571657 190.120884 
L 178.000457 199.614587 
L 173.408914 213.688083 
L 168.817371 227.664361 
L 166.776686 233.364697 
L 164.736 238.668364 
L 162.185143 244.665383 
L 159.634286 249.860186 
L 158.103771 252.570833 
L 156.573257 254.940837 
L 155.552914 256.29467 
L 154.0224 257.901679 
L 153.002057 258.751244 
L 151.981714 259.446748 
L 150.961371 259.878456 
L 150.4512 260.013285 
L 148.920686 260.069402 
L 147.900343 259.775967 
L 146.88 259.061115 
L 145.859657 258.099574 
L 144.839314 256.724596 
L 143.818971 254.862752 
L 143.3088 252.429593 
L 142.798629 252.64595 
L 141.268114 248.406142 
L 140.757943 246.518411 
L 140.247771 245.073513 
L 138.717257 239.105989 
L 138.207086 236.519235 
L 137.186743 232.38819 
L 134.125714 217.369566 
L 133.615543 215.482238 
L 133.105371 205.934203 
L 132.5952 203.575147 
L 122.901943 145.992085 
L 121.8816 141.494091 
L 120.861257 138.03566 
L 119.840914 135.959864 
L 119.330743 135.35291 
L 118.820571 135.151508 
L 118.3104 135.236434 
L 117.800229 135.816873 
L 116.779886 137.588418 
L 116.269714 138.869024 
L 113.208686 149.196348 
L 112.698514 151.479758 
L 112.188343 152.567302 
L 111.168 155.445122 
L 110.147657 157.682177 
L 109.637486 158.287148 
L 109.127314 158.462352 
L 108.617143 158.105587 
L 108.106971 157.168608 
L 107.5968 155.442823 
L 107.086629 152.99403 
L 106.576457 149.743121 
L 105.556114 140.096639 
L 104.535771 126.382987 
L 103.515429 108.803093 
L 101.984914 76.792197 
L 98.923886 8.005238 
L 98.581961 -1 
L 98.581961 -1 
" clip-path="url(#p5a826e6fab)" style="fill: none; stroke: #721f8d; stroke-width: 0.5; stroke-linecap: square"/>
   </g>
   <g id="line2d_25">
    <path d="M 363.702857 308.261943 
L 362.682514 308.13745 
L 360.641829 308.20998 
L 356.560457 308.288599 
L 355.029943 308.290883 
L 348.397714 308.153873 
L 346.357029 308.024214 
L 344.826514 307.91606 
L 342.785829 307.730741 
L 338.704457 307.595813 
L 335.133257 307.573681 
L 333.602743 307.636365 
L 331.051886 307.779266 
L 323.399314 308.247721 
L 322.378971 308.327576 
L 321.8688 308.424095 
L 321.358629 308.272873 
L 318.807771 308.457546 
L 314.7264 308.611346 
L 309.624686 308.601364 
L 307.584 308.471258 
L 306.053486 308.40838 
L 302.482286 308.21422 
L 299.421257 307.948759 
L 297.380571 307.700001 
L 296.360229 307.399706 
L 294.319543 307.098461 
L 291.258514 306.398735 
L 288.707657 305.48328 
L 285.646629 304.046638 
L 283.605943 302.828245 
L 281.055086 300.913682 
L 279.0144 299.082284 
L 276.463543 296.376532 
L 273.402514 292.545418 
L 270.851657 288.940074 
L 264.219429 278.38642 
L 255.036343 262.358734 
L 244.322743 243.382137 
L 240.751543 238.005964 
L 237.690514 233.907858 
L 225.956571 220.168155 
L 222.895543 216.01994 
L 215.753143 204.795046 
L 211.1616 197.476009 
L 207.5904 192.134903 
L 204.529371 187.838984 
L 200.958171 183.786686 
L 199.937829 182.880808 
L 198.407314 181.774164 
L 197.386971 181.258228 
L 195.856457 180.780453 
L 194.836114 180.670824 
L 193.3056 180.901966 
L 191.775086 181.532738 
L 190.754743 182.238932 
L 189.7344 183.116907 
L 188.714057 184.164745 
L 187.693714 185.440156 
L 186.1632 187.643029 
L 185.142857 189.283043 
L 183.102171 193.374718 
L 182.081829 195.582178 
L 179.0208 203.248165 
L 174.939429 214.876107 
L 170.858057 227.046492 
L 168.817371 232.806825 
L 166.266514 239.35371 
L 163.715657 245.254998 
L 161.674971 249.515235 
L 159.634286 253.31908 
L 157.083429 257.221662 
L 155.552914 259.052815 
L 154.532571 260.050953 
L 152.491886 261.515175 
L 150.961371 262.078358 
L 149.941029 262.1083 
L 149.430857 262.157332 
L 148.410514 261.872228 
L 147.390171 261.274516 
L 145.859657 259.753097 
L 144.839314 258.213156 
L 144.329143 257.074276 
L 143.818971 256.225708 
L 143.3088 253.671229 
L 142.798629 253.840292 
L 141.268114 249.176856 
L 138.717257 239.330611 
L 138.207086 236.656235 
L 137.696914 234.598356 
L 136.676571 229.490527 
L 136.1664 226.336934 
L 135.146057 221.331345 
L 133.615543 214.227701 
L 133.105371 203.430097 
L 132.085029 197.793946 
L 130.554514 188.668753 
L 124.942629 155.866328 
L 123.412114 148.079397 
L 122.391771 143.817356 
L 121.371429 140.57254 
L 120.861257 139.262208 
L 120.351086 138.38114 
L 119.840914 137.752311 
L 119.330743 137.362937 
L 118.820571 137.619655 
L 118.3104 138.123615 
L 117.800229 138.891907 
L 116.779886 141.216187 
L 115.249371 146.434135 
L 113.208686 154.513659 
L 112.698514 156.840833 
L 112.188343 158.059473 
L 111.168 161.206053 
L 110.657829 162.547184 
L 110.147657 163.5348 
L 109.637486 164.185347 
L 109.127314 164.3076 
L 108.617143 164.086292 
L 108.106971 163.014067 
L 107.5968 161.458991 
L 107.086629 158.866784 
L 106.066286 151.486317 
L 105.045943 140.034597 
L 104.0256 124.847795 
L 103.005257 106.391895 
L 100.964571 63.699224 
L 98.923886 17.689474 
L 98.272075 -1 
L 98.272075 -1 
" clip-path="url(#p5a826e6fab)" style="fill: none; stroke: #641f9b; stroke-width: 0.5; stroke-linecap: square"/>
   </g>
   <g id="line2d_26">
    <path d="M 363.702857 308.693903 
L 363.192686 308.523001 
L 360.641829 308.59379 
L 357.5808 308.541529 
L 356.560457 308.57481 
L 355.029943 308.552336 
L 351.458743 308.44908 
L 349.928229 308.404326 
L 348.907886 308.401449 
L 347.887543 308.238985 
L 346.357029 308.157506 
L 339.7248 307.605278 
L 339.214629 307.691878 
L 338.194286 307.584 
L 336.1536 307.548836 
L 331.562057 307.699956 
L 327.480686 308.052215 
L 323.909486 308.241921 
L 323.399314 308.217714 
L 322.889143 308.322343 
L 320.848457 308.296684 
L 318.2976 308.431134 
L 311.1552 308.421928 
L 309.624686 308.350965 
L 308.094171 308.329809 
L 299.421257 307.534564 
L 296.360229 306.962228 
L 291.258514 305.764658 
L 286.666971 303.80817 
L 282.5856 301.126074 
L 281.055086 299.829817 
L 278.504229 297.25235 
L 276.463543 294.850574 
L 274.422857 292.141247 
L 271.872 288.331129 
L 267.790629 281.610228 
L 259.627886 266.68447 
L 255.546514 258.903114 
L 246.363429 241.36173 
L 242.282057 234.269182 
L 239.221029 229.701146 
L 235.649829 225.048661 
L 226.976914 215.193164 
L 224.426057 212.105093 
L 220.344686 206.632396 
L 216.773486 201.615148 
L 212.692114 195.933158 
L 208.610743 190.692291 
L 205.549714 187.082422 
L 202.998857 184.458439 
L 200.958171 182.77429 
L 199.427657 181.865968 
L 198.407314 181.356654 
L 197.386971 181.033252 
L 195.856457 180.816253 
L 194.836114 180.907285 
L 193.3056 181.300174 
L 191.264914 182.486642 
L 189.7344 183.860592 
L 188.714057 184.941409 
L 187.693714 186.270101 
L 185.653029 189.361668 
L 183.612343 193.168391 
L 181.571657 197.60865 
L 178.510629 205.190148 
L 176.469943 210.734784 
L 168.3072 233.093738 
L 166.266514 237.915314 
L 164.225829 242.322693 
L 161.674971 247.180393 
L 160.144457 249.830633 
L 158.613943 252.143823 
L 157.083429 254.124272 
L 155.552914 255.700443 
L 153.512229 257.115733 
L 152.491886 257.549016 
L 151.471543 257.842137 
L 150.4512 257.811237 
L 149.941029 257.693045 
L 149.430857 257.695507 
L 148.410514 257.186396 
L 147.390171 256.409506 
L 146.369829 255.224419 
L 145.349486 253.72735 
L 144.839314 252.796055 
L 144.329143 251.550543 
L 143.818971 250.632096 
L 143.3088 247.913571 
L 142.798629 247.955994 
L 141.268114 242.938899 
L 139.7376 236.837273 
L 138.717257 232.320992 
L 138.207086 229.422572 
L 137.696914 227.2509 
L 134.635886 210.753725 
L 134.125714 207.703411 
L 133.615543 205.659371 
L 133.105371 195.063525 
L 132.085029 188.875738 
L 124.432457 140.305609 
L 123.412114 135.211051 
L 122.391771 131.0662 
L 121.371429 128.2159 
L 120.861257 127.224687 
L 120.351086 126.562496 
L 119.840914 126.298719 
L 119.330743 126.262938 
L 118.820571 126.632088 
L 117.800229 128.325159 
L 116.779886 131.202159 
L 113.718857 143.470681 
L 113.208686 145.513049 
L 112.698514 148.032056 
L 112.188343 149.233935 
L 111.168 152.179352 
L 110.147657 154.125559 
L 109.637486 154.501411 
L 109.127314 154.340403 
L 108.617143 153.695144 
L 108.106971 152.28758 
L 107.5968 150.246005 
L 107.086629 147.282969 
L 106.066286 138.815037 
L 105.045943 126.288818 
L 104.0256 110.037035 
L 102.495086 79.883985 
L 99.944229 22.255625 
L 98.997901 -1 
L 98.997901 -1 
" clip-path="url(#p5a826e6fab)" style="fill: none; stroke: #561fa9; stroke-width: 0.5; stroke-linecap: square"/>
   </g>
   <g id="line2d_27">
    <path d="M 363.702857 308.709604 
L 363.192686 308.5553 
L 361.152 308.657595 
L 359.621486 308.576384 
L 355.540114 308.538042 
L 354.519771 308.533735 
L 348.397714 308.334533 
L 346.8672 308.200003 
L 339.214629 307.618179 
L 338.194286 307.584 
L 336.1536 307.55828 
L 331.562057 307.696015 
L 331.051886 307.805493 
L 330.031543 307.854461 
L 317.787429 308.353137 
L 314.216229 308.392685 
L 305.543314 308.071668 
L 299.931429 307.464703 
L 296.8704 306.959192 
L 296.360229 306.76334 
L 293.809371 306.2932 
L 290.238171 305.204863 
L 287.177143 303.797785 
L 285.136457 302.680006 
L 283.605943 301.623479 
L 281.565257 299.978908 
L 278.504229 296.905408 
L 275.4432 293.06351 
L 273.402514 290.123995 
L 269.831314 284.337475 
L 263.709257 273.137629 
L 256.056686 258.077497 
L 248.404114 242.733065 
L 243.3024 233.086702 
L 239.7312 227.420375 
L 237.690514 224.510812 
L 235.649829 221.857042 
L 231.058286 216.570731 
L 222.895543 207.397147 
L 220.344686 204.30172 
L 213.202286 195.602104 
L 207.080229 189.245392 
L 204.529371 186.961387 
L 202.998857 185.815248 
L 201.468343 184.8464 
L 199.427657 183.942743 
L 198.407314 183.666978 
L 196.8768 183.512474 
L 195.346286 183.673085 
L 194.325943 183.950317 
L 192.795429 184.682921 
L 191.775086 185.373743 
L 190.244571 186.693962 
L 188.714057 188.421175 
L 187.183543 190.528787 
L 185.142857 193.809079 
L 183.612343 196.754839 
L 181.571657 201.128889 
L 178.510629 208.501386 
L 174.429257 219.411006 
L 171.368229 227.715915 
L 168.3072 235.317035 
L 165.756343 240.897207 
L 163.715657 244.858884 
L 161.674971 248.445357 
L 160.144457 250.883449 
L 158.103771 253.666087 
L 156.573257 255.280908 
L 155.552914 256.180005 
L 154.0224 257.159975 
L 153.002057 257.55262 
L 151.981714 257.846646 
L 150.961371 257.853876 
L 150.4512 257.80002 
L 149.941029 257.580411 
L 149.430857 257.560253 
L 148.410514 256.984817 
L 147.390171 256.112302 
L 145.859657 254.064099 
L 144.839314 252.205301 
L 144.329143 250.847516 
L 143.818971 249.899851 
L 143.3088 247.052465 
L 142.798629 247.062339 
L 141.268114 241.783885 
L 140.247771 237.568986 
L 139.7376 235.003043 
L 139.227429 233.109436 
L 137.696914 225.198798 
L 135.146057 210.411872 
L 134.125714 205.329328 
L 133.615543 202.595471 
L 133.105371 192.228731 
L 132.085029 185.845966 
L 129.534171 169.173588 
L 128.003657 159.487056 
L 125.4528 143.198949 
L 124.432457 137.50928 
L 123.412114 132.675576 
L 122.391771 129.024865 
L 121.8816 127.622945 
L 121.371429 126.612487 
L 120.861257 125.87921 
L 120.351086 125.539879 
L 119.840914 125.365693 
L 119.330743 125.628809 
L 118.820571 126.21472 
L 118.3104 127.064118 
L 117.800229 128.358615 
L 116.779886 131.765773 
L 115.249371 138.076263 
L 112.698514 149.585388 
L 112.188343 150.893315 
L 111.678171 152.597767 
L 110.657829 155.085539 
L 110.147657 155.795566 
L 109.637486 156.14263 
L 109.127314 155.989698 
L 108.617143 155.242806 
L 108.106971 153.793236 
L 107.5968 151.517479 
L 107.086629 148.515252 
L 106.576457 144.5904 
L 105.556114 133.869605 
L 104.535771 119.467062 
L 103.515429 101.424765 
L 101.984914 69.837675 
L 99.434057 11.490815 
L 98.953744 -1 
L 98.953744 -1 
" clip-path="url(#p5a826e6fab)" style="fill: none; stroke: #481fb7; stroke-width: 0.5; stroke-linecap: square"/>
   </g>
   <g id="line2d_28">
    <path d="M 363.702857 308.290433 
L 363.192686 308.110981 
L 359.111314 308.244389 
L 357.5808 308.250131 
L 355.029943 308.285585 
L 350.4384 308.268557 
L 344.826514 307.911072 
L 340.745143 307.630027 
L 337.684114 307.577446 
L 335.133257 307.605548 
L 333.092571 307.710737 
L 332.072229 307.728617 
L 321.8688 308.420064 
L 321.358629 308.300997 
L 318.2976 308.515306 
L 317.277257 308.525879 
L 315.746743 308.562395 
L 313.706057 308.645785 
L 311.665371 308.594656 
L 308.604343 308.500726 
L 304.522971 308.295601 
L 300.4416 307.940088 
L 294.829714 306.962065 
L 293.2992 306.598985 
L 291.768686 306.155478 
L 289.728 305.45866 
L 285.136457 303.090995 
L 281.055086 299.830841 
L 277.994057 296.493909 
L 274.422857 291.641574 
L 271.872 287.552007 
L 269.321143 283.117731 
L 266.770286 278.335947 
L 261.668571 268.057281 
L 256.056686 256.376299 
L 249.934629 243.434605 
L 244.832914 233.066146 
L 241.771886 227.538852 
L 239.7312 224.197321 
L 237.180343 220.454645 
L 233.609143 215.940796 
L 228.507429 210.443342 
L 226.466743 208.445261 
L 222.385371 204.389353 
L 217.283657 199.29757 
L 214.7328 196.956259 
L 212.692114 195.180695 
L 206.570057 190.825931 
L 205.039543 189.958927 
L 202.998857 189.01986 
L 199.937829 188.254899 
L 197.897143 188.295597 
L 196.366629 188.606152 
L 193.815771 189.892785 
L 192.285257 191.032329 
L 190.754743 192.503114 
L 189.224229 194.316943 
L 187.693714 196.424925 
L 185.142857 200.599027 
L 182.081829 206.941444 
L 180.551314 210.395215 
L 176.469943 220.569932 
L 169.327543 238.745254 
L 166.266514 245.219599 
L 163.715657 249.876473 
L 161.1648 253.807703 
L 159.634286 255.908817 
L 157.5936 258.207121 
L 156.063086 259.515705 
L 155.042743 260.141465 
L 153.512229 260.775935 
L 151.981714 261.035185 
L 150.961371 260.987941 
L 150.4512 260.902484 
L 149.941029 260.631748 
L 149.430857 260.50815 
L 148.410514 259.866988 
L 147.390171 258.883849 
L 145.859657 256.690036 
L 144.839314 254.702606 
L 143.818971 252.244775 
L 143.3088 249.328412 
L 142.798629 249.182942 
L 141.778286 245.606145 
L 140.757943 241.323563 
L 139.7376 236.832779 
L 138.717257 231.869408 
L 138.207086 228.660915 
L 137.696914 226.207364 
L 133.615543 202.54998 
L 133.105371 190.325288 
L 132.5952 187.468498 
L 129.534171 166.617405 
L 124.942629 136.707551 
L 123.922286 131.691943 
L 122.901943 127.907175 
L 121.8816 125.222191 
L 121.371429 124.543028 
L 120.861257 124.067209 
L 120.351086 123.969819 
L 119.840914 124.343437 
L 119.330743 124.920862 
L 118.820571 125.765752 
L 118.3104 127.020807 
L 117.290057 130.372358 
L 115.759543 137.099529 
L 113.718857 147.184476 
L 112.698514 152.196013 
L 112.188343 153.582587 
L 111.168 156.812017 
L 110.657829 157.924107 
L 110.147657 158.702564 
L 109.637486 158.982414 
L 109.127314 158.72202 
L 108.617143 157.902813 
L 108.106971 156.381945 
L 107.5968 154.036768 
L 107.086629 150.905811 
L 106.066286 141.89568 
L 105.045943 129.264617 
L 104.0256 113.313792 
L 102.495086 84.410404 
L 100.4544 39.737779 
L 98.923886 1.929858 
L 98.829432 -1 
L 98.829432 -1 
" clip-path="url(#p5a826e6fab)" style="fill: none; stroke: #3a1fc5; stroke-width: 0.5; stroke-linecap: square"/>
   </g>
   <g id="line2d_29">
    <path d="M 363.702857 308.481848 
L 363.192686 308.340895 
L 359.111314 308.457888 
L 358.601143 308.38626 
L 357.5808 308.376219 
L 355.540114 308.401074 
L 346.357029 308.125478 
L 344.316343 307.877117 
L 343.296 307.810839 
L 342.275657 307.72685 
L 337.684114 307.561261 
L 334.112914 307.623521 
L 330.031543 307.880156 
L 326.970514 308.083606 
L 324.419657 308.172663 
L 321.8688 308.410725 
L 321.358629 308.288485 
L 315.746743 308.509714 
L 306.053486 308.231853 
L 305.033143 308.11124 
L 302.992457 307.932152 
L 298.400914 307.401876 
L 293.2992 306.138074 
L 291.258514 305.471903 
L 289.728 304.845066 
L 287.177143 303.501647 
L 284.626286 301.848906 
L 282.5856 300.110419 
L 280.544914 298.035066 
L 278.504229 295.574582 
L 276.973714 293.503118 
L 273.912686 288.69598 
L 271.361829 284.10735 
L 267.790629 277.025956 
L 262.178743 264.88612 
L 244.322743 224.391487 
L 242.792229 221.316284 
L 240.241371 216.685211 
L 238.200686 213.395078 
L 235.649829 209.727672 
L 233.098971 206.585434 
L 230.548114 203.853678 
L 227.487086 200.982355 
L 223.405714 197.659593 
L 219.324343 194.762514 
L 215.242971 192.405362 
L 211.1616 190.827049 
L 206.570057 189.756331 
L 202.488686 189.683077 
L 199.937829 190.214371 
L 198.407314 190.793872 
L 196.8768 191.610079 
L 195.856457 192.229947 
L 193.3056 194.303628 
L 191.264914 196.426202 
L 189.224229 199.026075 
L 187.183543 202.112097 
L 184.632686 206.537201 
L 181.571657 212.742278 
L 176.980114 223.152405 
L 172.898743 232.822647 
L 169.837714 239.537882 
L 167.286857 244.336584 
L 165.246171 247.632236 
L 162.695314 251.131695 
L 160.144457 254.077316 
L 157.5936 256.259467 
L 156.573257 256.879408 
L 155.552914 257.295138 
L 153.512229 257.643754 
L 151.981714 257.450891 
L 150.961371 257.148406 
L 150.4512 256.894843 
L 149.941029 256.490222 
L 149.430857 256.305541 
L 147.900343 254.722166 
L 147.390171 254.101049 
L 146.369829 252.449985 
L 145.349486 250.313624 
L 144.839314 249.183188 
L 143.818971 246.341267 
L 143.3088 243.176374 
L 142.798629 242.941742 
L 141.268114 236.817613 
L 138.717257 223.82685 
L 138.207086 220.394888 
L 137.186743 214.504914 
L 136.676571 211.347839 
L 136.1664 207.376176 
L 135.146057 201.251135 
L 134.125714 194.87599 
L 133.615543 192.50439 
L 133.105371 179.89667 
L 132.085029 172.895782 
L 130.044343 158.38279 
L 125.962971 131.888528 
L 124.942629 126.216689 
L 123.922286 121.775096 
L 122.901943 118.398339 
L 122.391771 117.267889 
L 121.8816 116.657168 
L 121.371429 116.272936 
L 120.861257 116.361946 
L 120.351086 116.710066 
L 119.840914 117.209585 
L 119.330743 118.194677 
L 118.820571 119.573532 
L 117.800229 123.178972 
L 116.779886 127.59602 
L 112.698514 149.199438 
L 112.188343 150.619241 
L 111.168 153.788543 
L 110.657829 154.818563 
L 110.147657 155.52144 
L 109.637486 155.666678 
L 109.127314 155.218524 
L 108.617143 154.180851 
L 108.106971 152.255581 
L 107.5968 149.676221 
L 107.086629 146.313132 
L 106.066286 136.837478 
L 105.045943 123.811093 
L 104.0256 107.717568 
L 103.005257 89.233527 
L 101.474743 58.137365 
L 99.944229 23.450381 
L 99.008585 -1 
L 99.008585 -1 
" clip-path="url(#p5a826e6fab)" style="fill: none; stroke: #2c1fd3; stroke-width: 0.5; stroke-linecap: square"/>
   </g>
   <g id="line2d_30">
    <path d="M 363.702857 308.239922 
L 363.192686 308.086013 
L 358.090971 308.274046 
L 356.560457 308.264415 
L 354.519771 308.298633 
L 352.989257 308.311208 
L 350.4384 308.256103 
L 347.377371 308.130978 
L 343.806171 307.856391 
L 342.275657 307.696107 
L 338.704457 307.586901 
L 334.112914 307.670644 
L 330.541714 307.90512 
L 326.970514 308.197343 
L 325.44 308.276118 
L 321.8688 308.559763 
L 321.358629 308.417437 
L 314.216229 308.70257 
L 312.685714 308.636087 
L 311.665371 308.634295 
L 309.624686 308.602601 
L 308.604343 308.520755 
L 305.543314 308.324897 
L 299.421257 307.752998 
L 297.890743 307.500491 
L 295.339886 306.919603 
L 293.809371 306.515807 
L 292.278857 306.093595 
L 289.217829 304.881311 
L 286.1568 303.132234 
L 284.116114 301.634067 
L 281.055086 298.76772 
L 278.504229 295.71365 
L 276.463543 292.841668 
L 273.402514 287.795282 
L 270.851657 283.045897 
L 267.790629 276.729428 
L 262.688914 265.217556 
L 258.607543 255.615781 
L 248.404114 231.377779 
L 242.792229 219.097717 
L 239.7312 213.431206 
L 237.180343 209.309354 
L 234.119314 205.16983 
L 232.078629 202.826378 
L 230.548114 201.217241 
L 228.507429 199.41838 
L 226.976914 198.148977 
L 224.426057 196.26219 
L 221.365029 194.318177 
L 217.793829 192.55751 
L 214.222629 191.37859 
L 212.181943 191.000993 
L 208.100571 190.827746 
L 204.529371 191.213009 
L 200.958171 192.395352 
L 198.917486 193.435696 
L 197.897143 194.171101 
L 196.8768 194.896263 
L 194.836114 196.663487 
L 192.795429 198.790363 
L 190.754743 201.314168 
L 188.203886 205.058938 
L 185.653029 209.433385 
L 184.122514 212.382535 
L 182.081829 216.562784 
L 178.000457 225.707269 
L 171.8784 239.792046 
L 169.837714 244.012867 
L 167.797029 247.753414 
L 166.266514 250.213389 
L 164.736 252.400223 
L 162.695314 254.989224 
L 161.674971 256.13122 
L 159.634286 258.139932 
L 158.103771 259.328967 
L 157.083429 259.95243 
L 155.552914 260.586153 
L 152.491886 260.591543 
L 151.471543 260.306271 
L 150.4512 259.791013 
L 149.941029 259.332298 
L 149.430857 259.123177 
L 148.410514 258.071116 
L 147.390171 256.772561 
L 146.369829 255.015706 
L 145.349486 252.949916 
L 144.839314 251.685371 
L 143.818971 248.778458 
L 143.3088 245.507134 
L 142.798629 245.263303 
L 141.268114 238.898428 
L 138.717257 225.417703 
L 135.146057 202.133368 
L 134.125714 195.437048 
L 133.615543 193.03202 
L 133.105371 180.536084 
L 132.085029 173.344316 
L 129.024 151.319365 
L 126.983314 137.284161 
L 125.962971 130.693505 
L 124.432457 122.580897 
L 123.412114 118.968531 
L 122.391771 116.685293 
L 121.371429 116.047131 
L 120.861257 116.362326 
L 120.351086 116.9234 
L 119.840914 117.773432 
L 118.820571 120.550915 
L 117.800229 124.738605 
L 116.269714 132.632059 
L 112.698514 152.992318 
L 112.188343 154.334506 
L 111.678171 156.194414 
L 110.657829 158.793877 
L 110.147657 159.483576 
L 109.637486 159.503072 
L 109.127314 159.107301 
L 108.617143 157.900465 
L 108.106971 155.989126 
L 107.5968 153.308914 
L 107.086629 149.82073 
L 106.066286 140.007213 
L 105.045943 126.957075 
L 104.0256 111.014842 
L 102.495086 82.806136 
L 100.964571 51.04494 
L 99.434057 14.276899 
L 98.904154 -1 
L 98.904154 -1 
" clip-path="url(#p5a826e6fab)" style="fill: none; stroke: #1f1fe0; stroke-width: 0.5; stroke-linecap: square"/>
   </g>
   <g id="patch_3">
    <path d="M 57.6 307.584 
L 57.6 41.472 
" style="fill: none; stroke: #000000; stroke-width: 0.8; stroke-linejoin: miter; stroke-linecap: square"/>
   </g>
   <g id="patch_4">
    <path d="M 414.72 307.584 
L 414.72 41.472 
" style="fill: none; stroke: #000000; stroke-width: 0.8; stroke-linejoin: miter; stroke-linecap: square"/>
   </g>
   <g id="patch_5">
    <path d="M 57.6 307.584 
L 414.72 307.584 
" style="fill: none; stroke: #000000; stroke-width: 0.8; stroke-linejoin: miter; stroke-linecap: square"/>
   </g>
   <g id="patch_6">
    <path d="M 57.6 41.472 
L 414.72 41.472 
" style="fill: none; stroke: #000000; stroke-width: 0.8; stroke-linejoin: miter; stroke-linecap: square"/>
   </g>
   <g id="text_18">
    <!-- IDA Titration of Alizarin:ompPBA complex &amp; Hydrobenzoin in MeOH  -->
    <g transform="translate(33.158437 22.034625) scale(0.12 -0.12)">
     <defs>
      <path id="DejaVuSans-49" d="M 628 4666 
L 1259 4666 
L 1259 0 
L 628 0 
L 628 4666 
z
" transform="scale(0.015625)"/>
      <path id="DejaVuSans-44" d="M 1259 4147 
L 1259 519 
L 2022 519 
Q 2988 519 3436 956 
Q 3884 1394 3884 2338 
Q 3884 3275 3436 3711 
Q 2988 4147 2022 4147 
L 1259 4147 
z
M 628 4666 
L 1925 4666 
Q 3281 4666 3915 4102 
Q 4550 3538 4550 2338 
Q 4550 1131 3912 565 
Q 3275 0 1925 0 
L 628 0 
L 628 4666 
z
" transform="scale(0.015625)"/>
      <path id="DejaVuSans-54" d="M -19 4666 
L 3928 4666 
L 3928 4134 
L 2272 4134 
L 2272 0 
L 1638 0 
L 1638 4134 
L -19 4134 
L -19 4666 
z
" transform="scale(0.015625)"/>
      <path id="DejaVuSans-69" d="M 603 3500 
L 1178 3500 
L 1178 0 
L 603 0 
L 603 3500 
z
M 603 4863 
L 1178 4863 
L 1178 4134 
L 603 4134 
L 603 4863 
z
" transform="scale(0.015625)"/>
      <path id="DejaVuSans-66" d="M 2375 4863 
L 2375 4384 
L 1825 4384 
Q 1516 4384 1395 4259 
Q 1275 4134 1275 3809 
L 1275 3500 
L 2222 3500 
L 2222 3053 
L 1275 3053 
L 1275 0 
L 697 0 
L 697 3053 
L 147 3053 
L 147 3500 
L 697 3500 
L 697 3744 
Q 697 4328 969 4595 
Q 1241 4863 1831 4863 
L 2375 4863 
z
" transform="scale(0.015625)"/>
      <path id="DejaVuSans-7a" d="M 353 3500 
L 3084 3500 
L 3084 2975 
L 922 459 
L 3084 459 
L 3084 0 
L 275 0 
L 275 525 
L 2438 3041 
L 353 3041 
L 353 3500 
z
" transform="scale(0.015625)"/>
      <path id="DejaVuSans-3a" d="M 750 794 
L 1409 794 
L 1409 0 
L 750 0 
L 750 794 
z
M 750 3309 
L 1409 3309 
L 1409 2516 
L 750 2516 
L 750 3309 
z
" transform="scale(0.015625)"/>
      <path id="DejaVuSans-70" d="M 1159 525 
L 1159 -1331 
L 581 -1331 
L 581 3500 
L 1159 3500 
L 1159 2969 
Q 1341 3281 1617 3432 
Q 1894 3584 2278 3584 
Q 2916 3584 3314 3078 
Q 3713 2572 3713 1747 
Q 3713 922 3314 415 
Q 2916 -91 2278 -91 
Q 1894 -91 1617 61 
Q 1341 213 1159 525 
z
M 3116 1747 
Q 3116 2381 2855 2742 
Q 2594 3103 2138 3103 
Q 1681 3103 1420 2742 
Q 1159 2381 1159 1747 
Q 1159 1113 1420 752 
Q 1681 391 2138 391 
Q 2594 391 2855 752 
Q 3116 1113 3116 1747 
z
" transform="scale(0.015625)"/>
      <path id="DejaVuSans-50" d="M 1259 4147 
L 1259 2394 
L 2053 2394 
Q 2494 2394 2734 2622 
Q 2975 2850 2975 3272 
Q 2975 3691 2734 3919 
Q 2494 4147 2053 4147 
L 1259 4147 
z
M 628 4666 
L 2053 4666 
Q 2838 4666 3239 4311 
Q 3641 3956 3641 3272 
Q 3641 2581 3239 2228 
Q 2838 1875 2053 1875 
L 1259 1875 
L 1259 0 
L 628 0 
L 628 4666 
z
" transform="scale(0.015625)"/>
      <path id="DejaVuSans-42" d="M 1259 2228 
L 1259 519 
L 2272 519 
Q 2781 519 3026 730 
Q 3272 941 3272 1375 
Q 3272 1813 3026 2020 
Q 2781 2228 2272 2228 
L 1259 2228 
z
M 1259 4147 
L 1259 2741 
L 2194 2741 
Q 2656 2741 2882 2914 
Q 3109 3088 3109 3444 
Q 3109 3797 2882 3972 
Q 2656 4147 2194 4147 
L 1259 4147 
z
M 628 4666 
L 2241 4666 
Q 2963 4666 3353 4366 
Q 3744 4066 3744 3513 
Q 3744 3084 3544 2831 
Q 3344 2578 2956 2516 
Q 3422 2416 3680 2098 
Q 3938 1781 3938 1306 
Q 3938 681 3513 340 
Q 3088 0 2303 0 
L 628 0 
L 628 4666 
z
" transform="scale(0.015625)"/>
      <path id="DejaVuSans-78" d="M 3513 3500 
L 2247 1797 
L 3578 0 
L 2900 0 
L 1881 1375 
L 863 0 
L 184 0 
L 1544 1831 
L 300 3500 
L 978 3500 
L 1906 2253 
L 2834 3500 
L 3513 3500 
z
" transform="scale(0.015625)"/>
      <path id="DejaVuSans-26" d="M 1556 2509 
Q 1272 2256 1139 2004 
Q 1006 1753 1006 1478 
Q 1006 1022 1337 719 
Q 1669 416 2169 416 
Q 2466 416 2725 514 
Q 2984 613 3213 813 
L 1556 2509 
z
M 1997 2859 
L 3584 1234 
Q 3769 1513 3872 1830 
Q 3975 2147 3994 2503 
L 4575 2503 
Q 4538 2091 4375 1687 
Q 4213 1284 3922 891 
L 4794 0 
L 4006 0 
L 3559 459 
Q 3234 181 2878 45 
Q 2522 -91 2113 -91 
Q 1359 -91 881 339 
Q 403 769 403 1441 
Q 403 1841 612 2192 
Q 822 2544 1241 2853 
Q 1091 3050 1012 3245 
Q 934 3441 934 3628 
Q 934 4134 1281 4442 
Q 1628 4750 2203 4750 
Q 2463 4750 2720 4694 
Q 2978 4638 3244 4525 
L 3244 3956 
Q 2972 4103 2725 4179 
Q 2478 4256 2266 4256 
Q 1938 4256 1733 4082 
Q 1528 3909 1528 3634 
Q 1528 3475 1620 3314 
Q 1713 3153 1997 2859 
z
" transform="scale(0.015625)"/>
      <path id="DejaVuSans-48" d="M 628 4666 
L 1259 4666 
L 1259 2753 
L 3553 2753 
L 3553 4666 
L 4184 4666 
L 4184 0 
L 3553 0 
L 3553 2222 
L 1259 2222 
L 1259 0 
L 628 0 
L 628 4666 
z
" transform="scale(0.015625)"/>
      <path id="DejaVuSans-79" d="M 2059 -325 
Q 1816 -950 1584 -1140 
Q 1353 -1331 966 -1331 
L 506 -1331 
L 506 -850 
L 844 -850 
Q 1081 -850 1212 -737 
Q 1344 -625 1503 -206 
L 1606 56 
L 191 3500 
L 800 3500 
L 1894 763 
L 2988 3500 
L 3597 3500 
L 2059 -325 
z
" transform="scale(0.015625)"/>
      <path id="DejaVuSans-64" d="M 2906 2969 
L 2906 4863 
L 3481 4863 
L 3481 0 
L 2906 0 
L 2906 525 
Q 2725 213 2448 61 
Q 2172 -91 1784 -91 
Q 1150 -91 751 415 
Q 353 922 353 1747 
Q 353 2572 751 3078 
Q 1150 3584 1784 3584 
Q 2172 3584 2448 3432 
Q 2725 3281 2906 2969 
z
M 947 1747 
Q 947 1113 1208 752 
Q 1469 391 1925 391 
Q 2381 391 2643 752 
Q 2906 1113 2906 1747 
Q 2906 2381 2643 2742 
Q 2381 3103 1925 3103 
Q 1469 3103 1208 2742 
Q 947 2381 947 1747 
z
" transform="scale(0.015625)"/>
      <path id="DejaVuSans-4d" d="M 628 4666 
L 1569 4666 
L 2759 1491 
L 3956 4666 
L 4897 4666 
L 4897 0 
L 4281 0 
L 4281 4097 
L 3078 897 
L 2444 897 
L 1241 4097 
L 1241 0 
L 628 0 
L 628 4666 
z
" transform="scale(0.015625)"/>
      <path id="DejaVuSans-4f" d="M 2522 4238 
Q 1834 4238 1429 3725 
Q 1025 3213 1025 2328 
Q 1025 1447 1429 934 
Q 1834 422 2522 422 
Q 3209 422 3611 934 
Q 4013 1447 4013 2328 
Q 4013 3213 3611 3725 
Q 3209 4238 2522 4238 
z
M 2522 4750 
Q 3503 4750 4090 4092 
Q 4678 3434 4678 2328 
Q 4678 1225 4090 567 
Q 3503 -91 2522 -91 
Q 1538 -91 948 565 
Q 359 1222 359 2328 
Q 359 3434 948 4092 
Q 1538 4750 2522 4750 
z
" transform="scale(0.015625)"/>
     </defs>
     <use xlink:href="#DejaVuSans-49"/>
     <use xlink:href="#DejaVuSans-44" x="29.492188"/>
     <use xlink:href="#DejaVuSans-41" x="104.744141"/>
     <use xlink:href="#DejaVuSans-20" x="173.152344"/>
     <use xlink:href="#DejaVuSans-54" x="204.939453"/>
     <use xlink:href="#DejaVuSans-69" x="262.898438"/>
     <use xlink:href="#DejaVuSans-74" x="290.681641"/>
     <use xlink:href="#DejaVuSans-72" x="329.890625"/>
     <use xlink:href="#DejaVuSans-61" x="371.003906"/>
     <use xlink:href="#DejaVuSans-74" x="432.283203"/>
     <use xlink:href="#DejaVuSans-69" x="471.492188"/>
     <use xlink:href="#DejaVuSans-6f" x="499.275391"/>
     <use xlink:href="#DejaVuSans-6e" x="560.457031"/>
     <use xlink:href="#DejaVuSans-20" x="623.835938"/>
     <use xlink:href="#DejaVuSans-6f" x="655.623047"/>
     <use xlink:href="#DejaVuSans-66" x="716.804688"/>
     <use xlink:href="#DejaVuSans-20" x="752.009766"/>
     <use xlink:href="#DejaVuSans-41" x="783.796875"/>
     <use xlink:href="#DejaVuSans-6c" x="852.205078"/>
     <use xlink:href="#DejaVuSans-69" x="879.988281"/>
     <use xlink:href="#DejaVuSans-7a" x="907.771484"/>
     <use xlink:href="#DejaVuSans-61" x="960.261719"/>
     <use xlink:href="#DejaVuSans-72" x="1021.541016"/>
     <use xlink:href="#DejaVuSans-69" x="1062.654297"/>
     <use xlink:href="#DejaVuSans-6e" x="1090.4375"/>
     <use xlink:href="#DejaVuSans-3a" x="1153.816406"/>
     <use xlink:href="#DejaVuSans-6f" x="1187.507812"/>
     <use xlink:href="#DejaVuSans-6d" x="1248.689453"/>
     <use xlink:href="#DejaVuSans-70" x="1346.101562"/>
     <use xlink:href="#DejaVuSans-50" x="1409.578125"/>
     <use xlink:href="#DejaVuSans-42" x="1469.880859"/>
     <use xlink:href="#DejaVuSans-41" x="1538.484375"/>
     <use xlink:href="#DejaVuSans-20" x="1606.892578"/>
     <use xlink:href="#DejaVuSans-63" x="1638.679688"/>
     <use xlink:href="#DejaVuSans-6f" x="1693.660156"/>
     <use xlink:href="#DejaVuSans-6d" x="1754.841797"/>
     <use xlink:href="#DejaVuSans-70" x="1852.253906"/>
     <use xlink:href="#DejaVuSans-6c" x="1915.730469"/>
     <use xlink:href="#DejaVuSans-65" x="1943.513672"/>
     <use xlink:href="#DejaVuSans-78" x="2003.287109"/>
     <use xlink:href="#DejaVuSans-20" x="2062.466797"/>
     <use xlink:href="#DejaVuSans-26" x="2094.253906"/>
     <use xlink:href="#DejaVuSans-20" x="2172.232422"/>
     <use xlink:href="#DejaVuSans-48" x="2204.019531"/>
     <use xlink:href="#DejaVuSans-79" x="2279.214844"/>
     <use xlink:href="#DejaVuSans-64" x="2338.394531"/>
     <use xlink:href="#DejaVuSans-72" x="2401.871094"/>
     <use xlink:href="#DejaVuSans-6f" x="2440.734375"/>
     <use xlink:href="#DejaVuSans-62" x="2501.916016"/>
     <use xlink:href="#DejaVuSans-65" x="2565.392578"/>
     <use xlink:href="#DejaVuSans-6e" x="2626.916016"/>
     <use xlink:href="#DejaVuSans-7a" x="2690.294922"/>
     <use xlink:href="#DejaVuSans-6f" x="2742.785156"/>
     <use xlink:href="#DejaVuSans-69" x="2803.966797"/>
     <use xlink:href="#DejaVuSans-6e" x="2831.75"/>
     <use xlink:href="#DejaVuSans-20" x="2895.128906"/>
     <use xlink:href="#DejaVuSans-69" x="2926.916016"/>
     <use xlink:href="#DejaVuSans-6e" x="2954.699219"/>
     <use xlink:href="#DejaVuSans-20" x="3018.078125"/>
     <use xlink:href="#DejaVuSans-4d" x="3049.865234"/>
     <use xlink:href="#DejaVuSans-65" x="3136.144531"/>
     <use xlink:href="#DejaVuSans-4f" x="3197.667969"/>
     <use xlink:href="#DejaVuSans-48" x="3276.378906"/>
     <use xlink:href="#DejaVuSans-20" x="3351.574219"/>
    </g>
    <!--  -->
    <g transform="translate(236.16 35.472) scale(0.12 -0.12)"/>
   </g>
  </g>
 </g>
 <defs>
  <clipPath id="p5a826e6fab">
   <rect x="57.6" y="41.472" width="357.12" height="266.112"/>
  </clipPath>
 </defs>
</svg>
