<?xml version="1.0" encoding="utf-8" standalone="no"?>
<!DOCTYPE svg PUBLIC "-//W3C//DTD SVG 1.1//EN"
  "http://www.w3.org/Graphics/SVG/1.1/DTD/svg11.dtd">
<svg xmlns:xlink="http://www.w3.org/1999/xlink" width="460.8pt" height="345.6pt" viewBox="0 0 460.8 345.6" xmlns="http://www.w3.org/2000/svg" version="1.1">
 <metadata>
  <rdf:RDF xmlns:dc="http://purl.org/dc/elements/1.1/" xmlns:cc="http://creativecommons.org/ns#" xmlns:rdf="http://www.w3.org/1999/02/22-rdf-syntax-ns#">
   <cc:Work>
    <dc:type rdf:resource="http://purl.org/dc/dcmitype/StillImage"/>
    <dc:date>2024-11-03T21:07:28.277659</dc:date>
    <dc:format>image/svg+xml</dc:format>
    <dc:creator>
     <cc:Agent>
      <dc:title>Matplotlib v3.9.2, https://matplotlib.org/</dc:title>
     </cc:Agent>
    </dc:creator>
   </cc:Work>
  </rdf:RDF>
 </metadata>
 <defs>
  <style type="text/css">*{stroke-linejoin: round; stroke-linecap: butt}</style>
 </defs>
 <g id="figure_1">
  <g id="patch_1">
   <path d="M 0 345.6 
L 460.8 345.6 
L 460.8 0 
L 0 0 
z
" style="fill: #ffffff"/>
  </g>
  <g id="axes_1">
   <g id="patch_2">
    <path d="M 57.6 307.584 
L 414.72 307.584 
L 414.72 41.472 
L 57.6 41.472 
z
" style="fill: #ffffff"/>
   </g>
   <g id="matplotlib.axis_1">
    <g id="xtick_1">
     <g id="line2d_1">
      <defs>
       <path id="md7d3e55976" d="M 0 0 
L 0 3.5 
" style="stroke: #000000; stroke-width: 0.8"/>
      </defs>
      <g>
       <use xlink:href="#md7d3e55976" x="57.6" y="307.584" style="stroke: #000000; stroke-width: 0.8"/>
      </g>
     </g>
     <g id="text_1">
      <!-- 200 -->
      <g transform="translate(48.05625 322.182437) scale(0.1 -0.1)">
       <defs>
        <path id="DejaVuSans-32" d="M 1228 531 
L 3431 531 
L 3431 0 
L 469 0 
L 469 531 
Q 828 903 1448 1529 
Q 2069 2156 2228 2338 
Q 2531 2678 2651 2914 
Q 2772 3150 2772 3378 
Q 2772 3750 2511 3984 
Q 2250 4219 1831 4219 
Q 1534 4219 1204 4116 
Q 875 4013 500 3803 
L 500 4441 
Q 881 4594 1212 4672 
Q 1544 4750 1819 4750 
Q 2544 4750 2975 4387 
Q 3406 4025 3406 3419 
Q 3406 3131 3298 2873 
Q 3191 2616 2906 2266 
Q 2828 2175 2409 1742 
Q 1991 1309 1228 531 
z
" transform="scale(0.015625)"/>
        <path id="DejaVuSans-30" d="M 2034 4250 
Q 1547 4250 1301 3770 
Q 1056 3291 1056 2328 
Q 1056 1369 1301 889 
Q 1547 409 2034 409 
Q 2525 409 2770 889 
Q 3016 1369 3016 2328 
Q 3016 3291 2770 3770 
Q 2525 4250 2034 4250 
z
M 2034 4750 
Q 2819 4750 3233 4129 
Q 3647 3509 3647 2328 
Q 3647 1150 3233 529 
Q 2819 -91 2034 -91 
Q 1250 -91 836 529 
Q 422 1150 422 2328 
Q 422 3509 836 4129 
Q 1250 4750 2034 4750 
z
" transform="scale(0.015625)"/>
       </defs>
       <use xlink:href="#DejaVuSans-32"/>
       <use xlink:href="#DejaVuSans-30" x="63.623047"/>
       <use xlink:href="#DejaVuSans-30" x="127.246094"/>
      </g>
     </g>
    </g>
    <g id="xtick_2">
     <g id="line2d_2">
      <g>
       <use xlink:href="#md7d3e55976" x="108.617143" y="307.584" style="stroke: #000000; stroke-width: 0.8"/>
      </g>
     </g>
     <g id="text_2">
      <!-- 300 -->
      <g transform="translate(99.073393 322.182437) scale(0.1 -0.1)">
       <defs>
        <path id="DejaVuSans-33" d="M 2597 2516 
Q 3050 2419 3304 2112 
Q 3559 1806 3559 1356 
Q 3559 666 3084 287 
Q 2609 -91 1734 -91 
Q 1441 -91 1130 -33 
Q 819 25 488 141 
L 488 750 
Q 750 597 1062 519 
Q 1375 441 1716 441 
Q 2309 441 2620 675 
Q 2931 909 2931 1356 
Q 2931 1769 2642 2001 
Q 2353 2234 1838 2234 
L 1294 2234 
L 1294 2753 
L 1863 2753 
Q 2328 2753 2575 2939 
Q 2822 3125 2822 3475 
Q 2822 3834 2567 4026 
Q 2313 4219 1838 4219 
Q 1578 4219 1281 4162 
Q 984 4106 628 3988 
L 628 4550 
Q 988 4650 1302 4700 
Q 1616 4750 1894 4750 
Q 2613 4750 3031 4423 
Q 3450 4097 3450 3541 
Q 3450 3153 3228 2886 
Q 3006 2619 2597 2516 
z
" transform="scale(0.015625)"/>
       </defs>
       <use xlink:href="#DejaVuSans-33"/>
       <use xlink:href="#DejaVuSans-30" x="63.623047"/>
       <use xlink:href="#DejaVuSans-30" x="127.246094"/>
      </g>
     </g>
    </g>
    <g id="xtick_3">
     <g id="line2d_3">
      <g>
       <use xlink:href="#md7d3e55976" x="159.634286" y="307.584" style="stroke: #000000; stroke-width: 0.8"/>
      </g>
     </g>
     <g id="text_3">
      <!-- 400 -->
      <g transform="translate(150.090536 322.182437) scale(0.1 -0.1)">
       <defs>
        <path id="DejaVuSans-34" d="M 2419 4116 
L 825 1625 
L 2419 1625 
L 2419 4116 
z
M 2253 4666 
L 3047 4666 
L 3047 1625 
L 3713 1625 
L 3713 1100 
L 3047 1100 
L 3047 0 
L 2419 0 
L 2419 1100 
L 313 1100 
L 313 1709 
L 2253 4666 
z
" transform="scale(0.015625)"/>
       </defs>
       <use xlink:href="#DejaVuSans-34"/>
       <use xlink:href="#DejaVuSans-30" x="63.623047"/>
       <use xlink:href="#DejaVuSans-30" x="127.246094"/>
      </g>
     </g>
    </g>
    <g id="xtick_4">
     <g id="line2d_4">
      <g>
       <use xlink:href="#md7d3e55976" x="210.651429" y="307.584" style="stroke: #000000; stroke-width: 0.8"/>
      </g>
     </g>
     <g id="text_4">
      <!-- 500 -->
      <g transform="translate(201.107679 322.182437) scale(0.1 -0.1)">
       <defs>
        <path id="DejaVuSans-35" d="M 691 4666 
L 3169 4666 
L 3169 4134 
L 1269 4134 
L 1269 2991 
Q 1406 3038 1543 3061 
Q 1681 3084 1819 3084 
Q 2600 3084 3056 2656 
Q 3513 2228 3513 1497 
Q 3513 744 3044 326 
Q 2575 -91 1722 -91 
Q 1428 -91 1123 -41 
Q 819 9 494 109 
L 494 744 
Q 775 591 1075 516 
Q 1375 441 1709 441 
Q 2250 441 2565 725 
Q 2881 1009 2881 1497 
Q 2881 1984 2565 2268 
Q 2250 2553 1709 2553 
Q 1456 2553 1204 2497 
Q 953 2441 691 2322 
L 691 4666 
z
" transform="scale(0.015625)"/>
       </defs>
       <use xlink:href="#DejaVuSans-35"/>
       <use xlink:href="#DejaVuSans-30" x="63.623047"/>
       <use xlink:href="#DejaVuSans-30" x="127.246094"/>
      </g>
     </g>
    </g>
    <g id="xtick_5">
     <g id="line2d_5">
      <g>
       <use xlink:href="#md7d3e55976" x="261.668571" y="307.584" style="stroke: #000000; stroke-width: 0.8"/>
      </g>
     </g>
     <g id="text_5">
      <!-- 600 -->
      <g transform="translate(252.124821 322.182437) scale(0.1 -0.1)">
       <defs>
        <path id="DejaVuSans-36" d="M 2113 2584 
Q 1688 2584 1439 2293 
Q 1191 2003 1191 1497 
Q 1191 994 1439 701 
Q 1688 409 2113 409 
Q 2538 409 2786 701 
Q 3034 994 3034 1497 
Q 3034 2003 2786 2293 
Q 2538 2584 2113 2584 
z
M 3366 4563 
L 3366 3988 
Q 3128 4100 2886 4159 
Q 2644 4219 2406 4219 
Q 1781 4219 1451 3797 
Q 1122 3375 1075 2522 
Q 1259 2794 1537 2939 
Q 1816 3084 2150 3084 
Q 2853 3084 3261 2657 
Q 3669 2231 3669 1497 
Q 3669 778 3244 343 
Q 2819 -91 2113 -91 
Q 1303 -91 875 529 
Q 447 1150 447 2328 
Q 447 3434 972 4092 
Q 1497 4750 2381 4750 
Q 2619 4750 2861 4703 
Q 3103 4656 3366 4563 
z
" transform="scale(0.015625)"/>
       </defs>
       <use xlink:href="#DejaVuSans-36"/>
       <use xlink:href="#DejaVuSans-30" x="63.623047"/>
       <use xlink:href="#DejaVuSans-30" x="127.246094"/>
      </g>
     </g>
    </g>
    <g id="xtick_6">
     <g id="line2d_6">
      <g>
       <use xlink:href="#md7d3e55976" x="312.685714" y="307.584" style="stroke: #000000; stroke-width: 0.8"/>
      </g>
     </g>
     <g id="text_6">
      <!-- 700 -->
      <g transform="translate(303.141964 322.182437) scale(0.1 -0.1)">
       <defs>
        <path id="DejaVuSans-37" d="M 525 4666 
L 3525 4666 
L 3525 4397 
L 1831 0 
L 1172 0 
L 2766 4134 
L 525 4134 
L 525 4666 
z
" transform="scale(0.015625)"/>
       </defs>
       <use xlink:href="#DejaVuSans-37"/>
       <use xlink:href="#DejaVuSans-30" x="63.623047"/>
       <use xlink:href="#DejaVuSans-30" x="127.246094"/>
      </g>
     </g>
    </g>
    <g id="xtick_7">
     <g id="line2d_7">
      <g>
       <use xlink:href="#md7d3e55976" x="363.702857" y="307.584" style="stroke: #000000; stroke-width: 0.8"/>
      </g>
     </g>
     <g id="text_7">
      <!-- 800 -->
      <g transform="translate(354.159107 322.182437) scale(0.1 -0.1)">
       <defs>
        <path id="DejaVuSans-38" d="M 2034 2216 
Q 1584 2216 1326 1975 
Q 1069 1734 1069 1313 
Q 1069 891 1326 650 
Q 1584 409 2034 409 
Q 2484 409 2743 651 
Q 3003 894 3003 1313 
Q 3003 1734 2745 1975 
Q 2488 2216 2034 2216 
z
M 1403 2484 
Q 997 2584 770 2862 
Q 544 3141 544 3541 
Q 544 4100 942 4425 
Q 1341 4750 2034 4750 
Q 2731 4750 3128 4425 
Q 3525 4100 3525 3541 
Q 3525 3141 3298 2862 
Q 3072 2584 2669 2484 
Q 3125 2378 3379 2068 
Q 3634 1759 3634 1313 
Q 3634 634 3220 271 
Q 2806 -91 2034 -91 
Q 1263 -91 848 271 
Q 434 634 434 1313 
Q 434 1759 690 2068 
Q 947 2378 1403 2484 
z
M 1172 3481 
Q 1172 3119 1398 2916 
Q 1625 2713 2034 2713 
Q 2441 2713 2670 2916 
Q 2900 3119 2900 3481 
Q 2900 3844 2670 4047 
Q 2441 4250 2034 4250 
Q 1625 4250 1398 4047 
Q 1172 3844 1172 3481 
z
" transform="scale(0.015625)"/>
       </defs>
       <use xlink:href="#DejaVuSans-38"/>
       <use xlink:href="#DejaVuSans-30" x="63.623047"/>
       <use xlink:href="#DejaVuSans-30" x="127.246094"/>
      </g>
     </g>
    </g>
    <g id="xtick_8">
     <g id="line2d_8">
      <g>
       <use xlink:href="#md7d3e55976" x="414.72" y="307.584" style="stroke: #000000; stroke-width: 0.8"/>
      </g>
     </g>
     <g id="text_8">
      <!-- 900 -->
      <g transform="translate(405.17625 322.182437) scale(0.1 -0.1)">
       <defs>
        <path id="DejaVuSans-39" d="M 703 97 
L 703 672 
Q 941 559 1184 500 
Q 1428 441 1663 441 
Q 2288 441 2617 861 
Q 2947 1281 2994 2138 
Q 2813 1869 2534 1725 
Q 2256 1581 1919 1581 
Q 1219 1581 811 2004 
Q 403 2428 403 3163 
Q 403 3881 828 4315 
Q 1253 4750 1959 4750 
Q 2769 4750 3195 4129 
Q 3622 3509 3622 2328 
Q 3622 1225 3098 567 
Q 2575 -91 1691 -91 
Q 1453 -91 1209 -44 
Q 966 3 703 97 
z
M 1959 2075 
Q 2384 2075 2632 2365 
Q 2881 2656 2881 3163 
Q 2881 3666 2632 3958 
Q 2384 4250 1959 4250 
Q 1534 4250 1286 3958 
Q 1038 3666 1038 3163 
Q 1038 2656 1286 2365 
Q 1534 2075 1959 2075 
z
" transform="scale(0.015625)"/>
       </defs>
       <use xlink:href="#DejaVuSans-39"/>
       <use xlink:href="#DejaVuSans-30" x="63.623047"/>
       <use xlink:href="#DejaVuSans-30" x="127.246094"/>
      </g>
     </g>
    </g>
    <g id="text_9">
     <!-- Wavelength (nm) -->
     <g transform="translate(192.967812 335.860562) scale(0.1 -0.1)">
      <defs>
       <path id="DejaVuSans-57" d="M 213 4666 
L 850 4666 
L 1831 722 
L 2809 4666 
L 3519 4666 
L 4500 722 
L 5478 4666 
L 6119 4666 
L 4947 0 
L 4153 0 
L 3169 4050 
L 2175 0 
L 1381 0 
L 213 4666 
z
" transform="scale(0.015625)"/>
       <path id="DejaVuSans-61" d="M 2194 1759 
Q 1497 1759 1228 1600 
Q 959 1441 959 1056 
Q 959 750 1161 570 
Q 1363 391 1709 391 
Q 2188 391 2477 730 
Q 2766 1069 2766 1631 
L 2766 1759 
L 2194 1759 
z
M 3341 1997 
L 3341 0 
L 2766 0 
L 2766 531 
Q 2569 213 2275 61 
Q 1981 -91 1556 -91 
Q 1019 -91 701 211 
Q 384 513 384 1019 
Q 384 1609 779 1909 
Q 1175 2209 1959 2209 
L 2766 2209 
L 2766 2266 
Q 2766 2663 2505 2880 
Q 2244 3097 1772 3097 
Q 1472 3097 1187 3025 
Q 903 2953 641 2809 
L 641 3341 
Q 956 3463 1253 3523 
Q 1550 3584 1831 3584 
Q 2591 3584 2966 3190 
Q 3341 2797 3341 1997 
z
" transform="scale(0.015625)"/>
       <path id="DejaVuSans-76" d="M 191 3500 
L 800 3500 
L 1894 563 
L 2988 3500 
L 3597 3500 
L 2284 0 
L 1503 0 
L 191 3500 
z
" transform="scale(0.015625)"/>
       <path id="DejaVuSans-65" d="M 3597 1894 
L 3597 1613 
L 953 1613 
Q 991 1019 1311 708 
Q 1631 397 2203 397 
Q 2534 397 2845 478 
Q 3156 559 3463 722 
L 3463 178 
Q 3153 47 2828 -22 
Q 2503 -91 2169 -91 
Q 1331 -91 842 396 
Q 353 884 353 1716 
Q 353 2575 817 3079 
Q 1281 3584 2069 3584 
Q 2775 3584 3186 3129 
Q 3597 2675 3597 1894 
z
M 3022 2063 
Q 3016 2534 2758 2815 
Q 2500 3097 2075 3097 
Q 1594 3097 1305 2825 
Q 1016 2553 972 2059 
L 3022 2063 
z
" transform="scale(0.015625)"/>
       <path id="DejaVuSans-6c" d="M 603 4863 
L 1178 4863 
L 1178 0 
L 603 0 
L 603 4863 
z
" transform="scale(0.015625)"/>
       <path id="DejaVuSans-6e" d="M 3513 2113 
L 3513 0 
L 2938 0 
L 2938 2094 
Q 2938 2591 2744 2837 
Q 2550 3084 2163 3084 
Q 1697 3084 1428 2787 
Q 1159 2491 1159 1978 
L 1159 0 
L 581 0 
L 581 3500 
L 1159 3500 
L 1159 2956 
Q 1366 3272 1645 3428 
Q 1925 3584 2291 3584 
Q 2894 3584 3203 3211 
Q 3513 2838 3513 2113 
z
" transform="scale(0.015625)"/>
       <path id="DejaVuSans-67" d="M 2906 1791 
Q 2906 2416 2648 2759 
Q 2391 3103 1925 3103 
Q 1463 3103 1205 2759 
Q 947 2416 947 1791 
Q 947 1169 1205 825 
Q 1463 481 1925 481 
Q 2391 481 2648 825 
Q 2906 1169 2906 1791 
z
M 3481 434 
Q 3481 -459 3084 -895 
Q 2688 -1331 1869 -1331 
Q 1566 -1331 1297 -1286 
Q 1028 -1241 775 -1147 
L 775 -588 
Q 1028 -725 1275 -790 
Q 1522 -856 1778 -856 
Q 2344 -856 2625 -561 
Q 2906 -266 2906 331 
L 2906 616 
Q 2728 306 2450 153 
Q 2172 0 1784 0 
Q 1141 0 747 490 
Q 353 981 353 1791 
Q 353 2603 747 3093 
Q 1141 3584 1784 3584 
Q 2172 3584 2450 3431 
Q 2728 3278 2906 2969 
L 2906 3500 
L 3481 3500 
L 3481 434 
z
" transform="scale(0.015625)"/>
       <path id="DejaVuSans-74" d="M 1172 4494 
L 1172 3500 
L 2356 3500 
L 2356 3053 
L 1172 3053 
L 1172 1153 
Q 1172 725 1289 603 
Q 1406 481 1766 481 
L 2356 481 
L 2356 0 
L 1766 0 
Q 1100 0 847 248 
Q 594 497 594 1153 
L 594 3053 
L 172 3053 
L 172 3500 
L 594 3500 
L 594 4494 
L 1172 4494 
z
" transform="scale(0.015625)"/>
       <path id="DejaVuSans-68" d="M 3513 2113 
L 3513 0 
L 2938 0 
L 2938 2094 
Q 2938 2591 2744 2837 
Q 2550 3084 2163 3084 
Q 1697 3084 1428 2787 
Q 1159 2491 1159 1978 
L 1159 0 
L 581 0 
L 581 4863 
L 1159 4863 
L 1159 2956 
Q 1366 3272 1645 3428 
Q 1925 3584 2291 3584 
Q 2894 3584 3203 3211 
Q 3513 2838 3513 2113 
z
" transform="scale(0.015625)"/>
       <path id="DejaVuSans-20" transform="scale(0.015625)"/>
       <path id="DejaVuSans-28" d="M 1984 4856 
Q 1566 4138 1362 3434 
Q 1159 2731 1159 2009 
Q 1159 1288 1364 580 
Q 1569 -128 1984 -844 
L 1484 -844 
Q 1016 -109 783 600 
Q 550 1309 550 2009 
Q 550 2706 781 3412 
Q 1013 4119 1484 4856 
L 1984 4856 
z
" transform="scale(0.015625)"/>
       <path id="DejaVuSans-6d" d="M 3328 2828 
Q 3544 3216 3844 3400 
Q 4144 3584 4550 3584 
Q 5097 3584 5394 3201 
Q 5691 2819 5691 2113 
L 5691 0 
L 5113 0 
L 5113 2094 
Q 5113 2597 4934 2840 
Q 4756 3084 4391 3084 
Q 3944 3084 3684 2787 
Q 3425 2491 3425 1978 
L 3425 0 
L 2847 0 
L 2847 2094 
Q 2847 2600 2669 2842 
Q 2491 3084 2119 3084 
Q 1678 3084 1418 2786 
Q 1159 2488 1159 1978 
L 1159 0 
L 581 0 
L 581 3500 
L 1159 3500 
L 1159 2956 
Q 1356 3278 1631 3431 
Q 1906 3584 2284 3584 
Q 2666 3584 2933 3390 
Q 3200 3197 3328 2828 
z
" transform="scale(0.015625)"/>
       <path id="DejaVuSans-29" d="M 513 4856 
L 1013 4856 
Q 1481 4119 1714 3412 
Q 1947 2706 1947 2009 
Q 1947 1309 1714 600 
Q 1481 -109 1013 -844 
L 513 -844 
Q 928 -128 1133 580 
Q 1338 1288 1338 2009 
Q 1338 2731 1133 3434 
Q 928 4138 513 4856 
z
" transform="scale(0.015625)"/>
      </defs>
      <use xlink:href="#DejaVuSans-57"/>
      <use xlink:href="#DejaVuSans-61" x="92.501953"/>
      <use xlink:href="#DejaVuSans-76" x="153.78125"/>
      <use xlink:href="#DejaVuSans-65" x="212.960938"/>
      <use xlink:href="#DejaVuSans-6c" x="274.484375"/>
      <use xlink:href="#DejaVuSans-65" x="302.267578"/>
      <use xlink:href="#DejaVuSans-6e" x="363.791016"/>
      <use xlink:href="#DejaVuSans-67" x="427.169922"/>
      <use xlink:href="#DejaVuSans-74" x="490.646484"/>
      <use xlink:href="#DejaVuSans-68" x="529.855469"/>
      <use xlink:href="#DejaVuSans-20" x="593.234375"/>
      <use xlink:href="#DejaVuSans-28" x="625.021484"/>
      <use xlink:href="#DejaVuSans-6e" x="664.035156"/>
      <use xlink:href="#DejaVuSans-6d" x="727.414062"/>
      <use xlink:href="#DejaVuSans-29" x="824.826172"/>
     </g>
    </g>
   </g>
   <g id="matplotlib.axis_2">
    <g id="ytick_1">
     <g id="line2d_9">
      <defs>
       <path id="m54cafc988b" d="M 0 0 
L -3.5 0 
" style="stroke: #000000; stroke-width: 0.8"/>
      </defs>
      <g>
       <use xlink:href="#m54cafc988b" x="57.6" y="307.584" style="stroke: #000000; stroke-width: 0.8"/>
      </g>
     </g>
     <g id="text_10">
      <!-- 0.0 -->
      <g transform="translate(34.696875 311.383219) scale(0.1 -0.1)">
       <defs>
        <path id="DejaVuSans-2e" d="M 684 794 
L 1344 794 
L 1344 0 
L 684 0 
L 684 794 
z
" transform="scale(0.015625)"/>
       </defs>
       <use xlink:href="#DejaVuSans-30"/>
       <use xlink:href="#DejaVuSans-2e" x="63.623047"/>
       <use xlink:href="#DejaVuSans-30" x="95.410156"/>
      </g>
     </g>
    </g>
    <g id="ytick_2">
     <g id="line2d_10">
      <g>
       <use xlink:href="#m54cafc988b" x="57.6" y="263.232" style="stroke: #000000; stroke-width: 0.8"/>
      </g>
     </g>
     <g id="text_11">
      <!-- 0.2 -->
      <g transform="translate(34.696875 267.031219) scale(0.1 -0.1)">
       <use xlink:href="#DejaVuSans-30"/>
       <use xlink:href="#DejaVuSans-2e" x="63.623047"/>
       <use xlink:href="#DejaVuSans-32" x="95.410156"/>
      </g>
     </g>
    </g>
    <g id="ytick_3">
     <g id="line2d_11">
      <g>
       <use xlink:href="#m54cafc988b" x="57.6" y="218.88" style="stroke: #000000; stroke-width: 0.8"/>
      </g>
     </g>
     <g id="text_12">
      <!-- 0.4 -->
      <g transform="translate(34.696875 222.679219) scale(0.1 -0.1)">
       <use xlink:href="#DejaVuSans-30"/>
       <use xlink:href="#DejaVuSans-2e" x="63.623047"/>
       <use xlink:href="#DejaVuSans-34" x="95.410156"/>
      </g>
     </g>
    </g>
    <g id="ytick_4">
     <g id="line2d_12">
      <g>
       <use xlink:href="#m54cafc988b" x="57.6" y="174.528" style="stroke: #000000; stroke-width: 0.8"/>
      </g>
     </g>
     <g id="text_13">
      <!-- 0.6 -->
      <g transform="translate(34.696875 178.327219) scale(0.1 -0.1)">
       <use xlink:href="#DejaVuSans-30"/>
       <use xlink:href="#DejaVuSans-2e" x="63.623047"/>
       <use xlink:href="#DejaVuSans-36" x="95.410156"/>
      </g>
     </g>
    </g>
    <g id="ytick_5">
     <g id="line2d_13">
      <g>
       <use xlink:href="#m54cafc988b" x="57.6" y="130.176" style="stroke: #000000; stroke-width: 0.8"/>
      </g>
     </g>
     <g id="text_14">
      <!-- 0.8 -->
      <g transform="translate(34.696875 133.975219) scale(0.1 -0.1)">
       <use xlink:href="#DejaVuSans-30"/>
       <use xlink:href="#DejaVuSans-2e" x="63.623047"/>
       <use xlink:href="#DejaVuSans-38" x="95.410156"/>
      </g>
     </g>
    </g>
    <g id="ytick_6">
     <g id="line2d_14">
      <g>
       <use xlink:href="#m54cafc988b" x="57.6" y="85.824" style="stroke: #000000; stroke-width: 0.8"/>
      </g>
     </g>
     <g id="text_15">
      <!-- 1.0 -->
      <g transform="translate(34.696875 89.623219) scale(0.1 -0.1)">
       <defs>
        <path id="DejaVuSans-31" d="M 794 531 
L 1825 531 
L 1825 4091 
L 703 3866 
L 703 4441 
L 1819 4666 
L 2450 4666 
L 2450 531 
L 3481 531 
L 3481 0 
L 794 0 
L 794 531 
z
" transform="scale(0.015625)"/>
       </defs>
       <use xlink:href="#DejaVuSans-31"/>
       <use xlink:href="#DejaVuSans-2e" x="63.623047"/>
       <use xlink:href="#DejaVuSans-30" x="95.410156"/>
      </g>
     </g>
    </g>
    <g id="ytick_7">
     <g id="line2d_15">
      <g>
       <use xlink:href="#m54cafc988b" x="57.6" y="41.472" style="stroke: #000000; stroke-width: 0.8"/>
      </g>
     </g>
     <g id="text_16">
      <!-- 1.2 -->
      <g transform="translate(34.696875 45.271219) scale(0.1 -0.1)">
       <use xlink:href="#DejaVuSans-31"/>
       <use xlink:href="#DejaVuSans-2e" x="63.623047"/>
       <use xlink:href="#DejaVuSans-32" x="95.410156"/>
      </g>
     </g>
    </g>
    <g id="text_17">
     <!-- Absorbance -->
     <g transform="translate(28.617187 204.074875) rotate(-90) scale(0.1 -0.1)">
      <defs>
       <path id="DejaVuSans-41" d="M 2188 4044 
L 1331 1722 
L 3047 1722 
L 2188 4044 
z
M 1831 4666 
L 2547 4666 
L 4325 0 
L 3669 0 
L 3244 1197 
L 1141 1197 
L 716 0 
L 50 0 
L 1831 4666 
z
" transform="scale(0.015625)"/>
       <path id="DejaVuSans-62" d="M 3116 1747 
Q 3116 2381 2855 2742 
Q 2594 3103 2138 3103 
Q 1681 3103 1420 2742 
Q 1159 2381 1159 1747 
Q 1159 1113 1420 752 
Q 1681 391 2138 391 
Q 2594 391 2855 752 
Q 3116 1113 3116 1747 
z
M 1159 2969 
Q 1341 3281 1617 3432 
Q 1894 3584 2278 3584 
Q 2916 3584 3314 3078 
Q 3713 2572 3713 1747 
Q 3713 922 3314 415 
Q 2916 -91 2278 -91 
Q 1894 -91 1617 61 
Q 1341 213 1159 525 
L 1159 0 
L 581 0 
L 581 4863 
L 1159 4863 
L 1159 2969 
z
" transform="scale(0.015625)"/>
       <path id="DejaVuSans-73" d="M 2834 3397 
L 2834 2853 
Q 2591 2978 2328 3040 
Q 2066 3103 1784 3103 
Q 1356 3103 1142 2972 
Q 928 2841 928 2578 
Q 928 2378 1081 2264 
Q 1234 2150 1697 2047 
L 1894 2003 
Q 2506 1872 2764 1633 
Q 3022 1394 3022 966 
Q 3022 478 2636 193 
Q 2250 -91 1575 -91 
Q 1294 -91 989 -36 
Q 684 19 347 128 
L 347 722 
Q 666 556 975 473 
Q 1284 391 1588 391 
Q 1994 391 2212 530 
Q 2431 669 2431 922 
Q 2431 1156 2273 1281 
Q 2116 1406 1581 1522 
L 1381 1569 
Q 847 1681 609 1914 
Q 372 2147 372 2553 
Q 372 3047 722 3315 
Q 1072 3584 1716 3584 
Q 2034 3584 2315 3537 
Q 2597 3491 2834 3397 
z
" transform="scale(0.015625)"/>
       <path id="DejaVuSans-6f" d="M 1959 3097 
Q 1497 3097 1228 2736 
Q 959 2375 959 1747 
Q 959 1119 1226 758 
Q 1494 397 1959 397 
Q 2419 397 2687 759 
Q 2956 1122 2956 1747 
Q 2956 2369 2687 2733 
Q 2419 3097 1959 3097 
z
M 1959 3584 
Q 2709 3584 3137 3096 
Q 3566 2609 3566 1747 
Q 3566 888 3137 398 
Q 2709 -91 1959 -91 
Q 1206 -91 779 398 
Q 353 888 353 1747 
Q 353 2609 779 3096 
Q 1206 3584 1959 3584 
z
" transform="scale(0.015625)"/>
       <path id="DejaVuSans-72" d="M 2631 2963 
Q 2534 3019 2420 3045 
Q 2306 3072 2169 3072 
Q 1681 3072 1420 2755 
Q 1159 2438 1159 1844 
L 1159 0 
L 581 0 
L 581 3500 
L 1159 3500 
L 1159 2956 
Q 1341 3275 1631 3429 
Q 1922 3584 2338 3584 
Q 2397 3584 2469 3576 
Q 2541 3569 2628 3553 
L 2631 2963 
z
" transform="scale(0.015625)"/>
       <path id="DejaVuSans-63" d="M 3122 3366 
L 3122 2828 
Q 2878 2963 2633 3030 
Q 2388 3097 2138 3097 
Q 1578 3097 1268 2742 
Q 959 2388 959 1747 
Q 959 1106 1268 751 
Q 1578 397 2138 397 
Q 2388 397 2633 464 
Q 2878 531 3122 666 
L 3122 134 
Q 2881 22 2623 -34 
Q 2366 -91 2075 -91 
Q 1284 -91 818 406 
Q 353 903 353 1747 
Q 353 2603 823 3093 
Q 1294 3584 2113 3584 
Q 2378 3584 2631 3529 
Q 2884 3475 3122 3366 
z
" transform="scale(0.015625)"/>
      </defs>
      <use xlink:href="#DejaVuSans-41"/>
      <use xlink:href="#DejaVuSans-62" x="68.408203"/>
      <use xlink:href="#DejaVuSans-73" x="131.884766"/>
      <use xlink:href="#DejaVuSans-6f" x="183.984375"/>
      <use xlink:href="#DejaVuSans-72" x="245.166016"/>
      <use xlink:href="#DejaVuSans-62" x="286.279297"/>
      <use xlink:href="#DejaVuSans-61" x="349.755859"/>
      <use xlink:href="#DejaVuSans-6e" x="411.035156"/>
      <use xlink:href="#DejaVuSans-63" x="474.414062"/>
      <use xlink:href="#DejaVuSans-65" x="529.394531"/>
     </g>
    </g>
   </g>
   <g id="line2d_16">
    <path d="M 363.702857 308.395193 
L 363.192686 308.203537 
L 362.172343 308.262261 
L 346.357029 308.077046 
L 336.663771 307.555536 
L 324.419657 307.449432 
L 314.7264 307.796479 
L 301.972114 307.319679 
L 300.4416 307.165864 
L 298.400914 307.026623 
L 297.380571 306.942963 
L 296.360229 306.693495 
L 295.339886 306.630886 
L 290.238171 305.904821 
L 289.217829 305.744508 
L 284.626286 304.777666 
L 270.851657 301.660442 
L 261.668571 300.441546 
L 259.117714 300.104941 
L 257.5872 299.80632 
L 253.505829 298.731173 
L 251.465143 297.86124 
L 249.934629 297.015966 
L 248.404114 295.805389 
L 246.8736 294.222902 
L 245.853257 292.911155 
L 243.812571 289.353785 
L 242.282057 285.868626 
L 241.261714 283.079896 
L 240.241371 279.905849 
L 239.221029 276.291804 
L 237.690514 270.056488 
L 236.16 262.905515 
L 234.119314 252.072793 
L 231.568457 237.036444 
L 226.466743 206.064233 
L 222.895543 185.997954 
L 212.692114 132.295609 
L 210.651429 122.984558 
L 209.120914 117.02174 
L 207.5904 112.429489 
L 206.570057 110.092877 
L 205.549714 108.314828 
L 204.529371 107.177954 
L 203.509029 106.574661 
L 202.488686 106.453876 
L 201.468343 106.778151 
L 200.958171 107.066818 
L 199.427657 108.557139 
L 197.897143 110.684617 
L 196.366629 113.500577 
L 194.836114 116.956562 
L 193.3056 121.165031 
L 191.775086 126.183745 
L 189.7344 134.180366 
L 187.693714 143.567023 
L 185.142857 156.465763 
L 176.469943 202.608776 
L 171.368229 227.811369 
L 168.817371 238.986445 
L 166.776686 246.950146 
L 164.225829 255.735417 
L 162.185143 261.854567 
L 160.144457 267.141681 
L 158.613943 270.620173 
L 157.083429 273.367239 
L 156.063086 274.867232 
L 154.532571 276.489227 
L 153.512229 277.208004 
L 152.491886 277.610411 
L 151.471543 277.755772 
L 150.961371 277.705061 
L 150.4512 277.508326 
L 149.941029 277.449106 
L 147.900343 276.469856 
L 146.88 275.794397 
L 144.839314 274.322914 
L 144.329143 273.573848 
L 143.818971 273.479624 
L 143.3088 271.756013 
L 142.798629 272.564045 
L 141.778286 271.33064 
L 141.268114 270.779635 
L 140.757943 269.848005 
L 140.247771 269.394069 
L 138.717257 267.087564 
L 138.207086 265.939435 
L 137.696914 265.400719 
L 136.1664 262.575301 
L 135.656229 260.986635 
L 135.146057 260.452713 
L 134.635886 259.46933 
L 134.125714 257.870479 
L 133.615543 257.126059 
L 133.105371 250.553809 
L 132.5952 249.077538 
L 131.574857 245.114143 
L 130.044343 238.497309 
L 127.493486 226.72315 
L 124.942629 216.40001 
L 123.922286 212.483419 
L 122.901943 207.542248 
L 121.8816 201.32595 
L 119.330743 184.927553 
L 118.3104 180.592906 
L 117.800229 179.050281 
L 116.779886 177.111357 
L 115.759543 175.312767 
L 114.7392 172.829674 
L 113.208686 167.919453 
L 112.698514 165.799086 
L 111.678171 162.308958 
L 110.657829 157.414321 
L 110.147657 154.161918 
L 109.127314 145.071673 
L 108.106971 132.95854 
L 105.045943 92.078588 
L 104.0256 71.576276 
L 103.005257 43.221446 
L 101.984914 6.271553 
L 101.812022 -1 
L 101.812022 -1 
" clip-path="url(#p117f238bf1)" style="fill: none; stroke: #e01f1f; stroke-width: 0.5; stroke-linecap: square"/>
   </g>
   <g id="line2d_17">
    <path d="M 363.702857 308.455221 
L 363.192686 308.27203 
L 360.131657 308.331529 
L 358.090971 308.300352 
L 356.050286 308.261064 
L 349.928229 308.206089 
L 336.663771 307.537285 
L 323.909486 307.564345 
L 321.8688 307.804823 
L 320.848457 307.739927 
L 319.828114 307.773271 
L 318.2976 307.854466 
L 316.256914 307.884217 
L 313.195886 307.88235 
L 310.645029 307.829841 
L 302.482286 307.414806 
L 299.931429 307.267752 
L 297.890743 307.060761 
L 296.8704 306.866795 
L 294.829714 306.624148 
L 292.278857 306.311283 
L 288.707657 305.710138 
L 281.565257 304.078887 
L 270.851657 301.684395 
L 268.810971 301.409174 
L 267.280457 301.196603 
L 262.688914 300.566984 
L 260.648229 300.256191 
L 255.546514 299.285908 
L 254.016 298.812711 
L 252.485486 298.2559 
L 250.4448 297.21087 
L 249.424457 296.535221 
L 247.893943 295.268105 
L 246.363429 293.554036 
L 245.853257 292.855056 
L 243.3024 288.254522 
L 242.282057 285.86309 
L 240.751543 281.609062 
L 239.221029 276.383886 
L 237.690514 270.185845 
L 236.16 263.098053 
L 234.119314 252.301935 
L 232.078629 240.484263 
L 224.936229 197.804908 
L 220.854857 175.709294 
L 212.692114 132.835511 
L 211.1616 125.674184 
L 209.631086 119.423321 
L 208.610743 115.802904 
L 207.5904 112.850231 
L 206.570057 110.529163 
L 205.549714 108.710298 
L 204.529371 107.506078 
L 203.509029 106.901081 
L 202.488686 106.716743 
L 201.978514 106.810842 
L 200.958171 107.318225 
L 199.937829 108.166591 
L 198.917486 109.352596 
L 197.897143 110.779537 
L 196.366629 113.491102 
L 194.836114 116.927036 
L 193.815771 119.576213 
L 192.795429 122.592689 
L 191.264914 127.830041 
L 189.7344 133.912587 
L 187.693714 143.2508 
L 185.142857 156.09602 
L 173.408914 217.601119 
L 170.858057 229.715777 
L 168.817371 238.591668 
L 166.266514 248.455789 
L 163.715657 257.075172 
L 161.674971 263.008128 
L 160.144457 267.031982 
L 158.103771 271.464719 
L 156.573257 274.109804 
L 155.552914 275.407273 
L 154.532571 276.492583 
L 153.512229 277.239155 
L 151.981714 277.7551 
L 150.961371 277.763854 
L 150.4512 277.520406 
L 149.430857 277.386974 
L 147.900343 276.622816 
L 146.369829 275.521479 
L 144.839314 274.467733 
L 144.329143 273.755726 
L 143.818971 273.622079 
L 143.3088 271.882234 
L 142.798629 272.734099 
L 141.778286 271.531284 
L 141.268114 270.923435 
L 140.757943 270.088885 
L 140.247771 269.560247 
L 138.207086 266.348169 
L 137.696914 265.085735 
L 137.186743 264.728011 
L 136.1664 262.794202 
L 135.656229 261.287243 
L 135.146057 260.774156 
L 134.635886 259.772046 
L 134.125714 258.288152 
L 133.615543 257.649154 
L 133.105371 251.460693 
L 132.085029 248.072456 
L 131.064686 243.978349 
L 124.942629 218.476224 
L 123.922286 214.383756 
L 122.901943 209.350456 
L 121.8816 203.08621 
L 119.330743 186.080687 
L 118.3104 181.66898 
L 117.800229 179.991493 
L 116.779886 177.58895 
L 115.759543 175.355913 
L 114.7392 172.22801 
L 113.208686 165.973327 
L 112.188343 161.280487 
L 111.168 155.879431 
L 110.657829 152.721603 
L 109.637486 144.19723 
L 108.617143 132.452891 
L 107.086629 110.375333 
L 105.556114 85.365286 
L 104.535771 61.37623 
L 103.515429 27.971359 
L 102.764136 -1 
L 102.764136 -1 
" clip-path="url(#p117f238bf1)" style="fill: none; stroke: #d31f2c; stroke-width: 0.5; stroke-linecap: square"/>
   </g>
   <g id="line2d_18">
    <path d="M 363.702857 308.540178 
L 363.192686 308.367141 
L 361.662171 308.378794 
L 357.5808 308.371864 
L 355.540114 308.327432 
L 351.458743 308.261479 
L 347.377371 308.112144 
L 344.826514 308.007991 
L 341.765486 307.774504 
L 336.663771 307.488296 
L 324.419657 307.454674 
L 319.317943 307.713906 
L 317.277257 307.703186 
L 315.746743 307.733855 
L 304.522971 307.27847 
L 300.4416 306.992572 
L 298.400914 306.853094 
L 296.8704 306.578898 
L 295.339886 306.372359 
L 294.319543 306.295151 
L 290.748343 305.753634 
L 287.687314 305.121849 
L 286.666971 304.897149 
L 281.565257 303.69277 
L 279.524571 303.135207 
L 276.463543 302.352154 
L 268.3008 300.76839 
L 266.260114 300.48854 
L 263.199086 300.059901 
L 261.668571 299.848238 
L 256.056686 298.791347 
L 252.995657 297.893383 
L 248.914286 295.551677 
L 247.383771 294.129566 
L 246.363429 292.929698 
L 245.853257 292.262034 
L 243.3024 287.670161 
L 242.282057 285.356165 
L 240.751543 281.096336 
L 239.7312 277.782141 
L 238.200686 272.029247 
L 236.16 262.834679 
L 234.119314 252.233446 
L 231.568457 237.538629 
L 224.936229 198.460234 
L 219.324343 168.647776 
L 212.181943 131.811029 
L 210.141257 122.952428 
L 208.610743 117.443752 
L 207.5904 114.490153 
L 206.570057 112.17662 
L 205.549714 110.399258 
L 204.529371 109.199771 
L 203.509029 108.54707 
L 202.998857 108.363631 
L 202.488686 108.320052 
L 200.958171 108.879699 
L 199.427657 110.174196 
L 197.897143 112.196222 
L 196.8768 113.858191 
L 195.856457 115.855816 
L 194.836114 118.120946 
L 193.3056 122.123915 
L 191.775086 126.96276 
L 190.244571 132.63982 
L 188.714057 139.12731 
L 186.1632 151.243257 
L 182.081829 172.595971 
L 175.959771 204.388896 
L 171.8784 224.44055 
L 169.327543 235.788899 
L 166.776686 245.789721 
L 164.736 252.899597 
L 162.695314 259.26839 
L 160.654629 264.840248 
L 158.613943 269.511073 
L 157.5936 271.490861 
L 156.573257 273.172654 
L 155.552914 274.460033 
L 154.532571 275.533448 
L 153.512229 276.25858 
L 152.491886 276.669182 
L 151.471543 276.866036 
L 150.961371 276.827463 
L 148.410514 275.915436 
L 145.859657 274.264531 
L 144.839314 273.488073 
L 144.329143 272.763612 
L 143.818971 272.637371 
L 143.3088 270.917276 
L 142.798629 271.650474 
L 141.268114 269.860195 
L 140.757943 268.992101 
L 140.247771 268.535415 
L 138.717257 266.155211 
L 138.207086 264.932275 
L 137.696914 264.387429 
L 136.1664 261.596698 
L 135.656229 260.02621 
L 135.146057 259.527333 
L 134.635886 258.388281 
L 134.125714 256.957147 
L 133.615543 256.108116 
L 133.105371 250.7079 
L 132.085029 247.291059 
L 130.044343 238.922096 
L 128.003657 230.1019 
L 125.4528 219.942351 
L 124.432457 216.16823 
L 122.901943 209.154659 
L 121.8816 202.959411 
L 119.330743 186.14145 
L 118.3104 181.569449 
L 117.290057 178.644309 
L 116.269714 176.289945 
L 115.249371 173.343564 
L 114.7392 171.628881 
L 113.208686 164.462294 
L 110.657829 149.328654 
L 109.637486 140.041858 
L 108.617143 127.428361 
L 107.5968 111.931493 
L 106.066286 84.710761 
L 105.045943 61.352623 
L 104.0256 26.625642 
L 103.373323 -1 
L 103.373323 -1 
" clip-path="url(#p117f238bf1)" style="fill: none; stroke: #c51f3a; stroke-width: 0.5; stroke-linecap: square"/>
   </g>
   <g id="line2d_19">
    <path d="M 363.702857 308.564591 
L 363.192686 308.393478 
L 362.172343 308.410786 
L 359.111314 308.413778 
L 357.5808 308.394551 
L 354.519771 308.39063 
L 354.0096 308.323796 
L 352.989257 308.327649 
L 343.296 307.942491 
L 341.765486 307.807725 
L 327.990857 307.292939 
L 322.378971 307.461942 
L 321.8688 307.615737 
L 321.358629 307.486472 
L 317.787429 307.58555 
L 316.256914 307.645816 
L 313.195886 307.569999 
L 311.1552 307.543969 
L 308.604343 307.430166 
L 297.890743 306.662389 
L 291.258514 305.736124 
L 286.666971 304.791263 
L 272.892343 301.421366 
L 261.668571 299.698479 
L 259.627886 299.413975 
L 254.016 298.130455 
L 250.4448 296.500427 
L 248.914286 295.449236 
L 247.383771 294.086657 
L 245.853257 292.234421 
L 244.322743 289.780581 
L 242.792229 286.67595 
L 241.261714 282.792673 
L 239.7312 278.066987 
L 238.200686 272.390882 
L 236.670171 265.772578 
L 234.629486 255.616769 
L 232.5888 244.326552 
L 229.0176 223.276086 
L 225.4464 202.650048 
L 220.854857 178.155407 
L 211.671771 131.021393 
L 210.141257 124.461813 
L 208.610743 118.856315 
L 207.080229 114.605126 
L 206.059886 112.530057 
L 205.039543 110.979303 
L 204.529371 110.387127 
L 203.509029 109.660947 
L 202.998857 109.454417 
L 202.488686 109.382631 
L 201.468343 109.558759 
L 200.448 110.109669 
L 199.427657 110.961657 
L 198.407314 112.110467 
L 197.386971 113.584345 
L 196.366629 115.35749 
L 195.346286 117.373885 
L 193.815771 121.016745 
L 192.795429 123.886886 
L 191.264914 128.937363 
L 189.7344 134.77005 
L 187.693714 143.752939 
L 184.632686 158.866289 
L 174.939429 209.016515 
L 171.8784 223.932561 
L 168.817371 237.361928 
L 166.776686 245.27624 
L 164.736 252.456522 
L 163.205486 257.357927 
L 160.654629 264.420248 
L 158.613943 269.153769 
L 157.5936 271.169642 
L 156.063086 273.582921 
L 154.532571 275.225364 
L 153.512229 276.002565 
L 152.491886 276.499929 
L 151.471543 276.735453 
L 149.941029 276.449728 
L 147.900343 275.573716 
L 146.369829 274.5035 
L 144.839314 273.443029 
L 144.329143 272.828283 
L 143.818971 272.600321 
L 143.3088 270.813135 
L 142.798629 271.657274 
L 139.227429 266.894466 
L 138.207086 265.168251 
L 137.696914 263.82224 
L 137.186743 263.384393 
L 136.1664 261.541658 
L 135.656229 259.724957 
L 135.146057 259.336671 
L 134.635886 258.329844 
L 134.125714 256.842431 
L 133.615543 255.972239 
L 133.105371 249.620563 
L 132.085029 246.338558 
L 130.044343 237.907676 
L 125.962971 220.873385 
L 123.922286 212.800906 
L 122.901943 207.811688 
L 121.8816 201.648235 
L 119.330743 184.503766 
L 118.3104 179.908844 
L 115.249371 170.504092 
L 114.229029 165.566773 
L 113.208686 159.297868 
L 112.698514 155.07671 
L 111.678171 148.086278 
L 110.657829 138.766384 
L 109.637486 126.973073 
L 108.617143 112.004631 
L 107.5968 93.338752 
L 106.066286 59.022954 
L 105.556114 44.313728 
L 105.045943 25.741617 
L 104.457243 -1 
L 104.457243 -1 
" clip-path="url(#p117f238bf1)" style="fill: none; stroke: #b71f48; stroke-width: 0.5; stroke-linecap: square"/>
   </g>
   <g id="line2d_20">
    <path d="M 363.702857 308.504689 
L 363.192686 308.298501 
L 362.172343 308.345424 
L 357.5808 308.350605 
L 357.070629 308.301697 
L 356.050286 308.345355 
L 348.397714 308.192906 
L 347.377371 308.137048 
L 343.806171 307.978577 
L 341.765486 307.796875 
L 335.133257 307.496547 
L 331.562057 307.473529 
L 330.031543 307.419053 
L 325.44 307.429817 
L 323.399314 307.59514 
L 321.358629 307.66473 
L 310.645029 307.665843 
L 308.094171 307.521378 
L 305.033143 307.357307 
L 304.0128 307.286947 
L 300.4416 307.012028 
L 293.809371 306.157466 
L 289.728 305.451565 
L 286.1568 304.674666 
L 282.5856 303.704304 
L 270.851657 300.820289 
L 268.810971 300.500072 
L 264.7296 299.832568 
L 262.178743 299.448866 
L 256.566857 298.389335 
L 254.526171 297.862305 
L 250.954971 296.406049 
L 249.424457 295.469189 
L 248.404114 294.683824 
L 246.8736 293.232094 
L 245.853257 291.971775 
L 243.3024 287.686348 
L 241.771886 284.228114 
L 240.751543 281.471249 
L 239.221029 276.628271 
L 237.690514 270.892454 
L 236.16 264.267884 
L 234.119314 254.231932 
L 232.078629 243.21334 
L 222.895543 192.246723 
L 214.7328 150.208259 
L 212.181943 137.58773 
L 210.141257 128.769642 
L 208.610743 123.223321 
L 207.5904 120.194169 
L 206.570057 117.714579 
L 205.549714 115.780399 
L 204.529371 114.441424 
L 203.509029 113.579588 
L 202.488686 113.191682 
L 201.468343 113.217563 
L 200.448 113.597618 
L 199.937829 113.853001 
L 198.407314 115.270941 
L 197.386971 116.525957 
L 196.366629 118.078957 
L 194.836114 121.015015 
L 193.3056 124.615631 
L 191.775086 129.079616 
L 190.244571 134.357177 
L 188.714057 140.461466 
L 185.653029 154.397205 
L 182.592 169.791251 
L 174.429257 210.770324 
L 170.858057 227.53004 
L 168.817371 236.225208 
L 166.776686 244.108485 
L 164.736 251.207351 
L 162.695314 257.621564 
L 161.1648 261.893852 
L 159.634286 265.76335 
L 158.103771 269.044687 
L 157.083429 270.911138 
L 156.063086 272.530519 
L 154.532571 274.284352 
L 153.512229 275.0715 
L 152.491886 275.559562 
L 151.471543 275.805637 
L 149.941029 275.650732 
L 148.920686 275.307284 
L 147.390171 274.424743 
L 144.839314 272.637022 
L 144.329143 271.892331 
L 143.818971 271.785034 
L 143.3088 270.080669 
L 142.798629 270.797523 
L 141.268114 268.939638 
L 140.757943 267.980443 
L 140.247771 267.547876 
L 138.717257 265.157338 
L 138.207086 264.148748 
L 137.696914 262.714837 
L 137.186743 262.413326 
L 136.1664 260.309945 
L 135.656229 258.776239 
L 135.146057 258.267795 
L 134.635886 257.261088 
L 134.125714 255.693052 
L 133.615543 255.14199 
L 133.105371 248.940648 
L 132.5952 247.513932 
L 131.064686 241.615273 
L 130.044343 237.343431 
L 125.962971 220.248318 
L 124.942629 216.400176 
L 123.412114 209.768908 
L 122.391771 204.171149 
L 120.861257 193.84781 
L 119.840914 186.905319 
L 118.820571 181.111902 
L 117.800229 177.013076 
L 116.269714 172.237849 
L 115.249371 167.829512 
L 114.229029 161.409381 
L 113.208686 153.328046 
L 112.698514 147.822185 
L 112.188343 143.639122 
L 111.168 132.136975 
L 110.147657 118.326529 
L 109.127314 101.621238 
L 108.106971 80.592007 
L 107.086629 53.601161 
L 106.066286 18.606807 
L 105.622344 -1 
L 105.622344 -1 
" clip-path="url(#p117f238bf1)" style="fill: none; stroke: #a91f56; stroke-width: 0.5; stroke-linecap: square"/>
   </g>
   <g id="line2d_21">
    <path d="M 363.702857 308.718537 
L 363.192686 308.527652 
L 360.131657 308.540304 
L 355.029943 308.439639 
L 350.948571 308.323162 
L 345.336686 308.118335 
L 344.316343 308.042976 
L 341.255314 307.795157 
L 339.7248 307.691444 
L 329.0112 307.325668 
L 327.480686 307.376082 
L 325.44 307.380023 
L 323.909486 307.498405 
L 316.256914 307.652364 
L 300.951771 306.789618 
L 297.380571 306.38978 
L 296.360229 306.145254 
L 292.789029 305.650822 
L 290.238171 305.162963 
L 288.707657 304.851329 
L 286.1568 304.230672 
L 281.565257 302.968247 
L 280.034743 302.526294 
L 276.463543 301.505732 
L 275.4432 301.275857 
L 270.341486 300.089246 
L 268.3008 299.722546 
L 266.260114 299.393591 
L 262.688914 298.828009 
L 258.607543 298.09021 
L 255.036343 297.253217 
L 253.505829 296.76007 
L 251.975314 296.160714 
L 248.914286 294.375317 
L 247.383771 293.105628 
L 245.853257 291.425914 
L 243.3024 287.279753 
L 241.771886 283.975727 
L 240.241371 279.865291 
L 238.710857 274.941974 
L 237.180343 269.178839 
L 235.649829 262.571337 
L 233.609143 252.740332 
L 229.527771 230.679997 
L 224.936229 205.782255 
L 218.304 172.029422 
L 212.692114 143.683302 
L 210.651429 134.509969 
L 209.120914 128.60917 
L 207.5904 123.798691 
L 206.570057 121.28661 
L 205.549714 119.300644 
L 204.529371 117.786292 
L 203.509029 116.776773 
L 202.488686 116.176494 
L 201.468343 116.014231 
L 200.448 116.242214 
L 199.937829 116.402865 
L 198.407314 117.545779 
L 197.386971 118.634949 
L 196.366629 119.979952 
L 194.836114 122.573177 
L 193.3056 125.914193 
L 191.775086 130.071998 
L 190.244571 135.093355 
L 188.714057 140.869008 
L 186.1632 151.925063 
L 184.122514 161.560375 
L 175.959771 201.784632 
L 171.8784 221.239668 
L 169.327543 232.367338 
L 167.286857 240.463443 
L 164.225829 251.189149 
L 161.1648 260.212641 
L 159.124114 265.27619 
L 157.5936 268.451205 
L 156.063086 270.965493 
L 154.0224 273.281234 
L 153.512229 273.698385 
L 151.981714 274.385585 
L 150.961371 274.522305 
L 150.4512 274.398667 
L 149.941029 274.422674 
L 148.410514 273.8929 
L 146.88 273.018455 
L 144.839314 271.509691 
L 144.329143 270.832342 
L 143.818971 270.714276 
L 143.3088 268.92058 
L 142.798629 269.768619 
L 141.778286 268.513244 
L 141.268114 267.922254 
L 140.757943 266.966201 
L 140.247771 266.519904 
L 138.717257 264.135685 
L 138.207086 262.859857 
L 137.696914 262.301079 
L 134.635886 256.332746 
L 134.125714 254.771835 
L 133.615543 254.256914 
L 133.105371 248.615454 
L 132.5952 247.254655 
L 130.554514 239.447857 
L 126.473143 222.183964 
L 124.432457 214.185717 
L 123.412114 209.523094 
L 122.391771 203.848936 
L 120.861257 193.355621 
L 119.330743 183.213414 
L 118.3104 178.205802 
L 116.779886 172.478078 
L 116.269714 170.618356 
L 115.249371 165.564984 
L 114.7392 162.157257 
L 113.718857 153.349902 
L 113.208686 148.093503 
L 110.657829 112.41187 
L 109.637486 92.989807 
L 108.617143 70.265601 
L 107.5968 40.991464 
L 106.576457 2.487962 
L 106.502913 -1 
L 106.502913 -1 
" clip-path="url(#p117f238bf1)" style="fill: none; stroke: #9b1f64; stroke-width: 0.5; stroke-linecap: square"/>
   </g>
   <g id="line2d_22">
    <path d="M 363.702857 308.574739 
L 363.192686 308.39977 
L 362.172343 308.398796 
L 358.090971 308.416094 
L 356.560457 308.373138 
L 350.4384 308.27152 
L 349.928229 308.188138 
L 349.418057 308.25823 
L 347.887543 308.144394 
L 345.336686 308.052138 
L 343.296 307.911938 
L 342.785829 307.8014 
L 341.765486 307.806415 
L 339.214629 307.604541 
L 334.623086 307.445628 
L 334.112914 307.458275 
L 333.602743 307.358299 
L 332.5824 307.317366 
L 326.970514 307.218393 
L 316.767086 307.430643 
L 310.134857 307.203245 
L 307.584 307.08393 
L 306.563657 307.03334 
L 301.461943 306.544859 
L 297.380571 306.053953 
L 295.850057 305.761776 
L 291.768686 305.080946 
L 289.728 304.685622 
L 281.055086 302.28526 
L 275.953371 300.745314 
L 274.933029 300.508411 
L 273.402514 300.081043 
L 266.770286 298.701547 
L 262.178743 297.925378 
L 254.526171 296.24861 
L 250.954971 294.840309 
L 248.914286 293.647188 
L 247.383771 292.391308 
L 245.853257 290.785796 
L 243.3024 286.881299 
L 241.771886 283.756335 
L 240.751543 281.262502 
L 239.221029 276.919861 
L 237.690514 271.744135 
L 235.649829 263.602897 
L 233.609143 254.248009 
L 230.548114 238.747773 
L 224.426057 207.114606 
L 213.202286 151.779378 
L 211.1616 142.488247 
L 209.120914 134.523006 
L 207.5904 129.707173 
L 206.570057 127.128832 
L 205.549714 125.040386 
L 204.529371 123.420728 
L 203.509029 122.256043 
L 202.488686 121.510473 
L 201.468343 121.120716 
L 200.448 121.12143 
L 199.427657 121.397909 
L 198.407314 122.000184 
L 197.386971 122.864015 
L 196.366629 124.027047 
L 195.346286 125.427962 
L 193.815771 128.173352 
L 192.795429 130.443835 
L 191.264914 134.50343 
L 189.7344 139.408417 
L 188.203886 145.073924 
L 185.653029 155.680239 
L 182.592 169.800553 
L 170.858057 224.780331 
L 168.817371 233.25938 
L 166.776686 241.021111 
L 164.225829 249.749522 
L 161.674971 257.329226 
L 160.144457 261.381436 
L 158.613943 264.956323 
L 157.083429 267.927964 
L 156.063086 269.57089 
L 154.532571 271.449038 
L 153.512229 272.366597 
L 153.002057 272.740714 
L 151.471543 273.335524 
L 149.430857 273.215022 
L 148.410514 272.844349 
L 146.369829 271.651778 
L 145.859657 271.233741 
L 145.349486 270.969287 
L 144.839314 270.574893 
L 144.329143 269.813273 
L 143.818971 269.696605 
L 143.3088 267.935726 
L 142.798629 268.717084 
L 141.268114 266.887611 
L 140.757943 265.96839 
L 140.247771 265.400512 
L 138.717257 262.999313 
L 138.207086 261.812245 
L 137.696914 261.102392 
L 136.1664 258.198886 
L 135.656229 256.596801 
L 135.146057 256.122347 
L 134.125714 253.786112 
L 133.615543 252.666269 
L 133.105371 246.446607 
L 132.085029 243.291627 
L 130.044343 235.300465 
L 125.4528 216.328842 
L 123.922286 210.05077 
L 122.901943 204.932922 
L 121.371429 195.122689 
L 119.330743 181.338415 
L 118.3104 176.200805 
L 115.759543 165.186823 
L 115.249371 162.013979 
L 114.229029 153.482666 
L 113.208686 141.901767 
L 111.168 108.492111 
L 110.147657 86.575746 
L 109.127314 61.827003 
L 108.106971 31.478407 
L 107.2756 -1 
L 107.2756 -1 
" clip-path="url(#p117f238bf1)" style="fill: none; stroke: #8d1f72; stroke-width: 0.5; stroke-linecap: square"/>
   </g>
   <g id="line2d_23">
    <path d="M 363.702857 308.438459 
L 363.192686 308.285928 
L 356.050286 308.264947 
L 353.499429 308.229361 
L 351.458743 308.156076 
L 346.8672 308.078464 
L 342.275657 307.810675 
L 328.501029 307.386558 
L 322.378971 307.603497 
L 321.8688 307.702706 
L 320.848457 307.606983 
L 318.807771 307.645528 
L 314.216229 307.601104 
L 299.421257 306.499671 
L 298.400914 306.359473 
L 297.380571 306.210254 
L 296.360229 305.954894 
L 294.319543 305.648225 
L 292.278857 305.266886 
L 288.197486 304.411622 
L 286.666971 303.987687 
L 280.034743 301.930665 
L 277.994057 301.289649 
L 268.810971 298.882898 
L 266.260114 298.413261 
L 258.607543 296.917932 
L 252.485486 295.17333 
L 248.914286 293.304425 
L 247.383771 292.096863 
L 245.853257 290.60333 
L 243.812571 287.79539 
L 242.282057 285.097857 
L 240.751543 281.776964 
L 239.221029 277.712382 
L 237.690514 272.868227 
L 236.16 267.346795 
L 234.119314 258.904655 
L 232.078629 249.541882 
L 212.181943 153.564995 
L 210.141257 144.964579 
L 208.610743 139.422091 
L 207.5904 136.277732 
L 206.059886 132.397041 
L 204.529371 129.559457 
L 203.509029 128.240955 
L 202.488686 127.319163 
L 201.468343 126.698661 
L 200.448 126.418164 
L 199.427657 126.442088 
L 198.407314 126.740351 
L 196.8768 127.750359 
L 196.366629 128.183576 
L 194.836114 130.026737 
L 193.815771 131.664054 
L 192.795429 133.61202 
L 191.775086 135.941891 
L 189.7344 141.712613 
L 188.203886 146.914461 
L 186.1632 154.681275 
L 184.122514 163.315727 
L 181.061486 176.905592 
L 171.368229 220.837286 
L 168.817371 231.338525 
L 166.776686 239.006858 
L 164.736 246.034592 
L 162.695314 252.385177 
L 160.144457 259.435067 
L 157.5936 265.150488 
L 156.063086 267.791169 
L 154.532571 269.750039 
L 153.512229 270.747107 
L 152.491886 271.421994 
L 151.471543 271.84127 
L 150.961371 271.92722 
L 150.4512 271.841313 
L 149.941029 271.917316 
L 148.920686 271.67754 
L 147.390171 270.942253 
L 145.349486 269.668204 
L 144.839314 269.248042 
L 144.329143 268.539783 
L 143.818971 268.371806 
L 143.3088 266.710379 
L 142.798629 267.391416 
L 141.268114 265.557548 
L 140.757943 264.633182 
L 140.247771 264.155264 
L 138.207086 260.776049 
L 137.696914 259.371608 
L 137.186743 258.983169 
L 136.1664 256.996981 
L 135.656229 255.349578 
L 135.146057 254.97328 
L 134.635886 253.96728 
L 134.125714 252.582256 
L 133.615543 251.783755 
L 133.105371 245.913006 
L 132.085029 242.83358 
L 130.044343 235.005091 
L 126.983314 222.105215 
L 124.942629 213.950554 
L 123.922286 209.473887 
L 122.901943 204.220806 
L 121.8816 197.849832 
L 118.820571 177.549027 
L 117.290057 170.478864 
L 116.779886 168.436774 
L 115.759543 162.945704 
L 115.249371 159.590915 
L 114.229029 150.02222 
L 113.208686 137.218319 
L 111.168 98.890656 
L 109.637486 59.357994 
L 108.617143 28.275777 
L 107.851912 -1 
L 107.851912 -1 
" clip-path="url(#p117f238bf1)" style="fill: none; stroke: #801f80; stroke-width: 0.5; stroke-linecap: square"/>
   </g>
   <g id="line2d_24">
    <path d="M 363.702857 308.659269 
L 363.192686 308.488404 
L 360.131657 308.507565 
L 343.806171 308.001503 
L 341.765486 307.827056 
L 340.234971 307.70641 
L 332.5824 307.397464 
L 325.950171 307.284854 
L 321.8688 307.532324 
L 321.358629 307.409413 
L 318.807771 307.437573 
L 305.543314 306.71623 
L 292.789029 304.733416 
L 290.238171 304.165645 
L 288.707657 303.770277 
L 286.666971 303.202913 
L 273.402514 298.862139 
L 268.810971 297.726662 
L 267.280457 297.37876 
L 255.036343 294.584489 
L 250.954971 293.002812 
L 249.424457 292.208577 
L 247.893943 291.144137 
L 246.8736 290.337294 
L 245.343086 288.718197 
L 243.812571 286.68166 
L 242.282057 284.185803 
L 241.261714 282.198848 
L 239.7312 278.643646 
L 238.200686 274.422931 
L 236.670171 269.490549 
L 234.629486 261.902508 
L 232.5888 253.388035 
L 230.037943 241.887184 
L 211.671771 157.492504 
L 209.631086 149.326575 
L 208.100571 144.224667 
L 207.080229 141.289944 
L 206.059886 138.764091 
L 205.039543 136.661991 
L 204.0192 134.976838 
L 202.998857 133.685499 
L 201.978514 132.75505 
L 200.958171 132.086765 
L 199.937829 131.756145 
L 198.917486 131.717033 
L 197.897143 131.903842 
L 196.8768 132.389283 
L 195.856457 133.099033 
L 194.836114 134.100291 
L 193.3056 136.233982 
L 192.285257 138.077208 
L 190.754743 141.522553 
L 189.224229 145.800125 
L 187.693714 150.729949 
L 186.1632 156.075133 
L 182.592 170.452734 
L 179.530971 183.408773 
L 173.919086 207.909362 
L 170.347886 223.108067 
L 167.286857 234.836696 
L 164.225829 245.190436 
L 161.1648 254.135387 
L 159.124114 259.268482 
L 157.083429 263.510967 
L 156.063086 265.205777 
L 154.532571 267.190445 
L 153.512229 268.264884 
L 152.491886 268.957364 
L 151.471543 269.439201 
L 150.961371 269.502561 
L 150.4512 269.423908 
L 149.941029 269.539277 
L 148.410514 269.11977 
L 147.390171 268.623093 
L 145.349486 267.308811 
L 144.839314 266.855625 
L 144.329143 266.130969 
L 143.818971 265.945719 
L 143.3088 264.178991 
L 142.798629 264.915336 
L 141.268114 263.030863 
L 140.757943 262.039082 
L 140.247771 261.506654 
L 138.207086 257.957145 
L 137.696914 256.562393 
L 137.186743 256.11644 
L 136.1664 254.142881 
L 135.656229 252.380512 
L 135.146057 252.042232 
L 134.125714 249.444923 
L 133.615543 248.728915 
L 133.105371 243.338988 
L 132.5952 241.986239 
L 131.064686 236.614481 
L 127.493486 222.111706 
L 125.962971 215.922525 
L 123.922286 207.382337 
L 122.391771 199.188597 
L 120.351086 185.223475 
L 118.820571 175.74297 
L 117.290057 168.403995 
L 116.269714 163.487865 
L 115.249371 156.633326 
L 114.229029 146.580974 
L 113.208686 132.557719 
L 111.168 89.308533 
L 109.637486 44.089572 
L 108.617143 8.96259 
L 108.373087 -1 
L 108.373087 -1 
" clip-path="url(#p117f238bf1)" style="fill: none; stroke: #721f8d; stroke-width: 0.5; stroke-linecap: square"/>
   </g>
   <g id="line2d_25">
    <path d="M 363.702857 308.566911 
L 363.192686 308.413919 
L 360.131657 308.382515 
L 358.601143 308.405098 
L 356.050286 308.373964 
L 355.540114 308.418843 
L 354.519771 308.342989 
L 348.397714 308.239336 
L 345.846857 308.090618 
L 344.826514 308.047055 
L 342.275657 307.83839 
L 340.234971 307.7113 
L 338.194286 307.584 
L 337.173943 307.556912 
L 335.643429 307.463998 
L 334.112914 307.451453 
L 323.909486 307.244554 
L 319.317943 307.299028 
L 313.706057 307.172323 
L 308.604343 306.762352 
L 306.563657 306.623888 
L 302.992457 306.193472 
L 300.4416 305.837105 
L 297.380571 305.346689 
L 295.339886 304.89206 
L 293.809371 304.6407 
L 292.278857 304.289114 
L 290.748343 303.902385 
L 289.217829 303.528571 
L 287.687314 303.023714 
L 285.646629 302.391062 
L 274.933029 298.554728 
L 272.892343 297.904216 
L 270.851657 297.337081 
L 268.810971 296.806837 
L 260.648229 294.888127 
L 258.607543 294.396748 
L 253.505829 292.912161 
L 249.934629 291.381644 
L 248.404114 290.568539 
L 246.8736 289.457337 
L 245.853257 288.547062 
L 242.792229 284.598183 
L 241.771886 282.914796 
L 240.241371 279.913963 
L 238.710857 276.300295 
L 237.180343 272.070902 
L 235.139657 265.464047 
L 233.098971 257.935741 
L 231.058286 249.774221 
L 222.385371 212.935153 
L 219.324343 199.814954 
L 215.242971 181.589305 
L 212.181943 168.158583 
L 210.141257 160.014979 
L 208.610743 154.631146 
L 207.080229 150.03871 
L 206.059886 147.421746 
L 204.529371 144.29071 
L 202.998857 141.920181 
L 201.978514 140.735286 
L 200.448 139.524167 
L 199.427657 139.023736 
L 198.407314 138.795767 
L 197.386971 138.845347 
L 196.366629 139.116288 
L 195.346286 139.635819 
L 193.815771 141.039668 
L 192.795429 142.384315 
L 191.775086 144.037044 
L 190.754743 146.061833 
L 189.224229 149.740514 
L 187.183543 155.708381 
L 185.653029 160.710229 
L 183.612343 168.11125 
L 179.530971 183.994716 
L 174.429257 204.977599 
L 170.858057 219.762021 
L 168.3072 229.545513 
L 166.266514 236.729456 
L 163.205486 246.41351 
L 161.1648 252.190365 
L 159.124114 257.32957 
L 157.083429 261.603455 
L 156.063086 263.370751 
L 154.0224 265.992652 
L 153.002057 266.960346 
L 151.981714 267.619273 
L 150.961371 267.906135 
L 148.920686 267.88116 
L 147.900343 267.488251 
L 145.859657 266.239966 
L 144.839314 265.472728 
L 144.329143 264.824885 
L 143.818971 264.554664 
L 143.3088 262.730161 
L 142.798629 263.490644 
L 139.7376 259.153763 
L 138.207086 256.408958 
L 137.696914 254.899028 
L 137.186743 254.383265 
L 136.1664 252.285058 
L 135.656229 250.636988 
L 135.146057 250.294154 
L 133.615543 247.387678 
L 133.105371 240.688575 
L 132.5952 239.362493 
L 130.554514 232.192211 
L 128.003657 222.055635 
L 126.473143 215.83939 
L 124.432457 207.368715 
L 123.412114 202.727399 
L 122.391771 197.022766 
L 120.861257 186.984796 
L 119.330743 176.751808 
L 117.800229 168.780539 
L 116.779886 163.880179 
L 115.759543 157.63036 
L 115.249371 153.649662 
L 114.229029 142.861429 
L 113.208686 127.506733 
L 111.168 79.138812 
L 109.637486 27.850034 
L 108.884101 -1 
L 108.884101 -1 
" clip-path="url(#p117f238bf1)" style="fill: none; stroke: #641f9b; stroke-width: 0.5; stroke-linecap: square"/>
   </g>
   <g id="line2d_26">
    <path d="M 363.702857 308.688957 
L 363.192686 308.491665 
L 358.601143 308.477921 
L 349.928229 308.303269 
L 348.397714 308.266694 
L 343.296 307.970574 
L 342.275657 307.852274 
L 341.255314 307.815737 
L 340.745143 307.703361 
L 340.234971 307.749342 
L 338.704457 307.585687 
L 335.643429 307.48498 
L 329.521371 307.304693 
L 326.970514 307.285975 
L 324.419657 307.307868 
L 322.378971 307.433319 
L 321.8688 307.534255 
L 321.358629 307.38899 
L 317.277257 307.385625 
L 309.624686 306.880647 
L 308.094171 306.691619 
L 306.563657 306.539134 
L 298.400914 305.393694 
L 291.258514 303.785759 
L 282.5856 300.818503 
L 272.382171 296.962493 
L 270.851657 296.506692 
L 268.3008 295.753416 
L 262.178743 294.171669 
L 254.526171 292.00424 
L 249.424457 289.934212 
L 247.893943 289.018028 
L 245.853257 287.442266 
L 242.282057 282.978594 
L 241.261714 281.332554 
L 239.7312 278.364408 
L 238.200686 274.879591 
L 236.16 269.28477 
L 234.119314 262.768765 
L 231.568457 253.572463 
L 229.0176 243.677533 
L 218.814171 202.457008 
L 210.651429 168.198972 
L 209.120914 162.640187 
L 207.5904 157.811308 
L 206.059886 153.815965 
L 204.529371 150.523049 
L 203.509029 148.742079 
L 202.488686 147.27066 
L 201.468343 146.080267 
L 199.937829 144.78339 
L 198.917486 144.203797 
L 197.897143 143.882535 
L 196.8768 143.80755 
L 195.856457 143.943562 
L 194.836114 144.411464 
L 193.815771 145.134352 
L 192.285257 146.819704 
L 191.264914 148.40793 
L 190.244571 150.281201 
L 188.714057 153.790772 
L 187.693714 156.434542 
L 185.653029 162.395139 
L 183.612343 169.18651 
L 180.041143 182.016794 
L 176.469943 195.645824 
L 169.327543 223.871059 
L 166.776686 232.864139 
L 163.205486 244.105893 
L 160.144457 252.486878 
L 157.5936 258.266763 
L 156.063086 261.028453 
L 155.042743 262.417836 
L 154.0224 263.733314 
L 153.002057 264.696672 
L 151.981714 265.350758 
L 150.961371 265.770338 
L 150.4512 265.73537 
L 149.941029 265.944907 
L 148.920686 265.739474 
L 147.390171 265.083138 
L 144.839314 263.323832 
L 144.329143 262.625794 
L 143.818971 262.343667 
L 143.3088 260.49665 
L 142.798629 261.177509 
L 142.288457 260.583224 
L 141.778286 259.670966 
L 141.268114 259.233505 
L 140.247771 257.62108 
L 139.227429 255.897631 
L 138.717257 254.511246 
L 138.207086 253.960881 
L 136.676571 250.676332 
L 136.1664 249.943815 
L 135.656229 248.704185 
L 135.146057 247.886273 
L 134.635886 246.414807 
L 134.125714 245.754122 
L 133.615543 244.686609 
L 133.105371 238.694289 
L 132.085029 235.745099 
L 130.044343 228.506817 
L 123.922286 203.279672 
L 122.391771 195.106427 
L 120.861257 185.086855 
L 119.330743 174.877171 
L 117.800229 166.527949 
L 116.779886 161.26925 
L 115.759543 154.721777 
L 114.7392 145.214175 
L 113.718857 131.624165 
L 113.208686 122.964639 
L 111.678171 86.343819 
L 110.657829 52.759211 
L 109.251644 -1 
L 109.251644 -1 
" clip-path="url(#p117f238bf1)" style="fill: none; stroke: #561fa9; stroke-width: 0.5; stroke-linecap: square"/>
   </g>
   <g id="line2d_27">
    <path d="M 363.702857 308.681147 
L 363.192686 308.548684 
L 359.111314 308.505529 
L 357.5808 308.478122 
L 345.336686 308.121385 
L 338.704457 307.604605 
L 324.419657 307.103735 
L 321.358629 307.166648 
L 320.338286 307.155398 
L 318.2976 307.15383 
L 312.175543 306.751028 
L 310.645029 306.59012 
L 305.543314 306.059182 
L 300.951771 305.319592 
L 298.911086 304.936972 
L 297.380571 304.627734 
L 296.360229 304.312909 
L 292.789029 303.57079 
L 287.177143 301.807546 
L 284.116114 300.620345 
L 281.055086 299.362937 
L 278.504229 298.268181 
L 272.892343 296.114429 
L 268.810971 294.744997 
L 263.709257 293.325983 
L 259.117714 292.044341 
L 250.954971 289.222459 
L 249.424457 288.469505 
L 247.893943 287.674627 
L 246.8736 287.011588 
L 245.853257 286.23119 
L 244.832914 285.155546 
L 243.3024 283.463039 
L 242.282057 282.128351 
L 241.261714 280.635435 
L 239.7312 277.991867 
L 238.200686 274.819713 
L 236.670171 271.122223 
L 234.119314 263.853805 
L 232.078629 257.254924 
L 227.997257 242.7371 
L 222.385371 221.895564 
L 218.304 206.005436 
L 210.141257 173.427828 
L 208.610743 168.248661 
L 207.080229 163.714926 
L 205.549714 159.858887 
L 204.0192 156.716589 
L 202.488686 154.194939 
L 200.958171 152.204822 
L 199.427657 150.805057 
L 198.407314 150.16367 
L 197.386971 149.696258 
L 196.366629 149.504545 
L 195.346286 149.518675 
L 194.325943 149.846665 
L 193.3056 150.407395 
L 192.285257 151.354632 
L 191.264914 152.59331 
L 190.244571 154.123245 
L 188.714057 157.072918 
L 186.1632 163.230158 
L 183.102171 172.426623 
L 180.041143 182.584705 
L 176.980114 193.346145 
L 173.408914 206.922224 
L 169.327543 222.22617 
L 167.286857 229.268305 
L 162.695314 243.378831 
L 158.613943 253.818649 
L 157.5936 255.957135 
L 156.063086 258.752686 
L 154.532571 260.911335 
L 153.512229 262.044687 
L 152.491886 262.914691 
L 151.471543 263.462372 
L 150.961371 263.643236 
L 150.4512 263.662971 
L 149.941029 263.816936 
L 148.920686 263.694753 
L 147.900343 263.304838 
L 146.369829 262.413626 
L 144.839314 261.242127 
L 144.329143 260.556332 
L 143.818971 260.281944 
L 143.3088 258.371075 
L 142.798629 259.084489 
L 141.268114 257.02777 
L 140.757943 256.040318 
L 139.7376 254.491789 
L 138.207086 251.630676 
L 137.696914 250.077206 
L 137.186743 249.626349 
L 136.1664 247.376427 
L 135.656229 245.708404 
L 135.146057 245.297102 
L 134.635886 244.414938 
L 134.125714 243.040174 
L 133.615543 242.394862 
L 133.105371 236.716183 
L 132.085029 233.852552 
L 129.534171 224.763074 
L 124.942629 206.348996 
L 123.412114 199.45436 
L 121.8816 190.806519 
L 120.351086 180.701983 
L 118.820571 171.183662 
L 116.269714 157.104509 
L 115.249371 148.945242 
L 114.229029 137.076668 
L 113.208686 120.152131 
L 111.678171 81.162924 
L 110.657829 45.012848 
L 109.532132 -1 
L 109.532132 -1 
" clip-path="url(#p117f238bf1)" style="fill: none; stroke: #481fb7; stroke-width: 0.5; stroke-linecap: square"/>
   </g>
   <g id="line2d_28">
    <path d="M 363.702857 308.512087 
L 363.192686 308.336033 
L 358.601143 308.358776 
L 357.070629 308.343756 
L 347.887543 308.186815 
L 344.826514 308.039044 
L 342.785829 307.860669 
L 334.623086 307.380103 
L 332.072229 307.298962 
L 328.501029 307.117211 
L 325.950171 307.043116 
L 323.399314 307.019713 
L 321.8688 307.14015 
L 321.358629 306.987782 
L 319.828114 306.995761 
L 316.256914 306.920219 
L 307.073829 306.075504 
L 303.502629 305.608395 
L 298.400914 304.626318 
L 290.238171 302.541603 
L 285.646629 300.853598 
L 279.524571 298.26315 
L 276.973714 297.137545 
L 274.422857 296.130757 
L 270.341486 294.630962 
L 265.239771 293.082027 
L 263.709257 292.610524 
L 258.097371 290.957338 
L 250.4448 288.159885 
L 247.893943 286.849927 
L 246.363429 285.829597 
L 245.343086 284.943873 
L 242.282057 281.706441 
L 239.7312 277.781513 
L 238.200686 274.83112 
L 236.670171 271.408166 
L 235.139657 267.503224 
L 232.5888 260.115477 
L 229.527771 250.158777 
L 224.936229 234.358088 
L 220.854857 219.761275 
L 217.793829 208.219778 
L 209.631086 177.092382 
L 208.100571 172.197136 
L 206.570057 167.952001 
L 205.039543 164.28901 
L 203.509029 161.253579 
L 201.978514 158.750844 
L 200.448 156.821463 
L 199.427657 155.807912 
L 198.407314 154.99082 
L 197.386971 154.348257 
L 196.366629 153.994664 
L 195.346286 153.831436 
L 194.836114 153.834225 
L 193.3056 154.319125 
L 192.285257 155.017824 
L 191.264914 156.054903 
L 190.244571 157.335521 
L 189.224229 158.986255 
L 187.183543 163.148818 
L 186.1632 165.47586 
L 183.102171 173.92505 
L 180.551314 181.752362 
L 178.000457 190.06382 
L 174.429257 202.754648 
L 169.327543 221.385493 
L 165.756343 233.032442 
L 162.695314 241.955243 
L 160.654629 247.442559 
L 158.613943 252.336569 
L 157.083429 255.491149 
L 155.552914 258.001428 
L 154.532571 259.452645 
L 153.512229 260.618664 
L 151.981714 261.823035 
L 150.961371 262.282226 
L 150.4512 262.278326 
L 149.941029 262.406471 
L 148.920686 262.318172 
L 147.900343 261.983507 
L 146.88 261.378348 
L 145.349486 260.306014 
L 144.839314 259.890967 
L 144.329143 259.077817 
L 143.818971 258.900261 
L 143.3088 257.088641 
L 142.798629 257.754504 
L 141.778286 256.389526 
L 141.268114 255.71938 
L 140.757943 254.593361 
L 140.247771 253.974521 
L 138.717257 251.311043 
L 138.207086 250.215422 
L 137.696914 248.581607 
L 137.186743 248.15371 
L 136.1664 246.007687 
L 135.656229 244.297334 
L 135.146057 243.853463 
L 134.635886 242.818909 
L 134.125714 241.385703 
L 133.615543 240.770686 
L 133.105371 234.263064 
L 132.085029 231.359106 
L 130.044343 224.2725 
L 129.024 220.611795 
L 126.983314 212.350393 
L 125.4528 206.262184 
L 123.412114 197.329291 
L 122.391771 192.071107 
L 120.861257 182.474206 
L 119.330743 172.553267 
L 116.269714 155.03662 
L 115.249371 146.592322 
L 114.229029 134.326628 
L 113.208686 116.839008 
L 111.678171 75.989166 
L 110.657829 37.995348 
L 109.746923 -1 
L 109.746923 -1 
" clip-path="url(#p117f238bf1)" style="fill: none; stroke: #3a1fc5; stroke-width: 0.5; stroke-linecap: square"/>
   </g>
   <g id="line2d_29">
    <path d="M 363.702857 308.531835 
L 363.192686 308.36432 
L 360.641829 308.402417 
L 358.601143 308.380336 
L 357.070629 308.39325 
L 355.029943 308.344483 
L 344.826514 308.051078 
L 336.1536 307.513526 
L 334.623086 307.476107 
L 323.399314 307.2431 
L 320.338286 307.221343 
L 311.665371 306.685701 
L 309.624686 306.400923 
L 306.563657 306.07844 
L 302.992457 305.500053 
L 301.461943 305.217368 
L 298.911086 304.74707 
L 296.8704 304.200217 
L 295.850057 303.926021 
L 293.2992 303.31493 
L 290.238171 302.400663 
L 286.666971 301.010894 
L 284.116114 299.921509 
L 282.5856 299.248468 
L 271.872 294.432187 
L 265.749943 292.324667 
L 263.709257 291.678589 
L 254.526171 288.637678 
L 248.914286 286.362617 
L 247.383771 285.542486 
L 245.853257 284.533357 
L 244.832914 283.541223 
L 243.812571 282.649338 
L 241.771886 280.414828 
L 239.7312 277.563635 
L 238.200686 274.886516 
L 236.16 270.646552 
L 234.119314 265.702704 
L 231.568457 258.680827 
L 227.997257 247.815477 
L 221.8752 227.817197 
L 219.324343 218.96506 
L 214.7328 201.945183 
L 210.141257 185.357075 
L 208.100571 178.806668 
L 206.570057 174.628415 
L 205.039543 170.921699 
L 203.509029 167.75442 
L 201.468343 164.337916 
L 199.937829 162.324284 
L 198.917486 161.229007 
L 197.386971 159.928165 
L 195.856457 159.081834 
L 194.836114 158.902031 
L 193.815771 158.872714 
L 192.795429 159.151202 
L 191.775086 159.728231 
L 190.244571 161.164622 
L 188.714057 163.375955 
L 187.693714 165.173765 
L 185.653029 169.353247 
L 184.122514 173.052125 
L 181.571657 179.845557 
L 178.510629 188.812347 
L 174.939429 200.605493 
L 167.286857 226.863273 
L 164.225829 236.091057 
L 161.674971 243.123814 
L 159.634286 248.304011 
L 158.103771 251.757637 
L 156.573257 254.735669 
L 155.552914 256.334569 
L 154.532571 257.805116 
L 153.002057 259.448154 
L 151.471543 260.503731 
L 149.941029 260.878033 
L 148.920686 260.785015 
L 147.900343 260.479608 
L 146.369829 259.452922 
L 144.839314 258.288565 
L 144.329143 257.580101 
L 143.818971 257.270382 
L 143.3088 255.325916 
L 142.798629 255.943411 
L 142.288457 255.292408 
L 141.778286 254.317761 
L 141.268114 253.84636 
L 140.757943 253.102132 
L 138.717257 248.674173 
L 138.207086 248.106582 
L 136.676571 244.517029 
L 136.1664 243.825117 
L 135.656229 242.481746 
L 135.146057 241.537834 
L 134.635886 239.93941 
L 134.125714 239.510469 
L 133.615543 238.478347 
L 133.105371 232.469266 
L 132.085029 229.666438 
L 129.534171 220.825424 
L 123.922286 198.372251 
L 122.391771 190.72206 
L 120.861257 181.309403 
L 118.820571 168.534898 
L 116.269714 153.62525 
L 115.759543 149.661379 
L 114.7392 139.061488 
L 113.718857 123.907558 
L 113.208686 113.876104 
L 111.678171 70.986327 
L 110.657829 30.5754 
L 109.954692 -1 
L 109.954692 -1 
" clip-path="url(#p117f238bf1)" style="fill: none; stroke: #2c1fd3; stroke-width: 0.5; stroke-linecap: square"/>
   </g>
   <g id="line2d_30">
    <path d="M 363.702857 308.79586 
L 362.682514 308.603118 
L 360.641829 308.612783 
L 348.907886 308.345671 
L 346.8672 308.217511 
L 345.846857 308.180282 
L 338.194286 307.584 
L 336.663771 307.56982 
L 334.112914 307.430338 
L 325.950171 307.129859 
L 321.8688 307.260743 
L 321.358629 307.065809 
L 320.338286 307.076479 
L 317.787429 306.982455 
L 316.256914 306.868397 
L 310.645029 306.274498 
L 309.114514 306.001991 
L 307.073829 305.793573 
L 304.0128 305.303694 
L 301.461943 304.740965 
L 296.8704 303.609218 
L 295.850057 303.28403 
L 292.789029 302.501387 
L 290.748343 301.865107 
L 285.646629 299.803525 
L 280.544914 297.379518 
L 278.504229 296.319272 
L 273.402514 293.978735 
L 270.341486 292.721935 
L 268.810971 292.11451 
L 266.260114 291.229129 
L 263.709257 290.371413 
L 250.4448 285.495946 
L 247.383771 284.029582 
L 245.853257 283.099656 
L 244.322743 281.74642 
L 242.792229 280.341449 
L 241.771886 279.242636 
L 240.241371 277.298517 
L 238.710857 274.98646 
L 237.180343 272.292819 
L 235.649829 269.183077 
L 234.119314 265.754681 
L 231.568457 259.255945 
L 227.487086 247.669581 
L 224.936229 240.14291 
L 219.834514 223.975583 
L 215.753143 209.875479 
L 211.1616 193.635915 
L 209.120914 186.992216 
L 207.080229 181.096426 
L 205.549714 177.264522 
L 203.509029 172.955518 
L 201.978514 170.21831 
L 200.448 167.913488 
L 198.917486 166.021579 
L 197.386971 164.52223 
L 195.856457 163.466541 
L 194.836114 163.054525 
L 193.815771 162.888547 
L 193.3056 162.85393 
L 192.285257 163.093597 
L 191.264914 163.612758 
L 190.244571 164.447985 
L 189.224229 165.585137 
L 188.203886 166.957593 
L 186.673371 169.491919 
L 185.142857 172.542907 
L 183.102171 177.195683 
L 179.0208 187.946246 
L 176.980114 193.885192 
L 173.408914 205.591225 
L 169.837714 217.599612 
L 166.266514 228.657802 
L 163.715657 236.001238 
L 161.674971 241.407853 
L 159.124114 247.688165 
L 157.5936 250.969211 
L 156.063086 253.712268 
L 154.0224 256.478463 
L 153.002057 257.499703 
L 151.981714 258.291172 
L 150.961371 258.73202 
L 150.4512 258.745945 
L 149.430857 258.89353 
L 148.410514 258.629663 
L 147.390171 258.101792 
L 145.349486 256.527779 
L 144.839314 256.092271 
L 144.329143 255.373276 
L 143.818971 254.970892 
L 143.3088 253.042159 
L 142.798629 253.700643 
L 140.757943 250.657744 
L 139.7376 248.60387 
L 139.227429 247.677161 
L 138.717257 246.383668 
L 138.207086 245.570217 
L 137.186743 243.328933 
L 136.676571 241.794464 
L 136.1664 241.065938 
L 135.656229 239.668314 
L 135.146057 238.912064 
L 134.635886 237.421187 
L 134.125714 236.827015 
L 133.615543 235.998086 
L 133.105371 230.134792 
L 131.574857 225.720871 
L 130.044343 220.55863 
L 124.432457 198.676214 
L 122.901943 191.826751 
L 121.371429 183.203958 
L 116.269714 152.402608 
L 115.249371 143.282623 
L 114.229029 130.231771 
L 113.208686 111.435272 
L 111.678171 66.576632 
L 110.657829 24.27332 
L 110.113477 -1 
L 110.113477 -1 
" clip-path="url(#p117f238bf1)" style="fill: none; stroke: #1f1fe0; stroke-width: 0.5; stroke-linecap: square"/>
   </g>
   <g id="patch_3">
    <path d="M 57.6 307.584 
L 57.6 41.472 
" style="fill: none; stroke: #000000; stroke-width: 0.8; stroke-linejoin: miter; stroke-linecap: square"/>
   </g>
   <g id="patch_4">
    <path d="M 414.72 307.584 
L 414.72 41.472 
" style="fill: none; stroke: #000000; stroke-width: 0.8; stroke-linejoin: miter; stroke-linecap: square"/>
   </g>
   <g id="patch_5">
    <path d="M 57.6 307.584 
L 414.72 307.584 
" style="fill: none; stroke: #000000; stroke-width: 0.8; stroke-linejoin: miter; stroke-linecap: square"/>
   </g>
   <g id="patch_6">
    <path d="M 57.6 41.472 
L 414.72 41.472 
" style="fill: none; stroke: #000000; stroke-width: 0.8; stroke-linejoin: miter; stroke-linecap: square"/>
   </g>
   <g id="text_18">
    <!-- IDA Titration of Alizarin:PBA complex &amp; Catechol in DMF  -->
    <g transform="translate(66.4575 22.034625) scale(0.12 -0.12)">
     <defs>
      <path id="DejaVuSans-49" d="M 628 4666 
L 1259 4666 
L 1259 0 
L 628 0 
L 628 4666 
z
" transform="scale(0.015625)"/>
      <path id="DejaVuSans-44" d="M 1259 4147 
L 1259 519 
L 2022 519 
Q 2988 519 3436 956 
Q 3884 1394 3884 2338 
Q 3884 3275 3436 3711 
Q 2988 4147 2022 4147 
L 1259 4147 
z
M 628 4666 
L 1925 4666 
Q 3281 4666 3915 4102 
Q 4550 3538 4550 2338 
Q 4550 1131 3912 565 
Q 3275 0 1925 0 
L 628 0 
L 628 4666 
z
" transform="scale(0.015625)"/>
      <path id="DejaVuSans-54" d="M -19 4666 
L 3928 4666 
L 3928 4134 
L 2272 4134 
L 2272 0 
L 1638 0 
L 1638 4134 
L -19 4134 
L -19 4666 
z
" transform="scale(0.015625)"/>
      <path id="DejaVuSans-69" d="M 603 3500 
L 1178 3500 
L 1178 0 
L 603 0 
L 603 3500 
z
M 603 4863 
L 1178 4863 
L 1178 4134 
L 603 4134 
L 603 4863 
z
" transform="scale(0.015625)"/>
      <path id="DejaVuSans-66" d="M 2375 4863 
L 2375 4384 
L 1825 4384 
Q 1516 4384 1395 4259 
Q 1275 4134 1275 3809 
L 1275 3500 
L 2222 3500 
L 2222 3053 
L 1275 3053 
L 1275 0 
L 697 0 
L 697 3053 
L 147 3053 
L 147 3500 
L 697 3500 
L 697 3744 
Q 697 4328 969 4595 
Q 1241 4863 1831 4863 
L 2375 4863 
z
" transform="scale(0.015625)"/>
      <path id="DejaVuSans-7a" d="M 353 3500 
L 3084 3500 
L 3084 2975 
L 922 459 
L 3084 459 
L 3084 0 
L 275 0 
L 275 525 
L 2438 3041 
L 353 3041 
L 353 3500 
z
" transform="scale(0.015625)"/>
      <path id="DejaVuSans-3a" d="M 750 794 
L 1409 794 
L 1409 0 
L 750 0 
L 750 794 
z
M 750 3309 
L 1409 3309 
L 1409 2516 
L 750 2516 
L 750 3309 
z
" transform="scale(0.015625)"/>
      <path id="DejaVuSans-50" d="M 1259 4147 
L 1259 2394 
L 2053 2394 
Q 2494 2394 2734 2622 
Q 2975 2850 2975 3272 
Q 2975 3691 2734 3919 
Q 2494 4147 2053 4147 
L 1259 4147 
z
M 628 4666 
L 2053 4666 
Q 2838 4666 3239 4311 
Q 3641 3956 3641 3272 
Q 3641 2581 3239 2228 
Q 2838 1875 2053 1875 
L 1259 1875 
L 1259 0 
L 628 0 
L 628 4666 
z
" transform="scale(0.015625)"/>
      <path id="DejaVuSans-42" d="M 1259 2228 
L 1259 519 
L 2272 519 
Q 2781 519 3026 730 
Q 3272 941 3272 1375 
Q 3272 1813 3026 2020 
Q 2781 2228 2272 2228 
L 1259 2228 
z
M 1259 4147 
L 1259 2741 
L 2194 2741 
Q 2656 2741 2882 2914 
Q 3109 3088 3109 3444 
Q 3109 3797 2882 3972 
Q 2656 4147 2194 4147 
L 1259 4147 
z
M 628 4666 
L 2241 4666 
Q 2963 4666 3353 4366 
Q 3744 4066 3744 3513 
Q 3744 3084 3544 2831 
Q 3344 2578 2956 2516 
Q 3422 2416 3680 2098 
Q 3938 1781 3938 1306 
Q 3938 681 3513 340 
Q 3088 0 2303 0 
L 628 0 
L 628 4666 
z
" transform="scale(0.015625)"/>
      <path id="DejaVuSans-70" d="M 1159 525 
L 1159 -1331 
L 581 -1331 
L 581 3500 
L 1159 3500 
L 1159 2969 
Q 1341 3281 1617 3432 
Q 1894 3584 2278 3584 
Q 2916 3584 3314 3078 
Q 3713 2572 3713 1747 
Q 3713 922 3314 415 
Q 2916 -91 2278 -91 
Q 1894 -91 1617 61 
Q 1341 213 1159 525 
z
M 3116 1747 
Q 3116 2381 2855 2742 
Q 2594 3103 2138 3103 
Q 1681 3103 1420 2742 
Q 1159 2381 1159 1747 
Q 1159 1113 1420 752 
Q 1681 391 2138 391 
Q 2594 391 2855 752 
Q 3116 1113 3116 1747 
z
" transform="scale(0.015625)"/>
      <path id="DejaVuSans-78" d="M 3513 3500 
L 2247 1797 
L 3578 0 
L 2900 0 
L 1881 1375 
L 863 0 
L 184 0 
L 1544 1831 
L 300 3500 
L 978 3500 
L 1906 2253 
L 2834 3500 
L 3513 3500 
z
" transform="scale(0.015625)"/>
      <path id="DejaVuSans-26" d="M 1556 2509 
Q 1272 2256 1139 2004 
Q 1006 1753 1006 1478 
Q 1006 1022 1337 719 
Q 1669 416 2169 416 
Q 2466 416 2725 514 
Q 2984 613 3213 813 
L 1556 2509 
z
M 1997 2859 
L 3584 1234 
Q 3769 1513 3872 1830 
Q 3975 2147 3994 2503 
L 4575 2503 
Q 4538 2091 4375 1687 
Q 4213 1284 3922 891 
L 4794 0 
L 4006 0 
L 3559 459 
Q 3234 181 2878 45 
Q 2522 -91 2113 -91 
Q 1359 -91 881 339 
Q 403 769 403 1441 
Q 403 1841 612 2192 
Q 822 2544 1241 2853 
Q 1091 3050 1012 3245 
Q 934 3441 934 3628 
Q 934 4134 1281 4442 
Q 1628 4750 2203 4750 
Q 2463 4750 2720 4694 
Q 2978 4638 3244 4525 
L 3244 3956 
Q 2972 4103 2725 4179 
Q 2478 4256 2266 4256 
Q 1938 4256 1733 4082 
Q 1528 3909 1528 3634 
Q 1528 3475 1620 3314 
Q 1713 3153 1997 2859 
z
" transform="scale(0.015625)"/>
      <path id="DejaVuSans-43" d="M 4122 4306 
L 4122 3641 
Q 3803 3938 3442 4084 
Q 3081 4231 2675 4231 
Q 1875 4231 1450 3742 
Q 1025 3253 1025 2328 
Q 1025 1406 1450 917 
Q 1875 428 2675 428 
Q 3081 428 3442 575 
Q 3803 722 4122 1019 
L 4122 359 
Q 3791 134 3420 21 
Q 3050 -91 2638 -91 
Q 1578 -91 968 557 
Q 359 1206 359 2328 
Q 359 3453 968 4101 
Q 1578 4750 2638 4750 
Q 3056 4750 3426 4639 
Q 3797 4528 4122 4306 
z
" transform="scale(0.015625)"/>
      <path id="DejaVuSans-4d" d="M 628 4666 
L 1569 4666 
L 2759 1491 
L 3956 4666 
L 4897 4666 
L 4897 0 
L 4281 0 
L 4281 4097 
L 3078 897 
L 2444 897 
L 1241 4097 
L 1241 0 
L 628 0 
L 628 4666 
z
" transform="scale(0.015625)"/>
      <path id="DejaVuSans-46" d="M 628 4666 
L 3309 4666 
L 3309 4134 
L 1259 4134 
L 1259 2759 
L 3109 2759 
L 3109 2228 
L 1259 2228 
L 1259 0 
L 628 0 
L 628 4666 
z
" transform="scale(0.015625)"/>
     </defs>
     <use xlink:href="#DejaVuSans-49"/>
     <use xlink:href="#DejaVuSans-44" x="29.492188"/>
     <use xlink:href="#DejaVuSans-41" x="104.744141"/>
     <use xlink:href="#DejaVuSans-20" x="173.152344"/>
     <use xlink:href="#DejaVuSans-54" x="204.939453"/>
     <use xlink:href="#DejaVuSans-69" x="262.898438"/>
     <use xlink:href="#DejaVuSans-74" x="290.681641"/>
     <use xlink:href="#DejaVuSans-72" x="329.890625"/>
     <use xlink:href="#DejaVuSans-61" x="371.003906"/>
     <use xlink:href="#DejaVuSans-74" x="432.283203"/>
     <use xlink:href="#DejaVuSans-69" x="471.492188"/>
     <use xlink:href="#DejaVuSans-6f" x="499.275391"/>
     <use xlink:href="#DejaVuSans-6e" x="560.457031"/>
     <use xlink:href="#DejaVuSans-20" x="623.835938"/>
     <use xlink:href="#DejaVuSans-6f" x="655.623047"/>
     <use xlink:href="#DejaVuSans-66" x="716.804688"/>
     <use xlink:href="#DejaVuSans-20" x="752.009766"/>
     <use xlink:href="#DejaVuSans-41" x="783.796875"/>
     <use xlink:href="#DejaVuSans-6c" x="852.205078"/>
     <use xlink:href="#DejaVuSans-69" x="879.988281"/>
     <use xlink:href="#DejaVuSans-7a" x="907.771484"/>
     <use xlink:href="#DejaVuSans-61" x="960.261719"/>
     <use xlink:href="#DejaVuSans-72" x="1021.541016"/>
     <use xlink:href="#DejaVuSans-69" x="1062.654297"/>
     <use xlink:href="#DejaVuSans-6e" x="1090.4375"/>
     <use xlink:href="#DejaVuSans-3a" x="1153.816406"/>
     <use xlink:href="#DejaVuSans-50" x="1187.507812"/>
     <use xlink:href="#DejaVuSans-42" x="1247.810547"/>
     <use xlink:href="#DejaVuSans-41" x="1316.414062"/>
     <use xlink:href="#DejaVuSans-20" x="1384.822266"/>
     <use xlink:href="#DejaVuSans-63" x="1416.609375"/>
     <use xlink:href="#DejaVuSans-6f" x="1471.589844"/>
     <use xlink:href="#DejaVuSans-6d" x="1532.771484"/>
     <use xlink:href="#DejaVuSans-70" x="1630.183594"/>
     <use xlink:href="#DejaVuSans-6c" x="1693.660156"/>
     <use xlink:href="#DejaVuSans-65" x="1721.443359"/>
     <use xlink:href="#DejaVuSans-78" x="1781.216797"/>
     <use xlink:href="#DejaVuSans-20" x="1840.396484"/>
     <use xlink:href="#DejaVuSans-26" x="1872.183594"/>
     <use xlink:href="#DejaVuSans-20" x="1950.162109"/>
     <use xlink:href="#DejaVuSans-43" x="1981.949219"/>
     <use xlink:href="#DejaVuSans-61" x="2051.773438"/>
     <use xlink:href="#DejaVuSans-74" x="2113.052734"/>
     <use xlink:href="#DejaVuSans-65" x="2152.261719"/>
     <use xlink:href="#DejaVuSans-63" x="2213.785156"/>
     <use xlink:href="#DejaVuSans-68" x="2268.765625"/>
     <use xlink:href="#DejaVuSans-6f" x="2332.144531"/>
     <use xlink:href="#DejaVuSans-6c" x="2393.326172"/>
     <use xlink:href="#DejaVuSans-20" x="2421.109375"/>
     <use xlink:href="#DejaVuSans-69" x="2452.896484"/>
     <use xlink:href="#DejaVuSans-6e" x="2480.679688"/>
     <use xlink:href="#DejaVuSans-20" x="2544.058594"/>
     <use xlink:href="#DejaVuSans-44" x="2575.845703"/>
     <use xlink:href="#DejaVuSans-4d" x="2652.847656"/>
     <use xlink:href="#DejaVuSans-46" x="2739.126953"/>
     <use xlink:href="#DejaVuSans-20" x="2796.646484"/>
    </g>
    <!--  -->
    <g transform="translate(236.16 35.472) scale(0.12 -0.12)"/>
   </g>
  </g>
 </g>
 <defs>
  <clipPath id="p117f238bf1">
   <rect x="57.6" y="41.472" width="357.12" height="266.112"/>
  </clipPath>
 </defs>
</svg>
