<?xml version="1.0" encoding="utf-8" standalone="no"?>
<!DOCTYPE svg PUBLIC "-//W3C//DTD SVG 1.1//EN"
  "http://www.w3.org/Graphics/SVG/1.1/DTD/svg11.dtd">
<svg xmlns:xlink="http://www.w3.org/1999/xlink" width="460.8pt" height="345.6pt" viewBox="0 0 460.8 345.6" xmlns="http://www.w3.org/2000/svg" version="1.1">
 <metadata>
  <rdf:RDF xmlns:dc="http://purl.org/dc/elements/1.1/" xmlns:cc="http://creativecommons.org/ns#" xmlns:rdf="http://www.w3.org/1999/02/22-rdf-syntax-ns#">
   <cc:Work>
    <dc:type rdf:resource="http://purl.org/dc/dcmitype/StillImage"/>
    <dc:date>2024-11-03T21:07:30.897545</dc:date>
    <dc:format>image/svg+xml</dc:format>
    <dc:creator>
     <cc:Agent>
      <dc:title>Matplotlib v3.9.2, https://matplotlib.org/</dc:title>
     </cc:Agent>
    </dc:creator>
   </cc:Work>
  </rdf:RDF>
 </metadata>
 <defs>
  <style type="text/css">*{stroke-linejoin: round; stroke-linecap: butt}</style>
 </defs>
 <g id="figure_1">
  <g id="patch_1">
   <path d="M 0 345.6 
L 460.8 345.6 
L 460.8 0 
L 0 0 
z
" style="fill: #ffffff"/>
  </g>
  <g id="axes_1">
   <g id="patch_2">
    <path d="M 57.6 307.584 
L 414.72 307.584 
L 414.72 41.472 
L 57.6 41.472 
z
" style="fill: #ffffff"/>
   </g>
   <g id="matplotlib.axis_1">
    <g id="xtick_1">
     <g id="line2d_1">
      <defs>
       <path id="mcf571284dc" d="M 0 0 
L 0 3.5 
" style="stroke: #000000; stroke-width: 0.8"/>
      </defs>
      <g>
       <use xlink:href="#mcf571284dc" x="57.6" y="307.584" style="stroke: #000000; stroke-width: 0.8"/>
      </g>
     </g>
     <g id="text_1">
      <!-- 200 -->
      <g transform="translate(48.05625 322.182437) scale(0.1 -0.1)">
       <defs>
        <path id="DejaVuSans-32" d="M 1228 531 
L 3431 531 
L 3431 0 
L 469 0 
L 469 531 
Q 828 903 1448 1529 
Q 2069 2156 2228 2338 
Q 2531 2678 2651 2914 
Q 2772 3150 2772 3378 
Q 2772 3750 2511 3984 
Q 2250 4219 1831 4219 
Q 1534 4219 1204 4116 
Q 875 4013 500 3803 
L 500 4441 
Q 881 4594 1212 4672 
Q 1544 4750 1819 4750 
Q 2544 4750 2975 4387 
Q 3406 4025 3406 3419 
Q 3406 3131 3298 2873 
Q 3191 2616 2906 2266 
Q 2828 2175 2409 1742 
Q 1991 1309 1228 531 
z
" transform="scale(0.015625)"/>
        <path id="DejaVuSans-30" d="M 2034 4250 
Q 1547 4250 1301 3770 
Q 1056 3291 1056 2328 
Q 1056 1369 1301 889 
Q 1547 409 2034 409 
Q 2525 409 2770 889 
Q 3016 1369 3016 2328 
Q 3016 3291 2770 3770 
Q 2525 4250 2034 4250 
z
M 2034 4750 
Q 2819 4750 3233 4129 
Q 3647 3509 3647 2328 
Q 3647 1150 3233 529 
Q 2819 -91 2034 -91 
Q 1250 -91 836 529 
Q 422 1150 422 2328 
Q 422 3509 836 4129 
Q 1250 4750 2034 4750 
z
" transform="scale(0.015625)"/>
       </defs>
       <use xlink:href="#DejaVuSans-32"/>
       <use xlink:href="#DejaVuSans-30" x="63.623047"/>
       <use xlink:href="#DejaVuSans-30" x="127.246094"/>
      </g>
     </g>
    </g>
    <g id="xtick_2">
     <g id="line2d_2">
      <g>
       <use xlink:href="#mcf571284dc" x="108.617143" y="307.584" style="stroke: #000000; stroke-width: 0.8"/>
      </g>
     </g>
     <g id="text_2">
      <!-- 300 -->
      <g transform="translate(99.073393 322.182437) scale(0.1 -0.1)">
       <defs>
        <path id="DejaVuSans-33" d="M 2597 2516 
Q 3050 2419 3304 2112 
Q 3559 1806 3559 1356 
Q 3559 666 3084 287 
Q 2609 -91 1734 -91 
Q 1441 -91 1130 -33 
Q 819 25 488 141 
L 488 750 
Q 750 597 1062 519 
Q 1375 441 1716 441 
Q 2309 441 2620 675 
Q 2931 909 2931 1356 
Q 2931 1769 2642 2001 
Q 2353 2234 1838 2234 
L 1294 2234 
L 1294 2753 
L 1863 2753 
Q 2328 2753 2575 2939 
Q 2822 3125 2822 3475 
Q 2822 3834 2567 4026 
Q 2313 4219 1838 4219 
Q 1578 4219 1281 4162 
Q 984 4106 628 3988 
L 628 4550 
Q 988 4650 1302 4700 
Q 1616 4750 1894 4750 
Q 2613 4750 3031 4423 
Q 3450 4097 3450 3541 
Q 3450 3153 3228 2886 
Q 3006 2619 2597 2516 
z
" transform="scale(0.015625)"/>
       </defs>
       <use xlink:href="#DejaVuSans-33"/>
       <use xlink:href="#DejaVuSans-30" x="63.623047"/>
       <use xlink:href="#DejaVuSans-30" x="127.246094"/>
      </g>
     </g>
    </g>
    <g id="xtick_3">
     <g id="line2d_3">
      <g>
       <use xlink:href="#mcf571284dc" x="159.634286" y="307.584" style="stroke: #000000; stroke-width: 0.8"/>
      </g>
     </g>
     <g id="text_3">
      <!-- 400 -->
      <g transform="translate(150.090536 322.182437) scale(0.1 -0.1)">
       <defs>
        <path id="DejaVuSans-34" d="M 2419 4116 
L 825 1625 
L 2419 1625 
L 2419 4116 
z
M 2253 4666 
L 3047 4666 
L 3047 1625 
L 3713 1625 
L 3713 1100 
L 3047 1100 
L 3047 0 
L 2419 0 
L 2419 1100 
L 313 1100 
L 313 1709 
L 2253 4666 
z
" transform="scale(0.015625)"/>
       </defs>
       <use xlink:href="#DejaVuSans-34"/>
       <use xlink:href="#DejaVuSans-30" x="63.623047"/>
       <use xlink:href="#DejaVuSans-30" x="127.246094"/>
      </g>
     </g>
    </g>
    <g id="xtick_4">
     <g id="line2d_4">
      <g>
       <use xlink:href="#mcf571284dc" x="210.651429" y="307.584" style="stroke: #000000; stroke-width: 0.8"/>
      </g>
     </g>
     <g id="text_4">
      <!-- 500 -->
      <g transform="translate(201.107679 322.182437) scale(0.1 -0.1)">
       <defs>
        <path id="DejaVuSans-35" d="M 691 4666 
L 3169 4666 
L 3169 4134 
L 1269 4134 
L 1269 2991 
Q 1406 3038 1543 3061 
Q 1681 3084 1819 3084 
Q 2600 3084 3056 2656 
Q 3513 2228 3513 1497 
Q 3513 744 3044 326 
Q 2575 -91 1722 -91 
Q 1428 -91 1123 -41 
Q 819 9 494 109 
L 494 744 
Q 775 591 1075 516 
Q 1375 441 1709 441 
Q 2250 441 2565 725 
Q 2881 1009 2881 1497 
Q 2881 1984 2565 2268 
Q 2250 2553 1709 2553 
Q 1456 2553 1204 2497 
Q 953 2441 691 2322 
L 691 4666 
z
" transform="scale(0.015625)"/>
       </defs>
       <use xlink:href="#DejaVuSans-35"/>
       <use xlink:href="#DejaVuSans-30" x="63.623047"/>
       <use xlink:href="#DejaVuSans-30" x="127.246094"/>
      </g>
     </g>
    </g>
    <g id="xtick_5">
     <g id="line2d_5">
      <g>
       <use xlink:href="#mcf571284dc" x="261.668571" y="307.584" style="stroke: #000000; stroke-width: 0.8"/>
      </g>
     </g>
     <g id="text_5">
      <!-- 600 -->
      <g transform="translate(252.124821 322.182437) scale(0.1 -0.1)">
       <defs>
        <path id="DejaVuSans-36" d="M 2113 2584 
Q 1688 2584 1439 2293 
Q 1191 2003 1191 1497 
Q 1191 994 1439 701 
Q 1688 409 2113 409 
Q 2538 409 2786 701 
Q 3034 994 3034 1497 
Q 3034 2003 2786 2293 
Q 2538 2584 2113 2584 
z
M 3366 4563 
L 3366 3988 
Q 3128 4100 2886 4159 
Q 2644 4219 2406 4219 
Q 1781 4219 1451 3797 
Q 1122 3375 1075 2522 
Q 1259 2794 1537 2939 
Q 1816 3084 2150 3084 
Q 2853 3084 3261 2657 
Q 3669 2231 3669 1497 
Q 3669 778 3244 343 
Q 2819 -91 2113 -91 
Q 1303 -91 875 529 
Q 447 1150 447 2328 
Q 447 3434 972 4092 
Q 1497 4750 2381 4750 
Q 2619 4750 2861 4703 
Q 3103 4656 3366 4563 
z
" transform="scale(0.015625)"/>
       </defs>
       <use xlink:href="#DejaVuSans-36"/>
       <use xlink:href="#DejaVuSans-30" x="63.623047"/>
       <use xlink:href="#DejaVuSans-30" x="127.246094"/>
      </g>
     </g>
    </g>
    <g id="xtick_6">
     <g id="line2d_6">
      <g>
       <use xlink:href="#mcf571284dc" x="312.685714" y="307.584" style="stroke: #000000; stroke-width: 0.8"/>
      </g>
     </g>
     <g id="text_6">
      <!-- 700 -->
      <g transform="translate(303.141964 322.182437) scale(0.1 -0.1)">
       <defs>
        <path id="DejaVuSans-37" d="M 525 4666 
L 3525 4666 
L 3525 4397 
L 1831 0 
L 1172 0 
L 2766 4134 
L 525 4134 
L 525 4666 
z
" transform="scale(0.015625)"/>
       </defs>
       <use xlink:href="#DejaVuSans-37"/>
       <use xlink:href="#DejaVuSans-30" x="63.623047"/>
       <use xlink:href="#DejaVuSans-30" x="127.246094"/>
      </g>
     </g>
    </g>
    <g id="xtick_7">
     <g id="line2d_7">
      <g>
       <use xlink:href="#mcf571284dc" x="363.702857" y="307.584" style="stroke: #000000; stroke-width: 0.8"/>
      </g>
     </g>
     <g id="text_7">
      <!-- 800 -->
      <g transform="translate(354.159107 322.182437) scale(0.1 -0.1)">
       <defs>
        <path id="DejaVuSans-38" d="M 2034 2216 
Q 1584 2216 1326 1975 
Q 1069 1734 1069 1313 
Q 1069 891 1326 650 
Q 1584 409 2034 409 
Q 2484 409 2743 651 
Q 3003 894 3003 1313 
Q 3003 1734 2745 1975 
Q 2488 2216 2034 2216 
z
M 1403 2484 
Q 997 2584 770 2862 
Q 544 3141 544 3541 
Q 544 4100 942 4425 
Q 1341 4750 2034 4750 
Q 2731 4750 3128 4425 
Q 3525 4100 3525 3541 
Q 3525 3141 3298 2862 
Q 3072 2584 2669 2484 
Q 3125 2378 3379 2068 
Q 3634 1759 3634 1313 
Q 3634 634 3220 271 
Q 2806 -91 2034 -91 
Q 1263 -91 848 271 
Q 434 634 434 1313 
Q 434 1759 690 2068 
Q 947 2378 1403 2484 
z
M 1172 3481 
Q 1172 3119 1398 2916 
Q 1625 2713 2034 2713 
Q 2441 2713 2670 2916 
Q 2900 3119 2900 3481 
Q 2900 3844 2670 4047 
Q 2441 4250 2034 4250 
Q 1625 4250 1398 4047 
Q 1172 3844 1172 3481 
z
" transform="scale(0.015625)"/>
       </defs>
       <use xlink:href="#DejaVuSans-38"/>
       <use xlink:href="#DejaVuSans-30" x="63.623047"/>
       <use xlink:href="#DejaVuSans-30" x="127.246094"/>
      </g>
     </g>
    </g>
    <g id="xtick_8">
     <g id="line2d_8">
      <g>
       <use xlink:href="#mcf571284dc" x="414.72" y="307.584" style="stroke: #000000; stroke-width: 0.8"/>
      </g>
     </g>
     <g id="text_8">
      <!-- 900 -->
      <g transform="translate(405.17625 322.182437) scale(0.1 -0.1)">
       <defs>
        <path id="DejaVuSans-39" d="M 703 97 
L 703 672 
Q 941 559 1184 500 
Q 1428 441 1663 441 
Q 2288 441 2617 861 
Q 2947 1281 2994 2138 
Q 2813 1869 2534 1725 
Q 2256 1581 1919 1581 
Q 1219 1581 811 2004 
Q 403 2428 403 3163 
Q 403 3881 828 4315 
Q 1253 4750 1959 4750 
Q 2769 4750 3195 4129 
Q 3622 3509 3622 2328 
Q 3622 1225 3098 567 
Q 2575 -91 1691 -91 
Q 1453 -91 1209 -44 
Q 966 3 703 97 
z
M 1959 2075 
Q 2384 2075 2632 2365 
Q 2881 2656 2881 3163 
Q 2881 3666 2632 3958 
Q 2384 4250 1959 4250 
Q 1534 4250 1286 3958 
Q 1038 3666 1038 3163 
Q 1038 2656 1286 2365 
Q 1534 2075 1959 2075 
z
" transform="scale(0.015625)"/>
       </defs>
       <use xlink:href="#DejaVuSans-39"/>
       <use xlink:href="#DejaVuSans-30" x="63.623047"/>
       <use xlink:href="#DejaVuSans-30" x="127.246094"/>
      </g>
     </g>
    </g>
    <g id="text_9">
     <!-- Wavelength (nm) -->
     <g transform="translate(192.967812 335.860562) scale(0.1 -0.1)">
      <defs>
       <path id="DejaVuSans-57" d="M 213 4666 
L 850 4666 
L 1831 722 
L 2809 4666 
L 3519 4666 
L 4500 722 
L 5478 4666 
L 6119 4666 
L 4947 0 
L 4153 0 
L 3169 4050 
L 2175 0 
L 1381 0 
L 213 4666 
z
" transform="scale(0.015625)"/>
       <path id="DejaVuSans-61" d="M 2194 1759 
Q 1497 1759 1228 1600 
Q 959 1441 959 1056 
Q 959 750 1161 570 
Q 1363 391 1709 391 
Q 2188 391 2477 730 
Q 2766 1069 2766 1631 
L 2766 1759 
L 2194 1759 
z
M 3341 1997 
L 3341 0 
L 2766 0 
L 2766 531 
Q 2569 213 2275 61 
Q 1981 -91 1556 -91 
Q 1019 -91 701 211 
Q 384 513 384 1019 
Q 384 1609 779 1909 
Q 1175 2209 1959 2209 
L 2766 2209 
L 2766 2266 
Q 2766 2663 2505 2880 
Q 2244 3097 1772 3097 
Q 1472 3097 1187 3025 
Q 903 2953 641 2809 
L 641 3341 
Q 956 3463 1253 3523 
Q 1550 3584 1831 3584 
Q 2591 3584 2966 3190 
Q 3341 2797 3341 1997 
z
" transform="scale(0.015625)"/>
       <path id="DejaVuSans-76" d="M 191 3500 
L 800 3500 
L 1894 563 
L 2988 3500 
L 3597 3500 
L 2284 0 
L 1503 0 
L 191 3500 
z
" transform="scale(0.015625)"/>
       <path id="DejaVuSans-65" d="M 3597 1894 
L 3597 1613 
L 953 1613 
Q 991 1019 1311 708 
Q 1631 397 2203 397 
Q 2534 397 2845 478 
Q 3156 559 3463 722 
L 3463 178 
Q 3153 47 2828 -22 
Q 2503 -91 2169 -91 
Q 1331 -91 842 396 
Q 353 884 353 1716 
Q 353 2575 817 3079 
Q 1281 3584 2069 3584 
Q 2775 3584 3186 3129 
Q 3597 2675 3597 1894 
z
M 3022 2063 
Q 3016 2534 2758 2815 
Q 2500 3097 2075 3097 
Q 1594 3097 1305 2825 
Q 1016 2553 972 2059 
L 3022 2063 
z
" transform="scale(0.015625)"/>
       <path id="DejaVuSans-6c" d="M 603 4863 
L 1178 4863 
L 1178 0 
L 603 0 
L 603 4863 
z
" transform="scale(0.015625)"/>
       <path id="DejaVuSans-6e" d="M 3513 2113 
L 3513 0 
L 2938 0 
L 2938 2094 
Q 2938 2591 2744 2837 
Q 2550 3084 2163 3084 
Q 1697 3084 1428 2787 
Q 1159 2491 1159 1978 
L 1159 0 
L 581 0 
L 581 3500 
L 1159 3500 
L 1159 2956 
Q 1366 3272 1645 3428 
Q 1925 3584 2291 3584 
Q 2894 3584 3203 3211 
Q 3513 2838 3513 2113 
z
" transform="scale(0.015625)"/>
       <path id="DejaVuSans-67" d="M 2906 1791 
Q 2906 2416 2648 2759 
Q 2391 3103 1925 3103 
Q 1463 3103 1205 2759 
Q 947 2416 947 1791 
Q 947 1169 1205 825 
Q 1463 481 1925 481 
Q 2391 481 2648 825 
Q 2906 1169 2906 1791 
z
M 3481 434 
Q 3481 -459 3084 -895 
Q 2688 -1331 1869 -1331 
Q 1566 -1331 1297 -1286 
Q 1028 -1241 775 -1147 
L 775 -588 
Q 1028 -725 1275 -790 
Q 1522 -856 1778 -856 
Q 2344 -856 2625 -561 
Q 2906 -266 2906 331 
L 2906 616 
Q 2728 306 2450 153 
Q 2172 0 1784 0 
Q 1141 0 747 490 
Q 353 981 353 1791 
Q 353 2603 747 3093 
Q 1141 3584 1784 3584 
Q 2172 3584 2450 3431 
Q 2728 3278 2906 2969 
L 2906 3500 
L 3481 3500 
L 3481 434 
z
" transform="scale(0.015625)"/>
       <path id="DejaVuSans-74" d="M 1172 4494 
L 1172 3500 
L 2356 3500 
L 2356 3053 
L 1172 3053 
L 1172 1153 
Q 1172 725 1289 603 
Q 1406 481 1766 481 
L 2356 481 
L 2356 0 
L 1766 0 
Q 1100 0 847 248 
Q 594 497 594 1153 
L 594 3053 
L 172 3053 
L 172 3500 
L 594 3500 
L 594 4494 
L 1172 4494 
z
" transform="scale(0.015625)"/>
       <path id="DejaVuSans-68" d="M 3513 2113 
L 3513 0 
L 2938 0 
L 2938 2094 
Q 2938 2591 2744 2837 
Q 2550 3084 2163 3084 
Q 1697 3084 1428 2787 
Q 1159 2491 1159 1978 
L 1159 0 
L 581 0 
L 581 4863 
L 1159 4863 
L 1159 2956 
Q 1366 3272 1645 3428 
Q 1925 3584 2291 3584 
Q 2894 3584 3203 3211 
Q 3513 2838 3513 2113 
z
" transform="scale(0.015625)"/>
       <path id="DejaVuSans-20" transform="scale(0.015625)"/>
       <path id="DejaVuSans-28" d="M 1984 4856 
Q 1566 4138 1362 3434 
Q 1159 2731 1159 2009 
Q 1159 1288 1364 580 
Q 1569 -128 1984 -844 
L 1484 -844 
Q 1016 -109 783 600 
Q 550 1309 550 2009 
Q 550 2706 781 3412 
Q 1013 4119 1484 4856 
L 1984 4856 
z
" transform="scale(0.015625)"/>
       <path id="DejaVuSans-6d" d="M 3328 2828 
Q 3544 3216 3844 3400 
Q 4144 3584 4550 3584 
Q 5097 3584 5394 3201 
Q 5691 2819 5691 2113 
L 5691 0 
L 5113 0 
L 5113 2094 
Q 5113 2597 4934 2840 
Q 4756 3084 4391 3084 
Q 3944 3084 3684 2787 
Q 3425 2491 3425 1978 
L 3425 0 
L 2847 0 
L 2847 2094 
Q 2847 2600 2669 2842 
Q 2491 3084 2119 3084 
Q 1678 3084 1418 2786 
Q 1159 2488 1159 1978 
L 1159 0 
L 581 0 
L 581 3500 
L 1159 3500 
L 1159 2956 
Q 1356 3278 1631 3431 
Q 1906 3584 2284 3584 
Q 2666 3584 2933 3390 
Q 3200 3197 3328 2828 
z
" transform="scale(0.015625)"/>
       <path id="DejaVuSans-29" d="M 513 4856 
L 1013 4856 
Q 1481 4119 1714 3412 
Q 1947 2706 1947 2009 
Q 1947 1309 1714 600 
Q 1481 -109 1013 -844 
L 513 -844 
Q 928 -128 1133 580 
Q 1338 1288 1338 2009 
Q 1338 2731 1133 3434 
Q 928 4138 513 4856 
z
" transform="scale(0.015625)"/>
      </defs>
      <use xlink:href="#DejaVuSans-57"/>
      <use xlink:href="#DejaVuSans-61" x="92.501953"/>
      <use xlink:href="#DejaVuSans-76" x="153.78125"/>
      <use xlink:href="#DejaVuSans-65" x="212.960938"/>
      <use xlink:href="#DejaVuSans-6c" x="274.484375"/>
      <use xlink:href="#DejaVuSans-65" x="302.267578"/>
      <use xlink:href="#DejaVuSans-6e" x="363.791016"/>
      <use xlink:href="#DejaVuSans-67" x="427.169922"/>
      <use xlink:href="#DejaVuSans-74" x="490.646484"/>
      <use xlink:href="#DejaVuSans-68" x="529.855469"/>
      <use xlink:href="#DejaVuSans-20" x="593.234375"/>
      <use xlink:href="#DejaVuSans-28" x="625.021484"/>
      <use xlink:href="#DejaVuSans-6e" x="664.035156"/>
      <use xlink:href="#DejaVuSans-6d" x="727.414062"/>
      <use xlink:href="#DejaVuSans-29" x="824.826172"/>
     </g>
    </g>
   </g>
   <g id="matplotlib.axis_2">
    <g id="ytick_1">
     <g id="line2d_9">
      <defs>
       <path id="m8806cdb67e" d="M 0 0 
L -3.5 0 
" style="stroke: #000000; stroke-width: 0.8"/>
      </defs>
      <g>
       <use xlink:href="#m8806cdb67e" x="57.6" y="307.584" style="stroke: #000000; stroke-width: 0.8"/>
      </g>
     </g>
     <g id="text_10">
      <!-- 0.0 -->
      <g transform="translate(34.696875 311.383219) scale(0.1 -0.1)">
       <defs>
        <path id="DejaVuSans-2e" d="M 684 794 
L 1344 794 
L 1344 0 
L 684 0 
L 684 794 
z
" transform="scale(0.015625)"/>
       </defs>
       <use xlink:href="#DejaVuSans-30"/>
       <use xlink:href="#DejaVuSans-2e" x="63.623047"/>
       <use xlink:href="#DejaVuSans-30" x="95.410156"/>
      </g>
     </g>
    </g>
    <g id="ytick_2">
     <g id="line2d_10">
      <g>
       <use xlink:href="#m8806cdb67e" x="57.6" y="263.232" style="stroke: #000000; stroke-width: 0.8"/>
      </g>
     </g>
     <g id="text_11">
      <!-- 0.2 -->
      <g transform="translate(34.696875 267.031219) scale(0.1 -0.1)">
       <use xlink:href="#DejaVuSans-30"/>
       <use xlink:href="#DejaVuSans-2e" x="63.623047"/>
       <use xlink:href="#DejaVuSans-32" x="95.410156"/>
      </g>
     </g>
    </g>
    <g id="ytick_3">
     <g id="line2d_11">
      <g>
       <use xlink:href="#m8806cdb67e" x="57.6" y="218.88" style="stroke: #000000; stroke-width: 0.8"/>
      </g>
     </g>
     <g id="text_12">
      <!-- 0.4 -->
      <g transform="translate(34.696875 222.679219) scale(0.1 -0.1)">
       <use xlink:href="#DejaVuSans-30"/>
       <use xlink:href="#DejaVuSans-2e" x="63.623047"/>
       <use xlink:href="#DejaVuSans-34" x="95.410156"/>
      </g>
     </g>
    </g>
    <g id="ytick_4">
     <g id="line2d_12">
      <g>
       <use xlink:href="#m8806cdb67e" x="57.6" y="174.528" style="stroke: #000000; stroke-width: 0.8"/>
      </g>
     </g>
     <g id="text_13">
      <!-- 0.6 -->
      <g transform="translate(34.696875 178.327219) scale(0.1 -0.1)">
       <use xlink:href="#DejaVuSans-30"/>
       <use xlink:href="#DejaVuSans-2e" x="63.623047"/>
       <use xlink:href="#DejaVuSans-36" x="95.410156"/>
      </g>
     </g>
    </g>
    <g id="ytick_5">
     <g id="line2d_13">
      <g>
       <use xlink:href="#m8806cdb67e" x="57.6" y="130.176" style="stroke: #000000; stroke-width: 0.8"/>
      </g>
     </g>
     <g id="text_14">
      <!-- 0.8 -->
      <g transform="translate(34.696875 133.975219) scale(0.1 -0.1)">
       <use xlink:href="#DejaVuSans-30"/>
       <use xlink:href="#DejaVuSans-2e" x="63.623047"/>
       <use xlink:href="#DejaVuSans-38" x="95.410156"/>
      </g>
     </g>
    </g>
    <g id="ytick_6">
     <g id="line2d_14">
      <g>
       <use xlink:href="#m8806cdb67e" x="57.6" y="85.824" style="stroke: #000000; stroke-width: 0.8"/>
      </g>
     </g>
     <g id="text_15">
      <!-- 1.0 -->
      <g transform="translate(34.696875 89.623219) scale(0.1 -0.1)">
       <defs>
        <path id="DejaVuSans-31" d="M 794 531 
L 1825 531 
L 1825 4091 
L 703 3866 
L 703 4441 
L 1819 4666 
L 2450 4666 
L 2450 531 
L 3481 531 
L 3481 0 
L 794 0 
L 794 531 
z
" transform="scale(0.015625)"/>
       </defs>
       <use xlink:href="#DejaVuSans-31"/>
       <use xlink:href="#DejaVuSans-2e" x="63.623047"/>
       <use xlink:href="#DejaVuSans-30" x="95.410156"/>
      </g>
     </g>
    </g>
    <g id="ytick_7">
     <g id="line2d_15">
      <g>
       <use xlink:href="#m8806cdb67e" x="57.6" y="41.472" style="stroke: #000000; stroke-width: 0.8"/>
      </g>
     </g>
     <g id="text_16">
      <!-- 1.2 -->
      <g transform="translate(34.696875 45.271219) scale(0.1 -0.1)">
       <use xlink:href="#DejaVuSans-31"/>
       <use xlink:href="#DejaVuSans-2e" x="63.623047"/>
       <use xlink:href="#DejaVuSans-32" x="95.410156"/>
      </g>
     </g>
    </g>
    <g id="text_17">
     <!-- Absorbance -->
     <g transform="translate(28.617187 204.074875) rotate(-90) scale(0.1 -0.1)">
      <defs>
       <path id="DejaVuSans-41" d="M 2188 4044 
L 1331 1722 
L 3047 1722 
L 2188 4044 
z
M 1831 4666 
L 2547 4666 
L 4325 0 
L 3669 0 
L 3244 1197 
L 1141 1197 
L 716 0 
L 50 0 
L 1831 4666 
z
" transform="scale(0.015625)"/>
       <path id="DejaVuSans-62" d="M 3116 1747 
Q 3116 2381 2855 2742 
Q 2594 3103 2138 3103 
Q 1681 3103 1420 2742 
Q 1159 2381 1159 1747 
Q 1159 1113 1420 752 
Q 1681 391 2138 391 
Q 2594 391 2855 752 
Q 3116 1113 3116 1747 
z
M 1159 2969 
Q 1341 3281 1617 3432 
Q 1894 3584 2278 3584 
Q 2916 3584 3314 3078 
Q 3713 2572 3713 1747 
Q 3713 922 3314 415 
Q 2916 -91 2278 -91 
Q 1894 -91 1617 61 
Q 1341 213 1159 525 
L 1159 0 
L 581 0 
L 581 4863 
L 1159 4863 
L 1159 2969 
z
" transform="scale(0.015625)"/>
       <path id="DejaVuSans-73" d="M 2834 3397 
L 2834 2853 
Q 2591 2978 2328 3040 
Q 2066 3103 1784 3103 
Q 1356 3103 1142 2972 
Q 928 2841 928 2578 
Q 928 2378 1081 2264 
Q 1234 2150 1697 2047 
L 1894 2003 
Q 2506 1872 2764 1633 
Q 3022 1394 3022 966 
Q 3022 478 2636 193 
Q 2250 -91 1575 -91 
Q 1294 -91 989 -36 
Q 684 19 347 128 
L 347 722 
Q 666 556 975 473 
Q 1284 391 1588 391 
Q 1994 391 2212 530 
Q 2431 669 2431 922 
Q 2431 1156 2273 1281 
Q 2116 1406 1581 1522 
L 1381 1569 
Q 847 1681 609 1914 
Q 372 2147 372 2553 
Q 372 3047 722 3315 
Q 1072 3584 1716 3584 
Q 2034 3584 2315 3537 
Q 2597 3491 2834 3397 
z
" transform="scale(0.015625)"/>
       <path id="DejaVuSans-6f" d="M 1959 3097 
Q 1497 3097 1228 2736 
Q 959 2375 959 1747 
Q 959 1119 1226 758 
Q 1494 397 1959 397 
Q 2419 397 2687 759 
Q 2956 1122 2956 1747 
Q 2956 2369 2687 2733 
Q 2419 3097 1959 3097 
z
M 1959 3584 
Q 2709 3584 3137 3096 
Q 3566 2609 3566 1747 
Q 3566 888 3137 398 
Q 2709 -91 1959 -91 
Q 1206 -91 779 398 
Q 353 888 353 1747 
Q 353 2609 779 3096 
Q 1206 3584 1959 3584 
z
" transform="scale(0.015625)"/>
       <path id="DejaVuSans-72" d="M 2631 2963 
Q 2534 3019 2420 3045 
Q 2306 3072 2169 3072 
Q 1681 3072 1420 2755 
Q 1159 2438 1159 1844 
L 1159 0 
L 581 0 
L 581 3500 
L 1159 3500 
L 1159 2956 
Q 1341 3275 1631 3429 
Q 1922 3584 2338 3584 
Q 2397 3584 2469 3576 
Q 2541 3569 2628 3553 
L 2631 2963 
z
" transform="scale(0.015625)"/>
       <path id="DejaVuSans-63" d="M 3122 3366 
L 3122 2828 
Q 2878 2963 2633 3030 
Q 2388 3097 2138 3097 
Q 1578 3097 1268 2742 
Q 959 2388 959 1747 
Q 959 1106 1268 751 
Q 1578 397 2138 397 
Q 2388 397 2633 464 
Q 2878 531 3122 666 
L 3122 134 
Q 2881 22 2623 -34 
Q 2366 -91 2075 -91 
Q 1284 -91 818 406 
Q 353 903 353 1747 
Q 353 2603 823 3093 
Q 1294 3584 2113 3584 
Q 2378 3584 2631 3529 
Q 2884 3475 3122 3366 
z
" transform="scale(0.015625)"/>
      </defs>
      <use xlink:href="#DejaVuSans-41"/>
      <use xlink:href="#DejaVuSans-62" x="68.408203"/>
      <use xlink:href="#DejaVuSans-73" x="131.884766"/>
      <use xlink:href="#DejaVuSans-6f" x="183.984375"/>
      <use xlink:href="#DejaVuSans-72" x="245.166016"/>
      <use xlink:href="#DejaVuSans-62" x="286.279297"/>
      <use xlink:href="#DejaVuSans-61" x="349.755859"/>
      <use xlink:href="#DejaVuSans-6e" x="411.035156"/>
      <use xlink:href="#DejaVuSans-63" x="474.414062"/>
      <use xlink:href="#DejaVuSans-65" x="529.394531"/>
     </g>
    </g>
   </g>
   <g id="line2d_16">
    <path d="M 363.702857 308.397521 
L 363.192686 308.221564 
L 360.131657 308.271572 
L 358.090971 308.230424 
L 357.070629 308.265923 
L 355.540114 308.23733 
L 345.336686 307.988074 
L 343.806171 307.909172 
L 341.255314 307.720877 
L 340.234971 307.635489 
L 339.214629 307.590718 
L 337.684114 307.529172 
L 336.1536 307.535928 
L 335.643429 307.457609 
L 334.112914 307.47846 
L 328.501029 307.391884 
L 325.950171 307.450042 
L 322.378971 307.634932 
L 321.8688 307.752951 
L 320.848457 307.676824 
L 312.175543 307.788798 
L 310.645029 307.736863 
L 296.8704 306.781137 
L 295.850057 306.636319 
L 293.2992 306.39454 
L 291.768686 306.166785 
L 288.707657 305.624411 
L 283.605943 304.512323 
L 282.075429 304.114263 
L 279.524571 303.538981 
L 276.463543 302.77376 
L 273.912686 302.252237 
L 271.872 301.843949 
L 263.709257 300.725962 
L 262.178743 300.558134 
L 258.097371 300.001246 
L 254.016 299.136622 
L 251.465143 298.28827 
L 250.4448 297.845191 
L 247.893943 296.318851 
L 246.8736 295.454662 
L 245.853257 294.40674 
L 243.3024 290.590377 
L 242.282057 288.653891 
L 240.751543 285.059606 
L 239.7312 282.230408 
L 238.200686 277.207116 
L 237.180343 273.355928 
L 235.649829 266.775714 
L 233.609143 256.551274 
L 231.568457 245.102376 
L 229.0176 229.617397 
L 223.915886 198.435834 
L 220.344686 178.421528 
L 215.242971 151.537179 
L 211.671771 133.415362 
L 209.631086 124.130761 
L 208.100571 118.18157 
L 207.080229 114.849146 
L 206.059886 112.112189 
L 205.039543 109.901584 
L 204.0192 108.346098 
L 202.998857 107.380251 
L 201.978514 106.991327 
L 201.468343 106.952123 
L 200.958171 107.088386 
L 199.937829 107.668164 
L 198.917486 108.682481 
L 197.897143 110.034807 
L 196.8768 111.631546 
L 195.346286 114.640501 
L 193.815771 118.262477 
L 192.285257 122.578989 
L 190.754743 127.610604 
L 189.224229 133.514378 
L 187.693714 140.198657 
L 185.142857 152.630896 
L 172.898743 217.095594 
L 169.837714 231.524969 
L 167.797029 240.208261 
L 165.246171 249.852516 
L 163.205486 256.706136 
L 161.674971 261.242204 
L 159.634286 266.697024 
L 158.103771 270.1472 
L 156.063086 273.779245 
L 154.532571 275.70964 
L 153.512229 276.622309 
L 152.491886 277.210946 
L 151.981714 277.420423 
L 150.961371 277.54029 
L 148.920686 277.071619 
L 146.369829 275.595907 
L 144.839314 274.550927 
L 144.329143 273.884886 
L 143.818971 273.832365 
L 143.3088 272.152254 
L 142.798629 273.030856 
L 141.778286 271.985407 
L 141.268114 271.48914 
L 140.757943 270.641663 
L 140.247771 270.286233 
L 138.207086 267.421948 
L 137.696914 266.139707 
L 137.186743 265.845148 
L 136.676571 265.127663 
L 136.1664 264.187214 
L 135.656229 262.649946 
L 135.146057 262.438142 
L 134.635886 261.494181 
L 134.125714 260.18478 
L 133.615543 259.592766 
L 133.105371 254.062931 
L 132.5952 252.692463 
L 131.574857 249.146163 
L 129.534171 240.686551 
L 126.983314 229.179593 
L 123.412114 213.911005 
L 122.391771 208.191708 
L 120.861257 197.598287 
L 119.840914 190.270936 
L 118.820571 184.580989 
L 118.3104 182.426996 
L 117.290057 179.319779 
L 115.249371 174.994939 
L 114.229029 171.926213 
L 113.208686 168.340295 
L 110.657829 157.848725 
L 109.637486 150.633152 
L 108.617143 139.989139 
L 106.066286 107.640592 
L 105.045943 93.0443 
L 104.0256 73.067758 
L 103.005257 45.139681 
L 101.712859 -1 
L 101.712859 -1 
" clip-path="url(#p38aa9beffa)" style="fill: none; stroke: #e01f1f; stroke-width: 0.5; stroke-linecap: square"/>
   </g>
   <g id="line2d_17">
    <path d="M 363.702857 308.63068 
L 363.192686 308.463228 
L 361.662171 308.489027 
L 357.070629 308.415548 
L 356.050286 308.410981 
L 344.826514 308.030057 
L 339.7248 307.668444 
L 338.194286 307.584 
L 329.521371 307.382234 
L 325.950171 307.372672 
L 322.889143 307.568728 
L 316.767086 307.729922 
L 306.053486 307.32729 
L 304.0128 307.193373 
L 299.421257 306.86222 
L 297.380571 306.61799 
L 295.850057 306.353282 
L 294.319543 306.217659 
L 293.2992 306.047124 
L 288.197486 305.093888 
L 284.116114 304.083255 
L 271.872 300.929623 
L 266.260114 299.977663 
L 262.178743 299.426969 
L 255.036343 298.026345 
L 252.485486 297.114862 
L 251.465143 296.643738 
L 248.914286 295.119323 
L 247.383771 293.698489 
L 245.853257 291.861815 
L 242.792229 286.126433 
L 241.771886 283.646029 
L 240.241371 279.192073 
L 238.710857 273.737884 
L 237.180343 267.433029 
L 235.139657 257.613049 
L 232.5888 243.612542 
L 224.936229 198.989862 
L 221.365029 180.052691 
L 212.692114 135.658 
L 210.651429 126.580669 
L 209.120914 120.769804 
L 208.100571 117.533765 
L 207.080229 114.916919 
L 206.059886 112.843053 
L 205.039543 111.459454 
L 204.529371 110.924603 
L 203.509029 110.298893 
L 202.488686 110.159061 
L 201.468343 110.388802 
L 200.448 111.078606 
L 199.427657 112.027349 
L 198.407314 113.28814 
L 197.386971 114.834823 
L 196.366629 116.636466 
L 194.836114 119.85244 
L 193.3056 123.858199 
L 191.775086 128.620023 
L 190.244571 134.217999 
L 188.714057 140.630637 
L 186.1632 152.592053 
L 182.081829 173.684625 
L 177.490286 197.333927 
L 172.898743 219.919456 
L 170.347886 231.583589 
L 167.797029 241.974808 
L 165.756343 249.388069 
L 163.715657 256.06333 
L 161.674971 261.884266 
L 160.144457 265.811986 
L 158.613943 269.176348 
L 157.083429 271.99984 
L 156.063086 273.493901 
L 154.0224 275.486077 
L 153.002057 276.05078 
L 151.981714 276.315406 
L 151.471543 276.396429 
L 150.961371 276.334483 
L 150.4512 276.121347 
L 149.941029 276.146871 
L 147.390171 274.761352 
L 144.839314 272.968697 
L 144.329143 272.304708 
L 143.818971 272.067158 
L 143.3088 270.379394 
L 142.798629 271.124505 
L 141.268114 269.411158 
L 140.757943 268.520313 
L 140.247771 268.111585 
L 138.207086 265.04039 
L 137.696914 263.693159 
L 137.186743 263.330288 
L 136.1664 261.650395 
L 135.656229 259.879464 
L 135.146057 259.608245 
L 134.635886 258.514294 
L 134.125714 257.015384 
L 133.615543 256.321202 
L 133.105371 250.732048 
L 132.5952 249.15694 
L 131.064686 243.14932 
L 126.473143 221.512725 
L 123.922286 211.376103 
L 122.901943 206.489865 
L 121.8816 200.327707 
L 119.330743 184.080484 
L 118.3104 179.703659 
L 117.800229 178.181218 
L 116.269714 174.988586 
L 115.759543 174.084242 
L 114.229029 169.643072 
L 113.208686 165.697125 
L 111.168 157.16917 
L 110.147657 150.732225 
L 109.637486 146.404954 
L 108.617143 135.061858 
L 107.086629 114.372685 
L 105.045943 85.435604 
L 104.535771 76.451221 
L 103.515429 52.146469 
L 102.495086 19.609672 
L 101.978652 -1 
L 101.978652 -1 
" clip-path="url(#p38aa9beffa)" style="fill: none; stroke: #d31f2c; stroke-width: 0.5; stroke-linecap: square"/>
   </g>
   <g id="line2d_18">
    <path d="M 363.702857 308.541054 
L 363.192686 308.385863 
L 361.152 308.397759 
L 358.090971 308.421545 
L 356.560457 308.375699 
L 353.499429 308.315727 
L 345.846857 308.098084 
L 341.255314 307.764783 
L 339.214629 307.65534 
L 335.643429 307.50661 
L 327.990857 307.298087 
L 325.950171 307.304723 
L 324.419657 307.354161 
L 322.889143 307.452658 
L 322.378971 307.438462 
L 321.8688 307.556575 
L 321.358629 307.40607 
L 319.828114 307.530797 
L 314.216229 307.618882 
L 301.461943 306.97849 
L 296.8704 306.483953 
L 295.850057 306.340193 
L 288.707657 305.353967 
L 271.361829 301.293849 
L 263.199086 300.060505 
L 262.178743 299.945542 
L 255.036343 298.612804 
L 254.016 298.304264 
L 251.975314 297.501653 
L 250.4448 296.740566 
L 248.914286 295.698216 
L 247.893943 294.806742 
L 246.363429 293.175272 
L 245.853257 292.49806 
L 243.3024 288.058478 
L 242.282057 285.772409 
L 240.751543 281.632646 
L 239.221029 276.610597 
L 237.690514 270.666863 
L 236.16 263.818463 
L 234.119314 253.437765 
L 232.078629 242.026171 
L 224.426057 198.016624 
L 217.793829 163.629872 
L 212.181943 135.214821 
L 210.141257 126.38522 
L 208.610743 120.906997 
L 207.5904 117.93841 
L 206.570057 115.563069 
L 205.549714 113.769331 
L 205.039543 113.050487 
L 204.0192 112.070721 
L 202.998857 111.616963 
L 201.978514 111.595365 
L 201.468343 111.719415 
L 200.448 112.2816 
L 199.427657 113.100926 
L 197.897143 114.950286 
L 196.366629 117.433564 
L 194.836114 120.593045 
L 193.3056 124.411096 
L 191.775086 129.062167 
L 190.244571 134.570685 
L 188.203886 143.103345 
L 185.653029 155.119127 
L 180.551314 181.360821 
L 175.4496 207.103928 
L 171.368229 226.582499 
L 168.817371 237.531164 
L 166.776686 245.395718 
L 164.225829 254.077387 
L 162.695314 258.721066 
L 160.144457 265.501386 
L 158.103771 269.973192 
L 156.573257 272.630987 
L 155.552914 273.894046 
L 154.532571 275.007943 
L 153.512229 275.765816 
L 152.491886 276.23197 
L 151.981714 276.409298 
L 150.961371 276.437779 
L 150.4512 276.282687 
L 149.941029 276.270021 
L 148.410514 275.672696 
L 144.839314 273.492244 
L 144.329143 272.693723 
L 143.818971 272.636324 
L 143.3088 270.977725 
L 142.798629 271.776735 
L 141.268114 270.127548 
L 140.757943 269.348996 
L 140.247771 268.91822 
L 138.717257 266.938724 
L 138.207086 266.112854 
L 137.696914 264.769378 
L 137.186743 264.414658 
L 136.676571 263.786215 
L 136.1664 262.891018 
L 135.656229 261.432492 
L 135.146057 260.972446 
L 134.635886 260.03541 
L 134.125714 258.598787 
L 133.615543 257.795233 
L 133.105371 251.725611 
L 132.085029 248.415882 
L 130.554514 242.492288 
L 125.962971 223.740202 
L 123.412114 213.555201 
L 122.391771 208.111544 
L 118.820571 185.71852 
L 118.3104 183.578327 
L 117.290057 180.583739 
L 115.249371 175.949455 
L 114.229029 172.71068 
L 113.208686 168.883601 
L 111.168 160.255851 
L 110.147657 154.057186 
L 109.127314 144.747497 
L 108.106971 132.263972 
L 105.045943 90.731358 
L 104.0256 70.477636 
L 103.005257 42.507552 
L 101.984914 6.54036 
L 101.803988 -1 
L 101.803988 -1 
" clip-path="url(#p38aa9beffa)" style="fill: none; stroke: #c51f3a; stroke-width: 0.5; stroke-linecap: square"/>
   </g>
   <g id="line2d_19">
    <path d="M 363.702857 308.459452 
L 363.192686 308.282345 
L 360.641829 308.321383 
L 351.968914 308.233098 
L 350.4384 308.190221 
L 349.418057 308.191945 
L 347.887543 308.136583 
L 343.806171 307.926534 
L 340.745143 307.706069 
L 337.684114 307.573133 
L 332.5824 307.448307 
L 326.460343 307.359516 
L 323.909486 307.529012 
L 322.378971 307.607616 
L 321.8688 307.688956 
L 321.358629 307.553458 
L 320.338286 307.651775 
L 315.236571 307.697753 
L 302.992457 307.090429 
L 300.951771 306.895847 
L 299.931429 306.804738 
L 297.380571 306.558792 
L 295.850057 306.247275 
L 294.829714 306.168585 
L 290.238171 305.378719 
L 286.1568 304.497175 
L 280.544914 302.969092 
L 272.382171 300.952693 
L 269.321143 300.382527 
L 267.790629 300.142592 
L 263.199086 299.48025 
L 259.627886 298.927972 
L 256.566857 298.354909 
L 252.485486 297.089778 
L 250.954971 296.384174 
L 249.424457 295.516587 
L 247.893943 294.306977 
L 246.363429 292.72295 
L 245.853257 292.048074 
L 242.792229 286.664322 
L 241.261714 282.953548 
L 239.7312 278.413397 
L 238.200686 272.975185 
L 236.670171 266.64396 
L 234.629486 256.985163 
L 232.078629 243.375788 
L 224.426057 200.97237 
L 219.834514 177.843445 
L 213.202286 144.684202 
L 211.1616 135.415489 
L 209.631086 129.363635 
L 208.610743 125.832453 
L 207.5904 122.883771 
L 206.570057 120.520552 
L 205.549714 118.674933 
L 204.529371 117.364851 
L 203.509029 116.619069 
L 202.488686 116.272707 
L 201.468343 116.332518 
L 200.958171 116.502778 
L 199.427657 117.51428 
L 197.897143 119.085045 
L 196.8768 120.541938 
L 195.856457 122.191575 
L 194.325943 125.262615 
L 192.795429 129.044858 
L 191.264914 133.642092 
L 189.7344 139.107176 
L 188.203886 145.262315 
L 185.653029 156.745428 
L 179.530971 186.863715 
L 174.429257 211.529726 
L 170.858057 227.923219 
L 168.3072 238.398485 
L 165.246171 249.386177 
L 163.205486 255.796825 
L 161.1648 261.491316 
L 159.634286 265.272343 
L 158.103771 268.519898 
L 156.573257 271.159306 
L 155.552914 272.535653 
L 154.532571 273.633818 
L 153.512229 274.415718 
L 153.002057 274.718934 
L 151.981714 275.038698 
L 150.961371 275.110911 
L 150.4512 274.968399 
L 149.430857 274.84222 
L 148.410514 274.332831 
L 146.88 273.39949 
L 144.839314 272.031865 
L 144.329143 271.487104 
L 143.818971 271.238667 
L 143.3088 269.498847 
L 142.798629 270.287363 
L 142.288457 269.767194 
L 141.778286 269.049405 
L 141.268114 268.717106 
L 140.247771 267.348307 
L 139.227429 266.037981 
L 138.717257 264.842275 
L 138.207086 264.420689 
L 135.656229 260.062924 
L 135.146057 259.17919 
L 134.635886 257.781463 
L 134.125714 257.242595 
L 133.615543 256.215225 
L 133.105371 250.493423 
L 132.5952 249.041447 
L 130.554514 241.406951 
L 126.473143 224.738386 
L 123.412114 212.928824 
L 122.391771 207.457752 
L 120.861257 197.528658 
L 119.330743 187.822331 
L 118.3104 183.213532 
L 117.800229 181.436937 
L 115.249371 174.961646 
L 114.229029 171.445546 
L 112.188343 162.990409 
L 110.657829 154.937665 
L 109.637486 146.990704 
L 108.617143 135.535587 
L 105.556114 93.975572 
L 104.535771 76.613404 
L 103.515429 52.514269 
L 102.495086 21.029434 
L 101.904359 -1 
L 101.904359 -1 
" clip-path="url(#p38aa9beffa)" style="fill: none; stroke: #b71f48; stroke-width: 0.5; stroke-linecap: square"/>
   </g>
   <g id="line2d_20">
    <path d="M 363.702857 308.504406 
L 363.192686 308.325136 
L 361.152 308.351355 
L 357.070629 308.321035 
L 351.968914 308.239599 
L 348.397714 308.168768 
L 344.826514 307.981867 
L 333.092571 307.413793 
L 324.419657 307.433864 
L 322.378971 307.527092 
L 321.8688 307.639499 
L 321.358629 307.530075 
L 314.7264 307.599507 
L 313.706057 307.519117 
L 311.665371 307.437702 
L 308.094171 307.224797 
L 306.563657 307.081325 
L 305.033143 306.983101 
L 303.502629 306.817652 
L 301.972114 306.685375 
L 300.951771 306.565829 
L 298.400914 306.229202 
L 293.2992 305.039756 
L 290.748343 304.341352 
L 285.136457 302.040107 
L 282.075429 300.493617 
L 280.544914 299.652505 
L 277.994057 298.25608 
L 275.953371 297.142903 
L 271.361829 294.915981 
L 268.3008 293.759729 
L 265.239771 292.877363 
L 263.709257 292.463079 
L 259.627886 291.478338 
L 254.526171 289.835253 
L 251.465143 288.335897 
L 249.424457 287.052409 
L 247.893943 285.764503 
L 246.8736 284.769271 
L 245.853257 283.57591 
L 244.832914 281.993039 
L 243.812571 280.375712 
L 242.282057 277.463436 
L 241.261714 275.194311 
L 239.221029 269.597309 
L 237.180343 262.565181 
L 235.649829 256.434581 
L 233.609143 247.217398 
L 231.058286 234.644255 
L 225.4464 206.518002 
L 222.895543 194.646415 
L 212.181943 146.695414 
L 210.141257 138.883117 
L 208.610743 133.967741 
L 207.5904 131.235093 
L 206.570057 129.087339 
L 205.549714 127.360985 
L 204.529371 126.180479 
L 203.509029 125.444545 
L 202.998857 125.202326 
L 201.978514 125.137043 
L 200.958171 125.275012 
L 199.427657 126.130436 
L 198.407314 127.019606 
L 196.8768 128.812842 
L 195.856457 130.302846 
L 194.325943 133.0455 
L 192.795429 136.453663 
L 191.264914 140.613582 
L 189.7344 145.589311 
L 188.203886 151.281585 
L 185.653029 161.80928 
L 181.061486 182.640929 
L 176.980114 201.111157 
L 172.388571 221.321954 
L 169.327543 233.701407 
L 166.266514 244.430246 
L 164.225829 250.801115 
L 162.185143 256.481188 
L 160.144457 261.479014 
L 158.613943 264.700352 
L 157.083429 267.390897 
L 155.552914 269.365216 
L 154.0224 270.717743 
L 153.512229 271.067919 
L 152.491886 271.388566 
L 151.471543 271.480183 
L 150.961371 271.413026 
L 150.4512 271.117572 
L 149.941029 271.069013 
L 148.920686 270.48416 
L 147.900343 269.728735 
L 146.88 268.801475 
L 145.349486 267.34017 
L 144.839314 266.826717 
L 144.329143 266.045725 
L 143.818971 265.670072 
L 143.3088 263.772189 
L 142.798629 264.342298 
L 140.247771 260.54685 
L 139.227429 258.901182 
L 138.717257 257.558654 
L 138.207086 256.968156 
L 136.676571 253.573846 
L 136.1664 252.810986 
L 133.615543 246.0176 
L 133.105371 239.660742 
L 132.5952 237.748803 
L 131.574857 232.446775 
L 130.554514 226.293355 
L 129.024 214.569768 
L 125.962971 189.187728 
L 124.432457 180.889898 
L 122.901943 174.059217 
L 121.8816 168.798284 
L 119.840914 157.252452 
L 119.330743 154.824148 
L 118.820571 152.957354 
L 118.3104 151.539149 
L 117.290057 149.624361 
L 115.759543 146.931592 
L 115.249371 145.534893 
L 114.229029 141.814497 
L 113.208686 136.848324 
L 111.168 124.832158 
L 110.147657 116.089756 
L 109.127314 104.099973 
L 108.106971 88.642838 
L 105.045943 35.324421 
L 104.0256 12.033008 
L 103.566374 -1 
L 103.566374 -1 
" clip-path="url(#p38aa9beffa)" style="fill: none; stroke: #a91f56; stroke-width: 0.5; stroke-linecap: square"/>
   </g>
   <g id="line2d_21">
    <path d="M 363.702857 308.519741 
L 363.192686 308.353243 
L 354.0096 308.3446 
L 352.479086 308.279116 
L 345.846857 308.104853 
L 332.072229 307.34932 
L 322.378971 307.302952 
L 321.8688 307.376582 
L 321.358629 307.23317 
L 316.767086 307.346263 
L 314.216229 307.28068 
L 310.645029 307.080057 
L 297.380571 305.715848 
L 296.360229 305.415749 
L 292.789029 304.778072 
L 287.177143 303.20383 
L 284.116114 302.065337 
L 282.5856 301.508086 
L 271.872 297.586981 
L 269.321143 296.891917 
L 262.688914 295.414159 
L 260.138057 294.894789 
L 257.5872 294.298717 
L 255.546514 293.713055 
L 253.505829 293.065324 
L 251.975314 292.424841 
L 249.424457 291.151095 
L 247.893943 289.996905 
L 246.363429 288.58461 
L 245.853257 288.023212 
L 242.792229 283.310759 
L 241.261714 280.173557 
L 239.7312 276.319309 
L 238.200686 271.741931 
L 236.670171 266.373196 
L 235.139657 260.363986 
L 233.098971 251.414466 
L 231.058286 241.845401 
L 225.4464 215.127492 
L 220.344686 192.52004 
L 217.283657 178.960087 
L 211.671771 154.176013 
L 210.141257 148.312422 
L 208.610743 143.153492 
L 207.5904 140.351675 
L 206.570057 137.925036 
L 205.549714 135.989112 
L 204.529371 134.545952 
L 203.509029 133.454614 
L 202.488686 132.855287 
L 201.468343 132.46356 
L 200.448 132.444764 
L 199.427657 132.62392 
L 198.407314 133.103334 
L 196.8768 134.239389 
L 195.856457 135.286817 
L 194.325943 137.35147 
L 193.3056 139.070448 
L 191.775086 142.323155 
L 190.244571 146.379195 
L 188.714057 151.128448 
L 186.673371 158.465018 
L 185.142857 164.400013 
L 181.571657 179.329938 
L 169.327543 230.7656 
L 167.286857 238.127727 
L 164.736 246.47155 
L 162.185143 253.805169 
L 159.634286 260.257083 
L 158.103771 263.535856 
L 156.573257 266.243736 
L 155.042743 268.259995 
L 154.0224 269.28952 
L 153.002057 269.980847 
L 151.981714 270.455909 
L 150.961371 270.629451 
L 150.4512 270.504412 
L 149.941029 270.565919 
L 147.900343 269.694692 
L 146.88 269.003613 
L 145.349486 267.942342 
L 144.839314 267.553315 
L 144.329143 266.882677 
L 143.818971 266.613435 
L 143.3088 264.865361 
L 142.798629 265.578161 
L 142.288457 265.011072 
L 141.778286 264.133432 
L 141.268114 263.842416 
L 140.247771 262.322268 
L 139.227429 260.91558 
L 138.717257 259.85427 
L 138.207086 259.174773 
L 137.696914 258.121202 
L 137.186743 257.430466 
L 136.676571 256.205012 
L 136.1664 255.465634 
L 135.146057 253.493345 
L 134.635886 252.105228 
L 134.125714 251.511532 
L 133.615543 250.570594 
L 133.105371 244.018217 
L 132.085029 240.772892 
L 131.064686 237.027923 
L 128.513829 225.941321 
L 127.493486 221.174951 
L 125.962971 214.648626 
L 123.922286 206.864094 
L 122.901943 202.477137 
L 121.371429 193.613057 
L 119.330743 181.315627 
L 118.3104 176.653572 
L 117.290057 173.365401 
L 115.759543 168.843985 
L 114.7392 165.054379 
L 113.208686 157.56575 
L 112.698514 154.335606 
L 112.188343 151.826818 
L 111.168 145.603051 
L 110.147657 137.39575 
L 109.637486 132.35705 
L 108.617143 119.403311 
L 105.045943 65.743977 
L 104.0256 44.908349 
L 103.005257 17.001104 
L 102.454179 -1 
L 102.454179 -1 
" clip-path="url(#p38aa9beffa)" style="fill: none; stroke: #9b1f64; stroke-width: 0.5; stroke-linecap: square"/>
   </g>
   <g id="line2d_22">
    <path d="M 363.702857 308.667001 
L 363.192686 308.487013 
L 361.152 308.483559 
L 348.397714 308.263118 
L 332.072229 307.320821 
L 328.501029 307.187219 
L 325.44 307.117391 
L 323.909486 307.14367 
L 322.378971 307.226132 
L 321.8688 307.272205 
L 321.358629 307.153022 
L 318.2976 307.137428 
L 315.746743 307.060034 
L 312.685714 306.876285 
L 310.645029 306.655105 
L 304.522971 306.037597 
L 302.992457 305.803638 
L 300.951771 305.543458 
L 299.421257 305.308216 
L 297.890743 305.060776 
L 288.197486 302.652385 
L 279.0144 299.299845 
L 276.973714 298.521849 
L 271.361829 296.706404 
L 265.749943 295.33787 
L 263.199086 294.79392 
L 260.648229 294.212323 
L 258.097371 293.62421 
L 252.995657 292.059252 
L 251.975314 291.64483 
L 250.954971 291.28976 
L 249.424457 290.466239 
L 247.383771 289.077138 
L 245.853257 287.66217 
L 242.282057 282.541051 
L 240.751543 279.477351 
L 239.221029 275.7506 
L 237.690514 271.363801 
L 236.16 266.296062 
L 234.629486 260.625813 
L 232.5888 252.321641 
L 229.527771 238.926515 
L 224.936229 218.835777 
L 215.753143 180.04234 
L 211.671771 162.709119 
L 210.141257 156.91323 
L 208.610743 151.775951 
L 207.5904 148.834605 
L 206.570057 146.322975 
L 205.549714 144.244588 
L 204.529371 142.57375 
L 203.509029 141.27678 
L 202.488686 140.318309 
L 201.468343 139.662145 
L 200.448 139.257636 
L 199.937829 139.116971 
L 198.407314 139.166367 
L 196.8768 139.62791 
L 195.346286 140.587532 
L 193.815771 142.177212 
L 192.285257 144.426559 
L 190.754743 147.483284 
L 189.7344 149.925891 
L 188.203886 154.186226 
L 185.653029 162.423611 
L 182.081829 175.611163 
L 175.4496 201.47828 
L 169.837714 223.725002 
L 167.286857 232.653043 
L 165.246171 239.19899 
L 163.205486 245.230884 
L 161.1648 250.691077 
L 159.124114 255.582824 
L 157.5936 258.64507 
L 156.573257 260.457968 
L 155.042743 262.516366 
L 153.512229 264.071961 
L 151.981714 264.910717 
L 150.961371 265.111557 
L 150.4512 264.984962 
L 149.941029 265.01279 
L 148.920686 264.747602 
L 147.390171 263.965609 
L 144.839314 262.077805 
L 144.329143 261.379311 
L 143.818971 261.130288 
L 143.3088 259.278268 
L 142.798629 259.997621 
L 142.288457 259.413389 
L 141.778286 258.578981 
L 141.268114 258.215557 
L 140.247771 256.673356 
L 139.227429 255.118078 
L 138.717257 254.033171 
L 138.207086 253.331913 
L 133.615543 244.964999 
L 133.105371 238.931756 
L 132.085029 236.02023 
L 130.554514 230.735327 
L 128.003657 220.999987 
L 126.473143 215.334718 
L 123.922286 206.029774 
L 123.412114 204.005105 
L 121.8816 195.944431 
L 118.820571 177.519316 
L 117.800229 173.186162 
L 115.249371 163.809048 
L 113.718857 155.760838 
L 111.678171 143.091298 
L 110.657829 135.349704 
L 109.637486 125.077207 
L 108.617143 111.52771 
L 105.045943 57.047767 
L 104.0256 36.227683 
L 103.005257 9.113038 
L 102.689205 -1 
L 102.689205 -1 
" clip-path="url(#p38aa9beffa)" style="fill: none; stroke: #8d1f72; stroke-width: 0.5; stroke-linecap: square"/>
   </g>
   <g id="line2d_23">
    <path d="M 363.702857 308.556641 
L 363.192686 308.344721 
L 361.662171 308.401639 
L 356.050286 308.368164 
L 344.826514 308.037085 
L 331.051886 307.336011 
L 325.44 307.202238 
L 323.909486 307.28836 
L 322.378971 307.301725 
L 321.8688 307.389812 
L 321.358629 307.244182 
L 320.338286 307.288747 
L 319.317943 307.258356 
L 314.216229 307.057627 
L 302.992457 305.835876 
L 300.951771 305.551545 
L 297.890743 305.032731 
L 294.319543 304.201543 
L 292.278857 303.69471 
L 290.748343 303.238547 
L 287.687314 302.22857 
L 285.136457 301.224315 
L 283.605943 300.574167 
L 282.5856 300.170338 
L 281.055086 299.491726 
L 274.933029 296.926883 
L 270.341486 295.345168 
L 267.280457 294.50539 
L 265.749943 294.094487 
L 261.668571 293.13017 
L 255.036343 291.313243 
L 251.465143 289.977499 
L 250.4448 289.47474 
L 249.424457 289.02842 
L 246.8736 287.296402 
L 245.343086 285.720931 
L 243.3024 283.174579 
L 241.771886 280.76276 
L 240.241371 277.801347 
L 238.710857 274.203209 
L 237.180343 269.992348 
L 235.649829 265.186855 
L 233.609143 257.964858 
L 231.568457 250.077761 
L 221.365029 209.627385 
L 217.283657 193.525849 
L 210.651429 167.151751 
L 209.120914 161.961588 
L 207.5904 157.582026 
L 206.570057 155.129427 
L 205.549714 152.987171 
L 204.0192 150.598229 
L 202.998857 149.396323 
L 201.978514 148.447408 
L 200.448 147.496497 
L 199.427657 147.194097 
L 198.407314 147.020678 
L 197.386971 147.042792 
L 195.856457 147.535345 
L 194.836114 148.125697 
L 194.325943 148.432776 
L 192.795429 150.060788 
L 191.775086 151.499863 
L 190.754743 153.310547 
L 189.7344 155.370561 
L 187.693714 160.561875 
L 185.653029 166.585271 
L 183.102171 175.037223 
L 179.530971 187.558577 
L 176.469943 198.702525 
L 168.3072 229.091508 
L 164.736 240.327763 
L 162.185143 247.456514 
L 160.144457 252.597147 
L 158.613943 256.046177 
L 157.083429 259.056682 
L 155.552914 261.386295 
L 154.532571 262.641509 
L 153.002057 263.965592 
L 152.491886 264.308237 
L 150.961371 264.80145 
L 148.920686 264.491731 
L 146.88 263.29351 
L 145.349486 262.146514 
L 144.839314 261.74608 
L 144.329143 261.081394 
L 143.818971 260.784285 
L 143.3088 258.953985 
L 142.798629 259.687507 
L 140.247771 256.163588 
L 139.227429 254.588514 
L 138.717257 253.535584 
L 138.207086 252.897065 
L 136.676571 249.759996 
L 136.1664 249.16891 
L 134.635886 245.815072 
L 134.125714 245.250436 
L 133.615543 244.293088 
L 133.105371 238.948909 
L 131.574857 234.039705 
L 130.044343 228.333374 
L 124.432457 205.548075 
L 123.412114 201.46404 
L 121.8816 193.878874 
L 118.820571 176.410063 
L 117.800229 172.169395 
L 115.249371 162.255263 
L 114.229029 156.866579 
L 113.208686 150.48429 
L 112.698514 146.576173 
L 112.188343 143.631774 
L 111.168 135.885223 
L 110.147657 126.28922 
L 109.127314 113.631193 
L 107.5968 90.020421 
L 104.535771 40.649326 
L 103.515429 16.765274 
L 102.908727 -1 
L 102.908727 -1 
" clip-path="url(#p38aa9beffa)" style="fill: none; stroke: #801f80; stroke-width: 0.5; stroke-linecap: square"/>
   </g>
   <g id="line2d_24">
    <path d="M 363.702857 308.603188 
L 363.192686 308.415565 
L 345.846857 308.15378 
L 342.785829 307.908694 
L 335.133257 307.465945 
L 323.909486 307.039709 
L 321.8688 307.143805 
L 321.358629 307.00763 
L 319.828114 307.003163 
L 318.2976 306.961165 
L 309.624686 306.34814 
L 308.604343 306.241496 
L 307.584 306.13794 
L 305.543314 305.900581 
L 299.931429 305.025809 
L 297.890743 304.63387 
L 296.8704 304.305529 
L 295.850057 304.042021 
L 294.319543 303.699887 
L 291.768686 302.968987 
L 286.1568 300.805382 
L 277.994057 296.876102 
L 276.463543 296.113988 
L 274.933029 295.449412 
L 272.892343 294.573895 
L 267.280457 292.662044 
L 262.688914 291.385475 
L 257.5872 289.995843 
L 252.485486 288.219057 
L 248.404114 286.26603 
L 247.383771 285.575009 
L 245.853257 284.360898 
L 242.282057 279.997632 
L 240.751543 277.471934 
L 239.221029 274.392214 
L 237.690514 270.727342 
L 236.16 266.561928 
L 234.119314 260.183422 
L 231.058286 249.403374 
L 220.344686 210.249816 
L 216.773486 196.876004 
L 212.181943 179.171332 
L 210.141257 171.931398 
L 208.610743 167.167274 
L 207.080229 163.06102 
L 205.549714 159.768144 
L 204.0192 157.184634 
L 202.488686 155.292911 
L 200.958171 153.95868 
L 199.427657 153.072564 
L 198.407314 152.739908 
L 196.8768 152.524376 
L 195.346286 152.792555 
L 194.325943 153.232619 
L 193.3056 153.981415 
L 192.285257 155.019591 
L 191.264914 156.376199 
L 189.7344 158.95955 
L 188.203886 162.285286 
L 185.653029 168.964212 
L 184.122514 173.531309 
L 181.061486 183.229368 
L 176.469943 198.709158 
L 168.3072 227.944243 
L 164.736 238.838557 
L 162.695314 244.548166 
L 158.613943 254.390855 
L 157.083429 257.373529 
L 155.552914 259.725319 
L 154.0224 261.563496 
L 152.491886 262.766486 
L 151.471543 263.163097 
L 150.961371 263.240557 
L 150.4512 263.180247 
L 149.941029 263.250563 
L 148.920686 262.978994 
L 147.390171 262.217727 
L 144.839314 260.181096 
L 144.329143 259.484713 
L 143.818971 259.139279 
L 143.3088 257.310926 
L 142.798629 258.03509 
L 140.247771 254.433608 
L 137.186743 249.078048 
L 136.676571 247.695757 
L 136.1664 247.228272 
L 135.656229 245.996018 
L 135.146057 245.193214 
L 134.635886 243.777065 
L 133.615543 242.340581 
L 133.105371 235.712227 
L 132.085029 232.668006 
L 130.044343 224.795713 
L 125.4528 203.699097 
L 123.412114 195.641463 
L 122.391771 191.070968 
L 120.861257 182.484617 
L 118.820571 171.359974 
L 117.800229 167.13489 
L 116.779886 163.549502 
L 115.759543 159.400289 
L 114.7392 154.388197 
L 113.208686 144.601512 
L 112.188343 137.291127 
L 111.168 129.014035 
L 110.147657 118.692593 
L 109.127314 105.393323 
L 107.5968 80.577328 
L 104.535771 28.412625 
L 103.515429 3.871536 
L 103.348668 -1 
L 103.348668 -1 
" clip-path="url(#p38aa9beffa)" style="fill: none; stroke: #721f8d; stroke-width: 0.5; stroke-linecap: square"/>
   </g>
   <g id="line2d_25">
    <path d="M 363.702857 308.584815 
L 363.192686 308.437664 
L 361.662171 308.458657 
L 346.8672 308.216796 
L 345.336686 308.084662 
L 326.460343 307.143483 
L 318.807771 307.085706 
L 315.746743 306.949259 
L 313.706057 306.771247 
L 311.665371 306.566223 
L 302.992457 305.391096 
L 298.400914 304.484802 
L 297.380571 304.221207 
L 295.850057 303.656399 
L 294.829714 303.370562 
L 291.768686 302.258709 
L 289.728 301.356173 
L 285.646629 298.990104 
L 281.055086 295.763655 
L 277.994057 293.406006 
L 273.402514 289.893165 
L 269.831314 287.67698 
L 263.199086 284.823864 
L 255.546514 281.995588 
L 250.4448 279.374544 
L 248.404114 278.092663 
L 246.8736 276.964731 
L 245.853257 276.123295 
L 242.792229 272.816087 
L 241.261714 270.726419 
L 239.7312 268.190448 
L 238.200686 265.236588 
L 236.16 260.537358 
L 234.119314 255.039183 
L 231.058286 245.689301 
L 222.385371 217.937439 
L 218.304 205.002152 
L 214.7328 193.044813 
L 211.1616 181.186813 
L 209.120914 175.151852 
L 207.5904 171.288398 
L 206.059886 168.096877 
L 205.039543 166.334623 
L 204.0192 164.829828 
L 202.488686 163.093482 
L 201.468343 162.196566 
L 200.448 161.479824 
L 198.917486 160.805327 
L 197.386971 160.415398 
L 195.856457 160.457774 
L 194.836114 160.705915 
L 193.3056 161.515817 
L 192.285257 162.416208 
L 191.264914 163.527109 
L 190.244571 165.011046 
L 188.714057 167.749417 
L 186.673371 172.170985 
L 184.632686 177.43546 
L 180.551314 189.060375 
L 176.469943 201.624298 
L 169.327543 225.196579 
L 166.266514 234.1964 
L 164.736 238.387296 
L 162.695314 243.64497 
L 160.144457 249.637482 
L 158.613943 252.83587 
L 156.063086 257.102993 
L 154.532571 258.865439 
L 153.512229 259.743938 
L 151.981714 260.466384 
L 150.961371 260.603622 
L 150.4512 260.364629 
L 149.941029 260.347281 
L 148.920686 259.876313 
L 147.900343 259.154059 
L 146.88 258.166035 
L 144.839314 255.89468 
L 144.329143 255.086572 
L 143.818971 254.513737 
L 143.3088 252.472219 
L 142.798629 252.977269 
L 140.757943 249.612355 
L 137.186743 241.768064 
L 136.676571 240.063355 
L 136.1664 239.195367 
L 135.146057 236.568985 
L 134.635886 234.805733 
L 134.125714 234.013689 
L 133.615543 232.722416 
L 133.105371 225.293433 
L 132.085029 220.981171 
L 131.064686 215.372778 
L 130.044343 208.386523 
L 129.024 200.117494 
L 125.962971 173.019748 
L 124.942629 167.052026 
L 123.922286 162.504002 
L 121.371429 151.741345 
L 119.330743 142.632463 
L 118.3104 139.18766 
L 116.269714 133.769764 
L 115.759543 131.910716 
L 115.249371 129.624636 
L 114.229029 123.823037 
L 113.208686 116.447513 
L 112.698514 111.780343 
L 112.188343 108.143008 
L 111.168 98.29293 
L 110.147657 86.118652 
L 109.127314 70.668165 
L 107.5968 41.787684 
L 105.457759 -1 
L 105.457759 -1 
" clip-path="url(#p38aa9beffa)" style="fill: none; stroke: #641f9b; stroke-width: 0.5; stroke-linecap: square"/>
   </g>
   <g id="line2d_26">
    <path d="M 363.702857 308.651579 
L 363.192686 308.455794 
L 345.336686 308.111438 
L 342.785829 307.897563 
L 341.255314 307.78398 
L 324.419657 307.098152 
L 321.8688 307.229817 
L 320.848457 307.091533 
L 316.767086 306.989156 
L 308.604343 306.135894 
L 299.421257 304.608732 
L 296.8704 303.904234 
L 291.768686 302.162457 
L 289.217829 300.956153 
L 287.177143 299.822744 
L 284.626286 298.166363 
L 280.034743 294.740672 
L 279.0144 293.902247 
L 275.4432 291.111581 
L 274.422857 290.299072 
L 270.341486 287.648158 
L 267.790629 286.287569 
L 263.199086 284.419742 
L 254.526171 281.056961 
L 250.954971 279.209588 
L 249.424457 278.313802 
L 247.383771 276.966565 
L 245.853257 275.806725 
L 244.322743 274.229549 
L 243.3024 273.212419 
L 241.771886 271.402823 
L 239.7312 268.420835 
L 237.690514 264.665639 
L 235.649829 260.183956 
L 233.098971 253.570416 
L 230.548114 246.19828 
L 223.405714 224.751085 
L 220.344686 215.684314 
L 217.283657 206.221205 
L 209.120914 180.505306 
L 207.5904 176.602568 
L 206.059886 173.374909 
L 204.529371 170.678439 
L 202.488686 168.053055 
L 200.958171 166.535135 
L 198.917486 165.167437 
L 197.897143 164.702033 
L 196.8768 164.361897 
L 195.856457 164.225157 
L 194.836114 164.222646 
L 193.815771 164.477038 
L 192.795429 165.002926 
L 191.775086 165.771839 
L 190.754743 166.837112 
L 189.7344 168.198439 
L 188.714057 169.878173 
L 187.183543 172.799718 
L 185.142857 177.349024 
L 183.102171 182.445923 
L 179.0208 193.57732 
L 175.4496 204.288466 
L 167.797029 228.412728 
L 165.756343 234.17959 
L 162.695314 242.15483 
L 159.634286 249.287422 
L 158.103771 252.391301 
L 156.573257 255.074249 
L 155.042743 257.089636 
L 154.0224 258.132322 
L 153.002057 258.95532 
L 151.981714 259.480131 
L 150.961371 259.65506 
L 150.4512 259.490762 
L 149.941029 259.516127 
L 148.920686 259.081756 
L 147.390171 258.024015 
L 144.839314 255.300514 
L 144.329143 254.539525 
L 143.818971 254.095521 
L 143.3088 252.030696 
L 142.798629 252.560649 
L 140.757943 249.395743 
L 139.7376 247.319213 
L 138.207086 244.180207 
L 135.146057 237.393833 
L 134.635886 235.966904 
L 134.125714 235.170848 
L 133.615543 233.772233 
L 133.105371 227.482853 
L 132.085029 223.644989 
L 131.064686 218.886456 
L 130.044343 212.947093 
L 129.024 206.143186 
L 125.962971 183.439713 
L 124.942629 178.278522 
L 123.412114 172.112598 
L 122.391771 167.895445 
L 120.861257 160.536787 
L 119.840914 155.565023 
L 118.820571 151.156277 
L 117.290057 145.928692 
L 116.269714 142.59151 
L 115.249371 137.758785 
L 114.229029 131.379946 
L 113.208686 123.687087 
L 112.698514 118.765881 
L 112.188343 115.063421 
L 111.168 104.845911 
L 110.147657 92.457688 
L 109.127314 77.064302 
L 107.5968 48.367498 
L 105.048685 -1 
L 105.048685 -1 
" clip-path="url(#p38aa9beffa)" style="fill: none; stroke: #561fa9; stroke-width: 0.5; stroke-linecap: square"/>
   </g>
   <g id="line2d_27">
    <path d="M 363.702857 308.441371 
L 363.192686 308.265041 
L 352.479086 308.248198 
L 343.296 307.884564 
L 337.173943 307.503604 
L 331.562057 307.318912 
L 329.521371 307.194405 
L 325.44 307.106153 
L 321.8688 307.26159 
L 320.848457 307.115641 
L 319.828114 307.126308 
L 318.2976 307.056291 
L 317.277257 306.998759 
L 312.175543 306.574678 
L 301.972114 305.049465 
L 298.911086 304.405564 
L 291.768686 302.08098 
L 289.728 301.156143 
L 284.116114 297.895635 
L 273.402514 290.399564 
L 270.341486 288.641061 
L 268.810971 287.857912 
L 266.770286 286.938091 
L 265.239771 286.327957 
L 261.1584 284.870264 
L 255.546514 282.834241 
L 248.914286 280.138632 
L 245.343086 278.257691 
L 243.3024 276.893747 
L 241.771886 275.755303 
L 239.7312 273.729253 
L 238.200686 271.804683 
L 236.670171 269.494428 
L 235.139657 266.745935 
L 233.609143 263.509777 
L 232.078629 259.882659 
L 230.037943 254.393565 
L 227.997257 248.429012 
L 214.222629 205.993555 
L 207.5904 184.69249 
L 205.549714 179.197005 
L 204.0192 175.786939 
L 202.488686 172.990277 
L 200.958171 170.731677 
L 199.427657 169.035738 
L 198.407314 168.133892 
L 196.8768 167.142151 
L 195.346286 166.477025 
L 193.815771 166.21761 
L 192.795429 166.324926 
L 191.775086 166.607843 
L 190.754743 167.153756 
L 190.244571 167.516416 
L 189.224229 168.574287 
L 188.203886 169.869763 
L 186.1632 173.207976 
L 184.632686 176.40563 
L 183.102171 179.948193 
L 180.551314 186.454651 
L 178.000457 193.309521 
L 174.429257 203.975481 
L 169.837714 218.754749 
L 167.797029 224.976644 
L 165.246171 232.332176 
L 162.185143 240.407225 
L 160.144457 245.435813 
L 158.103771 249.960858 
L 156.063086 253.687136 
L 154.532571 255.8308 
L 153.512229 256.99898 
L 152.491886 257.802062 
L 151.471543 258.338739 
L 150.961371 258.460463 
L 150.4512 258.394017 
L 149.941029 258.461243 
L 148.920686 258.160039 
L 147.390171 257.207731 
L 144.839314 254.63043 
L 144.329143 253.833307 
L 143.818971 253.37055 
L 143.3088 251.36474 
L 142.798629 251.997694 
L 140.757943 248.806364 
L 139.227429 245.924982 
L 138.717257 244.631165 
L 138.207086 243.779448 
L 135.146057 237.34707 
L 134.635886 235.922145 
L 134.125714 235.336419 
L 133.615543 234.213899 
L 133.105371 227.799299 
L 132.5952 226.345096 
L 131.064686 220.387255 
L 130.044343 215.192901 
L 128.513829 205.838092 
L 126.473143 191.898679 
L 125.4528 186.098573 
L 123.922286 179.483636 
L 122.901943 175.471202 
L 121.371429 168.337858 
L 119.330743 157.66125 
L 118.3104 153.188621 
L 115.759543 142.956995 
L 114.7392 136.831186 
L 113.718857 129.448433 
L 112.188343 116.236376 
L 111.168 105.905786 
L 110.147657 93.463634 
L 109.127314 77.789553 
L 107.5968 49.356155 
L 104.982765 -1 
L 104.982765 -1 
" clip-path="url(#p38aa9beffa)" style="fill: none; stroke: #481fb7; stroke-width: 0.5; stroke-linecap: square"/>
   </g>
   <g id="line2d_28">
    <path d="M 363.702857 308.561313 
L 363.192686 308.416374 
L 359.111314 308.444993 
L 358.090971 308.415873 
L 357.070629 308.41957 
L 342.785829 307.917624 
L 339.7248 307.671576 
L 335.133257 307.405885 
L 324.419657 306.940687 
L 321.8688 307.046315 
L 320.848457 306.847129 
L 318.2976 306.808897 
L 315.236571 306.636333 
L 307.073829 305.644912 
L 303.502629 305.024664 
L 301.461943 304.571358 
L 296.8704 303.195488 
L 295.339886 302.654299 
L 294.319543 302.254959 
L 292.278857 301.321984 
L 290.748343 300.5043 
L 289.217829 299.562181 
L 287.687314 298.442198 
L 286.1568 297.263203 
L 282.5856 293.937523 
L 277.994057 288.775721 
L 274.933029 285.236547 
L 270.851657 281.05941 
L 267.790629 278.678134 
L 265.239771 277.165818 
L 263.709257 276.378337 
L 259.117714 274.312144 
L 255.546514 272.447756 
L 251.975314 270.122505 
L 249.424457 268.364249 
L 246.363429 266.093948 
L 245.853257 265.719574 
L 244.832914 264.690313 
L 242.282057 262.416546 
L 239.7312 259.571599 
L 237.690514 256.691311 
L 235.649829 253.249035 
L 233.609143 249.19712 
L 230.548114 242.296338 
L 217.793829 211.6945 
L 213.712457 200.934526 
L 211.1616 194.13013 
L 208.610743 188.004533 
L 207.080229 184.834068 
L 205.549714 182.128663 
L 204.0192 179.928142 
L 202.488686 178.167382 
L 201.468343 177.146469 
L 199.427657 175.60329 
L 197.386971 174.52743 
L 195.856457 174.089229 
L 194.325943 173.963183 
L 193.3056 174.15791 
L 192.285257 174.564612 
L 191.264914 175.263087 
L 190.244571 176.140969 
L 189.224229 177.317972 
L 187.693714 179.56642 
L 185.653029 183.122941 
L 183.612343 187.358163 
L 181.571657 191.87613 
L 179.530971 196.622793 
L 177.490286 201.694015 
L 174.429257 209.971265 
L 168.817371 225.795555 
L 165.756343 233.64091 
L 163.205486 239.789049 
L 159.124114 248.463657 
L 157.083429 251.988138 
L 156.063086 253.518172 
L 154.532571 255.150342 
L 153.512229 256.071717 
L 151.471543 256.832931 
L 150.961371 256.803491 
L 150.4512 256.598104 
L 149.941029 256.561312 
L 148.920686 256.034783 
L 147.390171 254.768 
L 144.839314 251.509768 
L 144.329143 250.655645 
L 143.818971 250.035949 
L 143.3088 247.922786 
L 142.798629 248.367503 
L 140.757943 244.752592 
L 139.7376 242.56905 
L 139.227429 241.483892 
L 138.717257 240.089711 
L 137.696914 237.972246 
L 137.186743 236.799802 
L 136.676571 235.220168 
L 136.1664 234.338288 
L 135.146057 231.889462 
L 134.635886 230.200521 
L 134.125714 229.609958 
L 133.615543 228.485509 
L 133.105371 220.70929 
L 132.5952 219.025333 
L 131.574857 214.599826 
L 130.554514 209.231769 
L 129.024 198.959504 
L 127.493486 186.489058 
L 126.473143 178.578566 
L 125.4528 172.142877 
L 124.432457 167.421618 
L 120.861257 152.653798 
L 119.330743 145.531081 
L 116.269714 133.444636 
L 115.249371 127.787561 
L 114.229029 120.143912 
L 113.208686 110.853904 
L 112.698514 104.946959 
L 112.188343 100.364026 
L 111.168 88.427063 
L 110.147657 73.866248 
L 109.127314 56.455411 
L 107.5968 24.549399 
L 106.419049 -1 
L 106.419049 -1 
" clip-path="url(#p38aa9beffa)" style="fill: none; stroke: #3a1fc5; stroke-width: 0.5; stroke-linecap: square"/>
   </g>
   <g id="line2d_29">
    <path d="M 363.702857 308.643067 
L 363.192686 308.449132 
L 360.641829 308.498828 
L 358.601143 308.477021 
L 348.397714 308.304339 
L 346.8672 308.245706 
L 341.255314 307.804869 
L 335.133257 307.438996 
L 331.051886 307.236569 
L 329.521371 307.124398 
L 326.970514 307.03524 
L 325.44 306.967403 
L 320.338286 306.837909 
L 314.7264 306.419711 
L 311.1552 305.983946 
L 308.604343 305.588246 
L 307.073829 305.395765 
L 304.522971 304.937215 
L 299.421257 303.891437 
L 294.319543 302.463664 
L 292.278857 301.828218 
L 285.646629 299.002432 
L 279.524571 295.927904 
L 277.483886 294.843537 
L 271.361829 292.083388 
L 268.3008 290.993055 
L 265.749943 290.156907 
L 263.709257 289.499224 
L 252.995657 286.014457 
L 247.383771 283.772602 
L 245.853257 282.906784 
L 242.282057 279.970112 
L 240.241371 277.641699 
L 238.710857 275.484527 
L 237.180343 272.946847 
L 235.649829 270.028679 
L 233.609143 265.648569 
L 231.568457 260.730727 
L 228.507429 252.867733 
L 222.385371 236.332151 
L 218.814171 225.986658 
L 215.242971 214.712944 
L 210.141257 198.230183 
L 207.5904 190.988373 
L 205.549714 186.04853 
L 203.509029 181.984097 
L 201.978514 179.395102 
L 200.448 177.153883 
L 198.917486 175.190307 
L 197.386971 173.485605 
L 195.346286 171.784735 
L 194.325943 171.183386 
L 193.3056 170.872196 
L 192.285257 170.777992 
L 191.264914 170.943546 
L 190.244571 171.424269 
L 189.224229 172.227707 
L 188.203886 173.294553 
L 186.673371 175.276449 
L 185.142857 177.793842 
L 183.102171 181.664989 
L 180.551314 187.057639 
L 178.000457 193.152821 
L 175.4496 200.072855 
L 172.388571 209.401598 
L 168.3072 221.812378 
L 166.266514 227.637214 
L 159.634286 244.704418 
L 158.103771 248.096277 
L 156.063086 251.911677 
L 154.0224 254.731533 
L 152.491886 256.189487 
L 151.471543 256.78438 
L 150.961371 257.001524 
L 150.4512 256.986908 
L 149.941029 257.128541 
L 148.920686 257.00993 
L 147.390171 256.344319 
L 144.839314 254.342679 
L 144.329143 253.618696 
L 143.818971 253.305372 
L 143.3088 251.403164 
L 142.798629 252.02173 
L 142.288457 251.42878 
L 141.778286 250.515943 
L 141.268114 250.02877 
L 139.227429 246.593372 
L 138.717257 245.340881 
L 138.207086 244.563409 
L 134.635886 237.390668 
L 134.125714 237.076644 
L 133.615543 236.132137 
L 133.105371 230.991699 
L 132.085029 228.527976 
L 130.044343 222.632953 
L 122.901943 198.732696 
L 121.8816 194.124973 
L 120.351086 186.00491 
L 118.820571 177.858742 
L 115.759543 162.761095 
L 114.7392 156.297767 
L 113.718857 148.57526 
L 112.188343 135.312869 
L 111.168 125.201763 
L 110.147657 113.266333 
L 109.127314 98.239203 
L 107.086629 62.572639 
L 104.535771 19.985354 
L 103.598721 -1 
L 103.598721 -1 
" clip-path="url(#p38aa9beffa)" style="fill: none; stroke: #2c1fd3; stroke-width: 0.5; stroke-linecap: square"/>
   </g>
   <g id="line2d_30">
    <path d="M 363.702857 308.624164 
L 363.192686 308.438126 
L 360.641829 308.47945 
L 359.621486 308.47368 
L 355.540114 308.440309 
L 351.968914 308.369128 
L 347.887543 308.256343 
L 345.846857 308.145202 
L 343.296 308.007287 
L 342.275657 307.86741 
L 340.745143 307.768448 
L 334.623086 307.42238 
L 330.541714 307.215389 
L 328.501029 307.104003 
L 326.970514 307.058808 
L 325.44 307.008493 
L 321.8688 307.074919 
L 321.358629 306.929221 
L 314.7264 306.52732 
L 312.175543 306.184074 
L 311.1552 306.081263 
L 309.114514 305.751274 
L 307.584 305.587082 
L 297.890743 303.490661 
L 291.768686 301.115804 
L 289.217829 299.771247 
L 285.646629 297.465812 
L 282.5856 295.179146 
L 279.524571 292.654279 
L 275.4432 289.254485 
L 272.382171 286.938347 
L 269.831314 285.286091 
L 268.3008 284.350077 
L 263.199086 282.047805 
L 258.607543 280.251223 
L 254.526171 278.435569 
L 251.465143 276.949399 
L 249.934629 276.129953 
L 248.914286 275.639426 
L 247.383771 274.774686 
L 245.853257 273.865356 
L 243.3024 271.880337 
L 241.771886 270.56665 
L 240.241371 268.992775 
L 237.690514 265.74596 
L 235.649829 262.490342 
L 234.119314 259.731074 
L 232.078629 255.604887 
L 229.0176 248.825594 
L 218.814171 224.51804 
L 214.7328 213.420454 
L 210.141257 200.467257 
L 207.5904 194.052538 
L 206.059886 190.73468 
L 204.529371 187.818025 
L 201.978514 183.777689 
L 200.448 181.82548 
L 198.917486 180.058838 
L 196.8768 178.182118 
L 195.346286 177.126402 
L 194.325943 176.609991 
L 193.3056 176.259914 
L 192.285257 176.235566 
L 191.264914 176.383263 
L 189.7344 177.187958 
L 188.203886 178.609387 
L 186.673371 180.431134 
L 184.632686 183.613033 
L 182.592 187.287326 
L 180.041143 192.407791 
L 176.980114 199.383982 
L 174.429257 206.134337 
L 171.8784 213.410891 
L 167.797029 224.72038 
L 164.736 232.558068 
L 161.674971 239.966643 
L 159.124114 245.615575 
L 156.573257 250.263645 
L 155.552914 251.770958 
L 154.0224 253.550226 
L 153.002057 254.431799 
L 151.981714 254.981044 
L 150.961371 255.214994 
L 150.4512 255.121636 
L 149.941029 255.20362 
L 148.410514 254.500747 
L 147.900343 254.214483 
L 146.369829 252.715316 
L 144.839314 251.046496 
L 144.329143 250.159785 
L 143.818971 249.671508 
L 143.3088 247.589408 
L 142.798629 248.096183 
L 140.757943 244.721996 
L 137.186743 237.06854 
L 136.676571 235.428519 
L 136.1664 234.606913 
L 134.635886 230.688412 
L 134.125714 230.114001 
L 133.615543 228.931684 
L 133.105371 221.980039 
L 132.5952 220.358557 
L 131.064686 213.509946 
L 130.044343 207.837751 
L 129.024 201.082307 
L 125.962971 178.208051 
L 124.942629 173.092106 
L 123.922286 169.046746 
L 121.8816 161.415112 
L 118.3104 146.151699 
L 117.290057 142.635665 
L 116.269714 138.598064 
L 115.759543 136.199619 
L 114.7392 129.965727 
L 113.718857 121.973667 
L 113.208686 117.463922 
L 112.698514 111.871589 
L 112.188343 107.573001 
L 111.168 96.199584 
L 110.147657 82.471604 
L 109.127314 65.653565 
L 107.5968 35.267192 
L 105.806542 -1 
L 105.806542 -1 
" clip-path="url(#p38aa9beffa)" style="fill: none; stroke: #1f1fe0; stroke-width: 0.5; stroke-linecap: square"/>
   </g>
   <g id="patch_3">
    <path d="M 57.6 307.584 
L 57.6 41.472 
" style="fill: none; stroke: #000000; stroke-width: 0.8; stroke-linejoin: miter; stroke-linecap: square"/>
   </g>
   <g id="patch_4">
    <path d="M 414.72 307.584 
L 414.72 41.472 
" style="fill: none; stroke: #000000; stroke-width: 0.8; stroke-linejoin: miter; stroke-linecap: square"/>
   </g>
   <g id="patch_5">
    <path d="M 57.6 307.584 
L 414.72 307.584 
" style="fill: none; stroke: #000000; stroke-width: 0.8; stroke-linejoin: miter; stroke-linecap: square"/>
   </g>
   <g id="patch_6">
    <path d="M 57.6 41.472 
L 414.72 41.472 
" style="fill: none; stroke: #000000; stroke-width: 0.8; stroke-linejoin: miter; stroke-linecap: square"/>
   </g>
   <g id="text_18">
    <!-- IDA Titration of Alizarin:PBA complex &amp; Hydrobenzoin in DMF  -->
    <g transform="translate(51.339375 22.034625) scale(0.12 -0.12)">
     <defs>
      <path id="DejaVuSans-49" d="M 628 4666 
L 1259 4666 
L 1259 0 
L 628 0 
L 628 4666 
z
" transform="scale(0.015625)"/>
      <path id="DejaVuSans-44" d="M 1259 4147 
L 1259 519 
L 2022 519 
Q 2988 519 3436 956 
Q 3884 1394 3884 2338 
Q 3884 3275 3436 3711 
Q 2988 4147 2022 4147 
L 1259 4147 
z
M 628 4666 
L 1925 4666 
Q 3281 4666 3915 4102 
Q 4550 3538 4550 2338 
Q 4550 1131 3912 565 
Q 3275 0 1925 0 
L 628 0 
L 628 4666 
z
" transform="scale(0.015625)"/>
      <path id="DejaVuSans-54" d="M -19 4666 
L 3928 4666 
L 3928 4134 
L 2272 4134 
L 2272 0 
L 1638 0 
L 1638 4134 
L -19 4134 
L -19 4666 
z
" transform="scale(0.015625)"/>
      <path id="DejaVuSans-69" d="M 603 3500 
L 1178 3500 
L 1178 0 
L 603 0 
L 603 3500 
z
M 603 4863 
L 1178 4863 
L 1178 4134 
L 603 4134 
L 603 4863 
z
" transform="scale(0.015625)"/>
      <path id="DejaVuSans-66" d="M 2375 4863 
L 2375 4384 
L 1825 4384 
Q 1516 4384 1395 4259 
Q 1275 4134 1275 3809 
L 1275 3500 
L 2222 3500 
L 2222 3053 
L 1275 3053 
L 1275 0 
L 697 0 
L 697 3053 
L 147 3053 
L 147 3500 
L 697 3500 
L 697 3744 
Q 697 4328 969 4595 
Q 1241 4863 1831 4863 
L 2375 4863 
z
" transform="scale(0.015625)"/>
      <path id="DejaVuSans-7a" d="M 353 3500 
L 3084 3500 
L 3084 2975 
L 922 459 
L 3084 459 
L 3084 0 
L 275 0 
L 275 525 
L 2438 3041 
L 353 3041 
L 353 3500 
z
" transform="scale(0.015625)"/>
      <path id="DejaVuSans-3a" d="M 750 794 
L 1409 794 
L 1409 0 
L 750 0 
L 750 794 
z
M 750 3309 
L 1409 3309 
L 1409 2516 
L 750 2516 
L 750 3309 
z
" transform="scale(0.015625)"/>
      <path id="DejaVuSans-50" d="M 1259 4147 
L 1259 2394 
L 2053 2394 
Q 2494 2394 2734 2622 
Q 2975 2850 2975 3272 
Q 2975 3691 2734 3919 
Q 2494 4147 2053 4147 
L 1259 4147 
z
M 628 4666 
L 2053 4666 
Q 2838 4666 3239 4311 
Q 3641 3956 3641 3272 
Q 3641 2581 3239 2228 
Q 2838 1875 2053 1875 
L 1259 1875 
L 1259 0 
L 628 0 
L 628 4666 
z
" transform="scale(0.015625)"/>
      <path id="DejaVuSans-42" d="M 1259 2228 
L 1259 519 
L 2272 519 
Q 2781 519 3026 730 
Q 3272 941 3272 1375 
Q 3272 1813 3026 2020 
Q 2781 2228 2272 2228 
L 1259 2228 
z
M 1259 4147 
L 1259 2741 
L 2194 2741 
Q 2656 2741 2882 2914 
Q 3109 3088 3109 3444 
Q 3109 3797 2882 3972 
Q 2656 4147 2194 4147 
L 1259 4147 
z
M 628 4666 
L 2241 4666 
Q 2963 4666 3353 4366 
Q 3744 4066 3744 3513 
Q 3744 3084 3544 2831 
Q 3344 2578 2956 2516 
Q 3422 2416 3680 2098 
Q 3938 1781 3938 1306 
Q 3938 681 3513 340 
Q 3088 0 2303 0 
L 628 0 
L 628 4666 
z
" transform="scale(0.015625)"/>
      <path id="DejaVuSans-70" d="M 1159 525 
L 1159 -1331 
L 581 -1331 
L 581 3500 
L 1159 3500 
L 1159 2969 
Q 1341 3281 1617 3432 
Q 1894 3584 2278 3584 
Q 2916 3584 3314 3078 
Q 3713 2572 3713 1747 
Q 3713 922 3314 415 
Q 2916 -91 2278 -91 
Q 1894 -91 1617 61 
Q 1341 213 1159 525 
z
M 3116 1747 
Q 3116 2381 2855 2742 
Q 2594 3103 2138 3103 
Q 1681 3103 1420 2742 
Q 1159 2381 1159 1747 
Q 1159 1113 1420 752 
Q 1681 391 2138 391 
Q 2594 391 2855 752 
Q 3116 1113 3116 1747 
z
" transform="scale(0.015625)"/>
      <path id="DejaVuSans-78" d="M 3513 3500 
L 2247 1797 
L 3578 0 
L 2900 0 
L 1881 1375 
L 863 0 
L 184 0 
L 1544 1831 
L 300 3500 
L 978 3500 
L 1906 2253 
L 2834 3500 
L 3513 3500 
z
" transform="scale(0.015625)"/>
      <path id="DejaVuSans-26" d="M 1556 2509 
Q 1272 2256 1139 2004 
Q 1006 1753 1006 1478 
Q 1006 1022 1337 719 
Q 1669 416 2169 416 
Q 2466 416 2725 514 
Q 2984 613 3213 813 
L 1556 2509 
z
M 1997 2859 
L 3584 1234 
Q 3769 1513 3872 1830 
Q 3975 2147 3994 2503 
L 4575 2503 
Q 4538 2091 4375 1687 
Q 4213 1284 3922 891 
L 4794 0 
L 4006 0 
L 3559 459 
Q 3234 181 2878 45 
Q 2522 -91 2113 -91 
Q 1359 -91 881 339 
Q 403 769 403 1441 
Q 403 1841 612 2192 
Q 822 2544 1241 2853 
Q 1091 3050 1012 3245 
Q 934 3441 934 3628 
Q 934 4134 1281 4442 
Q 1628 4750 2203 4750 
Q 2463 4750 2720 4694 
Q 2978 4638 3244 4525 
L 3244 3956 
Q 2972 4103 2725 4179 
Q 2478 4256 2266 4256 
Q 1938 4256 1733 4082 
Q 1528 3909 1528 3634 
Q 1528 3475 1620 3314 
Q 1713 3153 1997 2859 
z
" transform="scale(0.015625)"/>
      <path id="DejaVuSans-48" d="M 628 4666 
L 1259 4666 
L 1259 2753 
L 3553 2753 
L 3553 4666 
L 4184 4666 
L 4184 0 
L 3553 0 
L 3553 2222 
L 1259 2222 
L 1259 0 
L 628 0 
L 628 4666 
z
" transform="scale(0.015625)"/>
      <path id="DejaVuSans-79" d="M 2059 -325 
Q 1816 -950 1584 -1140 
Q 1353 -1331 966 -1331 
L 506 -1331 
L 506 -850 
L 844 -850 
Q 1081 -850 1212 -737 
Q 1344 -625 1503 -206 
L 1606 56 
L 191 3500 
L 800 3500 
L 1894 763 
L 2988 3500 
L 3597 3500 
L 2059 -325 
z
" transform="scale(0.015625)"/>
      <path id="DejaVuSans-64" d="M 2906 2969 
L 2906 4863 
L 3481 4863 
L 3481 0 
L 2906 0 
L 2906 525 
Q 2725 213 2448 61 
Q 2172 -91 1784 -91 
Q 1150 -91 751 415 
Q 353 922 353 1747 
Q 353 2572 751 3078 
Q 1150 3584 1784 3584 
Q 2172 3584 2448 3432 
Q 2725 3281 2906 2969 
z
M 947 1747 
Q 947 1113 1208 752 
Q 1469 391 1925 391 
Q 2381 391 2643 752 
Q 2906 1113 2906 1747 
Q 2906 2381 2643 2742 
Q 2381 3103 1925 3103 
Q 1469 3103 1208 2742 
Q 947 2381 947 1747 
z
" transform="scale(0.015625)"/>
      <path id="DejaVuSans-4d" d="M 628 4666 
L 1569 4666 
L 2759 1491 
L 3956 4666 
L 4897 4666 
L 4897 0 
L 4281 0 
L 4281 4097 
L 3078 897 
L 2444 897 
L 1241 4097 
L 1241 0 
L 628 0 
L 628 4666 
z
" transform="scale(0.015625)"/>
      <path id="DejaVuSans-46" d="M 628 4666 
L 3309 4666 
L 3309 4134 
L 1259 4134 
L 1259 2759 
L 3109 2759 
L 3109 2228 
L 1259 2228 
L 1259 0 
L 628 0 
L 628 4666 
z
" transform="scale(0.015625)"/>
     </defs>
     <use xlink:href="#DejaVuSans-49"/>
     <use xlink:href="#DejaVuSans-44" x="29.492188"/>
     <use xlink:href="#DejaVuSans-41" x="104.744141"/>
     <use xlink:href="#DejaVuSans-20" x="173.152344"/>
     <use xlink:href="#DejaVuSans-54" x="204.939453"/>
     <use xlink:href="#DejaVuSans-69" x="262.898438"/>
     <use xlink:href="#DejaVuSans-74" x="290.681641"/>
     <use xlink:href="#DejaVuSans-72" x="329.890625"/>
     <use xlink:href="#DejaVuSans-61" x="371.003906"/>
     <use xlink:href="#DejaVuSans-74" x="432.283203"/>
     <use xlink:href="#DejaVuSans-69" x="471.492188"/>
     <use xlink:href="#DejaVuSans-6f" x="499.275391"/>
     <use xlink:href="#DejaVuSans-6e" x="560.457031"/>
     <use xlink:href="#DejaVuSans-20" x="623.835938"/>
     <use xlink:href="#DejaVuSans-6f" x="655.623047"/>
     <use xlink:href="#DejaVuSans-66" x="716.804688"/>
     <use xlink:href="#DejaVuSans-20" x="752.009766"/>
     <use xlink:href="#DejaVuSans-41" x="783.796875"/>
     <use xlink:href="#DejaVuSans-6c" x="852.205078"/>
     <use xlink:href="#DejaVuSans-69" x="879.988281"/>
     <use xlink:href="#DejaVuSans-7a" x="907.771484"/>
     <use xlink:href="#DejaVuSans-61" x="960.261719"/>
     <use xlink:href="#DejaVuSans-72" x="1021.541016"/>
     <use xlink:href="#DejaVuSans-69" x="1062.654297"/>
     <use xlink:href="#DejaVuSans-6e" x="1090.4375"/>
     <use xlink:href="#DejaVuSans-3a" x="1153.816406"/>
     <use xlink:href="#DejaVuSans-50" x="1187.507812"/>
     <use xlink:href="#DejaVuSans-42" x="1247.810547"/>
     <use xlink:href="#DejaVuSans-41" x="1316.414062"/>
     <use xlink:href="#DejaVuSans-20" x="1384.822266"/>
     <use xlink:href="#DejaVuSans-63" x="1416.609375"/>
     <use xlink:href="#DejaVuSans-6f" x="1471.589844"/>
     <use xlink:href="#DejaVuSans-6d" x="1532.771484"/>
     <use xlink:href="#DejaVuSans-70" x="1630.183594"/>
     <use xlink:href="#DejaVuSans-6c" x="1693.660156"/>
     <use xlink:href="#DejaVuSans-65" x="1721.443359"/>
     <use xlink:href="#DejaVuSans-78" x="1781.216797"/>
     <use xlink:href="#DejaVuSans-20" x="1840.396484"/>
     <use xlink:href="#DejaVuSans-26" x="1872.183594"/>
     <use xlink:href="#DejaVuSans-20" x="1950.162109"/>
     <use xlink:href="#DejaVuSans-48" x="1981.949219"/>
     <use xlink:href="#DejaVuSans-79" x="2057.144531"/>
     <use xlink:href="#DejaVuSans-64" x="2116.324219"/>
     <use xlink:href="#DejaVuSans-72" x="2179.800781"/>
     <use xlink:href="#DejaVuSans-6f" x="2218.664062"/>
     <use xlink:href="#DejaVuSans-62" x="2279.845703"/>
     <use xlink:href="#DejaVuSans-65" x="2343.322266"/>
     <use xlink:href="#DejaVuSans-6e" x="2404.845703"/>
     <use xlink:href="#DejaVuSans-7a" x="2468.224609"/>
     <use xlink:href="#DejaVuSans-6f" x="2520.714844"/>
     <use xlink:href="#DejaVuSans-69" x="2581.896484"/>
     <use xlink:href="#DejaVuSans-6e" x="2609.679688"/>
     <use xlink:href="#DejaVuSans-20" x="2673.058594"/>
     <use xlink:href="#DejaVuSans-69" x="2704.845703"/>
     <use xlink:href="#DejaVuSans-6e" x="2732.628906"/>
     <use xlink:href="#DejaVuSans-20" x="2796.007812"/>
     <use xlink:href="#DejaVuSans-44" x="2827.794922"/>
     <use xlink:href="#DejaVuSans-4d" x="2904.796875"/>
     <use xlink:href="#DejaVuSans-46" x="2991.076172"/>
     <use xlink:href="#DejaVuSans-20" x="3048.595703"/>
    </g>
    <!--  -->
    <g transform="translate(236.16 35.472) scale(0.12 -0.12)"/>
   </g>
  </g>
 </g>
 <defs>
  <clipPath id="p38aa9beffa">
   <rect x="57.6" y="41.472" width="357.12" height="266.112"/>
  </clipPath>
 </defs>
</svg>
