<?xml version="1.0" encoding="utf-8" standalone="no"?>
<!DOCTYPE svg PUBLIC "-//W3C//DTD SVG 1.1//EN"
  "http://www.w3.org/Graphics/SVG/1.1/DTD/svg11.dtd">
<svg xmlns:xlink="http://www.w3.org/1999/xlink" width="460.8pt" height="345.6pt" viewBox="0 0 460.8 345.6" xmlns="http://www.w3.org/2000/svg" version="1.1">
 <metadata>
  <rdf:RDF xmlns:dc="http://purl.org/dc/elements/1.1/" xmlns:cc="http://creativecommons.org/ns#" xmlns:rdf="http://www.w3.org/1999/02/22-rdf-syntax-ns#">
   <cc:Work>
    <dc:type rdf:resource="http://purl.org/dc/dcmitype/StillImage"/>
    <dc:date>2024-11-03T21:07:32.572787</dc:date>
    <dc:format>image/svg+xml</dc:format>
    <dc:creator>
     <cc:Agent>
      <dc:title>Matplotlib v3.9.2, https://matplotlib.org/</dc:title>
     </cc:Agent>
    </dc:creator>
   </cc:Work>
  </rdf:RDF>
 </metadata>
 <defs>
  <style type="text/css">*{stroke-linejoin: round; stroke-linecap: butt}</style>
 </defs>
 <g id="figure_1">
  <g id="patch_1">
   <path d="M 0 345.6 
L 460.8 345.6 
L 460.8 0 
L 0 0 
z
" style="fill: #ffffff"/>
  </g>
  <g id="axes_1">
   <g id="patch_2">
    <path d="M 57.6 307.584 
L 414.72 307.584 
L 414.72 41.472 
L 57.6 41.472 
z
" style="fill: #ffffff"/>
   </g>
   <g id="matplotlib.axis_1">
    <g id="xtick_1">
     <g id="line2d_1">
      <defs>
       <path id="m4159f8b016" d="M 0 0 
L 0 3.5 
" style="stroke: #000000; stroke-width: 0.8"/>
      </defs>
      <g>
       <use xlink:href="#m4159f8b016" x="57.6" y="307.584" style="stroke: #000000; stroke-width: 0.8"/>
      </g>
     </g>
     <g id="text_1">
      <!-- 200 -->
      <g transform="translate(48.05625 322.182437) scale(0.1 -0.1)">
       <defs>
        <path id="DejaVuSans-32" d="M 1228 531 
L 3431 531 
L 3431 0 
L 469 0 
L 469 531 
Q 828 903 1448 1529 
Q 2069 2156 2228 2338 
Q 2531 2678 2651 2914 
Q 2772 3150 2772 3378 
Q 2772 3750 2511 3984 
Q 2250 4219 1831 4219 
Q 1534 4219 1204 4116 
Q 875 4013 500 3803 
L 500 4441 
Q 881 4594 1212 4672 
Q 1544 4750 1819 4750 
Q 2544 4750 2975 4387 
Q 3406 4025 3406 3419 
Q 3406 3131 3298 2873 
Q 3191 2616 2906 2266 
Q 2828 2175 2409 1742 
Q 1991 1309 1228 531 
z
" transform="scale(0.015625)"/>
        <path id="DejaVuSans-30" d="M 2034 4250 
Q 1547 4250 1301 3770 
Q 1056 3291 1056 2328 
Q 1056 1369 1301 889 
Q 1547 409 2034 409 
Q 2525 409 2770 889 
Q 3016 1369 3016 2328 
Q 3016 3291 2770 3770 
Q 2525 4250 2034 4250 
z
M 2034 4750 
Q 2819 4750 3233 4129 
Q 3647 3509 3647 2328 
Q 3647 1150 3233 529 
Q 2819 -91 2034 -91 
Q 1250 -91 836 529 
Q 422 1150 422 2328 
Q 422 3509 836 4129 
Q 1250 4750 2034 4750 
z
" transform="scale(0.015625)"/>
       </defs>
       <use xlink:href="#DejaVuSans-32"/>
       <use xlink:href="#DejaVuSans-30" x="63.623047"/>
       <use xlink:href="#DejaVuSans-30" x="127.246094"/>
      </g>
     </g>
    </g>
    <g id="xtick_2">
     <g id="line2d_2">
      <g>
       <use xlink:href="#m4159f8b016" x="108.617143" y="307.584" style="stroke: #000000; stroke-width: 0.8"/>
      </g>
     </g>
     <g id="text_2">
      <!-- 300 -->
      <g transform="translate(99.073393 322.182437) scale(0.1 -0.1)">
       <defs>
        <path id="DejaVuSans-33" d="M 2597 2516 
Q 3050 2419 3304 2112 
Q 3559 1806 3559 1356 
Q 3559 666 3084 287 
Q 2609 -91 1734 -91 
Q 1441 -91 1130 -33 
Q 819 25 488 141 
L 488 750 
Q 750 597 1062 519 
Q 1375 441 1716 441 
Q 2309 441 2620 675 
Q 2931 909 2931 1356 
Q 2931 1769 2642 2001 
Q 2353 2234 1838 2234 
L 1294 2234 
L 1294 2753 
L 1863 2753 
Q 2328 2753 2575 2939 
Q 2822 3125 2822 3475 
Q 2822 3834 2567 4026 
Q 2313 4219 1838 4219 
Q 1578 4219 1281 4162 
Q 984 4106 628 3988 
L 628 4550 
Q 988 4650 1302 4700 
Q 1616 4750 1894 4750 
Q 2613 4750 3031 4423 
Q 3450 4097 3450 3541 
Q 3450 3153 3228 2886 
Q 3006 2619 2597 2516 
z
" transform="scale(0.015625)"/>
       </defs>
       <use xlink:href="#DejaVuSans-33"/>
       <use xlink:href="#DejaVuSans-30" x="63.623047"/>
       <use xlink:href="#DejaVuSans-30" x="127.246094"/>
      </g>
     </g>
    </g>
    <g id="xtick_3">
     <g id="line2d_3">
      <g>
       <use xlink:href="#m4159f8b016" x="159.634286" y="307.584" style="stroke: #000000; stroke-width: 0.8"/>
      </g>
     </g>
     <g id="text_3">
      <!-- 400 -->
      <g transform="translate(150.090536 322.182437) scale(0.1 -0.1)">
       <defs>
        <path id="DejaVuSans-34" d="M 2419 4116 
L 825 1625 
L 2419 1625 
L 2419 4116 
z
M 2253 4666 
L 3047 4666 
L 3047 1625 
L 3713 1625 
L 3713 1100 
L 3047 1100 
L 3047 0 
L 2419 0 
L 2419 1100 
L 313 1100 
L 313 1709 
L 2253 4666 
z
" transform="scale(0.015625)"/>
       </defs>
       <use xlink:href="#DejaVuSans-34"/>
       <use xlink:href="#DejaVuSans-30" x="63.623047"/>
       <use xlink:href="#DejaVuSans-30" x="127.246094"/>
      </g>
     </g>
    </g>
    <g id="xtick_4">
     <g id="line2d_4">
      <g>
       <use xlink:href="#m4159f8b016" x="210.651429" y="307.584" style="stroke: #000000; stroke-width: 0.8"/>
      </g>
     </g>
     <g id="text_4">
      <!-- 500 -->
      <g transform="translate(201.107679 322.182437) scale(0.1 -0.1)">
       <defs>
        <path id="DejaVuSans-35" d="M 691 4666 
L 3169 4666 
L 3169 4134 
L 1269 4134 
L 1269 2991 
Q 1406 3038 1543 3061 
Q 1681 3084 1819 3084 
Q 2600 3084 3056 2656 
Q 3513 2228 3513 1497 
Q 3513 744 3044 326 
Q 2575 -91 1722 -91 
Q 1428 -91 1123 -41 
Q 819 9 494 109 
L 494 744 
Q 775 591 1075 516 
Q 1375 441 1709 441 
Q 2250 441 2565 725 
Q 2881 1009 2881 1497 
Q 2881 1984 2565 2268 
Q 2250 2553 1709 2553 
Q 1456 2553 1204 2497 
Q 953 2441 691 2322 
L 691 4666 
z
" transform="scale(0.015625)"/>
       </defs>
       <use xlink:href="#DejaVuSans-35"/>
       <use xlink:href="#DejaVuSans-30" x="63.623047"/>
       <use xlink:href="#DejaVuSans-30" x="127.246094"/>
      </g>
     </g>
    </g>
    <g id="xtick_5">
     <g id="line2d_5">
      <g>
       <use xlink:href="#m4159f8b016" x="261.668571" y="307.584" style="stroke: #000000; stroke-width: 0.8"/>
      </g>
     </g>
     <g id="text_5">
      <!-- 600 -->
      <g transform="translate(252.124821 322.182437) scale(0.1 -0.1)">
       <defs>
        <path id="DejaVuSans-36" d="M 2113 2584 
Q 1688 2584 1439 2293 
Q 1191 2003 1191 1497 
Q 1191 994 1439 701 
Q 1688 409 2113 409 
Q 2538 409 2786 701 
Q 3034 994 3034 1497 
Q 3034 2003 2786 2293 
Q 2538 2584 2113 2584 
z
M 3366 4563 
L 3366 3988 
Q 3128 4100 2886 4159 
Q 2644 4219 2406 4219 
Q 1781 4219 1451 3797 
Q 1122 3375 1075 2522 
Q 1259 2794 1537 2939 
Q 1816 3084 2150 3084 
Q 2853 3084 3261 2657 
Q 3669 2231 3669 1497 
Q 3669 778 3244 343 
Q 2819 -91 2113 -91 
Q 1303 -91 875 529 
Q 447 1150 447 2328 
Q 447 3434 972 4092 
Q 1497 4750 2381 4750 
Q 2619 4750 2861 4703 
Q 3103 4656 3366 4563 
z
" transform="scale(0.015625)"/>
       </defs>
       <use xlink:href="#DejaVuSans-36"/>
       <use xlink:href="#DejaVuSans-30" x="63.623047"/>
       <use xlink:href="#DejaVuSans-30" x="127.246094"/>
      </g>
     </g>
    </g>
    <g id="xtick_6">
     <g id="line2d_6">
      <g>
       <use xlink:href="#m4159f8b016" x="312.685714" y="307.584" style="stroke: #000000; stroke-width: 0.8"/>
      </g>
     </g>
     <g id="text_6">
      <!-- 700 -->
      <g transform="translate(303.141964 322.182437) scale(0.1 -0.1)">
       <defs>
        <path id="DejaVuSans-37" d="M 525 4666 
L 3525 4666 
L 3525 4397 
L 1831 0 
L 1172 0 
L 2766 4134 
L 525 4134 
L 525 4666 
z
" transform="scale(0.015625)"/>
       </defs>
       <use xlink:href="#DejaVuSans-37"/>
       <use xlink:href="#DejaVuSans-30" x="63.623047"/>
       <use xlink:href="#DejaVuSans-30" x="127.246094"/>
      </g>
     </g>
    </g>
    <g id="xtick_7">
     <g id="line2d_7">
      <g>
       <use xlink:href="#m4159f8b016" x="363.702857" y="307.584" style="stroke: #000000; stroke-width: 0.8"/>
      </g>
     </g>
     <g id="text_7">
      <!-- 800 -->
      <g transform="translate(354.159107 322.182437) scale(0.1 -0.1)">
       <defs>
        <path id="DejaVuSans-38" d="M 2034 2216 
Q 1584 2216 1326 1975 
Q 1069 1734 1069 1313 
Q 1069 891 1326 650 
Q 1584 409 2034 409 
Q 2484 409 2743 651 
Q 3003 894 3003 1313 
Q 3003 1734 2745 1975 
Q 2488 2216 2034 2216 
z
M 1403 2484 
Q 997 2584 770 2862 
Q 544 3141 544 3541 
Q 544 4100 942 4425 
Q 1341 4750 2034 4750 
Q 2731 4750 3128 4425 
Q 3525 4100 3525 3541 
Q 3525 3141 3298 2862 
Q 3072 2584 2669 2484 
Q 3125 2378 3379 2068 
Q 3634 1759 3634 1313 
Q 3634 634 3220 271 
Q 2806 -91 2034 -91 
Q 1263 -91 848 271 
Q 434 634 434 1313 
Q 434 1759 690 2068 
Q 947 2378 1403 2484 
z
M 1172 3481 
Q 1172 3119 1398 2916 
Q 1625 2713 2034 2713 
Q 2441 2713 2670 2916 
Q 2900 3119 2900 3481 
Q 2900 3844 2670 4047 
Q 2441 4250 2034 4250 
Q 1625 4250 1398 4047 
Q 1172 3844 1172 3481 
z
" transform="scale(0.015625)"/>
       </defs>
       <use xlink:href="#DejaVuSans-38"/>
       <use xlink:href="#DejaVuSans-30" x="63.623047"/>
       <use xlink:href="#DejaVuSans-30" x="127.246094"/>
      </g>
     </g>
    </g>
    <g id="xtick_8">
     <g id="line2d_8">
      <g>
       <use xlink:href="#m4159f8b016" x="414.72" y="307.584" style="stroke: #000000; stroke-width: 0.8"/>
      </g>
     </g>
     <g id="text_8">
      <!-- 900 -->
      <g transform="translate(405.17625 322.182437) scale(0.1 -0.1)">
       <defs>
        <path id="DejaVuSans-39" d="M 703 97 
L 703 672 
Q 941 559 1184 500 
Q 1428 441 1663 441 
Q 2288 441 2617 861 
Q 2947 1281 2994 2138 
Q 2813 1869 2534 1725 
Q 2256 1581 1919 1581 
Q 1219 1581 811 2004 
Q 403 2428 403 3163 
Q 403 3881 828 4315 
Q 1253 4750 1959 4750 
Q 2769 4750 3195 4129 
Q 3622 3509 3622 2328 
Q 3622 1225 3098 567 
Q 2575 -91 1691 -91 
Q 1453 -91 1209 -44 
Q 966 3 703 97 
z
M 1959 2075 
Q 2384 2075 2632 2365 
Q 2881 2656 2881 3163 
Q 2881 3666 2632 3958 
Q 2384 4250 1959 4250 
Q 1534 4250 1286 3958 
Q 1038 3666 1038 3163 
Q 1038 2656 1286 2365 
Q 1534 2075 1959 2075 
z
" transform="scale(0.015625)"/>
       </defs>
       <use xlink:href="#DejaVuSans-39"/>
       <use xlink:href="#DejaVuSans-30" x="63.623047"/>
       <use xlink:href="#DejaVuSans-30" x="127.246094"/>
      </g>
     </g>
    </g>
    <g id="text_9">
     <!-- Wavelength (nm) -->
     <g transform="translate(192.967812 335.860562) scale(0.1 -0.1)">
      <defs>
       <path id="DejaVuSans-57" d="M 213 4666 
L 850 4666 
L 1831 722 
L 2809 4666 
L 3519 4666 
L 4500 722 
L 5478 4666 
L 6119 4666 
L 4947 0 
L 4153 0 
L 3169 4050 
L 2175 0 
L 1381 0 
L 213 4666 
z
" transform="scale(0.015625)"/>
       <path id="DejaVuSans-61" d="M 2194 1759 
Q 1497 1759 1228 1600 
Q 959 1441 959 1056 
Q 959 750 1161 570 
Q 1363 391 1709 391 
Q 2188 391 2477 730 
Q 2766 1069 2766 1631 
L 2766 1759 
L 2194 1759 
z
M 3341 1997 
L 3341 0 
L 2766 0 
L 2766 531 
Q 2569 213 2275 61 
Q 1981 -91 1556 -91 
Q 1019 -91 701 211 
Q 384 513 384 1019 
Q 384 1609 779 1909 
Q 1175 2209 1959 2209 
L 2766 2209 
L 2766 2266 
Q 2766 2663 2505 2880 
Q 2244 3097 1772 3097 
Q 1472 3097 1187 3025 
Q 903 2953 641 2809 
L 641 3341 
Q 956 3463 1253 3523 
Q 1550 3584 1831 3584 
Q 2591 3584 2966 3190 
Q 3341 2797 3341 1997 
z
" transform="scale(0.015625)"/>
       <path id="DejaVuSans-76" d="M 191 3500 
L 800 3500 
L 1894 563 
L 2988 3500 
L 3597 3500 
L 2284 0 
L 1503 0 
L 191 3500 
z
" transform="scale(0.015625)"/>
       <path id="DejaVuSans-65" d="M 3597 1894 
L 3597 1613 
L 953 1613 
Q 991 1019 1311 708 
Q 1631 397 2203 397 
Q 2534 397 2845 478 
Q 3156 559 3463 722 
L 3463 178 
Q 3153 47 2828 -22 
Q 2503 -91 2169 -91 
Q 1331 -91 842 396 
Q 353 884 353 1716 
Q 353 2575 817 3079 
Q 1281 3584 2069 3584 
Q 2775 3584 3186 3129 
Q 3597 2675 3597 1894 
z
M 3022 2063 
Q 3016 2534 2758 2815 
Q 2500 3097 2075 3097 
Q 1594 3097 1305 2825 
Q 1016 2553 972 2059 
L 3022 2063 
z
" transform="scale(0.015625)"/>
       <path id="DejaVuSans-6c" d="M 603 4863 
L 1178 4863 
L 1178 0 
L 603 0 
L 603 4863 
z
" transform="scale(0.015625)"/>
       <path id="DejaVuSans-6e" d="M 3513 2113 
L 3513 0 
L 2938 0 
L 2938 2094 
Q 2938 2591 2744 2837 
Q 2550 3084 2163 3084 
Q 1697 3084 1428 2787 
Q 1159 2491 1159 1978 
L 1159 0 
L 581 0 
L 581 3500 
L 1159 3500 
L 1159 2956 
Q 1366 3272 1645 3428 
Q 1925 3584 2291 3584 
Q 2894 3584 3203 3211 
Q 3513 2838 3513 2113 
z
" transform="scale(0.015625)"/>
       <path id="DejaVuSans-67" d="M 2906 1791 
Q 2906 2416 2648 2759 
Q 2391 3103 1925 3103 
Q 1463 3103 1205 2759 
Q 947 2416 947 1791 
Q 947 1169 1205 825 
Q 1463 481 1925 481 
Q 2391 481 2648 825 
Q 2906 1169 2906 1791 
z
M 3481 434 
Q 3481 -459 3084 -895 
Q 2688 -1331 1869 -1331 
Q 1566 -1331 1297 -1286 
Q 1028 -1241 775 -1147 
L 775 -588 
Q 1028 -725 1275 -790 
Q 1522 -856 1778 -856 
Q 2344 -856 2625 -561 
Q 2906 -266 2906 331 
L 2906 616 
Q 2728 306 2450 153 
Q 2172 0 1784 0 
Q 1141 0 747 490 
Q 353 981 353 1791 
Q 353 2603 747 3093 
Q 1141 3584 1784 3584 
Q 2172 3584 2450 3431 
Q 2728 3278 2906 2969 
L 2906 3500 
L 3481 3500 
L 3481 434 
z
" transform="scale(0.015625)"/>
       <path id="DejaVuSans-74" d="M 1172 4494 
L 1172 3500 
L 2356 3500 
L 2356 3053 
L 1172 3053 
L 1172 1153 
Q 1172 725 1289 603 
Q 1406 481 1766 481 
L 2356 481 
L 2356 0 
L 1766 0 
Q 1100 0 847 248 
Q 594 497 594 1153 
L 594 3053 
L 172 3053 
L 172 3500 
L 594 3500 
L 594 4494 
L 1172 4494 
z
" transform="scale(0.015625)"/>
       <path id="DejaVuSans-68" d="M 3513 2113 
L 3513 0 
L 2938 0 
L 2938 2094 
Q 2938 2591 2744 2837 
Q 2550 3084 2163 3084 
Q 1697 3084 1428 2787 
Q 1159 2491 1159 1978 
L 1159 0 
L 581 0 
L 581 4863 
L 1159 4863 
L 1159 2956 
Q 1366 3272 1645 3428 
Q 1925 3584 2291 3584 
Q 2894 3584 3203 3211 
Q 3513 2838 3513 2113 
z
" transform="scale(0.015625)"/>
       <path id="DejaVuSans-20" transform="scale(0.015625)"/>
       <path id="DejaVuSans-28" d="M 1984 4856 
Q 1566 4138 1362 3434 
Q 1159 2731 1159 2009 
Q 1159 1288 1364 580 
Q 1569 -128 1984 -844 
L 1484 -844 
Q 1016 -109 783 600 
Q 550 1309 550 2009 
Q 550 2706 781 3412 
Q 1013 4119 1484 4856 
L 1984 4856 
z
" transform="scale(0.015625)"/>
       <path id="DejaVuSans-6d" d="M 3328 2828 
Q 3544 3216 3844 3400 
Q 4144 3584 4550 3584 
Q 5097 3584 5394 3201 
Q 5691 2819 5691 2113 
L 5691 0 
L 5113 0 
L 5113 2094 
Q 5113 2597 4934 2840 
Q 4756 3084 4391 3084 
Q 3944 3084 3684 2787 
Q 3425 2491 3425 1978 
L 3425 0 
L 2847 0 
L 2847 2094 
Q 2847 2600 2669 2842 
Q 2491 3084 2119 3084 
Q 1678 3084 1418 2786 
Q 1159 2488 1159 1978 
L 1159 0 
L 581 0 
L 581 3500 
L 1159 3500 
L 1159 2956 
Q 1356 3278 1631 3431 
Q 1906 3584 2284 3584 
Q 2666 3584 2933 3390 
Q 3200 3197 3328 2828 
z
" transform="scale(0.015625)"/>
       <path id="DejaVuSans-29" d="M 513 4856 
L 1013 4856 
Q 1481 4119 1714 3412 
Q 1947 2706 1947 2009 
Q 1947 1309 1714 600 
Q 1481 -109 1013 -844 
L 513 -844 
Q 928 -128 1133 580 
Q 1338 1288 1338 2009 
Q 1338 2731 1133 3434 
Q 928 4138 513 4856 
z
" transform="scale(0.015625)"/>
      </defs>
      <use xlink:href="#DejaVuSans-57"/>
      <use xlink:href="#DejaVuSans-61" x="92.501953"/>
      <use xlink:href="#DejaVuSans-76" x="153.78125"/>
      <use xlink:href="#DejaVuSans-65" x="212.960938"/>
      <use xlink:href="#DejaVuSans-6c" x="274.484375"/>
      <use xlink:href="#DejaVuSans-65" x="302.267578"/>
      <use xlink:href="#DejaVuSans-6e" x="363.791016"/>
      <use xlink:href="#DejaVuSans-67" x="427.169922"/>
      <use xlink:href="#DejaVuSans-74" x="490.646484"/>
      <use xlink:href="#DejaVuSans-68" x="529.855469"/>
      <use xlink:href="#DejaVuSans-20" x="593.234375"/>
      <use xlink:href="#DejaVuSans-28" x="625.021484"/>
      <use xlink:href="#DejaVuSans-6e" x="664.035156"/>
      <use xlink:href="#DejaVuSans-6d" x="727.414062"/>
      <use xlink:href="#DejaVuSans-29" x="824.826172"/>
     </g>
    </g>
   </g>
   <g id="matplotlib.axis_2">
    <g id="ytick_1">
     <g id="line2d_9">
      <defs>
       <path id="m736bd342b2" d="M 0 0 
L -3.5 0 
" style="stroke: #000000; stroke-width: 0.8"/>
      </defs>
      <g>
       <use xlink:href="#m736bd342b2" x="57.6" y="307.584" style="stroke: #000000; stroke-width: 0.8"/>
      </g>
     </g>
     <g id="text_10">
      <!-- 0.0 -->
      <g transform="translate(34.696875 311.383219) scale(0.1 -0.1)">
       <defs>
        <path id="DejaVuSans-2e" d="M 684 794 
L 1344 794 
L 1344 0 
L 684 0 
L 684 794 
z
" transform="scale(0.015625)"/>
       </defs>
       <use xlink:href="#DejaVuSans-30"/>
       <use xlink:href="#DejaVuSans-2e" x="63.623047"/>
       <use xlink:href="#DejaVuSans-30" x="95.410156"/>
      </g>
     </g>
    </g>
    <g id="ytick_2">
     <g id="line2d_10">
      <g>
       <use xlink:href="#m736bd342b2" x="57.6" y="263.232" style="stroke: #000000; stroke-width: 0.8"/>
      </g>
     </g>
     <g id="text_11">
      <!-- 0.2 -->
      <g transform="translate(34.696875 267.031219) scale(0.1 -0.1)">
       <use xlink:href="#DejaVuSans-30"/>
       <use xlink:href="#DejaVuSans-2e" x="63.623047"/>
       <use xlink:href="#DejaVuSans-32" x="95.410156"/>
      </g>
     </g>
    </g>
    <g id="ytick_3">
     <g id="line2d_11">
      <g>
       <use xlink:href="#m736bd342b2" x="57.6" y="218.88" style="stroke: #000000; stroke-width: 0.8"/>
      </g>
     </g>
     <g id="text_12">
      <!-- 0.4 -->
      <g transform="translate(34.696875 222.679219) scale(0.1 -0.1)">
       <use xlink:href="#DejaVuSans-30"/>
       <use xlink:href="#DejaVuSans-2e" x="63.623047"/>
       <use xlink:href="#DejaVuSans-34" x="95.410156"/>
      </g>
     </g>
    </g>
    <g id="ytick_4">
     <g id="line2d_12">
      <g>
       <use xlink:href="#m736bd342b2" x="57.6" y="174.528" style="stroke: #000000; stroke-width: 0.8"/>
      </g>
     </g>
     <g id="text_13">
      <!-- 0.6 -->
      <g transform="translate(34.696875 178.327219) scale(0.1 -0.1)">
       <use xlink:href="#DejaVuSans-30"/>
       <use xlink:href="#DejaVuSans-2e" x="63.623047"/>
       <use xlink:href="#DejaVuSans-36" x="95.410156"/>
      </g>
     </g>
    </g>
    <g id="ytick_5">
     <g id="line2d_13">
      <g>
       <use xlink:href="#m736bd342b2" x="57.6" y="130.176" style="stroke: #000000; stroke-width: 0.8"/>
      </g>
     </g>
     <g id="text_14">
      <!-- 0.8 -->
      <g transform="translate(34.696875 133.975219) scale(0.1 -0.1)">
       <use xlink:href="#DejaVuSans-30"/>
       <use xlink:href="#DejaVuSans-2e" x="63.623047"/>
       <use xlink:href="#DejaVuSans-38" x="95.410156"/>
      </g>
     </g>
    </g>
    <g id="ytick_6">
     <g id="line2d_14">
      <g>
       <use xlink:href="#m736bd342b2" x="57.6" y="85.824" style="stroke: #000000; stroke-width: 0.8"/>
      </g>
     </g>
     <g id="text_15">
      <!-- 1.0 -->
      <g transform="translate(34.696875 89.623219) scale(0.1 -0.1)">
       <defs>
        <path id="DejaVuSans-31" d="M 794 531 
L 1825 531 
L 1825 4091 
L 703 3866 
L 703 4441 
L 1819 4666 
L 2450 4666 
L 2450 531 
L 3481 531 
L 3481 0 
L 794 0 
L 794 531 
z
" transform="scale(0.015625)"/>
       </defs>
       <use xlink:href="#DejaVuSans-31"/>
       <use xlink:href="#DejaVuSans-2e" x="63.623047"/>
       <use xlink:href="#DejaVuSans-30" x="95.410156"/>
      </g>
     </g>
    </g>
    <g id="ytick_7">
     <g id="line2d_15">
      <g>
       <use xlink:href="#m736bd342b2" x="57.6" y="41.472" style="stroke: #000000; stroke-width: 0.8"/>
      </g>
     </g>
     <g id="text_16">
      <!-- 1.2 -->
      <g transform="translate(34.696875 45.271219) scale(0.1 -0.1)">
       <use xlink:href="#DejaVuSans-31"/>
       <use xlink:href="#DejaVuSans-2e" x="63.623047"/>
       <use xlink:href="#DejaVuSans-32" x="95.410156"/>
      </g>
     </g>
    </g>
    <g id="text_17">
     <!-- Absorbance -->
     <g transform="translate(28.617187 204.074875) rotate(-90) scale(0.1 -0.1)">
      <defs>
       <path id="DejaVuSans-41" d="M 2188 4044 
L 1331 1722 
L 3047 1722 
L 2188 4044 
z
M 1831 4666 
L 2547 4666 
L 4325 0 
L 3669 0 
L 3244 1197 
L 1141 1197 
L 716 0 
L 50 0 
L 1831 4666 
z
" transform="scale(0.015625)"/>
       <path id="DejaVuSans-62" d="M 3116 1747 
Q 3116 2381 2855 2742 
Q 2594 3103 2138 3103 
Q 1681 3103 1420 2742 
Q 1159 2381 1159 1747 
Q 1159 1113 1420 752 
Q 1681 391 2138 391 
Q 2594 391 2855 752 
Q 3116 1113 3116 1747 
z
M 1159 2969 
Q 1341 3281 1617 3432 
Q 1894 3584 2278 3584 
Q 2916 3584 3314 3078 
Q 3713 2572 3713 1747 
Q 3713 922 3314 415 
Q 2916 -91 2278 -91 
Q 1894 -91 1617 61 
Q 1341 213 1159 525 
L 1159 0 
L 581 0 
L 581 4863 
L 1159 4863 
L 1159 2969 
z
" transform="scale(0.015625)"/>
       <path id="DejaVuSans-73" d="M 2834 3397 
L 2834 2853 
Q 2591 2978 2328 3040 
Q 2066 3103 1784 3103 
Q 1356 3103 1142 2972 
Q 928 2841 928 2578 
Q 928 2378 1081 2264 
Q 1234 2150 1697 2047 
L 1894 2003 
Q 2506 1872 2764 1633 
Q 3022 1394 3022 966 
Q 3022 478 2636 193 
Q 2250 -91 1575 -91 
Q 1294 -91 989 -36 
Q 684 19 347 128 
L 347 722 
Q 666 556 975 473 
Q 1284 391 1588 391 
Q 1994 391 2212 530 
Q 2431 669 2431 922 
Q 2431 1156 2273 1281 
Q 2116 1406 1581 1522 
L 1381 1569 
Q 847 1681 609 1914 
Q 372 2147 372 2553 
Q 372 3047 722 3315 
Q 1072 3584 1716 3584 
Q 2034 3584 2315 3537 
Q 2597 3491 2834 3397 
z
" transform="scale(0.015625)"/>
       <path id="DejaVuSans-6f" d="M 1959 3097 
Q 1497 3097 1228 2736 
Q 959 2375 959 1747 
Q 959 1119 1226 758 
Q 1494 397 1959 397 
Q 2419 397 2687 759 
Q 2956 1122 2956 1747 
Q 2956 2369 2687 2733 
Q 2419 3097 1959 3097 
z
M 1959 3584 
Q 2709 3584 3137 3096 
Q 3566 2609 3566 1747 
Q 3566 888 3137 398 
Q 2709 -91 1959 -91 
Q 1206 -91 779 398 
Q 353 888 353 1747 
Q 353 2609 779 3096 
Q 1206 3584 1959 3584 
z
" transform="scale(0.015625)"/>
       <path id="DejaVuSans-72" d="M 2631 2963 
Q 2534 3019 2420 3045 
Q 2306 3072 2169 3072 
Q 1681 3072 1420 2755 
Q 1159 2438 1159 1844 
L 1159 0 
L 581 0 
L 581 3500 
L 1159 3500 
L 1159 2956 
Q 1341 3275 1631 3429 
Q 1922 3584 2338 3584 
Q 2397 3584 2469 3576 
Q 2541 3569 2628 3553 
L 2631 2963 
z
" transform="scale(0.015625)"/>
       <path id="DejaVuSans-63" d="M 3122 3366 
L 3122 2828 
Q 2878 2963 2633 3030 
Q 2388 3097 2138 3097 
Q 1578 3097 1268 2742 
Q 959 2388 959 1747 
Q 959 1106 1268 751 
Q 1578 397 2138 397 
Q 2388 397 2633 464 
Q 2878 531 3122 666 
L 3122 134 
Q 2881 22 2623 -34 
Q 2366 -91 2075 -91 
Q 1284 -91 818 406 
Q 353 903 353 1747 
Q 353 2603 823 3093 
Q 1294 3584 2113 3584 
Q 2378 3584 2631 3529 
Q 2884 3475 3122 3366 
z
" transform="scale(0.015625)"/>
      </defs>
      <use xlink:href="#DejaVuSans-41"/>
      <use xlink:href="#DejaVuSans-62" x="68.408203"/>
      <use xlink:href="#DejaVuSans-73" x="131.884766"/>
      <use xlink:href="#DejaVuSans-6f" x="183.984375"/>
      <use xlink:href="#DejaVuSans-72" x="245.166016"/>
      <use xlink:href="#DejaVuSans-62" x="286.279297"/>
      <use xlink:href="#DejaVuSans-61" x="349.755859"/>
      <use xlink:href="#DejaVuSans-6e" x="411.035156"/>
      <use xlink:href="#DejaVuSans-63" x="474.414062"/>
      <use xlink:href="#DejaVuSans-65" x="529.394531"/>
     </g>
    </g>
   </g>
   <g id="line2d_16">
    <path d="M 363.702857 308.75438 
L 362.682514 308.591149 
L 361.152 308.611487 
L 358.601143 308.568118 
L 352.989257 308.43142 
L 351.968914 308.421116 
L 343.296 307.971374 
L 341.765486 307.828806 
L 326.970514 307.158903 
L 322.378971 307.274011 
L 321.8688 307.304531 
L 321.358629 307.185284 
L 317.277257 307.267631 
L 309.114514 306.957878 
L 307.073829 306.776422 
L 297.890743 305.963656 
L 295.850057 305.56514 
L 294.319543 305.393167 
L 287.687314 304.230198 
L 284.626286 303.46297 
L 283.605943 303.237847 
L 280.544914 302.500278 
L 279.0144 302.03718 
L 274.933029 300.99104 
L 272.382171 300.379942 
L 256.566857 297.75104 
L 247.383771 296.277051 
L 245.343086 295.778367 
L 244.322743 295.341641 
L 242.282057 294.722702 
L 241.261714 294.283598 
L 240.241371 293.806982 
L 238.710857 292.95569 
L 236.16 290.889449 
L 234.629486 289.299048 
L 233.609143 288.010073 
L 232.078629 285.837047 
L 230.548114 283.237387 
L 229.527771 281.316313 
L 227.997257 278.000818 
L 226.466743 274.288418 
L 224.426057 268.753359 
L 222.385371 262.65087 
L 219.324343 252.926376 
L 211.1616 226.17451 
L 208.610743 217.682481 
L 204.529371 203.424615 
L 198.407314 182.001245 
L 196.366629 175.608911 
L 194.836114 171.179822 
L 192.795429 166.039383 
L 191.775086 163.795786 
L 190.754743 161.833466 
L 189.224229 159.377232 
L 187.693714 157.617172 
L 186.1632 156.235264 
L 185.142857 155.792992 
L 184.122514 155.653953 
L 183.102171 155.683852 
L 182.081829 156.065203 
L 181.061486 156.635477 
L 179.530971 158.182252 
L 178.510629 159.518544 
L 177.490286 161.176614 
L 175.959771 164.264599 
L 174.939429 166.592012 
L 172.898743 172.194773 
L 170.858057 178.527733 
L 168.3072 187.343521 
L 164.225829 202.29511 
L 157.5936 227.052722 
L 155.552914 233.759954 
L 153.002057 241.135418 
L 150.961371 246.225059 
L 149.430857 249.440049 
L 147.900343 252.066695 
L 146.88 253.449627 
L 145.349486 255.328447 
L 143.818971 256.789447 
L 143.3088 256.059322 
L 142.798629 257.516939 
L 141.778286 258.035623 
L 140.757943 258.277736 
L 140.247771 258.215691 
L 139.7376 257.992979 
L 139.227429 258.135237 
L 138.207086 257.669731 
L 137.696914 257.22933 
L 137.186743 256.520717 
L 136.676571 256.467085 
L 135.656229 255.379398 
L 135.146057 254.657194 
L 134.635886 254.361942 
L 134.125714 253.890095 
L 133.615543 253.004692 
L 133.105371 248.604392 
L 131.574857 245.586647 
L 130.044343 241.080933 
L 128.513829 234.752349 
L 126.983314 226.302234 
L 125.4528 216.273979 
L 122.901943 196.552199 
L 120.351086 176.229823 
L 118.820571 166.04479 
L 115.249371 143.06984 
L 112.698514 126.029052 
L 111.678171 120.397277 
L 110.657829 113.473582 
L 109.637486 104.023056 
L 108.617143 92.138977 
L 104.535771 39.249997 
L 103.515429 17.986927 
L 102.795293 -1 
L 102.795293 -1 
" clip-path="url(#p411d97af82)" style="fill: none; stroke: #e01f1f; stroke-width: 0.5; stroke-linecap: square"/>
   </g>
   <g id="line2d_17">
    <path d="M 363.702857 308.675504 
L 363.192686 308.484397 
L 361.662171 308.513325 
L 355.029943 308.44101 
L 352.989257 308.402618 
L 337.684114 307.574853 
L 336.1536 307.471101 
L 328.501029 307.215395 
L 324.419657 307.183704 
L 322.889143 307.277046 
L 312.685714 307.052855 
L 303.502629 306.195332 
L 302.482286 306.060534 
L 300.951771 305.848676 
L 297.380571 305.336614 
L 295.850057 304.968207 
L 292.789029 304.38558 
L 289.728 303.654082 
L 288.707657 303.32599 
L 286.1568 302.58565 
L 283.095771 301.560984 
L 277.994057 299.701156 
L 274.422857 298.475047 
L 272.382171 297.891513 
L 270.341486 297.305711 
L 268.3008 296.750558 
L 245.343086 291.735662 
L 243.812571 291.214029 
L 242.792229 290.93736 
L 238.710857 289.113992 
L 237.180343 288.097841 
L 236.16 287.333707 
L 234.119314 285.284223 
L 232.078629 282.725221 
L 230.548114 280.364526 
L 228.507429 276.598736 
L 226.466743 272.16354 
L 224.426057 267.110862 
L 221.8752 260.127855 
L 218.304 249.633585 
L 211.1616 227.999653 
L 207.080229 214.917317 
L 202.488686 199.397397 
L 198.407314 185.809402 
L 196.366629 179.611225 
L 194.325943 174.026771 
L 192.285257 169.237004 
L 190.754743 166.300615 
L 189.7344 164.646392 
L 188.714057 163.243864 
L 187.693714 162.120287 
L 186.1632 160.831698 
L 185.142857 160.357201 
L 184.122514 160.179658 
L 183.102171 160.292658 
L 182.081829 160.670373 
L 181.061486 161.321515 
L 180.041143 162.250458 
L 178.510629 164.183037 
L 177.490286 165.878488 
L 175.959771 168.993781 
L 174.429257 172.693981 
L 172.898743 176.991406 
L 170.858057 183.326903 
L 165.246171 202.973176 
L 157.083429 232.933046 
L 154.532571 240.707017 
L 153.002057 244.916491 
L 150.961371 249.676794 
L 149.430857 252.598472 
L 147.900343 254.929651 
L 145.859657 256.90926 
L 144.839314 257.655161 
L 144.329143 257.755862 
L 143.818971 258.294082 
L 143.3088 257.295138 
L 142.798629 258.578397 
L 141.778286 258.738489 
L 140.247771 258.360648 
L 139.7376 257.78124 
L 139.227429 257.781045 
L 138.717257 257.392835 
L 137.696914 256.405968 
L 137.186743 255.571451 
L 136.676571 255.381205 
L 135.656229 254.019164 
L 135.146057 253.074978 
L 134.635886 252.745931 
L 133.615543 251.377743 
L 133.105371 247.028048 
L 132.085029 245.10129 
L 131.064686 242.528718 
L 130.044343 239.381378 
L 129.024 235.53206 
L 127.493486 228.012448 
L 125.962971 218.714754 
L 124.432457 208.153625 
L 118.820571 166.967882 
L 116.269714 150.767992 
L 111.168 115.089096 
L 110.657829 110.882874 
L 109.637486 99.802564 
L 108.617143 84.41518 
L 107.5968 63.912749 
L 104.876261 -1 
L 104.876261 -1 
" clip-path="url(#p411d97af82)" style="fill: none; stroke: #d31f2c; stroke-width: 0.5; stroke-linecap: square"/>
   </g>
   <g id="line2d_18">
    <path d="M 363.702857 308.8079 
L 363.192686 308.622752 
L 358.090971 308.549475 
L 357.070629 308.558593 
L 347.377371 308.257629 
L 342.785829 307.932482 
L 339.214629 307.62915 
L 336.663771 307.495176 
L 334.623086 307.347749 
L 333.092571 307.281665 
L 324.419657 306.957259 
L 320.338286 306.868072 
L 313.706057 306.470719 
L 310.134857 306.024406 
L 307.584 305.736738 
L 306.053486 305.469934 
L 297.890743 304.120564 
L 295.850057 303.499416 
L 293.809371 303.019938 
L 291.258514 302.275993 
L 288.707657 301.406176 
L 283.095771 299.097402 
L 276.973714 296.32008 
L 270.341486 293.6558 
L 268.810971 293.158441 
L 266.770286 292.485019 
L 263.709257 291.570512 
L 261.668571 290.990025 
L 260.138057 290.521737 
L 252.485486 288.511905 
L 251.465143 288.183529 
L 245.343086 286.762716 
L 244.832914 286.523249 
L 242.792229 286.031791 
L 238.200686 284.318966 
L 235.649829 282.822847 
L 233.098971 280.685135 
L 231.568457 279.073037 
L 230.037943 277.176866 
L 227.997257 274.173674 
L 225.4464 269.677352 
L 223.405714 265.595515 
L 220.854857 260.024925 
L 216.773486 250.4281 
L 213.202286 241.618649 
L 210.141257 233.62113 
L 207.5904 226.495941 
L 201.468343 207.737391 
L 196.8768 193.555957 
L 194.325943 186.41837 
L 192.285257 181.236084 
L 190.754743 177.952473 
L 189.224229 175.198161 
L 187.693714 172.986789 
L 186.673371 171.867601 
L 185.653029 170.817939 
L 184.632686 170.108665 
L 183.102171 169.584231 
L 181.571657 169.559024 
L 181.061486 169.664027 
L 179.530971 170.462945 
L 179.0208 170.790155 
L 178.000457 171.770436 
L 176.469943 173.946767 
L 175.4496 175.616218 
L 173.919086 178.770927 
L 172.388571 182.472554 
L 170.347886 188.066103 
L 167.797029 195.706448 
L 165.246171 203.797913 
L 162.185143 214.045626 
L 157.5936 229.351621 
L 155.552914 235.340624 
L 152.491886 242.870228 
L 150.4512 246.7752 
L 148.920686 249.031613 
L 147.390171 250.574997 
L 145.859657 251.547017 
L 144.839314 252.03197 
L 144.329143 251.99295 
L 143.818971 252.303062 
L 143.3088 251.100615 
L 142.798629 252.329029 
L 142.288457 252.158762 
L 141.778286 252.110253 
L 140.757943 251.632358 
L 140.247771 251.143857 
L 139.7376 250.498188 
L 139.227429 250.445706 
L 138.207086 249.238632 
L 137.696914 248.535531 
L 137.186743 247.555534 
L 136.676571 247.18532 
L 135.656229 245.703768 
L 135.146057 244.821518 
L 134.635886 244.490977 
L 134.125714 243.913493 
L 133.615543 243.140654 
L 133.105371 238.725503 
L 132.085029 236.614098 
L 131.574857 235.563088 
L 130.554514 232.751695 
L 129.024 227.456408 
L 127.493486 220.558911 
L 126.473143 215.344281 
L 124.432457 203.357664 
L 121.8816 186.690712 
L 119.840914 173.226602 
L 115.759543 146.353963 
L 113.718857 129.952302 
L 111.678171 112.507957 
L 110.657829 101.869271 
L 109.637486 88.149778 
L 108.617143 69.211742 
L 107.5968 43.623053 
L 106.226665 -1 
L 106.226665 -1 
" clip-path="url(#p411d97af82)" style="fill: none; stroke: #c51f3a; stroke-width: 0.5; stroke-linecap: square"/>
   </g>
   <g id="line2d_19">
    <path d="M 363.702857 308.968435 
L 363.192686 308.81251 
L 358.090971 308.754665 
L 357.070629 308.738721 
L 355.540114 308.710249 
L 352.989257 308.607588 
L 351.968914 308.610532 
L 347.887543 308.40354 
L 346.357029 308.303698 
L 343.806171 308.095823 
L 338.194286 307.584 
L 331.051886 307.098712 
L 326.460343 306.755569 
L 319.317943 306.439158 
L 313.195886 305.933132 
L 300.951771 303.905496 
L 292.789029 301.703193 
L 289.217829 300.382724 
L 285.646629 298.765684 
L 284.626286 298.399711 
L 282.5856 297.384403 
L 273.402514 292.797161 
L 269.831314 291.287861 
L 266.770286 290.114904 
L 263.199086 288.908046 
L 262.178743 288.559838 
L 257.077029 286.875682 
L 256.056686 286.610278 
L 253.505829 285.753332 
L 250.4448 284.85842 
L 247.383771 284.029944 
L 245.343086 283.448253 
L 244.322743 283.097702 
L 240.241371 281.87266 
L 237.690514 280.778159 
L 236.670171 280.22449 
L 235.139657 279.260358 
L 233.609143 278.132697 
L 231.568457 276.186374 
L 229.0176 273.121134 
L 227.997257 271.733473 
L 225.4464 267.6965 
L 222.385371 262.075441 
L 216.773486 250.31457 
L 211.671771 238.509277 
L 208.610743 230.67416 
L 206.059886 223.545038 
L 200.958171 208.28179 
L 195.346286 191.542404 
L 192.795429 184.771442 
L 190.754743 180.163567 
L 189.224229 177.290995 
L 188.203886 175.701711 
L 186.673371 173.699274 
L 185.653029 172.631107 
L 184.632686 171.823545 
L 183.102171 171.179105 
L 182.081829 170.930648 
L 181.061486 170.993142 
L 180.041143 171.285007 
L 179.0208 171.831542 
L 178.000457 172.643929 
L 176.980114 173.832418 
L 175.4496 176.037459 
L 174.429257 177.944634 
L 172.898743 181.247596 
L 170.347886 187.803198 
L 167.286857 196.653234 
L 164.736 204.550059 
L 156.573257 230.766652 
L 155.042743 234.910386 
L 153.002057 239.803048 
L 150.961371 243.80644 
L 149.941029 245.406331 
L 148.920686 246.774552 
L 147.900343 247.823824 
L 146.88 248.523759 
L 144.839314 249.412579 
L 144.329143 249.27954 
L 143.818971 249.548182 
L 143.3088 248.349144 
L 142.798629 249.443985 
L 142.288457 249.396711 
L 141.778286 249.236609 
L 140.247771 248.142303 
L 139.7376 247.32911 
L 139.227429 247.178578 
L 138.207086 245.820746 
L 135.656229 242.056532 
L 135.146057 240.935936 
L 134.635886 240.680916 
L 133.615543 239.13584 
L 133.105371 233.918467 
L 132.5952 233.018815 
L 131.064686 229.311114 
L 130.044343 226.2096 
L 128.513829 220.472353 
L 126.983314 213.050792 
L 124.942629 201.800308 
L 122.391771 185.974934 
L 119.840914 169.157542 
L 116.269714 145.412001 
L 113.718857 124.022991 
L 111.678171 104.898093 
L 110.657829 93.54055 
L 109.637486 78.490461 
L 108.617143 58.29844 
L 107.5968 29.820603 
L 106.743807 -1 
L 106.743807 -1 
" clip-path="url(#p411d97af82)" style="fill: none; stroke: #b71f48; stroke-width: 0.5; stroke-linecap: square"/>
   </g>
   <g id="line2d_20">
    <path d="M 363.702857 308.868269 
L 363.192686 308.68861 
L 357.5808 308.685403 
L 350.4384 308.451338 
L 346.8672 308.295507 
L 324.929829 306.786383 
L 321.8688 306.808591 
L 321.358629 306.65574 
L 316.256914 306.329778 
L 314.7264 306.171989 
L 313.195886 305.972591 
L 307.073829 304.98502 
L 304.522971 304.50997 
L 299.931429 303.59715 
L 298.400914 303.174739 
L 296.8704 302.676635 
L 291.768686 301.042606 
L 285.136457 298.052712 
L 281.055086 295.814705 
L 279.0144 294.607326 
L 277.483886 293.716167 
L 271.361829 290.541097 
L 267.280457 288.734137 
L 261.1584 286.352558 
L 258.607543 285.413193 
L 257.077029 284.879632 
L 256.056686 284.555141 
L 251.465143 282.953832 
L 246.363429 281.426152 
L 245.343086 281.106933 
L 244.322743 280.712684 
L 241.261714 279.814889 
L 238.200686 278.715319 
L 235.649829 277.41106 
L 232.5888 275.171306 
L 229.527771 271.987154 
L 227.487086 269.332026 
L 225.4464 266.25179 
L 223.405714 262.810559 
L 219.324343 255.084688 
L 215.242971 246.632756 
L 212.181943 239.809709 
L 209.631086 233.732087 
L 205.549714 222.847283 
L 203.509029 217.065544 
L 199.937829 206.640573 
L 195.346286 193.565744 
L 192.795429 187.077751 
L 191.264914 183.634918 
L 189.7344 180.632268 
L 188.203886 178.222785 
L 186.1632 175.66468 
L 184.122514 174.292911 
L 183.612343 174.013339 
L 182.081829 173.685851 
L 181.061486 173.679771 
L 180.041143 173.963216 
L 179.0208 174.387749 
L 178.000457 175.163179 
L 176.980114 176.239938 
L 175.4496 178.313473 
L 173.408914 182.128947 
L 170.858057 188.166063 
L 168.3072 195.063507 
L 165.246171 204.029034 
L 163.205486 210.361802 
L 157.083429 229.416579 
L 155.042743 234.76023 
L 153.002057 239.413826 
L 151.471543 242.294719 
L 150.4512 243.933305 
L 148.410514 246.287074 
L 147.390171 247.011622 
L 145.349486 247.718014 
L 144.839314 247.800567 
L 144.329143 247.675829 
L 143.818971 247.877059 
L 143.3088 246.557573 
L 142.798629 247.635369 
L 141.778286 247.193322 
L 140.247771 245.933521 
L 139.7376 245.103958 
L 139.227429 244.895907 
L 138.207086 243.508534 
L 137.186743 241.608827 
L 136.676571 241.279939 
L 135.656229 239.491587 
L 135.146057 238.298708 
L 134.635886 238.09506 
L 134.125714 237.556357 
L 133.615543 236.548801 
L 133.105371 231.413081 
L 132.085029 229.217868 
L 131.064686 226.732243 
L 129.024 219.25319 
L 127.493486 212.001136 
L 125.962971 203.670187 
L 123.412114 188.528313 
L 116.779886 145.51857 
L 115.759543 137.753831 
L 113.718857 120.02624 
L 111.678171 99.918324 
L 110.657829 87.539935 
L 109.637486 71.235372 
L 108.617143 48.643346 
L 108.106971 34.065903 
L 107.195551 -1 
L 107.195551 -1 
" clip-path="url(#p411d97af82)" style="fill: none; stroke: #a91f56; stroke-width: 0.5; stroke-linecap: square"/>
   </g>
   <g id="line2d_21">
    <path d="M 363.702857 309.138572 
L 363.192686 308.952441 
L 361.152 308.958098 
L 357.5808 308.887403 
L 356.050286 308.864123 
L 355.029943 308.819361 
L 351.458743 308.663144 
L 348.397714 308.499071 
L 345.336686 308.285067 
L 342.275657 307.993371 
L 334.112914 307.277968 
L 322.378971 306.491229 
L 321.8688 306.543041 
L 321.358629 306.373122 
L 315.746743 305.903785 
L 314.216229 305.652514 
L 310.645029 305.092086 
L 302.992457 303.54356 
L 301.461943 303.164997 
L 299.931429 302.78323 
L 297.380571 302.052975 
L 293.809371 300.829639 
L 291.258514 299.880773 
L 286.1568 297.443484 
L 280.034743 294.049834 
L 273.912686 290.555919 
L 270.341486 288.773168 
L 266.260114 286.961005 
L 262.688914 285.506011 
L 260.648229 284.654694 
L 258.097371 283.679092 
L 254.526171 282.338734 
L 253.505829 281.993737 
L 250.4448 280.869795 
L 239.7312 277.499673 
L 237.180343 276.411342 
L 234.629486 274.885465 
L 233.098971 273.777565 
L 231.568457 272.401542 
L 230.037943 270.811119 
L 227.997257 268.332754 
L 225.956571 265.428521 
L 222.895543 260.358132 
L 218.814171 252.760012 
L 213.202286 241.13936 
L 209.631086 232.838284 
L 207.5904 227.683187 
L 203.509029 216.335029 
L 193.815771 188.298097 
L 191.775086 183.255603 
L 190.244571 179.992005 
L 188.714057 177.247712 
L 187.183543 175.066278 
L 185.653029 173.283735 
L 184.632686 172.447027 
L 183.612343 171.841422 
L 182.592 171.422744 
L 181.571657 171.211574 
L 180.551314 171.233357 
L 179.530971 171.482251 
L 178.510629 171.978544 
L 177.490286 172.815199 
L 176.469943 173.950091 
L 174.939429 176.114235 
L 173.408914 179.007956 
L 171.8784 182.397059 
L 168.817371 190.435713 
L 166.266514 197.855728 
L 163.715657 205.749651 
L 157.5936 225.275449 
L 155.552914 231.031374 
L 153.002057 237.03713 
L 151.981714 239.129832 
L 150.961371 240.949008 
L 149.430857 243.164207 
L 148.410514 244.211827 
L 147.390171 245.025727 
L 145.349486 245.812366 
L 144.839314 245.95348 
L 144.329143 245.81452 
L 143.818971 246.052423 
L 143.3088 244.700044 
L 142.798629 245.782222 
L 141.778286 245.356902 
L 140.247771 244.187823 
L 139.7376 243.346899 
L 139.227429 243.049852 
L 138.207086 241.647206 
L 137.696914 240.911027 
L 137.186743 239.791594 
L 136.676571 239.259837 
L 135.656229 237.653779 
L 135.146057 236.583114 
L 134.125714 235.394618 
L 133.615543 234.60745 
L 133.105371 229.875618 
L 132.085029 227.589194 
L 131.064686 224.858688 
L 130.044343 221.546653 
L 129.024 217.664039 
L 128.003657 213.114766 
L 126.473143 205.150219 
L 124.432457 193.195669 
L 121.8816 176.503886 
L 117.800229 148.782776 
L 116.269714 137.112801 
L 114.229029 119.248127 
L 111.678171 93.96345 
L 110.657829 81.215871 
L 109.637486 64.461277 
L 108.617143 40.589465 
L 108.106971 24.955884 
L 107.469274 -1 
L 107.469274 -1 
" clip-path="url(#p411d97af82)" style="fill: none; stroke: #9b1f64; stroke-width: 0.5; stroke-linecap: square"/>
   </g>
   <g id="line2d_22">
    <path d="M 363.702857 308.976292 
L 363.192686 308.792669 
L 362.172343 308.818941 
L 346.8672 308.369319 
L 339.7248 307.721065 
L 337.684114 307.546465 
L 324.929829 306.67912 
L 321.8688 306.67216 
L 321.358629 306.479571 
L 320.338286 306.47377 
L 318.807771 306.353419 
L 317.787429 306.318768 
L 314.216229 306.006613 
L 304.522971 304.517928 
L 300.951771 303.756077 
L 297.380571 302.897367 
L 295.850057 302.343508 
L 293.2992 301.634357 
L 285.646629 298.379975 
L 284.626286 297.882224 
L 283.605943 297.417694 
L 280.544914 295.703712 
L 271.872 291.125375 
L 266.260114 288.715597 
L 255.036343 284.480753 
L 248.404114 282.306023 
L 245.853257 281.650326 
L 244.322743 281.071714 
L 242.282057 280.4637 
L 240.751543 280.019772 
L 236.16 278.038785 
L 235.139657 277.486081 
L 231.568457 274.669744 
L 230.548114 273.696336 
L 227.997257 270.716897 
L 226.466743 268.623921 
L 223.915886 264.678591 
L 221.365029 260.250477 
L 217.283657 252.386687 
L 214.7328 247.117288 
L 212.181943 241.50263 
L 208.610743 232.869685 
L 204.529371 221.750052 
L 193.815771 191.081463 
L 192.285257 187.319576 
L 190.754743 183.943585 
L 189.224229 181.114433 
L 187.183543 178.1503 
L 185.653029 176.48508 
L 184.632686 175.754261 
L 183.612343 175.144861 
L 182.081829 174.727386 
L 181.061486 174.705854 
L 180.041143 174.947584 
L 178.510629 175.735465 
L 177.490286 176.630569 
L 175.959771 178.577808 
L 174.939429 180.223889 
L 173.919086 182.128235 
L 172.388571 185.493691 
L 170.347886 190.515353 
L 167.286857 198.8762 
L 164.736 206.260427 
L 156.063086 232.393701 
L 154.532571 236.068794 
L 153.002057 239.443205 
L 151.471543 242.301251 
L 150.4512 243.872585 
L 149.941029 244.407448 
L 149.430857 245.1337 
L 148.410514 246.093077 
L 147.390171 246.775889 
L 145.859657 247.34081 
L 144.839314 247.534353 
L 144.329143 247.335609 
L 143.818971 247.470927 
L 143.3088 246.151672 
L 142.798629 247.143955 
L 141.268114 246.304042 
L 140.247771 245.343389 
L 139.7376 244.468019 
L 139.227429 244.183536 
L 138.207086 242.707001 
L 137.696914 241.934817 
L 137.186743 240.864555 
L 136.676571 240.337668 
L 135.656229 238.622166 
L 135.146057 237.378128 
L 134.635886 237.251996 
L 134.125714 236.49075 
L 133.615543 235.453314 
L 133.105371 229.951921 
L 132.085029 227.77705 
L 131.064686 225.150602 
L 130.044343 222.109263 
L 129.024 218.562635 
L 126.983314 209.346212 
L 124.432457 195.775281 
L 122.901943 186.824247 
L 116.779886 148.099279 
L 114.7392 131.436101 
L 113.208686 117.164455 
L 112.698514 111.165592 
L 112.188343 106.783982 
L 111.168 94.96512 
L 110.147657 79.787994 
L 109.127314 58.467505 
L 108.617143 43.976878 
L 108.106971 26.287381 
L 107.509717 -1 
L 107.509717 -1 
" clip-path="url(#p411d97af82)" style="fill: none; stroke: #8d1f72; stroke-width: 0.5; stroke-linecap: square"/>
   </g>
   <g id="line2d_23">
    <path d="M 363.702857 308.65247 
L 363.192686 308.495496 
L 361.662171 308.515196 
L 358.601143 308.479022 
L 355.029943 308.468233 
L 349.928229 308.332616 
L 348.397714 308.301748 
L 340.234971 307.747326 
L 338.704457 307.591954 
L 335.133257 307.426927 
L 330.541714 307.20191 
L 326.970514 307.030351 
L 318.2976 306.739287 
L 313.706057 306.27641 
L 311.1552 305.944345 
L 300.4416 304.0116 
L 299.421257 303.763599 
L 297.890743 303.421818 
L 294.829714 302.401249 
L 293.809371 302.076754 
L 290.238171 300.781306 
L 288.197486 299.866811 
L 287.177143 299.377201 
L 283.605943 297.606768 
L 271.872 291.227616 
L 266.770286 288.93938 
L 259.627886 286.104171 
L 257.5872 285.408412 
L 254.016 284.065838 
L 250.954971 283.003376 
L 247.893943 282.04371 
L 238.710857 279.24896 
L 235.139657 277.526231 
L 232.5888 275.75453 
L 231.058286 274.426121 
L 229.527771 272.843777 
L 227.487086 270.453953 
L 225.4464 267.629249 
L 221.8752 261.873203 
L 218.304 255.326896 
L 215.242971 249.231849 
L 213.712457 246.024374 
L 210.651429 239.158825 
L 207.5904 231.48412 
L 204.529371 223.087036 
L 197.897143 203.712729 
L 194.325943 193.637669 
L 191.775086 187.278934 
L 190.244571 184.018733 
L 188.203886 180.543978 
L 186.673371 178.529949 
L 185.653029 177.38841 
L 184.632686 176.618796 
L 183.612343 176.001876 
L 182.592 175.607928 
L 181.061486 175.441991 
L 180.041143 175.674084 
L 179.0208 176.140783 
L 178.510629 176.432 
L 177.490286 177.335948 
L 176.469943 178.575498 
L 175.4496 180.052099 
L 173.919086 182.850189 
L 171.8784 187.404557 
L 168.3072 196.709792 
L 165.246171 205.359081 
L 162.695314 213.081086 
L 157.5936 228.696849 
L 155.552914 234.14666 
L 153.002057 239.89049 
L 150.961371 243.497814 
L 149.941029 244.861428 
L 148.920686 246.03175 
L 147.900343 246.815388 
L 147.390171 247.140026 
L 144.839314 247.750919 
L 144.329143 247.536221 
L 143.818971 247.674804 
L 143.3088 246.287417 
L 142.798629 247.308092 
L 141.268114 246.308044 
L 140.247771 245.24334 
L 139.7376 244.52441 
L 139.227429 244.000987 
L 138.717257 243.258886 
L 137.186743 240.426529 
L 136.676571 239.944511 
L 135.656229 238.153852 
L 135.146057 236.938517 
L 134.125714 235.920796 
L 133.615543 235.030338 
L 133.105371 229.727735 
L 132.085029 227.692604 
L 130.554514 223.695834 
L 130.044343 222.165284 
L 128.003657 214.193837 
L 125.962971 204.580684 
L 122.901943 187.782563 
L 120.861257 175.581122 
L 117.290057 153.345214 
L 116.269714 146.006859 
L 114.7392 133.145976 
L 113.208686 118.677502 
L 112.698514 112.590461 
L 112.188343 108.06853 
L 111.168 95.856924 
L 110.147657 80.161218 
L 109.127314 57.651381 
L 108.617143 42.172688 
L 108.106971 22.901956 
L 107.608475 -1 
L 107.608475 -1 
" clip-path="url(#p411d97af82)" style="fill: none; stroke: #801f80; stroke-width: 0.5; stroke-linecap: square"/>
   </g>
   <g id="line2d_24">
    <path d="M 363.702857 308.894265 
L 362.682514 308.764141 
L 359.111314 308.721526 
L 357.070629 308.694842 
L 352.479086 308.586713 
L 346.8672 308.361382 
L 339.7248 307.691583 
L 337.684114 307.576669 
L 335.643429 307.420833 
L 334.112914 307.33365 
L 331.562057 307.103625 
L 330.541714 307.068913 
L 326.970514 306.739014 
L 321.8688 306.524161 
L 321.358629 306.346264 
L 320.848457 306.381558 
L 319.828114 306.247201 
L 318.2976 306.143168 
L 314.7264 305.746013 
L 305.543314 304.039573 
L 297.890743 301.689774 
L 295.339886 300.628082 
L 289.728 298.691451 
L 287.687314 297.739785 
L 280.034743 293.376306 
L 275.953371 290.875766 
L 268.3008 286.732238 
L 266.260114 285.791619 
L 252.485486 279.975588 
L 249.424457 278.945849 
L 247.383771 278.394179 
L 241.771886 276.795368 
L 239.221029 276.088398 
L 236.16 274.973756 
L 234.119314 273.958055 
L 230.548114 271.443136 
L 228.507429 269.550521 
L 226.466743 267.293216 
L 223.915886 264.044045 
L 221.365029 260.274775 
L 218.814171 256.173487 
L 216.263314 251.705395 
L 212.692114 244.754564 
L 210.651429 240.380111 
L 206.570057 230.642313 
L 195.856457 202.941307 
L 192.795429 195.887871 
L 191.264914 192.814756 
L 189.7344 190.256533 
L 188.203886 188.190835 
L 186.673371 186.658666 
L 185.142857 185.547448 
L 184.122514 185.101066 
L 183.102171 184.813629 
L 182.081829 184.741446 
L 181.061486 184.809372 
L 180.041143 185.147883 
L 179.0208 185.610299 
L 178.000457 186.35891 
L 176.980114 187.409365 
L 175.959771 188.666244 
L 174.429257 191.064267 
L 172.898743 194.022426 
L 170.858057 198.450986 
L 166.266514 209.407563 
L 161.674971 221.220714 
L 157.5936 231.70126 
L 155.552914 236.165007 
L 153.512229 239.796123 
L 151.981714 242.022974 
L 150.961371 243.130338 
L 150.4512 243.585128 
L 148.410514 244.572883 
L 146.88 244.564292 
L 144.839314 243.915615 
L 144.329143 243.436181 
L 143.818971 243.341905 
L 143.3088 241.620501 
L 142.798629 242.427687 
L 141.778286 241.373213 
L 140.247771 239.103643 
L 139.7376 237.8937 
L 139.227429 237.468387 
L 137.696914 234.338745 
L 137.186743 233.021797 
L 136.676571 232.259282 
L 135.146057 228.824339 
L 134.635886 228.350589 
L 134.125714 227.701252 
L 133.615543 226.612035 
L 133.105371 220.581746 
L 132.085029 218.529914 
L 130.044343 212.879938 
L 128.513829 207.677178 
L 126.473143 199.24422 
L 123.922286 187.83682 
L 119.330743 165.009237 
L 117.290057 153.483456 
L 115.759543 142.438703 
L 114.229029 128.953603 
L 113.208686 118.600807 
L 112.698514 111.9733 
L 112.188343 107.248922 
L 111.168 93.51214 
L 110.147657 75.646698 
L 109.637486 64.18821 
L 109.127314 50.226723 
L 108.617143 32.890541 
L 107.886559 -1 
L 107.886559 -1 
" clip-path="url(#p411d97af82)" style="fill: none; stroke: #721f8d; stroke-width: 0.5; stroke-linecap: square"/>
   </g>
   <g id="line2d_25">
    <path d="M 363.702857 308.959088 
L 363.192686 308.809018 
L 352.479086 308.601416 
L 350.4384 308.491685 
L 348.397714 308.442013 
L 334.112914 307.289254 
L 330.031543 306.99866 
L 323.399314 306.574544 
L 321.8688 306.530978 
L 320.848457 306.323994 
L 315.236571 305.727323 
L 311.1552 305.010604 
L 302.482286 302.864521 
L 300.951771 302.386859 
L 298.400914 301.395729 
L 296.8704 300.746585 
L 295.850057 300.356966 
L 293.2992 299.557172 
L 290.238171 298.42504 
L 288.707657 297.732001 
L 284.116114 295.127888 
L 277.483886 290.756592 
L 274.933029 289.061913 
L 271.872 287.171011 
L 267.280457 284.650649 
L 266.260114 284.173729 
L 264.219429 283.126974 
L 259.627886 280.940853 
L 253.505829 278.262131 
L 250.954971 277.258976 
L 247.893943 276.158396 
L 245.853257 275.542903 
L 244.322743 274.96826 
L 240.241371 273.846712 
L 236.16 272.398269 
L 234.119314 271.357602 
L 232.078629 270.10824 
L 230.548114 268.960468 
L 229.0176 267.6133 
L 226.466743 264.971096 
L 223.915886 261.802657 
L 220.854857 257.478393 
L 217.793829 252.581201 
L 214.222629 246.245703 
L 211.1616 240.062979 
L 208.610743 234.391491 
L 205.549714 226.874992 
L 201.468343 216.441395 
L 194.836114 199.760287 
L 192.285257 194.101785 
L 190.754743 191.158391 
L 189.224229 188.699817 
L 188.203886 187.366208 
L 187.183543 186.274817 
L 185.142857 184.629885 
L 183.612343 184.002232 
L 182.081829 183.723136 
L 180.551314 183.843723 
L 179.0208 184.463617 
L 178.510629 184.728438 
L 176.980114 186.07015 
L 175.4496 188.016741 
L 174.429257 189.621675 
L 173.408914 191.519676 
L 171.8784 194.647196 
L 169.837714 199.230525 
L 167.286857 205.247979 
L 165.246171 210.259213 
L 161.1648 220.8221 
L 157.5936 229.876994 
L 156.063086 233.354168 
L 154.0224 237.204047 
L 152.491886 239.562105 
L 150.961371 241.300573 
L 150.4512 241.747934 
L 148.920686 242.635941 
L 147.390171 242.886757 
L 144.839314 242.021149 
L 144.329143 241.56133 
L 143.818971 241.379412 
L 143.3088 239.61273 
L 142.798629 240.462577 
L 141.268114 238.619416 
L 140.247771 237.162933 
L 139.7376 235.923825 
L 139.227429 235.286992 
L 137.696914 232.161124 
L 137.186743 230.723648 
L 136.676571 230.177233 
L 135.146057 226.704976 
L 134.635886 226.218061 
L 134.125714 225.445255 
L 133.615543 224.374477 
L 133.105371 218.950329 
L 132.085029 216.77259 
L 130.044343 210.883707 
L 128.003657 203.244783 
L 125.962971 194.252231 
L 124.432457 186.986086 
L 120.351086 166.124154 
L 118.3104 154.690093 
L 116.779886 144.779451 
L 115.759543 136.879189 
L 114.229029 122.950958 
L 113.208686 112.12438 
L 111.168 85.683967 
L 110.147657 65.921503 
L 109.637486 52.84136 
L 109.127314 36.524201 
L 108.290152 -1 
L 108.290152 -1 
" clip-path="url(#p411d97af82)" style="fill: none; stroke: #641f9b; stroke-width: 0.5; stroke-linecap: square"/>
   </g>
   <g id="line2d_26">
    <path d="M 363.702857 309.21001 
L 363.192686 309.012595 
L 359.111314 309.000895 
L 356.050286 308.869813 
L 354.519771 308.837854 
L 344.316343 308.207333 
L 324.419657 306.298297 
L 321.8688 306.199205 
L 320.848457 305.970335 
L 318.807771 305.760594 
L 317.277257 305.556432 
L 314.216229 305.06044 
L 313.195886 304.829319 
L 306.053486 303.220773 
L 300.4416 301.473416 
L 296.8704 300.034223 
L 295.850057 299.570696 
L 292.789029 298.264955 
L 289.217829 296.333611 
L 285.136457 293.534916 
L 283.095771 291.941025 
L 280.544914 289.851733 
L 273.402514 283.971648 
L 266.260114 279.104556 
L 261.668571 276.472044 
L 258.097371 274.523864 
L 255.546514 273.227106 
L 254.016 272.39206 
L 247.383771 269.267257 
L 245.343086 268.436586 
L 244.322743 267.999529 
L 236.670171 265.336817 
L 233.609143 263.706346 
L 231.058286 261.868546 
L 227.997257 258.954049 
L 225.4464 255.958276 
L 223.405714 253.225969 
L 219.834514 247.913294 
L 215.753143 241.184141 
L 213.712457 237.550612 
L 210.651429 231.538987 
L 207.080229 223.628243 
L 197.897143 200.611492 
L 195.346286 194.282709 
L 193.3056 189.58909 
L 191.264914 185.424227 
L 189.7344 182.847697 
L 188.714057 181.383811 
L 187.693714 180.132642 
L 185.653029 178.254084 
L 184.122514 177.410093 
L 182.592 176.945681 
L 181.061486 176.895532 
L 180.041143 177.072467 
L 178.510629 177.67843 
L 177.490286 178.459451 
L 176.469943 179.473993 
L 174.939429 181.359133 
L 173.408914 183.936787 
L 171.8784 186.957322 
L 168.817371 194.12034 
L 164.225829 206.282128 
L 159.124114 220.69966 
L 157.083429 226.030542 
L 155.552914 229.629948 
L 153.512229 233.664059 
L 152.491886 235.408217 
L 151.471543 236.930169 
L 150.4512 238.084279 
L 149.941029 238.453529 
L 149.430857 239.0066 
L 148.920686 239.324544 
L 147.390171 239.823342 
L 145.859657 239.681752 
L 144.839314 239.395319 
L 144.329143 238.988002 
L 143.818971 238.878339 
L 143.3088 237.280675 
L 142.798629 238.187121 
L 141.778286 237.215141 
L 140.247771 235.220906 
L 139.7376 234.185302 
L 139.227429 233.693086 
L 137.696914 230.716323 
L 137.186743 229.425533 
L 136.676571 228.682653 
L 135.146057 224.958614 
L 134.635886 224.44605 
L 134.125714 223.531495 
L 133.615543 222.200258 
L 133.105371 216.057213 
L 132.085029 212.910759 
L 130.554514 206.57583 
L 129.534171 201.191382 
L 128.513829 194.751404 
L 123.922286 162.861346 
L 119.330743 133.718371 
L 116.779886 116.642171 
L 115.249371 104.268778 
L 113.718857 89.542687 
L 113.208686 84.053177 
L 112.698514 77.26437 
L 112.188343 72.243277 
L 111.168 58.338944 
L 110.147657 39.658419 
L 109.637486 27.573481 
L 108.76348 -1 
L 108.76348 -1 
" clip-path="url(#p411d97af82)" style="fill: none; stroke: #561fa9; stroke-width: 0.5; stroke-linecap: square"/>
   </g>
   <g id="line2d_27">
    <path d="M 363.702857 309.176259 
L 363.192686 309.002001 
L 361.152 309.008514 
L 350.948571 308.700306 
L 343.806171 308.211335 
L 338.194286 307.584 
L 336.1536 307.406072 
L 332.072229 306.997892 
L 329.0112 306.61718 
L 321.8688 306.087921 
L 320.848457 305.874993 
L 317.787429 305.574073 
L 315.746743 305.258162 
L 313.706057 304.950197 
L 306.053486 303.254815 
L 302.992457 302.350885 
L 297.380571 300.161674 
L 296.360229 299.618131 
L 292.278857 298.234268 
L 289.728 297.152395 
L 284.626286 294.280174 
L 270.851657 285.110439 
L 264.7296 281.652798 
L 258.097371 278.27998 
L 257.5872 278.145088 
L 256.566857 277.637493 
L 254.016 276.43836 
L 250.954971 275.060457 
L 242.282057 271.933132 
L 236.16 269.611711 
L 234.119314 268.511867 
L 232.078629 267.124612 
L 229.527771 264.968111 
L 227.487086 262.879546 
L 225.4464 260.419872 
L 223.405714 257.696365 
L 221.8752 255.484877 
L 219.324343 251.502679 
L 216.773486 247.251748 
L 213.712457 241.602261 
L 212.181943 238.61577 
L 208.610743 230.859108 
L 203.509029 218.072971 
L 193.3056 191.360666 
L 191.264914 186.90423 
L 189.7344 184.029119 
L 188.203886 181.739259 
L 187.183543 180.424022 
L 185.653029 178.80895 
L 184.632686 178.084463 
L 183.102171 177.331609 
L 182.081829 177.026976 
L 181.061486 176.861368 
L 179.0208 177.242005 
L 178.000457 177.759804 
L 176.980114 178.531903 
L 175.4496 180.294685 
L 174.939429 180.916932 
L 173.408914 183.485677 
L 171.368229 187.660387 
L 169.327543 192.441483 
L 165.246171 203.051869 
L 163.205486 208.801826 
L 157.5936 224.429373 
L 156.063086 228.231397 
L 154.0224 232.564332 
L 152.491886 235.305895 
L 151.471543 236.8271 
L 150.4512 238.121069 
L 149.941029 238.514686 
L 149.430857 239.070268 
L 147.390171 240.107948 
L 144.839314 239.979582 
L 144.329143 239.659299 
L 143.818971 239.643179 
L 143.3088 238.021439 
L 142.798629 239.031996 
L 141.268114 237.578427 
L 140.757943 237.048461 
L 140.247771 236.019036 
L 139.7376 235.684781 
L 138.207086 233.11285 
L 137.696914 231.896735 
L 137.186743 231.21574 
L 136.1664 229.1916 
L 135.656229 227.954019 
L 135.146057 227.363753 
L 134.635886 226.41039 
L 134.125714 225.831683 
L 133.615543 224.360574 
L 133.105371 218.430417 
L 132.5952 217.378059 
L 130.554514 211.474543 
L 129.534171 207.773127 
L 128.513829 203.364427 
L 127.493486 198.679657 
L 125.4528 187.791641 
L 122.391771 169.599691 
L 117.800229 138.853143 
L 116.269714 126.900357 
L 114.7392 113.201206 
L 113.208686 97.477981 
L 112.698514 90.665845 
L 112.188343 85.637614 
L 111.168 71.651013 
L 110.147657 53.063833 
L 109.637486 40.586877 
L 109.127314 25.075615 
L 108.487992 -1 
L 108.487992 -1 
" clip-path="url(#p411d97af82)" style="fill: none; stroke: #481fb7; stroke-width: 0.5; stroke-linecap: square"/>
   </g>
   <g id="line2d_28">
    <path d="M 363.702857 309.038375 
L 363.192686 308.8425 
L 362.172343 308.86679 
L 361.152 308.867642 
L 357.5808 308.821688 
L 356.050286 308.740164 
L 355.029943 308.730382 
L 345.336686 308.277166 
L 337.684114 307.519293 
L 336.1536 307.418498 
L 333.092571 307.193105 
L 327.480686 306.738595 
L 324.929829 306.567111 
L 318.807771 306.115879 
L 314.7264 305.602788 
L 304.522971 303.397992 
L 299.931429 301.880956 
L 297.890743 301.091673 
L 294.319543 299.720205 
L 292.278857 299.087891 
L 288.197486 297.287649 
L 286.1568 296.079654 
L 284.116114 294.897412 
L 273.402514 287.690521 
L 270.341486 285.803033 
L 265.749943 283.208172 
L 263.199086 281.864027 
L 257.5872 279.069349 
L 256.056686 278.412755 
L 253.505829 277.1539 
L 246.8736 274.51693 
L 245.343086 273.968075 
L 244.832914 273.688318 
L 241.261714 272.618869 
L 235.139657 270.18532 
L 233.609143 269.315623 
L 231.568457 267.898602 
L 230.037943 266.617967 
L 228.507429 265.164329 
L 226.466743 262.945964 
L 224.426057 260.394247 
L 221.8752 256.810041 
L 217.793829 250.318083 
L 214.222629 243.887608 
L 211.671771 238.787842 
L 209.120914 233.223584 
L 206.059886 225.778884 
L 202.998857 217.847415 
L 197.897143 204.218365 
L 194.836114 196.268536 
L 192.795429 191.329817 
L 190.754743 187.067141 
L 189.224229 184.398336 
L 187.693714 182.245017 
L 185.653029 180.125404 
L 184.632686 179.420161 
L 183.612343 178.874961 
L 182.081829 178.458742 
L 181.061486 178.381193 
L 180.041143 178.520483 
L 178.510629 179.07179 
L 177.490286 179.89376 
L 176.980114 180.320236 
L 175.4496 182.179998 
L 174.429257 183.766493 
L 172.898743 186.574774 
L 170.858057 190.982727 
L 168.3072 197.156411 
L 165.246171 205.034499 
L 159.634286 220.538056 
L 158.103771 224.716877 
L 156.063086 229.693274 
L 155.042743 231.881561 
L 153.512229 234.860445 
L 151.981714 237.413772 
L 150.4512 239.255736 
L 149.941029 239.658116 
L 149.430857 240.205603 
L 147.900343 240.933296 
L 147.390171 241.05229 
L 145.349486 240.864483 
L 144.839314 240.715855 
L 144.329143 240.323249 
L 143.818971 240.259235 
L 143.3088 238.563236 
L 142.798629 239.493309 
L 141.268114 237.973181 
L 140.757943 237.083635 
L 140.247771 236.580798 
L 138.717257 234.008088 
L 138.207086 232.731414 
L 137.696914 231.976796 
L 136.676571 229.869013 
L 136.1664 228.52206 
L 134.635886 226.137685 
L 134.125714 224.911656 
L 133.615543 224.565994 
L 133.105371 219.026143 
L 132.085029 216.569327 
L 130.554514 212.047442 
L 129.534171 208.518837 
L 127.493486 199.692937 
L 121.8816 169.309135 
L 118.820571 150.653632 
L 116.779886 136.573064 
L 115.249371 123.920786 
L 113.718857 108.917251 
L 113.208686 103.468346 
L 112.698514 96.705909 
L 112.188343 91.547891 
L 111.168 77.316719 
L 110.657829 68.523044 
L 109.637486 44.765329 
L 109.127314 28.370633 
L 108.464581 -1 
L 108.464581 -1 
" clip-path="url(#p411d97af82)" style="fill: none; stroke: #3a1fc5; stroke-width: 0.5; stroke-linecap: square"/>
   </g>
   <g id="line2d_29">
    <path d="M 363.702857 309.127669 
L 363.192686 308.937877 
L 361.662171 308.954388 
L 357.5808 308.845818 
L 356.560457 308.849685 
L 355.540114 308.827891 
L 353.499429 308.754953 
L 350.948571 308.638125 
L 348.397714 308.516747 
L 343.296 308.120178 
L 342.275657 307.962594 
L 340.745143 307.855803 
L 338.704457 307.618025 
L 332.5824 307.103534 
L 322.378971 306.275087 
L 321.8688 306.349275 
L 321.358629 306.167013 
L 313.195886 305.122194 
L 305.543314 303.379241 
L 302.992457 302.532676 
L 297.380571 300.009416 
L 296.360229 299.477947 
L 293.809371 298.549353 
L 292.278857 297.995016 
L 289.728 296.820442 
L 288.197486 295.940749 
L 284.626286 293.42344 
L 278.504229 288.310223 
L 274.422857 284.884212 
L 271.361829 282.405765 
L 264.7296 277.828796 
L 261.1584 275.669519 
L 256.566857 273.138544 
L 250.954971 270.139142 
L 246.8736 268.289204 
L 245.343086 267.638204 
L 244.322743 267.181479 
L 235.649829 264.135874 
L 232.5888 262.482162 
L 231.058286 261.459667 
L 227.997257 258.795441 
L 226.466743 257.244586 
L 224.936229 255.54367 
L 222.385371 252.342936 
L 217.793829 245.801655 
L 214.222629 240.037985 
L 210.141257 232.36751 
L 208.100571 228.046841 
L 206.059886 223.365818 
L 201.978514 213.57468 
L 195.346286 197.393017 
L 193.815771 193.915962 
L 191.775086 189.675295 
L 190.244571 186.944815 
L 188.203886 184.083187 
L 186.673371 182.543919 
L 185.653029 181.625736 
L 184.122514 180.824584 
L 182.592 180.348448 
L 180.551314 180.318576 
L 179.0208 180.791064 
L 178.000457 181.356289 
L 176.469943 182.739227 
L 174.939429 184.6551 
L 173.919086 186.247292 
L 172.388571 189.05199 
L 170.858057 192.268321 
L 167.286857 200.594326 
L 164.225829 208.319655 
L 157.5936 225.594969 
L 155.552914 230.139708 
L 153.512229 233.871314 
L 151.981714 236.055034 
L 150.961371 237.296376 
L 150.4512 237.746691 
L 149.941029 238.04264 
L 149.430857 238.469691 
L 148.410514 238.867307 
L 146.88 238.844083 
L 145.859657 238.559606 
L 144.839314 238.142654 
L 144.329143 237.68873 
L 143.818971 237.468724 
L 143.3088 235.794218 
L 142.798629 236.506691 
L 141.778286 235.413291 
L 141.268114 234.792537 
L 140.757943 233.842221 
L 140.247771 233.201528 
L 138.717257 230.500657 
L 138.207086 229.06141 
L 137.696914 228.350953 
L 136.1664 224.560646 
L 135.656229 224.072409 
L 134.125714 220.585699 
L 133.615543 220.259632 
L 133.105371 213.581976 
L 132.085029 210.754014 
L 130.554514 205.118432 
L 129.534171 200.505568 
L 128.003657 192.170284 
L 123.922286 167.040085 
L 122.391771 158.303301 
L 117.800229 129.714777 
L 116.779886 122.463423 
L 115.759543 114.251284 
L 114.229029 99.933798 
L 113.208686 88.759906 
L 111.168 61.068338 
L 110.147657 40.311382 
L 109.637486 26.514405 
L 108.903321 -1 
L 108.903321 -1 
" clip-path="url(#p411d97af82)" style="fill: none; stroke: #2c1fd3; stroke-width: 0.5; stroke-linecap: square"/>
   </g>
   <g id="line2d_30">
    <path d="M 363.702857 309.256581 
L 363.192686 309.087152 
L 357.5808 309.030889 
L 356.560457 308.973428 
L 350.4384 308.707724 
L 340.234971 307.806726 
L 339.214629 307.640267 
L 338.194286 307.584 
L 336.663771 307.416961 
L 333.602743 307.112585 
L 316.256914 305.228032 
L 307.584 303.430309 
L 305.033143 302.680653 
L 302.992457 301.92315 
L 299.421257 300.365591 
L 297.380571 299.27798 
L 295.850057 298.5288 
L 294.319543 298.039165 
L 290.238171 296.551297 
L 288.707657 295.775586 
L 284.116114 292.775303 
L 269.321143 281.509034 
L 266.770286 279.847857 
L 264.7296 278.534835 
L 254.526171 272.878759 
L 251.465143 271.328977 
L 246.363429 269.185618 
L 245.853257 269.017991 
L 244.832914 268.461546 
L 241.261714 267.311144 
L 237.690514 266.118659 
L 234.119314 264.541393 
L 232.078629 263.386295 
L 229.527771 261.558976 
L 226.976914 259.278134 
L 224.936229 257.152847 
L 221.8752 253.492066 
L 217.793829 247.837676 
L 214.7328 242.984397 
L 212.692114 239.404084 
L 210.651429 235.484737 
L 208.100571 230.154179 
L 201.468343 214.222633 
L 194.836114 197.883941 
L 192.795429 193.288121 
L 190.754743 189.271828 
L 189.224229 186.768154 
L 187.693714 184.814968 
L 186.1632 183.278661 
L 185.142857 182.452488 
L 184.632686 182.130288 
L 182.081829 181.27033 
L 181.061486 181.196217 
L 179.530971 181.422125 
L 178.510629 181.829765 
L 177.490286 182.462626 
L 176.469943 183.430998 
L 174.939429 185.263782 
L 173.919086 186.79915 
L 171.8784 190.638072 
L 168.817371 197.233764 
L 164.736 206.98295 
L 157.5936 224.996253 
L 155.042743 230.363406 
L 152.491886 234.505692 
L 150.961371 236.300567 
L 149.941029 237.053685 
L 149.430857 237.424686 
L 148.410514 237.760236 
L 147.390171 237.835334 
L 144.839314 236.886056 
L 144.329143 236.39417 
L 143.818971 236.212668 
L 143.3088 234.425466 
L 142.798629 235.2012 
L 141.268114 233.256558 
L 140.757943 232.293989 
L 140.247771 231.694047 
L 138.717257 228.894491 
L 138.207086 227.427843 
L 137.186743 225.390505 
L 136.1664 222.832697 
L 135.656229 222.099234 
L 135.146057 220.927055 
L 134.635886 220.130001 
L 134.125714 218.810079 
L 133.615543 218.427797 
L 133.105371 211.228211 
L 131.574857 207.002136 
L 130.044343 201.37964 
L 129.024 197.024763 
L 127.493486 189.253997 
L 121.8816 158.666421 
L 118.3104 137.43321 
L 116.269714 122.948531 
L 114.7392 109.309958 
L 113.718857 98.938274 
L 113.208686 93.076269 
L 112.698514 85.780172 
L 112.188343 80.30811 
L 111.168 64.762692 
L 110.147657 43.082623 
L 109.637486 28.500369 
L 108.903208 -1 
L 108.903208 -1 
" clip-path="url(#p411d97af82)" style="fill: none; stroke: #1f1fe0; stroke-width: 0.5; stroke-linecap: square"/>
   </g>
   <g id="patch_3">
    <path d="M 57.6 307.584 
L 57.6 41.472 
" style="fill: none; stroke: #000000; stroke-width: 0.8; stroke-linejoin: miter; stroke-linecap: square"/>
   </g>
   <g id="patch_4">
    <path d="M 414.72 307.584 
L 414.72 41.472 
" style="fill: none; stroke: #000000; stroke-width: 0.8; stroke-linejoin: miter; stroke-linecap: square"/>
   </g>
   <g id="patch_5">
    <path d="M 57.6 307.584 
L 414.72 307.584 
" style="fill: none; stroke: #000000; stroke-width: 0.8; stroke-linejoin: miter; stroke-linecap: square"/>
   </g>
   <g id="patch_6">
    <path d="M 57.6 41.472 
L 414.72 41.472 
" style="fill: none; stroke: #000000; stroke-width: 0.8; stroke-linejoin: miter; stroke-linecap: square"/>
   </g>
   <g id="text_18">
    <!-- IDA Titration of Alizarin:ompPBA complex &amp; Catechol in DMF  -->
    <g transform="translate(53.132812 22.034625) scale(0.12 -0.12)">
     <defs>
      <path id="DejaVuSans-49" d="M 628 4666 
L 1259 4666 
L 1259 0 
L 628 0 
L 628 4666 
z
" transform="scale(0.015625)"/>
      <path id="DejaVuSans-44" d="M 1259 4147 
L 1259 519 
L 2022 519 
Q 2988 519 3436 956 
Q 3884 1394 3884 2338 
Q 3884 3275 3436 3711 
Q 2988 4147 2022 4147 
L 1259 4147 
z
M 628 4666 
L 1925 4666 
Q 3281 4666 3915 4102 
Q 4550 3538 4550 2338 
Q 4550 1131 3912 565 
Q 3275 0 1925 0 
L 628 0 
L 628 4666 
z
" transform="scale(0.015625)"/>
      <path id="DejaVuSans-54" d="M -19 4666 
L 3928 4666 
L 3928 4134 
L 2272 4134 
L 2272 0 
L 1638 0 
L 1638 4134 
L -19 4134 
L -19 4666 
z
" transform="scale(0.015625)"/>
      <path id="DejaVuSans-69" d="M 603 3500 
L 1178 3500 
L 1178 0 
L 603 0 
L 603 3500 
z
M 603 4863 
L 1178 4863 
L 1178 4134 
L 603 4134 
L 603 4863 
z
" transform="scale(0.015625)"/>
      <path id="DejaVuSans-66" d="M 2375 4863 
L 2375 4384 
L 1825 4384 
Q 1516 4384 1395 4259 
Q 1275 4134 1275 3809 
L 1275 3500 
L 2222 3500 
L 2222 3053 
L 1275 3053 
L 1275 0 
L 697 0 
L 697 3053 
L 147 3053 
L 147 3500 
L 697 3500 
L 697 3744 
Q 697 4328 969 4595 
Q 1241 4863 1831 4863 
L 2375 4863 
z
" transform="scale(0.015625)"/>
      <path id="DejaVuSans-7a" d="M 353 3500 
L 3084 3500 
L 3084 2975 
L 922 459 
L 3084 459 
L 3084 0 
L 275 0 
L 275 525 
L 2438 3041 
L 353 3041 
L 353 3500 
z
" transform="scale(0.015625)"/>
      <path id="DejaVuSans-3a" d="M 750 794 
L 1409 794 
L 1409 0 
L 750 0 
L 750 794 
z
M 750 3309 
L 1409 3309 
L 1409 2516 
L 750 2516 
L 750 3309 
z
" transform="scale(0.015625)"/>
      <path id="DejaVuSans-70" d="M 1159 525 
L 1159 -1331 
L 581 -1331 
L 581 3500 
L 1159 3500 
L 1159 2969 
Q 1341 3281 1617 3432 
Q 1894 3584 2278 3584 
Q 2916 3584 3314 3078 
Q 3713 2572 3713 1747 
Q 3713 922 3314 415 
Q 2916 -91 2278 -91 
Q 1894 -91 1617 61 
Q 1341 213 1159 525 
z
M 3116 1747 
Q 3116 2381 2855 2742 
Q 2594 3103 2138 3103 
Q 1681 3103 1420 2742 
Q 1159 2381 1159 1747 
Q 1159 1113 1420 752 
Q 1681 391 2138 391 
Q 2594 391 2855 752 
Q 3116 1113 3116 1747 
z
" transform="scale(0.015625)"/>
      <path id="DejaVuSans-50" d="M 1259 4147 
L 1259 2394 
L 2053 2394 
Q 2494 2394 2734 2622 
Q 2975 2850 2975 3272 
Q 2975 3691 2734 3919 
Q 2494 4147 2053 4147 
L 1259 4147 
z
M 628 4666 
L 2053 4666 
Q 2838 4666 3239 4311 
Q 3641 3956 3641 3272 
Q 3641 2581 3239 2228 
Q 2838 1875 2053 1875 
L 1259 1875 
L 1259 0 
L 628 0 
L 628 4666 
z
" transform="scale(0.015625)"/>
      <path id="DejaVuSans-42" d="M 1259 2228 
L 1259 519 
L 2272 519 
Q 2781 519 3026 730 
Q 3272 941 3272 1375 
Q 3272 1813 3026 2020 
Q 2781 2228 2272 2228 
L 1259 2228 
z
M 1259 4147 
L 1259 2741 
L 2194 2741 
Q 2656 2741 2882 2914 
Q 3109 3088 3109 3444 
Q 3109 3797 2882 3972 
Q 2656 4147 2194 4147 
L 1259 4147 
z
M 628 4666 
L 2241 4666 
Q 2963 4666 3353 4366 
Q 3744 4066 3744 3513 
Q 3744 3084 3544 2831 
Q 3344 2578 2956 2516 
Q 3422 2416 3680 2098 
Q 3938 1781 3938 1306 
Q 3938 681 3513 340 
Q 3088 0 2303 0 
L 628 0 
L 628 4666 
z
" transform="scale(0.015625)"/>
      <path id="DejaVuSans-78" d="M 3513 3500 
L 2247 1797 
L 3578 0 
L 2900 0 
L 1881 1375 
L 863 0 
L 184 0 
L 1544 1831 
L 300 3500 
L 978 3500 
L 1906 2253 
L 2834 3500 
L 3513 3500 
z
" transform="scale(0.015625)"/>
      <path id="DejaVuSans-26" d="M 1556 2509 
Q 1272 2256 1139 2004 
Q 1006 1753 1006 1478 
Q 1006 1022 1337 719 
Q 1669 416 2169 416 
Q 2466 416 2725 514 
Q 2984 613 3213 813 
L 1556 2509 
z
M 1997 2859 
L 3584 1234 
Q 3769 1513 3872 1830 
Q 3975 2147 3994 2503 
L 4575 2503 
Q 4538 2091 4375 1687 
Q 4213 1284 3922 891 
L 4794 0 
L 4006 0 
L 3559 459 
Q 3234 181 2878 45 
Q 2522 -91 2113 -91 
Q 1359 -91 881 339 
Q 403 769 403 1441 
Q 403 1841 612 2192 
Q 822 2544 1241 2853 
Q 1091 3050 1012 3245 
Q 934 3441 934 3628 
Q 934 4134 1281 4442 
Q 1628 4750 2203 4750 
Q 2463 4750 2720 4694 
Q 2978 4638 3244 4525 
L 3244 3956 
Q 2972 4103 2725 4179 
Q 2478 4256 2266 4256 
Q 1938 4256 1733 4082 
Q 1528 3909 1528 3634 
Q 1528 3475 1620 3314 
Q 1713 3153 1997 2859 
z
" transform="scale(0.015625)"/>
      <path id="DejaVuSans-43" d="M 4122 4306 
L 4122 3641 
Q 3803 3938 3442 4084 
Q 3081 4231 2675 4231 
Q 1875 4231 1450 3742 
Q 1025 3253 1025 2328 
Q 1025 1406 1450 917 
Q 1875 428 2675 428 
Q 3081 428 3442 575 
Q 3803 722 4122 1019 
L 4122 359 
Q 3791 134 3420 21 
Q 3050 -91 2638 -91 
Q 1578 -91 968 557 
Q 359 1206 359 2328 
Q 359 3453 968 4101 
Q 1578 4750 2638 4750 
Q 3056 4750 3426 4639 
Q 3797 4528 4122 4306 
z
" transform="scale(0.015625)"/>
      <path id="DejaVuSans-4d" d="M 628 4666 
L 1569 4666 
L 2759 1491 
L 3956 4666 
L 4897 4666 
L 4897 0 
L 4281 0 
L 4281 4097 
L 3078 897 
L 2444 897 
L 1241 4097 
L 1241 0 
L 628 0 
L 628 4666 
z
" transform="scale(0.015625)"/>
      <path id="DejaVuSans-46" d="M 628 4666 
L 3309 4666 
L 3309 4134 
L 1259 4134 
L 1259 2759 
L 3109 2759 
L 3109 2228 
L 1259 2228 
L 1259 0 
L 628 0 
L 628 4666 
z
" transform="scale(0.015625)"/>
     </defs>
     <use xlink:href="#DejaVuSans-49"/>
     <use xlink:href="#DejaVuSans-44" x="29.492188"/>
     <use xlink:href="#DejaVuSans-41" x="104.744141"/>
     <use xlink:href="#DejaVuSans-20" x="173.152344"/>
     <use xlink:href="#DejaVuSans-54" x="204.939453"/>
     <use xlink:href="#DejaVuSans-69" x="262.898438"/>
     <use xlink:href="#DejaVuSans-74" x="290.681641"/>
     <use xlink:href="#DejaVuSans-72" x="329.890625"/>
     <use xlink:href="#DejaVuSans-61" x="371.003906"/>
     <use xlink:href="#DejaVuSans-74" x="432.283203"/>
     <use xlink:href="#DejaVuSans-69" x="471.492188"/>
     <use xlink:href="#DejaVuSans-6f" x="499.275391"/>
     <use xlink:href="#DejaVuSans-6e" x="560.457031"/>
     <use xlink:href="#DejaVuSans-20" x="623.835938"/>
     <use xlink:href="#DejaVuSans-6f" x="655.623047"/>
     <use xlink:href="#DejaVuSans-66" x="716.804688"/>
     <use xlink:href="#DejaVuSans-20" x="752.009766"/>
     <use xlink:href="#DejaVuSans-41" x="783.796875"/>
     <use xlink:href="#DejaVuSans-6c" x="852.205078"/>
     <use xlink:href="#DejaVuSans-69" x="879.988281"/>
     <use xlink:href="#DejaVuSans-7a" x="907.771484"/>
     <use xlink:href="#DejaVuSans-61" x="960.261719"/>
     <use xlink:href="#DejaVuSans-72" x="1021.541016"/>
     <use xlink:href="#DejaVuSans-69" x="1062.654297"/>
     <use xlink:href="#DejaVuSans-6e" x="1090.4375"/>
     <use xlink:href="#DejaVuSans-3a" x="1153.816406"/>
     <use xlink:href="#DejaVuSans-6f" x="1187.507812"/>
     <use xlink:href="#DejaVuSans-6d" x="1248.689453"/>
     <use xlink:href="#DejaVuSans-70" x="1346.101562"/>
     <use xlink:href="#DejaVuSans-50" x="1409.578125"/>
     <use xlink:href="#DejaVuSans-42" x="1469.880859"/>
     <use xlink:href="#DejaVuSans-41" x="1538.484375"/>
     <use xlink:href="#DejaVuSans-20" x="1606.892578"/>
     <use xlink:href="#DejaVuSans-63" x="1638.679688"/>
     <use xlink:href="#DejaVuSans-6f" x="1693.660156"/>
     <use xlink:href="#DejaVuSans-6d" x="1754.841797"/>
     <use xlink:href="#DejaVuSans-70" x="1852.253906"/>
     <use xlink:href="#DejaVuSans-6c" x="1915.730469"/>
     <use xlink:href="#DejaVuSans-65" x="1943.513672"/>
     <use xlink:href="#DejaVuSans-78" x="2003.287109"/>
     <use xlink:href="#DejaVuSans-20" x="2062.466797"/>
     <use xlink:href="#DejaVuSans-26" x="2094.253906"/>
     <use xlink:href="#DejaVuSans-20" x="2172.232422"/>
     <use xlink:href="#DejaVuSans-43" x="2204.019531"/>
     <use xlink:href="#DejaVuSans-61" x="2273.84375"/>
     <use xlink:href="#DejaVuSans-74" x="2335.123047"/>
     <use xlink:href="#DejaVuSans-65" x="2374.332031"/>
     <use xlink:href="#DejaVuSans-63" x="2435.855469"/>
     <use xlink:href="#DejaVuSans-68" x="2490.835938"/>
     <use xlink:href="#DejaVuSans-6f" x="2554.214844"/>
     <use xlink:href="#DejaVuSans-6c" x="2615.396484"/>
     <use xlink:href="#DejaVuSans-20" x="2643.179688"/>
     <use xlink:href="#DejaVuSans-69" x="2674.966797"/>
     <use xlink:href="#DejaVuSans-6e" x="2702.75"/>
     <use xlink:href="#DejaVuSans-20" x="2766.128906"/>
     <use xlink:href="#DejaVuSans-44" x="2797.916016"/>
     <use xlink:href="#DejaVuSans-4d" x="2874.917969"/>
     <use xlink:href="#DejaVuSans-46" x="2961.197266"/>
     <use xlink:href="#DejaVuSans-20" x="3018.716797"/>
    </g>
    <!--  -->
    <g transform="translate(236.16 35.472) scale(0.12 -0.12)"/>
   </g>
  </g>
 </g>
 <defs>
  <clipPath id="p411d97af82">
   <rect x="57.6" y="41.472" width="357.12" height="266.112"/>
  </clipPath>
 </defs>
</svg>
