<?xml version="1.0" encoding="utf-8" standalone="no"?>
<!DOCTYPE svg PUBLIC "-//W3C//DTD SVG 1.1//EN"
  "http://www.w3.org/Graphics/SVG/1.1/DTD/svg11.dtd">
<svg xmlns:xlink="http://www.w3.org/1999/xlink" width="460.8pt" height="345.6pt" viewBox="0 0 460.8 345.6" xmlns="http://www.w3.org/2000/svg" version="1.1">
 <metadata>
  <rdf:RDF xmlns:dc="http://purl.org/dc/elements/1.1/" xmlns:cc="http://creativecommons.org/ns#" xmlns:rdf="http://www.w3.org/1999/02/22-rdf-syntax-ns#">
   <cc:Work>
    <dc:type rdf:resource="http://purl.org/dc/dcmitype/StillImage"/>
    <dc:date>2024-11-03T21:07:34.388821</dc:date>
    <dc:format>image/svg+xml</dc:format>
    <dc:creator>
     <cc:Agent>
      <dc:title>Matplotlib v3.9.2, https://matplotlib.org/</dc:title>
     </cc:Agent>
    </dc:creator>
   </cc:Work>
  </rdf:RDF>
 </metadata>
 <defs>
  <style type="text/css">*{stroke-linejoin: round; stroke-linecap: butt}</style>
 </defs>
 <g id="figure_1">
  <g id="patch_1">
   <path d="M 0 345.6 
L 460.8 345.6 
L 460.8 0 
L 0 0 
z
" style="fill: #ffffff"/>
  </g>
  <g id="axes_1">
   <g id="patch_2">
    <path d="M 57.6 307.584 
L 414.72 307.584 
L 414.72 41.472 
L 57.6 41.472 
z
" style="fill: #ffffff"/>
   </g>
   <g id="matplotlib.axis_1">
    <g id="xtick_1">
     <g id="line2d_1">
      <defs>
       <path id="mf3760b73df" d="M 0 0 
L 0 3.5 
" style="stroke: #000000; stroke-width: 0.8"/>
      </defs>
      <g>
       <use xlink:href="#mf3760b73df" x="57.6" y="307.584" style="stroke: #000000; stroke-width: 0.8"/>
      </g>
     </g>
     <g id="text_1">
      <!-- 200 -->
      <g transform="translate(48.05625 322.182437) scale(0.1 -0.1)">
       <defs>
        <path id="DejaVuSans-32" d="M 1228 531 
L 3431 531 
L 3431 0 
L 469 0 
L 469 531 
Q 828 903 1448 1529 
Q 2069 2156 2228 2338 
Q 2531 2678 2651 2914 
Q 2772 3150 2772 3378 
Q 2772 3750 2511 3984 
Q 2250 4219 1831 4219 
Q 1534 4219 1204 4116 
Q 875 4013 500 3803 
L 500 4441 
Q 881 4594 1212 4672 
Q 1544 4750 1819 4750 
Q 2544 4750 2975 4387 
Q 3406 4025 3406 3419 
Q 3406 3131 3298 2873 
Q 3191 2616 2906 2266 
Q 2828 2175 2409 1742 
Q 1991 1309 1228 531 
z
" transform="scale(0.015625)"/>
        <path id="DejaVuSans-30" d="M 2034 4250 
Q 1547 4250 1301 3770 
Q 1056 3291 1056 2328 
Q 1056 1369 1301 889 
Q 1547 409 2034 409 
Q 2525 409 2770 889 
Q 3016 1369 3016 2328 
Q 3016 3291 2770 3770 
Q 2525 4250 2034 4250 
z
M 2034 4750 
Q 2819 4750 3233 4129 
Q 3647 3509 3647 2328 
Q 3647 1150 3233 529 
Q 2819 -91 2034 -91 
Q 1250 -91 836 529 
Q 422 1150 422 2328 
Q 422 3509 836 4129 
Q 1250 4750 2034 4750 
z
" transform="scale(0.015625)"/>
       </defs>
       <use xlink:href="#DejaVuSans-32"/>
       <use xlink:href="#DejaVuSans-30" x="63.623047"/>
       <use xlink:href="#DejaVuSans-30" x="127.246094"/>
      </g>
     </g>
    </g>
    <g id="xtick_2">
     <g id="line2d_2">
      <g>
       <use xlink:href="#mf3760b73df" x="108.617143" y="307.584" style="stroke: #000000; stroke-width: 0.8"/>
      </g>
     </g>
     <g id="text_2">
      <!-- 300 -->
      <g transform="translate(99.073393 322.182437) scale(0.1 -0.1)">
       <defs>
        <path id="DejaVuSans-33" d="M 2597 2516 
Q 3050 2419 3304 2112 
Q 3559 1806 3559 1356 
Q 3559 666 3084 287 
Q 2609 -91 1734 -91 
Q 1441 -91 1130 -33 
Q 819 25 488 141 
L 488 750 
Q 750 597 1062 519 
Q 1375 441 1716 441 
Q 2309 441 2620 675 
Q 2931 909 2931 1356 
Q 2931 1769 2642 2001 
Q 2353 2234 1838 2234 
L 1294 2234 
L 1294 2753 
L 1863 2753 
Q 2328 2753 2575 2939 
Q 2822 3125 2822 3475 
Q 2822 3834 2567 4026 
Q 2313 4219 1838 4219 
Q 1578 4219 1281 4162 
Q 984 4106 628 3988 
L 628 4550 
Q 988 4650 1302 4700 
Q 1616 4750 1894 4750 
Q 2613 4750 3031 4423 
Q 3450 4097 3450 3541 
Q 3450 3153 3228 2886 
Q 3006 2619 2597 2516 
z
" transform="scale(0.015625)"/>
       </defs>
       <use xlink:href="#DejaVuSans-33"/>
       <use xlink:href="#DejaVuSans-30" x="63.623047"/>
       <use xlink:href="#DejaVuSans-30" x="127.246094"/>
      </g>
     </g>
    </g>
    <g id="xtick_3">
     <g id="line2d_3">
      <g>
       <use xlink:href="#mf3760b73df" x="159.634286" y="307.584" style="stroke: #000000; stroke-width: 0.8"/>
      </g>
     </g>
     <g id="text_3">
      <!-- 400 -->
      <g transform="translate(150.090536 322.182437) scale(0.1 -0.1)">
       <defs>
        <path id="DejaVuSans-34" d="M 2419 4116 
L 825 1625 
L 2419 1625 
L 2419 4116 
z
M 2253 4666 
L 3047 4666 
L 3047 1625 
L 3713 1625 
L 3713 1100 
L 3047 1100 
L 3047 0 
L 2419 0 
L 2419 1100 
L 313 1100 
L 313 1709 
L 2253 4666 
z
" transform="scale(0.015625)"/>
       </defs>
       <use xlink:href="#DejaVuSans-34"/>
       <use xlink:href="#DejaVuSans-30" x="63.623047"/>
       <use xlink:href="#DejaVuSans-30" x="127.246094"/>
      </g>
     </g>
    </g>
    <g id="xtick_4">
     <g id="line2d_4">
      <g>
       <use xlink:href="#mf3760b73df" x="210.651429" y="307.584" style="stroke: #000000; stroke-width: 0.8"/>
      </g>
     </g>
     <g id="text_4">
      <!-- 500 -->
      <g transform="translate(201.107679 322.182437) scale(0.1 -0.1)">
       <defs>
        <path id="DejaVuSans-35" d="M 691 4666 
L 3169 4666 
L 3169 4134 
L 1269 4134 
L 1269 2991 
Q 1406 3038 1543 3061 
Q 1681 3084 1819 3084 
Q 2600 3084 3056 2656 
Q 3513 2228 3513 1497 
Q 3513 744 3044 326 
Q 2575 -91 1722 -91 
Q 1428 -91 1123 -41 
Q 819 9 494 109 
L 494 744 
Q 775 591 1075 516 
Q 1375 441 1709 441 
Q 2250 441 2565 725 
Q 2881 1009 2881 1497 
Q 2881 1984 2565 2268 
Q 2250 2553 1709 2553 
Q 1456 2553 1204 2497 
Q 953 2441 691 2322 
L 691 4666 
z
" transform="scale(0.015625)"/>
       </defs>
       <use xlink:href="#DejaVuSans-35"/>
       <use xlink:href="#DejaVuSans-30" x="63.623047"/>
       <use xlink:href="#DejaVuSans-30" x="127.246094"/>
      </g>
     </g>
    </g>
    <g id="xtick_5">
     <g id="line2d_5">
      <g>
       <use xlink:href="#mf3760b73df" x="261.668571" y="307.584" style="stroke: #000000; stroke-width: 0.8"/>
      </g>
     </g>
     <g id="text_5">
      <!-- 600 -->
      <g transform="translate(252.124821 322.182437) scale(0.1 -0.1)">
       <defs>
        <path id="DejaVuSans-36" d="M 2113 2584 
Q 1688 2584 1439 2293 
Q 1191 2003 1191 1497 
Q 1191 994 1439 701 
Q 1688 409 2113 409 
Q 2538 409 2786 701 
Q 3034 994 3034 1497 
Q 3034 2003 2786 2293 
Q 2538 2584 2113 2584 
z
M 3366 4563 
L 3366 3988 
Q 3128 4100 2886 4159 
Q 2644 4219 2406 4219 
Q 1781 4219 1451 3797 
Q 1122 3375 1075 2522 
Q 1259 2794 1537 2939 
Q 1816 3084 2150 3084 
Q 2853 3084 3261 2657 
Q 3669 2231 3669 1497 
Q 3669 778 3244 343 
Q 2819 -91 2113 -91 
Q 1303 -91 875 529 
Q 447 1150 447 2328 
Q 447 3434 972 4092 
Q 1497 4750 2381 4750 
Q 2619 4750 2861 4703 
Q 3103 4656 3366 4563 
z
" transform="scale(0.015625)"/>
       </defs>
       <use xlink:href="#DejaVuSans-36"/>
       <use xlink:href="#DejaVuSans-30" x="63.623047"/>
       <use xlink:href="#DejaVuSans-30" x="127.246094"/>
      </g>
     </g>
    </g>
    <g id="xtick_6">
     <g id="line2d_6">
      <g>
       <use xlink:href="#mf3760b73df" x="312.685714" y="307.584" style="stroke: #000000; stroke-width: 0.8"/>
      </g>
     </g>
     <g id="text_6">
      <!-- 700 -->
      <g transform="translate(303.141964 322.182437) scale(0.1 -0.1)">
       <defs>
        <path id="DejaVuSans-37" d="M 525 4666 
L 3525 4666 
L 3525 4397 
L 1831 0 
L 1172 0 
L 2766 4134 
L 525 4134 
L 525 4666 
z
" transform="scale(0.015625)"/>
       </defs>
       <use xlink:href="#DejaVuSans-37"/>
       <use xlink:href="#DejaVuSans-30" x="63.623047"/>
       <use xlink:href="#DejaVuSans-30" x="127.246094"/>
      </g>
     </g>
    </g>
    <g id="xtick_7">
     <g id="line2d_7">
      <g>
       <use xlink:href="#mf3760b73df" x="363.702857" y="307.584" style="stroke: #000000; stroke-width: 0.8"/>
      </g>
     </g>
     <g id="text_7">
      <!-- 800 -->
      <g transform="translate(354.159107 322.182437) scale(0.1 -0.1)">
       <defs>
        <path id="DejaVuSans-38" d="M 2034 2216 
Q 1584 2216 1326 1975 
Q 1069 1734 1069 1313 
Q 1069 891 1326 650 
Q 1584 409 2034 409 
Q 2484 409 2743 651 
Q 3003 894 3003 1313 
Q 3003 1734 2745 1975 
Q 2488 2216 2034 2216 
z
M 1403 2484 
Q 997 2584 770 2862 
Q 544 3141 544 3541 
Q 544 4100 942 4425 
Q 1341 4750 2034 4750 
Q 2731 4750 3128 4425 
Q 3525 4100 3525 3541 
Q 3525 3141 3298 2862 
Q 3072 2584 2669 2484 
Q 3125 2378 3379 2068 
Q 3634 1759 3634 1313 
Q 3634 634 3220 271 
Q 2806 -91 2034 -91 
Q 1263 -91 848 271 
Q 434 634 434 1313 
Q 434 1759 690 2068 
Q 947 2378 1403 2484 
z
M 1172 3481 
Q 1172 3119 1398 2916 
Q 1625 2713 2034 2713 
Q 2441 2713 2670 2916 
Q 2900 3119 2900 3481 
Q 2900 3844 2670 4047 
Q 2441 4250 2034 4250 
Q 1625 4250 1398 4047 
Q 1172 3844 1172 3481 
z
" transform="scale(0.015625)"/>
       </defs>
       <use xlink:href="#DejaVuSans-38"/>
       <use xlink:href="#DejaVuSans-30" x="63.623047"/>
       <use xlink:href="#DejaVuSans-30" x="127.246094"/>
      </g>
     </g>
    </g>
    <g id="xtick_8">
     <g id="line2d_8">
      <g>
       <use xlink:href="#mf3760b73df" x="414.72" y="307.584" style="stroke: #000000; stroke-width: 0.8"/>
      </g>
     </g>
     <g id="text_8">
      <!-- 900 -->
      <g transform="translate(405.17625 322.182437) scale(0.1 -0.1)">
       <defs>
        <path id="DejaVuSans-39" d="M 703 97 
L 703 672 
Q 941 559 1184 500 
Q 1428 441 1663 441 
Q 2288 441 2617 861 
Q 2947 1281 2994 2138 
Q 2813 1869 2534 1725 
Q 2256 1581 1919 1581 
Q 1219 1581 811 2004 
Q 403 2428 403 3163 
Q 403 3881 828 4315 
Q 1253 4750 1959 4750 
Q 2769 4750 3195 4129 
Q 3622 3509 3622 2328 
Q 3622 1225 3098 567 
Q 2575 -91 1691 -91 
Q 1453 -91 1209 -44 
Q 966 3 703 97 
z
M 1959 2075 
Q 2384 2075 2632 2365 
Q 2881 2656 2881 3163 
Q 2881 3666 2632 3958 
Q 2384 4250 1959 4250 
Q 1534 4250 1286 3958 
Q 1038 3666 1038 3163 
Q 1038 2656 1286 2365 
Q 1534 2075 1959 2075 
z
" transform="scale(0.015625)"/>
       </defs>
       <use xlink:href="#DejaVuSans-39"/>
       <use xlink:href="#DejaVuSans-30" x="63.623047"/>
       <use xlink:href="#DejaVuSans-30" x="127.246094"/>
      </g>
     </g>
    </g>
    <g id="text_9">
     <!-- Wavelength (nm) -->
     <g transform="translate(192.967812 335.860562) scale(0.1 -0.1)">
      <defs>
       <path id="DejaVuSans-57" d="M 213 4666 
L 850 4666 
L 1831 722 
L 2809 4666 
L 3519 4666 
L 4500 722 
L 5478 4666 
L 6119 4666 
L 4947 0 
L 4153 0 
L 3169 4050 
L 2175 0 
L 1381 0 
L 213 4666 
z
" transform="scale(0.015625)"/>
       <path id="DejaVuSans-61" d="M 2194 1759 
Q 1497 1759 1228 1600 
Q 959 1441 959 1056 
Q 959 750 1161 570 
Q 1363 391 1709 391 
Q 2188 391 2477 730 
Q 2766 1069 2766 1631 
L 2766 1759 
L 2194 1759 
z
M 3341 1997 
L 3341 0 
L 2766 0 
L 2766 531 
Q 2569 213 2275 61 
Q 1981 -91 1556 -91 
Q 1019 -91 701 211 
Q 384 513 384 1019 
Q 384 1609 779 1909 
Q 1175 2209 1959 2209 
L 2766 2209 
L 2766 2266 
Q 2766 2663 2505 2880 
Q 2244 3097 1772 3097 
Q 1472 3097 1187 3025 
Q 903 2953 641 2809 
L 641 3341 
Q 956 3463 1253 3523 
Q 1550 3584 1831 3584 
Q 2591 3584 2966 3190 
Q 3341 2797 3341 1997 
z
" transform="scale(0.015625)"/>
       <path id="DejaVuSans-76" d="M 191 3500 
L 800 3500 
L 1894 563 
L 2988 3500 
L 3597 3500 
L 2284 0 
L 1503 0 
L 191 3500 
z
" transform="scale(0.015625)"/>
       <path id="DejaVuSans-65" d="M 3597 1894 
L 3597 1613 
L 953 1613 
Q 991 1019 1311 708 
Q 1631 397 2203 397 
Q 2534 397 2845 478 
Q 3156 559 3463 722 
L 3463 178 
Q 3153 47 2828 -22 
Q 2503 -91 2169 -91 
Q 1331 -91 842 396 
Q 353 884 353 1716 
Q 353 2575 817 3079 
Q 1281 3584 2069 3584 
Q 2775 3584 3186 3129 
Q 3597 2675 3597 1894 
z
M 3022 2063 
Q 3016 2534 2758 2815 
Q 2500 3097 2075 3097 
Q 1594 3097 1305 2825 
Q 1016 2553 972 2059 
L 3022 2063 
z
" transform="scale(0.015625)"/>
       <path id="DejaVuSans-6c" d="M 603 4863 
L 1178 4863 
L 1178 0 
L 603 0 
L 603 4863 
z
" transform="scale(0.015625)"/>
       <path id="DejaVuSans-6e" d="M 3513 2113 
L 3513 0 
L 2938 0 
L 2938 2094 
Q 2938 2591 2744 2837 
Q 2550 3084 2163 3084 
Q 1697 3084 1428 2787 
Q 1159 2491 1159 1978 
L 1159 0 
L 581 0 
L 581 3500 
L 1159 3500 
L 1159 2956 
Q 1366 3272 1645 3428 
Q 1925 3584 2291 3584 
Q 2894 3584 3203 3211 
Q 3513 2838 3513 2113 
z
" transform="scale(0.015625)"/>
       <path id="DejaVuSans-67" d="M 2906 1791 
Q 2906 2416 2648 2759 
Q 2391 3103 1925 3103 
Q 1463 3103 1205 2759 
Q 947 2416 947 1791 
Q 947 1169 1205 825 
Q 1463 481 1925 481 
Q 2391 481 2648 825 
Q 2906 1169 2906 1791 
z
M 3481 434 
Q 3481 -459 3084 -895 
Q 2688 -1331 1869 -1331 
Q 1566 -1331 1297 -1286 
Q 1028 -1241 775 -1147 
L 775 -588 
Q 1028 -725 1275 -790 
Q 1522 -856 1778 -856 
Q 2344 -856 2625 -561 
Q 2906 -266 2906 331 
L 2906 616 
Q 2728 306 2450 153 
Q 2172 0 1784 0 
Q 1141 0 747 490 
Q 353 981 353 1791 
Q 353 2603 747 3093 
Q 1141 3584 1784 3584 
Q 2172 3584 2450 3431 
Q 2728 3278 2906 2969 
L 2906 3500 
L 3481 3500 
L 3481 434 
z
" transform="scale(0.015625)"/>
       <path id="DejaVuSans-74" d="M 1172 4494 
L 1172 3500 
L 2356 3500 
L 2356 3053 
L 1172 3053 
L 1172 1153 
Q 1172 725 1289 603 
Q 1406 481 1766 481 
L 2356 481 
L 2356 0 
L 1766 0 
Q 1100 0 847 248 
Q 594 497 594 1153 
L 594 3053 
L 172 3053 
L 172 3500 
L 594 3500 
L 594 4494 
L 1172 4494 
z
" transform="scale(0.015625)"/>
       <path id="DejaVuSans-68" d="M 3513 2113 
L 3513 0 
L 2938 0 
L 2938 2094 
Q 2938 2591 2744 2837 
Q 2550 3084 2163 3084 
Q 1697 3084 1428 2787 
Q 1159 2491 1159 1978 
L 1159 0 
L 581 0 
L 581 4863 
L 1159 4863 
L 1159 2956 
Q 1366 3272 1645 3428 
Q 1925 3584 2291 3584 
Q 2894 3584 3203 3211 
Q 3513 2838 3513 2113 
z
" transform="scale(0.015625)"/>
       <path id="DejaVuSans-20" transform="scale(0.015625)"/>
       <path id="DejaVuSans-28" d="M 1984 4856 
Q 1566 4138 1362 3434 
Q 1159 2731 1159 2009 
Q 1159 1288 1364 580 
Q 1569 -128 1984 -844 
L 1484 -844 
Q 1016 -109 783 600 
Q 550 1309 550 2009 
Q 550 2706 781 3412 
Q 1013 4119 1484 4856 
L 1984 4856 
z
" transform="scale(0.015625)"/>
       <path id="DejaVuSans-6d" d="M 3328 2828 
Q 3544 3216 3844 3400 
Q 4144 3584 4550 3584 
Q 5097 3584 5394 3201 
Q 5691 2819 5691 2113 
L 5691 0 
L 5113 0 
L 5113 2094 
Q 5113 2597 4934 2840 
Q 4756 3084 4391 3084 
Q 3944 3084 3684 2787 
Q 3425 2491 3425 1978 
L 3425 0 
L 2847 0 
L 2847 2094 
Q 2847 2600 2669 2842 
Q 2491 3084 2119 3084 
Q 1678 3084 1418 2786 
Q 1159 2488 1159 1978 
L 1159 0 
L 581 0 
L 581 3500 
L 1159 3500 
L 1159 2956 
Q 1356 3278 1631 3431 
Q 1906 3584 2284 3584 
Q 2666 3584 2933 3390 
Q 3200 3197 3328 2828 
z
" transform="scale(0.015625)"/>
       <path id="DejaVuSans-29" d="M 513 4856 
L 1013 4856 
Q 1481 4119 1714 3412 
Q 1947 2706 1947 2009 
Q 1947 1309 1714 600 
Q 1481 -109 1013 -844 
L 513 -844 
Q 928 -128 1133 580 
Q 1338 1288 1338 2009 
Q 1338 2731 1133 3434 
Q 928 4138 513 4856 
z
" transform="scale(0.015625)"/>
      </defs>
      <use xlink:href="#DejaVuSans-57"/>
      <use xlink:href="#DejaVuSans-61" x="92.501953"/>
      <use xlink:href="#DejaVuSans-76" x="153.78125"/>
      <use xlink:href="#DejaVuSans-65" x="212.960938"/>
      <use xlink:href="#DejaVuSans-6c" x="274.484375"/>
      <use xlink:href="#DejaVuSans-65" x="302.267578"/>
      <use xlink:href="#DejaVuSans-6e" x="363.791016"/>
      <use xlink:href="#DejaVuSans-67" x="427.169922"/>
      <use xlink:href="#DejaVuSans-74" x="490.646484"/>
      <use xlink:href="#DejaVuSans-68" x="529.855469"/>
      <use xlink:href="#DejaVuSans-20" x="593.234375"/>
      <use xlink:href="#DejaVuSans-28" x="625.021484"/>
      <use xlink:href="#DejaVuSans-6e" x="664.035156"/>
      <use xlink:href="#DejaVuSans-6d" x="727.414062"/>
      <use xlink:href="#DejaVuSans-29" x="824.826172"/>
     </g>
    </g>
   </g>
   <g id="matplotlib.axis_2">
    <g id="ytick_1">
     <g id="line2d_9">
      <defs>
       <path id="med1fa7c8ec" d="M 0 0 
L -3.5 0 
" style="stroke: #000000; stroke-width: 0.8"/>
      </defs>
      <g>
       <use xlink:href="#med1fa7c8ec" x="57.6" y="307.584" style="stroke: #000000; stroke-width: 0.8"/>
      </g>
     </g>
     <g id="text_10">
      <!-- 0.0 -->
      <g transform="translate(34.696875 311.383219) scale(0.1 -0.1)">
       <defs>
        <path id="DejaVuSans-2e" d="M 684 794 
L 1344 794 
L 1344 0 
L 684 0 
L 684 794 
z
" transform="scale(0.015625)"/>
       </defs>
       <use xlink:href="#DejaVuSans-30"/>
       <use xlink:href="#DejaVuSans-2e" x="63.623047"/>
       <use xlink:href="#DejaVuSans-30" x="95.410156"/>
      </g>
     </g>
    </g>
    <g id="ytick_2">
     <g id="line2d_10">
      <g>
       <use xlink:href="#med1fa7c8ec" x="57.6" y="263.232" style="stroke: #000000; stroke-width: 0.8"/>
      </g>
     </g>
     <g id="text_11">
      <!-- 0.2 -->
      <g transform="translate(34.696875 267.031219) scale(0.1 -0.1)">
       <use xlink:href="#DejaVuSans-30"/>
       <use xlink:href="#DejaVuSans-2e" x="63.623047"/>
       <use xlink:href="#DejaVuSans-32" x="95.410156"/>
      </g>
     </g>
    </g>
    <g id="ytick_3">
     <g id="line2d_11">
      <g>
       <use xlink:href="#med1fa7c8ec" x="57.6" y="218.88" style="stroke: #000000; stroke-width: 0.8"/>
      </g>
     </g>
     <g id="text_12">
      <!-- 0.4 -->
      <g transform="translate(34.696875 222.679219) scale(0.1 -0.1)">
       <use xlink:href="#DejaVuSans-30"/>
       <use xlink:href="#DejaVuSans-2e" x="63.623047"/>
       <use xlink:href="#DejaVuSans-34" x="95.410156"/>
      </g>
     </g>
    </g>
    <g id="ytick_4">
     <g id="line2d_12">
      <g>
       <use xlink:href="#med1fa7c8ec" x="57.6" y="174.528" style="stroke: #000000; stroke-width: 0.8"/>
      </g>
     </g>
     <g id="text_13">
      <!-- 0.6 -->
      <g transform="translate(34.696875 178.327219) scale(0.1 -0.1)">
       <use xlink:href="#DejaVuSans-30"/>
       <use xlink:href="#DejaVuSans-2e" x="63.623047"/>
       <use xlink:href="#DejaVuSans-36" x="95.410156"/>
      </g>
     </g>
    </g>
    <g id="ytick_5">
     <g id="line2d_13">
      <g>
       <use xlink:href="#med1fa7c8ec" x="57.6" y="130.176" style="stroke: #000000; stroke-width: 0.8"/>
      </g>
     </g>
     <g id="text_14">
      <!-- 0.8 -->
      <g transform="translate(34.696875 133.975219) scale(0.1 -0.1)">
       <use xlink:href="#DejaVuSans-30"/>
       <use xlink:href="#DejaVuSans-2e" x="63.623047"/>
       <use xlink:href="#DejaVuSans-38" x="95.410156"/>
      </g>
     </g>
    </g>
    <g id="ytick_6">
     <g id="line2d_14">
      <g>
       <use xlink:href="#med1fa7c8ec" x="57.6" y="85.824" style="stroke: #000000; stroke-width: 0.8"/>
      </g>
     </g>
     <g id="text_15">
      <!-- 1.0 -->
      <g transform="translate(34.696875 89.623219) scale(0.1 -0.1)">
       <defs>
        <path id="DejaVuSans-31" d="M 794 531 
L 1825 531 
L 1825 4091 
L 703 3866 
L 703 4441 
L 1819 4666 
L 2450 4666 
L 2450 531 
L 3481 531 
L 3481 0 
L 794 0 
L 794 531 
z
" transform="scale(0.015625)"/>
       </defs>
       <use xlink:href="#DejaVuSans-31"/>
       <use xlink:href="#DejaVuSans-2e" x="63.623047"/>
       <use xlink:href="#DejaVuSans-30" x="95.410156"/>
      </g>
     </g>
    </g>
    <g id="ytick_7">
     <g id="line2d_15">
      <g>
       <use xlink:href="#med1fa7c8ec" x="57.6" y="41.472" style="stroke: #000000; stroke-width: 0.8"/>
      </g>
     </g>
     <g id="text_16">
      <!-- 1.2 -->
      <g transform="translate(34.696875 45.271219) scale(0.1 -0.1)">
       <use xlink:href="#DejaVuSans-31"/>
       <use xlink:href="#DejaVuSans-2e" x="63.623047"/>
       <use xlink:href="#DejaVuSans-32" x="95.410156"/>
      </g>
     </g>
    </g>
    <g id="text_17">
     <!-- Absorbance -->
     <g transform="translate(28.617187 204.074875) rotate(-90) scale(0.1 -0.1)">
      <defs>
       <path id="DejaVuSans-41" d="M 2188 4044 
L 1331 1722 
L 3047 1722 
L 2188 4044 
z
M 1831 4666 
L 2547 4666 
L 4325 0 
L 3669 0 
L 3244 1197 
L 1141 1197 
L 716 0 
L 50 0 
L 1831 4666 
z
" transform="scale(0.015625)"/>
       <path id="DejaVuSans-62" d="M 3116 1747 
Q 3116 2381 2855 2742 
Q 2594 3103 2138 3103 
Q 1681 3103 1420 2742 
Q 1159 2381 1159 1747 
Q 1159 1113 1420 752 
Q 1681 391 2138 391 
Q 2594 391 2855 752 
Q 3116 1113 3116 1747 
z
M 1159 2969 
Q 1341 3281 1617 3432 
Q 1894 3584 2278 3584 
Q 2916 3584 3314 3078 
Q 3713 2572 3713 1747 
Q 3713 922 3314 415 
Q 2916 -91 2278 -91 
Q 1894 -91 1617 61 
Q 1341 213 1159 525 
L 1159 0 
L 581 0 
L 581 4863 
L 1159 4863 
L 1159 2969 
z
" transform="scale(0.015625)"/>
       <path id="DejaVuSans-73" d="M 2834 3397 
L 2834 2853 
Q 2591 2978 2328 3040 
Q 2066 3103 1784 3103 
Q 1356 3103 1142 2972 
Q 928 2841 928 2578 
Q 928 2378 1081 2264 
Q 1234 2150 1697 2047 
L 1894 2003 
Q 2506 1872 2764 1633 
Q 3022 1394 3022 966 
Q 3022 478 2636 193 
Q 2250 -91 1575 -91 
Q 1294 -91 989 -36 
Q 684 19 347 128 
L 347 722 
Q 666 556 975 473 
Q 1284 391 1588 391 
Q 1994 391 2212 530 
Q 2431 669 2431 922 
Q 2431 1156 2273 1281 
Q 2116 1406 1581 1522 
L 1381 1569 
Q 847 1681 609 1914 
Q 372 2147 372 2553 
Q 372 3047 722 3315 
Q 1072 3584 1716 3584 
Q 2034 3584 2315 3537 
Q 2597 3491 2834 3397 
z
" transform="scale(0.015625)"/>
       <path id="DejaVuSans-6f" d="M 1959 3097 
Q 1497 3097 1228 2736 
Q 959 2375 959 1747 
Q 959 1119 1226 758 
Q 1494 397 1959 397 
Q 2419 397 2687 759 
Q 2956 1122 2956 1747 
Q 2956 2369 2687 2733 
Q 2419 3097 1959 3097 
z
M 1959 3584 
Q 2709 3584 3137 3096 
Q 3566 2609 3566 1747 
Q 3566 888 3137 398 
Q 2709 -91 1959 -91 
Q 1206 -91 779 398 
Q 353 888 353 1747 
Q 353 2609 779 3096 
Q 1206 3584 1959 3584 
z
" transform="scale(0.015625)"/>
       <path id="DejaVuSans-72" d="M 2631 2963 
Q 2534 3019 2420 3045 
Q 2306 3072 2169 3072 
Q 1681 3072 1420 2755 
Q 1159 2438 1159 1844 
L 1159 0 
L 581 0 
L 581 3500 
L 1159 3500 
L 1159 2956 
Q 1341 3275 1631 3429 
Q 1922 3584 2338 3584 
Q 2397 3584 2469 3576 
Q 2541 3569 2628 3553 
L 2631 2963 
z
" transform="scale(0.015625)"/>
       <path id="DejaVuSans-63" d="M 3122 3366 
L 3122 2828 
Q 2878 2963 2633 3030 
Q 2388 3097 2138 3097 
Q 1578 3097 1268 2742 
Q 959 2388 959 1747 
Q 959 1106 1268 751 
Q 1578 397 2138 397 
Q 2388 397 2633 464 
Q 2878 531 3122 666 
L 3122 134 
Q 2881 22 2623 -34 
Q 2366 -91 2075 -91 
Q 1284 -91 818 406 
Q 353 903 353 1747 
Q 353 2603 823 3093 
Q 1294 3584 2113 3584 
Q 2378 3584 2631 3529 
Q 2884 3475 3122 3366 
z
" transform="scale(0.015625)"/>
      </defs>
      <use xlink:href="#DejaVuSans-41"/>
      <use xlink:href="#DejaVuSans-62" x="68.408203"/>
      <use xlink:href="#DejaVuSans-73" x="131.884766"/>
      <use xlink:href="#DejaVuSans-6f" x="183.984375"/>
      <use xlink:href="#DejaVuSans-72" x="245.166016"/>
      <use xlink:href="#DejaVuSans-62" x="286.279297"/>
      <use xlink:href="#DejaVuSans-61" x="349.755859"/>
      <use xlink:href="#DejaVuSans-6e" x="411.035156"/>
      <use xlink:href="#DejaVuSans-63" x="474.414062"/>
      <use xlink:href="#DejaVuSans-65" x="529.394531"/>
     </g>
    </g>
   </g>
   <g id="line2d_16">
    <path d="M 363.702857 308.702189 
L 363.192686 308.554946 
L 350.948571 308.365823 
L 349.928229 308.280439 
L 348.397714 308.292245 
L 338.194286 307.584 
L 337.173943 307.57027 
L 335.643429 307.473276 
L 329.521371 307.286141 
L 325.950171 307.211598 
L 321.8688 307.41375 
L 321.358629 307.305189 
L 315.236571 307.390348 
L 312.685714 307.293991 
L 297.380571 306.018658 
L 295.850057 305.686833 
L 290.748343 304.915449 
L 281.055086 302.633457 
L 278.504229 301.956904 
L 274.422857 300.858977 
L 264.219429 298.763221 
L 260.138057 298.084845 
L 257.5872 297.637919 
L 256.056686 297.466837 
L 254.526171 297.163239 
L 252.485486 296.848281 
L 250.4448 296.44042 
L 247.893943 295.972569 
L 245.343086 295.301554 
L 239.7312 293.15314 
L 238.200686 292.164245 
L 236.670171 291.031047 
L 234.119314 288.476571 
L 232.5888 286.52225 
L 230.548114 283.319937 
L 229.0176 280.510763 
L 227.487086 277.269578 
L 225.4464 272.367291 
L 222.895543 265.452521 
L 219.324343 254.75069 
L 212.692114 234.133753 
L 207.080229 216.098408 
L 196.366629 179.227334 
L 194.325943 173.179828 
L 192.795429 169.103618 
L 191.264914 165.527046 
L 189.7344 162.575549 
L 188.714057 160.939262 
L 187.693714 159.527548 
L 186.673371 158.379717 
L 185.142857 157.063608 
L 184.122514 156.638876 
L 183.102171 156.494352 
L 182.592 156.447534 
L 181.571657 156.636378 
L 180.551314 157.132103 
L 179.530971 157.951601 
L 178.510629 159.053223 
L 177.490286 160.470409 
L 175.959771 163.192535 
L 174.939429 165.284682 
L 173.408914 169.094762 
L 171.8784 173.437578 
L 169.837714 179.8359 
L 166.266514 192.229596 
L 163.205486 203.532734 
L 158.103771 222.361788 
L 155.552914 230.754867 
L 151.981714 240.695349 
L 150.4512 244.294306 
L 148.410514 248.251429 
L 146.88 250.547357 
L 145.349486 252.585845 
L 143.818971 254.095973 
L 143.3088 253.416578 
L 142.798629 254.82404 
L 141.778286 255.545378 
L 141.268114 255.756122 
L 140.757943 255.738162 
L 140.247771 255.95754 
L 138.717257 255.887448 
L 138.207086 255.339278 
L 137.696914 255.271067 
L 136.676571 254.728884 
L 136.1664 253.903077 
L 135.656229 253.830782 
L 134.125714 252.150645 
L 133.615543 251.947585 
L 133.105371 247.09001 
L 132.085029 245.332601 
L 131.064686 242.900694 
L 130.554514 241.565128 
L 129.534171 238.008098 
L 128.513829 233.681124 
L 126.983314 225.435201 
L 125.4528 215.512603 
L 123.412114 200.37704 
L 120.351086 175.883529 
L 118.3104 162.121685 
L 116.269714 148.845283 
L 110.657829 109.01839 
L 109.637486 99.282568 
L 108.617143 86.800629 
L 106.066286 52.831352 
L 105.045943 39.790256 
L 104.535771 31.862302 
L 103.515429 11.456547 
L 102.999884 -1 
L 102.999884 -1 
" clip-path="url(#p394eea5998)" style="fill: none; stroke: #e01f1f; stroke-width: 0.5; stroke-linecap: square"/>
   </g>
   <g id="line2d_17">
    <path d="M 363.702857 308.497369 
L 363.192686 308.297103 
L 359.111314 308.314181 
L 348.907886 308.246223 
L 346.8672 308.112617 
L 345.846857 308.075032 
L 339.7248 307.64213 
L 337.684114 307.519179 
L 334.623086 307.426519 
L 328.501029 307.210846 
L 326.460343 307.213259 
L 323.399314 307.302245 
L 321.8688 307.431141 
L 321.358629 307.300771 
L 318.807771 307.379924 
L 314.7264 307.234617 
L 313.195886 307.193495 
L 301.461943 306.092697 
L 298.911086 305.719484 
L 297.380571 305.481424 
L 295.850057 305.121861 
L 294.319543 304.869444 
L 290.748343 304.139899 
L 282.5856 301.728224 
L 281.055086 301.236076 
L 273.402514 298.751831 
L 268.810971 297.505083 
L 263.199086 296.308523 
L 262.178743 296.078997 
L 260.648229 295.786582 
L 257.5872 295.19731 
L 255.036343 294.670697 
L 249.934629 293.631845 
L 247.893943 293.248565 
L 245.343086 292.700943 
L 244.322743 292.349117 
L 242.282057 291.789111 
L 239.221029 290.518183 
L 237.690514 289.668462 
L 236.16 288.547274 
L 235.139657 287.711753 
L 233.098971 285.619436 
L 231.568457 283.679811 
L 230.037943 281.392846 
L 228.507429 278.784456 
L 226.976914 275.785762 
L 224.936229 271.282784 
L 222.385371 264.925345 
L 219.834514 258.073652 
L 214.222629 242.169182 
L 209.120914 227.179651 
L 205.549714 215.842715 
L 195.346286 182.626873 
L 193.3056 176.970196 
L 191.264914 172.159677 
L 189.7344 169.183648 
L 188.203886 166.903489 
L 186.673371 165.165821 
L 185.653029 164.248299 
L 185.142857 163.892975 
L 183.612343 163.320731 
L 182.592 163.232818 
L 181.571657 163.396271 
L 180.041143 164.088877 
L 179.0208 164.924819 
L 178.000457 165.993528 
L 176.980114 167.45888 
L 175.4496 170.138524 
L 174.429257 172.271699 
L 172.898743 176.061238 
L 171.368229 180.238711 
L 168.817371 188.15498 
L 165.756343 198.377757 
L 160.654629 216.45565 
L 158.103771 225.425341 
L 155.552914 233.335008 
L 153.512229 238.867536 
L 151.981714 242.605393 
L 150.4512 245.851723 
L 147.900343 249.877387 
L 146.369829 251.463691 
L 145.349486 252.34834 
L 144.839314 252.746437 
L 144.329143 252.927047 
L 143.818971 253.385009 
L 143.3088 252.502329 
L 142.798629 253.980688 
L 142.288457 253.905808 
L 141.268114 254.12281 
L 140.757943 254.027605 
L 140.247771 253.579451 
L 139.7376 253.647979 
L 139.227429 253.489569 
L 138.207086 252.625996 
L 137.696914 251.947969 
L 137.186743 251.905381 
L 136.1664 250.783674 
L 135.656229 249.845129 
L 135.146057 249.631653 
L 134.125714 248.617825 
L 133.615543 247.382623 
L 133.105371 243.528745 
L 132.085029 241.640848 
L 131.064686 239.28513 
L 129.534171 234.361446 
L 128.513829 230.221314 
L 127.493486 225.361829 
L 125.962971 216.784076 
L 123.412114 199.83356 
L 120.351086 177.812178 
L 118.820571 167.968524 
L 115.759543 148.509027 
L 111.168 115.187415 
L 110.147657 105.846717 
L 109.127314 93.838667 
L 105.045943 37.393061 
L 104.0256 19.550737 
L 103.107957 -1 
L 103.107957 -1 
" clip-path="url(#p394eea5998)" style="fill: none; stroke: #d31f2c; stroke-width: 0.5; stroke-linecap: square"/>
   </g>
   <g id="line2d_18">
    <path d="M 363.702857 308.820405 
L 362.682514 308.665624 
L 353.499429 308.484933 
L 351.458743 308.402531 
L 349.418057 308.349971 
L 343.296 307.96737 
L 341.255314 307.786478 
L 336.663771 307.4746 
L 333.092571 307.329633 
L 330.541714 307.185002 
L 323.399314 307.090905 
L 316.767086 306.909096 
L 315.746743 306.809329 
L 314.7264 306.748062 
L 312.685714 306.531679 
L 308.094171 306.081474 
L 307.073829 305.937502 
L 300.951771 305.054745 
L 297.890743 304.471808 
L 296.360229 303.950666 
L 292.789029 303.167524 
L 291.258514 302.69322 
L 288.707657 301.921959 
L 283.605943 299.966423 
L 279.0144 298.153164 
L 277.994057 297.611935 
L 276.463543 297.035935 
L 273.402514 295.841913 
L 264.219429 293.06003 
L 253.505829 290.307807 
L 251.465143 289.824814 
L 246.8736 288.817747 
L 241.771886 287.511206 
L 238.200686 286.257714 
L 235.139657 284.543863 
L 233.609143 283.287363 
L 232.078629 281.86986 
L 230.548114 280.238188 
L 228.507429 277.578622 
L 226.466743 274.404258 
L 223.915886 269.798789 
L 220.854857 263.5058 
L 215.753143 251.940647 
L 211.671771 241.955594 
L 208.610743 233.887121 
L 205.549714 225.151936 
L 200.448 209.373889 
L 196.366629 196.434465 
L 193.815771 188.806955 
L 192.285257 184.625821 
L 190.754743 180.928384 
L 189.224229 177.871302 
L 187.693714 175.462824 
L 186.673371 174.153747 
L 185.653029 172.943289 
L 184.122514 171.7769 
L 183.102171 171.207419 
L 181.571657 170.806241 
L 180.551314 170.764089 
L 179.0208 171.149431 
L 178.000457 171.724306 
L 176.980114 172.703093 
L 175.959771 173.928223 
L 173.919086 177.290374 
L 172.388571 180.534754 
L 170.347886 185.606366 
L 167.286857 194.191475 
L 163.205486 206.770176 
L 157.5936 224.669951 
L 155.552914 230.474054 
L 153.002057 236.553996 
L 151.471543 239.735703 
L 150.4512 241.520269 
L 148.410514 244.218946 
L 147.390171 245.272117 
L 144.839314 246.802535 
L 144.329143 246.844628 
L 143.818971 247.159075 
L 143.3088 246.026127 
L 142.798629 247.189311 
L 141.268114 247.110843 
L 140.757943 246.624635 
L 140.247771 246.57904 
L 138.717257 245.422458 
L 138.207086 244.607917 
L 137.696914 244.407652 
L 136.1664 242.142178 
L 135.656229 241.857412 
L 133.615543 239.385098 
L 133.105371 234.901524 
L 132.085029 233.130606 
L 131.064686 230.757711 
L 130.044343 227.828751 
L 128.513829 222.387598 
L 127.493486 217.903985 
L 125.4528 207.325104 
L 123.922286 198.675412 
L 121.8816 185.976402 
L 119.330743 170.372614 
L 117.800229 161.295032 
L 116.269714 151.158706 
L 114.7392 139.389187 
L 113.208686 126.755599 
L 112.698514 121.66342 
L 111.678171 113.398303 
L 110.147657 97.468072 
L 109.127314 83.62174 
L 104.0256 4.055191 
L 103.782672 -1 
L 103.782672 -1 
" clip-path="url(#p394eea5998)" style="fill: none; stroke: #c51f3a; stroke-width: 0.5; stroke-linecap: square"/>
   </g>
   <g id="line2d_19">
    <path d="M 363.702857 308.80944 
L 363.192686 308.643418 
L 361.152 308.625102 
L 359.621486 308.658623 
L 358.601143 308.643934 
L 355.029943 308.548775 
L 352.479086 308.497409 
L 350.948571 308.42402 
L 348.397714 308.356203 
L 331.562057 307.187442 
L 330.541714 307.162283 
L 326.970514 306.968019 
L 322.378971 306.900922 
L 321.8688 306.993005 
L 321.358629 306.818442 
L 317.787429 306.768291 
L 307.584 305.810699 
L 304.522971 305.392245 
L 301.461943 304.895912 
L 297.380571 304.087976 
L 296.360229 303.653944 
L 294.829714 303.394438 
L 287.177143 301.017968 
L 277.483886 297.033748 
L 276.463543 296.520498 
L 270.341486 294.219118 
L 266.260114 292.988191 
L 263.709257 292.320114 
L 262.178743 291.890396 
L 247.383771 288.228232 
L 245.343086 287.842308 
L 244.832914 287.599774 
L 242.792229 287.147701 
L 240.241371 286.421902 
L 236.670171 284.95953 
L 234.629486 283.705748 
L 232.078629 281.579658 
L 230.037943 279.388612 
L 227.997257 276.745806 
L 225.4464 272.753722 
L 223.405714 269.137304 
L 221.365029 265.113645 
L 217.793829 257.497525 
L 212.692114 245.677511 
L 209.120914 236.609822 
L 205.549714 226.584593 
L 197.897143 203.013443 
L 194.325943 192.200062 
L 192.285257 186.671427 
L 190.754743 183.064955 
L 188.714057 179.176704 
L 187.693714 177.67261 
L 186.673371 176.339873 
L 185.142857 174.73905 
L 183.612343 173.724428 
L 183.102171 173.451425 
L 181.061486 173.022464 
L 179.530971 173.243838 
L 178.510629 173.67001 
L 177.490286 174.429658 
L 176.469943 175.532892 
L 174.939429 177.673932 
L 173.919086 179.493141 
L 171.8784 183.900764 
L 169.837714 189.071776 
L 167.286857 196.148442 
L 164.736 203.650718 
L 156.063086 230.209292 
L 154.0224 235.245884 
L 151.981714 239.573215 
L 150.4512 242.168052 
L 148.920686 244.199489 
L 147.390171 245.641545 
L 145.349486 246.773099 
L 144.839314 246.95086 
L 144.329143 246.856642 
L 143.818971 247.181156 
L 143.3088 246.074253 
L 142.798629 247.233836 
L 141.268114 246.840556 
L 140.757943 246.42665 
L 140.247771 246.312817 
L 138.717257 245.003046 
L 138.207086 244.119428 
L 137.696914 243.891782 
L 136.676571 242.607753 
L 136.1664 241.623137 
L 135.656229 241.275842 
L 135.146057 240.504114 
L 134.635886 240.14604 
L 134.125714 239.126945 
L 133.615543 239.122298 
L 133.105371 233.572514 
L 131.574857 230.5902 
L 130.044343 226.522965 
L 128.513829 221.12177 
L 126.473143 211.766208 
L 124.942629 203.742623 
L 122.901943 192.090089 
L 116.779886 155.292044 
L 115.759543 148.078189 
L 113.208686 126.93876 
L 112.698514 121.757201 
L 111.678171 113.149449 
L 110.657829 102.650437 
L 109.637486 89.785219 
L 108.106971 65.918323 
L 106.576457 41.243363 
L 105.045943 18.846302 
L 103.95883 -1 
L 103.95883 -1 
" clip-path="url(#p394eea5998)" style="fill: none; stroke: #b71f48; stroke-width: 0.5; stroke-linecap: square"/>
   </g>
   <g id="line2d_20">
    <path d="M 363.702857 308.775021 
L 363.192686 308.635994 
L 358.601143 308.590888 
L 345.336686 308.180263 
L 339.7248 307.654007 
L 338.194286 307.584 
L 324.929829 306.996668 
L 321.8688 307.117565 
L 320.848457 306.946273 
L 318.2976 306.921536 
L 314.216229 306.607103 
L 311.1552 306.344036 
L 305.543314 305.546201 
L 301.461943 304.904081 
L 298.400914 304.325876 
L 297.380571 304.050691 
L 296.360229 303.639995 
L 295.339886 303.449103 
L 293.2992 302.930403 
L 291.258514 302.34714 
L 288.197486 301.306004 
L 283.095771 299.195984 
L 272.382171 294.637882 
L 265.239771 292.328408 
L 259.627886 290.769661 
L 258.607543 290.445844 
L 256.566857 289.916229 
L 254.016 289.209905 
L 240.241371 285.855091 
L 237.690514 284.913871 
L 235.649829 283.878154 
L 233.098971 282.108101 
L 231.568457 280.769874 
L 229.527771 278.600898 
L 227.487086 275.97787 
L 225.4464 272.868128 
L 222.895543 268.450166 
L 219.324343 261.415688 
L 215.242971 252.588962 
L 212.692114 246.695115 
L 210.141257 240.362829 
L 207.080229 232.233448 
L 202.998857 220.376215 
L 195.856457 198.181883 
L 194.325943 193.575476 
L 192.285257 187.840667 
L 190.754743 184.145833 
L 189.224229 181.028676 
L 187.693714 178.483446 
L 186.673371 177.084963 
L 185.142857 175.548656 
L 183.612343 174.486133 
L 182.081829 173.743286 
L 181.061486 173.527199 
L 180.041143 173.493586 
L 179.0208 173.697499 
L 178.000457 174.033525 
L 176.980114 174.839673 
L 175.959771 175.92357 
L 174.939429 177.353617 
L 173.408914 180.033591 
L 171.8784 183.242824 
L 170.347886 186.955277 
L 167.797029 193.697966 
L 164.225829 203.98904 
L 161.1648 213.398789 
L 158.103771 222.789062 
L 156.063086 228.390435 
L 154.0224 233.32133 
L 152.491886 236.572312 
L 151.471543 238.493742 
L 149.941029 240.881197 
L 148.410514 242.601001 
L 147.390171 243.38528 
L 145.859657 244.24272 
L 145.349486 244.489393 
L 144.839314 244.5047 
L 143.818971 244.947632 
L 143.3088 243.653915 
L 142.798629 244.830773 
L 141.268114 244.534004 
L 140.757943 244.03654 
L 140.247771 243.944887 
L 139.227429 243.02989 
L 138.717257 242.720339 
L 138.207086 241.694925 
L 137.696914 241.382031 
L 136.676571 240.250966 
L 136.1664 239.060851 
L 135.656229 238.926431 
L 135.146057 238.131815 
L 134.635886 237.622317 
L 134.125714 236.642307 
L 133.615543 236.703195 
L 133.105371 231.721888 
L 132.5952 230.932262 
L 131.064686 227.57668 
L 129.534171 223.030176 
L 128.513829 219.267654 
L 126.983314 212.6126 
L 123.922286 196.482111 
L 116.779886 153.698513 
L 115.249371 142.157439 
L 113.208686 124.758842 
L 112.698514 119.433564 
L 111.678171 110.712641 
L 110.657829 99.854445 
L 109.637486 86.797038 
L 108.617143 71.178525 
L 106.576457 37.647237 
L 104.535771 6.415261 
L 104.14178 -1 
L 104.14178 -1 
" clip-path="url(#p394eea5998)" style="fill: none; stroke: #a91f56; stroke-width: 0.5; stroke-linecap: square"/>
   </g>
   <g id="line2d_21">
    <path d="M 363.702857 308.779003 
L 363.192686 308.597853 
L 353.499429 308.475242 
L 349.928229 308.368545 
L 347.887543 308.296269 
L 327.480686 307.062368 
L 323.399314 307.020251 
L 320.848457 306.971019 
L 313.706057 306.52239 
L 311.1552 306.25326 
L 302.992457 305.10608 
L 301.461943 304.82839 
L 297.380571 304.018016 
L 295.850057 303.54396 
L 289.217829 301.656974 
L 285.136457 300.083634 
L 284.116114 299.60982 
L 279.524571 297.559206 
L 276.973714 296.431154 
L 274.422857 295.342045 
L 268.810971 293.338684 
L 261.1584 291.108512 
L 259.117714 290.590318 
L 257.077029 290.073942 
L 255.546514 289.700583 
L 251.465143 288.64473 
L 245.343086 287.328204 
L 244.322743 287.01458 
L 240.241371 286.016422 
L 238.710857 285.506263 
L 236.670171 284.650447 
L 234.629486 283.50495 
L 233.098971 282.411185 
L 231.568457 281.065524 
L 230.037943 279.522936 
L 226.976914 275.562759 
L 224.936229 272.355297 
L 222.895543 268.78645 
L 220.854857 264.833454 
L 217.793829 258.439838 
L 214.222629 250.386073 
L 210.141257 240.284802 
L 207.5904 233.425901 
L 205.039543 226.022237 
L 199.427657 208.523441 
L 195.856457 197.273737 
L 192.795429 188.367749 
L 191.264914 184.491447 
L 189.7344 181.179788 
L 188.714057 179.27638 
L 187.693714 177.649201 
L 185.653029 175.013163 
L 184.122514 173.712202 
L 182.592 172.908195 
L 181.061486 172.533044 
L 180.041143 172.572024 
L 178.510629 173.068119 
L 176.980114 174.28438 
L 175.4496 176.226172 
L 174.429257 177.860621 
L 173.408914 179.829022 
L 171.368229 184.41091 
L 168.817371 191.073088 
L 166.266514 198.269258 
L 163.715657 205.917718 
L 156.573257 227.912506 
L 154.532571 233.123819 
L 151.981714 238.574858 
L 150.961371 240.365464 
L 149.430857 242.557717 
L 148.410514 243.64842 
L 147.390171 244.489973 
L 145.859657 245.244796 
L 144.839314 245.597747 
L 144.329143 245.531235 
L 143.818971 245.770975 
L 143.3088 244.504671 
L 142.798629 245.648768 
L 141.268114 245.112537 
L 140.757943 244.57694 
L 140.247771 244.403197 
L 138.717257 242.947441 
L 138.207086 241.847147 
L 137.696914 241.578975 
L 136.676571 240.259827 
L 136.1664 239.113515 
L 135.656229 238.900858 
L 135.146057 238.000143 
L 134.635886 237.418039 
L 134.125714 236.603715 
L 133.615543 236.487602 
L 133.105371 231.15978 
L 131.574857 228.129511 
L 130.044343 224.047498 
L 129.024 220.496767 
L 127.493486 214.371554 
L 125.4528 204.387406 
L 122.901943 190.324412 
L 116.779886 153.781301 
L 115.759543 146.544037 
L 113.718857 129.689793 
L 111.678171 111.049451 
L 110.657829 100.307864 
L 109.637486 87.342942 
L 108.106971 62.953675 
L 106.066286 30.131291 
L 105.045943 14.447244 
L 104.1954 -1 
L 104.1954 -1 
" clip-path="url(#p394eea5998)" style="fill: none; stroke: #9b1f64; stroke-width: 0.5; stroke-linecap: square"/>
   </g>
   <g id="line2d_22">
    <path d="M 363.702857 308.659771 
L 362.682514 308.500933 
L 359.111314 308.498702 
L 344.826514 308.109614 
L 341.765486 307.845847 
L 339.7248 307.700554 
L 333.602743 307.34415 
L 332.072229 307.274543 
L 330.541714 307.182583 
L 323.909486 306.923199 
L 321.8688 307.056811 
L 321.358629 306.867938 
L 316.256914 306.706232 
L 312.685714 306.411633 
L 300.4416 304.621869 
L 294.829714 303.313637 
L 293.2992 302.881661 
L 291.768686 302.447251 
L 288.197486 301.220692 
L 283.605943 299.340949 
L 275.953371 295.904318 
L 269.321143 293.446682 
L 258.607543 290.461905 
L 257.077029 290.144493 
L 255.036343 289.606288 
L 249.424457 288.273915 
L 240.241371 286.155594 
L 237.690514 285.26745 
L 235.649829 284.310878 
L 232.078629 281.733906 
L 230.548114 280.262021 
L 227.997257 277.153951 
L 226.466743 274.958685 
L 224.426057 271.677107 
L 221.8752 266.964771 
L 217.283657 257.330449 
L 212.692114 246.573163 
L 209.120914 237.347533 
L 206.059886 228.701502 
L 200.958171 213.203358 
L 196.8768 200.6733 
L 193.3056 190.603163 
L 191.775086 186.833966 
L 190.244571 183.571941 
L 188.714057 180.877691 
L 187.183543 178.763907 
L 185.653029 177.104251 
L 184.632686 176.299424 
L 183.102171 175.586846 
L 182.081829 175.335653 
L 181.061486 175.297558 
L 180.041143 175.470409 
L 178.510629 176.258568 
L 177.490286 177.154162 
L 175.959771 179.065342 
L 174.429257 181.57643 
L 172.898743 184.685524 
L 171.368229 188.367761 
L 169.837714 192.303848 
L 165.756343 203.892215 
L 163.205486 211.637107 
L 158.613943 225.910729 
L 155.552914 234.440118 
L 153.002057 240.239218 
L 151.471543 243.063744 
L 150.4512 244.664692 
L 148.410514 247.035347 
L 147.390171 247.794169 
L 144.839314 248.659725 
L 144.329143 248.588163 
L 143.818971 248.817368 
L 143.3088 247.507558 
L 142.798629 248.527896 
L 141.268114 247.949492 
L 140.757943 247.379965 
L 140.247771 247.199514 
L 138.717257 245.658694 
L 138.207086 244.588696 
L 137.696914 244.255141 
L 136.676571 242.843903 
L 136.1664 241.700652 
L 135.656229 241.322011 
L 134.635886 240.029291 
L 134.125714 239.064548 
L 133.615543 238.919593 
L 133.105371 233.191665 
L 132.5952 232.392985 
L 131.064686 229.084353 
L 129.024 223.052438 
L 126.983314 214.618146 
L 125.962971 209.887159 
L 122.391771 190.559121 
L 119.330743 173.066373 
L 117.800229 164.716212 
L 116.269714 154.917354 
L 114.7392 143.419715 
L 113.208686 130.385174 
L 112.698514 125.106238 
L 111.678171 116.459745 
L 110.657829 105.769919 
L 109.637486 92.650308 
L 108.106971 68.214817 
L 106.066286 35.460691 
L 105.045943 20.139978 
L 103.915765 -1 
L 103.915765 -1 
" clip-path="url(#p394eea5998)" style="fill: none; stroke: #8d1f72; stroke-width: 0.5; stroke-linecap: square"/>
   </g>
   <g id="line2d_23">
    <path d="M 363.702857 308.80212 
L 363.192686 308.642173 
L 348.907886 308.365397 
L 346.357029 308.212741 
L 341.255314 307.812492 
L 339.7248 307.631886 
L 337.684114 307.551073 
L 334.112914 307.359833 
L 324.419657 306.925475 
L 321.8688 306.983299 
L 320.848457 306.854206 
L 318.2976 306.768592 
L 315.236571 306.55191 
L 311.665371 306.16707 
L 308.604343 305.809016 
L 306.563657 305.486683 
L 304.0128 305.097028 
L 301.972114 304.732148 
L 297.890743 303.932691 
L 295.850057 303.309896 
L 293.2992 302.625275 
L 290.748343 301.839123 
L 286.666971 300.321182 
L 284.116114 299.213193 
L 272.382171 293.996757 
L 264.7296 291.536833 
L 260.138057 290.238061 
L 257.077029 289.424118 
L 254.526171 288.723754 
L 250.954971 287.84884 
L 245.853257 286.814962 
L 244.832914 286.550314 
L 242.282057 286.022795 
L 239.7312 285.425079 
L 238.200686 284.947389 
L 235.649829 283.86176 
L 233.609143 282.634514 
L 231.568457 281.020507 
L 230.037943 279.602858 
L 227.487086 276.598688 
L 224.936229 272.90551 
L 222.385371 268.565179 
L 219.324343 262.719089 
L 215.753143 255.152358 
L 213.202286 249.382849 
L 210.141257 241.798232 
L 207.080229 233.553927 
L 204.0192 224.713943 
L 199.427657 210.626688 
L 195.346286 198.226898 
L 192.795429 191.100797 
L 191.264914 187.368689 
L 189.7344 184.14066 
L 188.714057 182.298187 
L 186.673371 179.311954 
L 185.142857 177.802638 
L 184.122514 177.088315 
L 182.592 176.268658 
L 180.551314 176.044654 
L 179.530971 176.23145 
L 178.510629 176.727439 
L 178.000457 177.002703 
L 176.980114 177.971696 
L 175.959771 179.217353 
L 174.429257 181.654236 
L 172.898743 184.686257 
L 169.837714 192.12479 
L 166.266514 201.897602 
L 163.205486 210.860255 
L 158.103771 226.62965 
L 156.573257 230.940247 
L 153.512229 238.290828 
L 151.981714 241.311382 
L 150.961371 243.026309 
L 148.920686 245.626434 
L 147.390171 246.702809 
L 146.369829 247.215196 
L 145.349486 247.58695 
L 144.839314 247.443978 
L 144.329143 247.695905 
L 143.818971 247.727033 
L 143.3088 246.40191 
L 142.798629 247.39414 
L 142.288457 247.27042 
L 141.268114 246.856765 
L 140.757943 246.275619 
L 140.247771 245.985757 
L 138.717257 244.367426 
L 138.207086 243.326012 
L 137.696914 242.925575 
L 136.676571 241.524812 
L 136.1664 240.347458 
L 135.656229 240.133321 
L 135.146057 239.272874 
L 134.635886 238.793427 
L 134.125714 237.71421 
L 133.615543 237.814428 
L 133.105371 232.844845 
L 132.085029 230.969902 
L 131.064686 228.561298 
L 130.554514 227.365235 
L 129.024 222.601831 
L 128.003657 218.706819 
L 127.493486 216.803398 
L 124.432457 202.227733 
L 122.901943 194.155341 
L 116.779886 159.395024 
L 115.249371 148.377288 
L 113.208686 130.91005 
L 112.698514 125.541378 
L 112.188343 121.625884 
L 111.168 111.37533 
L 110.147657 99.331711 
L 109.127314 84.494562 
L 104.535771 10.200328 
L 103.965428 -1 
L 103.965428 -1 
" clip-path="url(#p394eea5998)" style="fill: none; stroke: #801f80; stroke-width: 0.5; stroke-linecap: square"/>
   </g>
   <g id="line2d_24">
    <path d="M 363.702857 308.751734 
L 363.192686 308.612883 
L 359.111314 308.567637 
L 357.070629 308.563416 
L 355.029943 308.497308 
L 352.989257 308.449206 
L 350.4384 308.382788 
L 348.397714 308.325325 
L 346.8672 308.250701 
L 344.316343 308.07626 
L 339.7248 307.654952 
L 338.704457 307.587212 
L 336.1536 307.493805 
L 334.623086 307.397813 
L 327.990857 307.050079 
L 324.929829 307.010567 
L 322.378971 307.00767 
L 321.8688 307.124576 
L 321.358629 306.948141 
L 314.216229 306.585403 
L 313.195886 306.426777 
L 312.175543 306.323401 
L 301.461943 304.72114 
L 297.380571 303.879805 
L 295.850057 303.432226 
L 292.789029 302.660793 
L 284.626286 299.676538 
L 282.075429 298.424377 
L 272.892343 294.372237 
L 270.341486 293.425828 
L 260.648229 290.50805 
L 255.546514 289.15926 
L 253.505829 288.645394 
L 250.954971 288.00783 
L 245.343086 286.768893 
L 244.322743 286.453422 
L 243.3024 286.253512 
L 240.241371 285.554074 
L 237.180343 284.540545 
L 235.139657 283.55617 
L 234.119314 282.958384 
L 232.5888 281.889971 
L 230.548114 280.085098 
L 229.527771 279.065652 
L 227.487086 276.623244 
L 225.956571 274.491866 
L 224.426057 272.168654 
L 222.385371 268.666978 
L 219.834514 263.902427 
L 217.283657 258.676585 
L 213.712457 250.867342 
L 209.631086 240.842675 
L 207.080229 233.954496 
L 204.0192 225.010626 
L 192.795429 190.554137 
L 190.754743 185.458269 
L 189.224229 182.294691 
L 187.693714 179.690932 
L 186.1632 177.657169 
L 185.142857 176.502437 
L 184.122514 175.697109 
L 183.102171 175.031348 
L 181.571657 174.44093 
L 180.551314 174.356851 
L 179.0208 174.62647 
L 178.510629 174.807886 
L 177.490286 175.550086 
L 176.469943 176.581203 
L 174.939429 178.619182 
L 173.408914 181.448598 
L 171.8784 184.739056 
L 169.837714 189.769217 
L 166.266514 199.480804 
L 164.225829 205.488563 
L 156.063086 230.005086 
L 154.532571 233.737075 
L 153.002057 237.164642 
L 151.471543 240.022397 
L 150.4512 241.676561 
L 148.410514 244.038783 
L 147.390171 244.84924 
L 146.88 244.984585 
L 145.859657 245.478063 
L 144.839314 245.743499 
L 144.329143 245.612192 
L 143.818971 245.809634 
L 143.3088 244.501357 
L 142.798629 245.605127 
L 141.778286 245.225759 
L 141.268114 244.951824 
L 140.757943 244.432743 
L 140.247771 244.23489 
L 138.717257 242.620823 
L 138.207086 241.67631 
L 137.696914 241.19215 
L 136.676571 239.758217 
L 136.1664 238.67286 
L 135.656229 238.351334 
L 134.635886 236.808108 
L 134.125714 236.182279 
L 133.615543 235.775887 
L 133.105371 230.663927 
L 132.5952 229.940093 
L 131.064686 226.501337 
L 129.534171 222.155502 
L 128.003657 216.470861 
L 126.473143 209.656558 
L 124.432457 199.632532 
L 121.8816 185.580562 
L 116.779886 155.694686 
L 115.759543 148.366905 
L 113.208686 126.754301 
L 112.698514 121.223696 
L 112.188343 117.211884 
L 110.657829 101.145336 
L 109.637486 87.772403 
L 108.106971 62.833878 
L 106.066286 29.441696 
L 104.535771 4.687851 
L 104.253776 -1 
L 104.253776 -1 
" clip-path="url(#p394eea5998)" style="fill: none; stroke: #721f8d; stroke-width: 0.5; stroke-linecap: square"/>
   </g>
   <g id="line2d_25">
    <path d="M 363.702857 308.819334 
L 363.192686 308.625004 
L 349.418057 308.415428 
L 346.8672 308.287302 
L 345.846857 308.234919 
L 341.765486 307.878982 
L 333.602743 307.317235 
L 330.541714 307.129182 
L 325.950171 306.85363 
L 321.8688 306.904807 
L 321.358629 306.732948 
L 317.787429 306.676396 
L 313.195886 306.313114 
L 305.543314 305.193966 
L 301.972114 304.58072 
L 297.380571 303.57568 
L 296.360229 303.20283 
L 294.319543 302.710747 
L 289.217829 301.133391 
L 286.666971 300.078021 
L 282.075429 298.04628 
L 280.544914 297.309384 
L 277.994057 296.09521 
L 272.382171 293.635206 
L 270.341486 292.840666 
L 264.7296 291.02015 
L 261.668571 290.088045 
L 254.526171 288.100125 
L 238.710857 284.172489 
L 236.670171 283.37844 
L 234.119314 282.057312 
L 232.5888 281.035001 
L 229.527771 278.296548 
L 226.976914 275.271615 
L 225.4464 273.181329 
L 223.915886 270.873433 
L 221.365029 266.565404 
L 218.304 260.797391 
L 214.7328 253.381425 
L 211.1616 245.197823 
L 209.120914 240.170226 
L 207.080229 234.752608 
L 202.998857 223.047256 
L 199.427657 212.123618 
L 194.325943 196.15908 
L 192.795429 191.76174 
L 190.754743 186.567954 
L 189.224229 183.416867 
L 187.693714 180.906042 
L 185.653029 178.286395 
L 184.122514 177.01105 
L 183.102171 176.348594 
L 181.571657 175.679595 
L 180.551314 175.489336 
L 179.530971 175.469932 
L 178.510629 175.649855 
L 177.490286 176.215186 
L 176.469943 177.05151 
L 174.939429 178.899323 
L 173.408914 181.430041 
L 171.8784 184.590434 
L 169.837714 189.400939 
L 166.266514 198.88381 
L 163.205486 207.70511 
L 159.634286 218.482795 
L 157.5936 224.421583 
L 155.552914 229.802878 
L 153.512229 234.433058 
L 151.981714 237.452575 
L 150.4512 239.920606 
L 149.941029 240.438193 
L 148.920686 241.710458 
L 147.390171 242.934438 
L 145.349486 243.777055 
L 144.839314 243.894014 
L 144.329143 243.813999 
L 143.818971 244.006597 
L 143.3088 242.649909 
L 142.798629 243.866441 
L 141.268114 243.287225 
L 140.757943 242.763286 
L 140.247771 242.528529 
L 138.717257 241.013332 
L 138.207086 240.061522 
L 137.696914 239.763425 
L 137.186743 239.109964 
L 136.1664 237.25077 
L 135.146057 236.303454 
L 134.635886 235.610101 
L 134.125714 234.504561 
L 133.615543 234.563295 
L 133.105371 228.700788 
L 132.5952 227.916013 
L 131.574857 225.7062 
L 130.044343 221.56047 
L 129.024 218.271877 
L 126.983314 209.809661 
L 124.942629 199.97489 
L 122.391771 186.103873 
L 116.779886 153.126482 
L 115.249371 141.514283 
L 113.718857 128.478659 
L 111.678171 109.289442 
L 110.657829 98.138853 
L 109.637486 84.509942 
L 108.106971 59.682103 
L 106.066286 26.686617 
L 104.535771 2.517164 
L 104.354474 -1 
L 104.354474 -1 
" clip-path="url(#p394eea5998)" style="fill: none; stroke: #641f9b; stroke-width: 0.5; stroke-linecap: square"/>
   </g>
   <g id="line2d_26">
    <path d="M 363.702857 308.855104 
L 363.192686 308.672173 
L 359.621486 308.654559 
L 354.519771 308.602824 
L 351.458743 308.486025 
L 349.418057 308.419752 
L 325.950171 306.9115 
L 323.399314 306.883473 
L 322.378971 306.873081 
L 321.8688 306.918377 
L 320.848457 306.739082 
L 318.807771 306.685992 
L 310.645029 305.730864 
L 300.4416 303.806117 
L 298.400914 303.301947 
L 297.380571 303.041968 
L 295.850057 302.526822 
L 293.809371 301.912662 
L 292.789029 301.615283 
L 287.687314 299.630454 
L 282.075429 296.926286 
L 272.892343 292.257245 
L 270.341486 291.138682 
L 269.321143 290.801454 
L 268.3008 290.392888 
L 265.239771 289.279383 
L 257.077029 286.610147 
L 256.056686 286.374033 
L 255.036343 286.028368 
L 246.363429 283.743608 
L 245.343086 283.487939 
L 243.812571 283.078274 
L 242.282057 282.783349 
L 238.200686 281.721004 
L 236.16 281.005148 
L 234.119314 280.002182 
L 232.078629 278.698019 
L 230.037943 277.034946 
L 227.997257 274.990575 
L 225.4464 271.891979 
L 221.365029 265.657517 
L 219.324343 262.132577 
L 216.263314 256.307959 
L 212.692114 248.759614 
L 209.631086 241.584508 
L 207.080229 234.996244 
L 201.978514 220.621049 
L 192.795429 193.510765 
L 191.264914 189.649849 
L 189.7344 186.386237 
L 188.714057 184.50637 
L 187.183543 182.277736 
L 185.653029 180.436333 
L 184.632686 179.531672 
L 183.612343 178.840467 
L 182.081829 178.051555 
L 181.061486 177.739559 
L 179.530971 177.696508 
L 178.510629 177.87729 
L 178.000457 178.05174 
L 176.469943 179.212208 
L 174.939429 180.965539 
L 173.919086 182.531626 
L 172.388571 185.377815 
L 170.347886 189.836195 
L 168.817371 193.469578 
L 165.756343 201.179879 
L 160.654629 215.312796 
L 157.5936 223.753539 
L 155.552914 228.6607 
L 153.512229 232.841405 
L 151.981714 235.474211 
L 150.4512 237.495879 
L 148.410514 239.189347 
L 147.390171 239.645458 
L 146.369829 239.809816 
L 145.349486 239.890511 
L 144.839314 239.817496 
L 144.329143 239.617218 
L 143.818971 239.70515 
L 143.3088 238.222892 
L 142.798629 239.221123 
L 141.268114 238.171527 
L 140.757943 237.733795 
L 140.247771 237.130919 
L 139.7376 236.212961 
L 139.227429 236.0405 
L 137.696914 233.666996 
L 137.186743 232.534081 
L 136.676571 232.206885 
L 135.146057 229.321663 
L 134.635886 229.18144 
L 133.615543 227.573658 
L 133.105371 222.661242 
L 132.085029 220.622324 
L 131.064686 218.252998 
L 129.534171 213.761725 
L 128.513829 210.274459 
L 126.983314 203.976527 
L 124.942629 194.643185 
L 122.391771 181.642865 
L 118.820571 162.434113 
L 117.290057 153.315859 
L 116.269714 146.507754 
L 114.7392 134.245405 
L 113.208686 120.107657 
L 112.698514 114.231998 
L 112.188343 110.044717 
L 110.657829 92.73164 
L 109.637486 78.330895 
L 108.106971 52.109675 
L 106.576457 25.295103 
L 104.949056 -1 
L 104.949056 -1 
" clip-path="url(#p394eea5998)" style="fill: none; stroke: #561fa9; stroke-width: 0.5; stroke-linecap: square"/>
   </g>
   <g id="line2d_27">
    <path d="M 363.702857 308.640453 
L 363.192686 308.470916 
L 355.540114 308.469329 
L 351.458743 308.374345 
L 347.377371 308.262516 
L 344.826514 308.089621 
L 343.296 308.000481 
L 342.275657 307.861563 
L 324.929829 306.947646 
L 322.889143 306.935957 
L 321.8688 307.026504 
L 321.358629 306.850201 
L 319.317943 306.811488 
L 315.746743 306.548695 
L 305.033143 305.006042 
L 297.380571 303.347935 
L 296.360229 302.945287 
L 292.789029 301.95238 
L 288.707657 300.38369 
L 284.626286 298.426274 
L 282.5856 297.310872 
L 280.034743 295.805128 
L 272.892343 291.855404 
L 267.790629 289.593678 
L 263.709257 288.046548 
L 262.688914 287.709504 
L 250.4448 283.836214 
L 245.343086 282.56383 
L 244.832914 282.343888 
L 242.792229 281.924862 
L 238.710857 281.038808 
L 236.670171 280.355802 
L 235.649829 279.964987 
L 234.629486 279.535309 
L 232.5888 278.43033 
L 231.058286 277.342329 
L 228.507429 275.139912 
L 226.466743 272.908313 
L 224.936229 271.014059 
L 221.8752 266.614492 
L 218.814171 261.502367 
L 216.263314 256.84657 
L 212.181943 248.509856 
L 207.080229 236.225618 
L 205.039543 230.762966 
L 201.468343 220.753454 
L 193.3056 197.418269 
L 191.264914 192.444813 
L 189.7344 189.364032 
L 188.203886 186.802636 
L 187.183543 185.413934 
L 185.653029 183.678156 
L 184.632686 182.837734 
L 183.102171 181.883809 
L 181.571657 181.406589 
L 180.551314 181.23966 
L 179.530971 181.279089 
L 178.510629 181.573228 
L 177.490286 182.174815 
L 176.469943 183.030967 
L 174.939429 184.844175 
L 173.408914 187.354352 
L 171.368229 191.476507 
L 169.327543 196.171356 
L 166.776686 202.482995 
L 163.715657 210.635825 
L 158.613943 224.813578 
L 157.083429 228.84866 
L 155.042743 233.542795 
L 153.512229 236.591748 
L 151.981714 239.135147 
L 150.961371 240.554971 
L 149.430857 242.105678 
L 148.410514 242.735644 
L 147.390171 243.104887 
L 146.369829 243.24314 
L 144.839314 243.189806 
L 144.329143 242.874578 
L 143.818971 242.912811 
L 143.3088 241.380986 
L 142.798629 242.352721 
L 142.288457 241.938042 
L 141.778286 241.677563 
L 141.268114 241.247167 
L 140.757943 240.537345 
L 140.247771 240.189964 
L 138.717257 238.1312 
L 138.207086 237.085629 
L 137.696914 236.563593 
L 137.186743 235.843375 
L 136.1664 233.734032 
L 135.656229 233.206425 
L 134.635886 231.771302 
L 134.125714 230.756232 
L 133.615543 230.667162 
L 133.105371 224.968452 
L 132.5952 224.018876 
L 131.064686 220.178355 
L 130.044343 217.024346 
L 128.513829 211.080113 
L 125.962971 198.991652 
L 117.800229 157.841102 
L 116.779886 151.68525 
L 115.759543 144.42007 
L 114.229029 131.56672 
L 113.208686 122.028731 
L 112.698514 116.180737 
L 112.188343 111.760874 
L 111.168 100.443408 
L 110.147657 86.877719 
L 109.127314 70.890796 
L 105.064089 -1 
L 105.064089 -1 
" clip-path="url(#p394eea5998)" style="fill: none; stroke: #481fb7; stroke-width: 0.5; stroke-linecap: square"/>
   </g>
   <g id="line2d_28">
    <path d="M 363.702857 308.72114 
L 362.682514 308.528008 
L 355.540114 308.493028 
L 353.499429 308.45078 
L 348.397714 308.308927 
L 344.826514 308.097256 
L 340.745143 307.736342 
L 336.1536 307.417729 
L 333.602743 307.282391 
L 315.236571 306.233293 
L 314.216229 306.061941 
L 310.645029 305.664807 
L 307.584 305.141595 
L 305.033143 304.685261 
L 302.992457 304.243022 
L 299.931429 303.565901 
L 298.911086 303.32255 
L 297.890743 303.052791 
L 296.8704 302.682609 
L 295.850057 302.288431 
L 292.278857 301.216598 
L 289.217829 300.051502 
L 283.605943 297.327294 
L 281.055086 295.971667 
L 279.0144 294.929 
L 275.953371 293.272887 
L 274.422857 292.522346 
L 272.892343 291.797812 
L 266.260114 289.028462 
L 264.7296 288.509895 
L 260.648229 287.165485 
L 256.056686 285.688441 
L 254.016 285.036006 
L 245.853257 283.048852 
L 244.832914 282.837174 
L 243.3024 282.525444 
L 238.710857 281.608809 
L 237.180343 281.193591 
L 234.629486 280.181603 
L 232.5888 279.119556 
L 230.548114 277.746445 
L 227.997257 275.529531 
L 225.4464 272.707144 
L 222.895543 269.352011 
L 219.324343 263.754854 
L 216.773486 259.275114 
L 213.202286 252.180306 
L 210.651429 246.483539 
L 208.100571 240.337361 
L 203.509029 228.133647 
L 196.8768 209.189464 
L 193.815771 200.593801 
L 191.264914 194.373749 
L 189.7344 191.294289 
L 188.714057 189.574359 
L 186.673371 186.783725 
L 185.653029 185.781264 
L 184.632686 184.927267 
L 183.612343 184.328363 
L 182.592 183.82049 
L 180.551314 183.418282 
L 179.0208 183.581325 
L 178.000457 183.889713 
L 176.980114 184.63026 
L 175.959771 185.674318 
L 174.429257 187.718853 
L 172.898743 190.399898 
L 170.858057 194.658238 
L 167.797029 201.816366 
L 164.225829 210.924879 
L 157.083429 229.99563 
L 155.042743 234.539583 
L 153.512229 237.48492 
L 151.981714 239.989056 
L 150.961371 241.274592 
L 148.920686 243.094905 
L 147.900343 243.489672 
L 146.88 243.68492 
L 145.349486 243.70137 
L 144.839314 243.389863 
L 144.329143 243.472436 
L 143.818971 243.274378 
L 143.3088 241.714848 
L 142.798629 242.677483 
L 141.778286 241.950583 
L 141.268114 241.522038 
L 140.757943 240.802236 
L 140.247771 240.459508 
L 138.717257 238.40537 
L 138.207086 237.247057 
L 137.696914 236.841498 
L 136.676571 235.082383 
L 136.1664 233.855066 
L 135.656229 233.493086 
L 135.146057 232.593276 
L 134.635886 232.175213 
L 134.125714 231.224784 
L 133.615543 230.778805 
L 133.105371 225.048497 
L 131.064686 220.748309 
L 130.044343 218.138463 
L 127.493486 209.393423 
L 126.473143 205.381386 
L 122.901943 189.532723 
L 119.840914 174.382957 
L 117.290057 160.535647 
L 116.269714 153.760957 
L 114.7392 141.593195 
L 113.718857 132.4659 
L 111.678171 111.585516 
L 110.657829 99.136807 
L 109.637486 84.370097 
L 108.106971 57.343034 
L 106.576457 30.030543 
L 104.70962 -1 
L 104.70962 -1 
" clip-path="url(#p394eea5998)" style="fill: none; stroke: #3a1fc5; stroke-width: 0.5; stroke-linecap: square"/>
   </g>
   <g id="line2d_29">
    <path d="M 363.702857 308.685856 
L 363.192686 308.55761 
L 360.641829 308.5534 
L 356.560457 308.497224 
L 355.540114 308.498779 
L 352.989257 308.441631 
L 350.948571 308.396369 
L 346.357029 308.199951 
L 340.745143 307.764885 
L 339.214629 307.662657 
L 334.623086 307.360397 
L 333.092571 307.294731 
L 323.399314 306.86194 
L 321.8688 306.963972 
L 321.358629 306.776181 
L 317.277257 306.508579 
L 311.665371 305.870964 
L 307.073829 305.031817 
L 306.053486 304.907415 
L 303.502629 304.352598 
L 301.461943 303.908316 
L 299.421257 303.386553 
L 297.890743 302.989799 
L 296.8704 302.605926 
L 296.360229 302.339307 
L 294.319543 301.760093 
L 290.748343 300.594574 
L 288.707657 299.775816 
L 286.1568 298.53335 
L 284.626286 297.779563 
L 281.055086 295.825736 
L 279.524571 295.051584 
L 276.973714 293.66984 
L 273.402514 291.846787 
L 269.321143 289.96248 
L 266.260114 288.766798 
L 262.178743 287.322833 
L 256.056686 285.255713 
L 252.485486 284.143041 
L 250.4448 283.549639 
L 246.8736 282.721502 
L 242.792229 281.81302 
L 241.261714 281.549052 
L 237.180343 280.576691 
L 235.139657 279.838173 
L 233.098971 278.882732 
L 232.078629 278.298625 
L 230.548114 277.27567 
L 229.0176 276.058454 
L 226.976914 274.143408 
L 223.915886 270.53153 
L 220.854857 266.212983 
L 218.304 262.090497 
L 216.773486 259.422746 
L 213.712457 253.603471 
L 210.651429 247.017904 
L 208.100571 240.993847 
L 204.529371 231.653453 
L 199.937829 218.79247 
L 193.815771 201.102854 
L 191.775086 195.851021 
L 189.7344 191.414028 
L 188.203886 188.81434 
L 187.183543 187.354605 
L 185.653029 185.537999 
L 184.632686 184.594001 
L 183.612343 183.85237 
L 182.081829 183.006793 
L 181.061486 182.674044 
L 180.041143 182.488082 
L 179.0208 182.502132 
L 178.000457 182.772968 
L 176.980114 183.351714 
L 176.469943 183.730342 
L 174.939429 185.3256 
L 173.408914 187.638539 
L 171.8784 190.416062 
L 169.837714 194.751964 
L 166.266514 203.218026 
L 161.674971 215.199554 
L 157.083429 227.151057 
L 155.552914 230.642255 
L 153.512229 234.516773 
L 151.981714 236.902146 
L 150.961371 238.208322 
L 148.920686 239.872762 
L 147.900343 240.337802 
L 147.390171 240.451741 
L 144.839314 240.308128 
L 144.329143 240.018133 
L 143.818971 239.957152 
L 143.3088 238.416715 
L 142.798629 239.362167 
L 141.268114 238.188058 
L 140.757943 237.437458 
L 140.247771 237.166055 
L 136.676571 231.824863 
L 136.1664 230.743346 
L 135.146057 229.59061 
L 134.125714 227.91964 
L 133.615543 227.572425 
L 133.105371 222.550935 
L 132.085029 220.658808 
L 130.554514 217.008711 
L 128.513829 210.649726 
L 127.493486 206.72605 
L 124.942629 196.053031 
L 121.8816 181.743529 
L 118.820571 166.029821 
L 117.800229 160.370248 
L 116.269714 150.267034 
L 114.7392 137.82656 
L 113.208686 123.24268 
L 112.698514 117.206172 
L 112.188343 112.651473 
L 110.657829 94.19946 
L 109.637486 78.975317 
L 108.106971 51.641519 
L 106.576457 23.567833 
L 105.090732 -1 
L 105.090732 -1 
" clip-path="url(#p394eea5998)" style="fill: none; stroke: #2c1fd3; stroke-width: 0.5; stroke-linecap: square"/>
   </g>
   <g id="line2d_30">
    <path d="M 363.702857 308.748634 
L 363.192686 308.573837 
L 354.519771 308.511846 
L 351.968914 308.434095 
L 349.928229 308.370641 
L 343.296 308.008433 
L 342.275657 307.915972 
L 327.480686 306.936565 
L 324.419657 306.84534 
L 319.317943 306.626034 
L 310.134857 305.478491 
L 301.972114 303.798568 
L 297.380571 302.543872 
L 296.360229 302.124822 
L 290.748343 300.326232 
L 288.197486 299.222788 
L 281.565257 295.717716 
L 279.524571 294.489621 
L 272.382171 290.590561 
L 265.749943 287.727008 
L 264.219429 287.155843 
L 260.648229 285.865554 
L 251.465143 282.861769 
L 242.282057 280.656323 
L 239.7312 280.198338 
L 236.16 279.274419 
L 233.098971 277.969033 
L 231.568457 277.121354 
L 230.037943 276.110953 
L 227.997257 274.4437 
L 225.4464 271.87276 
L 222.895543 268.779789 
L 220.344686 265.190302 
L 217.793829 261.132161 
L 215.242971 256.674171 
L 212.692114 251.678984 
L 210.141257 246.170361 
L 205.549714 234.975267 
L 200.958171 222.580831 
L 193.3056 200.999942 
L 191.775086 197.156883 
L 190.244571 193.843295 
L 188.714057 191.096967 
L 187.183543 188.908898 
L 185.142857 186.718899 
L 183.612343 185.638756 
L 182.592 185.061648 
L 180.551314 184.389147 
L 179.530971 184.319872 
L 178.510629 184.376709 
L 177.490286 184.826145 
L 176.469943 185.464875 
L 174.939429 187.02948 
L 173.919086 188.403418 
L 171.8784 191.990459 
L 169.837714 196.230082 
L 166.776686 203.239324 
L 163.715657 210.838726 
L 157.5936 226.564469 
L 155.552914 231.107351 
L 154.0224 233.97344 
L 152.491886 236.395394 
L 150.961371 238.347728 
L 149.430857 239.577755 
L 148.410514 240.031368 
L 147.390171 240.264459 
L 144.839314 239.988991 
L 144.329143 239.605909 
L 143.818971 239.580392 
L 143.3088 238.007743 
L 142.798629 238.877621 
L 141.778286 238.069167 
L 141.268114 237.615389 
L 140.757943 236.898997 
L 140.247771 236.519272 
L 138.717257 234.356027 
L 138.207086 233.267055 
L 137.696914 232.739177 
L 135.656229 229.394909 
L 134.125714 227.074925 
L 133.615543 226.951847 
L 133.105371 221.22095 
L 132.085029 219.28767 
L 130.554514 215.547612 
L 129.024 210.96351 
L 127.493486 205.405841 
L 125.962971 199.196357 
L 122.901943 185.792124 
L 118.820571 165.630478 
L 117.290057 156.68518 
L 116.269714 149.799896 
L 114.7392 137.315089 
L 113.208686 122.725063 
L 112.698514 116.549728 
L 111.678171 106.19754 
L 110.657829 93.343107 
L 109.637486 77.933398 
L 108.106971 50.057638 
L 106.066286 13.299987 
L 105.214325 -1 
L 105.214325 -1 
" clip-path="url(#p394eea5998)" style="fill: none; stroke: #1f1fe0; stroke-width: 0.5; stroke-linecap: square"/>
   </g>
   <g id="patch_3">
    <path d="M 57.6 307.584 
L 57.6 41.472 
" style="fill: none; stroke: #000000; stroke-width: 0.8; stroke-linejoin: miter; stroke-linecap: square"/>
   </g>
   <g id="patch_4">
    <path d="M 414.72 307.584 
L 414.72 41.472 
" style="fill: none; stroke: #000000; stroke-width: 0.8; stroke-linejoin: miter; stroke-linecap: square"/>
   </g>
   <g id="patch_5">
    <path d="M 57.6 307.584 
L 414.72 307.584 
" style="fill: none; stroke: #000000; stroke-width: 0.8; stroke-linejoin: miter; stroke-linecap: square"/>
   </g>
   <g id="patch_6">
    <path d="M 57.6 41.472 
L 414.72 41.472 
" style="fill: none; stroke: #000000; stroke-width: 0.8; stroke-linejoin: miter; stroke-linecap: square"/>
   </g>
   <g id="text_18">
    <!-- IDA Titration of Alizarin:ompPBA complex &amp; Hydrobenzoin in DMF  -->
    <g transform="translate(38.014688 22.034625) scale(0.12 -0.12)">
     <defs>
      <path id="DejaVuSans-49" d="M 628 4666 
L 1259 4666 
L 1259 0 
L 628 0 
L 628 4666 
z
" transform="scale(0.015625)"/>
      <path id="DejaVuSans-44" d="M 1259 4147 
L 1259 519 
L 2022 519 
Q 2988 519 3436 956 
Q 3884 1394 3884 2338 
Q 3884 3275 3436 3711 
Q 2988 4147 2022 4147 
L 1259 4147 
z
M 628 4666 
L 1925 4666 
Q 3281 4666 3915 4102 
Q 4550 3538 4550 2338 
Q 4550 1131 3912 565 
Q 3275 0 1925 0 
L 628 0 
L 628 4666 
z
" transform="scale(0.015625)"/>
      <path id="DejaVuSans-54" d="M -19 4666 
L 3928 4666 
L 3928 4134 
L 2272 4134 
L 2272 0 
L 1638 0 
L 1638 4134 
L -19 4134 
L -19 4666 
z
" transform="scale(0.015625)"/>
      <path id="DejaVuSans-69" d="M 603 3500 
L 1178 3500 
L 1178 0 
L 603 0 
L 603 3500 
z
M 603 4863 
L 1178 4863 
L 1178 4134 
L 603 4134 
L 603 4863 
z
" transform="scale(0.015625)"/>
      <path id="DejaVuSans-66" d="M 2375 4863 
L 2375 4384 
L 1825 4384 
Q 1516 4384 1395 4259 
Q 1275 4134 1275 3809 
L 1275 3500 
L 2222 3500 
L 2222 3053 
L 1275 3053 
L 1275 0 
L 697 0 
L 697 3053 
L 147 3053 
L 147 3500 
L 697 3500 
L 697 3744 
Q 697 4328 969 4595 
Q 1241 4863 1831 4863 
L 2375 4863 
z
" transform="scale(0.015625)"/>
      <path id="DejaVuSans-7a" d="M 353 3500 
L 3084 3500 
L 3084 2975 
L 922 459 
L 3084 459 
L 3084 0 
L 275 0 
L 275 525 
L 2438 3041 
L 353 3041 
L 353 3500 
z
" transform="scale(0.015625)"/>
      <path id="DejaVuSans-3a" d="M 750 794 
L 1409 794 
L 1409 0 
L 750 0 
L 750 794 
z
M 750 3309 
L 1409 3309 
L 1409 2516 
L 750 2516 
L 750 3309 
z
" transform="scale(0.015625)"/>
      <path id="DejaVuSans-70" d="M 1159 525 
L 1159 -1331 
L 581 -1331 
L 581 3500 
L 1159 3500 
L 1159 2969 
Q 1341 3281 1617 3432 
Q 1894 3584 2278 3584 
Q 2916 3584 3314 3078 
Q 3713 2572 3713 1747 
Q 3713 922 3314 415 
Q 2916 -91 2278 -91 
Q 1894 -91 1617 61 
Q 1341 213 1159 525 
z
M 3116 1747 
Q 3116 2381 2855 2742 
Q 2594 3103 2138 3103 
Q 1681 3103 1420 2742 
Q 1159 2381 1159 1747 
Q 1159 1113 1420 752 
Q 1681 391 2138 391 
Q 2594 391 2855 752 
Q 3116 1113 3116 1747 
z
" transform="scale(0.015625)"/>
      <path id="DejaVuSans-50" d="M 1259 4147 
L 1259 2394 
L 2053 2394 
Q 2494 2394 2734 2622 
Q 2975 2850 2975 3272 
Q 2975 3691 2734 3919 
Q 2494 4147 2053 4147 
L 1259 4147 
z
M 628 4666 
L 2053 4666 
Q 2838 4666 3239 4311 
Q 3641 3956 3641 3272 
Q 3641 2581 3239 2228 
Q 2838 1875 2053 1875 
L 1259 1875 
L 1259 0 
L 628 0 
L 628 4666 
z
" transform="scale(0.015625)"/>
      <path id="DejaVuSans-42" d="M 1259 2228 
L 1259 519 
L 2272 519 
Q 2781 519 3026 730 
Q 3272 941 3272 1375 
Q 3272 1813 3026 2020 
Q 2781 2228 2272 2228 
L 1259 2228 
z
M 1259 4147 
L 1259 2741 
L 2194 2741 
Q 2656 2741 2882 2914 
Q 3109 3088 3109 3444 
Q 3109 3797 2882 3972 
Q 2656 4147 2194 4147 
L 1259 4147 
z
M 628 4666 
L 2241 4666 
Q 2963 4666 3353 4366 
Q 3744 4066 3744 3513 
Q 3744 3084 3544 2831 
Q 3344 2578 2956 2516 
Q 3422 2416 3680 2098 
Q 3938 1781 3938 1306 
Q 3938 681 3513 340 
Q 3088 0 2303 0 
L 628 0 
L 628 4666 
z
" transform="scale(0.015625)"/>
      <path id="DejaVuSans-78" d="M 3513 3500 
L 2247 1797 
L 3578 0 
L 2900 0 
L 1881 1375 
L 863 0 
L 184 0 
L 1544 1831 
L 300 3500 
L 978 3500 
L 1906 2253 
L 2834 3500 
L 3513 3500 
z
" transform="scale(0.015625)"/>
      <path id="DejaVuSans-26" d="M 1556 2509 
Q 1272 2256 1139 2004 
Q 1006 1753 1006 1478 
Q 1006 1022 1337 719 
Q 1669 416 2169 416 
Q 2466 416 2725 514 
Q 2984 613 3213 813 
L 1556 2509 
z
M 1997 2859 
L 3584 1234 
Q 3769 1513 3872 1830 
Q 3975 2147 3994 2503 
L 4575 2503 
Q 4538 2091 4375 1687 
Q 4213 1284 3922 891 
L 4794 0 
L 4006 0 
L 3559 459 
Q 3234 181 2878 45 
Q 2522 -91 2113 -91 
Q 1359 -91 881 339 
Q 403 769 403 1441 
Q 403 1841 612 2192 
Q 822 2544 1241 2853 
Q 1091 3050 1012 3245 
Q 934 3441 934 3628 
Q 934 4134 1281 4442 
Q 1628 4750 2203 4750 
Q 2463 4750 2720 4694 
Q 2978 4638 3244 4525 
L 3244 3956 
Q 2972 4103 2725 4179 
Q 2478 4256 2266 4256 
Q 1938 4256 1733 4082 
Q 1528 3909 1528 3634 
Q 1528 3475 1620 3314 
Q 1713 3153 1997 2859 
z
" transform="scale(0.015625)"/>
      <path id="DejaVuSans-48" d="M 628 4666 
L 1259 4666 
L 1259 2753 
L 3553 2753 
L 3553 4666 
L 4184 4666 
L 4184 0 
L 3553 0 
L 3553 2222 
L 1259 2222 
L 1259 0 
L 628 0 
L 628 4666 
z
" transform="scale(0.015625)"/>
      <path id="DejaVuSans-79" d="M 2059 -325 
Q 1816 -950 1584 -1140 
Q 1353 -1331 966 -1331 
L 506 -1331 
L 506 -850 
L 844 -850 
Q 1081 -850 1212 -737 
Q 1344 -625 1503 -206 
L 1606 56 
L 191 3500 
L 800 3500 
L 1894 763 
L 2988 3500 
L 3597 3500 
L 2059 -325 
z
" transform="scale(0.015625)"/>
      <path id="DejaVuSans-64" d="M 2906 2969 
L 2906 4863 
L 3481 4863 
L 3481 0 
L 2906 0 
L 2906 525 
Q 2725 213 2448 61 
Q 2172 -91 1784 -91 
Q 1150 -91 751 415 
Q 353 922 353 1747 
Q 353 2572 751 3078 
Q 1150 3584 1784 3584 
Q 2172 3584 2448 3432 
Q 2725 3281 2906 2969 
z
M 947 1747 
Q 947 1113 1208 752 
Q 1469 391 1925 391 
Q 2381 391 2643 752 
Q 2906 1113 2906 1747 
Q 2906 2381 2643 2742 
Q 2381 3103 1925 3103 
Q 1469 3103 1208 2742 
Q 947 2381 947 1747 
z
" transform="scale(0.015625)"/>
      <path id="DejaVuSans-4d" d="M 628 4666 
L 1569 4666 
L 2759 1491 
L 3956 4666 
L 4897 4666 
L 4897 0 
L 4281 0 
L 4281 4097 
L 3078 897 
L 2444 897 
L 1241 4097 
L 1241 0 
L 628 0 
L 628 4666 
z
" transform="scale(0.015625)"/>
      <path id="DejaVuSans-46" d="M 628 4666 
L 3309 4666 
L 3309 4134 
L 1259 4134 
L 1259 2759 
L 3109 2759 
L 3109 2228 
L 1259 2228 
L 1259 0 
L 628 0 
L 628 4666 
z
" transform="scale(0.015625)"/>
     </defs>
     <use xlink:href="#DejaVuSans-49"/>
     <use xlink:href="#DejaVuSans-44" x="29.492188"/>
     <use xlink:href="#DejaVuSans-41" x="104.744141"/>
     <use xlink:href="#DejaVuSans-20" x="173.152344"/>
     <use xlink:href="#DejaVuSans-54" x="204.939453"/>
     <use xlink:href="#DejaVuSans-69" x="262.898438"/>
     <use xlink:href="#DejaVuSans-74" x="290.681641"/>
     <use xlink:href="#DejaVuSans-72" x="329.890625"/>
     <use xlink:href="#DejaVuSans-61" x="371.003906"/>
     <use xlink:href="#DejaVuSans-74" x="432.283203"/>
     <use xlink:href="#DejaVuSans-69" x="471.492188"/>
     <use xlink:href="#DejaVuSans-6f" x="499.275391"/>
     <use xlink:href="#DejaVuSans-6e" x="560.457031"/>
     <use xlink:href="#DejaVuSans-20" x="623.835938"/>
     <use xlink:href="#DejaVuSans-6f" x="655.623047"/>
     <use xlink:href="#DejaVuSans-66" x="716.804688"/>
     <use xlink:href="#DejaVuSans-20" x="752.009766"/>
     <use xlink:href="#DejaVuSans-41" x="783.796875"/>
     <use xlink:href="#DejaVuSans-6c" x="852.205078"/>
     <use xlink:href="#DejaVuSans-69" x="879.988281"/>
     <use xlink:href="#DejaVuSans-7a" x="907.771484"/>
     <use xlink:href="#DejaVuSans-61" x="960.261719"/>
     <use xlink:href="#DejaVuSans-72" x="1021.541016"/>
     <use xlink:href="#DejaVuSans-69" x="1062.654297"/>
     <use xlink:href="#DejaVuSans-6e" x="1090.4375"/>
     <use xlink:href="#DejaVuSans-3a" x="1153.816406"/>
     <use xlink:href="#DejaVuSans-6f" x="1187.507812"/>
     <use xlink:href="#DejaVuSans-6d" x="1248.689453"/>
     <use xlink:href="#DejaVuSans-70" x="1346.101562"/>
     <use xlink:href="#DejaVuSans-50" x="1409.578125"/>
     <use xlink:href="#DejaVuSans-42" x="1469.880859"/>
     <use xlink:href="#DejaVuSans-41" x="1538.484375"/>
     <use xlink:href="#DejaVuSans-20" x="1606.892578"/>
     <use xlink:href="#DejaVuSans-63" x="1638.679688"/>
     <use xlink:href="#DejaVuSans-6f" x="1693.660156"/>
     <use xlink:href="#DejaVuSans-6d" x="1754.841797"/>
     <use xlink:href="#DejaVuSans-70" x="1852.253906"/>
     <use xlink:href="#DejaVuSans-6c" x="1915.730469"/>
     <use xlink:href="#DejaVuSans-65" x="1943.513672"/>
     <use xlink:href="#DejaVuSans-78" x="2003.287109"/>
     <use xlink:href="#DejaVuSans-20" x="2062.466797"/>
     <use xlink:href="#DejaVuSans-26" x="2094.253906"/>
     <use xlink:href="#DejaVuSans-20" x="2172.232422"/>
     <use xlink:href="#DejaVuSans-48" x="2204.019531"/>
     <use xlink:href="#DejaVuSans-79" x="2279.214844"/>
     <use xlink:href="#DejaVuSans-64" x="2338.394531"/>
     <use xlink:href="#DejaVuSans-72" x="2401.871094"/>
     <use xlink:href="#DejaVuSans-6f" x="2440.734375"/>
     <use xlink:href="#DejaVuSans-62" x="2501.916016"/>
     <use xlink:href="#DejaVuSans-65" x="2565.392578"/>
     <use xlink:href="#DejaVuSans-6e" x="2626.916016"/>
     <use xlink:href="#DejaVuSans-7a" x="2690.294922"/>
     <use xlink:href="#DejaVuSans-6f" x="2742.785156"/>
     <use xlink:href="#DejaVuSans-69" x="2803.966797"/>
     <use xlink:href="#DejaVuSans-6e" x="2831.75"/>
     <use xlink:href="#DejaVuSans-20" x="2895.128906"/>
     <use xlink:href="#DejaVuSans-69" x="2926.916016"/>
     <use xlink:href="#DejaVuSans-6e" x="2954.699219"/>
     <use xlink:href="#DejaVuSans-20" x="3018.078125"/>
     <use xlink:href="#DejaVuSans-44" x="3049.865234"/>
     <use xlink:href="#DejaVuSans-4d" x="3126.867188"/>
     <use xlink:href="#DejaVuSans-46" x="3213.146484"/>
     <use xlink:href="#DejaVuSans-20" x="3270.666016"/>
    </g>
    <!--  -->
    <g transform="translate(236.16 35.472) scale(0.12 -0.12)"/>
   </g>
  </g>
 </g>
 <defs>
  <clipPath id="p394eea5998">
   <rect x="57.6" y="41.472" width="357.12" height="266.112"/>
  </clipPath>
 </defs>
</svg>
