<?xml version="1.0" encoding="utf-8" standalone="no"?>
<!DOCTYPE svg PUBLIC "-//W3C//DTD SVG 1.1//EN"
  "http://www.w3.org/Graphics/SVG/1.1/DTD/svg11.dtd">
<svg xmlns:xlink="http://www.w3.org/1999/xlink" width="460.8pt" height="345.6pt" viewBox="0 0 460.8 345.6" xmlns="http://www.w3.org/2000/svg" version="1.1">
 <metadata>
  <rdf:RDF xmlns:dc="http://purl.org/dc/elements/1.1/" xmlns:cc="http://creativecommons.org/ns#" xmlns:rdf="http://www.w3.org/1999/02/22-rdf-syntax-ns#">
   <cc:Work>
    <dc:type rdf:resource="http://purl.org/dc/dcmitype/StillImage"/>
    <dc:date>2024-11-03T21:07:20.651307</dc:date>
    <dc:format>image/svg+xml</dc:format>
    <dc:creator>
     <cc:Agent>
      <dc:title>Matplotlib v3.9.2, https://matplotlib.org/</dc:title>
     </cc:Agent>
    </dc:creator>
   </cc:Work>
  </rdf:RDF>
 </metadata>
 <defs>
  <style type="text/css">*{stroke-linejoin: round; stroke-linecap: butt}</style>
 </defs>
 <g id="figure_1">
  <g id="patch_1">
   <path d="M 0 345.6 
L 460.8 345.6 
L 460.8 0 
L 0 0 
z
" style="fill: #ffffff"/>
  </g>
  <g id="axes_1">
   <g id="patch_2">
    <path d="M 57.6 307.584 
L 414.72 307.584 
L 414.72 41.472 
L 57.6 41.472 
z
" style="fill: #ffffff"/>
   </g>
   <g id="matplotlib.axis_1">
    <g id="xtick_1">
     <g id="line2d_1">
      <defs>
       <path id="md7a021e359" d="M 0 0 
L 0 3.5 
" style="stroke: #000000; stroke-width: 0.8"/>
      </defs>
      <g>
       <use xlink:href="#md7a021e359" x="57.6" y="307.584" style="stroke: #000000; stroke-width: 0.8"/>
      </g>
     </g>
     <g id="text_1">
      <!-- 200 -->
      <g transform="translate(48.05625 322.182437) scale(0.1 -0.1)">
       <defs>
        <path id="DejaVuSans-32" d="M 1228 531 
L 3431 531 
L 3431 0 
L 469 0 
L 469 531 
Q 828 903 1448 1529 
Q 2069 2156 2228 2338 
Q 2531 2678 2651 2914 
Q 2772 3150 2772 3378 
Q 2772 3750 2511 3984 
Q 2250 4219 1831 4219 
Q 1534 4219 1204 4116 
Q 875 4013 500 3803 
L 500 4441 
Q 881 4594 1212 4672 
Q 1544 4750 1819 4750 
Q 2544 4750 2975 4387 
Q 3406 4025 3406 3419 
Q 3406 3131 3298 2873 
Q 3191 2616 2906 2266 
Q 2828 2175 2409 1742 
Q 1991 1309 1228 531 
z
" transform="scale(0.015625)"/>
        <path id="DejaVuSans-30" d="M 2034 4250 
Q 1547 4250 1301 3770 
Q 1056 3291 1056 2328 
Q 1056 1369 1301 889 
Q 1547 409 2034 409 
Q 2525 409 2770 889 
Q 3016 1369 3016 2328 
Q 3016 3291 2770 3770 
Q 2525 4250 2034 4250 
z
M 2034 4750 
Q 2819 4750 3233 4129 
Q 3647 3509 3647 2328 
Q 3647 1150 3233 529 
Q 2819 -91 2034 -91 
Q 1250 -91 836 529 
Q 422 1150 422 2328 
Q 422 3509 836 4129 
Q 1250 4750 2034 4750 
z
" transform="scale(0.015625)"/>
       </defs>
       <use xlink:href="#DejaVuSans-32"/>
       <use xlink:href="#DejaVuSans-30" x="63.623047"/>
       <use xlink:href="#DejaVuSans-30" x="127.246094"/>
      </g>
     </g>
    </g>
    <g id="xtick_2">
     <g id="line2d_2">
      <g>
       <use xlink:href="#md7a021e359" x="108.617143" y="307.584" style="stroke: #000000; stroke-width: 0.8"/>
      </g>
     </g>
     <g id="text_2">
      <!-- 300 -->
      <g transform="translate(99.073393 322.182437) scale(0.1 -0.1)">
       <defs>
        <path id="DejaVuSans-33" d="M 2597 2516 
Q 3050 2419 3304 2112 
Q 3559 1806 3559 1356 
Q 3559 666 3084 287 
Q 2609 -91 1734 -91 
Q 1441 -91 1130 -33 
Q 819 25 488 141 
L 488 750 
Q 750 597 1062 519 
Q 1375 441 1716 441 
Q 2309 441 2620 675 
Q 2931 909 2931 1356 
Q 2931 1769 2642 2001 
Q 2353 2234 1838 2234 
L 1294 2234 
L 1294 2753 
L 1863 2753 
Q 2328 2753 2575 2939 
Q 2822 3125 2822 3475 
Q 2822 3834 2567 4026 
Q 2313 4219 1838 4219 
Q 1578 4219 1281 4162 
Q 984 4106 628 3988 
L 628 4550 
Q 988 4650 1302 4700 
Q 1616 4750 1894 4750 
Q 2613 4750 3031 4423 
Q 3450 4097 3450 3541 
Q 3450 3153 3228 2886 
Q 3006 2619 2597 2516 
z
" transform="scale(0.015625)"/>
       </defs>
       <use xlink:href="#DejaVuSans-33"/>
       <use xlink:href="#DejaVuSans-30" x="63.623047"/>
       <use xlink:href="#DejaVuSans-30" x="127.246094"/>
      </g>
     </g>
    </g>
    <g id="xtick_3">
     <g id="line2d_3">
      <g>
       <use xlink:href="#md7a021e359" x="159.634286" y="307.584" style="stroke: #000000; stroke-width: 0.8"/>
      </g>
     </g>
     <g id="text_3">
      <!-- 400 -->
      <g transform="translate(150.090536 322.182437) scale(0.1 -0.1)">
       <defs>
        <path id="DejaVuSans-34" d="M 2419 4116 
L 825 1625 
L 2419 1625 
L 2419 4116 
z
M 2253 4666 
L 3047 4666 
L 3047 1625 
L 3713 1625 
L 3713 1100 
L 3047 1100 
L 3047 0 
L 2419 0 
L 2419 1100 
L 313 1100 
L 313 1709 
L 2253 4666 
z
" transform="scale(0.015625)"/>
       </defs>
       <use xlink:href="#DejaVuSans-34"/>
       <use xlink:href="#DejaVuSans-30" x="63.623047"/>
       <use xlink:href="#DejaVuSans-30" x="127.246094"/>
      </g>
     </g>
    </g>
    <g id="xtick_4">
     <g id="line2d_4">
      <g>
       <use xlink:href="#md7a021e359" x="210.651429" y="307.584" style="stroke: #000000; stroke-width: 0.8"/>
      </g>
     </g>
     <g id="text_4">
      <!-- 500 -->
      <g transform="translate(201.107679 322.182437) scale(0.1 -0.1)">
       <defs>
        <path id="DejaVuSans-35" d="M 691 4666 
L 3169 4666 
L 3169 4134 
L 1269 4134 
L 1269 2991 
Q 1406 3038 1543 3061 
Q 1681 3084 1819 3084 
Q 2600 3084 3056 2656 
Q 3513 2228 3513 1497 
Q 3513 744 3044 326 
Q 2575 -91 1722 -91 
Q 1428 -91 1123 -41 
Q 819 9 494 109 
L 494 744 
Q 775 591 1075 516 
Q 1375 441 1709 441 
Q 2250 441 2565 725 
Q 2881 1009 2881 1497 
Q 2881 1984 2565 2268 
Q 2250 2553 1709 2553 
Q 1456 2553 1204 2497 
Q 953 2441 691 2322 
L 691 4666 
z
" transform="scale(0.015625)"/>
       </defs>
       <use xlink:href="#DejaVuSans-35"/>
       <use xlink:href="#DejaVuSans-30" x="63.623047"/>
       <use xlink:href="#DejaVuSans-30" x="127.246094"/>
      </g>
     </g>
    </g>
    <g id="xtick_5">
     <g id="line2d_5">
      <g>
       <use xlink:href="#md7a021e359" x="261.668571" y="307.584" style="stroke: #000000; stroke-width: 0.8"/>
      </g>
     </g>
     <g id="text_5">
      <!-- 600 -->
      <g transform="translate(252.124821 322.182437) scale(0.1 -0.1)">
       <defs>
        <path id="DejaVuSans-36" d="M 2113 2584 
Q 1688 2584 1439 2293 
Q 1191 2003 1191 1497 
Q 1191 994 1439 701 
Q 1688 409 2113 409 
Q 2538 409 2786 701 
Q 3034 994 3034 1497 
Q 3034 2003 2786 2293 
Q 2538 2584 2113 2584 
z
M 3366 4563 
L 3366 3988 
Q 3128 4100 2886 4159 
Q 2644 4219 2406 4219 
Q 1781 4219 1451 3797 
Q 1122 3375 1075 2522 
Q 1259 2794 1537 2939 
Q 1816 3084 2150 3084 
Q 2853 3084 3261 2657 
Q 3669 2231 3669 1497 
Q 3669 778 3244 343 
Q 2819 -91 2113 -91 
Q 1303 -91 875 529 
Q 447 1150 447 2328 
Q 447 3434 972 4092 
Q 1497 4750 2381 4750 
Q 2619 4750 2861 4703 
Q 3103 4656 3366 4563 
z
" transform="scale(0.015625)"/>
       </defs>
       <use xlink:href="#DejaVuSans-36"/>
       <use xlink:href="#DejaVuSans-30" x="63.623047"/>
       <use xlink:href="#DejaVuSans-30" x="127.246094"/>
      </g>
     </g>
    </g>
    <g id="xtick_6">
     <g id="line2d_6">
      <g>
       <use xlink:href="#md7a021e359" x="312.685714" y="307.584" style="stroke: #000000; stroke-width: 0.8"/>
      </g>
     </g>
     <g id="text_6">
      <!-- 700 -->
      <g transform="translate(303.141964 322.182437) scale(0.1 -0.1)">
       <defs>
        <path id="DejaVuSans-37" d="M 525 4666 
L 3525 4666 
L 3525 4397 
L 1831 0 
L 1172 0 
L 2766 4134 
L 525 4134 
L 525 4666 
z
" transform="scale(0.015625)"/>
       </defs>
       <use xlink:href="#DejaVuSans-37"/>
       <use xlink:href="#DejaVuSans-30" x="63.623047"/>
       <use xlink:href="#DejaVuSans-30" x="127.246094"/>
      </g>
     </g>
    </g>
    <g id="xtick_7">
     <g id="line2d_7">
      <g>
       <use xlink:href="#md7a021e359" x="363.702857" y="307.584" style="stroke: #000000; stroke-width: 0.8"/>
      </g>
     </g>
     <g id="text_7">
      <!-- 800 -->
      <g transform="translate(354.159107 322.182437) scale(0.1 -0.1)">
       <defs>
        <path id="DejaVuSans-38" d="M 2034 2216 
Q 1584 2216 1326 1975 
Q 1069 1734 1069 1313 
Q 1069 891 1326 650 
Q 1584 409 2034 409 
Q 2484 409 2743 651 
Q 3003 894 3003 1313 
Q 3003 1734 2745 1975 
Q 2488 2216 2034 2216 
z
M 1403 2484 
Q 997 2584 770 2862 
Q 544 3141 544 3541 
Q 544 4100 942 4425 
Q 1341 4750 2034 4750 
Q 2731 4750 3128 4425 
Q 3525 4100 3525 3541 
Q 3525 3141 3298 2862 
Q 3072 2584 2669 2484 
Q 3125 2378 3379 2068 
Q 3634 1759 3634 1313 
Q 3634 634 3220 271 
Q 2806 -91 2034 -91 
Q 1263 -91 848 271 
Q 434 634 434 1313 
Q 434 1759 690 2068 
Q 947 2378 1403 2484 
z
M 1172 3481 
Q 1172 3119 1398 2916 
Q 1625 2713 2034 2713 
Q 2441 2713 2670 2916 
Q 2900 3119 2900 3481 
Q 2900 3844 2670 4047 
Q 2441 4250 2034 4250 
Q 1625 4250 1398 4047 
Q 1172 3844 1172 3481 
z
" transform="scale(0.015625)"/>
       </defs>
       <use xlink:href="#DejaVuSans-38"/>
       <use xlink:href="#DejaVuSans-30" x="63.623047"/>
       <use xlink:href="#DejaVuSans-30" x="127.246094"/>
      </g>
     </g>
    </g>
    <g id="xtick_8">
     <g id="line2d_8">
      <g>
       <use xlink:href="#md7a021e359" x="414.72" y="307.584" style="stroke: #000000; stroke-width: 0.8"/>
      </g>
     </g>
     <g id="text_8">
      <!-- 900 -->
      <g transform="translate(405.17625 322.182437) scale(0.1 -0.1)">
       <defs>
        <path id="DejaVuSans-39" d="M 703 97 
L 703 672 
Q 941 559 1184 500 
Q 1428 441 1663 441 
Q 2288 441 2617 861 
Q 2947 1281 2994 2138 
Q 2813 1869 2534 1725 
Q 2256 1581 1919 1581 
Q 1219 1581 811 2004 
Q 403 2428 403 3163 
Q 403 3881 828 4315 
Q 1253 4750 1959 4750 
Q 2769 4750 3195 4129 
Q 3622 3509 3622 2328 
Q 3622 1225 3098 567 
Q 2575 -91 1691 -91 
Q 1453 -91 1209 -44 
Q 966 3 703 97 
z
M 1959 2075 
Q 2384 2075 2632 2365 
Q 2881 2656 2881 3163 
Q 2881 3666 2632 3958 
Q 2384 4250 1959 4250 
Q 1534 4250 1286 3958 
Q 1038 3666 1038 3163 
Q 1038 2656 1286 2365 
Q 1534 2075 1959 2075 
z
" transform="scale(0.015625)"/>
       </defs>
       <use xlink:href="#DejaVuSans-39"/>
       <use xlink:href="#DejaVuSans-30" x="63.623047"/>
       <use xlink:href="#DejaVuSans-30" x="127.246094"/>
      </g>
     </g>
    </g>
    <g id="text_9">
     <!-- Wavelength (nm) -->
     <g transform="translate(192.967812 335.860562) scale(0.1 -0.1)">
      <defs>
       <path id="DejaVuSans-57" d="M 213 4666 
L 850 4666 
L 1831 722 
L 2809 4666 
L 3519 4666 
L 4500 722 
L 5478 4666 
L 6119 4666 
L 4947 0 
L 4153 0 
L 3169 4050 
L 2175 0 
L 1381 0 
L 213 4666 
z
" transform="scale(0.015625)"/>
       <path id="DejaVuSans-61" d="M 2194 1759 
Q 1497 1759 1228 1600 
Q 959 1441 959 1056 
Q 959 750 1161 570 
Q 1363 391 1709 391 
Q 2188 391 2477 730 
Q 2766 1069 2766 1631 
L 2766 1759 
L 2194 1759 
z
M 3341 1997 
L 3341 0 
L 2766 0 
L 2766 531 
Q 2569 213 2275 61 
Q 1981 -91 1556 -91 
Q 1019 -91 701 211 
Q 384 513 384 1019 
Q 384 1609 779 1909 
Q 1175 2209 1959 2209 
L 2766 2209 
L 2766 2266 
Q 2766 2663 2505 2880 
Q 2244 3097 1772 3097 
Q 1472 3097 1187 3025 
Q 903 2953 641 2809 
L 641 3341 
Q 956 3463 1253 3523 
Q 1550 3584 1831 3584 
Q 2591 3584 2966 3190 
Q 3341 2797 3341 1997 
z
" transform="scale(0.015625)"/>
       <path id="DejaVuSans-76" d="M 191 3500 
L 800 3500 
L 1894 563 
L 2988 3500 
L 3597 3500 
L 2284 0 
L 1503 0 
L 191 3500 
z
" transform="scale(0.015625)"/>
       <path id="DejaVuSans-65" d="M 3597 1894 
L 3597 1613 
L 953 1613 
Q 991 1019 1311 708 
Q 1631 397 2203 397 
Q 2534 397 2845 478 
Q 3156 559 3463 722 
L 3463 178 
Q 3153 47 2828 -22 
Q 2503 -91 2169 -91 
Q 1331 -91 842 396 
Q 353 884 353 1716 
Q 353 2575 817 3079 
Q 1281 3584 2069 3584 
Q 2775 3584 3186 3129 
Q 3597 2675 3597 1894 
z
M 3022 2063 
Q 3016 2534 2758 2815 
Q 2500 3097 2075 3097 
Q 1594 3097 1305 2825 
Q 1016 2553 972 2059 
L 3022 2063 
z
" transform="scale(0.015625)"/>
       <path id="DejaVuSans-6c" d="M 603 4863 
L 1178 4863 
L 1178 0 
L 603 0 
L 603 4863 
z
" transform="scale(0.015625)"/>
       <path id="DejaVuSans-6e" d="M 3513 2113 
L 3513 0 
L 2938 0 
L 2938 2094 
Q 2938 2591 2744 2837 
Q 2550 3084 2163 3084 
Q 1697 3084 1428 2787 
Q 1159 2491 1159 1978 
L 1159 0 
L 581 0 
L 581 3500 
L 1159 3500 
L 1159 2956 
Q 1366 3272 1645 3428 
Q 1925 3584 2291 3584 
Q 2894 3584 3203 3211 
Q 3513 2838 3513 2113 
z
" transform="scale(0.015625)"/>
       <path id="DejaVuSans-67" d="M 2906 1791 
Q 2906 2416 2648 2759 
Q 2391 3103 1925 3103 
Q 1463 3103 1205 2759 
Q 947 2416 947 1791 
Q 947 1169 1205 825 
Q 1463 481 1925 481 
Q 2391 481 2648 825 
Q 2906 1169 2906 1791 
z
M 3481 434 
Q 3481 -459 3084 -895 
Q 2688 -1331 1869 -1331 
Q 1566 -1331 1297 -1286 
Q 1028 -1241 775 -1147 
L 775 -588 
Q 1028 -725 1275 -790 
Q 1522 -856 1778 -856 
Q 2344 -856 2625 -561 
Q 2906 -266 2906 331 
L 2906 616 
Q 2728 306 2450 153 
Q 2172 0 1784 0 
Q 1141 0 747 490 
Q 353 981 353 1791 
Q 353 2603 747 3093 
Q 1141 3584 1784 3584 
Q 2172 3584 2450 3431 
Q 2728 3278 2906 2969 
L 2906 3500 
L 3481 3500 
L 3481 434 
z
" transform="scale(0.015625)"/>
       <path id="DejaVuSans-74" d="M 1172 4494 
L 1172 3500 
L 2356 3500 
L 2356 3053 
L 1172 3053 
L 1172 1153 
Q 1172 725 1289 603 
Q 1406 481 1766 481 
L 2356 481 
L 2356 0 
L 1766 0 
Q 1100 0 847 248 
Q 594 497 594 1153 
L 594 3053 
L 172 3053 
L 172 3500 
L 594 3500 
L 594 4494 
L 1172 4494 
z
" transform="scale(0.015625)"/>
       <path id="DejaVuSans-68" d="M 3513 2113 
L 3513 0 
L 2938 0 
L 2938 2094 
Q 2938 2591 2744 2837 
Q 2550 3084 2163 3084 
Q 1697 3084 1428 2787 
Q 1159 2491 1159 1978 
L 1159 0 
L 581 0 
L 581 4863 
L 1159 4863 
L 1159 2956 
Q 1366 3272 1645 3428 
Q 1925 3584 2291 3584 
Q 2894 3584 3203 3211 
Q 3513 2838 3513 2113 
z
" transform="scale(0.015625)"/>
       <path id="DejaVuSans-20" transform="scale(0.015625)"/>
       <path id="DejaVuSans-28" d="M 1984 4856 
Q 1566 4138 1362 3434 
Q 1159 2731 1159 2009 
Q 1159 1288 1364 580 
Q 1569 -128 1984 -844 
L 1484 -844 
Q 1016 -109 783 600 
Q 550 1309 550 2009 
Q 550 2706 781 3412 
Q 1013 4119 1484 4856 
L 1984 4856 
z
" transform="scale(0.015625)"/>
       <path id="DejaVuSans-6d" d="M 3328 2828 
Q 3544 3216 3844 3400 
Q 4144 3584 4550 3584 
Q 5097 3584 5394 3201 
Q 5691 2819 5691 2113 
L 5691 0 
L 5113 0 
L 5113 2094 
Q 5113 2597 4934 2840 
Q 4756 3084 4391 3084 
Q 3944 3084 3684 2787 
Q 3425 2491 3425 1978 
L 3425 0 
L 2847 0 
L 2847 2094 
Q 2847 2600 2669 2842 
Q 2491 3084 2119 3084 
Q 1678 3084 1418 2786 
Q 1159 2488 1159 1978 
L 1159 0 
L 581 0 
L 581 3500 
L 1159 3500 
L 1159 2956 
Q 1356 3278 1631 3431 
Q 1906 3584 2284 3584 
Q 2666 3584 2933 3390 
Q 3200 3197 3328 2828 
z
" transform="scale(0.015625)"/>
       <path id="DejaVuSans-29" d="M 513 4856 
L 1013 4856 
Q 1481 4119 1714 3412 
Q 1947 2706 1947 2009 
Q 1947 1309 1714 600 
Q 1481 -109 1013 -844 
L 513 -844 
Q 928 -128 1133 580 
Q 1338 1288 1338 2009 
Q 1338 2731 1133 3434 
Q 928 4138 513 4856 
z
" transform="scale(0.015625)"/>
      </defs>
      <use xlink:href="#DejaVuSans-57"/>
      <use xlink:href="#DejaVuSans-61" x="92.501953"/>
      <use xlink:href="#DejaVuSans-76" x="153.78125"/>
      <use xlink:href="#DejaVuSans-65" x="212.960938"/>
      <use xlink:href="#DejaVuSans-6c" x="274.484375"/>
      <use xlink:href="#DejaVuSans-65" x="302.267578"/>
      <use xlink:href="#DejaVuSans-6e" x="363.791016"/>
      <use xlink:href="#DejaVuSans-67" x="427.169922"/>
      <use xlink:href="#DejaVuSans-74" x="490.646484"/>
      <use xlink:href="#DejaVuSans-68" x="529.855469"/>
      <use xlink:href="#DejaVuSans-20" x="593.234375"/>
      <use xlink:href="#DejaVuSans-28" x="625.021484"/>
      <use xlink:href="#DejaVuSans-6e" x="664.035156"/>
      <use xlink:href="#DejaVuSans-6d" x="727.414062"/>
      <use xlink:href="#DejaVuSans-29" x="824.826172"/>
     </g>
    </g>
   </g>
   <g id="matplotlib.axis_2">
    <g id="ytick_1">
     <g id="line2d_9">
      <defs>
       <path id="m19e19971ee" d="M 0 0 
L -3.5 0 
" style="stroke: #000000; stroke-width: 0.8"/>
      </defs>
      <g>
       <use xlink:href="#m19e19971ee" x="57.6" y="307.584" style="stroke: #000000; stroke-width: 0.8"/>
      </g>
     </g>
     <g id="text_10">
      <!-- 0.0 -->
      <g transform="translate(34.696875 311.383219) scale(0.1 -0.1)">
       <defs>
        <path id="DejaVuSans-2e" d="M 684 794 
L 1344 794 
L 1344 0 
L 684 0 
L 684 794 
z
" transform="scale(0.015625)"/>
       </defs>
       <use xlink:href="#DejaVuSans-30"/>
       <use xlink:href="#DejaVuSans-2e" x="63.623047"/>
       <use xlink:href="#DejaVuSans-30" x="95.410156"/>
      </g>
     </g>
    </g>
    <g id="ytick_2">
     <g id="line2d_10">
      <g>
       <use xlink:href="#m19e19971ee" x="57.6" y="263.232" style="stroke: #000000; stroke-width: 0.8"/>
      </g>
     </g>
     <g id="text_11">
      <!-- 0.2 -->
      <g transform="translate(34.696875 267.031219) scale(0.1 -0.1)">
       <use xlink:href="#DejaVuSans-30"/>
       <use xlink:href="#DejaVuSans-2e" x="63.623047"/>
       <use xlink:href="#DejaVuSans-32" x="95.410156"/>
      </g>
     </g>
    </g>
    <g id="ytick_3">
     <g id="line2d_11">
      <g>
       <use xlink:href="#m19e19971ee" x="57.6" y="218.88" style="stroke: #000000; stroke-width: 0.8"/>
      </g>
     </g>
     <g id="text_12">
      <!-- 0.4 -->
      <g transform="translate(34.696875 222.679219) scale(0.1 -0.1)">
       <use xlink:href="#DejaVuSans-30"/>
       <use xlink:href="#DejaVuSans-2e" x="63.623047"/>
       <use xlink:href="#DejaVuSans-34" x="95.410156"/>
      </g>
     </g>
    </g>
    <g id="ytick_4">
     <g id="line2d_12">
      <g>
       <use xlink:href="#m19e19971ee" x="57.6" y="174.528" style="stroke: #000000; stroke-width: 0.8"/>
      </g>
     </g>
     <g id="text_13">
      <!-- 0.6 -->
      <g transform="translate(34.696875 178.327219) scale(0.1 -0.1)">
       <use xlink:href="#DejaVuSans-30"/>
       <use xlink:href="#DejaVuSans-2e" x="63.623047"/>
       <use xlink:href="#DejaVuSans-36" x="95.410156"/>
      </g>
     </g>
    </g>
    <g id="ytick_5">
     <g id="line2d_13">
      <g>
       <use xlink:href="#m19e19971ee" x="57.6" y="130.176" style="stroke: #000000; stroke-width: 0.8"/>
      </g>
     </g>
     <g id="text_14">
      <!-- 0.8 -->
      <g transform="translate(34.696875 133.975219) scale(0.1 -0.1)">
       <use xlink:href="#DejaVuSans-30"/>
       <use xlink:href="#DejaVuSans-2e" x="63.623047"/>
       <use xlink:href="#DejaVuSans-38" x="95.410156"/>
      </g>
     </g>
    </g>
    <g id="ytick_6">
     <g id="line2d_14">
      <g>
       <use xlink:href="#m19e19971ee" x="57.6" y="85.824" style="stroke: #000000; stroke-width: 0.8"/>
      </g>
     </g>
     <g id="text_15">
      <!-- 1.0 -->
      <g transform="translate(34.696875 89.623219) scale(0.1 -0.1)">
       <defs>
        <path id="DejaVuSans-31" d="M 794 531 
L 1825 531 
L 1825 4091 
L 703 3866 
L 703 4441 
L 1819 4666 
L 2450 4666 
L 2450 531 
L 3481 531 
L 3481 0 
L 794 0 
L 794 531 
z
" transform="scale(0.015625)"/>
       </defs>
       <use xlink:href="#DejaVuSans-31"/>
       <use xlink:href="#DejaVuSans-2e" x="63.623047"/>
       <use xlink:href="#DejaVuSans-30" x="95.410156"/>
      </g>
     </g>
    </g>
    <g id="ytick_7">
     <g id="line2d_15">
      <g>
       <use xlink:href="#m19e19971ee" x="57.6" y="41.472" style="stroke: #000000; stroke-width: 0.8"/>
      </g>
     </g>
     <g id="text_16">
      <!-- 1.2 -->
      <g transform="translate(34.696875 45.271219) scale(0.1 -0.1)">
       <use xlink:href="#DejaVuSans-31"/>
       <use xlink:href="#DejaVuSans-2e" x="63.623047"/>
       <use xlink:href="#DejaVuSans-32" x="95.410156"/>
      </g>
     </g>
    </g>
    <g id="text_17">
     <!-- Absorbance -->
     <g transform="translate(28.617187 204.074875) rotate(-90) scale(0.1 -0.1)">
      <defs>
       <path id="DejaVuSans-41" d="M 2188 4044 
L 1331 1722 
L 3047 1722 
L 2188 4044 
z
M 1831 4666 
L 2547 4666 
L 4325 0 
L 3669 0 
L 3244 1197 
L 1141 1197 
L 716 0 
L 50 0 
L 1831 4666 
z
" transform="scale(0.015625)"/>
       <path id="DejaVuSans-62" d="M 3116 1747 
Q 3116 2381 2855 2742 
Q 2594 3103 2138 3103 
Q 1681 3103 1420 2742 
Q 1159 2381 1159 1747 
Q 1159 1113 1420 752 
Q 1681 391 2138 391 
Q 2594 391 2855 752 
Q 3116 1113 3116 1747 
z
M 1159 2969 
Q 1341 3281 1617 3432 
Q 1894 3584 2278 3584 
Q 2916 3584 3314 3078 
Q 3713 2572 3713 1747 
Q 3713 922 3314 415 
Q 2916 -91 2278 -91 
Q 1894 -91 1617 61 
Q 1341 213 1159 525 
L 1159 0 
L 581 0 
L 581 4863 
L 1159 4863 
L 1159 2969 
z
" transform="scale(0.015625)"/>
       <path id="DejaVuSans-73" d="M 2834 3397 
L 2834 2853 
Q 2591 2978 2328 3040 
Q 2066 3103 1784 3103 
Q 1356 3103 1142 2972 
Q 928 2841 928 2578 
Q 928 2378 1081 2264 
Q 1234 2150 1697 2047 
L 1894 2003 
Q 2506 1872 2764 1633 
Q 3022 1394 3022 966 
Q 3022 478 2636 193 
Q 2250 -91 1575 -91 
Q 1294 -91 989 -36 
Q 684 19 347 128 
L 347 722 
Q 666 556 975 473 
Q 1284 391 1588 391 
Q 1994 391 2212 530 
Q 2431 669 2431 922 
Q 2431 1156 2273 1281 
Q 2116 1406 1581 1522 
L 1381 1569 
Q 847 1681 609 1914 
Q 372 2147 372 2553 
Q 372 3047 722 3315 
Q 1072 3584 1716 3584 
Q 2034 3584 2315 3537 
Q 2597 3491 2834 3397 
z
" transform="scale(0.015625)"/>
       <path id="DejaVuSans-6f" d="M 1959 3097 
Q 1497 3097 1228 2736 
Q 959 2375 959 1747 
Q 959 1119 1226 758 
Q 1494 397 1959 397 
Q 2419 397 2687 759 
Q 2956 1122 2956 1747 
Q 2956 2369 2687 2733 
Q 2419 3097 1959 3097 
z
M 1959 3584 
Q 2709 3584 3137 3096 
Q 3566 2609 3566 1747 
Q 3566 888 3137 398 
Q 2709 -91 1959 -91 
Q 1206 -91 779 398 
Q 353 888 353 1747 
Q 353 2609 779 3096 
Q 1206 3584 1959 3584 
z
" transform="scale(0.015625)"/>
       <path id="DejaVuSans-72" d="M 2631 2963 
Q 2534 3019 2420 3045 
Q 2306 3072 2169 3072 
Q 1681 3072 1420 2755 
Q 1159 2438 1159 1844 
L 1159 0 
L 581 0 
L 581 3500 
L 1159 3500 
L 1159 2956 
Q 1341 3275 1631 3429 
Q 1922 3584 2338 3584 
Q 2397 3584 2469 3576 
Q 2541 3569 2628 3553 
L 2631 2963 
z
" transform="scale(0.015625)"/>
       <path id="DejaVuSans-63" d="M 3122 3366 
L 3122 2828 
Q 2878 2963 2633 3030 
Q 2388 3097 2138 3097 
Q 1578 3097 1268 2742 
Q 959 2388 959 1747 
Q 959 1106 1268 751 
Q 1578 397 2138 397 
Q 2388 397 2633 464 
Q 2878 531 3122 666 
L 3122 134 
Q 2881 22 2623 -34 
Q 2366 -91 2075 -91 
Q 1284 -91 818 406 
Q 353 903 353 1747 
Q 353 2603 823 3093 
Q 1294 3584 2113 3584 
Q 2378 3584 2631 3529 
Q 2884 3475 3122 3366 
z
" transform="scale(0.015625)"/>
      </defs>
      <use xlink:href="#DejaVuSans-41"/>
      <use xlink:href="#DejaVuSans-62" x="68.408203"/>
      <use xlink:href="#DejaVuSans-73" x="131.884766"/>
      <use xlink:href="#DejaVuSans-6f" x="183.984375"/>
      <use xlink:href="#DejaVuSans-72" x="245.166016"/>
      <use xlink:href="#DejaVuSans-62" x="286.279297"/>
      <use xlink:href="#DejaVuSans-61" x="349.755859"/>
      <use xlink:href="#DejaVuSans-6e" x="411.035156"/>
      <use xlink:href="#DejaVuSans-63" x="474.414062"/>
      <use xlink:href="#DejaVuSans-65" x="529.394531"/>
     </g>
    </g>
   </g>
   <g id="line2d_16">
    <path d="M 363.702857 307.835987 
L 363.192686 307.619942 
L 362.172343 307.603066 
L 360.641829 307.698169 
L 358.090971 307.744187 
L 356.560457 307.846049 
L 354.519771 307.808992 
L 351.968914 307.852456 
L 348.907886 307.763142 
L 347.377371 307.756957 
L 334.112914 307.342048 
L 330.541714 306.997095 
L 329.0112 306.622128 
L 327.480686 306.562058 
L 321.358629 307.271016 
L 318.807771 307.365324 
L 314.216229 307.444422 
L 312.685714 307.412464 
L 312.175543 307.503159 
L 309.624686 307.428547 
L 297.380571 306.951306 
L 296.8704 306.80291 
L 288.197486 306.360278 
L 286.1568 306.183641 
L 285.136457 306.136708 
L 282.5856 305.873411 
L 279.0144 305.554558 
L 278.504229 305.409141 
L 277.483886 305.335943 
L 276.463543 305.22318 
L 271.361829 304.552043 
L 268.3008 304.271204 
L 257.077029 302.928393 
L 250.4448 301.746761 
L 247.893943 301.013375 
L 245.853257 300.224748 
L 243.812571 298.936169 
L 242.282057 297.718626 
L 241.261714 296.751478 
L 240.241371 295.627071 
L 238.710857 293.474617 
L 237.180343 290.79653 
L 235.649829 287.443117 
L 234.119314 283.366924 
L 232.5888 278.505538 
L 231.058286 272.824922 
L 229.0176 263.893801 
L 226.976914 253.575045 
L 224.936229 242.108465 
L 221.8752 223.507836 
L 214.222629 175.588862 
L 209.631086 148.590098 
L 207.080229 134.846257 
L 205.039543 125.015412 
L 203.509029 118.636573 
L 202.488686 114.98524 
L 201.468343 111.766106 
L 200.448 109.086278 
L 199.427657 107.011473 
L 198.407314 105.477519 
L 197.386971 104.511157 
L 196.8768 104.155793 
L 196.366629 104.002201 
L 195.346286 104.001936 
L 194.325943 104.551392 
L 193.815771 104.953177 
L 192.285257 106.855806 
L 191.264914 108.725111 
L 190.244571 110.913815 
L 189.224229 113.442919 
L 187.183543 119.667413 
L 185.142857 127.562916 
L 183.612343 134.416635 
L 181.571657 144.605951 
L 178.510629 161.278369 
L 174.429257 184.619957 
L 169.837714 210.145141 
L 167.286857 223.273257 
L 164.736 235.336201 
L 162.695314 243.953159 
L 160.654629 251.835675 
L 158.613943 258.800386 
L 157.083429 263.399424 
L 155.552914 267.286962 
L 154.0224 270.659374 
L 152.491886 273.354535 
L 151.471543 274.758645 
L 149.941029 276.330416 
L 148.920686 277.023005 
L 147.390171 277.451071 
L 145.859657 277.431251 
L 145.349486 277.365839 
L 144.839314 277.122486 
L 144.329143 277.154246 
L 143.818971 277.005495 
L 143.3088 275.577714 
L 142.798629 276.616779 
L 141.778286 275.995219 
L 140.757943 275.40567 
L 139.7376 274.339832 
L 139.227429 274.197892 
L 137.696914 272.530675 
L 137.186743 271.365799 
L 136.676571 271.366139 
L 136.1664 270.591942 
L 135.656229 269.481901 
L 135.146057 269.26359 
L 134.125714 267.794031 
L 133.615543 266.537905 
L 133.105371 263.55688 
L 132.5952 262.642222 
L 131.574857 260.213775 
L 130.554514 257.505832 
L 128.513829 250.447456 
L 127.493486 246.119497 
L 125.4528 236.463135 
L 122.391771 219.264122 
L 118.820571 195.596401 
L 118.3104 193.612972 
L 117.800229 192.082151 
L 117.290057 191.204705 
L 116.269714 190.685399 
L 114.7392 191.718724 
L 114.229029 191.945821 
L 113.208686 192.868776 
L 112.698514 194.076432 
L 112.188343 194.648636 
L 111.168 197.375368 
L 109.127314 204.121051 
L 108.617143 205.326241 
L 108.106971 206.150042 
L 107.5968 206.710588 
L 107.086629 206.716007 
L 106.576457 206.370848 
L 106.066286 205.461613 
L 105.556114 203.807416 
L 105.045943 201.287888 
L 104.535771 197.574708 
L 104.0256 192.537072 
L 103.515429 185.863024 
L 103.005257 177.199242 
L 101.984914 153.124997 
L 100.964571 121.013843 
L 99.944229 82.622813 
L 98.923886 35.807933 
L 98.27835 -1 
L 98.27835 -1 
" clip-path="url(#pec327f5a1e)" style="fill: none; stroke: #e01f1f; stroke-width: 0.5; stroke-linecap: square"/>
   </g>
   <g id="line2d_17">
    <path d="M 363.702857 307.89789 
L 362.682514 307.666988 
L 361.152 307.701932 
L 357.070629 307.866091 
L 346.8672 307.802653 
L 344.826514 307.767645 
L 341.765486 307.708405 
L 338.704457 307.648485 
L 337.173943 307.532736 
L 335.643429 307.473441 
L 334.112914 307.361205 
L 331.051886 307.118528 
L 330.031543 306.912084 
L 329.0112 306.649244 
L 326.970514 306.660428 
L 325.44 306.882358 
L 321.8688 307.41575 
L 320.848457 307.304862 
L 318.807771 307.436899 
L 315.746743 307.521099 
L 304.0128 307.335737 
L 300.4416 307.11509 
L 299.421257 307.086436 
L 293.809371 306.622767 
L 292.789029 306.569197 
L 289.217829 306.272288 
L 288.197486 306.189933 
L 284.626286 305.758424 
L 283.605943 305.627423 
L 273.912686 304.068554 
L 271.872 303.678029 
L 267.790629 303.059951 
L 265.749943 302.701721 
L 261.668571 302.0347 
L 259.627886 301.643287 
L 255.546514 300.946118 
L 249.934629 299.62125 
L 247.383771 298.827722 
L 245.343086 297.900832 
L 243.812571 296.89723 
L 242.792229 296.17055 
L 241.261714 294.813606 
L 240.241371 293.750468 
L 238.710857 291.736984 
L 236.670171 288.14313 
L 235.649829 286.027979 
L 234.119314 282.238231 
L 232.078629 275.931438 
L 230.548114 270.339046 
L 228.507429 261.643465 
L 226.466743 251.676838 
L 224.426057 240.754472 
L 220.344686 216.967711 
L 212.692114 171.997643 
L 208.610743 149.541695 
L 206.570057 139.244852 
L 204.529371 130.006605 
L 202.998857 124.110512 
L 201.978514 120.658663 
L 200.448 116.511143 
L 199.427657 114.414832 
L 198.407314 112.808471 
L 197.897143 112.171076 
L 196.8768 111.358266 
L 195.856457 110.956864 
L 194.836114 111.083743 
L 193.815771 111.647858 
L 192.795429 112.575664 
L 191.775086 113.934916 
L 190.754743 115.67766 
L 189.224229 118.962195 
L 187.693714 123.072481 
L 186.1632 128.168058 
L 184.632686 133.997388 
L 182.592 143.005391 
L 180.041143 155.687872 
L 175.959771 177.587927 
L 171.368229 202.477718 
L 167.286857 223.263488 
L 164.736 234.961518 
L 162.695314 243.383544 
L 160.654629 251.098299 
L 158.613943 257.913264 
L 157.083429 262.430153 
L 155.552914 266.298138 
L 154.532571 268.593625 
L 153.002057 271.544121 
L 151.981714 273.12894 
L 151.471543 273.795107 
L 150.961371 274.269733 
L 150.4512 274.907554 
L 149.430857 275.724098 
L 148.410514 276.239211 
L 147.900343 276.417567 
L 145.859657 276.471797 
L 145.349486 276.431595 
L 144.839314 276.118161 
L 144.329143 276.130292 
L 143.818971 275.968148 
L 143.3088 274.476657 
L 142.798629 275.438135 
L 140.757943 274.066356 
L 140.247771 273.57564 
L 139.7376 272.817443 
L 139.227429 272.56391 
L 137.696914 270.659412 
L 137.186743 269.421903 
L 136.676571 269.219778 
L 136.1664 268.431336 
L 135.656229 267.314583 
L 135.146057 267.037231 
L 134.635886 266.110258 
L 134.125714 265.55333 
L 133.615543 264.269893 
L 133.105371 260.612202 
L 131.574857 257.19973 
L 130.044343 252.936592 
L 128.513829 247.76947 
L 126.983314 241.350178 
L 125.4528 234.291753 
L 123.412114 224.009455 
L 121.8816 215.009634 
L 119.330743 198.350929 
L 118.3104 193.734417 
L 117.800229 192.403094 
L 117.290057 191.503984 
L 116.779886 191.195412 
L 115.759543 191.356353 
L 114.7392 192.057842 
L 114.229029 192.352866 
L 113.208686 193.287545 
L 112.698514 194.214069 
L 112.188343 194.832549 
L 111.168 197.306951 
L 109.127314 203.345904 
L 108.617143 204.455179 
L 108.106971 205.117662 
L 107.5968 205.354084 
L 107.086629 205.290479 
L 106.576457 204.660229 
L 106.066286 203.518081 
L 105.556114 201.706412 
L 105.045943 198.885905 
L 104.535771 195.085699 
L 104.0256 189.901747 
L 103.515429 182.963036 
L 103.005257 174.130739 
L 101.984914 150.047863 
L 100.964571 117.996639 
L 99.944229 79.318556 
L 98.923886 31.891104 
L 98.349377 -1 
L 98.349377 -1 
" clip-path="url(#pec327f5a1e)" style="fill: none; stroke: #d31f2c; stroke-width: 0.5; stroke-linecap: square"/>
   </g>
   <g id="line2d_18">
    <path d="M 363.702857 308.00569 
L 363.192686 307.771543 
L 359.621486 307.823105 
L 358.090971 307.938347 
L 356.560457 307.950625 
L 355.540114 307.943765 
L 349.928229 307.924898 
L 348.907886 307.865479 
L 338.704457 307.641326 
L 337.684114 307.574982 
L 336.1536 307.49433 
L 331.051886 307.08302 
L 328.501029 306.519062 
L 326.460343 306.590186 
L 323.399314 307.007862 
L 320.848457 307.162574 
L 319.317943 307.219178 
L 316.256914 307.298746 
L 309.624686 307.274732 
L 298.400914 306.589207 
L 286.1568 305.010099 
L 274.933029 302.406456 
L 272.382171 301.659332 
L 268.810971 300.801952 
L 255.036343 297.227339 
L 249.934629 295.693211 
L 248.404114 295.136615 
L 245.853257 294.013783 
L 243.812571 292.750564 
L 242.282057 291.612963 
L 240.241371 289.648148 
L 238.710857 287.718835 
L 237.690514 286.219582 
L 236.16 283.515346 
L 234.119314 278.848711 
L 233.098971 276.130296 
L 231.568457 271.444515 
L 230.037943 266.019848 
L 228.507429 259.934543 
L 225.956571 248.338939 
L 222.895543 232.597586 
L 219.324343 213.110437 
L 211.671771 171.521686 
L 208.100571 153.363032 
L 205.549714 141.607564 
L 204.0192 135.386349 
L 202.488686 130.053523 
L 201.468343 126.991895 
L 200.448 124.467905 
L 199.427657 122.324222 
L 198.407314 120.782364 
L 197.386971 119.619134 
L 196.366629 118.974958 
L 195.856457 118.815973 
L 194.836114 118.780787 
L 194.325943 118.904137 
L 193.3056 119.526304 
L 192.795429 119.927799 
L 191.264914 121.76825 
L 190.244571 123.485179 
L 189.224229 125.52875 
L 187.693714 129.209202 
L 186.1632 133.767258 
L 184.632686 139.1409 
L 183.102171 145.230412 
L 180.551314 156.741296 
L 177.490286 171.851355 
L 167.286857 222.602163 
L 164.736 233.637863 
L 161.674971 245.314275 
L 159.634286 252.20777 
L 158.103771 256.826718 
L 156.063086 262.172992 
L 154.0224 266.488001 
L 152.491886 269.002007 
L 151.471543 270.309465 
L 150.4512 271.282833 
L 149.430857 272.095587 
L 147.900343 272.693599 
L 147.390171 272.611351 
L 146.88 272.714903 
L 145.349486 272.44604 
L 143.818971 271.647592 
L 143.3088 270.064699 
L 142.798629 270.942855 
L 142.288457 270.547424 
L 140.247771 268.279248 
L 139.7376 267.319653 
L 139.227429 266.973241 
L 137.696914 264.457387 
L 137.186743 263.043776 
L 136.676571 262.724176 
L 136.1664 261.756942 
L 135.656229 260.430751 
L 135.146057 259.909019 
L 134.125714 257.98016 
L 133.615543 256.642698 
L 133.105371 251.845572 
L 131.064686 246.437666 
L 129.024 239.198406 
L 127.493486 232.15499 
L 125.4528 221.694363 
L 123.412114 211.345196 
L 121.371429 200.012536 
L 119.330743 188.025364 
L 118.3104 184.027338 
L 117.800229 183.042233 
L 117.290057 182.506642 
L 116.779886 182.321723 
L 115.759543 183.010391 
L 113.208686 185.5092 
L 112.698514 186.410041 
L 112.188343 186.864777 
L 111.168 189.106247 
L 109.127314 193.861422 
L 108.617143 194.618267 
L 108.106971 194.93752 
L 107.5968 194.735484 
L 107.086629 194.039481 
L 106.576457 192.759602 
L 106.066286 190.878758 
L 105.556114 188.235238 
L 105.045943 184.664204 
L 104.535771 179.942074 
L 104.0256 173.716047 
L 103.515429 165.9622 
L 103.005257 156.217192 
L 101.984914 130.525787 
L 100.964571 97.266431 
L 99.944229 58.359757 
L 98.923886 10.93212 
L 98.711559 -1 
L 98.711559 -1 
" clip-path="url(#pec327f5a1e)" style="fill: none; stroke: #c71f38; stroke-width: 0.5; stroke-linecap: square"/>
   </g>
   <g id="line2d_19">
    <path d="M 363.702857 308.081265 
L 363.192686 307.900851 
L 362.172343 307.831096 
L 356.050286 308.050297 
L 354.0096 307.959665 
L 352.479086 307.962931 
L 348.907886 307.895646 
L 345.336686 307.840167 
L 338.704457 307.635471 
L 336.663771 307.493843 
L 334.623086 307.407036 
L 331.051886 307.09406 
L 328.501029 306.525771 
L 326.970514 306.583773 
L 324.929829 306.874431 
L 321.8688 307.269783 
L 320.848457 307.187317 
L 319.828114 307.218025 
L 318.2976 307.265026 
L 314.216229 307.260555 
L 311.665371 307.198995 
L 309.114514 307.135443 
L 301.461943 306.606491 
L 289.728 304.877054 
L 286.1568 304.129525 
L 284.626286 303.704443 
L 282.5856 303.130299 
L 277.994057 301.743822 
L 276.973714 301.390641 
L 270.851657 299.133774 
L 269.831314 298.787605 
L 258.097371 294.734281 
L 255.546514 293.875573 
L 254.016 293.301842 
L 249.424457 291.586465 
L 245.343086 289.652923 
L 243.3024 288.268088 
L 241.771886 287.102419 
L 239.7312 285.059755 
L 238.200686 283.099667 
L 236.670171 280.673854 
L 235.139657 277.776503 
L 233.609143 274.237291 
L 232.078629 270.100093 
L 230.548114 265.274189 
L 229.0176 259.816299 
L 226.976914 251.580473 
L 224.426057 239.919672 
L 221.8752 227.383057 
L 211.1616 173.18397 
L 207.5904 156.373913 
L 205.549714 147.67365 
L 203.509029 140.098179 
L 201.978514 135.391487 
L 200.448 131.556226 
L 199.427657 129.570141 
L 198.407314 128.044038 
L 197.386971 126.910218 
L 196.366629 126.279353 
L 195.346286 126.033367 
L 194.325943 126.12235 
L 193.3056 126.600456 
L 192.285257 127.401581 
L 191.264914 128.55815 
L 190.244571 130.068456 
L 189.224229 131.937431 
L 187.693714 135.224518 
L 186.1632 139.397576 
L 184.632686 144.39341 
L 183.102171 150.062222 
L 181.061486 158.491967 
L 178.510629 169.969793 
L 168.817371 215.933089 
L 166.266514 226.987703 
L 164.225829 235.16494 
L 161.674971 244.256057 
L 159.124114 252.300887 
L 157.083429 257.820167 
L 155.552914 261.303659 
L 153.512229 265.183748 
L 151.981714 267.328023 
L 150.961371 268.480008 
L 150.4512 268.736694 
L 149.941029 269.238403 
L 148.920686 269.791065 
L 147.900343 270.040156 
L 147.390171 269.939644 
L 146.88 269.960509 
L 145.349486 269.458888 
L 144.839314 269.087544 
L 144.329143 268.899159 
L 143.818971 268.557763 
L 143.3088 266.841974 
L 142.798629 267.659489 
L 141.268114 265.864019 
L 140.247771 264.49752 
L 139.7376 263.35031 
L 139.227429 262.85012 
L 137.696914 259.956971 
L 137.186743 258.390032 
L 136.676571 257.958139 
L 135.146057 254.276207 
L 134.635886 253.84324 
L 133.615543 251.523141 
L 133.105371 247.414111 
L 131.574857 243.737637 
L 130.044343 239.593553 
L 128.513829 234.635846 
L 126.983314 228.911797 
L 123.922286 216.09255 
L 122.391771 208.93415 
L 120.861257 200.618555 
L 119.330743 192.53348 
L 118.820571 190.440673 
L 118.3104 188.866907 
L 117.800229 187.809737 
L 117.290057 187.310416 
L 116.779886 187.088329 
L 115.759543 187.560592 
L 113.208686 189.940995 
L 112.698514 190.843013 
L 112.188343 191.176647 
L 111.678171 192.049334 
L 109.637486 196.495183 
L 109.127314 197.397359 
L 108.617143 197.78785 
L 108.106971 197.974811 
L 107.5968 197.573799 
L 107.086629 196.726431 
L 106.576457 195.332852 
L 106.066286 193.413543 
L 105.556114 190.698118 
L 105.045943 187.060928 
L 104.535771 182.3881 
L 103.515429 168.960869 
L 102.495086 148.1604 
L 101.474743 119.793356 
L 100.4544 84.729847 
L 99.434057 43.411403 
L 98.555257 -1 
L 98.555257 -1 
" clip-path="url(#pec327f5a1e)" style="fill: none; stroke: #ba1f45; stroke-width: 0.5; stroke-linecap: square"/>
   </g>
   <g id="line2d_20">
    <path d="M 363.702857 307.972012 
L 363.192686 307.700737 
L 353.499429 307.893902 
L 334.623086 307.394439 
L 333.092571 307.246404 
L 331.051886 307.061006 
L 330.031543 306.829096 
L 328.501029 306.520873 
L 325.950171 306.702999 
L 323.909486 306.982358 
L 322.378971 307.139614 
L 321.8688 307.292495 
L 321.358629 307.16393 
L 312.175543 307.259701 
L 310.645029 307.203612 
L 306.053486 306.985595 
L 299.931429 306.402399 
L 297.380571 306.071588 
L 296.360229 305.789525 
L 295.339886 305.697408 
L 290.748343 304.894566 
L 284.626286 303.332969 
L 282.5856 302.642811 
L 280.034743 301.727053 
L 277.483886 300.74919 
L 274.933029 299.672264 
L 271.872 298.384211 
L 270.341486 297.770725 
L 266.770286 296.29174 
L 263.709257 295.012976 
L 255.546514 291.73571 
L 249.934629 289.399317 
L 248.914286 288.942479 
L 245.853257 287.441222 
L 245.343086 287.165851 
L 244.322743 286.467705 
L 242.282057 284.997964 
L 240.751543 283.666218 
L 239.221029 282.017852 
L 237.690514 279.992552 
L 236.16 277.570351 
L 234.629486 274.626176 
L 233.098971 271.061533 
L 231.568457 266.957721 
L 230.037943 262.220746 
L 227.997257 254.93449 
L 225.4464 244.479051 
L 222.895543 232.921574 
L 217.793829 208.458584 
L 211.1616 177.026799 
L 207.5904 161.158361 
L 205.549714 152.910574 
L 203.509029 145.762769 
L 201.978514 141.268951 
L 200.448 137.632713 
L 198.917486 134.954404 
L 197.897143 133.733187 
L 196.8768 132.920893 
L 195.856457 132.454961 
L 195.346286 132.351425 
L 194.325943 132.472607 
L 193.815771 132.634288 
L 192.795429 133.237449 
L 191.775086 134.172419 
L 190.754743 135.446455 
L 189.7344 136.968618 
L 188.203886 139.925534 
L 187.183543 142.223457 
L 185.653029 146.43379 
L 184.122514 151.374677 
L 182.081829 158.916416 
L 180.041143 167.407849 
L 176.469943 183.153585 
L 167.797029 222.153882 
L 165.756343 230.437199 
L 163.715657 238.009472 
L 160.654629 248.046246 
L 159.124114 252.509209 
L 157.5936 256.546519 
L 156.063086 260.032932 
L 154.532571 263.042178 
L 153.512229 264.728078 
L 152.491886 266.245096 
L 150.961371 267.872464 
L 150.4512 268.164438 
L 149.430857 268.952339 
L 148.410514 269.217861 
L 147.390171 269.232466 
L 146.369829 269.003069 
L 145.349486 268.623156 
L 144.839314 268.073717 
L 144.329143 267.939958 
L 143.818971 267.488705 
L 143.3088 265.731134 
L 142.798629 266.491584 
L 141.268114 264.395191 
L 140.247771 262.730754 
L 139.7376 261.513723 
L 139.227429 260.861005 
L 137.696914 257.629844 
L 137.186743 255.96412 
L 136.676571 255.448397 
L 135.656229 253.189443 
L 135.146057 251.275557 
L 134.635886 250.883688 
L 134.125714 249.982401 
L 133.615543 248.642017 
L 133.105371 243.732384 
L 132.5952 242.67951 
L 130.044343 235.854051 
L 127.493486 227.469861 
L 123.922286 213.343334 
L 122.391771 206.795366 
L 119.330743 191.655831 
L 118.3104 188.491274 
L 117.800229 187.580903 
L 117.290057 187.249992 
L 116.779886 187.186823 
L 115.759543 187.997162 
L 114.229029 189.661748 
L 113.718857 190.0452 
L 113.208686 190.57701 
L 112.698514 191.489787 
L 112.188343 191.841384 
L 111.678171 192.665099 
L 109.637486 196.576904 
L 108.617143 197.556068 
L 108.106971 197.330762 
L 107.5968 196.720259 
L 107.086629 195.470286 
L 106.576457 193.885893 
L 106.066286 191.50668 
L 105.556114 188.416395 
L 105.045943 184.436067 
L 104.535771 179.311015 
L 104.0256 172.845268 
L 103.515429 164.92851 
L 102.495086 143.051521 
L 101.474743 113.382472 
L 99.944229 58.365974 
L 98.923886 12.522902 
L 98.675639 -1 
L 98.675639 -1 
" clip-path="url(#pec327f5a1e)" style="fill: none; stroke: #ad1f52; stroke-width: 0.5; stroke-linecap: square"/>
   </g>
   <g id="line2d_21">
    <path d="M 363.702857 307.904229 
L 363.192686 307.66846 
L 359.111314 307.76215 
L 357.5808 307.876414 
L 353.499429 307.880208 
L 350.948571 307.884377 
L 347.887543 307.800776 
L 346.8672 307.779595 
L 344.316343 307.787031 
L 342.275657 307.700911 
L 333.602743 307.301586 
L 330.541714 306.959528 
L 328.501029 306.487293 
L 326.970514 306.501277 
L 325.950171 306.604379 
L 324.929829 306.781506 
L 322.889143 306.936165 
L 321.8688 307.095077 
L 320.848457 307.02798 
L 317.277257 307.128236 
L 316.256914 307.12771 
L 314.216229 307.141629 
L 312.685714 307.067611 
L 309.114514 306.907713 
L 306.563657 306.715029 
L 301.461943 306.127948 
L 294.829714 304.814863 
L 289.728 303.447846 
L 282.5856 300.593393 
L 276.463543 297.378985 
L 272.892343 295.242624 
L 267.790629 292.298701 
L 265.239771 290.807181 
L 261.668571 288.775709 
L 256.056686 285.629022 
L 254.016 284.523177 
L 246.8736 280.645687 
L 245.343086 279.696395 
L 242.792229 277.905667 
L 241.261714 276.691069 
L 239.221029 274.726224 
L 237.690514 272.880833 
L 236.670171 271.550307 
L 235.139657 269.114002 
L 233.609143 266.242642 
L 232.078629 262.878098 
L 230.548114 259.025228 
L 228.507429 253.091311 
L 226.466743 246.314775 
L 223.915886 236.882079 
L 219.834514 220.554986 
L 216.773486 207.979921 
L 211.1616 185.336794 
L 206.570057 168.053602 
L 204.529371 161.35066 
L 202.998857 156.91779 
L 201.468343 153.215727 
L 199.937829 150.286145 
L 198.917486 148.804667 
L 197.897143 147.653505 
L 196.8768 146.842149 
L 195.856457 146.383751 
L 194.836114 146.234719 
L 194.325943 146.230542 
L 193.3056 146.548195 
L 192.285257 147.118707 
L 191.264914 147.914294 
L 190.244571 149.015017 
L 189.224229 150.363616 
L 187.183543 153.863233 
L 185.653029 157.437387 
L 184.122514 161.590327 
L 182.081829 168.106038 
L 180.551314 173.471868 
L 176.469943 189.027067 
L 167.286857 225.18278 
L 164.225829 235.671304 
L 161.674971 243.226446 
L 160.144457 247.416211 
L 158.103771 252.368667 
L 156.063086 256.572401 
L 154.532571 259.14061 
L 153.002057 261.267765 
L 151.981714 262.39221 
L 150.961371 263.204822 
L 150.4512 263.440223 
L 149.941029 263.806334 
L 148.410514 264.209669 
L 147.900343 264.167285 
L 146.369829 263.559191 
L 145.349486 262.909712 
L 144.839314 262.450432 
L 144.329143 261.655546 
L 143.818971 261.337506 
L 143.3088 259.343162 
L 142.798629 259.923531 
L 141.778286 258.146725 
L 140.247771 254.865973 
L 139.7376 253.438344 
L 139.227429 252.536955 
L 137.696914 248.410338 
L 137.186743 246.341085 
L 136.676571 245.384378 
L 135.656229 242.628962 
L 135.146057 240.605516 
L 134.635886 239.933748 
L 134.125714 238.805545 
L 133.615543 237.284598 
L 133.105371 231.043457 
L 131.064686 225.484922 
L 126.983314 212.79077 
L 124.432457 203.969503 
L 121.8816 195.136445 
L 119.330743 185.172046 
L 118.820571 183.906561 
L 118.3104 183.010505 
L 117.800229 182.428877 
L 117.290057 182.456079 
L 116.779886 182.724694 
L 115.759543 183.894308 
L 114.7392 185.440832 
L 113.718857 186.654423 
L 113.208686 187.141332 
L 112.698514 187.951538 
L 112.188343 188.22347 
L 110.657829 190.265124 
L 109.637486 191.19979 
L 109.127314 191.301423 
L 108.617143 190.949416 
L 108.106971 190.147246 
L 107.5968 188.976085 
L 107.086629 187.05445 
L 106.576457 184.60575 
L 106.066286 181.394547 
L 105.556114 177.407268 
L 104.535771 166.502677 
L 103.515429 150.496694 
L 102.495086 128.358822 
L 101.474743 99.329216 
L 99.944229 45.228787 
L 98.905797 -1 
L 98.905797 -1 
" clip-path="url(#pec327f5a1e)" style="fill: none; stroke: #a01f5f; stroke-width: 0.5; stroke-linecap: square"/>
   </g>
   <g id="line2d_22">
    <path d="M 363.702857 308.031609 
L 363.192686 307.801796 
L 361.662171 307.813069 
L 359.621486 307.861098 
L 357.070629 307.935662 
L 356.050286 307.983665 
L 349.418057 307.926768 
L 346.8672 307.852835 
L 345.336686 307.813411 
L 339.7248 307.656418 
L 338.194286 307.584 
L 336.1536 307.492028 
L 333.602743 307.27385 
L 331.562057 307.160787 
L 327.990857 306.506176 
L 326.460343 306.565019 
L 321.8688 307.176549 
L 320.848457 307.040206 
L 319.828114 307.118991 
L 314.216229 307.046616 
L 307.073829 306.572032 
L 305.543314 306.373537 
L 303.502629 306.098558 
L 300.951771 305.698665 
L 298.911086 305.262975 
L 291.258514 303.088412 
L 289.217829 302.283048 
L 283.605943 299.593876 
L 279.524571 297.205902 
L 276.463543 295.089776 
L 260.138057 283.458257 
L 254.526171 279.727119 
L 245.853257 274.303202 
L 243.812571 272.810532 
L 241.261714 270.946867 
L 238.200686 268.10998 
L 235.649829 264.953208 
L 234.119314 262.59936 
L 232.5888 259.890396 
L 231.058286 256.731572 
L 229.527771 253.159349 
L 227.997257 249.146347 
L 225.956571 243.204856 
L 223.915886 236.709825 
L 219.324343 220.926385 
L 210.651429 190.622512 
L 207.5904 180.39875 
L 205.039543 172.70223 
L 202.998857 167.310307 
L 201.468343 164.014959 
L 199.937829 161.353054 
L 198.917486 159.939304 
L 197.897143 158.804043 
L 196.366629 157.690115 
L 194.836114 157.167677 
L 193.815771 157.173493 
L 192.795429 157.387174 
L 191.775086 157.838949 
L 190.754743 158.526903 
L 189.224229 159.962105 
L 187.183543 162.747109 
L 185.653029 165.670927 
L 184.122514 169.171563 
L 182.081829 174.735094 
L 178.000457 187.689071 
L 170.858057 212.882583 
L 168.817371 220.110317 
L 165.756343 230.170315 
L 163.205486 237.482366 
L 160.654629 244.00224 
L 158.613943 248.622831 
L 157.083429 251.700681 
L 156.063086 253.516461 
L 154.0224 256.477947 
L 152.491886 258.159426 
L 151.471543 259.047763 
L 149.941029 259.802969 
L 148.920686 259.974759 
L 147.900343 259.912701 
L 146.88 259.454816 
L 145.349486 258.316993 
L 144.839314 257.722801 
L 144.329143 256.734497 
L 143.818971 256.341419 
L 143.3088 254.176022 
L 142.798629 254.580144 
L 141.778286 252.475965 
L 140.247771 248.683296 
L 139.7376 246.901811 
L 139.227429 245.795391 
L 137.696914 240.884072 
L 137.186743 238.77775 
L 136.676571 237.634135 
L 135.146057 232.126099 
L 134.125714 230.171941 
L 133.615543 228.482637 
L 133.105371 222.786531 
L 126.983314 205.011084 
L 124.432457 197.398523 
L 121.371429 188.492324 
L 119.330743 182.361916 
L 118.820571 181.472231 
L 118.3104 180.894092 
L 117.800229 180.726899 
L 116.779886 181.334196 
L 113.718857 186.097831 
L 113.208686 186.547862 
L 112.698514 187.36124 
L 112.188343 187.555953 
L 110.147657 189.26778 
L 109.637486 189.392306 
L 108.617143 188.449035 
L 108.106971 187.105843 
L 107.5968 185.34429 
L 107.086629 183.048667 
L 106.066286 176.244171 
L 105.045943 166.417132 
L 104.0256 152.467977 
L 103.005257 133.190927 
L 101.984914 107.828437 
L 100.964571 76.279918 
L 99.944229 39.861465 
L 98.99551 -1 
L 98.99551 -1 
" clip-path="url(#pec327f5a1e)" style="fill: none; stroke: #931f6c; stroke-width: 0.5; stroke-linecap: square"/>
   </g>
   <g id="line2d_23">
    <path d="M 363.702857 307.910598 
L 363.192686 307.732126 
L 361.662171 307.709165 
L 360.131657 307.777545 
L 358.090971 307.850783 
L 354.519771 307.911128 
L 349.928229 307.858114 
L 345.336686 307.819311 
L 344.316343 307.756842 
L 343.296 307.755646 
L 342.785829 307.665623 
L 341.765486 307.695768 
L 337.173943 307.521266 
L 332.5824 307.22997 
L 330.031543 306.856493 
L 329.0112 306.58096 
L 327.990857 306.518999 
L 326.970514 306.513075 
L 323.909486 306.893522 
L 322.889143 307.026515 
L 322.378971 307.034171 
L 321.8688 307.156394 
L 320.848457 307.085435 
L 318.807771 307.134773 
L 315.236571 307.13216 
L 312.175543 306.944997 
L 303.502629 306.085042 
L 301.461943 305.723546 
L 297.380571 304.767241 
L 296.360229 304.376763 
L 294.319543 303.802856 
L 292.789029 303.324137 
L 288.197486 301.40786 
L 282.075429 297.845174 
L 276.973714 294.195965 
L 272.892343 290.875816 
L 269.321143 287.912068 
L 268.3008 287.112741 
L 262.178743 282.293178 
L 259.117714 280.012333 
L 257.5872 278.824457 
L 251.975314 274.780352 
L 241.771886 267.791678 
L 238.200686 264.813772 
L 236.16 262.597198 
L 234.119314 259.909772 
L 233.098971 258.360172 
L 231.568457 255.743954 
L 229.527771 251.681716 
L 227.487086 246.972321 
L 224.936229 240.233868 
L 222.385371 232.903907 
L 206.570057 184.326568 
L 204.0192 177.603918 
L 201.978514 173.115044 
L 200.448 170.361988 
L 198.917486 168.239625 
L 197.386971 166.6887 
L 196.366629 165.975289 
L 195.346286 165.502655 
L 194.325943 165.286754 
L 193.3056 165.179253 
L 191.775086 165.549566 
L 190.754743 166.032641 
L 189.7344 166.775833 
L 188.203886 168.251521 
L 187.183543 169.471483 
L 185.653029 171.942654 
L 183.612343 176.210683 
L 181.571657 181.341894 
L 176.980114 194.777559 
L 165.756343 230.741078 
L 163.715657 236.275225 
L 160.654629 243.585571 
L 158.613943 247.902909 
L 157.083429 250.772742 
L 155.552914 253.128167 
L 154.0224 255.199382 
L 152.491886 256.733045 
L 151.981714 257.182336 
L 150.961371 257.802121 
L 150.4512 257.903899 
L 149.941029 258.178888 
L 148.920686 258.321331 
L 148.410514 258.309901 
L 147.390171 257.952158 
L 146.369829 257.322353 
L 145.349486 256.408109 
L 144.839314 255.731361 
L 144.329143 254.733794 
L 143.818971 254.222264 
L 143.3088 251.918386 
L 142.798629 252.300367 
L 141.268114 248.608891 
L 140.247771 245.652465 
L 139.7376 243.842805 
L 139.227429 242.612077 
L 137.696914 237.149075 
L 137.186743 234.884197 
L 136.676571 233.701939 
L 135.146057 227.620279 
L 134.635886 226.732464 
L 133.615543 223.530705 
L 133.105371 217.416225 
L 124.432457 192.855805 
L 121.8816 186.714809 
L 119.840914 181.645061 
L 119.330743 180.560173 
L 118.820571 179.806936 
L 118.3104 179.467949 
L 117.800229 179.518825 
L 117.290057 179.898801 
L 116.779886 180.514598 
L 115.759543 182.229518 
L 114.7392 184.068594 
L 113.718857 185.581743 
L 113.208686 186.091267 
L 112.698514 186.962672 
L 112.188343 187.146229 
L 111.678171 187.450453 
L 111.168 187.902943 
L 110.657829 188.200637 
L 110.147657 188.259298 
L 109.637486 188.117165 
L 109.127314 187.57716 
L 108.617143 186.655276 
L 108.106971 185.099645 
L 107.5968 183.031317 
L 107.086629 180.339923 
L 106.576457 177.044456 
L 105.556114 168.004095 
L 104.535771 155.392132 
L 103.515429 138.169187 
L 102.495086 115.12754 
L 101.474743 85.990274 
L 99.944229 32.99719 
L 99.137932 -1 
L 99.137932 -1 
" clip-path="url(#pec327f5a1e)" style="fill: none; stroke: #861f79; stroke-width: 0.5; stroke-linecap: square"/>
   </g>
   <g id="line2d_24">
    <path d="M 363.702857 307.946372 
L 363.192686 307.74514 
L 362.172343 307.704604 
L 358.601143 307.870943 
L 357.070629 307.894715 
L 356.050286 307.964049 
L 355.029943 307.958665 
L 350.4384 307.874235 
L 348.907886 307.870123 
L 343.296 307.724002 
L 333.602743 307.272223 
L 331.051886 307.004773 
L 327.990857 306.412372 
L 326.460343 306.492177 
L 321.8688 306.993381 
L 321.358629 306.882426 
L 315.236571 306.927583 
L 306.563657 306.168688 
L 299.931429 304.923021 
L 297.380571 304.205884 
L 296.360229 303.697197 
L 294.829714 303.220839 
L 292.278857 302.245526 
L 291.258514 301.746589 
L 288.707657 300.447741 
L 286.666971 299.241282 
L 283.095771 296.807813 
L 277.483886 292.155654 
L 273.912686 288.776706 
L 271.361829 286.300802 
L 263.199086 278.604172 
L 252.485486 269.335521 
L 248.404114 266.16502 
L 245.853257 264.343887 
L 244.832914 263.509714 
L 242.792229 262.070883 
L 237.690514 258.006427 
L 236.670171 257.069894 
L 233.609143 253.501834 
L 232.5888 252.077712 
L 230.548114 248.897366 
L 228.507429 245.182111 
L 225.956571 239.739934 
L 223.405714 233.689924 
L 218.304 220.636396 
L 210.651429 200.562973 
L 205.549714 188.003921 
L 204.0192 184.677894 
L 201.978514 180.908194 
L 200.448 178.567974 
L 199.427657 177.309614 
L 197.897143 175.853435 
L 196.366629 174.932198 
L 195.856457 174.664165 
L 194.325943 174.304558 
L 193.3056 174.271804 
L 191.264914 174.761449 
L 189.224229 175.971378 
L 186.673371 178.558787 
L 184.632686 181.811124 
L 183.102171 184.85853 
L 182.081829 187.086491 
L 176.469943 201.574237 
L 173.919086 208.787312 
L 166.776686 229.271515 
L 163.715657 236.633193 
L 161.1648 241.93522 
L 159.124114 245.673236 
L 157.5936 248.231143 
L 155.552914 250.954525 
L 154.532571 252.085854 
L 153.002057 253.500552 
L 151.471543 254.382253 
L 150.961371 254.559443 
L 150.4512 254.53344 
L 149.941029 254.74416 
L 148.920686 254.706298 
L 148.410514 254.597302 
L 147.390171 254.002549 
L 146.88 253.701884 
L 145.859657 252.616742 
L 145.349486 252.016826 
L 143.818971 249.399522 
L 143.3088 246.900098 
L 142.798629 247.09452 
L 141.778286 244.348529 
L 140.757943 241.186953 
L 140.247771 239.467228 
L 139.7376 237.22827 
L 139.227429 235.767927 
L 135.146057 218.634191 
L 134.635886 217.562058 
L 133.615543 214.323184 
L 133.105371 206.495746 
L 125.4528 183.412529 
L 124.432457 180.873854 
L 120.351086 173.652558 
L 119.330743 172.41762 
L 118.820571 172.081052 
L 118.3104 172.225682 
L 117.800229 172.6925 
L 117.290057 173.455743 
L 116.269714 175.64709 
L 114.229029 180.19399 
L 113.718857 181.069929 
L 113.208686 181.714911 
L 112.698514 182.574592 
L 112.188343 182.707894 
L 111.678171 183.136776 
L 111.168 183.394632 
L 110.147657 183.342249 
L 109.637486 182.773257 
L 109.127314 181.813094 
L 108.617143 180.4135 
L 108.106971 178.367881 
L 107.5968 175.828017 
L 107.086629 172.546786 
L 106.066286 163.689057 
L 105.045943 151.391482 
L 104.0256 134.961018 
L 103.005257 113.67557 
L 101.984914 86.80124 
L 100.964571 55.044195 
L 99.944229 18.817719 
L 99.446668 -1 
L 99.446668 -1 
" clip-path="url(#pec327f5a1e)" style="fill: none; stroke: #791f86; stroke-width: 0.5; stroke-linecap: square"/>
   </g>
   <g id="line2d_25">
    <path d="M 363.702857 308.093923 
L 363.192686 307.872881 
L 362.172343 307.843797 
L 355.540114 308.034603 
L 354.0096 308.009624 
L 346.8672 307.864732 
L 345.846857 307.853763 
L 343.296 307.763073 
L 341.765486 307.720216 
L 331.051886 307.041334 
L 330.031543 306.814554 
L 328.501029 306.445658 
L 326.460343 306.530705 
L 325.44 306.699552 
L 323.909486 306.838108 
L 321.8688 307.093692 
L 321.358629 306.959047 
L 320.338286 307.01244 
L 318.807771 307.03343 
L 309.114514 306.405554 
L 302.992457 305.36507 
L 299.931429 304.673822 
L 298.400914 304.280673 
L 290.748343 301.001882 
L 287.177143 298.875843 
L 282.075429 294.960865 
L 279.0144 292.216997 
L 275.4432 288.701276 
L 270.341486 283.334982 
L 264.7296 277.689042 
L 262.688914 275.629263 
L 260.138057 273.140721 
L 256.566857 269.718881 
L 252.995657 266.512172 
L 251.465143 265.150104 
L 249.424457 263.468926 
L 247.383771 261.853884 
L 245.853257 260.727981 
L 244.322743 259.452577 
L 239.221029 255.791334 
L 235.139657 252.152723 
L 233.609143 250.497396 
L 232.078629 248.613147 
L 230.548114 246.511722 
L 228.507429 243.303665 
L 226.466743 239.617734 
L 223.405714 233.486751 
L 208.100571 199.39766 
L 204.529371 192.124166 
L 202.488686 188.621773 
L 200.958171 186.451138 
L 199.427657 184.627289 
L 197.897143 183.333413 
L 196.8768 182.695185 
L 195.346286 181.999076 
L 193.815771 181.703603 
L 192.285257 181.761682 
L 191.264914 181.926999 
L 189.7344 182.511363 
L 188.203886 183.458534 
L 187.183543 184.277609 
L 186.1632 185.405217 
L 184.632686 187.529351 
L 183.102171 190.144676 
L 181.571657 193.126045 
L 177.490286 202.226845 
L 173.408914 212.361842 
L 169.327543 223.0938 
L 166.266514 230.62051 
L 164.225829 235.075698 
L 161.674971 239.898813 
L 159.634286 243.36727 
L 158.613943 244.970208 
L 156.573257 247.762521 
L 155.042743 249.408054 
L 154.0224 250.367404 
L 152.491886 251.405573 
L 150.961371 251.95226 
L 150.4512 251.881977 
L 149.941029 252.050611 
L 149.430857 252.054391 
L 148.920686 251.937714 
L 147.390171 251.111137 
L 146.88 250.709358 
L 145.859657 249.607724 
L 145.349486 248.888278 
L 143.818971 246.023445 
L 143.3088 243.39239 
L 142.798629 243.524305 
L 141.778286 240.498286 
L 140.247771 235.238496 
L 139.7376 232.961147 
L 139.227429 231.238349 
L 137.696914 224.689336 
L 137.186743 221.845902 
L 136.676571 220.276207 
L 135.656229 215.43074 
L 133.615543 208.780954 
L 133.105371 201.36228 
L 132.5952 199.926113 
L 131.064686 194.763469 
L 126.983314 183.119996 
L 125.4528 179.360461 
L 124.432457 177.394202 
L 123.412114 175.743666 
L 121.371429 173.114211 
L 120.861257 172.77496 
L 120.351086 172.126686 
L 119.840914 171.719707 
L 119.330743 171.508378 
L 118.820571 171.657754 
L 118.3104 171.951404 
L 117.290057 173.451136 
L 115.759543 177.338224 
L 114.229029 180.818742 
L 113.208686 182.509579 
L 112.698514 183.229255 
L 111.168 183.733202 
L 110.657829 183.666663 
L 110.147657 183.211279 
L 109.637486 182.538037 
L 109.127314 181.292961 
L 108.617143 179.60264 
L 108.106971 177.272756 
L 107.5968 174.360331 
L 106.576457 166.30234 
L 105.556114 155.089322 
L 104.535771 140.185462 
L 103.515429 121.262151 
L 102.495086 97.351531 
L 101.474743 68.582226 
L 99.944229 16.915626 
L 99.489193 -1 
L 99.489193 -1 
" clip-path="url(#pec327f5a1e)" style="fill: none; stroke: #6c1f93; stroke-width: 0.5; stroke-linecap: square"/>
   </g>
   <g id="line2d_26">
    <path d="M 363.702857 307.804356 
L 363.192686 307.594657 
L 362.172343 307.589058 
L 361.152 307.680748 
L 359.111314 307.71149 
L 354.0096 307.865786 
L 349.418057 307.822271 
L 347.377371 307.807391 
L 345.336686 307.773126 
L 337.684114 307.547796 
L 336.663771 307.500112 
L 333.092571 307.269202 
L 332.072229 307.134843 
L 331.051886 307.036559 
L 330.031543 306.801832 
L 329.0112 306.572644 
L 327.990857 306.477796 
L 326.460343 306.54124 
L 324.419657 306.846582 
L 322.378971 307.015699 
L 321.8688 307.121973 
L 321.358629 306.987114 
L 317.787429 307.045873 
L 312.685714 306.780647 
L 308.604343 306.36953 
L 307.584 306.218108 
L 305.543314 305.89641 
L 298.911086 304.307806 
L 294.319543 302.430671 
L 292.278857 301.489998 
L 290.748343 300.673052 
L 289.217829 299.73543 
L 286.666971 298.036183 
L 282.5856 294.699907 
L 281.055086 293.22074 
L 280.034743 292.335035 
L 275.4432 287.473898 
L 269.321143 280.615836 
L 256.056686 266.5256 
L 248.404114 259.539724 
L 245.343086 257.090562 
L 243.812571 255.930649 
L 239.221029 252.67363 
L 237.180343 251.168759 
L 234.629486 248.967168 
L 233.098971 247.458533 
L 231.568457 245.727507 
L 230.548114 244.517016 
L 227.487086 240.126933 
L 225.4464 236.817052 
L 220.854857 228.357342 
L 212.181943 211.233168 
L 205.549714 198.463337 
L 203.509029 195.023854 
L 200.958171 191.48441 
L 199.427657 189.854561 
L 197.897143 188.616583 
L 196.8768 187.99312 
L 195.346286 187.36236 
L 193.3056 186.994757 
L 192.285257 186.981354 
L 190.754743 187.220995 
L 189.224229 187.800006 
L 187.183543 189.079329 
L 185.653029 190.689683 
L 184.122514 192.735117 
L 183.102171 194.353163 
L 181.061486 198.129947 
L 179.0208 202.25051 
L 176.980114 206.594304 
L 172.388571 217.366755 
L 167.797029 228.52519 
L 165.246171 234.06588 
L 163.715657 236.964465 
L 161.674971 240.53509 
L 158.103771 245.863037 
L 156.063086 248.224968 
L 154.532571 249.630906 
L 153.512229 250.377838 
L 151.981714 251.113485 
L 150.961371 251.377609 
L 150.4512 251.275666 
L 149.941029 251.43126 
L 148.920686 251.221819 
L 147.900343 250.707724 
L 146.369829 249.203333 
L 145.349486 247.818392 
L 144.839314 246.740119 
L 144.329143 245.930059 
L 143.818971 244.825232 
L 143.3088 242.124988 
L 142.798629 242.190397 
L 141.268114 237.230998 
L 140.247771 233.306265 
L 139.7376 230.839179 
L 139.227429 229.135177 
L 137.696914 222.086242 
L 137.186743 219.165278 
L 136.676571 217.359551 
L 135.656229 212.674147 
L 135.146057 210.068986 
L 134.635886 208.855547 
L 133.615543 205.26464 
L 133.105371 197.30197 
L 132.085029 193.9564 
L 130.554514 189.151195 
L 129.534171 186.320682 
L 126.983314 180.03072 
L 125.4528 176.906082 
L 124.432457 175.215311 
L 123.922286 174.719401 
L 123.412114 173.988344 
L 121.8816 172.611512 
L 120.351086 171.507392 
L 119.840914 171.453529 
L 119.330743 171.244778 
L 118.3104 172.068334 
L 117.800229 172.753975 
L 116.779886 175.204539 
L 114.229029 181.584461 
L 113.718857 182.591601 
L 113.208686 183.176164 
L 112.698514 184.122488 
L 111.168 184.479227 
L 110.657829 184.330961 
L 110.147657 183.823142 
L 109.637486 182.895442 
L 109.127314 181.579253 
L 108.617143 179.726774 
L 108.106971 177.301179 
L 107.086629 170.361966 
L 106.066286 160.294929 
L 105.045943 147.070249 
L 104.0256 129.836096 
L 103.005257 108.403163 
L 101.984914 82.068837 
L 100.4544 34.063075 
L 99.507896 -1 
L 99.507896 -1 
" clip-path="url(#pec327f5a1e)" style="fill: none; stroke: #5f1fa0; stroke-width: 0.5; stroke-linecap: square"/>
   </g>
   <g id="line2d_27">
    <path d="M 363.702857 307.939293 
L 363.192686 307.707616 
L 359.621486 307.814311 
L 356.050286 307.963146 
L 349.928229 307.869989 
L 348.397714 307.854509 
L 338.704457 307.645063 
L 337.173943 307.536214 
L 334.112914 307.334734 
L 330.031543 306.808735 
L 329.0112 306.514987 
L 326.970514 306.435216 
L 321.358629 306.877236 
L 320.338286 306.902619 
L 316.767086 306.917476 
L 314.216229 306.770684 
L 312.175543 306.653772 
L 311.1552 306.571883 
L 308.094171 306.163144 
L 306.053486 305.821901 
L 298.911086 304.080814 
L 297.380571 303.514819 
L 296.360229 302.945759 
L 292.278857 301.076731 
L 290.748343 300.247872 
L 286.666971 297.444549 
L 283.605943 294.841878 
L 279.524571 290.873395 
L 277.994057 289.212776 
L 273.912686 284.493789 
L 260.138057 268.56659 
L 252.485486 260.580203 
L 246.8736 255.558036 
L 245.343086 254.278474 
L 243.812571 253.089446 
L 241.261714 251.293024 
L 235.649829 247.277894 
L 233.098971 245.125586 
L 231.058286 243.099668 
L 227.997257 239.483766 
L 225.956571 236.68101 
L 221.8752 230.394141 
L 215.242971 219.390363 
L 211.671771 213.237333 
L 205.039543 202.254624 
L 202.998857 199.34633 
L 201.468343 197.43706 
L 199.937829 195.844188 
L 197.386971 193.968511 
L 195.346286 193.107668 
L 192.795429 192.68205 
L 191.775086 192.675692 
L 190.244571 192.870326 
L 188.203886 193.587941 
L 187.183543 194.174883 
L 186.1632 195.009515 
L 185.142857 196.023159 
L 184.122514 197.247132 
L 182.081829 200.269986 
L 181.061486 201.939337 
L 179.0208 205.613075 
L 175.4496 212.537351 
L 171.368229 221.298728 
L 169.837714 224.747199 
L 166.776686 231.28686 
L 165.246171 234.183238 
L 163.205486 237.574733 
L 160.654629 241.356124 
L 158.613943 243.997945 
L 157.083429 245.786463 
L 155.042743 247.594457 
L 153.002057 248.776212 
L 151.471543 249.221815 
L 150.961371 249.309608 
L 150.4512 249.199166 
L 149.941029 249.241133 
L 148.920686 248.945329 
L 147.900343 248.329195 
L 146.88 247.389539 
L 145.859657 246.08832 
L 144.839314 244.294985 
L 144.329143 242.889073 
L 143.818971 242.061321 
L 143.3088 239.225718 
L 142.798629 239.163303 
L 141.778286 235.845703 
L 140.757943 231.958734 
L 138.717257 222.890972 
L 135.146057 205.202499 
L 134.635886 203.960146 
L 133.615543 200.298239 
L 133.105371 191.134747 
L 129.024 177.641557 
L 125.962971 169.294979 
L 124.942629 167.119269 
L 123.412114 165.407574 
L 122.391771 164.62309 
L 121.371429 164.373826 
L 120.861257 164.194631 
L 120.351086 164.204491 
L 119.330743 164.450054 
L 118.3104 165.88486 
L 117.290057 168.260108 
L 114.7392 175.81603 
L 113.718857 178.052569 
L 112.698514 179.684084 
L 112.188343 179.685273 
L 111.678171 179.863861 
L 111.168 179.788968 
L 110.657829 179.480951 
L 110.147657 178.737469 
L 109.637486 177.742212 
L 109.127314 176.098457 
L 108.617143 173.87384 
L 107.5968 167.539057 
L 106.576457 158.063205 
L 105.556114 145.312109 
L 104.535771 128.774766 
L 103.515429 108.255905 
L 102.495086 83.412337 
L 100.964571 37.845335 
L 99.859971 -1 
L 99.859971 -1 
" clip-path="url(#pec327f5a1e)" style="fill: none; stroke: #521fad; stroke-width: 0.5; stroke-linecap: square"/>
   </g>
   <g id="line2d_28">
    <path d="M 363.702857 308.075612 
L 363.192686 307.815516 
L 352.989257 307.993213 
L 336.1536 307.468416 
L 334.623086 307.321976 
L 334.112914 307.357115 
L 332.5824 307.181981 
L 331.051886 306.991994 
L 329.521371 306.658519 
L 328.501029 306.443671 
L 326.460343 306.457854 
L 325.44 306.613872 
L 321.8688 307.006085 
L 321.358629 306.860511 
L 319.317943 306.924607 
L 316.767086 306.83342 
L 308.094171 306.036859 
L 306.563657 305.709936 
L 302.482286 304.81575 
L 298.911086 303.752973 
L 297.380571 303.173603 
L 296.360229 302.563417 
L 293.2992 301.119399 
L 290.748343 299.65319 
L 286.1568 296.221362 
L 283.095771 293.367864 
L 279.0144 289.093793 
L 274.422857 283.512052 
L 266.260114 273.238319 
L 261.668571 267.663404 
L 258.097371 263.498369 
L 252.995657 257.883451 
L 248.914286 253.825313 
L 244.832914 250.22704 
L 242.282057 248.406422 
L 241.261714 247.668009 
L 237.690514 245.33334 
L 232.078629 241.167585 
L 231.058286 240.235867 
L 228.507429 237.717654 
L 226.466743 235.411284 
L 223.915886 232.202362 
L 218.304 224.497943 
L 214.7328 219.508084 
L 212.692114 216.650322 
L 210.141257 213.020495 
L 204.529371 205.392865 
L 201.978514 202.511847 
L 200.958171 201.553494 
L 199.427657 200.307566 
L 197.897143 199.400816 
L 196.8768 198.865014 
L 194.325943 198.128981 
L 190.754743 197.984826 
L 188.714057 198.522247 
L 187.693714 198.845848 
L 186.1632 199.8043 
L 184.632686 201.236211 
L 183.102171 203.042976 
L 181.571657 205.170011 
L 178.000457 210.75939 
L 172.388571 221.077871 
L 169.327543 227.259756 
L 166.266514 232.946399 
L 164.225829 236.24821 
L 161.674971 239.687191 
L 158.613943 243.281284 
L 156.063086 245.633077 
L 154.532571 246.575548 
L 153.512229 247.03072 
L 151.981714 247.461017 
L 150.961371 247.509738 
L 150.4512 247.215633 
L 149.941029 247.267619 
L 149.430857 247.143383 
L 147.900343 246.201738 
L 146.88 245.072273 
L 145.349486 242.735826 
L 144.839314 241.757951 
L 144.329143 240.159018 
L 143.818971 239.246631 
L 143.3088 236.255712 
L 142.798629 236.133109 
L 141.778286 232.628686 
L 140.247771 226.167672 
L 139.227429 221.379174 
L 137.696914 213.664776 
L 137.186743 210.419438 
L 136.676571 208.336735 
L 135.146057 200.211709 
L 134.635886 198.884537 
L 133.615543 195.222431 
L 133.105371 186.427673 
L 131.574857 180.760632 
L 130.044343 175.524919 
L 127.493486 167.712147 
L 126.473143 164.736448 
L 124.942629 161.480873 
L 123.922286 160.329274 
L 123.412114 159.943562 
L 122.901943 159.749523 
L 121.8816 159.664717 
L 120.861257 159.97132 
L 119.840914 160.710308 
L 118.820571 162.011269 
L 118.3104 163.069707 
L 116.779886 167.732318 
L 115.249371 172.91775 
L 114.229029 175.812039 
L 113.208686 177.754546 
L 112.698514 178.653166 
L 112.188343 178.784394 
L 111.678171 178.786813 
L 111.168 178.669821 
L 110.657829 178.219526 
L 110.147657 177.398283 
L 109.637486 176.055963 
L 109.127314 174.332438 
L 108.106971 168.790505 
L 107.086629 160.364395 
L 106.066286 148.608199 
L 105.045943 133.273991 
L 104.0256 114.114369 
L 103.005257 91.154263 
L 101.984914 64.038375 
L 100.4544 15.837622 
L 99.978051 -1 
L 99.978051 -1 
" clip-path="url(#pec327f5a1e)" style="fill: none; stroke: #451fba; stroke-width: 0.5; stroke-linecap: square"/>
   </g>
   <g id="line2d_29">
    <path d="M 363.702857 307.907766 
L 363.192686 307.682176 
L 361.662171 307.692942 
L 357.070629 307.894084 
L 356.560457 307.839527 
L 355.540114 307.927133 
L 346.8672 307.810137 
L 344.826514 307.758851 
L 334.112914 307.320524 
L 332.5824 307.211046 
L 331.051886 307.050645 
L 328.501029 306.42678 
L 326.970514 306.433544 
L 325.44 306.686884 
L 322.889143 306.899197 
L 322.378971 306.903585 
L 321.8688 307.023124 
L 321.358629 306.897575 
L 319.828114 306.961358 
L 310.645029 306.428643 
L 308.604343 306.091177 
L 307.073829 305.885878 
L 302.992457 304.923804 
L 300.4416 304.268713 
L 297.380571 303.119752 
L 296.360229 302.481113 
L 294.829714 301.80169 
L 293.2992 301.003645 
L 290.748343 299.481354 
L 287.687314 297.238025 
L 285.646629 295.422034 
L 284.626286 294.505742 
L 280.544914 290.274389 
L 276.973714 285.993939 
L 272.892343 280.677117 
L 270.851657 278.013702 
L 262.178743 266.841554 
L 255.546514 258.902858 
L 249.934629 252.903899 
L 248.404114 251.395416 
L 243.812571 247.479235 
L 232.078629 239.742109 
L 227.997257 236.245961 
L 224.936229 233.053237 
L 222.895543 230.757574 
L 219.834514 227.047461 
L 218.304 225.155387 
L 212.692114 218.131501 
L 211.671771 216.749626 
L 210.651429 215.436002 
L 203.509029 206.603579 
L 201.978514 205.02407 
L 200.958171 204.043214 
L 198.407314 202.221902 
L 196.8768 201.473252 
L 195.856457 201.046968 
L 193.815771 200.473977 
L 190.754743 200.283348 
L 189.224229 200.462854 
L 187.693714 200.850893 
L 186.673371 201.376993 
L 185.142857 202.52994 
L 184.122514 203.48504 
L 183.102171 204.593886 
L 181.061486 207.258355 
L 176.980114 213.460114 
L 173.408914 219.653723 
L 170.858057 224.43548 
L 167.797029 230.178715 
L 165.246171 234.424094 
L 163.205486 237.225905 
L 160.144457 240.853598 
L 157.5936 243.423288 
L 155.042743 245.213947 
L 153.512229 245.844316 
L 152.491886 246.146082 
L 150.961371 246.165591 
L 149.941029 245.939889 
L 148.410514 245.133007 
L 147.900343 244.752014 
L 147.390171 244.22253 
L 146.88 243.409892 
L 146.369829 242.966344 
L 145.349486 241.205228 
L 144.329143 238.920972 
L 143.818971 237.611782 
L 143.3088 234.577277 
L 142.798629 234.450497 
L 141.778286 230.765756 
L 140.247771 224.043376 
L 139.227429 219.123612 
L 137.696914 211.118214 
L 137.186743 207.900925 
L 136.676571 205.781979 
L 135.146057 197.505324 
L 134.125714 194.409599 
L 133.615543 192.154899 
L 133.105371 182.958976 
L 132.085029 179.283771 
L 130.554514 174.251932 
L 129.534171 171.402424 
L 128.513829 168.894045 
L 127.493486 166.580499 
L 126.983314 165.446057 
L 125.962971 163.774505 
L 124.942629 162.473821 
L 124.432457 161.909072 
L 123.412114 161.248506 
L 122.901943 161.054745 
L 121.371429 161.42018 
L 120.351086 161.900361 
L 119.330743 162.876373 
L 118.820571 163.69492 
L 117.800229 165.878375 
L 117.290057 167.262491 
L 115.759543 172.333138 
L 114.229029 176.56384 
L 112.698514 179.23275 
L 111.678171 179.290354 
L 111.168 179.077109 
L 110.657829 178.630383 
L 110.147657 177.661403 
L 109.637486 176.327503 
L 109.127314 174.491995 
L 108.617143 172.070815 
L 108.106971 168.972758 
L 107.086629 160.52193 
L 106.066286 148.71478 
L 105.045943 133.474299 
L 104.0256 114.573247 
L 103.005257 91.625566 
L 101.984914 64.961837 
L 100.4544 17.280891 
L 99.921637 -1 
L 99.921637 -1 
" clip-path="url(#pec327f5a1e)" style="fill: none; stroke: #381fc7; stroke-width: 0.5; stroke-linecap: square"/>
   </g>
   <g id="line2d_30">
    <path d="M 363.702857 307.850896 
L 363.192686 307.625325 
L 361.662171 307.63215 
L 360.641829 307.662782 
L 358.601143 307.772712 
L 352.479086 307.876493 
L 350.948571 307.862877 
L 347.887543 307.797157 
L 346.357029 307.825384 
L 340.234971 307.665994 
L 338.704457 307.612334 
L 331.562057 307.143176 
L 330.031543 306.849972 
L 329.0112 306.559087 
L 327.990857 306.428769 
L 326.460343 306.504721 
L 324.929829 306.700441 
L 323.909486 306.81187 
L 322.378971 306.893728 
L 321.8688 307.021771 
L 321.358629 306.897043 
L 315.236571 306.84474 
L 309.114514 306.256007 
L 302.992457 304.987741 
L 298.400914 303.536527 
L 296.8704 302.756122 
L 296.360229 302.43224 
L 295.339886 301.986498 
L 292.789029 300.643422 
L 290.238171 298.997587 
L 287.177143 296.631146 
L 284.626286 294.263674 
L 280.034743 289.327673 
L 275.953371 284.191968 
L 263.709257 267.755821 
L 255.036343 257.018573 
L 250.4448 251.920927 
L 247.383771 248.984317 
L 243.812571 245.90731 
L 241.261714 244.165822 
L 239.221029 242.918796 
L 230.548114 237.986772 
L 227.997257 236.318497 
L 224.426057 233.475037 
L 216.263314 226.032916 
L 212.692114 222.6193 
L 211.1616 221.000719 
L 209.120914 218.892955 
L 204.0192 213.687353 
L 200.958171 211.019797 
L 199.427657 209.914732 
L 197.386971 208.77158 
L 193.3056 207.357169 
L 191.775086 207.050672 
L 190.244571 206.883326 
L 188.714057 206.909101 
L 187.693714 206.943124 
L 186.1632 207.458755 
L 184.632686 208.37444 
L 183.102171 209.615709 
L 180.041143 213.046772 
L 175.4496 219.07305 
L 172.388571 223.768962 
L 167.797029 231.505527 
L 166.266514 233.87792 
L 163.205486 237.73345 
L 161.674971 239.436421 
L 157.083429 243.601687 
L 155.042743 244.8158 
L 153.512229 245.389987 
L 151.471543 245.632773 
L 150.961371 245.592479 
L 150.4512 245.369023 
L 149.430857 245.097315 
L 148.920686 244.86154 
L 147.390171 243.490253 
L 146.369829 242.214043 
L 145.349486 240.380789 
L 144.839314 239.320731 
L 144.329143 237.732036 
L 143.818971 236.720858 
L 143.3088 233.656645 
L 142.798629 233.429971 
L 141.268114 227.520078 
L 140.247771 222.756852 
L 139.227429 217.736023 
L 137.696914 209.404249 
L 137.186743 206.029091 
L 136.676571 203.83015 
L 135.146057 195.432961 
L 133.615543 190.217141 
L 133.105371 179.523905 
L 130.044343 168.17724 
L 126.983314 159.244275 
L 125.4528 155.819048 
L 124.942629 154.984825 
L 124.432457 154.445216 
L 123.922286 154.119328 
L 123.412114 153.947839 
L 122.391771 154.236651 
L 121.8816 154.431496 
L 120.351086 155.856164 
L 119.840914 156.560137 
L 118.820571 158.609273 
L 117.800229 161.340784 
L 114.7392 172.027517 
L 114.229029 173.460234 
L 113.208686 175.366325 
L 112.698514 176.224961 
L 112.188343 176.065553 
L 111.678171 176.216753 
L 111.168 175.802292 
L 110.657829 175.13862 
L 110.147657 174.107833 
L 109.637486 172.467687 
L 109.127314 170.351074 
L 108.106971 163.9419 
L 107.086629 154.783542 
L 106.066286 141.877652 
L 105.045943 125.348517 
L 104.0256 105.220113 
L 103.005257 81.296355 
L 101.474743 38.149264 
L 100.281206 -1 
L 100.281206 -1 
" clip-path="url(#pec327f5a1e)" style="fill: none; stroke: #2c1fd3; stroke-width: 0.5; stroke-linecap: square"/>
   </g>
   <g id="line2d_31">
    <path d="M 363.702857 308.003003 
L 363.192686 307.811494 
L 362.172343 307.824855 
L 356.560457 307.99755 
L 355.029943 307.97974 
L 352.479086 307.95687 
L 349.418057 307.872616 
L 346.357029 307.858735 
L 344.316343 307.787601 
L 338.194286 307.584 
L 336.1536 307.429338 
L 334.623086 307.332978 
L 330.031543 306.71654 
L 328.501029 306.400641 
L 326.460343 306.431728 
L 322.889143 306.808569 
L 321.358629 306.809932 
L 319.317943 306.784865 
L 317.787429 306.767794 
L 315.746743 306.660967 
L 310.134857 306.040431 
L 306.563657 305.373623 
L 300.4416 303.554206 
L 298.911086 302.892805 
L 297.890743 302.480955 
L 292.789029 299.436089 
L 291.258514 298.340052 
L 289.217829 296.737746 
L 286.666971 294.369805 
L 283.605943 291.039681 
L 278.504229 284.486835 
L 274.422857 278.495197 
L 265.749943 265.287608 
L 255.036343 250.102339 
L 248.914286 242.703473 
L 246.8736 240.625311 
L 242.792229 237.144925 
L 240.241371 235.555707 
L 237.690514 234.363834 
L 234.629486 233.345174 
L 231.058286 232.514269 
L 228.507429 231.986015 
L 226.466743 231.600078 
L 223.405714 230.962934 
L 220.854857 230.378794 
L 215.242971 228.99844 
L 213.712457 228.516745 
L 212.692114 228.219831 
L 211.1616 227.597359 
L 209.631086 227.0658 
L 196.8768 221.329491 
L 195.856457 220.975899 
L 192.285257 219.746836 
L 187.693714 218.525923 
L 186.1632 218.525784 
L 184.632686 218.836319 
L 183.102171 219.424603 
L 181.061486 220.662872 
L 177.490286 223.221783 
L 175.959771 224.468947 
L 172.898743 227.508363 
L 169.837714 231.070396 
L 167.797029 233.525929 
L 164.736 236.487835 
L 163.205486 237.562552 
L 160.654629 239.242418 
L 159.124114 240.076297 
L 157.083429 241.085393 
L 156.063086 241.436111 
L 153.512229 241.834176 
L 151.981714 241.675997 
L 149.941029 240.88265 
L 148.410514 239.755571 
L 147.900343 239.216643 
L 146.369829 236.957164 
L 145.349486 234.864423 
L 143.818971 230.690883 
L 143.3088 227.298574 
L 142.798629 226.985356 
L 141.268114 220.207045 
L 140.247771 214.938763 
L 135.146057 184.816233 
L 134.635886 183.34143 
L 134.125714 180.951192 
L 133.615543 179.224984 
L 133.105371 168.93997 
L 132.085029 164.842308 
L 131.064686 160.982634 
L 129.534171 156.409126 
L 128.003657 152.895457 
L 126.473143 150.242408 
L 125.4528 149.16935 
L 124.942629 148.931454 
L 124.432457 148.822776 
L 123.922286 148.836325 
L 122.901943 149.482126 
L 122.391771 150.077884 
L 120.861257 152.684948 
L 119.840914 154.819908 
L 118.820571 157.58482 
L 117.800229 161.050204 
L 114.229029 173.811384 
L 113.718857 175.012841 
L 113.208686 175.786684 
L 112.698514 176.76871 
L 111.678171 176.577407 
L 111.168 176.014482 
L 110.657829 175.132701 
L 110.147657 173.615931 
L 109.637486 171.68959 
L 109.127314 169.174919 
L 108.617143 165.959857 
L 107.5968 157.312571 
L 106.576457 145.279619 
L 105.556114 129.76899 
L 104.535771 110.656848 
L 103.005257 75.725279 
L 101.474743 33.226924 
L 100.386115 -1 
L 100.386115 -1 
" clip-path="url(#pec327f5a1e)" style="fill: none; stroke: #1f1fe0; stroke-width: 0.5; stroke-linecap: square"/>
   </g>
   <g id="patch_3">
    <path d="M 57.6 307.584 
L 57.6 41.472 
" style="fill: none; stroke: #000000; stroke-width: 0.8; stroke-linejoin: miter; stroke-linecap: square"/>
   </g>
   <g id="patch_4">
    <path d="M 414.72 307.584 
L 414.72 41.472 
" style="fill: none; stroke: #000000; stroke-width: 0.8; stroke-linejoin: miter; stroke-linecap: square"/>
   </g>
   <g id="patch_5">
    <path d="M 57.6 307.584 
L 414.72 307.584 
" style="fill: none; stroke: #000000; stroke-width: 0.8; stroke-linejoin: miter; stroke-linecap: square"/>
   </g>
   <g id="patch_6">
    <path d="M 57.6 41.472 
L 414.72 41.472 
" style="fill: none; stroke: #000000; stroke-width: 0.8; stroke-linejoin: miter; stroke-linecap: square"/>
   </g>
   <g id="text_18">
    <!-- IDA Titration of Alizarin:PBA complex &amp; Hydrobenzoin in MeCN  -->
    <g transform="translate(47.04 22.034625) scale(0.12 -0.12)">
     <defs>
      <path id="DejaVuSans-49" d="M 628 4666 
L 1259 4666 
L 1259 0 
L 628 0 
L 628 4666 
z
" transform="scale(0.015625)"/>
      <path id="DejaVuSans-44" d="M 1259 4147 
L 1259 519 
L 2022 519 
Q 2988 519 3436 956 
Q 3884 1394 3884 2338 
Q 3884 3275 3436 3711 
Q 2988 4147 2022 4147 
L 1259 4147 
z
M 628 4666 
L 1925 4666 
Q 3281 4666 3915 4102 
Q 4550 3538 4550 2338 
Q 4550 1131 3912 565 
Q 3275 0 1925 0 
L 628 0 
L 628 4666 
z
" transform="scale(0.015625)"/>
      <path id="DejaVuSans-54" d="M -19 4666 
L 3928 4666 
L 3928 4134 
L 2272 4134 
L 2272 0 
L 1638 0 
L 1638 4134 
L -19 4134 
L -19 4666 
z
" transform="scale(0.015625)"/>
      <path id="DejaVuSans-69" d="M 603 3500 
L 1178 3500 
L 1178 0 
L 603 0 
L 603 3500 
z
M 603 4863 
L 1178 4863 
L 1178 4134 
L 603 4134 
L 603 4863 
z
" transform="scale(0.015625)"/>
      <path id="DejaVuSans-66" d="M 2375 4863 
L 2375 4384 
L 1825 4384 
Q 1516 4384 1395 4259 
Q 1275 4134 1275 3809 
L 1275 3500 
L 2222 3500 
L 2222 3053 
L 1275 3053 
L 1275 0 
L 697 0 
L 697 3053 
L 147 3053 
L 147 3500 
L 697 3500 
L 697 3744 
Q 697 4328 969 4595 
Q 1241 4863 1831 4863 
L 2375 4863 
z
" transform="scale(0.015625)"/>
      <path id="DejaVuSans-7a" d="M 353 3500 
L 3084 3500 
L 3084 2975 
L 922 459 
L 3084 459 
L 3084 0 
L 275 0 
L 275 525 
L 2438 3041 
L 353 3041 
L 353 3500 
z
" transform="scale(0.015625)"/>
      <path id="DejaVuSans-3a" d="M 750 794 
L 1409 794 
L 1409 0 
L 750 0 
L 750 794 
z
M 750 3309 
L 1409 3309 
L 1409 2516 
L 750 2516 
L 750 3309 
z
" transform="scale(0.015625)"/>
      <path id="DejaVuSans-50" d="M 1259 4147 
L 1259 2394 
L 2053 2394 
Q 2494 2394 2734 2622 
Q 2975 2850 2975 3272 
Q 2975 3691 2734 3919 
Q 2494 4147 2053 4147 
L 1259 4147 
z
M 628 4666 
L 2053 4666 
Q 2838 4666 3239 4311 
Q 3641 3956 3641 3272 
Q 3641 2581 3239 2228 
Q 2838 1875 2053 1875 
L 1259 1875 
L 1259 0 
L 628 0 
L 628 4666 
z
" transform="scale(0.015625)"/>
      <path id="DejaVuSans-42" d="M 1259 2228 
L 1259 519 
L 2272 519 
Q 2781 519 3026 730 
Q 3272 941 3272 1375 
Q 3272 1813 3026 2020 
Q 2781 2228 2272 2228 
L 1259 2228 
z
M 1259 4147 
L 1259 2741 
L 2194 2741 
Q 2656 2741 2882 2914 
Q 3109 3088 3109 3444 
Q 3109 3797 2882 3972 
Q 2656 4147 2194 4147 
L 1259 4147 
z
M 628 4666 
L 2241 4666 
Q 2963 4666 3353 4366 
Q 3744 4066 3744 3513 
Q 3744 3084 3544 2831 
Q 3344 2578 2956 2516 
Q 3422 2416 3680 2098 
Q 3938 1781 3938 1306 
Q 3938 681 3513 340 
Q 3088 0 2303 0 
L 628 0 
L 628 4666 
z
" transform="scale(0.015625)"/>
      <path id="DejaVuSans-70" d="M 1159 525 
L 1159 -1331 
L 581 -1331 
L 581 3500 
L 1159 3500 
L 1159 2969 
Q 1341 3281 1617 3432 
Q 1894 3584 2278 3584 
Q 2916 3584 3314 3078 
Q 3713 2572 3713 1747 
Q 3713 922 3314 415 
Q 2916 -91 2278 -91 
Q 1894 -91 1617 61 
Q 1341 213 1159 525 
z
M 3116 1747 
Q 3116 2381 2855 2742 
Q 2594 3103 2138 3103 
Q 1681 3103 1420 2742 
Q 1159 2381 1159 1747 
Q 1159 1113 1420 752 
Q 1681 391 2138 391 
Q 2594 391 2855 752 
Q 3116 1113 3116 1747 
z
" transform="scale(0.015625)"/>
      <path id="DejaVuSans-78" d="M 3513 3500 
L 2247 1797 
L 3578 0 
L 2900 0 
L 1881 1375 
L 863 0 
L 184 0 
L 1544 1831 
L 300 3500 
L 978 3500 
L 1906 2253 
L 2834 3500 
L 3513 3500 
z
" transform="scale(0.015625)"/>
      <path id="DejaVuSans-26" d="M 1556 2509 
Q 1272 2256 1139 2004 
Q 1006 1753 1006 1478 
Q 1006 1022 1337 719 
Q 1669 416 2169 416 
Q 2466 416 2725 514 
Q 2984 613 3213 813 
L 1556 2509 
z
M 1997 2859 
L 3584 1234 
Q 3769 1513 3872 1830 
Q 3975 2147 3994 2503 
L 4575 2503 
Q 4538 2091 4375 1687 
Q 4213 1284 3922 891 
L 4794 0 
L 4006 0 
L 3559 459 
Q 3234 181 2878 45 
Q 2522 -91 2113 -91 
Q 1359 -91 881 339 
Q 403 769 403 1441 
Q 403 1841 612 2192 
Q 822 2544 1241 2853 
Q 1091 3050 1012 3245 
Q 934 3441 934 3628 
Q 934 4134 1281 4442 
Q 1628 4750 2203 4750 
Q 2463 4750 2720 4694 
Q 2978 4638 3244 4525 
L 3244 3956 
Q 2972 4103 2725 4179 
Q 2478 4256 2266 4256 
Q 1938 4256 1733 4082 
Q 1528 3909 1528 3634 
Q 1528 3475 1620 3314 
Q 1713 3153 1997 2859 
z
" transform="scale(0.015625)"/>
      <path id="DejaVuSans-48" d="M 628 4666 
L 1259 4666 
L 1259 2753 
L 3553 2753 
L 3553 4666 
L 4184 4666 
L 4184 0 
L 3553 0 
L 3553 2222 
L 1259 2222 
L 1259 0 
L 628 0 
L 628 4666 
z
" transform="scale(0.015625)"/>
      <path id="DejaVuSans-79" d="M 2059 -325 
Q 1816 -950 1584 -1140 
Q 1353 -1331 966 -1331 
L 506 -1331 
L 506 -850 
L 844 -850 
Q 1081 -850 1212 -737 
Q 1344 -625 1503 -206 
L 1606 56 
L 191 3500 
L 800 3500 
L 1894 763 
L 2988 3500 
L 3597 3500 
L 2059 -325 
z
" transform="scale(0.015625)"/>
      <path id="DejaVuSans-64" d="M 2906 2969 
L 2906 4863 
L 3481 4863 
L 3481 0 
L 2906 0 
L 2906 525 
Q 2725 213 2448 61 
Q 2172 -91 1784 -91 
Q 1150 -91 751 415 
Q 353 922 353 1747 
Q 353 2572 751 3078 
Q 1150 3584 1784 3584 
Q 2172 3584 2448 3432 
Q 2725 3281 2906 2969 
z
M 947 1747 
Q 947 1113 1208 752 
Q 1469 391 1925 391 
Q 2381 391 2643 752 
Q 2906 1113 2906 1747 
Q 2906 2381 2643 2742 
Q 2381 3103 1925 3103 
Q 1469 3103 1208 2742 
Q 947 2381 947 1747 
z
" transform="scale(0.015625)"/>
      <path id="DejaVuSans-4d" d="M 628 4666 
L 1569 4666 
L 2759 1491 
L 3956 4666 
L 4897 4666 
L 4897 0 
L 4281 0 
L 4281 4097 
L 3078 897 
L 2444 897 
L 1241 4097 
L 1241 0 
L 628 0 
L 628 4666 
z
" transform="scale(0.015625)"/>
      <path id="DejaVuSans-43" d="M 4122 4306 
L 4122 3641 
Q 3803 3938 3442 4084 
Q 3081 4231 2675 4231 
Q 1875 4231 1450 3742 
Q 1025 3253 1025 2328 
Q 1025 1406 1450 917 
Q 1875 428 2675 428 
Q 3081 428 3442 575 
Q 3803 722 4122 1019 
L 4122 359 
Q 3791 134 3420 21 
Q 3050 -91 2638 -91 
Q 1578 -91 968 557 
Q 359 1206 359 2328 
Q 359 3453 968 4101 
Q 1578 4750 2638 4750 
Q 3056 4750 3426 4639 
Q 3797 4528 4122 4306 
z
" transform="scale(0.015625)"/>
      <path id="DejaVuSans-4e" d="M 628 4666 
L 1478 4666 
L 3547 763 
L 3547 4666 
L 4159 4666 
L 4159 0 
L 3309 0 
L 1241 3903 
L 1241 0 
L 628 0 
L 628 4666 
z
" transform="scale(0.015625)"/>
     </defs>
     <use xlink:href="#DejaVuSans-49"/>
     <use xlink:href="#DejaVuSans-44" x="29.492188"/>
     <use xlink:href="#DejaVuSans-41" x="104.744141"/>
     <use xlink:href="#DejaVuSans-20" x="173.152344"/>
     <use xlink:href="#DejaVuSans-54" x="204.939453"/>
     <use xlink:href="#DejaVuSans-69" x="262.898438"/>
     <use xlink:href="#DejaVuSans-74" x="290.681641"/>
     <use xlink:href="#DejaVuSans-72" x="329.890625"/>
     <use xlink:href="#DejaVuSans-61" x="371.003906"/>
     <use xlink:href="#DejaVuSans-74" x="432.283203"/>
     <use xlink:href="#DejaVuSans-69" x="471.492188"/>
     <use xlink:href="#DejaVuSans-6f" x="499.275391"/>
     <use xlink:href="#DejaVuSans-6e" x="560.457031"/>
     <use xlink:href="#DejaVuSans-20" x="623.835938"/>
     <use xlink:href="#DejaVuSans-6f" x="655.623047"/>
     <use xlink:href="#DejaVuSans-66" x="716.804688"/>
     <use xlink:href="#DejaVuSans-20" x="752.009766"/>
     <use xlink:href="#DejaVuSans-41" x="783.796875"/>
     <use xlink:href="#DejaVuSans-6c" x="852.205078"/>
     <use xlink:href="#DejaVuSans-69" x="879.988281"/>
     <use xlink:href="#DejaVuSans-7a" x="907.771484"/>
     <use xlink:href="#DejaVuSans-61" x="960.261719"/>
     <use xlink:href="#DejaVuSans-72" x="1021.541016"/>
     <use xlink:href="#DejaVuSans-69" x="1062.654297"/>
     <use xlink:href="#DejaVuSans-6e" x="1090.4375"/>
     <use xlink:href="#DejaVuSans-3a" x="1153.816406"/>
     <use xlink:href="#DejaVuSans-50" x="1187.507812"/>
     <use xlink:href="#DejaVuSans-42" x="1247.810547"/>
     <use xlink:href="#DejaVuSans-41" x="1316.414062"/>
     <use xlink:href="#DejaVuSans-20" x="1384.822266"/>
     <use xlink:href="#DejaVuSans-63" x="1416.609375"/>
     <use xlink:href="#DejaVuSans-6f" x="1471.589844"/>
     <use xlink:href="#DejaVuSans-6d" x="1532.771484"/>
     <use xlink:href="#DejaVuSans-70" x="1630.183594"/>
     <use xlink:href="#DejaVuSans-6c" x="1693.660156"/>
     <use xlink:href="#DejaVuSans-65" x="1721.443359"/>
     <use xlink:href="#DejaVuSans-78" x="1781.216797"/>
     <use xlink:href="#DejaVuSans-20" x="1840.396484"/>
     <use xlink:href="#DejaVuSans-26" x="1872.183594"/>
     <use xlink:href="#DejaVuSans-20" x="1950.162109"/>
     <use xlink:href="#DejaVuSans-48" x="1981.949219"/>
     <use xlink:href="#DejaVuSans-79" x="2057.144531"/>
     <use xlink:href="#DejaVuSans-64" x="2116.324219"/>
     <use xlink:href="#DejaVuSans-72" x="2179.800781"/>
     <use xlink:href="#DejaVuSans-6f" x="2218.664062"/>
     <use xlink:href="#DejaVuSans-62" x="2279.845703"/>
     <use xlink:href="#DejaVuSans-65" x="2343.322266"/>
     <use xlink:href="#DejaVuSans-6e" x="2404.845703"/>
     <use xlink:href="#DejaVuSans-7a" x="2468.224609"/>
     <use xlink:href="#DejaVuSans-6f" x="2520.714844"/>
     <use xlink:href="#DejaVuSans-69" x="2581.896484"/>
     <use xlink:href="#DejaVuSans-6e" x="2609.679688"/>
     <use xlink:href="#DejaVuSans-20" x="2673.058594"/>
     <use xlink:href="#DejaVuSans-69" x="2704.845703"/>
     <use xlink:href="#DejaVuSans-6e" x="2732.628906"/>
     <use xlink:href="#DejaVuSans-20" x="2796.007812"/>
     <use xlink:href="#DejaVuSans-4d" x="2827.794922"/>
     <use xlink:href="#DejaVuSans-65" x="2914.074219"/>
     <use xlink:href="#DejaVuSans-43" x="2975.597656"/>
     <use xlink:href="#DejaVuSans-4e" x="3045.421875"/>
     <use xlink:href="#DejaVuSans-20" x="3120.226562"/>
    </g>
    <!--  -->
    <g transform="translate(236.16 35.472) scale(0.12 -0.12)"/>
   </g>
  </g>
 </g>
 <defs>
  <clipPath id="pec327f5a1e">
   <rect x="57.6" y="41.472" width="357.12" height="266.112"/>
  </clipPath>
 </defs>
</svg>
