<?xml version="1.0" encoding="utf-8" standalone="no"?>
<!DOCTYPE svg PUBLIC "-//W3C//DTD SVG 1.1//EN"
  "http://www.w3.org/Graphics/SVG/1.1/DTD/svg11.dtd">
<svg xmlns:xlink="http://www.w3.org/1999/xlink" width="460.8pt" height="345.6pt" viewBox="0 0 460.8 345.6" xmlns="http://www.w3.org/2000/svg" version="1.1">
 <metadata>
  <rdf:RDF xmlns:dc="http://purl.org/dc/elements/1.1/" xmlns:cc="http://creativecommons.org/ns#" xmlns:rdf="http://www.w3.org/1999/02/22-rdf-syntax-ns#">
   <cc:Work>
    <dc:type rdf:resource="http://purl.org/dc/dcmitype/StillImage"/>
    <dc:date>2024-11-03T21:07:24.982992</dc:date>
    <dc:format>image/svg+xml</dc:format>
    <dc:creator>
     <cc:Agent>
      <dc:title>Matplotlib v3.9.2, https://matplotlib.org/</dc:title>
     </cc:Agent>
    </dc:creator>
   </cc:Work>
  </rdf:RDF>
 </metadata>
 <defs>
  <style type="text/css">*{stroke-linejoin: round; stroke-linecap: butt}</style>
 </defs>
 <g id="figure_1">
  <g id="patch_1">
   <path d="M 0 345.6 
L 460.8 345.6 
L 460.8 0 
L 0 0 
z
" style="fill: #ffffff"/>
  </g>
  <g id="axes_1">
   <g id="patch_2">
    <path d="M 57.6 307.584 
L 414.72 307.584 
L 414.72 41.472 
L 57.6 41.472 
z
" style="fill: #ffffff"/>
   </g>
   <g id="matplotlib.axis_1">
    <g id="xtick_1">
     <g id="line2d_1">
      <defs>
       <path id="mf6836851e8" d="M 0 0 
L 0 3.5 
" style="stroke: #000000; stroke-width: 0.8"/>
      </defs>
      <g>
       <use xlink:href="#mf6836851e8" x="57.6" y="307.584" style="stroke: #000000; stroke-width: 0.8"/>
      </g>
     </g>
     <g id="text_1">
      <!-- 200 -->
      <g transform="translate(48.05625 322.182437) scale(0.1 -0.1)">
       <defs>
        <path id="DejaVuSans-32" d="M 1228 531 
L 3431 531 
L 3431 0 
L 469 0 
L 469 531 
Q 828 903 1448 1529 
Q 2069 2156 2228 2338 
Q 2531 2678 2651 2914 
Q 2772 3150 2772 3378 
Q 2772 3750 2511 3984 
Q 2250 4219 1831 4219 
Q 1534 4219 1204 4116 
Q 875 4013 500 3803 
L 500 4441 
Q 881 4594 1212 4672 
Q 1544 4750 1819 4750 
Q 2544 4750 2975 4387 
Q 3406 4025 3406 3419 
Q 3406 3131 3298 2873 
Q 3191 2616 2906 2266 
Q 2828 2175 2409 1742 
Q 1991 1309 1228 531 
z
" transform="scale(0.015625)"/>
        <path id="DejaVuSans-30" d="M 2034 4250 
Q 1547 4250 1301 3770 
Q 1056 3291 1056 2328 
Q 1056 1369 1301 889 
Q 1547 409 2034 409 
Q 2525 409 2770 889 
Q 3016 1369 3016 2328 
Q 3016 3291 2770 3770 
Q 2525 4250 2034 4250 
z
M 2034 4750 
Q 2819 4750 3233 4129 
Q 3647 3509 3647 2328 
Q 3647 1150 3233 529 
Q 2819 -91 2034 -91 
Q 1250 -91 836 529 
Q 422 1150 422 2328 
Q 422 3509 836 4129 
Q 1250 4750 2034 4750 
z
" transform="scale(0.015625)"/>
       </defs>
       <use xlink:href="#DejaVuSans-32"/>
       <use xlink:href="#DejaVuSans-30" x="63.623047"/>
       <use xlink:href="#DejaVuSans-30" x="127.246094"/>
      </g>
     </g>
    </g>
    <g id="xtick_2">
     <g id="line2d_2">
      <g>
       <use xlink:href="#mf6836851e8" x="108.617143" y="307.584" style="stroke: #000000; stroke-width: 0.8"/>
      </g>
     </g>
     <g id="text_2">
      <!-- 300 -->
      <g transform="translate(99.073393 322.182437) scale(0.1 -0.1)">
       <defs>
        <path id="DejaVuSans-33" d="M 2597 2516 
Q 3050 2419 3304 2112 
Q 3559 1806 3559 1356 
Q 3559 666 3084 287 
Q 2609 -91 1734 -91 
Q 1441 -91 1130 -33 
Q 819 25 488 141 
L 488 750 
Q 750 597 1062 519 
Q 1375 441 1716 441 
Q 2309 441 2620 675 
Q 2931 909 2931 1356 
Q 2931 1769 2642 2001 
Q 2353 2234 1838 2234 
L 1294 2234 
L 1294 2753 
L 1863 2753 
Q 2328 2753 2575 2939 
Q 2822 3125 2822 3475 
Q 2822 3834 2567 4026 
Q 2313 4219 1838 4219 
Q 1578 4219 1281 4162 
Q 984 4106 628 3988 
L 628 4550 
Q 988 4650 1302 4700 
Q 1616 4750 1894 4750 
Q 2613 4750 3031 4423 
Q 3450 4097 3450 3541 
Q 3450 3153 3228 2886 
Q 3006 2619 2597 2516 
z
" transform="scale(0.015625)"/>
       </defs>
       <use xlink:href="#DejaVuSans-33"/>
       <use xlink:href="#DejaVuSans-30" x="63.623047"/>
       <use xlink:href="#DejaVuSans-30" x="127.246094"/>
      </g>
     </g>
    </g>
    <g id="xtick_3">
     <g id="line2d_3">
      <g>
       <use xlink:href="#mf6836851e8" x="159.634286" y="307.584" style="stroke: #000000; stroke-width: 0.8"/>
      </g>
     </g>
     <g id="text_3">
      <!-- 400 -->
      <g transform="translate(150.090536 322.182437) scale(0.1 -0.1)">
       <defs>
        <path id="DejaVuSans-34" d="M 2419 4116 
L 825 1625 
L 2419 1625 
L 2419 4116 
z
M 2253 4666 
L 3047 4666 
L 3047 1625 
L 3713 1625 
L 3713 1100 
L 3047 1100 
L 3047 0 
L 2419 0 
L 2419 1100 
L 313 1100 
L 313 1709 
L 2253 4666 
z
" transform="scale(0.015625)"/>
       </defs>
       <use xlink:href="#DejaVuSans-34"/>
       <use xlink:href="#DejaVuSans-30" x="63.623047"/>
       <use xlink:href="#DejaVuSans-30" x="127.246094"/>
      </g>
     </g>
    </g>
    <g id="xtick_4">
     <g id="line2d_4">
      <g>
       <use xlink:href="#mf6836851e8" x="210.651429" y="307.584" style="stroke: #000000; stroke-width: 0.8"/>
      </g>
     </g>
     <g id="text_4">
      <!-- 500 -->
      <g transform="translate(201.107679 322.182437) scale(0.1 -0.1)">
       <defs>
        <path id="DejaVuSans-35" d="M 691 4666 
L 3169 4666 
L 3169 4134 
L 1269 4134 
L 1269 2991 
Q 1406 3038 1543 3061 
Q 1681 3084 1819 3084 
Q 2600 3084 3056 2656 
Q 3513 2228 3513 1497 
Q 3513 744 3044 326 
Q 2575 -91 1722 -91 
Q 1428 -91 1123 -41 
Q 819 9 494 109 
L 494 744 
Q 775 591 1075 516 
Q 1375 441 1709 441 
Q 2250 441 2565 725 
Q 2881 1009 2881 1497 
Q 2881 1984 2565 2268 
Q 2250 2553 1709 2553 
Q 1456 2553 1204 2497 
Q 953 2441 691 2322 
L 691 4666 
z
" transform="scale(0.015625)"/>
       </defs>
       <use xlink:href="#DejaVuSans-35"/>
       <use xlink:href="#DejaVuSans-30" x="63.623047"/>
       <use xlink:href="#DejaVuSans-30" x="127.246094"/>
      </g>
     </g>
    </g>
    <g id="xtick_5">
     <g id="line2d_5">
      <g>
       <use xlink:href="#mf6836851e8" x="261.668571" y="307.584" style="stroke: #000000; stroke-width: 0.8"/>
      </g>
     </g>
     <g id="text_5">
      <!-- 600 -->
      <g transform="translate(252.124821 322.182437) scale(0.1 -0.1)">
       <defs>
        <path id="DejaVuSans-36" d="M 2113 2584 
Q 1688 2584 1439 2293 
Q 1191 2003 1191 1497 
Q 1191 994 1439 701 
Q 1688 409 2113 409 
Q 2538 409 2786 701 
Q 3034 994 3034 1497 
Q 3034 2003 2786 2293 
Q 2538 2584 2113 2584 
z
M 3366 4563 
L 3366 3988 
Q 3128 4100 2886 4159 
Q 2644 4219 2406 4219 
Q 1781 4219 1451 3797 
Q 1122 3375 1075 2522 
Q 1259 2794 1537 2939 
Q 1816 3084 2150 3084 
Q 2853 3084 3261 2657 
Q 3669 2231 3669 1497 
Q 3669 778 3244 343 
Q 2819 -91 2113 -91 
Q 1303 -91 875 529 
Q 447 1150 447 2328 
Q 447 3434 972 4092 
Q 1497 4750 2381 4750 
Q 2619 4750 2861 4703 
Q 3103 4656 3366 4563 
z
" transform="scale(0.015625)"/>
       </defs>
       <use xlink:href="#DejaVuSans-36"/>
       <use xlink:href="#DejaVuSans-30" x="63.623047"/>
       <use xlink:href="#DejaVuSans-30" x="127.246094"/>
      </g>
     </g>
    </g>
    <g id="xtick_6">
     <g id="line2d_6">
      <g>
       <use xlink:href="#mf6836851e8" x="312.685714" y="307.584" style="stroke: #000000; stroke-width: 0.8"/>
      </g>
     </g>
     <g id="text_6">
      <!-- 700 -->
      <g transform="translate(303.141964 322.182437) scale(0.1 -0.1)">
       <defs>
        <path id="DejaVuSans-37" d="M 525 4666 
L 3525 4666 
L 3525 4397 
L 1831 0 
L 1172 0 
L 2766 4134 
L 525 4134 
L 525 4666 
z
" transform="scale(0.015625)"/>
       </defs>
       <use xlink:href="#DejaVuSans-37"/>
       <use xlink:href="#DejaVuSans-30" x="63.623047"/>
       <use xlink:href="#DejaVuSans-30" x="127.246094"/>
      </g>
     </g>
    </g>
    <g id="xtick_7">
     <g id="line2d_7">
      <g>
       <use xlink:href="#mf6836851e8" x="363.702857" y="307.584" style="stroke: #000000; stroke-width: 0.8"/>
      </g>
     </g>
     <g id="text_7">
      <!-- 800 -->
      <g transform="translate(354.159107 322.182437) scale(0.1 -0.1)">
       <defs>
        <path id="DejaVuSans-38" d="M 2034 2216 
Q 1584 2216 1326 1975 
Q 1069 1734 1069 1313 
Q 1069 891 1326 650 
Q 1584 409 2034 409 
Q 2484 409 2743 651 
Q 3003 894 3003 1313 
Q 3003 1734 2745 1975 
Q 2488 2216 2034 2216 
z
M 1403 2484 
Q 997 2584 770 2862 
Q 544 3141 544 3541 
Q 544 4100 942 4425 
Q 1341 4750 2034 4750 
Q 2731 4750 3128 4425 
Q 3525 4100 3525 3541 
Q 3525 3141 3298 2862 
Q 3072 2584 2669 2484 
Q 3125 2378 3379 2068 
Q 3634 1759 3634 1313 
Q 3634 634 3220 271 
Q 2806 -91 2034 -91 
Q 1263 -91 848 271 
Q 434 634 434 1313 
Q 434 1759 690 2068 
Q 947 2378 1403 2484 
z
M 1172 3481 
Q 1172 3119 1398 2916 
Q 1625 2713 2034 2713 
Q 2441 2713 2670 2916 
Q 2900 3119 2900 3481 
Q 2900 3844 2670 4047 
Q 2441 4250 2034 4250 
Q 1625 4250 1398 4047 
Q 1172 3844 1172 3481 
z
" transform="scale(0.015625)"/>
       </defs>
       <use xlink:href="#DejaVuSans-38"/>
       <use xlink:href="#DejaVuSans-30" x="63.623047"/>
       <use xlink:href="#DejaVuSans-30" x="127.246094"/>
      </g>
     </g>
    </g>
    <g id="xtick_8">
     <g id="line2d_8">
      <g>
       <use xlink:href="#mf6836851e8" x="414.72" y="307.584" style="stroke: #000000; stroke-width: 0.8"/>
      </g>
     </g>
     <g id="text_8">
      <!-- 900 -->
      <g transform="translate(405.17625 322.182437) scale(0.1 -0.1)">
       <defs>
        <path id="DejaVuSans-39" d="M 703 97 
L 703 672 
Q 941 559 1184 500 
Q 1428 441 1663 441 
Q 2288 441 2617 861 
Q 2947 1281 2994 2138 
Q 2813 1869 2534 1725 
Q 2256 1581 1919 1581 
Q 1219 1581 811 2004 
Q 403 2428 403 3163 
Q 403 3881 828 4315 
Q 1253 4750 1959 4750 
Q 2769 4750 3195 4129 
Q 3622 3509 3622 2328 
Q 3622 1225 3098 567 
Q 2575 -91 1691 -91 
Q 1453 -91 1209 -44 
Q 966 3 703 97 
z
M 1959 2075 
Q 2384 2075 2632 2365 
Q 2881 2656 2881 3163 
Q 2881 3666 2632 3958 
Q 2384 4250 1959 4250 
Q 1534 4250 1286 3958 
Q 1038 3666 1038 3163 
Q 1038 2656 1286 2365 
Q 1534 2075 1959 2075 
z
" transform="scale(0.015625)"/>
       </defs>
       <use xlink:href="#DejaVuSans-39"/>
       <use xlink:href="#DejaVuSans-30" x="63.623047"/>
       <use xlink:href="#DejaVuSans-30" x="127.246094"/>
      </g>
     </g>
    </g>
    <g id="text_9">
     <!-- Wavelength (nm) -->
     <g transform="translate(192.967812 335.860562) scale(0.1 -0.1)">
      <defs>
       <path id="DejaVuSans-57" d="M 213 4666 
L 850 4666 
L 1831 722 
L 2809 4666 
L 3519 4666 
L 4500 722 
L 5478 4666 
L 6119 4666 
L 4947 0 
L 4153 0 
L 3169 4050 
L 2175 0 
L 1381 0 
L 213 4666 
z
" transform="scale(0.015625)"/>
       <path id="DejaVuSans-61" d="M 2194 1759 
Q 1497 1759 1228 1600 
Q 959 1441 959 1056 
Q 959 750 1161 570 
Q 1363 391 1709 391 
Q 2188 391 2477 730 
Q 2766 1069 2766 1631 
L 2766 1759 
L 2194 1759 
z
M 3341 1997 
L 3341 0 
L 2766 0 
L 2766 531 
Q 2569 213 2275 61 
Q 1981 -91 1556 -91 
Q 1019 -91 701 211 
Q 384 513 384 1019 
Q 384 1609 779 1909 
Q 1175 2209 1959 2209 
L 2766 2209 
L 2766 2266 
Q 2766 2663 2505 2880 
Q 2244 3097 1772 3097 
Q 1472 3097 1187 3025 
Q 903 2953 641 2809 
L 641 3341 
Q 956 3463 1253 3523 
Q 1550 3584 1831 3584 
Q 2591 3584 2966 3190 
Q 3341 2797 3341 1997 
z
" transform="scale(0.015625)"/>
       <path id="DejaVuSans-76" d="M 191 3500 
L 800 3500 
L 1894 563 
L 2988 3500 
L 3597 3500 
L 2284 0 
L 1503 0 
L 191 3500 
z
" transform="scale(0.015625)"/>
       <path id="DejaVuSans-65" d="M 3597 1894 
L 3597 1613 
L 953 1613 
Q 991 1019 1311 708 
Q 1631 397 2203 397 
Q 2534 397 2845 478 
Q 3156 559 3463 722 
L 3463 178 
Q 3153 47 2828 -22 
Q 2503 -91 2169 -91 
Q 1331 -91 842 396 
Q 353 884 353 1716 
Q 353 2575 817 3079 
Q 1281 3584 2069 3584 
Q 2775 3584 3186 3129 
Q 3597 2675 3597 1894 
z
M 3022 2063 
Q 3016 2534 2758 2815 
Q 2500 3097 2075 3097 
Q 1594 3097 1305 2825 
Q 1016 2553 972 2059 
L 3022 2063 
z
" transform="scale(0.015625)"/>
       <path id="DejaVuSans-6c" d="M 603 4863 
L 1178 4863 
L 1178 0 
L 603 0 
L 603 4863 
z
" transform="scale(0.015625)"/>
       <path id="DejaVuSans-6e" d="M 3513 2113 
L 3513 0 
L 2938 0 
L 2938 2094 
Q 2938 2591 2744 2837 
Q 2550 3084 2163 3084 
Q 1697 3084 1428 2787 
Q 1159 2491 1159 1978 
L 1159 0 
L 581 0 
L 581 3500 
L 1159 3500 
L 1159 2956 
Q 1366 3272 1645 3428 
Q 1925 3584 2291 3584 
Q 2894 3584 3203 3211 
Q 3513 2838 3513 2113 
z
" transform="scale(0.015625)"/>
       <path id="DejaVuSans-67" d="M 2906 1791 
Q 2906 2416 2648 2759 
Q 2391 3103 1925 3103 
Q 1463 3103 1205 2759 
Q 947 2416 947 1791 
Q 947 1169 1205 825 
Q 1463 481 1925 481 
Q 2391 481 2648 825 
Q 2906 1169 2906 1791 
z
M 3481 434 
Q 3481 -459 3084 -895 
Q 2688 -1331 1869 -1331 
Q 1566 -1331 1297 -1286 
Q 1028 -1241 775 -1147 
L 775 -588 
Q 1028 -725 1275 -790 
Q 1522 -856 1778 -856 
Q 2344 -856 2625 -561 
Q 2906 -266 2906 331 
L 2906 616 
Q 2728 306 2450 153 
Q 2172 0 1784 0 
Q 1141 0 747 490 
Q 353 981 353 1791 
Q 353 2603 747 3093 
Q 1141 3584 1784 3584 
Q 2172 3584 2450 3431 
Q 2728 3278 2906 2969 
L 2906 3500 
L 3481 3500 
L 3481 434 
z
" transform="scale(0.015625)"/>
       <path id="DejaVuSans-74" d="M 1172 4494 
L 1172 3500 
L 2356 3500 
L 2356 3053 
L 1172 3053 
L 1172 1153 
Q 1172 725 1289 603 
Q 1406 481 1766 481 
L 2356 481 
L 2356 0 
L 1766 0 
Q 1100 0 847 248 
Q 594 497 594 1153 
L 594 3053 
L 172 3053 
L 172 3500 
L 594 3500 
L 594 4494 
L 1172 4494 
z
" transform="scale(0.015625)"/>
       <path id="DejaVuSans-68" d="M 3513 2113 
L 3513 0 
L 2938 0 
L 2938 2094 
Q 2938 2591 2744 2837 
Q 2550 3084 2163 3084 
Q 1697 3084 1428 2787 
Q 1159 2491 1159 1978 
L 1159 0 
L 581 0 
L 581 4863 
L 1159 4863 
L 1159 2956 
Q 1366 3272 1645 3428 
Q 1925 3584 2291 3584 
Q 2894 3584 3203 3211 
Q 3513 2838 3513 2113 
z
" transform="scale(0.015625)"/>
       <path id="DejaVuSans-20" transform="scale(0.015625)"/>
       <path id="DejaVuSans-28" d="M 1984 4856 
Q 1566 4138 1362 3434 
Q 1159 2731 1159 2009 
Q 1159 1288 1364 580 
Q 1569 -128 1984 -844 
L 1484 -844 
Q 1016 -109 783 600 
Q 550 1309 550 2009 
Q 550 2706 781 3412 
Q 1013 4119 1484 4856 
L 1984 4856 
z
" transform="scale(0.015625)"/>
       <path id="DejaVuSans-6d" d="M 3328 2828 
Q 3544 3216 3844 3400 
Q 4144 3584 4550 3584 
Q 5097 3584 5394 3201 
Q 5691 2819 5691 2113 
L 5691 0 
L 5113 0 
L 5113 2094 
Q 5113 2597 4934 2840 
Q 4756 3084 4391 3084 
Q 3944 3084 3684 2787 
Q 3425 2491 3425 1978 
L 3425 0 
L 2847 0 
L 2847 2094 
Q 2847 2600 2669 2842 
Q 2491 3084 2119 3084 
Q 1678 3084 1418 2786 
Q 1159 2488 1159 1978 
L 1159 0 
L 581 0 
L 581 3500 
L 1159 3500 
L 1159 2956 
Q 1356 3278 1631 3431 
Q 1906 3584 2284 3584 
Q 2666 3584 2933 3390 
Q 3200 3197 3328 2828 
z
" transform="scale(0.015625)"/>
       <path id="DejaVuSans-29" d="M 513 4856 
L 1013 4856 
Q 1481 4119 1714 3412 
Q 1947 2706 1947 2009 
Q 1947 1309 1714 600 
Q 1481 -109 1013 -844 
L 513 -844 
Q 928 -128 1133 580 
Q 1338 1288 1338 2009 
Q 1338 2731 1133 3434 
Q 928 4138 513 4856 
z
" transform="scale(0.015625)"/>
      </defs>
      <use xlink:href="#DejaVuSans-57"/>
      <use xlink:href="#DejaVuSans-61" x="92.501953"/>
      <use xlink:href="#DejaVuSans-76" x="153.78125"/>
      <use xlink:href="#DejaVuSans-65" x="212.960938"/>
      <use xlink:href="#DejaVuSans-6c" x="274.484375"/>
      <use xlink:href="#DejaVuSans-65" x="302.267578"/>
      <use xlink:href="#DejaVuSans-6e" x="363.791016"/>
      <use xlink:href="#DejaVuSans-67" x="427.169922"/>
      <use xlink:href="#DejaVuSans-74" x="490.646484"/>
      <use xlink:href="#DejaVuSans-68" x="529.855469"/>
      <use xlink:href="#DejaVuSans-20" x="593.234375"/>
      <use xlink:href="#DejaVuSans-28" x="625.021484"/>
      <use xlink:href="#DejaVuSans-6e" x="664.035156"/>
      <use xlink:href="#DejaVuSans-6d" x="727.414062"/>
      <use xlink:href="#DejaVuSans-29" x="824.826172"/>
     </g>
    </g>
   </g>
   <g id="matplotlib.axis_2">
    <g id="ytick_1">
     <g id="line2d_9">
      <defs>
       <path id="mc3bc37a3ae" d="M 0 0 
L -3.5 0 
" style="stroke: #000000; stroke-width: 0.8"/>
      </defs>
      <g>
       <use xlink:href="#mc3bc37a3ae" x="57.6" y="307.584" style="stroke: #000000; stroke-width: 0.8"/>
      </g>
     </g>
     <g id="text_10">
      <!-- 0.0 -->
      <g transform="translate(34.696875 311.383219) scale(0.1 -0.1)">
       <defs>
        <path id="DejaVuSans-2e" d="M 684 794 
L 1344 794 
L 1344 0 
L 684 0 
L 684 794 
z
" transform="scale(0.015625)"/>
       </defs>
       <use xlink:href="#DejaVuSans-30"/>
       <use xlink:href="#DejaVuSans-2e" x="63.623047"/>
       <use xlink:href="#DejaVuSans-30" x="95.410156"/>
      </g>
     </g>
    </g>
    <g id="ytick_2">
     <g id="line2d_10">
      <g>
       <use xlink:href="#mc3bc37a3ae" x="57.6" y="263.232" style="stroke: #000000; stroke-width: 0.8"/>
      </g>
     </g>
     <g id="text_11">
      <!-- 0.2 -->
      <g transform="translate(34.696875 267.031219) scale(0.1 -0.1)">
       <use xlink:href="#DejaVuSans-30"/>
       <use xlink:href="#DejaVuSans-2e" x="63.623047"/>
       <use xlink:href="#DejaVuSans-32" x="95.410156"/>
      </g>
     </g>
    </g>
    <g id="ytick_3">
     <g id="line2d_11">
      <g>
       <use xlink:href="#mc3bc37a3ae" x="57.6" y="218.88" style="stroke: #000000; stroke-width: 0.8"/>
      </g>
     </g>
     <g id="text_12">
      <!-- 0.4 -->
      <g transform="translate(34.696875 222.679219) scale(0.1 -0.1)">
       <use xlink:href="#DejaVuSans-30"/>
       <use xlink:href="#DejaVuSans-2e" x="63.623047"/>
       <use xlink:href="#DejaVuSans-34" x="95.410156"/>
      </g>
     </g>
    </g>
    <g id="ytick_4">
     <g id="line2d_12">
      <g>
       <use xlink:href="#mc3bc37a3ae" x="57.6" y="174.528" style="stroke: #000000; stroke-width: 0.8"/>
      </g>
     </g>
     <g id="text_13">
      <!-- 0.6 -->
      <g transform="translate(34.696875 178.327219) scale(0.1 -0.1)">
       <use xlink:href="#DejaVuSans-30"/>
       <use xlink:href="#DejaVuSans-2e" x="63.623047"/>
       <use xlink:href="#DejaVuSans-36" x="95.410156"/>
      </g>
     </g>
    </g>
    <g id="ytick_5">
     <g id="line2d_13">
      <g>
       <use xlink:href="#mc3bc37a3ae" x="57.6" y="130.176" style="stroke: #000000; stroke-width: 0.8"/>
      </g>
     </g>
     <g id="text_14">
      <!-- 0.8 -->
      <g transform="translate(34.696875 133.975219) scale(0.1 -0.1)">
       <use xlink:href="#DejaVuSans-30"/>
       <use xlink:href="#DejaVuSans-2e" x="63.623047"/>
       <use xlink:href="#DejaVuSans-38" x="95.410156"/>
      </g>
     </g>
    </g>
    <g id="ytick_6">
     <g id="line2d_14">
      <g>
       <use xlink:href="#mc3bc37a3ae" x="57.6" y="85.824" style="stroke: #000000; stroke-width: 0.8"/>
      </g>
     </g>
     <g id="text_15">
      <!-- 1.0 -->
      <g transform="translate(34.696875 89.623219) scale(0.1 -0.1)">
       <defs>
        <path id="DejaVuSans-31" d="M 794 531 
L 1825 531 
L 1825 4091 
L 703 3866 
L 703 4441 
L 1819 4666 
L 2450 4666 
L 2450 531 
L 3481 531 
L 3481 0 
L 794 0 
L 794 531 
z
" transform="scale(0.015625)"/>
       </defs>
       <use xlink:href="#DejaVuSans-31"/>
       <use xlink:href="#DejaVuSans-2e" x="63.623047"/>
       <use xlink:href="#DejaVuSans-30" x="95.410156"/>
      </g>
     </g>
    </g>
    <g id="ytick_7">
     <g id="line2d_15">
      <g>
       <use xlink:href="#mc3bc37a3ae" x="57.6" y="41.472" style="stroke: #000000; stroke-width: 0.8"/>
      </g>
     </g>
     <g id="text_16">
      <!-- 1.2 -->
      <g transform="translate(34.696875 45.271219) scale(0.1 -0.1)">
       <use xlink:href="#DejaVuSans-31"/>
       <use xlink:href="#DejaVuSans-2e" x="63.623047"/>
       <use xlink:href="#DejaVuSans-32" x="95.410156"/>
      </g>
     </g>
    </g>
    <g id="text_17">
     <!-- Absorbance -->
     <g transform="translate(28.617187 204.074875) rotate(-90) scale(0.1 -0.1)">
      <defs>
       <path id="DejaVuSans-41" d="M 2188 4044 
L 1331 1722 
L 3047 1722 
L 2188 4044 
z
M 1831 4666 
L 2547 4666 
L 4325 0 
L 3669 0 
L 3244 1197 
L 1141 1197 
L 716 0 
L 50 0 
L 1831 4666 
z
" transform="scale(0.015625)"/>
       <path id="DejaVuSans-62" d="M 3116 1747 
Q 3116 2381 2855 2742 
Q 2594 3103 2138 3103 
Q 1681 3103 1420 2742 
Q 1159 2381 1159 1747 
Q 1159 1113 1420 752 
Q 1681 391 2138 391 
Q 2594 391 2855 752 
Q 3116 1113 3116 1747 
z
M 1159 2969 
Q 1341 3281 1617 3432 
Q 1894 3584 2278 3584 
Q 2916 3584 3314 3078 
Q 3713 2572 3713 1747 
Q 3713 922 3314 415 
Q 2916 -91 2278 -91 
Q 1894 -91 1617 61 
Q 1341 213 1159 525 
L 1159 0 
L 581 0 
L 581 4863 
L 1159 4863 
L 1159 2969 
z
" transform="scale(0.015625)"/>
       <path id="DejaVuSans-73" d="M 2834 3397 
L 2834 2853 
Q 2591 2978 2328 3040 
Q 2066 3103 1784 3103 
Q 1356 3103 1142 2972 
Q 928 2841 928 2578 
Q 928 2378 1081 2264 
Q 1234 2150 1697 2047 
L 1894 2003 
Q 2506 1872 2764 1633 
Q 3022 1394 3022 966 
Q 3022 478 2636 193 
Q 2250 -91 1575 -91 
Q 1294 -91 989 -36 
Q 684 19 347 128 
L 347 722 
Q 666 556 975 473 
Q 1284 391 1588 391 
Q 1994 391 2212 530 
Q 2431 669 2431 922 
Q 2431 1156 2273 1281 
Q 2116 1406 1581 1522 
L 1381 1569 
Q 847 1681 609 1914 
Q 372 2147 372 2553 
Q 372 3047 722 3315 
Q 1072 3584 1716 3584 
Q 2034 3584 2315 3537 
Q 2597 3491 2834 3397 
z
" transform="scale(0.015625)"/>
       <path id="DejaVuSans-6f" d="M 1959 3097 
Q 1497 3097 1228 2736 
Q 959 2375 959 1747 
Q 959 1119 1226 758 
Q 1494 397 1959 397 
Q 2419 397 2687 759 
Q 2956 1122 2956 1747 
Q 2956 2369 2687 2733 
Q 2419 3097 1959 3097 
z
M 1959 3584 
Q 2709 3584 3137 3096 
Q 3566 2609 3566 1747 
Q 3566 888 3137 398 
Q 2709 -91 1959 -91 
Q 1206 -91 779 398 
Q 353 888 353 1747 
Q 353 2609 779 3096 
Q 1206 3584 1959 3584 
z
" transform="scale(0.015625)"/>
       <path id="DejaVuSans-72" d="M 2631 2963 
Q 2534 3019 2420 3045 
Q 2306 3072 2169 3072 
Q 1681 3072 1420 2755 
Q 1159 2438 1159 1844 
L 1159 0 
L 581 0 
L 581 3500 
L 1159 3500 
L 1159 2956 
Q 1341 3275 1631 3429 
Q 1922 3584 2338 3584 
Q 2397 3584 2469 3576 
Q 2541 3569 2628 3553 
L 2631 2963 
z
" transform="scale(0.015625)"/>
       <path id="DejaVuSans-63" d="M 3122 3366 
L 3122 2828 
Q 2878 2963 2633 3030 
Q 2388 3097 2138 3097 
Q 1578 3097 1268 2742 
Q 959 2388 959 1747 
Q 959 1106 1268 751 
Q 1578 397 2138 397 
Q 2388 397 2633 464 
Q 2878 531 3122 666 
L 3122 134 
Q 2881 22 2623 -34 
Q 2366 -91 2075 -91 
Q 1284 -91 818 406 
Q 353 903 353 1747 
Q 353 2603 823 3093 
Q 1294 3584 2113 3584 
Q 2378 3584 2631 3529 
Q 2884 3475 3122 3366 
z
" transform="scale(0.015625)"/>
      </defs>
      <use xlink:href="#DejaVuSans-41"/>
      <use xlink:href="#DejaVuSans-62" x="68.408203"/>
      <use xlink:href="#DejaVuSans-73" x="131.884766"/>
      <use xlink:href="#DejaVuSans-6f" x="183.984375"/>
      <use xlink:href="#DejaVuSans-72" x="245.166016"/>
      <use xlink:href="#DejaVuSans-62" x="286.279297"/>
      <use xlink:href="#DejaVuSans-61" x="349.755859"/>
      <use xlink:href="#DejaVuSans-6e" x="411.035156"/>
      <use xlink:href="#DejaVuSans-63" x="474.414062"/>
      <use xlink:href="#DejaVuSans-65" x="529.394531"/>
     </g>
    </g>
   </g>
   <g id="line2d_16">
    <path d="M 363.702857 307.865079 
L 363.192686 307.670052 
L 359.621486 307.756768 
L 353.499429 307.880844 
L 340.234971 307.648264 
L 335.133257 307.383041 
L 331.562057 307.128717 
L 330.541714 306.959574 
L 328.501029 306.469354 
L 326.460343 306.516579 
L 325.44 306.743053 
L 323.399314 306.933426 
L 321.8688 307.170205 
L 321.358629 307.050643 
L 315.236571 307.269556 
L 309.114514 307.227759 
L 297.890743 306.668488 
L 295.339886 306.3686 
L 293.809371 306.289848 
L 285.646629 305.451552 
L 284.626286 305.311561 
L 283.605943 305.13476 
L 276.463543 303.927889 
L 275.4432 303.701767 
L 260.138057 300.846247 
L 258.097371 300.432311 
L 256.566857 300.176899 
L 252.995657 299.504106 
L 250.4448 299.041517 
L 246.363429 298.309974 
L 245.343086 298.114214 
L 244.322743 297.772092 
L 241.771886 297.128504 
L 238.710857 296.065485 
L 235.649829 294.438603 
L 234.119314 293.31276 
L 232.078629 291.401127 
L 231.058286 290.287117 
L 228.507429 286.654988 
L 226.976914 283.872819 
L 225.956571 281.751765 
L 224.426057 278.217251 
L 222.385371 272.685981 
L 220.344686 266.372241 
L 217.793829 257.442868 
L 214.222629 243.734375 
L 212.181943 235.542175 
L 199.427657 183.942194 
L 196.8768 174.606558 
L 194.836114 167.914652 
L 193.3056 163.575974 
L 192.285257 160.945646 
L 190.754743 157.593766 
L 189.224229 155.041199 
L 187.693714 153.051557 
L 186.673371 152.291315 
L 186.1632 151.948416 
L 185.142857 151.654145 
L 184.122514 151.642143 
L 183.102171 151.988228 
L 182.081829 152.718703 
L 181.061486 153.698006 
L 179.530971 155.893782 
L 178.000457 158.648781 
L 176.469943 162.266646 
L 174.429257 168.182633 
L 172.388571 175.051169 
L 170.347886 182.595922 
L 166.266514 198.752305 
L 157.5936 233.49721 
L 156.063086 239.035032 
L 153.002057 248.9671 
L 150.961371 254.67893 
L 147.900343 261.477616 
L 145.859657 264.656042 
L 144.329143 266.342058 
L 143.818971 266.824661 
L 143.3088 266.085385 
L 142.798629 267.535884 
L 141.778286 268.017033 
L 141.268114 268.090208 
L 140.757943 268.27928 
L 140.247771 268.250928 
L 139.7376 267.95941 
L 139.227429 268.281626 
L 137.696914 267.623294 
L 137.186743 266.776204 
L 136.676571 266.928808 
L 135.656229 265.935094 
L 135.146057 264.792183 
L 134.635886 265.008144 
L 133.615543 263.543096 
L 133.105371 259.601024 
L 132.085029 257.979261 
L 129.534171 252.460612 
L 128.513829 249.510899 
L 126.983314 243.580591 
L 125.962971 238.588015 
L 124.942629 232.68401 
L 123.412114 222.358034 
L 119.330743 190.882782 
L 118.3104 185.449884 
L 117.290057 181.348705 
L 116.269714 178.160581 
L 115.249371 175.29233 
L 114.229029 172.612594 
L 113.208686 170.194441 
L 112.188343 168.824376 
L 111.678171 168.555682 
L 111.168 168.670269 
L 110.657829 168.922123 
L 108.617143 170.689439 
L 108.106971 171.055298 
L 107.5968 171.009709 
L 107.086629 170.613264 
L 106.576457 169.890878 
L 106.066286 168.621878 
L 105.556114 166.727101 
L 105.045943 163.928324 
L 104.535771 159.940212 
L 104.0256 154.55047 
L 103.515429 147.435565 
L 103.005257 138.141961 
L 101.984914 113.263472 
L 100.964571 81.328368 
L 99.434057 26.57422 
L 98.758087 -1 
L 98.758087 -1 
" clip-path="url(#p00aad7dc76)" style="fill: none; stroke: #e01f1f; stroke-width: 0.5; stroke-linecap: square"/>
   </g>
   <g id="line2d_17">
    <path d="M 363.702857 308.03852 
L 363.192686 307.843216 
L 362.172343 307.783649 
L 359.621486 307.890772 
L 357.070629 307.999579 
L 355.029943 308.00604 
L 350.948571 307.917137 
L 348.397714 307.897407 
L 347.887543 307.820069 
L 346.8672 307.856029 
L 340.234971 307.658631 
L 339.214629 307.68264 
L 335.133257 307.410952 
L 334.112914 307.365499 
L 330.031543 306.844599 
L 328.501029 306.528029 
L 326.460343 306.62619 
L 322.889143 307.046037 
L 317.277257 307.234206 
L 311.1552 307.031602 
L 310.134857 307.024322 
L 306.563657 306.789724 
L 297.380571 305.614446 
L 295.850057 305.247818 
L 292.789029 304.682122 
L 284.626286 302.368234 
L 279.524571 300.311633 
L 276.463543 298.885997 
L 269.831314 295.615912 
L 267.790629 294.658581 
L 265.749943 293.698743 
L 264.219429 292.921655 
L 262.178743 291.958466 
L 251.465143 287.174912 
L 246.363429 285.207975 
L 238.710857 282.359841 
L 236.670171 281.461222 
L 235.139657 280.662755 
L 234.119314 280.060137 
L 231.568457 278.12001 
L 230.037943 276.667611 
L 228.507429 274.917217 
L 226.976914 272.856793 
L 224.936229 269.520704 
L 222.895543 265.476601 
L 220.854857 260.876554 
L 218.814171 255.703435 
L 215.753143 247.149645 
L 211.1616 233.205771 
L 202.998857 207.392001 
L 198.407314 193.165428 
L 195.856457 186.03589 
L 193.815771 180.955224 
L 192.285257 177.673702 
L 190.754743 174.868501 
L 189.224229 172.580927 
L 187.693714 170.850278 
L 186.673371 170.022294 
L 185.142857 169.418076 
L 184.122514 169.332344 
L 183.102171 169.58219 
L 182.081829 170.128605 
L 181.061486 170.874718 
L 179.530971 172.552218 
L 178.000457 174.71397 
L 176.980114 176.588193 
L 175.4496 179.770078 
L 173.919086 183.495326 
L 171.8784 189.118853 
L 168.817371 198.616488 
L 161.674971 221.714014 
L 158.103771 233.086492 
L 156.063086 238.998673 
L 153.002057 246.799324 
L 150.961371 251.12039 
L 150.4512 251.902627 
L 149.430857 253.841511 
L 147.900343 255.975575 
L 145.859657 257.749424 
L 145.349486 257.979641 
L 144.839314 258.00338 
L 144.329143 258.261391 
L 143.818971 258.283081 
L 143.3088 256.988524 
L 142.798629 258.052852 
L 141.778286 257.46589 
L 140.757943 256.596137 
L 140.247771 256.09489 
L 139.7376 255.171228 
L 139.227429 254.804645 
L 137.696914 252.207055 
L 137.186743 250.660994 
L 136.676571 250.409483 
L 135.656229 248.313662 
L 135.146057 246.695762 
L 134.635886 246.425435 
L 134.125714 245.539345 
L 133.615543 244.229733 
L 133.105371 240.285041 
L 130.554514 234.794235 
L 128.513829 229.737037 
L 126.983314 224.875213 
L 125.962971 220.964947 
L 124.432457 213.866504 
L 122.391771 202.733112 
L 120.351086 191.182581 
L 119.330743 186.481242 
L 118.820571 184.427084 
L 117.800229 181.476896 
L 116.269714 178.785395 
L 115.759543 178.101169 
L 114.229029 175.670525 
L 113.208686 174.105536 
L 112.698514 173.644111 
L 112.188343 173.019961 
L 110.657829 172.410297 
L 110.147657 172.459772 
L 109.127314 172.00374 
L 108.617143 171.460378 
L 108.106971 170.699897 
L 107.5968 169.56416 
L 107.086629 168.012138 
L 106.576457 165.923877 
L 106.066286 163.273115 
L 105.556114 159.922609 
L 104.535771 150.464759 
L 104.0256 143.799832 
L 103.005257 125.845103 
L 101.984914 100.731097 
L 100.4544 52.423952 
L 99.009917 -1 
L 99.009917 -1 
" clip-path="url(#p00aad7dc76)" style="fill: none; stroke: #d31f2c; stroke-width: 0.5; stroke-linecap: square"/>
   </g>
   <g id="line2d_18">
    <path d="M 363.702857 307.810468 
L 363.192686 307.576127 
L 354.0096 307.830414 
L 351.968914 307.816994 
L 338.194286 307.584 
L 337.173943 307.504654 
L 331.051886 307.052055 
L 327.990857 306.473926 
L 324.929829 306.804689 
L 321.8688 307.201109 
L 321.358629 307.043032 
L 319.317943 307.167226 
L 316.256914 307.14632 
L 312.175543 306.973503 
L 305.543314 306.383636 
L 302.992457 306.02086 
L 299.421257 305.353024 
L 296.8704 304.675106 
L 295.850057 304.357494 
L 293.809371 303.792465 
L 292.278857 303.293054 
L 288.197486 301.652006 
L 283.095771 298.927521 
L 278.504229 295.972569 
L 266.770286 286.960904 
L 256.566857 279.4413 
L 253.505829 277.401923 
L 248.914286 274.590182 
L 242.792229 271.390443 
L 238.710857 269.753753 
L 233.098971 267.339631 
L 230.037943 265.465957 
L 229.0176 264.705827 
L 226.976914 262.882203 
L 225.4464 261.201061 
L 223.915886 259.308449 
L 221.8752 256.363793 
L 219.834514 253.028213 
L 217.283657 248.26886 
L 214.7328 243.137417 
L 210.141257 233.025518 
L 205.549714 222.350008 
L 198.917486 206.427502 
L 194.836114 197.528375 
L 192.795429 193.65892 
L 190.754743 190.358536 
L 189.224229 188.382918 
L 187.693714 186.674369 
L 186.1632 185.65187 
L 185.142857 185.25902 
L 184.122514 185.104199 
L 183.102171 185.16779 
L 181.061486 186.028198 
L 178.510629 188.289441 
L 178.000457 188.774856 
L 175.4496 192.642765 
L 173.919086 195.476702 
L 172.388571 198.704063 
L 170.347886 203.562285 
L 164.736 217.868688 
L 159.634286 230.596916 
L 157.083429 236.639531 
L 155.042743 240.949804 
L 153.002057 244.664279 
L 150.961371 247.819523 
L 148.410514 250.540374 
L 147.390171 251.165754 
L 146.369829 251.440951 
L 145.349486 251.36046 
L 144.839314 251.16654 
L 144.329143 250.611586 
L 143.818971 250.509431 
L 143.3088 248.686957 
L 142.798629 249.402119 
L 141.778286 247.839734 
L 140.247771 244.801382 
L 139.7376 243.26647 
L 139.227429 242.323087 
L 137.696914 237.970497 
L 137.186743 235.848081 
L 136.676571 234.985294 
L 135.146057 229.59318 
L 134.635886 228.920731 
L 133.615543 226.43927 
L 133.105371 220.422827 
L 130.554514 213.951483 
L 127.493486 206.291001 
L 126.473143 203.35224 
L 122.901943 191.012189 
L 120.351086 181.849734 
L 119.330743 179.21593 
L 118.820571 178.156791 
L 118.3104 177.522912 
L 117.290057 176.870435 
L 116.779886 176.59841 
L 116.269714 176.635143 
L 114.229029 175.949912 
L 113.208686 175.24196 
L 112.698514 175.029086 
L 110.657829 173.384947 
L 110.147657 172.531135 
L 109.637486 171.900112 
L 109.127314 170.844581 
L 108.617143 169.51458 
L 107.5968 165.674072 
L 106.576457 159.395954 
L 106.066286 155.437476 
L 105.045943 144.826495 
L 104.0256 130.123508 
L 103.005257 110.081431 
L 101.984914 84.146697 
L 100.4544 36.2282 
L 99.415288 -1 
L 99.415288 -1 
" clip-path="url(#p00aad7dc76)" style="fill: none; stroke: #c71f38; stroke-width: 0.5; stroke-linecap: square"/>
   </g>
   <g id="line2d_19">
    <path d="M 363.702857 307.828178 
L 363.192686 307.64956 
L 359.111314 307.725086 
L 358.090971 307.819336 
L 356.050286 307.872855 
L 355.029943 307.881361 
L 351.458743 307.87847 
L 338.194286 307.584 
L 331.051886 307.075136 
L 329.0112 306.527774 
L 327.990857 306.455984 
L 326.970514 306.494598 
L 325.950171 306.586751 
L 324.419657 306.786522 
L 322.889143 306.904788 
L 321.358629 306.971957 
L 312.175543 306.910959 
L 311.1552 306.784339 
L 310.645029 306.835837 
L 308.094171 306.573713 
L 306.053486 306.363736 
L 304.0128 306.087525 
L 301.972114 305.707429 
L 300.4416 305.465771 
L 298.911086 305.076506 
L 296.8704 304.510349 
L 295.850057 304.185833 
L 292.789029 303.251071 
L 288.707657 301.6222 
L 283.605943 298.882102 
L 282.075429 297.886505 
L 280.544914 296.906421 
L 275.953371 293.505074 
L 270.851657 289.372894 
L 269.321143 288.144278 
L 267.280457 286.498909 
L 262.178743 282.527881 
L 258.607543 279.861539 
L 255.546514 277.61355 
L 247.893943 272.642906 
L 245.853257 271.596301 
L 243.812571 270.471924 
L 241.261714 269.354111 
L 239.7312 268.746793 
L 233.609143 266.307009 
L 231.568457 265.272587 
L 230.037943 264.358696 
L 227.487086 262.414967 
L 225.956571 260.98911 
L 223.405714 258.03491 
L 221.8752 255.943081 
L 219.834514 252.777738 
L 217.283657 248.272454 
L 213.202286 240.102474 
L 209.120914 231.053627 
L 205.039543 221.456619 
L 200.958171 211.637994 
L 196.8768 202.134847 
L 194.325943 196.799524 
L 192.795429 193.895466 
L 191.264914 191.337004 
L 189.7344 189.102408 
L 187.693714 186.658149 
L 186.1632 185.667135 
L 185.653029 185.419934 
L 183.612343 185.082083 
L 182.081829 185.523284 
L 181.061486 186.039035 
L 179.530971 187.222872 
L 178.000457 188.786618 
L 176.980114 190.114227 
L 175.4496 192.524252 
L 173.919086 195.373732 
L 172.388571 198.586508 
L 170.858057 202.164528 
L 166.776686 212.491892 
L 163.205486 221.470505 
L 156.063086 238.439169 
L 153.002057 244.142817 
L 151.471543 246.527549 
L 149.941029 248.491039 
L 148.410514 249.919705 
L 147.900343 250.244628 
L 146.369829 250.647424 
L 145.349486 250.66012 
L 144.839314 250.429996 
L 144.329143 249.768313 
L 143.818971 249.609698 
L 143.3088 247.780496 
L 142.798629 248.483042 
L 141.778286 246.801616 
L 140.757943 244.740188 
L 140.247771 243.575946 
L 139.7376 242.010983 
L 139.227429 241.114035 
L 137.696914 236.533779 
L 137.186743 234.411555 
L 136.676571 233.3718 
L 135.146057 228.154572 
L 134.635886 227.31719 
L 134.125714 226.196396 
L 133.615543 224.59059 
L 133.105371 218.24395 
L 129.024 208.12648 
L 127.493486 204.258518 
L 125.4528 198.314609 
L 120.351086 180.696838 
L 119.330743 178.162777 
L 118.820571 177.157831 
L 118.3104 176.494014 
L 117.800229 176.069599 
L 116.779886 175.584395 
L 116.269714 175.652005 
L 115.249371 175.471937 
L 114.229029 174.977719 
L 113.718857 174.838336 
L 113.208686 174.32211 
L 112.698514 174.149418 
L 110.147657 171.728462 
L 109.637486 171.039147 
L 109.127314 169.986286 
L 108.106971 166.933739 
L 107.5968 164.645174 
L 106.576457 158.477148 
L 106.066286 154.45032 
L 105.045943 143.727304 
L 104.0256 129.243563 
L 103.005257 109.277529 
L 101.984914 83.450204 
L 100.964571 52.252858 
L 99.432777 -1 
L 99.432777 -1 
" clip-path="url(#p00aad7dc76)" style="fill: none; stroke: #ba1f45; stroke-width: 0.5; stroke-linecap: square"/>
   </g>
   <g id="line2d_20">
    <path d="M 363.702857 307.960625 
L 363.192686 307.749855 
L 362.172343 307.753433 
L 351.458743 307.93636 
L 348.907886 307.863566 
L 344.826514 307.82557 
L 342.785829 307.731091 
L 341.765486 307.758556 
L 338.704457 307.617536 
L 330.541714 306.987638 
L 327.990857 306.485096 
L 326.970514 306.503395 
L 324.929829 306.819307 
L 321.8688 307.176509 
L 321.358629 307.036716 
L 318.807771 307.122894 
L 313.195886 306.952832 
L 306.053486 306.30362 
L 298.400914 304.832113 
L 296.8704 304.38125 
L 296.360229 304.122921 
L 295.339886 303.884732 
L 293.809371 303.454083 
L 289.217829 301.635689 
L 284.626286 299.204619 
L 281.565257 297.272947 
L 279.524571 295.840271 
L 273.402514 290.951322 
L 271.361829 289.248503 
L 268.810971 287.150866 
L 266.260114 285.061426 
L 262.178743 281.800552 
L 260.138057 280.200811 
L 258.097371 278.604139 
L 255.036343 276.343592 
L 252.485486 274.507586 
L 248.404114 271.890358 
L 245.343086 270.143205 
L 244.322743 269.580184 
L 237.180343 266.615645 
L 234.629486 265.66334 
L 231.058286 263.921359 
L 230.037943 263.34824 
L 228.507429 262.34416 
L 225.4464 259.661773 
L 222.895543 256.748476 
L 220.344686 253.163917 
L 217.283657 248.180481 
L 214.222629 242.475043 
L 210.141257 234.099881 
L 206.059886 225.207409 
L 201.978514 215.840367 
L 197.897143 206.547451 
L 193.815771 198.127579 
L 191.264914 193.757039 
L 188.714057 190.363997 
L 187.183543 188.764787 
L 186.1632 188.073542 
L 184.632686 187.482027 
L 183.612343 187.38847 
L 182.592 187.54542 
L 181.571657 187.890936 
L 180.551314 188.444265 
L 179.0208 189.635372 
L 177.490286 191.204353 
L 176.469943 192.504085 
L 174.939429 194.893939 
L 173.408914 197.673352 
L 171.8784 200.836587 
L 169.837714 205.48742 
L 158.613943 232.344058 
L 156.063086 237.914997 
L 153.002057 243.420805 
L 151.471543 245.67351 
L 149.941029 247.516029 
L 149.430857 248.091723 
L 147.900343 249.196537 
L 146.369829 249.559336 
L 145.349486 249.448299 
L 144.839314 249.098354 
L 144.329143 248.452612 
L 143.818971 248.262518 
L 143.3088 246.4145 
L 142.798629 246.985343 
L 141.778286 245.321153 
L 140.247771 241.855875 
L 139.7376 240.296537 
L 139.227429 239.299006 
L 137.696914 234.636006 
L 137.186743 232.468114 
L 136.676571 231.526139 
L 135.146057 225.940534 
L 134.635886 225.141795 
L 133.615543 222.585144 
L 133.105371 216.765331 
L 129.024 206.666941 
L 127.493486 202.839803 
L 126.473143 200.021596 
L 125.4528 196.962148 
L 120.351086 180.671689 
L 119.840914 179.310322 
L 118.820571 177.444532 
L 118.3104 176.876399 
L 117.800229 176.495815 
L 117.290057 176.45332 
L 116.779886 176.271811 
L 116.269714 176.292788 
L 115.759543 176.144047 
L 114.7392 176.186186 
L 112.698514 175.105528 
L 111.678171 174.173862 
L 110.657829 173.172974 
L 110.147657 172.507253 
L 109.127314 170.50861 
L 108.106971 167.024193 
L 107.086629 161.705974 
L 106.066286 153.806095 
L 105.045943 142.901637 
L 104.0256 127.918219 
L 103.005257 107.957459 
L 101.984914 81.9965 
L 100.4544 34.419501 
L 99.448206 -1 
L 99.448206 -1 
" clip-path="url(#p00aad7dc76)" style="fill: none; stroke: #ad1f52; stroke-width: 0.5; stroke-linecap: square"/>
   </g>
   <g id="line2d_21">
    <path d="M 363.702857 307.788165 
L 363.192686 307.617454 
L 361.662171 307.647124 
L 354.519771 307.829763 
L 347.377371 307.801368 
L 345.846857 307.767414 
L 343.296 307.721279 
L 342.275657 307.688022 
L 339.7248 307.681229 
L 336.663771 307.482865 
L 332.5824 307.231113 
L 330.031543 306.85382 
L 329.0112 306.565449 
L 327.480686 306.490946 
L 326.460343 306.577434 
L 323.399314 306.967282 
L 322.378971 307.029576 
L 321.8688 307.17498 
L 321.358629 307.045833 
L 315.236571 307.075836 
L 305.543314 306.213111 
L 304.0128 305.946718 
L 300.951771 305.378008 
L 296.8704 304.216861 
L 295.339886 303.654394 
L 294.319543 303.365473 
L 292.278857 302.575921 
L 289.728 301.447959 
L 286.666971 299.757853 
L 282.075429 296.655253 
L 281.055086 295.907512 
L 280.034743 295.124299 
L 275.953371 291.619272 
L 258.607543 276.03839 
L 252.995657 271.473279 
L 249.934629 269.242499 
L 244.832914 266.012253 
L 239.221029 263.519765 
L 238.200686 263.15075 
L 232.078629 260.860024 
L 229.0176 259.263986 
L 227.487086 258.284574 
L 224.426057 255.69439 
L 222.385371 253.539015 
L 219.834514 250.298214 
L 217.793829 247.366934 
L 213.202286 239.868239 
L 209.120914 232.389286 
L 205.549714 225.415534 
L 195.856457 205.675097 
L 193.815771 201.966385 
L 191.775086 198.677005 
L 190.244571 196.555079 
L 188.203886 194.167194 
L 187.183543 193.2686 
L 186.1632 192.652023 
L 185.142857 192.170349 
L 184.122514 191.961017 
L 182.592 192.07477 
L 181.571657 192.450291 
L 180.551314 192.979167 
L 178.510629 194.546496 
L 177.490286 195.553107 
L 175.959771 197.487121 
L 173.919086 200.672337 
L 171.8784 204.594809 
L 169.837714 208.970128 
L 166.776686 215.961875 
L 162.695314 224.948743 
L 156.573257 237.88567 
L 154.532571 241.448046 
L 152.491886 244.511129 
L 150.961371 246.349709 
L 148.920686 248.206193 
L 148.410514 248.536588 
L 146.88 248.894728 
L 145.859657 248.733232 
L 145.349486 248.513325 
L 144.839314 248.130818 
L 144.329143 247.378877 
L 143.818971 247.178916 
L 143.3088 245.070723 
L 142.798629 245.555688 
L 141.268114 242.352033 
L 140.247771 239.670678 
L 139.7376 237.871685 
L 139.227429 236.778417 
L 137.696914 231.448824 
L 137.186743 229.123844 
L 136.676571 227.868953 
L 135.656229 224.3322 
L 135.146057 222.081703 
L 134.635886 221.143243 
L 134.125714 219.850213 
L 133.615543 218.15356 
L 133.105371 211.659143 
L 130.044343 203.460097 
L 126.983314 196.076312 
L 124.432457 189.065577 
L 121.8816 181.606186 
L 120.351086 177.87725 
L 119.840914 176.920762 
L 118.820571 175.714229 
L 117.800229 175.38768 
L 116.779886 175.717494 
L 115.759543 176.238836 
L 115.249371 176.273361 
L 114.7392 176.532736 
L 114.229029 176.507622 
L 113.718857 176.336 
L 113.208686 176.288799 
L 112.698514 176.116728 
L 111.678171 175.259149 
L 110.147657 173.430502 
L 109.637486 172.47022 
L 109.127314 171.210049 
L 108.106971 167.291384 
L 107.5968 164.632333 
L 106.576457 157.491666 
L 105.556114 147.420162 
L 104.535771 133.887279 
L 103.515429 115.736846 
L 102.495086 92.371558 
L 101.474743 63.614109 
L 99.944229 13.46046 
L 99.551586 -1 
L 99.551586 -1 
" clip-path="url(#p00aad7dc76)" style="fill: none; stroke: #a01f5f; stroke-width: 0.5; stroke-linecap: square"/>
   </g>
   <g id="line2d_22">
    <path d="M 363.702857 307.861406 
L 363.192686 307.681287 
L 362.172343 307.637045 
L 360.641829 307.716581 
L 349.928229 307.83589 
L 344.826514 307.782762 
L 332.5824 307.176899 
L 330.541714 306.896051 
L 329.521371 306.641206 
L 328.501029 306.42336 
L 326.970514 306.43285 
L 324.929829 306.679886 
L 321.8688 306.997778 
L 320.848457 306.908965 
L 316.767086 306.990217 
L 315.746743 306.931769 
L 313.195886 306.817548 
L 312.175543 306.740736 
L 309.114514 306.542015 
L 300.951771 305.239217 
L 299.931429 304.958246 
L 299.421257 304.866717 
L 298.400914 304.508097 
L 297.380571 304.237004 
L 295.850057 303.624801 
L 292.789029 302.565518 
L 288.197486 300.355265 
L 283.095771 297.025309 
L 276.973714 292.062488 
L 269.321143 284.924263 
L 266.260114 282.095473 
L 262.178743 278.319255 
L 261.1584 277.473754 
L 260.138057 276.536038 
L 258.097371 274.81827 
L 256.056686 273.049744 
L 249.424457 267.950893 
L 246.363429 266.007795 
L 244.832914 265.081704 
L 243.812571 264.499841 
L 238.710857 262.331731 
L 235.649829 261.290882 
L 230.037943 258.996729 
L 227.997257 257.864954 
L 225.956571 256.439672 
L 223.405714 254.166608 
L 221.8752 252.557812 
L 219.834514 250.081222 
L 217.283657 246.549531 
L 214.7328 242.587272 
L 212.181943 238.300706 
L 206.059886 226.834393 
L 198.407314 211.154007 
L 194.836114 204.36142 
L 192.285257 200.015214 
L 190.754743 197.755372 
L 189.224229 195.815231 
L 187.693714 194.085309 
L 186.1632 193.04067 
L 184.632686 192.482516 
L 183.612343 192.38707 
L 182.081829 192.641422 
L 181.061486 193.066154 
L 179.0208 194.437077 
L 176.980114 196.427935 
L 175.4496 198.503553 
L 173.919086 200.938162 
L 172.388571 203.700326 
L 169.327543 210.223101 
L 164.736 220.490099 
L 157.083429 236.489136 
L 155.552914 239.175303 
L 154.0224 241.71132 
L 153.002057 243.224356 
L 150.961371 245.725717 
L 150.4512 246.16366 
L 149.941029 246.751857 
L 148.410514 247.732786 
L 147.390171 248.060353 
L 146.369829 247.975976 
L 145.349486 247.610124 
L 144.839314 247.209753 
L 144.329143 246.429043 
L 143.818971 246.114013 
L 143.3088 244.028509 
L 142.798629 244.42802 
L 142.288457 243.551652 
L 141.268114 241.161435 
L 140.247771 238.487898 
L 139.7376 236.634956 
L 139.227429 235.303151 
L 137.696914 230.046739 
L 137.186743 227.707265 
L 136.676571 226.306158 
L 135.656229 222.776522 
L 135.146057 220.190785 
L 134.635886 219.382192 
L 133.615543 216.646874 
L 133.105371 209.258186 
L 131.064686 203.520912 
L 129.534171 199.725133 
L 128.513829 197.428836 
L 125.962971 191.154088 
L 124.942629 188.233165 
L 123.412114 184.065433 
L 120.861257 177.303156 
L 119.840914 175.453875 
L 118.820571 174.28475 
L 118.3104 174.0286 
L 117.800229 173.944256 
L 116.779886 174.396415 
L 116.269714 174.840022 
L 115.759543 175.072842 
L 115.249371 175.151555 
L 114.7392 175.429713 
L 113.208686 175.186093 
L 112.698514 175.009859 
L 112.188343 174.680349 
L 110.657829 173.141981 
L 110.147657 172.384197 
L 109.127314 169.882916 
L 108.106971 165.881467 
L 107.086629 159.743696 
L 106.066286 150.896753 
L 105.045943 138.997276 
L 104.0256 123.007339 
L 103.005257 102.095126 
L 101.984914 75.828754 
L 100.4544 27.841603 
L 99.633775 -1 
L 99.633775 -1 
" clip-path="url(#p00aad7dc76)" style="fill: none; stroke: #931f6c; stroke-width: 0.5; stroke-linecap: square"/>
   </g>
   <g id="line2d_23">
    <path d="M 363.702857 308.055483 
L 363.192686 307.867068 
L 362.172343 307.834967 
L 361.152 307.856656 
L 353.499429 307.978812 
L 351.458743 307.958723 
L 336.663771 307.523443 
L 333.602743 307.279208 
L 332.5824 307.193717 
L 330.541714 306.982841 
L 329.521371 306.667536 
L 328.501029 306.48475 
L 326.460343 306.491102 
L 325.44 306.705049 
L 321.8688 307.115693 
L 321.358629 306.982386 
L 315.746743 307.007859 
L 313.195886 306.813503 
L 307.584 306.330582 
L 301.461943 305.318487 
L 300.4416 305.085919 
L 298.911086 304.714934 
L 297.380571 304.204588 
L 295.850057 303.651906 
L 294.829714 303.338747 
L 288.707657 300.713329 
L 285.646629 298.930175 
L 282.5856 296.843736 
L 275.953371 291.480632 
L 273.402514 289.12094 
L 268.3008 284.487431 
L 256.566857 274.247428 
L 250.4448 269.564145 
L 247.893943 267.879715 
L 242.282057 264.73902 
L 234.629486 261.937018 
L 232.078629 260.998079 
L 228.507429 259.236209 
L 227.487086 258.665862 
L 224.936229 256.728716 
L 222.895543 254.769184 
L 220.854857 252.453781 
L 218.814171 249.790514 
L 216.773486 246.813658 
L 212.181943 238.958285 
L 207.5904 230.109141 
L 204.529371 223.733977 
L 194.836114 203.361055 
L 193.3056 200.467803 
L 190.754743 196.271317 
L 188.714057 193.569876 
L 187.183543 191.967269 
L 185.653029 191.014058 
L 184.632686 190.571297 
L 183.102171 190.457782 
L 181.571657 190.815565 
L 180.551314 191.330865 
L 179.530971 192.019718 
L 177.490286 193.850149 
L 175.959771 195.744106 
L 174.429257 198.100473 
L 173.408914 199.881277 
L 171.368229 203.906043 
L 167.797029 211.988349 
L 159.124114 231.277236 
L 156.573257 236.512307 
L 155.042743 239.288363 
L 152.491886 243.243622 
L 151.471543 244.535675 
L 150.961371 245.119497 
L 150.4512 245.533311 
L 149.430857 246.588663 
L 148.410514 247.255461 
L 147.900343 247.500488 
L 146.88 247.639092 
L 145.859657 247.474343 
L 144.839314 246.833763 
L 144.329143 246.120583 
L 143.818971 245.786057 
L 143.3088 243.684678 
L 142.798629 244.228126 
L 141.268114 241.019283 
L 140.247771 238.320348 
L 139.7376 236.423212 
L 139.227429 235.31777 
L 137.696914 230.006068 
L 137.186743 227.805435 
L 136.676571 226.460577 
L 135.656229 222.807393 
L 135.146057 220.266571 
L 134.635886 219.741383 
L 133.615543 216.793594 
L 133.105371 210.588458 
L 131.064686 204.892279 
L 130.554514 203.387907 
L 129.534171 200.862213 
L 127.493486 195.767938 
L 125.962971 191.668888 
L 122.901943 182.893784 
L 120.861257 177.420254 
L 119.840914 175.342872 
L 118.820571 174.013915 
L 117.800229 173.635459 
L 117.290057 173.683242 
L 115.249371 174.583595 
L 113.718857 174.567284 
L 113.208686 174.268506 
L 112.698514 174.29325 
L 112.188343 173.6942 
L 111.168 172.787503 
L 110.657829 172.221551 
L 109.637486 170.301409 
L 109.127314 168.890092 
L 108.617143 167.14136 
L 107.5968 162.285451 
L 106.576457 154.956032 
L 105.556114 144.641754 
L 104.535771 130.729688 
L 103.515429 112.657003 
L 102.495086 89.066667 
L 101.474743 60.187639 
L 99.944229 9.850393 
L 99.646001 -1 
L 99.646001 -1 
" clip-path="url(#p00aad7dc76)" style="fill: none; stroke: #861f79; stroke-width: 0.5; stroke-linecap: square"/>
   </g>
   <g id="line2d_24">
    <path d="M 363.702857 307.961935 
L 363.192686 307.720828 
L 362.172343 307.671075 
L 361.152 307.74487 
L 359.111314 307.790784 
L 357.5808 307.88464 
L 355.540114 307.937009 
L 338.704457 307.6468 
L 337.173943 307.546199 
L 331.051886 307.041958 
L 327.990857 306.485341 
L 325.950171 306.644448 
L 321.8688 307.090279 
L 320.848457 307.012147 
L 319.317943 307.050356 
L 315.746743 306.990476 
L 313.195886 306.852048 
L 310.645029 306.619464 
L 309.624686 306.596153 
L 307.073829 306.225765 
L 306.053486 306.098155 
L 304.522971 305.799362 
L 303.502629 305.593945 
L 299.421257 304.705372 
L 291.258514 301.556571 
L 288.707657 300.193277 
L 287.687314 299.573934 
L 283.605943 296.768223 
L 280.544914 294.343831 
L 276.973714 291.096279 
L 270.341486 284.487257 
L 264.7296 278.912316 
L 262.688914 276.981342 
L 259.627886 274.080424 
L 257.077029 271.717019 
L 253.505829 268.627649 
L 248.404114 264.656627 
L 244.832914 262.291778 
L 243.3024 261.405341 
L 238.200686 259.280269 
L 236.670171 258.739134 
L 234.119314 257.877246 
L 232.5888 257.365487 
L 230.037943 256.379235 
L 225.4464 253.783419 
L 222.385371 251.283767 
L 218.814171 247.395225 
L 217.283657 245.478276 
L 215.242971 242.721102 
L 211.1616 236.4351 
L 208.100571 231.371068 
L 193.815771 205.347066 
L 191.775086 202.208846 
L 190.244571 200.172043 
L 189.224229 198.940172 
L 187.183543 196.92919 
L 185.653029 196.003605 
L 184.632686 195.723293 
L 183.612343 195.554262 
L 181.061486 196.182351 
L 179.530971 197.066194 
L 178.000457 198.200372 
L 176.980114 199.271466 
L 175.4496 201.10932 
L 173.919086 203.357028 
L 172.898743 204.985814 
L 169.837714 210.924377 
L 162.185143 226.462293 
L 156.063086 237.812057 
L 153.002057 242.131616 
L 150.961371 244.319275 
L 150.4512 244.607148 
L 149.941029 245.170979 
L 148.920686 245.728101 
L 147.900343 246.045166 
L 146.88 245.98554 
L 145.859657 245.58236 
L 145.349486 245.281785 
L 144.839314 244.726672 
L 144.329143 243.842379 
L 143.818971 243.439127 
L 143.3088 241.171717 
L 142.798629 241.586324 
L 141.778286 239.27359 
L 140.757943 236.469763 
L 140.247771 234.944547 
L 139.7376 232.878975 
L 139.227429 231.49414 
L 137.696914 225.744282 
L 137.186743 223.32069 
L 136.676571 221.885368 
L 135.146057 215.347875 
L 134.635886 214.443828 
L 134.125714 213.272641 
L 133.615543 211.377051 
L 133.105371 204.395613 
L 130.554514 197.04535 
L 129.024 193.340484 
L 121.371429 174.901437 
L 120.351086 173.049659 
L 119.330743 171.942446 
L 118.820571 171.636266 
L 118.3104 171.542366 
L 117.290057 171.948302 
L 114.7392 173.806623 
L 113.208686 173.961299 
L 112.698514 173.914706 
L 111.678171 172.911201 
L 111.168 172.410347 
L 110.657829 171.692469 
L 110.147657 170.780194 
L 109.127314 167.911005 
L 108.617143 165.933114 
L 107.5968 160.588644 
L 106.576457 152.675574 
L 105.556114 141.561651 
L 104.535771 126.954508 
L 103.515429 108.031566 
L 102.495086 83.949827 
L 101.474743 55.09594 
L 99.774572 -1 
L 99.774572 -1 
" clip-path="url(#p00aad7dc76)" style="fill: none; stroke: #791f86; stroke-width: 0.5; stroke-linecap: square"/>
   </g>
   <g id="line2d_25">
    <path d="M 363.702857 308.218516 
L 363.192686 308.020817 
L 361.152 307.994915 
L 352.479086 308.118122 
L 350.948571 308.057015 
L 347.377371 307.998626 
L 346.357029 307.945653 
L 341.765486 307.771057 
L 340.745143 307.706318 
L 339.214629 307.655312 
L 335.133257 307.356014 
L 331.562057 307.022632 
L 327.990857 306.269167 
L 326.460343 306.315791 
L 322.889143 306.607016 
L 322.378971 306.609326 
L 321.8688 306.726032 
L 321.358629 306.563895 
L 320.338286 306.620667 
L 319.317943 306.581027 
L 317.277257 306.597259 
L 308.094171 305.644871 
L 306.053486 305.301903 
L 303.502629 304.682584 
L 301.461943 304.162478 
L 296.8704 302.526548 
L 295.850057 301.981327 
L 294.829714 301.574402 
L 290.748343 299.403667 
L 288.707657 298.118284 
L 283.095771 293.503957 
L 278.504229 288.905637 
L 274.422857 284.301946 
L 268.810971 277.974082 
L 262.688914 271.488753 
L 253.505829 262.943347 
L 248.404114 258.940837 
L 243.3024 255.751989 
L 239.7312 254.222014 
L 237.180343 253.413183 
L 235.139657 252.851513 
L 229.527771 251.13083 
L 226.466743 249.665947 
L 224.426057 248.347379 
L 222.895543 247.149696 
L 220.344686 244.729613 
L 218.814171 243.037613 
L 217.283657 241.184083 
L 213.712457 236.278349 
L 211.1616 232.265889 
L 206.059886 223.596998 
L 196.8768 207.080406 
L 194.325943 202.919026 
L 192.285257 200.000978 
L 190.244571 197.537996 
L 188.714057 196.078776 
L 187.183543 194.896776 
L 186.1632 194.468383 
L 185.142857 194.20766 
L 184.122514 194.171073 
L 182.592 194.548193 
L 181.571657 195.003709 
L 180.551314 195.649141 
L 179.530971 196.480614 
L 178.000457 197.855675 
L 176.469943 199.684778 
L 174.429257 202.695498 
L 172.388571 206.304587 
L 170.347886 210.381742 
L 166.776686 218.074568 
L 162.185143 227.43286 
L 156.573257 238.005747 
L 155.042743 240.334031 
L 153.002057 243.026298 
L 151.981714 244.196759 
L 150.961371 245.185169 
L 148.920686 246.559496 
L 147.900343 246.903308 
L 146.88 246.769179 
L 145.859657 246.446681 
L 144.839314 245.665548 
L 144.329143 244.79682 
L 143.818971 244.503871 
L 143.3088 242.40614 
L 142.798629 242.845338 
L 141.778286 240.70642 
L 140.247771 236.814237 
L 139.7376 235.045896 
L 139.227429 233.861643 
L 137.696914 228.758446 
L 137.186743 226.386443 
L 136.676571 225.198178 
L 135.656229 221.753811 
L 135.146057 219.289884 
L 134.635886 218.363453 
L 133.615543 215.868781 
L 133.105371 208.567251 
L 130.554514 201.622586 
L 129.534171 199.147265 
L 126.983314 193.136809 
L 123.922286 184.876941 
L 120.861257 176.342919 
L 119.840914 174.120325 
L 118.820571 172.595082 
L 118.3104 172.091862 
L 117.290057 171.693302 
L 115.249371 171.785894 
L 113.718857 171.078219 
L 112.188343 169.607817 
L 111.168 168.239987 
L 110.147657 166.036691 
L 109.637486 164.782521 
L 109.127314 163.140498 
L 108.106971 158.546951 
L 107.086629 152.026588 
L 106.066286 142.811433 
L 105.045943 130.41405 
L 104.0256 114.135275 
L 103.005257 93.045545 
L 101.984914 66.387553 
L 100.4544 17.673018 
L 99.913364 -1 
L 99.913364 -1 
" clip-path="url(#p00aad7dc76)" style="fill: none; stroke: #6c1f93; stroke-width: 0.5; stroke-linecap: square"/>
   </g>
   <g id="line2d_26">
    <path d="M 363.702857 307.987017 
L 363.192686 307.761549 
L 362.172343 307.734939 
L 360.131657 307.785418 
L 351.458743 307.920315 
L 347.377371 307.831282 
L 334.112914 307.314333 
L 330.031543 306.746689 
L 328.501029 306.444692 
L 326.970514 306.423624 
L 321.8688 307.039756 
L 321.358629 306.885321 
L 318.807771 306.964712 
L 316.767086 306.892946 
L 314.7264 306.809888 
L 309.114514 306.335347 
L 300.4416 304.662318 
L 298.400914 304.085052 
L 297.380571 303.693353 
L 296.360229 303.172278 
L 293.809371 302.235963 
L 289.217829 299.859176 
L 284.626286 296.621686 
L 282.5856 294.935025 
L 277.483886 290.158426 
L 274.422857 286.943855 
L 269.321143 281.414843 
L 267.790629 279.757579 
L 258.607543 270.269223 
L 256.056686 267.773057 
L 248.914286 261.504274 
L 247.383771 260.39835 
L 244.832914 258.587094 
L 241.771886 256.929325 
L 237.690514 255.315202 
L 229.527771 252.806869 
L 225.4464 250.899469 
L 223.405714 249.614634 
L 219.834514 246.66707 
L 217.793829 244.684896 
L 215.242971 241.82385 
L 210.141257 235.094048 
L 205.549714 228.07989 
L 202.998857 223.924286 
L 198.917486 217.049174 
L 194.325943 209.687787 
L 191.264914 205.368559 
L 190.244571 204.122934 
L 188.714057 202.454601 
L 187.693714 201.449496 
L 186.1632 200.411268 
L 184.632686 199.875678 
L 183.102171 199.774098 
L 181.571657 200.116059 
L 180.041143 200.856983 
L 178.000457 202.176482 
L 175.959771 204.258689 
L 174.939429 205.527213 
L 173.408914 207.670784 
L 171.368229 211.057878 
L 168.817371 215.805545 
L 166.266514 220.737973 
L 161.674971 228.920411 
L 158.103771 234.92595 
L 156.573257 237.40135 
L 155.042743 239.44919 
L 153.512229 241.309653 
L 151.981714 242.870267 
L 150.961371 243.729048 
L 150.4512 243.902045 
L 149.941029 244.324569 
L 148.920686 244.758071 
L 147.900343 244.888029 
L 146.369829 244.393487 
L 145.349486 243.568814 
L 144.839314 242.974821 
L 144.329143 241.973933 
L 143.818971 241.431238 
L 143.3088 238.990501 
L 142.798629 239.28994 
L 141.778286 236.757511 
L 140.757943 233.566162 
L 140.247771 231.806909 
L 139.7376 229.585141 
L 139.227429 228.042985 
L 137.696914 221.868972 
L 137.186743 218.997582 
L 136.676571 217.5173 
L 135.656229 213.354155 
L 135.146057 210.617642 
L 134.635886 209.608724 
L 134.125714 208.193289 
L 133.615543 206.387251 
L 133.105371 199.113466 
L 131.064686 192.6323 
L 129.534171 188.667782 
L 124.432457 176.167682 
L 122.391771 172.234146 
L 121.371429 170.622471 
L 119.840914 169.102647 
L 119.330743 168.830146 
L 118.820571 168.940622 
L 118.3104 169.199641 
L 116.779886 170.845893 
L 115.249371 172.782637 
L 114.7392 173.149831 
L 114.229029 173.657386 
L 113.718857 173.853011 
L 113.208686 173.878363 
L 112.698514 174.03033 
L 111.168 172.77008 
L 110.147657 170.97301 
L 109.637486 169.57232 
L 109.127314 167.790054 
L 108.617143 165.573117 
L 107.5968 159.589653 
L 107.086629 155.830845 
L 106.066286 145.372029 
L 105.045943 131.854056 
L 104.0256 114.452101 
L 103.005257 92.421229 
L 101.984914 65.621804 
L 100.4544 18.013558 
L 99.884221 -1 
L 99.884221 -1 
" clip-path="url(#p00aad7dc76)" style="fill: none; stroke: #5f1fa0; stroke-width: 0.5; stroke-linecap: square"/>
   </g>
   <g id="line2d_27">
    <path d="M 363.702857 307.863089 
L 363.192686 307.649183 
L 360.131657 307.730396 
L 358.090971 307.815487 
L 356.560457 307.915068 
L 340.745143 307.681362 
L 339.7248 307.668893 
L 337.684114 307.565757 
L 334.623086 307.415499 
L 333.602743 307.308326 
L 330.541714 306.983759 
L 328.501029 306.524033 
L 326.460343 306.571574 
L 321.8688 307.113301 
L 320.848457 307.009909 
L 312.175543 306.731726 
L 307.073829 306.132151 
L 302.482286 305.232652 
L 297.890743 303.880046 
L 296.360229 303.129611 
L 294.319543 302.351906 
L 292.789029 301.579619 
L 290.748343 300.487002 
L 288.707657 299.166466 
L 287.687314 298.49326 
L 284.626286 296.129521 
L 279.524571 291.349364 
L 277.483886 289.164581 
L 272.892343 283.925673 
L 266.770286 276.83064 
L 264.7296 274.565134 
L 262.178743 271.677863 
L 260.648229 270.011988 
L 257.077029 266.213609 
L 255.036343 264.134978 
L 251.465143 260.724373 
L 249.424457 258.928347 
L 244.322743 255.159133 
L 242.282057 254.049353 
L 239.221029 252.674755 
L 234.119314 251.141743 
L 233.098971 250.896478 
L 226.976914 249.045929 
L 225.4464 248.376989 
L 223.915886 247.598176 
L 221.365029 246.025666 
L 218.304 243.684857 
L 215.753143 241.404275 
L 210.651429 235.908883 
L 209.120914 234.091888 
L 207.080229 231.512079 
L 200.448 222.152637 
L 197.897143 218.413127 
L 192.795429 211.419879 
L 190.754743 208.970181 
L 189.224229 207.370336 
L 187.183543 205.610581 
L 185.653029 204.827538 
L 184.632686 204.543326 
L 183.612343 204.437721 
L 182.592 204.528555 
L 181.571657 204.749546 
L 180.551314 205.131392 
L 178.000457 206.618633 
L 176.469943 207.946202 
L 174.429257 210.230127 
L 171.8784 213.851528 
L 166.776686 222.642434 
L 165.246171 225.253338 
L 160.144457 233.227812 
L 157.5936 237.000684 
L 156.063086 239.11924 
L 151.981714 243.150813 
L 150.961371 243.817505 
L 150.4512 243.99378 
L 149.941029 244.307282 
L 148.410514 244.597396 
L 147.900343 244.593979 
L 146.88 244.187885 
L 146.369829 243.883271 
L 145.349486 242.920999 
L 144.839314 242.185904 
L 144.329143 241.071521 
L 143.818971 240.506606 
L 143.3088 237.913454 
L 142.798629 238.110388 
L 141.778286 235.260227 
L 140.247771 229.899452 
L 139.7376 227.602798 
L 139.227429 225.929488 
L 137.696914 219.264064 
L 137.186743 216.314524 
L 136.1664 212.343713 
L 135.656229 210.201273 
L 135.146057 207.282821 
L 134.635886 206.113933 
L 134.125714 204.599555 
L 133.615543 202.695553 
L 133.105371 194.522327 
L 129.534171 183.395028 
L 127.493486 177.82079 
L 125.962971 173.659972 
L 124.432457 170.103742 
L 123.412114 168.249598 
L 122.391771 166.671166 
L 120.861257 165.209739 
L 119.330743 165.011193 
L 118.820571 165.359855 
L 117.800229 166.706656 
L 116.269714 169.564068 
L 114.229029 172.494178 
L 112.698514 173.309103 
L 111.678171 172.646673 
L 110.657829 171.234615 
L 110.147657 170.139722 
L 109.637486 168.729118 
L 109.127314 166.788171 
L 108.617143 164.365986 
L 107.5968 157.661775 
L 107.086629 153.478949 
L 106.066286 142.579262 
L 105.045943 127.961465 
L 104.0256 109.624514 
L 103.005257 86.74665 
L 101.984914 59.323577 
L 100.096598 -1 
L 100.096598 -1 
" clip-path="url(#p00aad7dc76)" style="fill: none; stroke: #521fad; stroke-width: 0.5; stroke-linecap: square"/>
   </g>
   <g id="line2d_28">
    <path d="M 363.702857 308.050201 
L 363.192686 307.842218 
L 362.172343 307.830174 
L 355.540114 308.064145 
L 354.519771 307.990366 
L 351.968914 307.985689 
L 348.397714 307.92804 
L 343.806171 307.777759 
L 341.255314 307.716315 
L 334.623086 307.337991 
L 330.541714 306.880822 
L 329.0112 306.458824 
L 327.990857 306.345265 
L 326.460343 306.361485 
L 324.929829 306.586428 
L 322.889143 306.756597 
L 315.746743 306.721803 
L 313.706057 306.57742 
L 309.624686 306.235996 
L 301.972114 304.736498 
L 299.931429 304.174332 
L 297.380571 303.292577 
L 296.360229 302.713456 
L 291.768686 300.563808 
L 288.707657 298.613016 
L 284.626286 295.377327 
L 283.605943 294.450959 
L 281.055086 292.050403 
L 275.953371 286.345646 
L 274.422857 284.556666 
L 272.382171 282.038707 
L 259.117714 266.585469 
L 253.505829 260.662325 
L 248.914286 256.430761 
L 244.322743 253.038209 
L 241.771886 251.644649 
L 240.241371 250.936704 
L 237.690514 249.992594 
L 227.487086 247.313512 
L 225.4464 246.544182 
L 222.895543 245.310639 
L 219.834514 243.358933 
L 218.304 242.112694 
L 216.773486 240.840911 
L 213.712457 237.883711 
L 210.141257 233.832582 
L 206.570057 229.257276 
L 202.998857 224.290872 
L 200.448 220.52069 
L 194.325943 211.875512 
L 190.754743 207.543297 
L 189.224229 206.029329 
L 187.693714 204.621137 
L 185.142857 203.538702 
L 184.122514 203.415365 
L 182.592 203.598572 
L 181.061486 204.126351 
L 179.530971 205.015514 
L 177.490286 206.478917 
L 175.4496 208.619018 
L 173.408914 211.312322 
L 170.347886 216.280789 
L 166.266514 223.588273 
L 163.205486 228.552371 
L 161.1648 231.649608 
L 158.103771 236.178301 
L 156.063086 238.932111 
L 152.491886 242.421822 
L 151.471543 243.129827 
L 149.941029 243.865285 
L 148.920686 244.057209 
L 147.390171 243.800669 
L 146.369829 243.180312 
L 145.349486 242.161931 
L 144.839314 241.46871 
L 144.329143 240.267062 
L 143.818971 239.635238 
L 143.3088 236.95956 
L 142.798629 237.166103 
L 141.778286 234.249826 
L 140.247771 228.695495 
L 139.227429 224.640182 
L 137.696914 217.769643 
L 137.186743 214.723889 
L 136.676571 213.06379 
L 135.656229 208.508113 
L 135.146057 205.540239 
L 134.635886 204.433542 
L 133.615543 200.986796 
L 133.105371 192.31197 
L 129.534171 181.094749 
L 127.493486 175.744846 
L 124.942629 169.283395 
L 122.901943 165.58342 
L 121.8816 164.344755 
L 120.861257 163.411847 
L 119.840914 163.107941 
L 119.330743 163.262101 
L 118.820571 163.557998 
L 118.3104 164.034491 
L 116.779886 166.591261 
L 115.759543 168.33345 
L 114.7392 169.959624 
L 113.718857 170.939271 
L 112.698514 171.331156 
L 112.188343 171.111686 
L 111.168 170.125985 
L 110.657829 169.365902 
L 110.147657 168.275568 
L 109.637486 166.912073 
L 109.127314 165.119273 
L 108.106971 159.762047 
L 107.5968 156.284728 
L 106.576457 146.896432 
L 105.556114 134.375289 
L 104.535771 118.232513 
L 103.515429 98.1626 
L 102.495086 73.101848 
L 100.964571 27.515468 
L 100.10458 -1 
L 100.10458 -1 
" clip-path="url(#p00aad7dc76)" style="fill: none; stroke: #451fba; stroke-width: 0.5; stroke-linecap: square"/>
   </g>
   <g id="line2d_29">
    <path d="M 363.702857 307.862124 
L 363.192686 307.68078 
L 361.662171 307.663598 
L 357.070629 307.873042 
L 354.0096 307.903556 
L 352.479086 307.875445 
L 348.397714 307.862981 
L 342.785829 307.70624 
L 341.255314 307.698841 
L 334.112914 307.309187 
L 330.031543 306.803848 
L 328.501029 306.479378 
L 326.970514 306.449678 
L 323.399314 306.878713 
L 322.378971 306.922195 
L 321.8688 307.063551 
L 321.358629 306.940655 
L 315.236571 306.814975 
L 308.094171 306.049541 
L 302.992457 305.007133 
L 298.911086 303.859211 
L 296.8704 302.895996 
L 295.339886 302.221559 
L 292.789029 300.978699 
L 289.217829 298.783705 
L 286.1568 296.389221 
L 281.055086 291.599134 
L 278.504229 288.818355 
L 274.422857 283.899254 
L 269.831314 278.176659 
L 265.749943 273.183257 
L 263.199086 270.074738 
L 256.566857 262.447406 
L 254.016 259.681003 
L 251.465143 257.081034 
L 249.424457 255.167984 
L 246.363429 252.707017 
L 243.812571 250.862264 
L 241.261714 249.467304 
L 239.221029 248.569397 
L 235.649829 247.466909 
L 234.119314 247.107071 
L 232.078629 246.713091 
L 226.466743 245.375847 
L 224.426057 244.704303 
L 222.385371 243.813614 
L 219.324343 242.170196 
L 217.283657 240.763174 
L 215.242971 239.241302 
L 212.692114 237.078829 
L 211.671771 236.059952 
L 209.120914 233.474327 
L 207.5904 231.763161 
L 205.039543 228.736758 
L 201.978514 224.866787 
L 197.386971 218.851322 
L 192.285257 212.539088 
L 190.244571 210.33533 
L 187.693714 208.082883 
L 186.673371 207.441456 
L 185.653029 206.979781 
L 184.122514 206.678187 
L 183.102171 206.711153 
L 182.081829 206.857614 
L 180.041143 207.666908 
L 178.000457 208.774821 
L 175.959771 210.511604 
L 173.919086 212.734231 
L 172.388571 214.770135 
L 170.347886 217.858478 
L 165.246171 225.968726 
L 163.205486 228.811631 
L 159.124114 234.353623 
L 155.552914 238.520151 
L 154.532571 239.52092 
L 153.002057 240.767093 
L 151.471543 241.697172 
L 150.961371 241.890564 
L 150.4512 241.858596 
L 149.941029 242.17282 
L 148.920686 242.290889 
L 147.900343 242.093135 
L 146.369829 241.087707 
L 145.349486 239.893461 
L 144.839314 239.070169 
L 144.329143 237.820037 
L 143.818971 237.114174 
L 143.3088 234.411273 
L 142.798629 234.391902 
L 141.778286 231.353934 
L 140.247771 225.508967 
L 139.7376 223.083206 
L 139.227429 221.228421 
L 135.146057 201.304532 
L 134.635886 200.24423 
L 133.615543 196.797728 
L 133.105371 188.647515 
L 130.554514 180.573411 
L 128.513829 175.477293 
L 124.942629 168.558435 
L 124.432457 167.719414 
L 121.8816 164.823988 
L 120.861257 164.3225 
L 120.351086 164.206037 
L 119.840914 164.255512 
L 118.820571 165.066458 
L 117.800229 166.600253 
L 116.779886 168.510891 
L 115.759543 170.488279 
L 114.7392 172.142767 
L 114.229029 172.809545 
L 113.208686 173.491749 
L 112.698514 173.69964 
L 111.678171 173.067718 
L 111.168 172.419035 
L 110.657829 171.565514 
L 110.147657 170.401398 
L 109.127314 166.763468 
L 108.106971 161.141659 
L 107.086629 152.942738 
L 106.066286 141.507699 
L 105.045943 126.604117 
L 104.0256 107.858468 
L 103.005257 84.960248 
L 101.984914 57.732061 
L 100.4544 10.551123 
L 100.112667 -1 
L 100.112667 -1 
" clip-path="url(#p00aad7dc76)" style="fill: none; stroke: #381fc7; stroke-width: 0.5; stroke-linecap: square"/>
   </g>
   <g id="line2d_30">
    <path d="M 363.702857 308.02856 
L 363.192686 307.864008 
L 358.601143 307.971879 
L 354.0096 308.029373 
L 343.296 307.834008 
L 341.765486 307.739427 
L 340.234971 307.706942 
L 335.643429 307.467448 
L 332.072229 307.172225 
L 330.031543 306.782327 
L 328.501029 306.428158 
L 326.970514 306.419876 
L 322.889143 306.860155 
L 319.317943 306.860458 
L 317.277257 306.849032 
L 316.256914 306.779727 
L 310.645029 306.235043 
L 308.094171 305.903833 
L 306.053486 305.47156 
L 304.0128 305.0025 
L 300.4416 304.008527 
L 296.8704 302.483302 
L 295.339886 301.731884 
L 292.789029 300.377474 
L 290.748343 299.074737 
L 288.197486 297.137021 
L 286.1568 295.364807 
L 283.095771 292.275714 
L 277.483886 285.62103 
L 273.912686 280.859434 
L 270.341486 276.05163 
L 266.260114 270.699493 
L 260.648229 263.809646 
L 256.566857 259.110855 
L 250.4448 252.795816 
L 246.8736 249.753624 
L 243.3024 247.260109 
L 240.751543 245.981149 
L 238.200686 245.084861 
L 235.139657 244.363196 
L 232.5888 243.919238 
L 229.0176 243.386906 
L 226.466743 242.86119 
L 224.426057 242.297802 
L 221.365029 241.085679 
L 218.304 239.405859 
L 215.753143 237.723435 
L 211.1616 233.807974 
L 207.080229 229.624818 
L 203.509029 225.430142 
L 200.448 221.659451 
L 193.3056 213.10054 
L 190.754743 210.490568 
L 189.224229 209.17822 
L 187.693714 207.9771 
L 185.142857 207.052526 
L 183.102171 207.132713 
L 181.571657 207.641041 
L 180.041143 208.399426 
L 177.490286 210.114538 
L 174.939429 212.685537 
L 173.408914 214.609889 
L 172.388571 216.021239 
L 168.3072 222.501083 
L 165.756343 226.594298 
L 163.205486 230.231382 
L 157.5936 237.534874 
L 156.063086 239.304616 
L 153.512229 241.518361 
L 151.981714 242.481928 
L 150.961371 242.946941 
L 150.4512 242.957192 
L 149.941029 243.217003 
L 148.920686 243.255884 
L 147.900343 243.027042 
L 146.88 242.387472 
L 146.369829 241.973579 
L 145.349486 240.733798 
L 144.839314 239.970687 
L 144.329143 238.724699 
L 143.818971 238.004005 
L 143.3088 235.277173 
L 142.798629 235.386895 
L 141.778286 232.291158 
L 140.247771 226.56241 
L 139.7376 224.125083 
L 138.717257 220.126562 
L 137.186743 212.485622 
L 136.676571 210.621465 
L 135.146057 203.041513 
L 134.635886 201.763703 
L 134.125714 200.103505 
L 133.615543 198.027868 
L 133.105371 190.017369 
L 131.064686 182.866907 
L 130.044343 179.880911 
L 127.493486 173.044058 
L 124.432457 166.216656 
L 123.412114 164.573311 
L 122.391771 163.36395 
L 121.371429 162.460333 
L 120.861257 162.180033 
L 119.840914 162.040478 
L 119.330743 162.203046 
L 118.3104 163.006339 
L 116.779886 165.807693 
L 114.7392 169.057452 
L 114.229029 169.702738 
L 113.208686 170.319645 
L 112.698514 170.379589 
L 111.168 168.848464 
L 110.147657 166.53879 
L 109.637486 164.836189 
L 108.617143 160.097443 
L 108.106971 156.89207 
L 107.086629 148.437435 
L 106.066286 136.782608 
L 105.045943 121.492838 
L 104.0256 102.430553 
L 103.005257 78.966276 
L 101.984914 51.092736 
L 100.350978 -1 
L 100.350978 -1 
" clip-path="url(#p00aad7dc76)" style="fill: none; stroke: #2c1fd3; stroke-width: 0.5; stroke-linecap: square"/>
   </g>
   <g id="line2d_31">
    <path d="M 363.702857 307.985483 
L 363.192686 307.828081 
L 361.152 307.844606 
L 351.458743 307.984316 
L 349.418057 307.920075 
L 346.357029 307.862174 
L 341.255314 307.735538 
L 338.704457 307.582425 
L 337.173943 307.533983 
L 334.623086 307.347653 
L 332.072229 307.100902 
L 330.541714 306.876186 
L 328.501029 306.369803 
L 325.950171 306.444646 
L 324.419657 306.637526 
L 322.378971 306.745334 
L 321.8688 306.848341 
L 321.358629 306.702179 
L 320.338286 306.733742 
L 317.787429 306.755146 
L 315.236571 306.654795 
L 313.195886 306.558796 
L 307.584 305.749242 
L 305.543314 305.336204 
L 300.4416 303.889039 
L 297.380571 302.673391 
L 291.258514 299.241978 
L 287.687314 296.583258 
L 282.075429 291.045879 
L 277.994057 286.232644 
L 273.402514 280.059121 
L 260.648229 262.961955 
L 254.016 254.862218 
L 251.465143 252.021656 
L 249.424457 249.898315 
L 244.832914 245.875856 
L 241.261714 243.657551 
L 238.200686 242.361454 
L 235.649829 241.653945 
L 229.0176 240.814699 
L 228.507429 240.828023 
L 227.487086 240.688243 
L 224.936229 240.443117 
L 221.8752 239.942316 
L 219.834514 239.468262 
L 217.283657 238.70909 
L 215.242971 237.90852 
L 212.692114 236.703375 
L 210.651429 235.429161 
L 208.610743 234.082287 
L 207.080229 232.922427 
L 205.039543 231.22822 
L 200.448 226.980533 
L 191.264914 218.111549 
L 187.693714 215.280243 
L 186.673371 214.737006 
L 184.632686 214.168721 
L 183.102171 214.109988 
L 181.571657 214.401859 
L 179.530971 215.169629 
L 176.980114 216.497502 
L 175.4496 217.629862 
L 173.408914 219.550162 
L 171.8784 221.248619 
L 170.347886 223.186704 
L 165.756343 229.140501 
L 161.1648 233.974693 
L 156.573257 238.163461 
L 155.042743 239.181783 
L 153.002057 240.195545 
L 151.471543 240.637453 
L 150.961371 240.718525 
L 150.4512 240.641498 
L 149.941029 240.749568 
L 148.410514 240.36365 
L 147.390171 239.652744 
L 146.369829 238.540905 
L 145.349486 237.122364 
L 144.839314 236.137357 
L 144.329143 234.633997 
L 143.818971 233.764191 
L 143.3088 230.841258 
L 142.798629 230.674765 
L 141.778286 227.163529 
L 140.247771 220.603499 
L 139.7376 217.856074 
L 139.227429 215.756697 
L 137.696914 207.833647 
L 137.186743 204.442786 
L 136.676571 202.340151 
L 135.146057 194.105258 
L 133.615543 189.024472 
L 133.105371 179.030108 
L 130.554514 170.21424 
L 128.513829 164.881666 
L 125.4528 159.260796 
L 124.432457 158.025938 
L 123.412114 157.312685 
L 122.391771 156.744618 
L 121.371429 156.817714 
L 120.861257 156.956541 
L 120.351086 157.338434 
L 119.330743 158.527307 
L 118.820571 159.285699 
L 117.800229 161.4578 
L 114.7392 168.572507 
L 113.718857 169.99473 
L 112.698514 170.840453 
L 111.678171 170.177309 
L 111.168 169.503975 
L 110.657829 168.610285 
L 110.147657 167.140689 
L 109.637486 165.327044 
L 109.127314 163.021256 
L 108.106971 156.685415 
L 107.086629 147.62039 
L 106.066286 135.101163 
L 105.045943 119.056227 
L 104.0256 98.994217 
L 103.005257 74.717368 
L 101.474743 30.777149 
L 100.479583 -1 
L 100.479583 -1 
" clip-path="url(#p00aad7dc76)" style="fill: none; stroke: #1f1fe0; stroke-width: 0.5; stroke-linecap: square"/>
   </g>
   <g id="patch_3">
    <path d="M 57.6 307.584 
L 57.6 41.472 
" style="fill: none; stroke: #000000; stroke-width: 0.8; stroke-linejoin: miter; stroke-linecap: square"/>
   </g>
   <g id="patch_4">
    <path d="M 414.72 307.584 
L 414.72 41.472 
" style="fill: none; stroke: #000000; stroke-width: 0.8; stroke-linejoin: miter; stroke-linecap: square"/>
   </g>
   <g id="patch_5">
    <path d="M 57.6 307.584 
L 414.72 307.584 
" style="fill: none; stroke: #000000; stroke-width: 0.8; stroke-linejoin: miter; stroke-linecap: square"/>
   </g>
   <g id="patch_6">
    <path d="M 57.6 41.472 
L 414.72 41.472 
" style="fill: none; stroke: #000000; stroke-width: 0.8; stroke-linejoin: miter; stroke-linecap: square"/>
   </g>
   <g id="text_18">
    <!-- IDA Titration of Alizarin:ompPBA complex &amp; Hydrobenzoin in MeCN  -->
    <g transform="translate(33.715313 22.034625) scale(0.12 -0.12)">
     <defs>
      <path id="DejaVuSans-49" d="M 628 4666 
L 1259 4666 
L 1259 0 
L 628 0 
L 628 4666 
z
" transform="scale(0.015625)"/>
      <path id="DejaVuSans-44" d="M 1259 4147 
L 1259 519 
L 2022 519 
Q 2988 519 3436 956 
Q 3884 1394 3884 2338 
Q 3884 3275 3436 3711 
Q 2988 4147 2022 4147 
L 1259 4147 
z
M 628 4666 
L 1925 4666 
Q 3281 4666 3915 4102 
Q 4550 3538 4550 2338 
Q 4550 1131 3912 565 
Q 3275 0 1925 0 
L 628 0 
L 628 4666 
z
" transform="scale(0.015625)"/>
      <path id="DejaVuSans-54" d="M -19 4666 
L 3928 4666 
L 3928 4134 
L 2272 4134 
L 2272 0 
L 1638 0 
L 1638 4134 
L -19 4134 
L -19 4666 
z
" transform="scale(0.015625)"/>
      <path id="DejaVuSans-69" d="M 603 3500 
L 1178 3500 
L 1178 0 
L 603 0 
L 603 3500 
z
M 603 4863 
L 1178 4863 
L 1178 4134 
L 603 4134 
L 603 4863 
z
" transform="scale(0.015625)"/>
      <path id="DejaVuSans-66" d="M 2375 4863 
L 2375 4384 
L 1825 4384 
Q 1516 4384 1395 4259 
Q 1275 4134 1275 3809 
L 1275 3500 
L 2222 3500 
L 2222 3053 
L 1275 3053 
L 1275 0 
L 697 0 
L 697 3053 
L 147 3053 
L 147 3500 
L 697 3500 
L 697 3744 
Q 697 4328 969 4595 
Q 1241 4863 1831 4863 
L 2375 4863 
z
" transform="scale(0.015625)"/>
      <path id="DejaVuSans-7a" d="M 353 3500 
L 3084 3500 
L 3084 2975 
L 922 459 
L 3084 459 
L 3084 0 
L 275 0 
L 275 525 
L 2438 3041 
L 353 3041 
L 353 3500 
z
" transform="scale(0.015625)"/>
      <path id="DejaVuSans-3a" d="M 750 794 
L 1409 794 
L 1409 0 
L 750 0 
L 750 794 
z
M 750 3309 
L 1409 3309 
L 1409 2516 
L 750 2516 
L 750 3309 
z
" transform="scale(0.015625)"/>
      <path id="DejaVuSans-70" d="M 1159 525 
L 1159 -1331 
L 581 -1331 
L 581 3500 
L 1159 3500 
L 1159 2969 
Q 1341 3281 1617 3432 
Q 1894 3584 2278 3584 
Q 2916 3584 3314 3078 
Q 3713 2572 3713 1747 
Q 3713 922 3314 415 
Q 2916 -91 2278 -91 
Q 1894 -91 1617 61 
Q 1341 213 1159 525 
z
M 3116 1747 
Q 3116 2381 2855 2742 
Q 2594 3103 2138 3103 
Q 1681 3103 1420 2742 
Q 1159 2381 1159 1747 
Q 1159 1113 1420 752 
Q 1681 391 2138 391 
Q 2594 391 2855 752 
Q 3116 1113 3116 1747 
z
" transform="scale(0.015625)"/>
      <path id="DejaVuSans-50" d="M 1259 4147 
L 1259 2394 
L 2053 2394 
Q 2494 2394 2734 2622 
Q 2975 2850 2975 3272 
Q 2975 3691 2734 3919 
Q 2494 4147 2053 4147 
L 1259 4147 
z
M 628 4666 
L 2053 4666 
Q 2838 4666 3239 4311 
Q 3641 3956 3641 3272 
Q 3641 2581 3239 2228 
Q 2838 1875 2053 1875 
L 1259 1875 
L 1259 0 
L 628 0 
L 628 4666 
z
" transform="scale(0.015625)"/>
      <path id="DejaVuSans-42" d="M 1259 2228 
L 1259 519 
L 2272 519 
Q 2781 519 3026 730 
Q 3272 941 3272 1375 
Q 3272 1813 3026 2020 
Q 2781 2228 2272 2228 
L 1259 2228 
z
M 1259 4147 
L 1259 2741 
L 2194 2741 
Q 2656 2741 2882 2914 
Q 3109 3088 3109 3444 
Q 3109 3797 2882 3972 
Q 2656 4147 2194 4147 
L 1259 4147 
z
M 628 4666 
L 2241 4666 
Q 2963 4666 3353 4366 
Q 3744 4066 3744 3513 
Q 3744 3084 3544 2831 
Q 3344 2578 2956 2516 
Q 3422 2416 3680 2098 
Q 3938 1781 3938 1306 
Q 3938 681 3513 340 
Q 3088 0 2303 0 
L 628 0 
L 628 4666 
z
" transform="scale(0.015625)"/>
      <path id="DejaVuSans-78" d="M 3513 3500 
L 2247 1797 
L 3578 0 
L 2900 0 
L 1881 1375 
L 863 0 
L 184 0 
L 1544 1831 
L 300 3500 
L 978 3500 
L 1906 2253 
L 2834 3500 
L 3513 3500 
z
" transform="scale(0.015625)"/>
      <path id="DejaVuSans-26" d="M 1556 2509 
Q 1272 2256 1139 2004 
Q 1006 1753 1006 1478 
Q 1006 1022 1337 719 
Q 1669 416 2169 416 
Q 2466 416 2725 514 
Q 2984 613 3213 813 
L 1556 2509 
z
M 1997 2859 
L 3584 1234 
Q 3769 1513 3872 1830 
Q 3975 2147 3994 2503 
L 4575 2503 
Q 4538 2091 4375 1687 
Q 4213 1284 3922 891 
L 4794 0 
L 4006 0 
L 3559 459 
Q 3234 181 2878 45 
Q 2522 -91 2113 -91 
Q 1359 -91 881 339 
Q 403 769 403 1441 
Q 403 1841 612 2192 
Q 822 2544 1241 2853 
Q 1091 3050 1012 3245 
Q 934 3441 934 3628 
Q 934 4134 1281 4442 
Q 1628 4750 2203 4750 
Q 2463 4750 2720 4694 
Q 2978 4638 3244 4525 
L 3244 3956 
Q 2972 4103 2725 4179 
Q 2478 4256 2266 4256 
Q 1938 4256 1733 4082 
Q 1528 3909 1528 3634 
Q 1528 3475 1620 3314 
Q 1713 3153 1997 2859 
z
" transform="scale(0.015625)"/>
      <path id="DejaVuSans-48" d="M 628 4666 
L 1259 4666 
L 1259 2753 
L 3553 2753 
L 3553 4666 
L 4184 4666 
L 4184 0 
L 3553 0 
L 3553 2222 
L 1259 2222 
L 1259 0 
L 628 0 
L 628 4666 
z
" transform="scale(0.015625)"/>
      <path id="DejaVuSans-79" d="M 2059 -325 
Q 1816 -950 1584 -1140 
Q 1353 -1331 966 -1331 
L 506 -1331 
L 506 -850 
L 844 -850 
Q 1081 -850 1212 -737 
Q 1344 -625 1503 -206 
L 1606 56 
L 191 3500 
L 800 3500 
L 1894 763 
L 2988 3500 
L 3597 3500 
L 2059 -325 
z
" transform="scale(0.015625)"/>
      <path id="DejaVuSans-64" d="M 2906 2969 
L 2906 4863 
L 3481 4863 
L 3481 0 
L 2906 0 
L 2906 525 
Q 2725 213 2448 61 
Q 2172 -91 1784 -91 
Q 1150 -91 751 415 
Q 353 922 353 1747 
Q 353 2572 751 3078 
Q 1150 3584 1784 3584 
Q 2172 3584 2448 3432 
Q 2725 3281 2906 2969 
z
M 947 1747 
Q 947 1113 1208 752 
Q 1469 391 1925 391 
Q 2381 391 2643 752 
Q 2906 1113 2906 1747 
Q 2906 2381 2643 2742 
Q 2381 3103 1925 3103 
Q 1469 3103 1208 2742 
Q 947 2381 947 1747 
z
" transform="scale(0.015625)"/>
      <path id="DejaVuSans-4d" d="M 628 4666 
L 1569 4666 
L 2759 1491 
L 3956 4666 
L 4897 4666 
L 4897 0 
L 4281 0 
L 4281 4097 
L 3078 897 
L 2444 897 
L 1241 4097 
L 1241 0 
L 628 0 
L 628 4666 
z
" transform="scale(0.015625)"/>
      <path id="DejaVuSans-43" d="M 4122 4306 
L 4122 3641 
Q 3803 3938 3442 4084 
Q 3081 4231 2675 4231 
Q 1875 4231 1450 3742 
Q 1025 3253 1025 2328 
Q 1025 1406 1450 917 
Q 1875 428 2675 428 
Q 3081 428 3442 575 
Q 3803 722 4122 1019 
L 4122 359 
Q 3791 134 3420 21 
Q 3050 -91 2638 -91 
Q 1578 -91 968 557 
Q 359 1206 359 2328 
Q 359 3453 968 4101 
Q 1578 4750 2638 4750 
Q 3056 4750 3426 4639 
Q 3797 4528 4122 4306 
z
" transform="scale(0.015625)"/>
      <path id="DejaVuSans-4e" d="M 628 4666 
L 1478 4666 
L 3547 763 
L 3547 4666 
L 4159 4666 
L 4159 0 
L 3309 0 
L 1241 3903 
L 1241 0 
L 628 0 
L 628 4666 
z
" transform="scale(0.015625)"/>
     </defs>
     <use xlink:href="#DejaVuSans-49"/>
     <use xlink:href="#DejaVuSans-44" x="29.492188"/>
     <use xlink:href="#DejaVuSans-41" x="104.744141"/>
     <use xlink:href="#DejaVuSans-20" x="173.152344"/>
     <use xlink:href="#DejaVuSans-54" x="204.939453"/>
     <use xlink:href="#DejaVuSans-69" x="262.898438"/>
     <use xlink:href="#DejaVuSans-74" x="290.681641"/>
     <use xlink:href="#DejaVuSans-72" x="329.890625"/>
     <use xlink:href="#DejaVuSans-61" x="371.003906"/>
     <use xlink:href="#DejaVuSans-74" x="432.283203"/>
     <use xlink:href="#DejaVuSans-69" x="471.492188"/>
     <use xlink:href="#DejaVuSans-6f" x="499.275391"/>
     <use xlink:href="#DejaVuSans-6e" x="560.457031"/>
     <use xlink:href="#DejaVuSans-20" x="623.835938"/>
     <use xlink:href="#DejaVuSans-6f" x="655.623047"/>
     <use xlink:href="#DejaVuSans-66" x="716.804688"/>
     <use xlink:href="#DejaVuSans-20" x="752.009766"/>
     <use xlink:href="#DejaVuSans-41" x="783.796875"/>
     <use xlink:href="#DejaVuSans-6c" x="852.205078"/>
     <use xlink:href="#DejaVuSans-69" x="879.988281"/>
     <use xlink:href="#DejaVuSans-7a" x="907.771484"/>
     <use xlink:href="#DejaVuSans-61" x="960.261719"/>
     <use xlink:href="#DejaVuSans-72" x="1021.541016"/>
     <use xlink:href="#DejaVuSans-69" x="1062.654297"/>
     <use xlink:href="#DejaVuSans-6e" x="1090.4375"/>
     <use xlink:href="#DejaVuSans-3a" x="1153.816406"/>
     <use xlink:href="#DejaVuSans-6f" x="1187.507812"/>
     <use xlink:href="#DejaVuSans-6d" x="1248.689453"/>
     <use xlink:href="#DejaVuSans-70" x="1346.101562"/>
     <use xlink:href="#DejaVuSans-50" x="1409.578125"/>
     <use xlink:href="#DejaVuSans-42" x="1469.880859"/>
     <use xlink:href="#DejaVuSans-41" x="1538.484375"/>
     <use xlink:href="#DejaVuSans-20" x="1606.892578"/>
     <use xlink:href="#DejaVuSans-63" x="1638.679688"/>
     <use xlink:href="#DejaVuSans-6f" x="1693.660156"/>
     <use xlink:href="#DejaVuSans-6d" x="1754.841797"/>
     <use xlink:href="#DejaVuSans-70" x="1852.253906"/>
     <use xlink:href="#DejaVuSans-6c" x="1915.730469"/>
     <use xlink:href="#DejaVuSans-65" x="1943.513672"/>
     <use xlink:href="#DejaVuSans-78" x="2003.287109"/>
     <use xlink:href="#DejaVuSans-20" x="2062.466797"/>
     <use xlink:href="#DejaVuSans-26" x="2094.253906"/>
     <use xlink:href="#DejaVuSans-20" x="2172.232422"/>
     <use xlink:href="#DejaVuSans-48" x="2204.019531"/>
     <use xlink:href="#DejaVuSans-79" x="2279.214844"/>
     <use xlink:href="#DejaVuSans-64" x="2338.394531"/>
     <use xlink:href="#DejaVuSans-72" x="2401.871094"/>
     <use xlink:href="#DejaVuSans-6f" x="2440.734375"/>
     <use xlink:href="#DejaVuSans-62" x="2501.916016"/>
     <use xlink:href="#DejaVuSans-65" x="2565.392578"/>
     <use xlink:href="#DejaVuSans-6e" x="2626.916016"/>
     <use xlink:href="#DejaVuSans-7a" x="2690.294922"/>
     <use xlink:href="#DejaVuSans-6f" x="2742.785156"/>
     <use xlink:href="#DejaVuSans-69" x="2803.966797"/>
     <use xlink:href="#DejaVuSans-6e" x="2831.75"/>
     <use xlink:href="#DejaVuSans-20" x="2895.128906"/>
     <use xlink:href="#DejaVuSans-69" x="2926.916016"/>
     <use xlink:href="#DejaVuSans-6e" x="2954.699219"/>
     <use xlink:href="#DejaVuSans-20" x="3018.078125"/>
     <use xlink:href="#DejaVuSans-4d" x="3049.865234"/>
     <use xlink:href="#DejaVuSans-65" x="3136.144531"/>
     <use xlink:href="#DejaVuSans-43" x="3197.667969"/>
     <use xlink:href="#DejaVuSans-4e" x="3267.492188"/>
     <use xlink:href="#DejaVuSans-20" x="3342.296875"/>
    </g>
    <!--  -->
    <g transform="translate(236.16 35.472) scale(0.12 -0.12)"/>
   </g>
  </g>
 </g>
 <defs>
  <clipPath id="p00aad7dc76">
   <rect x="57.6" y="41.472" width="357.12" height="266.112"/>
  </clipPath>
 </defs>
</svg>
