<?xml version="1.0" encoding="utf-8" standalone="no"?>
<!DOCTYPE svg PUBLIC "-//W3C//DTD SVG 1.1//EN"
  "http://www.w3.org/Graphics/SVG/1.1/DTD/svg11.dtd">
<svg xmlns:xlink="http://www.w3.org/1999/xlink" width="460.8pt" height="345.6pt" viewBox="0 0 460.8 345.6" xmlns="http://www.w3.org/2000/svg" version="1.1">
 <metadata>
  <rdf:RDF xmlns:dc="http://purl.org/dc/elements/1.1/" xmlns:cc="http://creativecommons.org/ns#" xmlns:rdf="http://www.w3.org/1999/02/22-rdf-syntax-ns#">
   <cc:Work>
    <dc:type rdf:resource="http://purl.org/dc/dcmitype/StillImage"/>
    <dc:date>2024-11-03T21:07:37.788413</dc:date>
    <dc:format>image/svg+xml</dc:format>
    <dc:creator>
     <cc:Agent>
      <dc:title>Matplotlib v3.9.2, https://matplotlib.org/</dc:title>
     </cc:Agent>
    </dc:creator>
   </cc:Work>
  </rdf:RDF>
 </metadata>
 <defs>
  <style type="text/css">*{stroke-linejoin: round; stroke-linecap: butt}</style>
 </defs>
 <g id="figure_1">
  <g id="patch_1">
   <path d="M 0 345.6 
L 460.8 345.6 
L 460.8 0 
L 0 0 
z
" style="fill: #ffffff"/>
  </g>
  <g id="axes_1">
   <g id="patch_2">
    <path d="M 57.6 307.584 
L 414.72 307.584 
L 414.72 41.472 
L 57.6 41.472 
z
" style="fill: #ffffff"/>
   </g>
   <g id="matplotlib.axis_1">
    <g id="xtick_1">
     <g id="line2d_1">
      <defs>
       <path id="m61c063b4fb" d="M 0 0 
L 0 3.5 
" style="stroke: #000000; stroke-width: 0.8"/>
      </defs>
      <g>
       <use xlink:href="#m61c063b4fb" x="57.6" y="307.584" style="stroke: #000000; stroke-width: 0.8"/>
      </g>
     </g>
     <g id="text_1">
      <!-- 200 -->
      <g transform="translate(48.05625 322.182437) scale(0.1 -0.1)">
       <defs>
        <path id="DejaVuSans-32" d="M 1228 531 
L 3431 531 
L 3431 0 
L 469 0 
L 469 531 
Q 828 903 1448 1529 
Q 2069 2156 2228 2338 
Q 2531 2678 2651 2914 
Q 2772 3150 2772 3378 
Q 2772 3750 2511 3984 
Q 2250 4219 1831 4219 
Q 1534 4219 1204 4116 
Q 875 4013 500 3803 
L 500 4441 
Q 881 4594 1212 4672 
Q 1544 4750 1819 4750 
Q 2544 4750 2975 4387 
Q 3406 4025 3406 3419 
Q 3406 3131 3298 2873 
Q 3191 2616 2906 2266 
Q 2828 2175 2409 1742 
Q 1991 1309 1228 531 
z
" transform="scale(0.015625)"/>
        <path id="DejaVuSans-30" d="M 2034 4250 
Q 1547 4250 1301 3770 
Q 1056 3291 1056 2328 
Q 1056 1369 1301 889 
Q 1547 409 2034 409 
Q 2525 409 2770 889 
Q 3016 1369 3016 2328 
Q 3016 3291 2770 3770 
Q 2525 4250 2034 4250 
z
M 2034 4750 
Q 2819 4750 3233 4129 
Q 3647 3509 3647 2328 
Q 3647 1150 3233 529 
Q 2819 -91 2034 -91 
Q 1250 -91 836 529 
Q 422 1150 422 2328 
Q 422 3509 836 4129 
Q 1250 4750 2034 4750 
z
" transform="scale(0.015625)"/>
       </defs>
       <use xlink:href="#DejaVuSans-32"/>
       <use xlink:href="#DejaVuSans-30" x="63.623047"/>
       <use xlink:href="#DejaVuSans-30" x="127.246094"/>
      </g>
     </g>
    </g>
    <g id="xtick_2">
     <g id="line2d_2">
      <g>
       <use xlink:href="#m61c063b4fb" x="108.617143" y="307.584" style="stroke: #000000; stroke-width: 0.8"/>
      </g>
     </g>
     <g id="text_2">
      <!-- 300 -->
      <g transform="translate(99.073393 322.182437) scale(0.1 -0.1)">
       <defs>
        <path id="DejaVuSans-33" d="M 2597 2516 
Q 3050 2419 3304 2112 
Q 3559 1806 3559 1356 
Q 3559 666 3084 287 
Q 2609 -91 1734 -91 
Q 1441 -91 1130 -33 
Q 819 25 488 141 
L 488 750 
Q 750 597 1062 519 
Q 1375 441 1716 441 
Q 2309 441 2620 675 
Q 2931 909 2931 1356 
Q 2931 1769 2642 2001 
Q 2353 2234 1838 2234 
L 1294 2234 
L 1294 2753 
L 1863 2753 
Q 2328 2753 2575 2939 
Q 2822 3125 2822 3475 
Q 2822 3834 2567 4026 
Q 2313 4219 1838 4219 
Q 1578 4219 1281 4162 
Q 984 4106 628 3988 
L 628 4550 
Q 988 4650 1302 4700 
Q 1616 4750 1894 4750 
Q 2613 4750 3031 4423 
Q 3450 4097 3450 3541 
Q 3450 3153 3228 2886 
Q 3006 2619 2597 2516 
z
" transform="scale(0.015625)"/>
       </defs>
       <use xlink:href="#DejaVuSans-33"/>
       <use xlink:href="#DejaVuSans-30" x="63.623047"/>
       <use xlink:href="#DejaVuSans-30" x="127.246094"/>
      </g>
     </g>
    </g>
    <g id="xtick_3">
     <g id="line2d_3">
      <g>
       <use xlink:href="#m61c063b4fb" x="159.634286" y="307.584" style="stroke: #000000; stroke-width: 0.8"/>
      </g>
     </g>
     <g id="text_3">
      <!-- 400 -->
      <g transform="translate(150.090536 322.182437) scale(0.1 -0.1)">
       <defs>
        <path id="DejaVuSans-34" d="M 2419 4116 
L 825 1625 
L 2419 1625 
L 2419 4116 
z
M 2253 4666 
L 3047 4666 
L 3047 1625 
L 3713 1625 
L 3713 1100 
L 3047 1100 
L 3047 0 
L 2419 0 
L 2419 1100 
L 313 1100 
L 313 1709 
L 2253 4666 
z
" transform="scale(0.015625)"/>
       </defs>
       <use xlink:href="#DejaVuSans-34"/>
       <use xlink:href="#DejaVuSans-30" x="63.623047"/>
       <use xlink:href="#DejaVuSans-30" x="127.246094"/>
      </g>
     </g>
    </g>
    <g id="xtick_4">
     <g id="line2d_4">
      <g>
       <use xlink:href="#m61c063b4fb" x="210.651429" y="307.584" style="stroke: #000000; stroke-width: 0.8"/>
      </g>
     </g>
     <g id="text_4">
      <!-- 500 -->
      <g transform="translate(201.107679 322.182437) scale(0.1 -0.1)">
       <defs>
        <path id="DejaVuSans-35" d="M 691 4666 
L 3169 4666 
L 3169 4134 
L 1269 4134 
L 1269 2991 
Q 1406 3038 1543 3061 
Q 1681 3084 1819 3084 
Q 2600 3084 3056 2656 
Q 3513 2228 3513 1497 
Q 3513 744 3044 326 
Q 2575 -91 1722 -91 
Q 1428 -91 1123 -41 
Q 819 9 494 109 
L 494 744 
Q 775 591 1075 516 
Q 1375 441 1709 441 
Q 2250 441 2565 725 
Q 2881 1009 2881 1497 
Q 2881 1984 2565 2268 
Q 2250 2553 1709 2553 
Q 1456 2553 1204 2497 
Q 953 2441 691 2322 
L 691 4666 
z
" transform="scale(0.015625)"/>
       </defs>
       <use xlink:href="#DejaVuSans-35"/>
       <use xlink:href="#DejaVuSans-30" x="63.623047"/>
       <use xlink:href="#DejaVuSans-30" x="127.246094"/>
      </g>
     </g>
    </g>
    <g id="xtick_5">
     <g id="line2d_5">
      <g>
       <use xlink:href="#m61c063b4fb" x="261.668571" y="307.584" style="stroke: #000000; stroke-width: 0.8"/>
      </g>
     </g>
     <g id="text_5">
      <!-- 600 -->
      <g transform="translate(252.124821 322.182437) scale(0.1 -0.1)">
       <defs>
        <path id="DejaVuSans-36" d="M 2113 2584 
Q 1688 2584 1439 2293 
Q 1191 2003 1191 1497 
Q 1191 994 1439 701 
Q 1688 409 2113 409 
Q 2538 409 2786 701 
Q 3034 994 3034 1497 
Q 3034 2003 2786 2293 
Q 2538 2584 2113 2584 
z
M 3366 4563 
L 3366 3988 
Q 3128 4100 2886 4159 
Q 2644 4219 2406 4219 
Q 1781 4219 1451 3797 
Q 1122 3375 1075 2522 
Q 1259 2794 1537 2939 
Q 1816 3084 2150 3084 
Q 2853 3084 3261 2657 
Q 3669 2231 3669 1497 
Q 3669 778 3244 343 
Q 2819 -91 2113 -91 
Q 1303 -91 875 529 
Q 447 1150 447 2328 
Q 447 3434 972 4092 
Q 1497 4750 2381 4750 
Q 2619 4750 2861 4703 
Q 3103 4656 3366 4563 
z
" transform="scale(0.015625)"/>
       </defs>
       <use xlink:href="#DejaVuSans-36"/>
       <use xlink:href="#DejaVuSans-30" x="63.623047"/>
       <use xlink:href="#DejaVuSans-30" x="127.246094"/>
      </g>
     </g>
    </g>
    <g id="xtick_6">
     <g id="line2d_6">
      <g>
       <use xlink:href="#m61c063b4fb" x="312.685714" y="307.584" style="stroke: #000000; stroke-width: 0.8"/>
      </g>
     </g>
     <g id="text_6">
      <!-- 700 -->
      <g transform="translate(303.141964 322.182437) scale(0.1 -0.1)">
       <defs>
        <path id="DejaVuSans-37" d="M 525 4666 
L 3525 4666 
L 3525 4397 
L 1831 0 
L 1172 0 
L 2766 4134 
L 525 4134 
L 525 4666 
z
" transform="scale(0.015625)"/>
       </defs>
       <use xlink:href="#DejaVuSans-37"/>
       <use xlink:href="#DejaVuSans-30" x="63.623047"/>
       <use xlink:href="#DejaVuSans-30" x="127.246094"/>
      </g>
     </g>
    </g>
    <g id="xtick_7">
     <g id="line2d_7">
      <g>
       <use xlink:href="#m61c063b4fb" x="363.702857" y="307.584" style="stroke: #000000; stroke-width: 0.8"/>
      </g>
     </g>
     <g id="text_7">
      <!-- 800 -->
      <g transform="translate(354.159107 322.182437) scale(0.1 -0.1)">
       <defs>
        <path id="DejaVuSans-38" d="M 2034 2216 
Q 1584 2216 1326 1975 
Q 1069 1734 1069 1313 
Q 1069 891 1326 650 
Q 1584 409 2034 409 
Q 2484 409 2743 651 
Q 3003 894 3003 1313 
Q 3003 1734 2745 1975 
Q 2488 2216 2034 2216 
z
M 1403 2484 
Q 997 2584 770 2862 
Q 544 3141 544 3541 
Q 544 4100 942 4425 
Q 1341 4750 2034 4750 
Q 2731 4750 3128 4425 
Q 3525 4100 3525 3541 
Q 3525 3141 3298 2862 
Q 3072 2584 2669 2484 
Q 3125 2378 3379 2068 
Q 3634 1759 3634 1313 
Q 3634 634 3220 271 
Q 2806 -91 2034 -91 
Q 1263 -91 848 271 
Q 434 634 434 1313 
Q 434 1759 690 2068 
Q 947 2378 1403 2484 
z
M 1172 3481 
Q 1172 3119 1398 2916 
Q 1625 2713 2034 2713 
Q 2441 2713 2670 2916 
Q 2900 3119 2900 3481 
Q 2900 3844 2670 4047 
Q 2441 4250 2034 4250 
Q 1625 4250 1398 4047 
Q 1172 3844 1172 3481 
z
" transform="scale(0.015625)"/>
       </defs>
       <use xlink:href="#DejaVuSans-38"/>
       <use xlink:href="#DejaVuSans-30" x="63.623047"/>
       <use xlink:href="#DejaVuSans-30" x="127.246094"/>
      </g>
     </g>
    </g>
    <g id="xtick_8">
     <g id="line2d_8">
      <g>
       <use xlink:href="#m61c063b4fb" x="414.72" y="307.584" style="stroke: #000000; stroke-width: 0.8"/>
      </g>
     </g>
     <g id="text_8">
      <!-- 900 -->
      <g transform="translate(405.17625 322.182437) scale(0.1 -0.1)">
       <defs>
        <path id="DejaVuSans-39" d="M 703 97 
L 703 672 
Q 941 559 1184 500 
Q 1428 441 1663 441 
Q 2288 441 2617 861 
Q 2947 1281 2994 2138 
Q 2813 1869 2534 1725 
Q 2256 1581 1919 1581 
Q 1219 1581 811 2004 
Q 403 2428 403 3163 
Q 403 3881 828 4315 
Q 1253 4750 1959 4750 
Q 2769 4750 3195 4129 
Q 3622 3509 3622 2328 
Q 3622 1225 3098 567 
Q 2575 -91 1691 -91 
Q 1453 -91 1209 -44 
Q 966 3 703 97 
z
M 1959 2075 
Q 2384 2075 2632 2365 
Q 2881 2656 2881 3163 
Q 2881 3666 2632 3958 
Q 2384 4250 1959 4250 
Q 1534 4250 1286 3958 
Q 1038 3666 1038 3163 
Q 1038 2656 1286 2365 
Q 1534 2075 1959 2075 
z
" transform="scale(0.015625)"/>
       </defs>
       <use xlink:href="#DejaVuSans-39"/>
       <use xlink:href="#DejaVuSans-30" x="63.623047"/>
       <use xlink:href="#DejaVuSans-30" x="127.246094"/>
      </g>
     </g>
    </g>
    <g id="text_9">
     <!-- Wavelength (nm) -->
     <g transform="translate(192.967812 335.860562) scale(0.1 -0.1)">
      <defs>
       <path id="DejaVuSans-57" d="M 213 4666 
L 850 4666 
L 1831 722 
L 2809 4666 
L 3519 4666 
L 4500 722 
L 5478 4666 
L 6119 4666 
L 4947 0 
L 4153 0 
L 3169 4050 
L 2175 0 
L 1381 0 
L 213 4666 
z
" transform="scale(0.015625)"/>
       <path id="DejaVuSans-61" d="M 2194 1759 
Q 1497 1759 1228 1600 
Q 959 1441 959 1056 
Q 959 750 1161 570 
Q 1363 391 1709 391 
Q 2188 391 2477 730 
Q 2766 1069 2766 1631 
L 2766 1759 
L 2194 1759 
z
M 3341 1997 
L 3341 0 
L 2766 0 
L 2766 531 
Q 2569 213 2275 61 
Q 1981 -91 1556 -91 
Q 1019 -91 701 211 
Q 384 513 384 1019 
Q 384 1609 779 1909 
Q 1175 2209 1959 2209 
L 2766 2209 
L 2766 2266 
Q 2766 2663 2505 2880 
Q 2244 3097 1772 3097 
Q 1472 3097 1187 3025 
Q 903 2953 641 2809 
L 641 3341 
Q 956 3463 1253 3523 
Q 1550 3584 1831 3584 
Q 2591 3584 2966 3190 
Q 3341 2797 3341 1997 
z
" transform="scale(0.015625)"/>
       <path id="DejaVuSans-76" d="M 191 3500 
L 800 3500 
L 1894 563 
L 2988 3500 
L 3597 3500 
L 2284 0 
L 1503 0 
L 191 3500 
z
" transform="scale(0.015625)"/>
       <path id="DejaVuSans-65" d="M 3597 1894 
L 3597 1613 
L 953 1613 
Q 991 1019 1311 708 
Q 1631 397 2203 397 
Q 2534 397 2845 478 
Q 3156 559 3463 722 
L 3463 178 
Q 3153 47 2828 -22 
Q 2503 -91 2169 -91 
Q 1331 -91 842 396 
Q 353 884 353 1716 
Q 353 2575 817 3079 
Q 1281 3584 2069 3584 
Q 2775 3584 3186 3129 
Q 3597 2675 3597 1894 
z
M 3022 2063 
Q 3016 2534 2758 2815 
Q 2500 3097 2075 3097 
Q 1594 3097 1305 2825 
Q 1016 2553 972 2059 
L 3022 2063 
z
" transform="scale(0.015625)"/>
       <path id="DejaVuSans-6c" d="M 603 4863 
L 1178 4863 
L 1178 0 
L 603 0 
L 603 4863 
z
" transform="scale(0.015625)"/>
       <path id="DejaVuSans-6e" d="M 3513 2113 
L 3513 0 
L 2938 0 
L 2938 2094 
Q 2938 2591 2744 2837 
Q 2550 3084 2163 3084 
Q 1697 3084 1428 2787 
Q 1159 2491 1159 1978 
L 1159 0 
L 581 0 
L 581 3500 
L 1159 3500 
L 1159 2956 
Q 1366 3272 1645 3428 
Q 1925 3584 2291 3584 
Q 2894 3584 3203 3211 
Q 3513 2838 3513 2113 
z
" transform="scale(0.015625)"/>
       <path id="DejaVuSans-67" d="M 2906 1791 
Q 2906 2416 2648 2759 
Q 2391 3103 1925 3103 
Q 1463 3103 1205 2759 
Q 947 2416 947 1791 
Q 947 1169 1205 825 
Q 1463 481 1925 481 
Q 2391 481 2648 825 
Q 2906 1169 2906 1791 
z
M 3481 434 
Q 3481 -459 3084 -895 
Q 2688 -1331 1869 -1331 
Q 1566 -1331 1297 -1286 
Q 1028 -1241 775 -1147 
L 775 -588 
Q 1028 -725 1275 -790 
Q 1522 -856 1778 -856 
Q 2344 -856 2625 -561 
Q 2906 -266 2906 331 
L 2906 616 
Q 2728 306 2450 153 
Q 2172 0 1784 0 
Q 1141 0 747 490 
Q 353 981 353 1791 
Q 353 2603 747 3093 
Q 1141 3584 1784 3584 
Q 2172 3584 2450 3431 
Q 2728 3278 2906 2969 
L 2906 3500 
L 3481 3500 
L 3481 434 
z
" transform="scale(0.015625)"/>
       <path id="DejaVuSans-74" d="M 1172 4494 
L 1172 3500 
L 2356 3500 
L 2356 3053 
L 1172 3053 
L 1172 1153 
Q 1172 725 1289 603 
Q 1406 481 1766 481 
L 2356 481 
L 2356 0 
L 1766 0 
Q 1100 0 847 248 
Q 594 497 594 1153 
L 594 3053 
L 172 3053 
L 172 3500 
L 594 3500 
L 594 4494 
L 1172 4494 
z
" transform="scale(0.015625)"/>
       <path id="DejaVuSans-68" d="M 3513 2113 
L 3513 0 
L 2938 0 
L 2938 2094 
Q 2938 2591 2744 2837 
Q 2550 3084 2163 3084 
Q 1697 3084 1428 2787 
Q 1159 2491 1159 1978 
L 1159 0 
L 581 0 
L 581 4863 
L 1159 4863 
L 1159 2956 
Q 1366 3272 1645 3428 
Q 1925 3584 2291 3584 
Q 2894 3584 3203 3211 
Q 3513 2838 3513 2113 
z
" transform="scale(0.015625)"/>
       <path id="DejaVuSans-20" transform="scale(0.015625)"/>
       <path id="DejaVuSans-28" d="M 1984 4856 
Q 1566 4138 1362 3434 
Q 1159 2731 1159 2009 
Q 1159 1288 1364 580 
Q 1569 -128 1984 -844 
L 1484 -844 
Q 1016 -109 783 600 
Q 550 1309 550 2009 
Q 550 2706 781 3412 
Q 1013 4119 1484 4856 
L 1984 4856 
z
" transform="scale(0.015625)"/>
       <path id="DejaVuSans-6d" d="M 3328 2828 
Q 3544 3216 3844 3400 
Q 4144 3584 4550 3584 
Q 5097 3584 5394 3201 
Q 5691 2819 5691 2113 
L 5691 0 
L 5113 0 
L 5113 2094 
Q 5113 2597 4934 2840 
Q 4756 3084 4391 3084 
Q 3944 3084 3684 2787 
Q 3425 2491 3425 1978 
L 3425 0 
L 2847 0 
L 2847 2094 
Q 2847 2600 2669 2842 
Q 2491 3084 2119 3084 
Q 1678 3084 1418 2786 
Q 1159 2488 1159 1978 
L 1159 0 
L 581 0 
L 581 3500 
L 1159 3500 
L 1159 2956 
Q 1356 3278 1631 3431 
Q 1906 3584 2284 3584 
Q 2666 3584 2933 3390 
Q 3200 3197 3328 2828 
z
" transform="scale(0.015625)"/>
       <path id="DejaVuSans-29" d="M 513 4856 
L 1013 4856 
Q 1481 4119 1714 3412 
Q 1947 2706 1947 2009 
Q 1947 1309 1714 600 
Q 1481 -109 1013 -844 
L 513 -844 
Q 928 -128 1133 580 
Q 1338 1288 1338 2009 
Q 1338 2731 1133 3434 
Q 928 4138 513 4856 
z
" transform="scale(0.015625)"/>
      </defs>
      <use xlink:href="#DejaVuSans-57"/>
      <use xlink:href="#DejaVuSans-61" x="92.501953"/>
      <use xlink:href="#DejaVuSans-76" x="153.78125"/>
      <use xlink:href="#DejaVuSans-65" x="212.960938"/>
      <use xlink:href="#DejaVuSans-6c" x="274.484375"/>
      <use xlink:href="#DejaVuSans-65" x="302.267578"/>
      <use xlink:href="#DejaVuSans-6e" x="363.791016"/>
      <use xlink:href="#DejaVuSans-67" x="427.169922"/>
      <use xlink:href="#DejaVuSans-74" x="490.646484"/>
      <use xlink:href="#DejaVuSans-68" x="529.855469"/>
      <use xlink:href="#DejaVuSans-20" x="593.234375"/>
      <use xlink:href="#DejaVuSans-28" x="625.021484"/>
      <use xlink:href="#DejaVuSans-6e" x="664.035156"/>
      <use xlink:href="#DejaVuSans-6d" x="727.414062"/>
      <use xlink:href="#DejaVuSans-29" x="824.826172"/>
     </g>
    </g>
   </g>
   <g id="matplotlib.axis_2">
    <g id="ytick_1">
     <g id="line2d_9">
      <defs>
       <path id="mfb8eef89b0" d="M 0 0 
L -3.5 0 
" style="stroke: #000000; stroke-width: 0.8"/>
      </defs>
      <g>
       <use xlink:href="#mfb8eef89b0" x="57.6" y="307.584" style="stroke: #000000; stroke-width: 0.8"/>
      </g>
     </g>
     <g id="text_10">
      <!-- 0.0 -->
      <g transform="translate(34.696875 311.383219) scale(0.1 -0.1)">
       <defs>
        <path id="DejaVuSans-2e" d="M 684 794 
L 1344 794 
L 1344 0 
L 684 0 
L 684 794 
z
" transform="scale(0.015625)"/>
       </defs>
       <use xlink:href="#DejaVuSans-30"/>
       <use xlink:href="#DejaVuSans-2e" x="63.623047"/>
       <use xlink:href="#DejaVuSans-30" x="95.410156"/>
      </g>
     </g>
    </g>
    <g id="ytick_2">
     <g id="line2d_10">
      <g>
       <use xlink:href="#mfb8eef89b0" x="57.6" y="263.232" style="stroke: #000000; stroke-width: 0.8"/>
      </g>
     </g>
     <g id="text_11">
      <!-- 0.2 -->
      <g transform="translate(34.696875 267.031219) scale(0.1 -0.1)">
       <use xlink:href="#DejaVuSans-30"/>
       <use xlink:href="#DejaVuSans-2e" x="63.623047"/>
       <use xlink:href="#DejaVuSans-32" x="95.410156"/>
      </g>
     </g>
    </g>
    <g id="ytick_3">
     <g id="line2d_11">
      <g>
       <use xlink:href="#mfb8eef89b0" x="57.6" y="218.88" style="stroke: #000000; stroke-width: 0.8"/>
      </g>
     </g>
     <g id="text_12">
      <!-- 0.4 -->
      <g transform="translate(34.696875 222.679219) scale(0.1 -0.1)">
       <use xlink:href="#DejaVuSans-30"/>
       <use xlink:href="#DejaVuSans-2e" x="63.623047"/>
       <use xlink:href="#DejaVuSans-34" x="95.410156"/>
      </g>
     </g>
    </g>
    <g id="ytick_4">
     <g id="line2d_12">
      <g>
       <use xlink:href="#mfb8eef89b0" x="57.6" y="174.528" style="stroke: #000000; stroke-width: 0.8"/>
      </g>
     </g>
     <g id="text_13">
      <!-- 0.6 -->
      <g transform="translate(34.696875 178.327219) scale(0.1 -0.1)">
       <use xlink:href="#DejaVuSans-30"/>
       <use xlink:href="#DejaVuSans-2e" x="63.623047"/>
       <use xlink:href="#DejaVuSans-36" x="95.410156"/>
      </g>
     </g>
    </g>
    <g id="ytick_5">
     <g id="line2d_13">
      <g>
       <use xlink:href="#mfb8eef89b0" x="57.6" y="130.176" style="stroke: #000000; stroke-width: 0.8"/>
      </g>
     </g>
     <g id="text_14">
      <!-- 0.8 -->
      <g transform="translate(34.696875 133.975219) scale(0.1 -0.1)">
       <use xlink:href="#DejaVuSans-30"/>
       <use xlink:href="#DejaVuSans-2e" x="63.623047"/>
       <use xlink:href="#DejaVuSans-38" x="95.410156"/>
      </g>
     </g>
    </g>
    <g id="ytick_6">
     <g id="line2d_14">
      <g>
       <use xlink:href="#mfb8eef89b0" x="57.6" y="85.824" style="stroke: #000000; stroke-width: 0.8"/>
      </g>
     </g>
     <g id="text_15">
      <!-- 1.0 -->
      <g transform="translate(34.696875 89.623219) scale(0.1 -0.1)">
       <defs>
        <path id="DejaVuSans-31" d="M 794 531 
L 1825 531 
L 1825 4091 
L 703 3866 
L 703 4441 
L 1819 4666 
L 2450 4666 
L 2450 531 
L 3481 531 
L 3481 0 
L 794 0 
L 794 531 
z
" transform="scale(0.015625)"/>
       </defs>
       <use xlink:href="#DejaVuSans-31"/>
       <use xlink:href="#DejaVuSans-2e" x="63.623047"/>
       <use xlink:href="#DejaVuSans-30" x="95.410156"/>
      </g>
     </g>
    </g>
    <g id="ytick_7">
     <g id="line2d_15">
      <g>
       <use xlink:href="#mfb8eef89b0" x="57.6" y="41.472" style="stroke: #000000; stroke-width: 0.8"/>
      </g>
     </g>
     <g id="text_16">
      <!-- 1.2 -->
      <g transform="translate(34.696875 45.271219) scale(0.1 -0.1)">
       <use xlink:href="#DejaVuSans-31"/>
       <use xlink:href="#DejaVuSans-2e" x="63.623047"/>
       <use xlink:href="#DejaVuSans-32" x="95.410156"/>
      </g>
     </g>
    </g>
    <g id="text_17">
     <!-- Absorbance -->
     <g transform="translate(28.617187 204.074875) rotate(-90) scale(0.1 -0.1)">
      <defs>
       <path id="DejaVuSans-41" d="M 2188 4044 
L 1331 1722 
L 3047 1722 
L 2188 4044 
z
M 1831 4666 
L 2547 4666 
L 4325 0 
L 3669 0 
L 3244 1197 
L 1141 1197 
L 716 0 
L 50 0 
L 1831 4666 
z
" transform="scale(0.015625)"/>
       <path id="DejaVuSans-62" d="M 3116 1747 
Q 3116 2381 2855 2742 
Q 2594 3103 2138 3103 
Q 1681 3103 1420 2742 
Q 1159 2381 1159 1747 
Q 1159 1113 1420 752 
Q 1681 391 2138 391 
Q 2594 391 2855 752 
Q 3116 1113 3116 1747 
z
M 1159 2969 
Q 1341 3281 1617 3432 
Q 1894 3584 2278 3584 
Q 2916 3584 3314 3078 
Q 3713 2572 3713 1747 
Q 3713 922 3314 415 
Q 2916 -91 2278 -91 
Q 1894 -91 1617 61 
Q 1341 213 1159 525 
L 1159 0 
L 581 0 
L 581 4863 
L 1159 4863 
L 1159 2969 
z
" transform="scale(0.015625)"/>
       <path id="DejaVuSans-73" d="M 2834 3397 
L 2834 2853 
Q 2591 2978 2328 3040 
Q 2066 3103 1784 3103 
Q 1356 3103 1142 2972 
Q 928 2841 928 2578 
Q 928 2378 1081 2264 
Q 1234 2150 1697 2047 
L 1894 2003 
Q 2506 1872 2764 1633 
Q 3022 1394 3022 966 
Q 3022 478 2636 193 
Q 2250 -91 1575 -91 
Q 1294 -91 989 -36 
Q 684 19 347 128 
L 347 722 
Q 666 556 975 473 
Q 1284 391 1588 391 
Q 1994 391 2212 530 
Q 2431 669 2431 922 
Q 2431 1156 2273 1281 
Q 2116 1406 1581 1522 
L 1381 1569 
Q 847 1681 609 1914 
Q 372 2147 372 2553 
Q 372 3047 722 3315 
Q 1072 3584 1716 3584 
Q 2034 3584 2315 3537 
Q 2597 3491 2834 3397 
z
" transform="scale(0.015625)"/>
       <path id="DejaVuSans-6f" d="M 1959 3097 
Q 1497 3097 1228 2736 
Q 959 2375 959 1747 
Q 959 1119 1226 758 
Q 1494 397 1959 397 
Q 2419 397 2687 759 
Q 2956 1122 2956 1747 
Q 2956 2369 2687 2733 
Q 2419 3097 1959 3097 
z
M 1959 3584 
Q 2709 3584 3137 3096 
Q 3566 2609 3566 1747 
Q 3566 888 3137 398 
Q 2709 -91 1959 -91 
Q 1206 -91 779 398 
Q 353 888 353 1747 
Q 353 2609 779 3096 
Q 1206 3584 1959 3584 
z
" transform="scale(0.015625)"/>
       <path id="DejaVuSans-72" d="M 2631 2963 
Q 2534 3019 2420 3045 
Q 2306 3072 2169 3072 
Q 1681 3072 1420 2755 
Q 1159 2438 1159 1844 
L 1159 0 
L 581 0 
L 581 3500 
L 1159 3500 
L 1159 2956 
Q 1341 3275 1631 3429 
Q 1922 3584 2338 3584 
Q 2397 3584 2469 3576 
Q 2541 3569 2628 3553 
L 2631 2963 
z
" transform="scale(0.015625)"/>
       <path id="DejaVuSans-63" d="M 3122 3366 
L 3122 2828 
Q 2878 2963 2633 3030 
Q 2388 3097 2138 3097 
Q 1578 3097 1268 2742 
Q 959 2388 959 1747 
Q 959 1106 1268 751 
Q 1578 397 2138 397 
Q 2388 397 2633 464 
Q 2878 531 3122 666 
L 3122 134 
Q 2881 22 2623 -34 
Q 2366 -91 2075 -91 
Q 1284 -91 818 406 
Q 353 903 353 1747 
Q 353 2603 823 3093 
Q 1294 3584 2113 3584 
Q 2378 3584 2631 3529 
Q 2884 3475 3122 3366 
z
" transform="scale(0.015625)"/>
      </defs>
      <use xlink:href="#DejaVuSans-41"/>
      <use xlink:href="#DejaVuSans-62" x="68.408203"/>
      <use xlink:href="#DejaVuSans-73" x="131.884766"/>
      <use xlink:href="#DejaVuSans-6f" x="183.984375"/>
      <use xlink:href="#DejaVuSans-72" x="245.166016"/>
      <use xlink:href="#DejaVuSans-62" x="286.279297"/>
      <use xlink:href="#DejaVuSans-61" x="349.755859"/>
      <use xlink:href="#DejaVuSans-6e" x="411.035156"/>
      <use xlink:href="#DejaVuSans-63" x="474.414062"/>
      <use xlink:href="#DejaVuSans-65" x="529.394531"/>
     </g>
    </g>
   </g>
   <g id="line2d_16">
    <path d="M 363.702857 308.280899 
L 363.192686 308.135241 
L 359.111314 308.121904 
L 356.050286 308.176201 
L 353.499429 308.086274 
L 340.234971 307.757505 
L 334.112914 307.088596 
L 329.0112 306.924612 
L 327.990857 306.832588 
L 326.970514 306.784017 
L 325.950171 306.884195 
L 322.378971 307.181033 
L 321.8688 307.351101 
L 321.358629 307.237831 
L 319.828114 307.318666 
L 317.277257 307.358954 
L 310.645029 307.233708 
L 308.604343 307.237285 
L 307.584 307.140932 
L 305.543314 307.018516 
L 298.911086 306.417972 
L 288.197486 304.578437 
L 286.1568 304.094794 
L 277.994057 301.735711 
L 271.361829 299.630341 
L 267.790629 298.602587 
L 256.056686 295.058683 
L 250.4448 292.848615 
L 248.914286 292.137711 
L 247.383771 291.247791 
L 246.363429 290.607311 
L 244.322743 288.908756 
L 242.282057 286.740037 
L 240.751543 284.692043 
L 239.7312 283.112741 
L 238.200686 280.24032 
L 236.670171 276.779804 
L 235.139657 272.665731 
L 233.609143 267.871563 
L 232.078629 262.37935 
L 230.037943 253.861778 
L 227.997257 244.094497 
L 225.956571 233.302073 
L 222.895543 215.478507 
L 219.324343 193.328957 
L 214.222629 161.812782 
L 211.1616 144.098435 
L 208.610743 130.406474 
L 206.570057 120.493664 
L 205.039543 113.782262 
L 203.509029 107.800172 
L 202.488686 104.308062 
L 200.958171 99.883256 
L 199.937829 97.609693 
L 198.917486 95.73555 
L 197.897143 94.400275 
L 196.8768 93.572199 
L 196.366629 93.376639 
L 195.856457 93.305791 
L 194.836114 93.502289 
L 194.325943 93.737925 
L 193.3056 94.645679 
L 192.285257 95.914375 
L 191.264914 97.584447 
L 189.7344 100.88039 
L 188.714057 103.524173 
L 187.183543 108.190233 
L 186.1632 111.572093 
L 184.632686 117.56395 
L 182.592 126.656826 
L 180.551314 136.787586 
L 177.490286 153.139443 
L 172.898743 178.563608 
L 169.327543 197.793192 
L 166.776686 210.535722 
L 163.715657 224.304413 
L 161.674971 232.45875 
L 160.144457 238.146423 
L 158.613943 243.295057 
L 157.083429 247.869457 
L 156.063086 250.574109 
L 154.0224 255.039293 
L 152.491886 257.606198 
L 151.471543 258.906627 
L 150.961371 259.391127 
L 150.4512 259.68858 
L 149.941029 260.155642 
L 149.430857 260.421841 
L 148.410514 260.58225 
L 147.900343 260.598085 
L 147.390171 260.494734 
L 145.859657 259.648976 
L 144.839314 258.826933 
L 144.329143 258.018944 
L 143.818971 257.572029 
L 143.3088 255.568142 
L 142.798629 256.139917 
L 142.288457 255.298322 
L 141.778286 254.220073 
L 141.268114 253.509265 
L 140.757943 252.562198 
L 139.7376 250.227641 
L 139.227429 249.160207 
L 138.717257 247.566661 
L 137.696914 245.052043 
L 136.1664 240.493445 
L 135.146057 237.292123 
L 134.635886 235.064082 
L 133.615543 232.060157 
L 133.105371 225.463433 
L 132.5952 223.184346 
L 131.574857 216.765595 
L 130.554514 208.665551 
L 129.534171 197.682433 
L 128.513829 182.899603 
L 127.493486 162.350514 
L 126.473143 134.837361 
L 125.4528 98.590516 
L 124.432457 49.939494 
L 123.670065 -1 
L 123.670065 -1 
" clip-path="url(#p487b9b4dae)" style="fill: none; stroke: #e01f1f; stroke-width: 0.5; stroke-linecap: square"/>
   </g>
   <g id="line2d_17">
    <path d="M 363.702857 308.053313 
L 363.192686 307.908646 
L 359.111314 307.935136 
L 355.540114 307.989416 
L 352.989257 307.975877 
L 349.418057 307.986865 
L 347.887543 307.928718 
L 346.357029 307.91907 
L 338.194286 307.584 
L 334.112914 307.075513 
L 330.031543 306.969831 
L 326.970514 306.773081 
L 323.399314 307.055 
L 321.8688 307.342223 
L 321.358629 307.205326 
L 319.828114 307.320203 
L 313.195886 307.442812 
L 311.665371 307.404831 
L 305.033143 307.155296 
L 304.0128 307.061984 
L 301.461943 306.849194 
L 291.258514 305.436735 
L 284.116114 303.825375 
L 279.0144 302.275788 
L 274.933029 300.971847 
L 268.810971 298.998095 
L 256.056686 295.008204 
L 251.465143 293.30532 
L 247.893943 291.515249 
L 245.343086 289.718911 
L 243.3024 287.822687 
L 241.771886 286.074841 
L 240.241371 283.921374 
L 239.221029 282.245243 
L 237.690514 279.300852 
L 236.16 275.748621 
L 234.629486 271.529449 
L 233.098971 266.650855 
L 231.058286 259.085961 
L 228.507429 247.862445 
L 226.466743 237.659779 
L 223.915886 223.645169 
L 220.344686 202.525944 
L 212.692114 156.685224 
L 210.141257 142.562545 
L 208.100571 132.036476 
L 206.059886 122.429251 
L 204.529371 116.000779 
L 202.998857 110.301301 
L 201.468343 105.577466 
L 200.448 102.858869 
L 198.917486 99.825276 
L 197.897143 98.477946 
L 197.386971 97.897613 
L 196.366629 97.227715 
L 195.856457 97.07678 
L 194.836114 97.105343 
L 194.325943 97.29855 
L 193.3056 97.996205 
L 192.285257 99.146072 
L 191.264914 100.653762 
L 190.244571 102.576996 
L 189.224229 104.831539 
L 187.693714 108.970534 
L 185.653029 115.645084 
L 184.122514 121.627993 
L 182.592 128.343334 
L 180.551314 138.083333 
L 178.000457 151.230953 
L 167.797029 205.357547 
L 165.246171 217.322202 
L 163.205486 226.071604 
L 160.654629 235.875452 
L 158.613943 242.890562 
L 157.083429 247.463389 
L 155.552914 251.396264 
L 153.512229 255.691842 
L 151.981714 258.070286 
L 150.961371 259.268098 
L 150.4512 259.598195 
L 149.941029 260.077834 
L 148.920686 260.547507 
L 147.900343 260.682624 
L 146.369829 260.196997 
L 145.349486 259.506899 
L 144.839314 259.066352 
L 144.329143 258.340401 
L 143.818971 257.905749 
L 143.3088 255.969052 
L 142.798629 256.558416 
L 141.268114 254.005185 
L 140.757943 252.78408 
L 140.247771 252.013977 
L 139.227429 249.733866 
L 138.207086 247.198304 
L 137.696914 245.309753 
L 137.186743 244.377341 
L 136.1664 241.47588 
L 135.656229 239.213434 
L 135.146057 238.186124 
L 133.615543 233.400759 
L 133.105371 225.749364 
L 132.5952 223.586224 
L 131.574857 217.649663 
L 131.064686 214.201979 
L 130.044343 205.540622 
L 129.024 193.566714 
L 128.003657 177.354227 
L 126.983314 154.702192 
L 125.962971 124.103513 
L 124.942629 82.305761 
L 123.922286 23.277728 
L 123.604935 -1 
L 123.604935 -1 
" clip-path="url(#p487b9b4dae)" style="fill: none; stroke: #d61f29; stroke-width: 0.5; stroke-linecap: square"/>
   </g>
   <g id="line2d_18">
    <path d="M 363.702857 308.228678 
L 363.192686 308.077927 
L 361.152 308.064648 
L 358.601143 308.09979 
L 352.989257 308.105228 
L 349.928229 308.043425 
L 343.296 307.925602 
L 330.541714 307.039532 
L 329.521371 306.992018 
L 326.460343 306.869748 
L 321.8688 307.454822 
L 321.358629 307.3248 
L 318.2976 307.45127 
L 315.746743 307.432399 
L 314.216229 307.43018 
L 312.175543 307.362568 
L 304.522971 307.030513 
L 300.4416 306.609802 
L 291.258514 305.231008 
L 289.217829 304.759324 
L 288.197486 304.519719 
L 286.1568 304.034811 
L 284.116114 303.438241 
L 282.075429 302.878718 
L 279.0144 301.829619 
L 276.463543 301.0009 
L 270.341486 298.924824 
L 265.239771 297.319281 
L 254.016 293.542582 
L 250.954971 292.311593 
L 247.893943 290.718007 
L 246.8736 290.105715 
L 244.832914 288.546907 
L 243.3024 287.164718 
L 241.261714 284.739098 
L 240.241371 283.329241 
L 238.710857 280.768119 
L 237.180343 277.643593 
L 235.649829 273.948829 
L 234.119314 269.662025 
L 232.5888 264.616501 
L 231.058286 258.885714 
L 229.527771 252.514284 
L 227.997257 245.498367 
L 225.956571 235.245955 
L 222.895543 218.345013 
L 219.324343 197.217612 
L 214.222629 166.830975 
L 211.1616 149.598844 
L 208.610743 136.228357 
L 206.570057 126.510458 
L 205.039543 119.869481 
L 203.509029 113.955094 
L 201.978514 108.936181 
L 200.958171 106.033194 
L 199.427657 102.588378 
L 198.407314 100.884482 
L 197.386971 99.690652 
L 196.366629 98.942134 
L 195.346286 98.692844 
L 194.836114 98.678185 
L 194.325943 98.837263 
L 193.3056 99.441772 
L 192.285257 100.465487 
L 191.264914 101.896962 
L 190.244571 103.71062 
L 189.224229 105.913704 
L 187.693714 109.875791 
L 186.1632 114.490605 
L 184.632686 120.046522 
L 183.102171 126.304774 
L 180.551314 138.146727 
L 178.000457 150.999376 
L 172.898743 178.100922 
L 168.817371 199.375848 
L 166.266514 211.62759 
L 163.715657 222.833814 
L 161.674971 230.932021 
L 159.634286 238.377117 
L 157.5936 244.937934 
L 155.552914 250.327959 
L 154.0224 253.708189 
L 152.491886 256.278356 
L 151.471543 257.726776 
L 149.941029 259.061007 
L 148.920686 259.544221 
L 148.410514 259.675356 
L 146.88 259.457806 
L 145.859657 258.873477 
L 145.349486 258.5529 
L 144.839314 258.099171 
L 144.329143 257.341619 
L 143.818971 256.946082 
L 143.3088 254.982255 
L 142.798629 255.544031 
L 142.288457 254.794465 
L 141.778286 253.71236 
L 140.757943 252.105671 
L 139.227429 248.760683 
L 138.717257 246.962556 
L 138.207086 246.169666 
L 137.186743 243.479712 
L 136.676571 241.704379 
L 136.1664 240.600907 
L 134.635886 235.224866 
L 134.125714 234.140653 
L 133.615543 232.739341 
L 133.105371 226.105555 
L 132.5952 224.049639 
L 131.574857 218.020539 
L 130.554514 210.547778 
L 129.534171 200.279465 
L 128.513829 186.352305 
L 127.493486 166.700567 
L 126.473143 140.077086 
L 125.4528 104.425102 
L 124.432457 55.49341 
L 123.590289 -1 
L 123.590289 -1 
" clip-path="url(#p487b9b4dae)" style="fill: none; stroke: #cc1f33; stroke-width: 0.5; stroke-linecap: square"/>
   </g>
   <g id="line2d_19">
    <path d="M 363.702857 308.304435 
L 363.192686 308.152562 
L 358.090971 308.18192 
L 356.050286 308.199483 
L 350.948571 308.101547 
L 347.887543 308.04359 
L 341.255314 307.802897 
L 339.7248 307.725587 
L 337.173943 307.444408 
L 336.1536 307.291873 
L 334.623086 307.071758 
L 325.950171 306.7363 
L 324.929829 306.801422 
L 323.399314 306.927815 
L 322.378971 306.99308 
L 321.8688 307.122601 
L 321.358629 306.9836 
L 319.317943 307.103189 
L 308.094171 307.001025 
L 299.421257 306.219459 
L 297.380571 305.950818 
L 295.850057 305.601832 
L 290.238171 304.580157 
L 288.707657 304.212659 
L 285.136457 303.244195 
L 279.524571 301.42697 
L 275.4432 299.984134 
L 272.892343 299.101682 
L 269.321143 297.937784 
L 261.668571 295.444975 
L 252.995657 292.45025 
L 249.934629 291.143954 
L 247.383771 289.82862 
L 245.853257 288.836226 
L 243.812571 287.120671 
L 241.771886 284.980393 
L 240.241371 283.001619 
L 238.200686 279.610155 
L 236.670171 276.42637 
L 234.629486 271.25291 
L 232.5888 264.951392 
L 231.058286 259.439851 
L 229.0176 251.143884 
L 226.976914 241.697462 
L 224.936229 231.348493 
L 221.8752 214.569843 
L 210.141257 147.780258 
L 207.5904 134.989588 
L 205.549714 125.795159 
L 203.509029 117.776464 
L 201.978514 112.655483 
L 200.448 108.44297 
L 198.917486 105.214161 
L 197.897143 103.621004 
L 196.8768 102.516104 
L 195.856457 101.845638 
L 194.836114 101.67477 
L 194.325943 101.712494 
L 193.3056 102.186489 
L 192.795429 102.550643 
L 191.775086 103.60049 
L 190.754743 105.056775 
L 189.7344 106.864881 
L 188.203886 110.264386 
L 186.673371 114.401822 
L 185.142857 119.4263 
L 183.612343 125.209711 
L 181.571657 133.911084 
L 178.510629 148.552806 
L 175.4496 164.118447 
L 169.837714 193.391077 
L 167.286857 205.830243 
L 164.736 217.3098 
L 162.185143 227.659972 
L 159.634286 236.953191 
L 157.5936 243.427153 
L 155.552914 248.80899 
L 154.0224 252.129446 
L 152.491886 254.751426 
L 150.961371 256.690968 
L 150.4512 257.006322 
L 149.941029 257.491981 
L 148.920686 258.002326 
L 147.900343 258.189326 
L 146.88 257.881547 
L 145.859657 257.348791 
L 144.839314 256.502666 
L 144.329143 255.576 
L 143.818971 255.295023 
L 143.3088 253.271389 
L 142.798629 253.867031 
L 140.247771 248.903736 
L 138.207086 243.611669 
L 137.696914 241.79117 
L 137.186743 240.726315 
L 136.1664 237.465406 
L 135.656229 235.18994 
L 135.146057 234.090605 
L 134.635886 232.539501 
L 134.125714 230.363764 
L 133.615543 229.06275 
L 133.105371 220.812921 
L 132.085029 215.500649 
L 131.064686 208.170173 
L 130.044343 198.700024 
L 129.024 185.797128 
L 128.003657 167.994485 
L 126.983314 143.752359 
L 125.962971 111.784858 
L 124.942629 69.539613 
L 123.922286 11.346425 
L 123.757717 -1 
L 123.757717 -1 
" clip-path="url(#p487b9b4dae)" style="fill: none; stroke: #c21f3d; stroke-width: 0.5; stroke-linecap: square"/>
   </g>
   <g id="line2d_20">
    <path d="M 363.702857 308.081588 
L 363.192686 307.919888 
L 362.172343 307.937527 
L 347.887543 307.953445 
L 341.765486 307.811525 
L 338.194286 307.584 
L 333.092571 307.067911 
L 330.031543 306.993306 
L 326.460343 306.822569 
L 324.929829 306.966934 
L 322.889143 307.133225 
L 322.378971 307.160787 
L 321.8688 307.34317 
L 320.848457 307.275449 
L 312.685714 307.316015 
L 304.0128 306.892795 
L 294.319543 305.553617 
L 292.278857 305.125825 
L 287.687314 304.009575 
L 283.605943 302.699705 
L 282.075429 302.150276 
L 279.524571 301.205847 
L 277.483886 300.417978 
L 274.933029 299.435538 
L 271.872 298.257795 
L 268.810971 297.150798 
L 266.260114 296.20293 
L 251.975314 290.76872 
L 249.934629 289.837695 
L 245.853257 287.577356 
L 244.322743 286.227908 
L 242.792229 284.86098 
L 241.261714 283.166413 
L 239.7312 281.101993 
L 238.200686 278.65706 
L 236.670171 275.660371 
L 235.139657 272.151051 
L 233.609143 268.045963 
L 231.568457 261.6245 
L 229.527771 254.092912 
L 227.487086 245.519842 
L 225.4464 236.088924 
L 222.895543 223.257074 
L 219.324343 204.111285 
L 213.202286 170.65828 
L 210.141257 154.895401 
L 207.080229 140.394861 
L 204.529371 129.80413 
L 202.998857 124.374576 
L 201.468343 119.635143 
L 200.448 116.940431 
L 199.427657 114.684646 
L 198.407314 112.831268 
L 197.386971 111.367158 
L 196.366629 110.334957 
L 195.346286 109.752153 
L 194.325943 109.49517 
L 193.3056 109.720284 
L 192.795429 109.945346 
L 191.264914 111.219342 
L 190.244571 112.536165 
L 189.224229 114.225337 
L 188.203886 116.295039 
L 187.183543 118.669785 
L 185.653029 122.787103 
L 184.122514 127.742041 
L 181.571657 137.541837 
L 179.0208 148.621777 
L 175.959771 162.982538 
L 166.776686 207.338924 
L 164.225829 218.216953 
L 161.674971 227.987578 
L 159.634286 235.157338 
L 158.103771 240.049748 
L 156.573257 244.380668 
L 154.532571 249.152366 
L 153.512229 251.126463 
L 152.491886 252.798048 
L 151.471543 254.19707 
L 149.941029 255.530917 
L 148.920686 256.07307 
L 147.900343 256.211442 
L 146.88 255.954952 
L 145.859657 255.395305 
L 145.349486 255.022119 
L 144.329143 253.925679 
L 143.818971 253.282568 
L 143.3088 251.247255 
L 142.798629 251.811099 
L 140.247771 246.724001 
L 138.717257 242.793453 
L 138.207086 241.390905 
L 137.696914 239.388627 
L 137.186743 238.305716 
L 136.1664 235.087554 
L 135.656229 232.826244 
L 135.146057 231.540662 
L 134.125714 228.004312 
L 133.615543 226.605631 
L 133.105371 219.485577 
L 132.5952 217.122846 
L 131.574857 210.772221 
L 130.554514 202.338728 
L 129.534171 191.125697 
L 128.513829 175.89702 
L 127.493486 154.798117 
L 126.473143 126.736778 
L 125.4528 90.123347 
L 124.432457 41.296342 
L 123.777762 -1 
L 123.777762 -1 
" clip-path="url(#p487b9b4dae)" style="fill: none; stroke: #b81f47; stroke-width: 0.5; stroke-linecap: square"/>
   </g>
   <g id="line2d_21">
    <path d="M 363.702857 307.984416 
L 362.682514 307.818734 
L 358.601143 307.951405 
L 343.806171 307.92957 
L 341.765486 307.832396 
L 340.745143 307.775876 
L 333.092571 307.100492 
L 325.950171 306.899126 
L 322.378971 307.190926 
L 321.8688 307.358497 
L 321.358629 307.217778 
L 315.236571 307.444936 
L 313.706057 307.369738 
L 307.584 307.218945 
L 301.972114 306.711908 
L 294.829714 305.603498 
L 288.707657 304.233619 
L 282.075429 302.041548 
L 277.994057 300.324887 
L 276.463543 299.712072 
L 273.402514 298.397013 
L 264.219429 294.6391 
L 252.485486 289.80704 
L 248.914286 288.105168 
L 247.893943 287.49828 
L 246.363429 286.588108 
L 245.853257 286.239109 
L 244.322743 284.899094 
L 242.792229 283.507362 
L 241.261714 281.86649 
L 239.7312 279.841752 
L 238.200686 277.469388 
L 236.670171 274.593356 
L 235.139657 271.157588 
L 234.119314 268.657195 
L 232.5888 264.301234 
L 231.058286 259.392708 
L 229.0176 251.96318 
L 226.976914 243.597415 
L 224.936229 234.386583 
L 221.365029 216.753592 
L 209.631086 155.856512 
L 207.5904 146.414432 
L 205.549714 137.733493 
L 203.509029 130.015057 
L 201.978514 125.021126 
L 200.448 120.851293 
L 198.917486 117.500496 
L 197.897143 115.83973 
L 196.8768 114.450592 
L 195.856457 113.564356 
L 194.836114 113.026717 
L 193.815771 112.936201 
L 193.3056 113.007512 
L 192.285257 113.439592 
L 191.264914 114.275071 
L 190.244571 115.487168 
L 189.224229 116.994131 
L 188.203886 118.877394 
L 186.673371 122.259703 
L 185.653029 124.953093 
L 183.612343 131.47762 
L 181.571657 139.110827 
L 180.041143 145.356562 
L 175.4496 166.095514 
L 167.286857 204.902406 
L 164.736 215.728971 
L 162.185143 225.582307 
L 160.144457 232.890789 
L 158.103771 239.456854 
L 156.573257 243.80113 
L 155.042743 247.497748 
L 153.512229 250.593604 
L 151.981714 253.057614 
L 150.961371 254.305581 
L 150.4512 254.629258 
L 149.941029 255.179702 
L 148.920686 255.713654 
L 147.900343 255.954342 
L 147.390171 255.921135 
L 145.859657 255.253954 
L 144.839314 254.512894 
L 144.329143 253.7262 
L 143.818971 253.275323 
L 143.3088 251.242274 
L 142.798629 251.778003 
L 141.268114 248.992457 
L 140.757943 247.940588 
L 140.247771 246.339725 
L 139.7376 245.619613 
L 138.207086 241.584993 
L 137.696914 239.510512 
L 137.186743 238.666957 
L 136.1664 235.427435 
L 135.656229 233.216136 
L 135.146057 232.12341 
L 134.635886 230.492562 
L 134.125714 228.473253 
L 133.615543 227.198714 
L 133.105371 219.290859 
L 132.5952 217.215135 
L 131.574857 211.169395 
L 130.554514 203.608127 
L 129.534171 193.736272 
L 128.513829 179.509237 
L 127.493486 160.164036 
L 126.473143 133.849537 
L 125.4528 98.172412 
L 124.432457 49.555175 
L 123.681989 -1 
L 123.681989 -1 
" clip-path="url(#p487b9b4dae)" style="fill: none; stroke: #ad1f52; stroke-width: 0.5; stroke-linecap: square"/>
   </g>
   <g id="line2d_22">
    <path d="M 363.702857 308.514229 
L 363.192686 308.328794 
L 345.846857 308.036802 
L 342.275657 307.880129 
L 339.7248 307.728388 
L 336.663771 307.379184 
L 335.133257 307.146661 
L 332.5824 307.033676 
L 329.521371 306.965616 
L 326.970514 306.791687 
L 322.378971 307.213582 
L 321.8688 307.371371 
L 321.358629 307.25075 
L 316.767086 307.394599 
L 315.746743 307.369848 
L 313.706057 307.31089 
L 307.584 307.06054 
L 304.0128 306.73057 
L 302.482286 306.590396 
L 297.890743 305.946699 
L 289.217829 303.912323 
L 285.646629 302.72001 
L 281.565257 301.200037 
L 280.034743 300.451291 
L 279.0144 300.021614 
L 274.933029 298.187125 
L 272.892343 297.293667 
L 270.851657 296.373575 
L 267.280457 294.881043 
L 248.914286 286.801797 
L 247.383771 285.969654 
L 245.343086 284.628122 
L 242.792229 282.530593 
L 241.771886 281.572303 
L 239.7312 279.179014 
L 238.200686 276.978517 
L 237.180343 275.323523 
L 235.649829 272.384904 
L 234.119314 269.000937 
L 232.5888 265.070385 
L 230.548114 259.017536 
L 228.507429 252.032639 
L 226.466743 244.232754 
L 223.915886 233.425255 
L 220.854857 219.325846 
L 217.283657 201.96909 
L 211.671771 174.617031 
L 208.610743 160.590432 
L 206.570057 151.939828 
L 204.0192 142.287279 
L 202.488686 137.19272 
L 200.958171 132.71294 
L 199.427657 128.981361 
L 198.407314 126.908909 
L 196.8768 124.496466 
L 195.856457 123.351913 
L 194.836114 122.589767 
L 193.815771 122.112983 
L 192.795429 122.053304 
L 192.285257 122.066813 
L 191.264914 122.530339 
L 190.244571 123.235978 
L 189.224229 124.305546 
L 187.693714 126.60076 
L 186.1632 129.48158 
L 184.632686 133.28299 
L 183.102171 137.765096 
L 181.061486 144.620639 
L 178.510629 154.194542 
L 174.939429 169.04089 
L 169.327543 194.24462 
L 166.776686 205.163869 
L 164.736 213.340868 
L 162.695314 220.97196 
L 158.103771 236.286282 
L 156.063086 241.795494 
L 154.0224 246.282742 
L 153.002057 248.102507 
L 151.981714 249.657411 
L 150.961371 250.961478 
L 149.430857 252.262274 
L 148.410514 252.606885 
L 147.900343 252.706971 
L 146.88 252.546354 
L 146.369829 252.359056 
L 145.349486 251.737007 
L 144.839314 251.246774 
L 144.329143 250.536059 
L 143.818971 250.037175 
L 143.3088 247.92195 
L 142.798629 248.508528 
L 141.268114 245.566132 
L 140.757943 244.219655 
L 139.7376 241.965305 
L 138.717257 239.344164 
L 138.207086 237.8389 
L 137.696914 235.698594 
L 137.186743 234.615133 
L 136.676571 233.205382 
L 135.656229 229.113581 
L 135.146057 228.168473 
L 133.615543 223.246759 
L 133.105371 216.589411 
L 132.5952 214.561537 
L 131.574857 208.87307 
L 130.554514 201.997072 
L 129.534171 192.62093 
L 128.513829 179.616962 
L 127.493486 161.532513 
L 126.473143 136.587233 
L 125.4528 102.170992 
L 124.432457 54.925538 
L 123.602535 -1 
L 123.602535 -1 
" clip-path="url(#p487b9b4dae)" style="fill: none; stroke: #a31f5c; stroke-width: 0.5; stroke-linecap: square"/>
   </g>
   <g id="line2d_23">
    <path d="M 363.702857 307.832111 
L 363.192686 307.681544 
L 359.621486 307.813213 
L 356.560457 307.920064 
L 352.479086 307.970475 
L 350.4384 307.976425 
L 345.846857 307.933064 
L 342.275657 307.836876 
L 327.480686 306.710743 
L 322.889143 307.009718 
L 321.8688 307.20953 
L 320.848457 307.109135 
L 319.828114 307.152102 
L 317.277257 307.279554 
L 307.584 306.928406 
L 306.053486 306.761926 
L 304.522971 306.639329 
L 301.461943 306.203522 
L 296.8704 305.193517 
L 295.850057 304.920772 
L 293.809371 304.406964 
L 291.768686 303.808166 
L 289.728 303.082876 
L 287.177143 302.052603 
L 280.544914 298.781044 
L 276.973714 296.715137 
L 273.912686 294.92795 
L 256.566857 285.50345 
L 255.546514 284.993711 
L 252.485486 283.38884 
L 245.343086 279.406558 
L 240.751543 275.88827 
L 238.710857 273.78361 
L 236.670171 271.151785 
L 235.139657 268.815094 
L 233.609143 266.106281 
L 232.078629 262.994216 
L 230.548114 259.485488 
L 229.0176 255.594973 
L 226.976914 249.774456 
L 224.936229 243.327558 
L 222.895543 236.312904 
L 219.834514 224.937934 
L 213.202286 198.07166 
L 209.120914 181.700683 
L 206.059886 170.262247 
L 203.509029 161.557384 
L 201.468343 155.369015 
L 199.937829 151.309737 
L 198.917486 148.830451 
L 197.386971 145.70601 
L 195.856457 143.170032 
L 194.325943 141.209272 
L 193.3056 140.283819 
L 192.285257 139.62817 
L 191.264914 139.277221 
L 190.754743 139.190908 
L 189.7344 139.268999 
L 188.714057 139.634607 
L 187.693714 140.362095 
L 186.1632 141.906782 
L 185.142857 143.408761 
L 184.122514 145.274657 
L 182.592 148.491305 
L 180.551314 153.525445 
L 178.000457 160.940965 
L 175.4496 169.352801 
L 172.898743 178.746992 
L 169.327543 192.636574 
L 166.266514 204.052626 
L 162.695314 216.348126 
L 157.083429 233.341825 
L 155.042743 238.156368 
L 153.512229 241.205757 
L 151.981714 243.636977 
L 150.961371 244.952729 
L 148.920686 246.620507 
L 147.900343 246.951312 
L 146.88 246.849395 
L 145.859657 246.368283 
L 144.839314 245.513294 
L 144.329143 244.693942 
L 143.818971 244.12029 
L 143.3088 241.883665 
L 142.798629 242.396745 
L 141.268114 239.028626 
L 140.247771 236.400764 
L 138.717257 231.948173 
L 138.207086 230.278841 
L 137.696914 228.0525 
L 137.186743 226.838751 
L 136.1664 223.340157 
L 135.656229 220.809751 
L 135.146057 219.688738 
L 133.615543 214.816842 
L 133.105371 206.091973 
L 132.5952 203.941959 
L 131.574857 198.255455 
L 130.554514 191.02745 
L 129.534171 181.380056 
L 128.513829 168.046367 
L 127.493486 149.498114 
L 126.473143 124.159747 
L 125.4528 89.587918 
L 124.432457 41.700495 
L 123.770609 -1 
L 123.770609 -1 
" clip-path="url(#p487b9b4dae)" style="fill: none; stroke: #991f66; stroke-width: 0.5; stroke-linecap: square"/>
   </g>
   <g id="line2d_24">
    <path d="M 363.702857 308.256259 
L 362.682514 308.080559 
L 361.152 308.123321 
L 358.090971 308.131992 
L 341.255314 307.773732 
L 337.173943 307.459833 
L 334.623086 307.139523 
L 332.072229 307.037228 
L 330.031543 307.009233 
L 328.501029 306.865062 
L 326.460343 306.842651 
L 324.929829 306.998351 
L 321.8688 307.366839 
L 321.358629 307.256886 
L 316.256914 307.312918 
L 313.706057 307.233849 
L 308.604343 306.959067 
L 299.931429 305.684296 
L 298.400914 305.318159 
L 296.8704 304.814755 
L 294.829714 304.203863 
L 291.258514 302.956686 
L 284.626286 299.634402 
L 283.095771 298.710315 
L 280.034743 296.79847 
L 276.463543 294.376318 
L 274.422857 292.95361 
L 271.872 291.115921 
L 266.770286 287.788421 
L 264.7296 286.453855 
L 257.5872 281.85016 
L 254.526171 279.971113 
L 252.995657 279.052229 
L 248.404114 276.406354 
L 246.8736 275.634589 
L 241.261714 271.852385 
L 239.7312 270.633299 
L 238.710857 269.754819 
L 236.16 267.084613 
L 234.629486 265.077322 
L 233.098971 262.848516 
L 231.058286 259.384213 
L 229.0176 255.352815 
L 227.487086 252.010454 
L 224.936229 245.70475 
L 222.385371 238.595369 
L 220.344686 232.427138 
L 217.793829 224.338277 
L 212.181943 205.376851 
L 207.080229 188.314174 
L 204.529371 180.28895 
L 200.958171 170.125938 
L 198.917486 165.181191 
L 196.8768 160.981235 
L 195.856457 159.164589 
L 193.815771 156.148986 
L 192.285257 154.455016 
L 190.754743 153.24395 
L 189.7344 152.804441 
L 188.714057 152.595227 
L 187.693714 152.717625 
L 186.673371 152.960121 
L 185.142857 154.179396 
L 184.122514 155.344688 
L 182.592 157.509269 
L 180.041143 162.235299 
L 178.510629 165.523707 
L 176.469943 170.541034 
L 174.939429 174.787517 
L 172.388571 182.749242 
L 169.837714 191.308788 
L 166.266514 203.01073 
L 164.225829 209.338297 
L 158.613943 225.561497 
L 156.573257 230.773761 
L 154.0224 236.015891 
L 152.491886 238.495416 
L 151.471543 239.859122 
L 150.961371 240.472705 
L 148.920686 242.087268 
L 147.900343 242.351428 
L 146.88 242.208179 
L 146.369829 241.986884 
L 145.349486 241.191767 
L 144.839314 240.675878 
L 144.329143 239.646545 
L 143.818971 239.109487 
L 143.3088 236.790237 
L 142.798629 237.152917 
L 141.268114 233.45922 
L 140.757943 231.758358 
L 139.7376 228.95202 
L 138.207086 223.716743 
L 137.696914 221.254667 
L 137.186743 219.941624 
L 136.1664 216.137532 
L 135.656229 213.478865 
L 135.146057 212.445236 
L 133.615543 207.2648 
L 133.105371 199.48118 
L 132.5952 197.436777 
L 131.574857 191.726844 
L 130.554514 184.695806 
L 129.534171 175.403552 
L 128.513829 162.593412 
L 128.003657 154.561354 
L 126.983314 133.429248 
L 125.962971 104.588473 
L 124.942629 65.1815 
L 124.432457 39.866502 
L 123.783908 -1 
L 123.783908 -1 
" clip-path="url(#p487b9b4dae)" style="fill: none; stroke: #8f1f70; stroke-width: 0.5; stroke-linecap: square"/>
   </g>
   <g id="line2d_25">
    <path d="M 363.702857 308.011824 
L 363.192686 307.820873 
L 362.682514 307.772676 
L 361.662171 307.83792 
L 342.785829 307.828769 
L 339.214629 307.70856 
L 337.173943 307.475176 
L 332.072229 307.115304 
L 326.460343 306.8925 
L 324.929829 307.01669 
L 322.378971 307.216596 
L 321.8688 307.390235 
L 321.358629 307.262422 
L 313.706057 307.388903 
L 308.604343 307.106711 
L 301.972114 306.214656 
L 297.890743 305.298767 
L 295.850057 304.556807 
L 294.319543 304.057664 
L 291.258514 302.886987 
L 286.1568 300.249065 
L 281.055086 297.034697 
L 273.912686 291.81788 
L 269.831314 288.841801 
L 267.790629 287.40949 
L 253.505829 277.835115 
L 248.404114 274.864119 
L 246.363429 273.773855 
L 245.343086 273.111855 
L 244.322743 272.466294 
L 241.771886 270.971892 
L 237.690514 267.988345 
L 235.649829 266.066237 
L 233.609143 263.729334 
L 232.078629 261.776786 
L 229.527771 257.892563 
L 226.976914 253.280769 
L 225.4464 250.180108 
L 223.915886 246.795162 
L 220.854857 239.327226 
L 217.793829 231.003323 
L 215.753143 225.082743 
L 211.1616 211.224943 
L 204.0192 189.765495 
L 200.448 179.969783 
L 198.407314 175.032385 
L 195.856457 169.69566 
L 193.815771 166.15742 
L 191.775086 163.327621 
L 190.754743 162.225655 
L 189.7344 161.29013 
L 188.714057 160.70036 
L 187.693714 160.362562 
L 186.1632 160.267393 
L 185.142857 160.684115 
L 184.122514 161.368737 
L 182.592 162.871814 
L 181.061486 164.820096 
L 179.0208 168.029898 
L 177.490286 170.901254 
L 175.959771 174.170973 
L 174.429257 177.927309 
L 172.388571 183.662752 
L 169.327543 193.005843 
L 165.246171 205.155252 
L 159.124114 222.041166 
L 157.083429 227.210148 
L 155.552914 230.642533 
L 154.0224 233.590309 
L 153.002057 235.26077 
L 150.961371 238.004957 
L 149.430857 239.413677 
L 148.410514 239.91699 
L 147.390171 239.988056 
L 146.88 239.871546 
L 145.859657 239.347019 
L 144.839314 238.27301 
L 144.329143 237.203257 
L 143.818971 236.725858 
L 143.3088 234.246929 
L 142.798629 234.626911 
L 140.757943 228.982956 
L 139.7376 225.891567 
L 138.207086 220.37843 
L 137.696914 217.905964 
L 137.186743 216.480318 
L 136.1664 212.258347 
L 135.656229 209.581684 
L 135.146057 208.25964 
L 134.125714 204.335575 
L 133.615543 203.105779 
L 133.105371 193.619644 
L 132.5952 191.269801 
L 131.064686 181.694471 
L 130.044343 172.9874 
L 129.024 161.488293 
L 128.003657 145.306578 
L 126.983314 123.069255 
L 125.962971 92.951457 
L 124.942629 52.650423 
L 123.974216 -1 
L 123.974216 -1 
" clip-path="url(#p487b9b4dae)" style="fill: none; stroke: #851f7a; stroke-width: 0.5; stroke-linecap: square"/>
   </g>
   <g id="line2d_26">
    <path d="M 363.702857 308.376754 
L 363.192686 308.173596 
L 357.070629 308.199249 
L 354.0096 308.170858 
L 343.296 307.930009 
L 341.765486 307.846721 
L 338.194286 307.584 
L 332.5824 306.995497 
L 331.562057 306.985264 
L 329.521371 306.927624 
L 327.990857 306.756048 
L 325.44 306.810927 
L 324.419657 306.934645 
L 320.848457 307.095355 
L 317.277257 307.159374 
L 314.7264 307.008494 
L 311.665371 306.818589 
L 310.134857 306.720819 
L 307.584 306.444297 
L 305.543314 306.121343 
L 300.951771 305.266326 
L 296.8704 303.941067 
L 291.768686 301.83759 
L 288.707657 300.214985 
L 286.666971 298.880901 
L 284.116114 297.125095 
L 280.544914 294.441387 
L 278.504229 292.769273 
L 272.892343 288.077431 
L 270.341486 285.965975 
L 256.056686 274.867355 
L 252.485486 272.403309 
L 248.404114 269.857182 
L 239.221029 264.594842 
L 235.139657 261.627004 
L 232.5888 259.174917 
L 229.527771 255.506784 
L 227.997257 253.399546 
L 224.426057 247.378715 
L 221.8752 242.246366 
L 219.324343 236.508358 
L 215.753143 227.576252 
L 212.181943 217.981102 
L 202.488686 190.99163 
L 198.407314 180.632094 
L 195.856457 175.009704 
L 194.325943 172.015738 
L 192.285257 168.483683 
L 190.244571 165.71967 
L 188.714057 164.259062 
L 187.693714 163.619302 
L 186.1632 163.071485 
L 185.653029 163.020926 
L 184.122514 163.500776 
L 183.102171 164.077276 
L 181.571657 165.35775 
L 179.530971 167.702411 
L 177.490286 170.684666 
L 175.959771 173.414961 
L 174.429257 176.687587 
L 172.388571 181.735923 
L 167.797029 194.651397 
L 162.695314 208.061458 
L 156.573257 223.277631 
L 155.042743 226.282535 
L 153.512229 228.90209 
L 151.981714 231.052091 
L 150.961371 232.235076 
L 148.920686 233.763114 
L 147.390171 233.922826 
L 146.369829 233.383469 
L 145.349486 232.475794 
L 144.839314 231.738696 
L 143.818971 229.932116 
L 143.3088 227.406151 
L 142.798629 227.64525 
L 141.268114 223.194193 
L 140.247771 219.728234 
L 138.717257 214.020271 
L 138.207086 211.877103 
L 137.696914 209.141165 
L 137.186743 207.559646 
L 136.1664 203.108027 
L 135.656229 200.327802 
L 134.635886 197.012766 
L 134.125714 194.851754 
L 133.615543 193.492621 
L 133.105371 184.572688 
L 132.085029 179.277415 
L 131.064686 172.31671 
L 130.044343 163.521158 
L 129.024 151.815006 
L 128.003657 135.427924 
L 126.983314 113.109746 
L 125.962971 83.389332 
L 124.942629 43.631159 
L 124.099206 -1 
L 124.099206 -1 
" clip-path="url(#p487b9b4dae)" style="fill: none; stroke: #7a1f85; stroke-width: 0.5; stroke-linecap: square"/>
   </g>
   <g id="line2d_27">
    <path d="M 363.702857 308.528874 
L 363.192686 308.343695 
L 361.662171 308.367477 
L 358.601143 308.321456 
L 356.050286 308.327808 
L 344.826514 308.01751 
L 339.214629 307.661095 
L 333.602743 306.9444 
L 332.5824 306.933755 
L 325.44 306.630555 
L 320.338286 306.934532 
L 319.317943 306.929946 
L 318.2976 306.977191 
L 315.236571 306.944972 
L 311.1552 306.712247 
L 307.584 306.425376 
L 301.972114 305.449357 
L 299.931429 304.93754 
L 296.8704 303.91828 
L 291.258514 301.537711 
L 288.707657 300.120723 
L 285.136457 297.753768 
L 283.095771 296.313551 
L 280.544914 294.325209 
L 273.912686 288.758959 
L 266.260114 282.508416 
L 264.7296 281.321063 
L 261.668571 278.898893 
L 258.097371 276.199043 
L 252.995657 272.554834 
L 251.465143 271.570964 
L 248.914286 270.036314 
L 245.853257 268.415736 
L 244.832914 267.660209 
L 239.221029 264.813065 
L 236.670171 263.294811 
L 235.139657 262.252178 
L 232.078629 259.75508 
L 230.037943 257.708453 
L 227.997257 255.338099 
L 225.4464 251.713479 
L 223.915886 249.289496 
L 221.365029 244.591469 
L 218.814171 239.21207 
L 215.242971 230.663588 
L 212.181943 222.779161 
L 208.610743 213.145362 
L 201.978514 194.727213 
L 197.897143 184.065343 
L 195.346286 178.214151 
L 193.3056 174.019733 
L 191.264914 170.393672 
L 189.7344 168.233004 
L 188.203886 166.687511 
L 187.183543 165.939403 
L 186.1632 165.354668 
L 185.142857 165.242289 
L 184.122514 165.377879 
L 182.592 166.001448 
L 181.571657 166.709413 
L 180.551314 167.602086 
L 179.0208 169.22029 
L 178.000457 170.480963 
L 175.959771 173.750602 
L 174.429257 176.827656 
L 172.898743 180.438754 
L 169.837714 188.671566 
L 162.695314 207.631412 
L 159.124114 216.834967 
L 157.083429 221.862326 
L 155.552914 225.114544 
L 154.0224 228.033551 
L 151.981714 231.19707 
L 150.4512 232.921752 
L 149.430857 233.905318 
L 148.410514 234.462658 
L 147.390171 234.574964 
L 146.88 234.415417 
L 145.859657 233.823869 
L 145.349486 233.376012 
L 144.839314 232.735148 
L 144.329143 231.778811 
L 143.818971 231.107796 
L 143.3088 228.546162 
L 142.798629 228.907759 
L 141.268114 224.594835 
L 140.247771 221.182191 
L 138.717257 215.555538 
L 138.207086 213.506436 
L 137.696914 210.778296 
L 137.186743 209.331296 
L 136.1664 204.979717 
L 135.656229 202.348074 
L 135.146057 201.165962 
L 134.635886 199.578502 
L 134.125714 197.167996 
L 133.615543 196.062765 
L 133.105371 186.64609 
L 132.085029 181.868669 
L 131.064686 175.814 
L 130.044343 168.52323 
L 129.534171 164.045406 
L 128.513829 152.256642 
L 128.003657 144.847016 
L 126.983314 124.967731 
L 125.962971 97.823821 
L 124.942629 59.509389 
L 124.432457 34.902872 
L 123.846732 -1 
L 123.846732 -1 
" clip-path="url(#p487b9b4dae)" style="fill: none; stroke: #701f8f; stroke-width: 0.5; stroke-linecap: square"/>
   </g>
   <g id="line2d_28">
    <path d="M 363.702857 308.227065 
L 363.192686 308.025242 
L 360.131657 308.102806 
L 359.111314 308.085503 
L 357.070629 308.11805 
L 341.255314 307.767673 
L 337.173943 307.429536 
L 333.092571 307.017737 
L 330.031543 306.925483 
L 325.44 306.840715 
L 322.378971 307.093468 
L 321.8688 307.212525 
L 321.358629 307.090762 
L 318.807771 307.197079 
L 316.767086 307.125921 
L 312.175543 306.897033 
L 306.053486 306.249763 
L 304.0128 305.901349 
L 300.951771 305.280505 
L 296.8704 303.960541 
L 295.339886 303.37304 
L 293.809371 302.783898 
L 291.258514 301.553009 
L 289.217829 300.418005 
L 286.666971 298.798297 
L 285.136457 297.725067 
L 282.075429 295.429703 
L 280.034743 293.753732 
L 273.912686 288.46106 
L 264.219429 280.246222 
L 262.178743 278.588363 
L 258.607543 275.702434 
L 253.505829 271.850767 
L 249.934629 269.447503 
L 243.3024 265.735189 
L 239.221029 263.843886 
L 236.16 262.289771 
L 233.098971 260.427881 
L 230.548114 258.548904 
L 227.997257 256.182812 
L 226.466743 254.532637 
L 223.915886 251.235954 
L 222.385371 248.932162 
L 220.854857 246.409065 
L 218.304 241.66215 
L 214.7328 234.005654 
L 212.181943 228.104167 
L 205.039543 210.038844 
L 196.366629 187.447195 
L 193.815771 181.605876 
L 190.754743 175.667775 
L 189.224229 173.206307 
L 187.693714 171.432567 
L 186.1632 170.063983 
L 185.142857 169.615736 
L 184.122514 169.46829 
L 183.102171 169.517501 
L 181.571657 169.988654 
L 180.041143 170.892178 
L 178.000457 172.617422 
L 175.959771 175.218101 
L 174.429257 177.8739 
L 172.898743 180.994903 
L 170.858057 185.867084 
L 165.246171 200.036701 
L 161.674971 208.650466 
L 156.063086 222.161096 
L 153.512229 226.883531 
L 151.471543 229.746309 
L 150.961371 230.352701 
L 149.941029 231.293632 
L 149.430857 231.726467 
L 148.410514 232.238067 
L 147.900343 232.37585 
L 146.88 232.211254 
L 145.859657 231.630386 
L 144.839314 230.49106 
L 143.818971 228.740332 
L 143.3088 226.161892 
L 142.798629 226.338331 
L 141.268114 221.965888 
L 138.207086 210.613097 
L 137.696914 207.82839 
L 137.186743 206.317905 
L 136.1664 202.033097 
L 135.656229 199.126329 
L 135.146057 197.668504 
L 134.125714 193.739231 
L 133.615543 192.682128 
L 133.105371 184.069234 
L 132.5952 181.923661 
L 131.064686 172.919042 
L 130.044343 165.235184 
L 129.024 154.689473 
L 128.003657 140.144348 
L 126.983314 119.777731 
L 125.962971 91.700305 
L 124.942629 53.106446 
L 124.432457 28.404654 
L 123.937703 -1 
L 123.937703 -1 
" clip-path="url(#p487b9b4dae)" style="fill: none; stroke: #661f99; stroke-width: 0.5; stroke-linecap: square"/>
   </g>
   <g id="line2d_29">
    <path d="M 363.702857 308.520279 
L 363.192686 308.345448 
L 361.152 308.31069 
L 354.519771 308.282523 
L 352.989257 308.257094 
L 348.397714 308.111892 
L 347.377371 308.07843 
L 344.316343 308.015501 
L 342.275657 307.901011 
L 339.7248 307.727022 
L 337.173943 307.440001 
L 334.623086 307.083646 
L 332.072229 306.923458 
L 331.051886 306.903437 
L 327.990857 306.64124 
L 326.970514 306.589922 
L 320.338286 306.920877 
L 317.787429 306.993128 
L 316.256914 306.966663 
L 312.685714 306.792543 
L 310.134857 306.589517 
L 305.543314 306.053453 
L 300.4416 304.964246 
L 297.380571 303.994841 
L 295.850057 303.319686 
L 293.2992 302.25298 
L 289.217829 299.963023 
L 285.646629 297.460902 
L 284.116114 296.25323 
L 279.0144 291.818552 
L 272.892343 286.055472 
L 269.831314 283.161829 
L 256.566857 271.408692 
L 254.016 269.340506 
L 250.4448 266.738696 
L 247.383771 264.864103 
L 245.343086 263.54549 
L 244.322743 262.959859 
L 242.792229 262.212009 
L 239.221029 260.564246 
L 233.609143 257.887447 
L 232.078629 257.042845 
L 227.487086 253.716898 
L 225.956571 252.343889 
L 223.915886 250.202793 
L 221.365029 247.142513 
L 218.304 242.640844 
L 215.242971 237.469939 
L 212.692114 232.711683 
L 210.651429 228.655974 
L 208.610743 224.310085 
L 205.549714 217.454939 
L 196.366629 195.755572 
L 193.3056 189.111052 
L 190.754743 184.084883 
L 189.224229 181.488671 
L 187.693714 179.455027 
L 186.673371 178.336196 
L 185.653029 177.500267 
L 184.632686 176.975992 
L 183.612343 176.728208 
L 182.592 176.66578 
L 181.061486 176.884101 
L 179.530971 177.508344 
L 178.510629 178.032752 
L 176.469943 179.720271 
L 175.4496 180.97144 
L 173.919086 183.280308 
L 172.898743 185.123019 
L 171.8784 187.160655 
L 162.695314 207.50034 
L 160.654629 212.063631 
L 157.5936 219.075582 
L 156.063086 222.204965 
L 154.532571 224.978681 
L 151.981714 228.63396 
L 150.961371 229.766782 
L 148.920686 231.294834 
L 148.410514 231.543139 
L 147.390171 231.503624 
L 146.88 231.337468 
L 145.859657 230.659243 
L 145.349486 230.128531 
L 144.839314 229.432408 
L 144.329143 228.401232 
L 143.818971 227.662105 
L 143.3088 224.845173 
L 142.798629 225.030059 
L 141.268114 220.340359 
L 138.207086 208.411372 
L 137.696914 205.497229 
L 137.186743 203.732405 
L 136.1664 199.247378 
L 135.656229 196.156947 
L 134.635886 192.890348 
L 134.125714 190.636031 
L 133.615543 189.4546 
L 133.105371 178.945383 
L 132.5952 176.630687 
L 131.574857 170.504006 
L 130.554514 163.118754 
L 129.534171 153.361347 
L 128.513829 140.097172 
L 127.493486 121.717606 
L 126.473143 96.350582 
L 125.4528 62.413451 
L 124.432457 16.106641 
L 124.145888 -1 
L 124.145888 -1 
" clip-path="url(#p487b9b4dae)" style="fill: none; stroke: #5c1fa3; stroke-width: 0.5; stroke-linecap: square"/>
   </g>
   <g id="line2d_30">
    <path d="M 363.702857 308.353419 
L 363.192686 308.151536 
L 352.479086 308.131359 
L 351.458743 308.070635 
L 338.194286 307.584 
L 333.602743 307.107267 
L 331.051886 307.050839 
L 329.0112 306.917145 
L 326.970514 306.792823 
L 322.889143 307.173576 
L 322.378971 307.185284 
L 321.8688 307.403416 
L 321.358629 307.264272 
L 317.277257 307.352067 
L 309.114514 306.857405 
L 301.461943 305.49767 
L 299.931429 305.086986 
L 294.829714 303.074164 
L 292.789029 302.112051 
L 288.197486 299.286111 
L 285.646629 297.407731 
L 281.565257 294.004857 
L 280.034743 292.598733 
L 273.402514 286.286233 
L 270.851657 283.84355 
L 256.056686 270.562533 
L 250.4448 266.252769 
L 248.914286 265.372392 
L 246.363429 263.907899 
L 243.3024 262.178548 
L 241.771886 261.563264 
L 239.7312 260.765486 
L 231.568457 257.42221 
L 227.997257 255.381296 
L 225.4464 253.507685 
L 223.405714 251.726146 
L 219.834514 247.700713 
L 218.304 245.747896 
L 216.263314 242.817178 
L 213.712457 238.819701 
L 209.631086 231.536663 
L 205.549714 222.983369 
L 202.488686 216.006069 
L 193.3056 194.743667 
L 190.244571 188.31912 
L 188.714057 185.58301 
L 187.693714 184.032032 
L 185.653029 181.615451 
L 184.632686 180.874639 
L 183.102171 180.192726 
L 182.081829 179.974564 
L 180.041143 180.011958 
L 178.510629 180.397115 
L 177.490286 180.888756 
L 176.469943 181.524102 
L 175.4496 182.476573 
L 174.429257 183.723406 
L 172.898743 186.029987 
L 171.368229 188.867559 
L 161.674971 208.7862 
L 158.613943 215.49702 
L 156.573257 219.832685 
L 155.552914 221.675773 
L 153.512229 224.985218 
L 152.491886 226.465288 
L 150.961371 228.251889 
L 148.920686 229.801678 
L 148.410514 230.022946 
L 147.900343 230.122021 
L 147.390171 230.09497 
L 146.369829 229.592689 
L 145.859657 229.200157 
L 144.839314 228.012843 
L 144.329143 226.932674 
L 143.818971 226.129685 
L 143.3088 223.324359 
L 142.798629 223.555131 
L 141.268114 218.82427 
L 140.247771 215.055277 
L 138.207086 206.738228 
L 137.696914 203.827865 
L 137.186743 202.110771 
L 136.1664 197.570968 
L 135.656229 194.674366 
L 134.635886 191.525565 
L 134.125714 189.168848 
L 133.615543 188.359686 
L 133.105371 179.28098 
L 132.085029 174.573138 
L 130.554514 165.320299 
L 129.534171 156.914597 
L 128.513829 145.602471 
L 127.493486 129.663926 
L 126.473143 107.128076 
L 125.4528 75.495821 
L 124.432457 30.901843 
L 123.892337 -1 
L 123.892337 -1 
" clip-path="url(#p487b9b4dae)" style="fill: none; stroke: #521fad; stroke-width: 0.5; stroke-linecap: square"/>
   </g>
   <g id="line2d_31">
    <path d="M 363.702857 307.971598 
L 363.192686 307.818396 
L 361.152 307.843481 
L 356.560457 307.977359 
L 343.296 307.871999 
L 341.255314 307.79564 
L 340.745143 307.820834 
L 340.234971 307.726757 
L 339.214629 307.694577 
L 333.602743 307.105418 
L 329.521371 306.941982 
L 326.460343 306.779837 
L 323.399314 307.018794 
L 318.2976 307.171729 
L 313.195886 307.052909 
L 309.114514 306.764924 
L 303.502629 305.856861 
L 301.972114 305.510027 
L 300.4416 305.101991 
L 296.8704 303.838485 
L 295.850057 303.373287 
L 293.809371 302.500162 
L 290.238171 300.546669 
L 287.177143 298.482261 
L 282.075429 294.412936 
L 274.422857 287.309151 
L 271.361829 284.433703 
L 266.260114 279.831585 
L 263.199086 277.089443 
L 255.036343 270.168428 
L 251.465143 267.501956 
L 248.914286 265.883877 
L 246.363429 264.438067 
L 245.853257 264.209235 
L 244.832914 263.529682 
L 242.792229 262.641186 
L 230.548114 258.08961 
L 227.487086 256.486305 
L 224.936229 254.773097 
L 223.405714 253.557342 
L 221.8752 252.144223 
L 219.834514 250.027749 
L 217.283657 246.88641 
L 215.242971 244.038674 
L 211.671771 238.373107 
L 209.120914 233.69907 
L 206.570057 228.54702 
L 204.0192 222.932032 
L 198.407314 209.634924 
L 190.244571 190.685811 
L 188.714057 187.708605 
L 187.183543 185.286182 
L 186.1632 183.841331 
L 185.142857 182.837548 
L 184.122514 182.042688 
L 183.102171 181.494422 
L 182.081829 181.124783 
L 181.061486 180.890733 
L 179.530971 180.888578 
L 178.000457 181.164027 
L 176.469943 181.884337 
L 175.4496 182.691226 
L 174.429257 183.80937 
L 173.408914 185.17921 
L 171.368229 188.659807 
L 168.817371 193.750638 
L 165.756343 199.901487 
L 161.674971 208.032964 
L 156.573257 219.052022 
L 155.042743 221.850204 
L 153.512229 224.279943 
L 151.471543 226.987694 
L 149.941029 228.537814 
L 148.410514 229.457497 
L 147.390171 229.550042 
L 146.88 229.40407 
L 145.859657 228.757476 
L 145.349486 228.259688 
L 144.839314 227.53183 
L 143.818971 225.758692 
L 143.3088 222.981116 
L 142.798629 223.213005 
L 141.268114 218.470916 
L 140.247771 214.735358 
L 138.717257 208.542191 
L 138.207086 206.408064 
L 137.696914 203.467182 
L 137.186743 201.746974 
L 136.1664 197.154769 
L 135.656229 194.153084 
L 134.635886 191.054564 
L 134.125714 188.914939 
L 133.615543 187.861774 
L 133.105371 177.565129 
L 132.5952 175.402769 
L 131.064686 166.878013 
L 130.044343 159.72578 
L 129.024 150.202383 
L 128.003657 136.80854 
L 126.983314 117.783992 
L 125.962971 91.287337 
L 124.942629 53.735659 
L 124.432457 29.357124 
L 123.923441 -1 
L 123.923441 -1 
" clip-path="url(#p487b9b4dae)" style="fill: none; stroke: #471fb8; stroke-width: 0.5; stroke-linecap: square"/>
   </g>
   <g id="line2d_32">
    <path d="M 363.702857 308.190479 
L 363.192686 308.017025 
L 361.662171 308.074002 
L 359.621486 308.067009 
L 357.070629 308.08732 
L 347.377371 307.992449 
L 342.785829 307.859615 
L 340.234971 307.759023 
L 336.1536 307.320064 
L 334.623086 307.100611 
L 333.092571 307.076494 
L 326.970514 306.760023 
L 321.358629 307.160897 
L 320.338286 307.157566 
L 318.2976 307.211519 
L 308.604343 306.572516 
L 305.033143 306.033889 
L 301.972114 305.368783 
L 299.931429 304.796272 
L 297.890743 304.074243 
L 296.8704 303.600291 
L 295.339886 302.928651 
L 292.789029 301.708454 
L 290.238171 300.168255 
L 288.197486 298.798819 
L 285.136457 296.435094 
L 280.544914 292.450919 
L 279.0144 290.994208 
L 266.260114 278.83608 
L 263.709257 276.485097 
L 260.138057 273.262273 
L 259.117714 272.365043 
L 254.526171 268.473329 
L 250.954971 265.791874 
L 246.8736 263.371943 
L 245.343086 262.520054 
L 244.322743 261.964412 
L 241.771886 260.921673 
L 236.16 259.21013 
L 235.139657 258.919574 
L 229.0176 256.964851 
L 224.426057 254.576015 
L 222.385371 253.120466 
L 220.344686 251.362324 
L 218.814171 249.851217 
L 216.263314 246.943313 
L 214.7328 245.021936 
L 212.181943 241.409139 
L 209.631086 237.269153 
L 207.5904 233.464241 
L 204.529371 227.239543 
L 200.958171 219.171221 
L 196.366629 208.323005 
L 189.7344 192.7525 
L 187.693714 188.899131 
L 185.653029 185.930781 
L 184.632686 184.89439 
L 183.102171 183.758428 
L 181.571657 183.071757 
L 180.041143 182.68549 
L 178.000457 182.662252 
L 176.980114 182.983131 
L 175.959771 183.396535 
L 174.429257 184.718803 
L 172.898743 186.65051 
L 170.858057 190.094269 
L 169.327543 192.94531 
L 165.246171 200.670269 
L 162.185143 206.425083 
L 160.144457 210.626725 
L 157.083429 217.170959 
L 155.042743 220.933263 
L 153.002057 224.006848 
L 151.471543 225.966643 
L 149.941029 227.473447 
L 148.920686 228.194373 
L 148.410514 228.460806 
L 147.390171 228.513823 
L 146.369829 228.053192 
L 145.859657 227.692706 
L 144.839314 226.508809 
L 144.329143 225.418178 
L 143.818971 224.61398 
L 143.3088 221.915745 
L 142.798629 222.009784 
L 141.268114 217.297369 
L 140.247771 213.444846 
L 139.227429 209.451168 
L 138.717257 206.679416 
L 138.207086 204.98961 
L 135.656229 193.847446 
L 135.146057 191.911364 
L 134.635886 189.215607 
L 134.125714 188.40823 
L 133.615543 187.067919 
L 133.105371 178.064027 
L 132.085029 173.772867 
L 131.064686 168.437226 
L 130.044343 162.001405 
L 129.024 153.656518 
L 128.513829 148.300879 
L 127.493486 133.940475 
L 126.473143 113.294577 
L 125.4528 83.384934 
L 124.432457 39.565791 
L 123.768213 -1 
L 123.768213 -1 
" clip-path="url(#p487b9b4dae)" style="fill: none; stroke: #3d1fc2; stroke-width: 0.5; stroke-linecap: square"/>
   </g>
   <g id="line2d_33">
    <path d="M 363.702857 307.891441 
L 363.192686 307.715124 
L 355.540114 307.906445 
L 347.377371 307.89963 
L 344.316343 307.853177 
L 341.765486 307.780519 
L 336.1536 307.275702 
L 334.112914 307.02666 
L 332.5824 307.01427 
L 326.970514 306.726975 
L 324.419657 306.878358 
L 322.378971 307.018157 
L 321.8688 307.195335 
L 321.358629 307.044817 
L 317.787429 307.173791 
L 312.685714 306.978023 
L 307.584 306.499691 
L 306.053486 306.264898 
L 299.421257 304.684014 
L 292.278857 301.445029 
L 286.666971 297.602783 
L 280.544914 292.299459 
L 279.0144 290.783969 
L 267.280457 279.177117 
L 262.688914 274.828102 
L 260.648229 272.928015 
L 254.016 267.096342 
L 248.914286 263.36282 
L 244.322743 260.746606 
L 242.792229 260.097896 
L 238.200686 258.557169 
L 236.670171 258.179308 
L 229.527771 256.342882 
L 227.487086 255.606947 
L 225.4464 254.782327 
L 223.405714 253.741501 
L 220.344686 251.636299 
L 218.304 249.904922 
L 215.753143 247.310752 
L 213.712457 244.925102 
L 209.631086 239.135353 
L 206.570057 233.688695 
L 204.529371 229.677411 
L 201.468343 223.038986 
L 197.386971 213.69873 
L 189.224229 194.556998 
L 187.693714 191.657673 
L 186.1632 189.153629 
L 184.632686 187.374259 
L 183.102171 186.130504 
L 181.571657 185.282548 
L 180.041143 184.743085 
L 178.510629 184.506775 
L 177.490286 184.581588 
L 175.959771 185.052503 
L 174.939429 185.769192 
L 173.919086 186.714512 
L 172.898743 187.939959 
L 171.368229 190.322966 
L 169.837714 192.933467 
L 165.246171 201.134139 
L 161.674971 207.548065 
L 156.063086 218.78085 
L 153.512229 222.734815 
L 151.981714 224.687003 
L 150.961371 225.725199 
L 149.430857 226.963421 
L 148.410514 227.454903 
L 147.900343 227.521766 
L 147.390171 227.469258 
L 146.369829 226.923516 
L 145.349486 225.95862 
L 144.839314 225.210783 
L 144.329143 224.076593 
L 143.818971 223.253506 
L 143.3088 220.409973 
L 142.798629 220.488309 
L 141.268114 215.403122 
L 138.207086 202.47942 
L 137.696914 199.488646 
L 137.186743 197.668055 
L 135.656229 189.664859 
L 135.146057 188.150997 
L 134.125714 183.957887 
L 133.615543 182.434733 
L 133.105371 171.888837 
L 132.085029 166.60965 
L 131.064686 160.219074 
L 130.044343 152.357871 
L 129.024 141.957081 
L 128.003657 127.40667 
L 126.983314 107.274724 
L 125.962971 79.607318 
L 124.942629 41.338514 
L 124.128393 -1 
L 124.128393 -1 
" clip-path="url(#p487b9b4dae)" style="fill: none; stroke: #331fcc; stroke-width: 0.5; stroke-linecap: square"/>
   </g>
   <g id="line2d_34">
    <path d="M 363.702857 308.11587 
L 362.682514 307.949173 
L 360.131657 307.986309 
L 355.540114 308.010556 
L 353.499429 308.045495 
L 338.704457 307.633409 
L 336.1536 307.319947 
L 334.623086 307.144907 
L 332.5824 307.093171 
L 331.562057 307.064796 
L 330.031543 307.011414 
L 327.480686 306.818797 
L 324.929829 306.971751 
L 323.909486 307.075397 
L 321.358629 307.23348 
L 319.317943 307.277151 
L 316.767086 307.30163 
L 313.706057 307.109704 
L 312.175543 307.046283 
L 306.563657 306.446104 
L 305.033143 306.132207 
L 303.502629 305.834376 
L 299.421257 304.731159 
L 297.890743 304.250952 
L 296.360229 303.45067 
L 294.319543 302.566216 
L 291.258514 300.890727 
L 286.666971 297.650287 
L 284.116114 295.558351 
L 282.075429 293.791364 
L 279.524571 291.372242 
L 275.953371 287.822545 
L 273.402514 285.332028 
L 272.382171 284.304161 
L 269.321143 281.331993 
L 257.077029 269.973925 
L 250.4448 264.714311 
L 248.404114 263.407071 
L 246.363429 262.258589 
L 245.853257 262.030956 
L 244.832914 261.307777 
L 240.751543 259.807913 
L 235.139657 258.464403 
L 233.609143 258.198032 
L 232.5888 257.990395 
L 229.527771 257.325477 
L 226.466743 256.488462 
L 224.936229 255.89276 
L 223.405714 255.187256 
L 221.365029 254.020166 
L 219.324343 252.622708 
L 217.283657 250.93606 
L 215.242971 248.97115 
L 212.692114 246.063953 
L 209.631086 241.794021 
L 207.5904 238.425201 
L 206.059886 235.672118 
L 203.509029 230.579522 
L 198.407314 219.234577 
L 194.325943 209.4783 
L 190.244571 199.417687 
L 188.203886 195.054958 
L 186.673371 192.146341 
L 185.142857 190.047017 
L 183.612343 188.471612 
L 182.081829 187.339034 
L 180.551314 186.534802 
L 179.0208 186.007619 
L 178.000457 185.842725 
L 176.469943 185.900686 
L 175.4496 186.379148 
L 173.919086 187.519115 
L 172.388571 189.394302 
L 171.368229 190.889117 
L 169.837714 193.369369 
L 167.286857 197.831225 
L 162.185143 206.674104 
L 160.144457 210.648437 
L 156.063086 218.778115 
L 153.002057 223.558471 
L 150.961371 225.978528 
L 148.410514 227.753675 
L 147.900343 227.91007 
L 146.88 227.695702 
L 145.859657 227.031488 
L 145.349486 226.485825 
L 144.839314 225.76371 
L 144.329143 224.524258 
L 143.818971 223.851691 
L 143.3088 221.142736 
L 142.798629 221.19081 
L 141.268114 216.252381 
L 138.207086 203.686575 
L 137.696914 200.814154 
L 137.186743 199.017138 
L 135.656229 191.424377 
L 135.146057 190.0497 
L 134.125714 186.200891 
L 133.615543 185.257541 
L 133.105371 176.242479 
L 132.085029 171.927857 
L 130.554514 163.966119 
L 129.534171 157.099274 
L 128.513829 147.833217 
L 127.493486 134.127417 
L 126.983314 125.260172 
L 125.962971 101.203229 
L 124.942629 65.512119 
L 124.432457 41.54334 
L 123.734206 -1 
L 123.734206 -1 
" clip-path="url(#p487b9b4dae)" style="fill: none; stroke: #291fd6; stroke-width: 0.5; stroke-linecap: square"/>
   </g>
   <g id="line2d_35">
    <path d="M 363.702857 307.973237 
L 363.192686 307.817965 
L 361.152 307.855198 
L 354.519771 307.949531 
L 352.989257 307.956409 
L 350.4384 307.951889 
L 347.887543 307.957983 
L 338.704457 307.612945 
L 336.663771 307.399666 
L 334.112914 307.123994 
L 328.501029 306.845775 
L 326.460343 306.779925 
L 325.44 306.860938 
L 322.378971 307.094169 
L 321.8688 307.254124 
L 321.358629 307.126576 
L 316.256914 307.207397 
L 314.7264 307.174982 
L 310.134857 306.815653 
L 308.604343 306.698786 
L 302.482286 305.422604 
L 300.4416 304.872658 
L 298.400914 304.136346 
L 292.789029 301.248676 
L 288.197486 298.030666 
L 284.116114 294.391675 
L 277.483886 287.466103 
L 264.7296 273.156452 
L 256.566857 264.508413 
L 251.465143 259.790931 
L 249.424457 258.168177 
L 246.8736 256.41695 
L 245.853257 255.809378 
L 244.322743 254.832874 
L 242.792229 254.107904 
L 239.7312 253.039099 
L 236.670171 252.342591 
L 235.139657 252.101476 
L 222.895543 251.086769 
L 219.324343 250.19434 
L 217.793829 249.666615 
L 216.263314 249.035122 
L 213.712457 247.566987 
L 212.181943 246.480883 
L 210.651429 245.154663 
L 209.120914 243.580744 
L 206.570057 240.340198 
L 205.039543 238.053722 
L 203.509029 235.555732 
L 200.958171 231.013431 
L 198.917486 227.123733 
L 195.856457 220.823461 
L 191.775086 211.394612 
L 189.224229 205.520956 
L 187.693714 202.394064 
L 185.653029 198.963477 
L 184.632686 197.58295 
L 182.592 195.538804 
L 181.061486 194.348491 
L 179.0208 193.13905 
L 176.980114 192.445598 
L 176.469943 192.356523 
L 175.4496 192.511265 
L 174.429257 192.890514 
L 173.408914 193.554001 
L 172.388571 194.514098 
L 170.347886 196.98967 
L 168.817371 199.11656 
L 167.286857 201.310584 
L 165.756343 203.331578 
L 161.674971 209.125795 
L 160.144457 211.573464 
L 156.573257 217.705551 
L 155.042743 219.81262 
L 153.512229 221.740613 
L 151.981714 223.287005 
L 150.961371 224.178904 
L 150.4512 224.409068 
L 149.941029 224.836635 
L 148.920686 225.288206 
L 147.900343 225.332149 
L 147.390171 225.155504 
L 146.369829 224.460235 
L 145.859657 223.935648 
L 144.839314 222.318158 
L 143.818971 220.070066 
L 143.3088 217.009131 
L 142.798629 216.92453 
L 141.268114 211.338502 
L 136.676571 189.152497 
L 135.656229 183.393659 
L 135.146057 181.685202 
L 134.125714 177.153568 
L 133.615543 175.980041 
L 133.105371 164.44058 
L 132.085029 159.190103 
L 130.554514 149.046984 
L 129.534171 140.17757 
L 129.024 134.921925 
L 128.003657 120.835779 
L 126.983314 101.448928 
L 125.962971 74.599342 
L 124.942629 37.255951 
L 124.188354 -1 
L 124.188354 -1 
" clip-path="url(#p487b9b4dae)" style="fill: none; stroke: #1f1fe0; stroke-width: 0.5; stroke-linecap: square"/>
   </g>
   <g id="patch_3">
    <path d="M 57.6 307.584 
L 57.6 41.472 
" style="fill: none; stroke: #000000; stroke-width: 0.8; stroke-linejoin: miter; stroke-linecap: square"/>
   </g>
   <g id="patch_4">
    <path d="M 414.72 307.584 
L 414.72 41.472 
" style="fill: none; stroke: #000000; stroke-width: 0.8; stroke-linejoin: miter; stroke-linecap: square"/>
   </g>
   <g id="patch_5">
    <path d="M 57.6 307.584 
L 414.72 307.584 
" style="fill: none; stroke: #000000; stroke-width: 0.8; stroke-linejoin: miter; stroke-linecap: square"/>
   </g>
   <g id="patch_6">
    <path d="M 57.6 41.472 
L 414.72 41.472 
" style="fill: none; stroke: #000000; stroke-width: 0.8; stroke-linejoin: miter; stroke-linecap: square"/>
   </g>
   <g id="text_18">
    <!-- IDA Titration of Alizarin:PBA complex &amp; Hydrobenzoin in Acetone  -->
    <g transform="translate(40.079062 22.034625) scale(0.12 -0.12)">
     <defs>
      <path id="DejaVuSans-49" d="M 628 4666 
L 1259 4666 
L 1259 0 
L 628 0 
L 628 4666 
z
" transform="scale(0.015625)"/>
      <path id="DejaVuSans-44" d="M 1259 4147 
L 1259 519 
L 2022 519 
Q 2988 519 3436 956 
Q 3884 1394 3884 2338 
Q 3884 3275 3436 3711 
Q 2988 4147 2022 4147 
L 1259 4147 
z
M 628 4666 
L 1925 4666 
Q 3281 4666 3915 4102 
Q 4550 3538 4550 2338 
Q 4550 1131 3912 565 
Q 3275 0 1925 0 
L 628 0 
L 628 4666 
z
" transform="scale(0.015625)"/>
      <path id="DejaVuSans-54" d="M -19 4666 
L 3928 4666 
L 3928 4134 
L 2272 4134 
L 2272 0 
L 1638 0 
L 1638 4134 
L -19 4134 
L -19 4666 
z
" transform="scale(0.015625)"/>
      <path id="DejaVuSans-69" d="M 603 3500 
L 1178 3500 
L 1178 0 
L 603 0 
L 603 3500 
z
M 603 4863 
L 1178 4863 
L 1178 4134 
L 603 4134 
L 603 4863 
z
" transform="scale(0.015625)"/>
      <path id="DejaVuSans-66" d="M 2375 4863 
L 2375 4384 
L 1825 4384 
Q 1516 4384 1395 4259 
Q 1275 4134 1275 3809 
L 1275 3500 
L 2222 3500 
L 2222 3053 
L 1275 3053 
L 1275 0 
L 697 0 
L 697 3053 
L 147 3053 
L 147 3500 
L 697 3500 
L 697 3744 
Q 697 4328 969 4595 
Q 1241 4863 1831 4863 
L 2375 4863 
z
" transform="scale(0.015625)"/>
      <path id="DejaVuSans-7a" d="M 353 3500 
L 3084 3500 
L 3084 2975 
L 922 459 
L 3084 459 
L 3084 0 
L 275 0 
L 275 525 
L 2438 3041 
L 353 3041 
L 353 3500 
z
" transform="scale(0.015625)"/>
      <path id="DejaVuSans-3a" d="M 750 794 
L 1409 794 
L 1409 0 
L 750 0 
L 750 794 
z
M 750 3309 
L 1409 3309 
L 1409 2516 
L 750 2516 
L 750 3309 
z
" transform="scale(0.015625)"/>
      <path id="DejaVuSans-50" d="M 1259 4147 
L 1259 2394 
L 2053 2394 
Q 2494 2394 2734 2622 
Q 2975 2850 2975 3272 
Q 2975 3691 2734 3919 
Q 2494 4147 2053 4147 
L 1259 4147 
z
M 628 4666 
L 2053 4666 
Q 2838 4666 3239 4311 
Q 3641 3956 3641 3272 
Q 3641 2581 3239 2228 
Q 2838 1875 2053 1875 
L 1259 1875 
L 1259 0 
L 628 0 
L 628 4666 
z
" transform="scale(0.015625)"/>
      <path id="DejaVuSans-42" d="M 1259 2228 
L 1259 519 
L 2272 519 
Q 2781 519 3026 730 
Q 3272 941 3272 1375 
Q 3272 1813 3026 2020 
Q 2781 2228 2272 2228 
L 1259 2228 
z
M 1259 4147 
L 1259 2741 
L 2194 2741 
Q 2656 2741 2882 2914 
Q 3109 3088 3109 3444 
Q 3109 3797 2882 3972 
Q 2656 4147 2194 4147 
L 1259 4147 
z
M 628 4666 
L 2241 4666 
Q 2963 4666 3353 4366 
Q 3744 4066 3744 3513 
Q 3744 3084 3544 2831 
Q 3344 2578 2956 2516 
Q 3422 2416 3680 2098 
Q 3938 1781 3938 1306 
Q 3938 681 3513 340 
Q 3088 0 2303 0 
L 628 0 
L 628 4666 
z
" transform="scale(0.015625)"/>
      <path id="DejaVuSans-70" d="M 1159 525 
L 1159 -1331 
L 581 -1331 
L 581 3500 
L 1159 3500 
L 1159 2969 
Q 1341 3281 1617 3432 
Q 1894 3584 2278 3584 
Q 2916 3584 3314 3078 
Q 3713 2572 3713 1747 
Q 3713 922 3314 415 
Q 2916 -91 2278 -91 
Q 1894 -91 1617 61 
Q 1341 213 1159 525 
z
M 3116 1747 
Q 3116 2381 2855 2742 
Q 2594 3103 2138 3103 
Q 1681 3103 1420 2742 
Q 1159 2381 1159 1747 
Q 1159 1113 1420 752 
Q 1681 391 2138 391 
Q 2594 391 2855 752 
Q 3116 1113 3116 1747 
z
" transform="scale(0.015625)"/>
      <path id="DejaVuSans-78" d="M 3513 3500 
L 2247 1797 
L 3578 0 
L 2900 0 
L 1881 1375 
L 863 0 
L 184 0 
L 1544 1831 
L 300 3500 
L 978 3500 
L 1906 2253 
L 2834 3500 
L 3513 3500 
z
" transform="scale(0.015625)"/>
      <path id="DejaVuSans-26" d="M 1556 2509 
Q 1272 2256 1139 2004 
Q 1006 1753 1006 1478 
Q 1006 1022 1337 719 
Q 1669 416 2169 416 
Q 2466 416 2725 514 
Q 2984 613 3213 813 
L 1556 2509 
z
M 1997 2859 
L 3584 1234 
Q 3769 1513 3872 1830 
Q 3975 2147 3994 2503 
L 4575 2503 
Q 4538 2091 4375 1687 
Q 4213 1284 3922 891 
L 4794 0 
L 4006 0 
L 3559 459 
Q 3234 181 2878 45 
Q 2522 -91 2113 -91 
Q 1359 -91 881 339 
Q 403 769 403 1441 
Q 403 1841 612 2192 
Q 822 2544 1241 2853 
Q 1091 3050 1012 3245 
Q 934 3441 934 3628 
Q 934 4134 1281 4442 
Q 1628 4750 2203 4750 
Q 2463 4750 2720 4694 
Q 2978 4638 3244 4525 
L 3244 3956 
Q 2972 4103 2725 4179 
Q 2478 4256 2266 4256 
Q 1938 4256 1733 4082 
Q 1528 3909 1528 3634 
Q 1528 3475 1620 3314 
Q 1713 3153 1997 2859 
z
" transform="scale(0.015625)"/>
      <path id="DejaVuSans-48" d="M 628 4666 
L 1259 4666 
L 1259 2753 
L 3553 2753 
L 3553 4666 
L 4184 4666 
L 4184 0 
L 3553 0 
L 3553 2222 
L 1259 2222 
L 1259 0 
L 628 0 
L 628 4666 
z
" transform="scale(0.015625)"/>
      <path id="DejaVuSans-79" d="M 2059 -325 
Q 1816 -950 1584 -1140 
Q 1353 -1331 966 -1331 
L 506 -1331 
L 506 -850 
L 844 -850 
Q 1081 -850 1212 -737 
Q 1344 -625 1503 -206 
L 1606 56 
L 191 3500 
L 800 3500 
L 1894 763 
L 2988 3500 
L 3597 3500 
L 2059 -325 
z
" transform="scale(0.015625)"/>
      <path id="DejaVuSans-64" d="M 2906 2969 
L 2906 4863 
L 3481 4863 
L 3481 0 
L 2906 0 
L 2906 525 
Q 2725 213 2448 61 
Q 2172 -91 1784 -91 
Q 1150 -91 751 415 
Q 353 922 353 1747 
Q 353 2572 751 3078 
Q 1150 3584 1784 3584 
Q 2172 3584 2448 3432 
Q 2725 3281 2906 2969 
z
M 947 1747 
Q 947 1113 1208 752 
Q 1469 391 1925 391 
Q 2381 391 2643 752 
Q 2906 1113 2906 1747 
Q 2906 2381 2643 2742 
Q 2381 3103 1925 3103 
Q 1469 3103 1208 2742 
Q 947 2381 947 1747 
z
" transform="scale(0.015625)"/>
     </defs>
     <use xlink:href="#DejaVuSans-49"/>
     <use xlink:href="#DejaVuSans-44" x="29.492188"/>
     <use xlink:href="#DejaVuSans-41" x="104.744141"/>
     <use xlink:href="#DejaVuSans-20" x="173.152344"/>
     <use xlink:href="#DejaVuSans-54" x="204.939453"/>
     <use xlink:href="#DejaVuSans-69" x="262.898438"/>
     <use xlink:href="#DejaVuSans-74" x="290.681641"/>
     <use xlink:href="#DejaVuSans-72" x="329.890625"/>
     <use xlink:href="#DejaVuSans-61" x="371.003906"/>
     <use xlink:href="#DejaVuSans-74" x="432.283203"/>
     <use xlink:href="#DejaVuSans-69" x="471.492188"/>
     <use xlink:href="#DejaVuSans-6f" x="499.275391"/>
     <use xlink:href="#DejaVuSans-6e" x="560.457031"/>
     <use xlink:href="#DejaVuSans-20" x="623.835938"/>
     <use xlink:href="#DejaVuSans-6f" x="655.623047"/>
     <use xlink:href="#DejaVuSans-66" x="716.804688"/>
     <use xlink:href="#DejaVuSans-20" x="752.009766"/>
     <use xlink:href="#DejaVuSans-41" x="783.796875"/>
     <use xlink:href="#DejaVuSans-6c" x="852.205078"/>
     <use xlink:href="#DejaVuSans-69" x="879.988281"/>
     <use xlink:href="#DejaVuSans-7a" x="907.771484"/>
     <use xlink:href="#DejaVuSans-61" x="960.261719"/>
     <use xlink:href="#DejaVuSans-72" x="1021.541016"/>
     <use xlink:href="#DejaVuSans-69" x="1062.654297"/>
     <use xlink:href="#DejaVuSans-6e" x="1090.4375"/>
     <use xlink:href="#DejaVuSans-3a" x="1153.816406"/>
     <use xlink:href="#DejaVuSans-50" x="1187.507812"/>
     <use xlink:href="#DejaVuSans-42" x="1247.810547"/>
     <use xlink:href="#DejaVuSans-41" x="1316.414062"/>
     <use xlink:href="#DejaVuSans-20" x="1384.822266"/>
     <use xlink:href="#DejaVuSans-63" x="1416.609375"/>
     <use xlink:href="#DejaVuSans-6f" x="1471.589844"/>
     <use xlink:href="#DejaVuSans-6d" x="1532.771484"/>
     <use xlink:href="#DejaVuSans-70" x="1630.183594"/>
     <use xlink:href="#DejaVuSans-6c" x="1693.660156"/>
     <use xlink:href="#DejaVuSans-65" x="1721.443359"/>
     <use xlink:href="#DejaVuSans-78" x="1781.216797"/>
     <use xlink:href="#DejaVuSans-20" x="1840.396484"/>
     <use xlink:href="#DejaVuSans-26" x="1872.183594"/>
     <use xlink:href="#DejaVuSans-20" x="1950.162109"/>
     <use xlink:href="#DejaVuSans-48" x="1981.949219"/>
     <use xlink:href="#DejaVuSans-79" x="2057.144531"/>
     <use xlink:href="#DejaVuSans-64" x="2116.324219"/>
     <use xlink:href="#DejaVuSans-72" x="2179.800781"/>
     <use xlink:href="#DejaVuSans-6f" x="2218.664062"/>
     <use xlink:href="#DejaVuSans-62" x="2279.845703"/>
     <use xlink:href="#DejaVuSans-65" x="2343.322266"/>
     <use xlink:href="#DejaVuSans-6e" x="2404.845703"/>
     <use xlink:href="#DejaVuSans-7a" x="2468.224609"/>
     <use xlink:href="#DejaVuSans-6f" x="2520.714844"/>
     <use xlink:href="#DejaVuSans-69" x="2581.896484"/>
     <use xlink:href="#DejaVuSans-6e" x="2609.679688"/>
     <use xlink:href="#DejaVuSans-20" x="2673.058594"/>
     <use xlink:href="#DejaVuSans-69" x="2704.845703"/>
     <use xlink:href="#DejaVuSans-6e" x="2732.628906"/>
     <use xlink:href="#DejaVuSans-20" x="2796.007812"/>
     <use xlink:href="#DejaVuSans-41" x="2827.794922"/>
     <use xlink:href="#DejaVuSans-63" x="2894.453125"/>
     <use xlink:href="#DejaVuSans-65" x="2949.433594"/>
     <use xlink:href="#DejaVuSans-74" x="3010.957031"/>
     <use xlink:href="#DejaVuSans-6f" x="3050.166016"/>
     <use xlink:href="#DejaVuSans-6e" x="3111.347656"/>
     <use xlink:href="#DejaVuSans-65" x="3174.726562"/>
     <use xlink:href="#DejaVuSans-20" x="3236.25"/>
    </g>
    <!--  -->
    <g transform="translate(236.16 35.472) scale(0.12 -0.12)"/>
   </g>
  </g>
 </g>
 <defs>
  <clipPath id="p487b9b4dae">
   <rect x="57.6" y="41.472" width="357.12" height="266.112"/>
  </clipPath>
 </defs>
</svg>
