<?xml version="1.0" encoding="utf-8" standalone="no"?>
<!DOCTYPE svg PUBLIC "-//W3C//DTD SVG 1.1//EN"
  "http://www.w3.org/Graphics/SVG/1.1/DTD/svg11.dtd">
<svg xmlns:xlink="http://www.w3.org/1999/xlink" width="460.8pt" height="345.6pt" viewBox="0 0 460.8 345.6" xmlns="http://www.w3.org/2000/svg" version="1.1">
 <metadata>
  <rdf:RDF xmlns:dc="http://purl.org/dc/elements/1.1/" xmlns:cc="http://creativecommons.org/ns#" xmlns:rdf="http://www.w3.org/1999/02/22-rdf-syntax-ns#">
   <cc:Work>
    <dc:type rdf:resource="http://purl.org/dc/dcmitype/StillImage"/>
    <dc:date>2024-11-03T21:07:41.022086</dc:date>
    <dc:format>image/svg+xml</dc:format>
    <dc:creator>
     <cc:Agent>
      <dc:title>Matplotlib v3.9.2, https://matplotlib.org/</dc:title>
     </cc:Agent>
    </dc:creator>
   </cc:Work>
  </rdf:RDF>
 </metadata>
 <defs>
  <style type="text/css">*{stroke-linejoin: round; stroke-linecap: butt}</style>
 </defs>
 <g id="figure_1">
  <g id="patch_1">
   <path d="M 0 345.6 
L 460.8 345.6 
L 460.8 0 
L 0 0 
z
" style="fill: #ffffff"/>
  </g>
  <g id="axes_1">
   <g id="patch_2">
    <path d="M 57.6 307.584 
L 414.72 307.584 
L 414.72 41.472 
L 57.6 41.472 
z
" style="fill: #ffffff"/>
   </g>
   <g id="matplotlib.axis_1">
    <g id="xtick_1">
     <g id="line2d_1">
      <defs>
       <path id="m04eb64b060" d="M 0 0 
L 0 3.5 
" style="stroke: #000000; stroke-width: 0.8"/>
      </defs>
      <g>
       <use xlink:href="#m04eb64b060" x="57.6" y="307.584" style="stroke: #000000; stroke-width: 0.8"/>
      </g>
     </g>
     <g id="text_1">
      <!-- 200 -->
      <g transform="translate(48.05625 322.182437) scale(0.1 -0.1)">
       <defs>
        <path id="DejaVuSans-32" d="M 1228 531 
L 3431 531 
L 3431 0 
L 469 0 
L 469 531 
Q 828 903 1448 1529 
Q 2069 2156 2228 2338 
Q 2531 2678 2651 2914 
Q 2772 3150 2772 3378 
Q 2772 3750 2511 3984 
Q 2250 4219 1831 4219 
Q 1534 4219 1204 4116 
Q 875 4013 500 3803 
L 500 4441 
Q 881 4594 1212 4672 
Q 1544 4750 1819 4750 
Q 2544 4750 2975 4387 
Q 3406 4025 3406 3419 
Q 3406 3131 3298 2873 
Q 3191 2616 2906 2266 
Q 2828 2175 2409 1742 
Q 1991 1309 1228 531 
z
" transform="scale(0.015625)"/>
        <path id="DejaVuSans-30" d="M 2034 4250 
Q 1547 4250 1301 3770 
Q 1056 3291 1056 2328 
Q 1056 1369 1301 889 
Q 1547 409 2034 409 
Q 2525 409 2770 889 
Q 3016 1369 3016 2328 
Q 3016 3291 2770 3770 
Q 2525 4250 2034 4250 
z
M 2034 4750 
Q 2819 4750 3233 4129 
Q 3647 3509 3647 2328 
Q 3647 1150 3233 529 
Q 2819 -91 2034 -91 
Q 1250 -91 836 529 
Q 422 1150 422 2328 
Q 422 3509 836 4129 
Q 1250 4750 2034 4750 
z
" transform="scale(0.015625)"/>
       </defs>
       <use xlink:href="#DejaVuSans-32"/>
       <use xlink:href="#DejaVuSans-30" x="63.623047"/>
       <use xlink:href="#DejaVuSans-30" x="127.246094"/>
      </g>
     </g>
    </g>
    <g id="xtick_2">
     <g id="line2d_2">
      <g>
       <use xlink:href="#m04eb64b060" x="108.617143" y="307.584" style="stroke: #000000; stroke-width: 0.8"/>
      </g>
     </g>
     <g id="text_2">
      <!-- 300 -->
      <g transform="translate(99.073393 322.182437) scale(0.1 -0.1)">
       <defs>
        <path id="DejaVuSans-33" d="M 2597 2516 
Q 3050 2419 3304 2112 
Q 3559 1806 3559 1356 
Q 3559 666 3084 287 
Q 2609 -91 1734 -91 
Q 1441 -91 1130 -33 
Q 819 25 488 141 
L 488 750 
Q 750 597 1062 519 
Q 1375 441 1716 441 
Q 2309 441 2620 675 
Q 2931 909 2931 1356 
Q 2931 1769 2642 2001 
Q 2353 2234 1838 2234 
L 1294 2234 
L 1294 2753 
L 1863 2753 
Q 2328 2753 2575 2939 
Q 2822 3125 2822 3475 
Q 2822 3834 2567 4026 
Q 2313 4219 1838 4219 
Q 1578 4219 1281 4162 
Q 984 4106 628 3988 
L 628 4550 
Q 988 4650 1302 4700 
Q 1616 4750 1894 4750 
Q 2613 4750 3031 4423 
Q 3450 4097 3450 3541 
Q 3450 3153 3228 2886 
Q 3006 2619 2597 2516 
z
" transform="scale(0.015625)"/>
       </defs>
       <use xlink:href="#DejaVuSans-33"/>
       <use xlink:href="#DejaVuSans-30" x="63.623047"/>
       <use xlink:href="#DejaVuSans-30" x="127.246094"/>
      </g>
     </g>
    </g>
    <g id="xtick_3">
     <g id="line2d_3">
      <g>
       <use xlink:href="#m04eb64b060" x="159.634286" y="307.584" style="stroke: #000000; stroke-width: 0.8"/>
      </g>
     </g>
     <g id="text_3">
      <!-- 400 -->
      <g transform="translate(150.090536 322.182437) scale(0.1 -0.1)">
       <defs>
        <path id="DejaVuSans-34" d="M 2419 4116 
L 825 1625 
L 2419 1625 
L 2419 4116 
z
M 2253 4666 
L 3047 4666 
L 3047 1625 
L 3713 1625 
L 3713 1100 
L 3047 1100 
L 3047 0 
L 2419 0 
L 2419 1100 
L 313 1100 
L 313 1709 
L 2253 4666 
z
" transform="scale(0.015625)"/>
       </defs>
       <use xlink:href="#DejaVuSans-34"/>
       <use xlink:href="#DejaVuSans-30" x="63.623047"/>
       <use xlink:href="#DejaVuSans-30" x="127.246094"/>
      </g>
     </g>
    </g>
    <g id="xtick_4">
     <g id="line2d_4">
      <g>
       <use xlink:href="#m04eb64b060" x="210.651429" y="307.584" style="stroke: #000000; stroke-width: 0.8"/>
      </g>
     </g>
     <g id="text_4">
      <!-- 500 -->
      <g transform="translate(201.107679 322.182437) scale(0.1 -0.1)">
       <defs>
        <path id="DejaVuSans-35" d="M 691 4666 
L 3169 4666 
L 3169 4134 
L 1269 4134 
L 1269 2991 
Q 1406 3038 1543 3061 
Q 1681 3084 1819 3084 
Q 2600 3084 3056 2656 
Q 3513 2228 3513 1497 
Q 3513 744 3044 326 
Q 2575 -91 1722 -91 
Q 1428 -91 1123 -41 
Q 819 9 494 109 
L 494 744 
Q 775 591 1075 516 
Q 1375 441 1709 441 
Q 2250 441 2565 725 
Q 2881 1009 2881 1497 
Q 2881 1984 2565 2268 
Q 2250 2553 1709 2553 
Q 1456 2553 1204 2497 
Q 953 2441 691 2322 
L 691 4666 
z
" transform="scale(0.015625)"/>
       </defs>
       <use xlink:href="#DejaVuSans-35"/>
       <use xlink:href="#DejaVuSans-30" x="63.623047"/>
       <use xlink:href="#DejaVuSans-30" x="127.246094"/>
      </g>
     </g>
    </g>
    <g id="xtick_5">
     <g id="line2d_5">
      <g>
       <use xlink:href="#m04eb64b060" x="261.668571" y="307.584" style="stroke: #000000; stroke-width: 0.8"/>
      </g>
     </g>
     <g id="text_5">
      <!-- 600 -->
      <g transform="translate(252.124821 322.182437) scale(0.1 -0.1)">
       <defs>
        <path id="DejaVuSans-36" d="M 2113 2584 
Q 1688 2584 1439 2293 
Q 1191 2003 1191 1497 
Q 1191 994 1439 701 
Q 1688 409 2113 409 
Q 2538 409 2786 701 
Q 3034 994 3034 1497 
Q 3034 2003 2786 2293 
Q 2538 2584 2113 2584 
z
M 3366 4563 
L 3366 3988 
Q 3128 4100 2886 4159 
Q 2644 4219 2406 4219 
Q 1781 4219 1451 3797 
Q 1122 3375 1075 2522 
Q 1259 2794 1537 2939 
Q 1816 3084 2150 3084 
Q 2853 3084 3261 2657 
Q 3669 2231 3669 1497 
Q 3669 778 3244 343 
Q 2819 -91 2113 -91 
Q 1303 -91 875 529 
Q 447 1150 447 2328 
Q 447 3434 972 4092 
Q 1497 4750 2381 4750 
Q 2619 4750 2861 4703 
Q 3103 4656 3366 4563 
z
" transform="scale(0.015625)"/>
       </defs>
       <use xlink:href="#DejaVuSans-36"/>
       <use xlink:href="#DejaVuSans-30" x="63.623047"/>
       <use xlink:href="#DejaVuSans-30" x="127.246094"/>
      </g>
     </g>
    </g>
    <g id="xtick_6">
     <g id="line2d_6">
      <g>
       <use xlink:href="#m04eb64b060" x="312.685714" y="307.584" style="stroke: #000000; stroke-width: 0.8"/>
      </g>
     </g>
     <g id="text_6">
      <!-- 700 -->
      <g transform="translate(303.141964 322.182437) scale(0.1 -0.1)">
       <defs>
        <path id="DejaVuSans-37" d="M 525 4666 
L 3525 4666 
L 3525 4397 
L 1831 0 
L 1172 0 
L 2766 4134 
L 525 4134 
L 525 4666 
z
" transform="scale(0.015625)"/>
       </defs>
       <use xlink:href="#DejaVuSans-37"/>
       <use xlink:href="#DejaVuSans-30" x="63.623047"/>
       <use xlink:href="#DejaVuSans-30" x="127.246094"/>
      </g>
     </g>
    </g>
    <g id="xtick_7">
     <g id="line2d_7">
      <g>
       <use xlink:href="#m04eb64b060" x="363.702857" y="307.584" style="stroke: #000000; stroke-width: 0.8"/>
      </g>
     </g>
     <g id="text_7">
      <!-- 800 -->
      <g transform="translate(354.159107 322.182437) scale(0.1 -0.1)">
       <defs>
        <path id="DejaVuSans-38" d="M 2034 2216 
Q 1584 2216 1326 1975 
Q 1069 1734 1069 1313 
Q 1069 891 1326 650 
Q 1584 409 2034 409 
Q 2484 409 2743 651 
Q 3003 894 3003 1313 
Q 3003 1734 2745 1975 
Q 2488 2216 2034 2216 
z
M 1403 2484 
Q 997 2584 770 2862 
Q 544 3141 544 3541 
Q 544 4100 942 4425 
Q 1341 4750 2034 4750 
Q 2731 4750 3128 4425 
Q 3525 4100 3525 3541 
Q 3525 3141 3298 2862 
Q 3072 2584 2669 2484 
Q 3125 2378 3379 2068 
Q 3634 1759 3634 1313 
Q 3634 634 3220 271 
Q 2806 -91 2034 -91 
Q 1263 -91 848 271 
Q 434 634 434 1313 
Q 434 1759 690 2068 
Q 947 2378 1403 2484 
z
M 1172 3481 
Q 1172 3119 1398 2916 
Q 1625 2713 2034 2713 
Q 2441 2713 2670 2916 
Q 2900 3119 2900 3481 
Q 2900 3844 2670 4047 
Q 2441 4250 2034 4250 
Q 1625 4250 1398 4047 
Q 1172 3844 1172 3481 
z
" transform="scale(0.015625)"/>
       </defs>
       <use xlink:href="#DejaVuSans-38"/>
       <use xlink:href="#DejaVuSans-30" x="63.623047"/>
       <use xlink:href="#DejaVuSans-30" x="127.246094"/>
      </g>
     </g>
    </g>
    <g id="xtick_8">
     <g id="line2d_8">
      <g>
       <use xlink:href="#m04eb64b060" x="414.72" y="307.584" style="stroke: #000000; stroke-width: 0.8"/>
      </g>
     </g>
     <g id="text_8">
      <!-- 900 -->
      <g transform="translate(405.17625 322.182437) scale(0.1 -0.1)">
       <defs>
        <path id="DejaVuSans-39" d="M 703 97 
L 703 672 
Q 941 559 1184 500 
Q 1428 441 1663 441 
Q 2288 441 2617 861 
Q 2947 1281 2994 2138 
Q 2813 1869 2534 1725 
Q 2256 1581 1919 1581 
Q 1219 1581 811 2004 
Q 403 2428 403 3163 
Q 403 3881 828 4315 
Q 1253 4750 1959 4750 
Q 2769 4750 3195 4129 
Q 3622 3509 3622 2328 
Q 3622 1225 3098 567 
Q 2575 -91 1691 -91 
Q 1453 -91 1209 -44 
Q 966 3 703 97 
z
M 1959 2075 
Q 2384 2075 2632 2365 
Q 2881 2656 2881 3163 
Q 2881 3666 2632 3958 
Q 2384 4250 1959 4250 
Q 1534 4250 1286 3958 
Q 1038 3666 1038 3163 
Q 1038 2656 1286 2365 
Q 1534 2075 1959 2075 
z
" transform="scale(0.015625)"/>
       </defs>
       <use xlink:href="#DejaVuSans-39"/>
       <use xlink:href="#DejaVuSans-30" x="63.623047"/>
       <use xlink:href="#DejaVuSans-30" x="127.246094"/>
      </g>
     </g>
    </g>
    <g id="text_9">
     <!-- Wavelength (nm) -->
     <g transform="translate(192.967812 335.860562) scale(0.1 -0.1)">
      <defs>
       <path id="DejaVuSans-57" d="M 213 4666 
L 850 4666 
L 1831 722 
L 2809 4666 
L 3519 4666 
L 4500 722 
L 5478 4666 
L 6119 4666 
L 4947 0 
L 4153 0 
L 3169 4050 
L 2175 0 
L 1381 0 
L 213 4666 
z
" transform="scale(0.015625)"/>
       <path id="DejaVuSans-61" d="M 2194 1759 
Q 1497 1759 1228 1600 
Q 959 1441 959 1056 
Q 959 750 1161 570 
Q 1363 391 1709 391 
Q 2188 391 2477 730 
Q 2766 1069 2766 1631 
L 2766 1759 
L 2194 1759 
z
M 3341 1997 
L 3341 0 
L 2766 0 
L 2766 531 
Q 2569 213 2275 61 
Q 1981 -91 1556 -91 
Q 1019 -91 701 211 
Q 384 513 384 1019 
Q 384 1609 779 1909 
Q 1175 2209 1959 2209 
L 2766 2209 
L 2766 2266 
Q 2766 2663 2505 2880 
Q 2244 3097 1772 3097 
Q 1472 3097 1187 3025 
Q 903 2953 641 2809 
L 641 3341 
Q 956 3463 1253 3523 
Q 1550 3584 1831 3584 
Q 2591 3584 2966 3190 
Q 3341 2797 3341 1997 
z
" transform="scale(0.015625)"/>
       <path id="DejaVuSans-76" d="M 191 3500 
L 800 3500 
L 1894 563 
L 2988 3500 
L 3597 3500 
L 2284 0 
L 1503 0 
L 191 3500 
z
" transform="scale(0.015625)"/>
       <path id="DejaVuSans-65" d="M 3597 1894 
L 3597 1613 
L 953 1613 
Q 991 1019 1311 708 
Q 1631 397 2203 397 
Q 2534 397 2845 478 
Q 3156 559 3463 722 
L 3463 178 
Q 3153 47 2828 -22 
Q 2503 -91 2169 -91 
Q 1331 -91 842 396 
Q 353 884 353 1716 
Q 353 2575 817 3079 
Q 1281 3584 2069 3584 
Q 2775 3584 3186 3129 
Q 3597 2675 3597 1894 
z
M 3022 2063 
Q 3016 2534 2758 2815 
Q 2500 3097 2075 3097 
Q 1594 3097 1305 2825 
Q 1016 2553 972 2059 
L 3022 2063 
z
" transform="scale(0.015625)"/>
       <path id="DejaVuSans-6c" d="M 603 4863 
L 1178 4863 
L 1178 0 
L 603 0 
L 603 4863 
z
" transform="scale(0.015625)"/>
       <path id="DejaVuSans-6e" d="M 3513 2113 
L 3513 0 
L 2938 0 
L 2938 2094 
Q 2938 2591 2744 2837 
Q 2550 3084 2163 3084 
Q 1697 3084 1428 2787 
Q 1159 2491 1159 1978 
L 1159 0 
L 581 0 
L 581 3500 
L 1159 3500 
L 1159 2956 
Q 1366 3272 1645 3428 
Q 1925 3584 2291 3584 
Q 2894 3584 3203 3211 
Q 3513 2838 3513 2113 
z
" transform="scale(0.015625)"/>
       <path id="DejaVuSans-67" d="M 2906 1791 
Q 2906 2416 2648 2759 
Q 2391 3103 1925 3103 
Q 1463 3103 1205 2759 
Q 947 2416 947 1791 
Q 947 1169 1205 825 
Q 1463 481 1925 481 
Q 2391 481 2648 825 
Q 2906 1169 2906 1791 
z
M 3481 434 
Q 3481 -459 3084 -895 
Q 2688 -1331 1869 -1331 
Q 1566 -1331 1297 -1286 
Q 1028 -1241 775 -1147 
L 775 -588 
Q 1028 -725 1275 -790 
Q 1522 -856 1778 -856 
Q 2344 -856 2625 -561 
Q 2906 -266 2906 331 
L 2906 616 
Q 2728 306 2450 153 
Q 2172 0 1784 0 
Q 1141 0 747 490 
Q 353 981 353 1791 
Q 353 2603 747 3093 
Q 1141 3584 1784 3584 
Q 2172 3584 2450 3431 
Q 2728 3278 2906 2969 
L 2906 3500 
L 3481 3500 
L 3481 434 
z
" transform="scale(0.015625)"/>
       <path id="DejaVuSans-74" d="M 1172 4494 
L 1172 3500 
L 2356 3500 
L 2356 3053 
L 1172 3053 
L 1172 1153 
Q 1172 725 1289 603 
Q 1406 481 1766 481 
L 2356 481 
L 2356 0 
L 1766 0 
Q 1100 0 847 248 
Q 594 497 594 1153 
L 594 3053 
L 172 3053 
L 172 3500 
L 594 3500 
L 594 4494 
L 1172 4494 
z
" transform="scale(0.015625)"/>
       <path id="DejaVuSans-68" d="M 3513 2113 
L 3513 0 
L 2938 0 
L 2938 2094 
Q 2938 2591 2744 2837 
Q 2550 3084 2163 3084 
Q 1697 3084 1428 2787 
Q 1159 2491 1159 1978 
L 1159 0 
L 581 0 
L 581 4863 
L 1159 4863 
L 1159 2956 
Q 1366 3272 1645 3428 
Q 1925 3584 2291 3584 
Q 2894 3584 3203 3211 
Q 3513 2838 3513 2113 
z
" transform="scale(0.015625)"/>
       <path id="DejaVuSans-20" transform="scale(0.015625)"/>
       <path id="DejaVuSans-28" d="M 1984 4856 
Q 1566 4138 1362 3434 
Q 1159 2731 1159 2009 
Q 1159 1288 1364 580 
Q 1569 -128 1984 -844 
L 1484 -844 
Q 1016 -109 783 600 
Q 550 1309 550 2009 
Q 550 2706 781 3412 
Q 1013 4119 1484 4856 
L 1984 4856 
z
" transform="scale(0.015625)"/>
       <path id="DejaVuSans-6d" d="M 3328 2828 
Q 3544 3216 3844 3400 
Q 4144 3584 4550 3584 
Q 5097 3584 5394 3201 
Q 5691 2819 5691 2113 
L 5691 0 
L 5113 0 
L 5113 2094 
Q 5113 2597 4934 2840 
Q 4756 3084 4391 3084 
Q 3944 3084 3684 2787 
Q 3425 2491 3425 1978 
L 3425 0 
L 2847 0 
L 2847 2094 
Q 2847 2600 2669 2842 
Q 2491 3084 2119 3084 
Q 1678 3084 1418 2786 
Q 1159 2488 1159 1978 
L 1159 0 
L 581 0 
L 581 3500 
L 1159 3500 
L 1159 2956 
Q 1356 3278 1631 3431 
Q 1906 3584 2284 3584 
Q 2666 3584 2933 3390 
Q 3200 3197 3328 2828 
z
" transform="scale(0.015625)"/>
       <path id="DejaVuSans-29" d="M 513 4856 
L 1013 4856 
Q 1481 4119 1714 3412 
Q 1947 2706 1947 2009 
Q 1947 1309 1714 600 
Q 1481 -109 1013 -844 
L 513 -844 
Q 928 -128 1133 580 
Q 1338 1288 1338 2009 
Q 1338 2731 1133 3434 
Q 928 4138 513 4856 
z
" transform="scale(0.015625)"/>
      </defs>
      <use xlink:href="#DejaVuSans-57"/>
      <use xlink:href="#DejaVuSans-61" x="92.501953"/>
      <use xlink:href="#DejaVuSans-76" x="153.78125"/>
      <use xlink:href="#DejaVuSans-65" x="212.960938"/>
      <use xlink:href="#DejaVuSans-6c" x="274.484375"/>
      <use xlink:href="#DejaVuSans-65" x="302.267578"/>
      <use xlink:href="#DejaVuSans-6e" x="363.791016"/>
      <use xlink:href="#DejaVuSans-67" x="427.169922"/>
      <use xlink:href="#DejaVuSans-74" x="490.646484"/>
      <use xlink:href="#DejaVuSans-68" x="529.855469"/>
      <use xlink:href="#DejaVuSans-20" x="593.234375"/>
      <use xlink:href="#DejaVuSans-28" x="625.021484"/>
      <use xlink:href="#DejaVuSans-6e" x="664.035156"/>
      <use xlink:href="#DejaVuSans-6d" x="727.414062"/>
      <use xlink:href="#DejaVuSans-29" x="824.826172"/>
     </g>
    </g>
   </g>
   <g id="matplotlib.axis_2">
    <g id="ytick_1">
     <g id="line2d_9">
      <defs>
       <path id="m64d32e3b93" d="M 0 0 
L -3.5 0 
" style="stroke: #000000; stroke-width: 0.8"/>
      </defs>
      <g>
       <use xlink:href="#m64d32e3b93" x="57.6" y="307.584" style="stroke: #000000; stroke-width: 0.8"/>
      </g>
     </g>
     <g id="text_10">
      <!-- 0.0 -->
      <g transform="translate(34.696875 311.383219) scale(0.1 -0.1)">
       <defs>
        <path id="DejaVuSans-2e" d="M 684 794 
L 1344 794 
L 1344 0 
L 684 0 
L 684 794 
z
" transform="scale(0.015625)"/>
       </defs>
       <use xlink:href="#DejaVuSans-30"/>
       <use xlink:href="#DejaVuSans-2e" x="63.623047"/>
       <use xlink:href="#DejaVuSans-30" x="95.410156"/>
      </g>
     </g>
    </g>
    <g id="ytick_2">
     <g id="line2d_10">
      <g>
       <use xlink:href="#m64d32e3b93" x="57.6" y="263.232" style="stroke: #000000; stroke-width: 0.8"/>
      </g>
     </g>
     <g id="text_11">
      <!-- 0.2 -->
      <g transform="translate(34.696875 267.031219) scale(0.1 -0.1)">
       <use xlink:href="#DejaVuSans-30"/>
       <use xlink:href="#DejaVuSans-2e" x="63.623047"/>
       <use xlink:href="#DejaVuSans-32" x="95.410156"/>
      </g>
     </g>
    </g>
    <g id="ytick_3">
     <g id="line2d_11">
      <g>
       <use xlink:href="#m64d32e3b93" x="57.6" y="218.88" style="stroke: #000000; stroke-width: 0.8"/>
      </g>
     </g>
     <g id="text_12">
      <!-- 0.4 -->
      <g transform="translate(34.696875 222.679219) scale(0.1 -0.1)">
       <use xlink:href="#DejaVuSans-30"/>
       <use xlink:href="#DejaVuSans-2e" x="63.623047"/>
       <use xlink:href="#DejaVuSans-34" x="95.410156"/>
      </g>
     </g>
    </g>
    <g id="ytick_4">
     <g id="line2d_12">
      <g>
       <use xlink:href="#m64d32e3b93" x="57.6" y="174.528" style="stroke: #000000; stroke-width: 0.8"/>
      </g>
     </g>
     <g id="text_13">
      <!-- 0.6 -->
      <g transform="translate(34.696875 178.327219) scale(0.1 -0.1)">
       <use xlink:href="#DejaVuSans-30"/>
       <use xlink:href="#DejaVuSans-2e" x="63.623047"/>
       <use xlink:href="#DejaVuSans-36" x="95.410156"/>
      </g>
     </g>
    </g>
    <g id="ytick_5">
     <g id="line2d_13">
      <g>
       <use xlink:href="#m64d32e3b93" x="57.6" y="130.176" style="stroke: #000000; stroke-width: 0.8"/>
      </g>
     </g>
     <g id="text_14">
      <!-- 0.8 -->
      <g transform="translate(34.696875 133.975219) scale(0.1 -0.1)">
       <use xlink:href="#DejaVuSans-30"/>
       <use xlink:href="#DejaVuSans-2e" x="63.623047"/>
       <use xlink:href="#DejaVuSans-38" x="95.410156"/>
      </g>
     </g>
    </g>
    <g id="ytick_6">
     <g id="line2d_14">
      <g>
       <use xlink:href="#m64d32e3b93" x="57.6" y="85.824" style="stroke: #000000; stroke-width: 0.8"/>
      </g>
     </g>
     <g id="text_15">
      <!-- 1.0 -->
      <g transform="translate(34.696875 89.623219) scale(0.1 -0.1)">
       <defs>
        <path id="DejaVuSans-31" d="M 794 531 
L 1825 531 
L 1825 4091 
L 703 3866 
L 703 4441 
L 1819 4666 
L 2450 4666 
L 2450 531 
L 3481 531 
L 3481 0 
L 794 0 
L 794 531 
z
" transform="scale(0.015625)"/>
       </defs>
       <use xlink:href="#DejaVuSans-31"/>
       <use xlink:href="#DejaVuSans-2e" x="63.623047"/>
       <use xlink:href="#DejaVuSans-30" x="95.410156"/>
      </g>
     </g>
    </g>
    <g id="ytick_7">
     <g id="line2d_15">
      <g>
       <use xlink:href="#m64d32e3b93" x="57.6" y="41.472" style="stroke: #000000; stroke-width: 0.8"/>
      </g>
     </g>
     <g id="text_16">
      <!-- 1.2 -->
      <g transform="translate(34.696875 45.271219) scale(0.1 -0.1)">
       <use xlink:href="#DejaVuSans-31"/>
       <use xlink:href="#DejaVuSans-2e" x="63.623047"/>
       <use xlink:href="#DejaVuSans-32" x="95.410156"/>
      </g>
     </g>
    </g>
    <g id="text_17">
     <!-- Absorbance -->
     <g transform="translate(28.617187 204.074875) rotate(-90) scale(0.1 -0.1)">
      <defs>
       <path id="DejaVuSans-41" d="M 2188 4044 
L 1331 1722 
L 3047 1722 
L 2188 4044 
z
M 1831 4666 
L 2547 4666 
L 4325 0 
L 3669 0 
L 3244 1197 
L 1141 1197 
L 716 0 
L 50 0 
L 1831 4666 
z
" transform="scale(0.015625)"/>
       <path id="DejaVuSans-62" d="M 3116 1747 
Q 3116 2381 2855 2742 
Q 2594 3103 2138 3103 
Q 1681 3103 1420 2742 
Q 1159 2381 1159 1747 
Q 1159 1113 1420 752 
Q 1681 391 2138 391 
Q 2594 391 2855 752 
Q 3116 1113 3116 1747 
z
M 1159 2969 
Q 1341 3281 1617 3432 
Q 1894 3584 2278 3584 
Q 2916 3584 3314 3078 
Q 3713 2572 3713 1747 
Q 3713 922 3314 415 
Q 2916 -91 2278 -91 
Q 1894 -91 1617 61 
Q 1341 213 1159 525 
L 1159 0 
L 581 0 
L 581 4863 
L 1159 4863 
L 1159 2969 
z
" transform="scale(0.015625)"/>
       <path id="DejaVuSans-73" d="M 2834 3397 
L 2834 2853 
Q 2591 2978 2328 3040 
Q 2066 3103 1784 3103 
Q 1356 3103 1142 2972 
Q 928 2841 928 2578 
Q 928 2378 1081 2264 
Q 1234 2150 1697 2047 
L 1894 2003 
Q 2506 1872 2764 1633 
Q 3022 1394 3022 966 
Q 3022 478 2636 193 
Q 2250 -91 1575 -91 
Q 1294 -91 989 -36 
Q 684 19 347 128 
L 347 722 
Q 666 556 975 473 
Q 1284 391 1588 391 
Q 1994 391 2212 530 
Q 2431 669 2431 922 
Q 2431 1156 2273 1281 
Q 2116 1406 1581 1522 
L 1381 1569 
Q 847 1681 609 1914 
Q 372 2147 372 2553 
Q 372 3047 722 3315 
Q 1072 3584 1716 3584 
Q 2034 3584 2315 3537 
Q 2597 3491 2834 3397 
z
" transform="scale(0.015625)"/>
       <path id="DejaVuSans-6f" d="M 1959 3097 
Q 1497 3097 1228 2736 
Q 959 2375 959 1747 
Q 959 1119 1226 758 
Q 1494 397 1959 397 
Q 2419 397 2687 759 
Q 2956 1122 2956 1747 
Q 2956 2369 2687 2733 
Q 2419 3097 1959 3097 
z
M 1959 3584 
Q 2709 3584 3137 3096 
Q 3566 2609 3566 1747 
Q 3566 888 3137 398 
Q 2709 -91 1959 -91 
Q 1206 -91 779 398 
Q 353 888 353 1747 
Q 353 2609 779 3096 
Q 1206 3584 1959 3584 
z
" transform="scale(0.015625)"/>
       <path id="DejaVuSans-72" d="M 2631 2963 
Q 2534 3019 2420 3045 
Q 2306 3072 2169 3072 
Q 1681 3072 1420 2755 
Q 1159 2438 1159 1844 
L 1159 0 
L 581 0 
L 581 3500 
L 1159 3500 
L 1159 2956 
Q 1341 3275 1631 3429 
Q 1922 3584 2338 3584 
Q 2397 3584 2469 3576 
Q 2541 3569 2628 3553 
L 2631 2963 
z
" transform="scale(0.015625)"/>
       <path id="DejaVuSans-63" d="M 3122 3366 
L 3122 2828 
Q 2878 2963 2633 3030 
Q 2388 3097 2138 3097 
Q 1578 3097 1268 2742 
Q 959 2388 959 1747 
Q 959 1106 1268 751 
Q 1578 397 2138 397 
Q 2388 397 2633 464 
Q 2878 531 3122 666 
L 3122 134 
Q 2881 22 2623 -34 
Q 2366 -91 2075 -91 
Q 1284 -91 818 406 
Q 353 903 353 1747 
Q 353 2603 823 3093 
Q 1294 3584 2113 3584 
Q 2378 3584 2631 3529 
Q 2884 3475 3122 3366 
z
" transform="scale(0.015625)"/>
      </defs>
      <use xlink:href="#DejaVuSans-41"/>
      <use xlink:href="#DejaVuSans-62" x="68.408203"/>
      <use xlink:href="#DejaVuSans-73" x="131.884766"/>
      <use xlink:href="#DejaVuSans-6f" x="183.984375"/>
      <use xlink:href="#DejaVuSans-72" x="245.166016"/>
      <use xlink:href="#DejaVuSans-62" x="286.279297"/>
      <use xlink:href="#DejaVuSans-61" x="349.755859"/>
      <use xlink:href="#DejaVuSans-6e" x="411.035156"/>
      <use xlink:href="#DejaVuSans-63" x="474.414062"/>
      <use xlink:href="#DejaVuSans-65" x="529.394531"/>
     </g>
    </g>
   </g>
   <g id="line2d_16">
    <path d="M 363.702857 308.339334 
L 363.192686 308.152125 
L 351.968914 308.141724 
L 349.928229 308.080838 
L 347.377371 308.064367 
L 345.846857 307.998396 
L 344.316343 307.935026 
L 341.255314 307.854671 
L 340.234971 307.737008 
L 337.684114 307.510186 
L 334.623086 307.089381 
L 332.072229 306.945785 
L 331.051886 306.977357 
L 326.460343 306.682449 
L 320.848457 307.013053 
L 314.216229 307.143811 
L 310.134857 307.02726 
L 308.604343 307.009335 
L 307.584 306.934633 
L 304.522971 306.722495 
L 296.8704 305.754998 
L 295.850057 305.576381 
L 293.809371 305.325807 
L 286.1568 303.636434 
L 280.034743 301.774104 
L 270.341486 298.521214 
L 264.7296 296.793485 
L 262.178743 295.99568 
L 260.648229 295.539073 
L 258.097371 294.721698 
L 254.016 293.555693 
L 250.4448 292.543774 
L 246.8736 291.525732 
L 242.792229 290.11135 
L 240.241371 288.927116 
L 237.690514 287.212389 
L 236.16 285.823395 
L 234.629486 284.106704 
L 232.5888 281.030517 
L 231.058286 278.171913 
L 229.527771 274.690909 
L 227.997257 270.621556 
L 225.956571 264.106047 
L 223.915886 256.484234 
L 221.8752 247.860241 
L 219.324343 236.078258 
L 214.7328 213.540425 
L 208.610743 183.707169 
L 203.509029 160.170088 
L 201.468343 151.580789 
L 199.427657 143.894763 
L 197.897143 138.927995 
L 196.366629 134.751976 
L 194.836114 131.411238 
L 193.815771 129.627095 
L 192.795429 128.19147 
L 191.775086 127.110601 
L 190.754743 126.43342 
L 189.7344 126.088339 
L 189.224229 126.01806 
L 187.693714 126.493006 
L 186.673371 127.222358 
L 186.1632 127.590596 
L 185.142857 128.880058 
L 184.122514 130.567234 
L 183.102171 132.546869 
L 181.571657 136.155442 
L 180.041143 140.477572 
L 178.000457 147.139473 
L 175.4496 156.783814 
L 172.388571 169.854968 
L 165.246171 201.474712 
L 160.654629 220.194256 
L 158.103771 229.719847 
L 156.063086 236.462542 
L 153.002057 244.775864 
L 151.471543 248.054326 
L 150.4512 249.876206 
L 149.430857 251.462866 
L 148.410514 252.635002 
L 147.390171 253.471254 
L 146.369829 253.88362 
L 145.349486 254.017068 
L 144.839314 253.900476 
L 144.329143 253.592327 
L 143.818971 253.524502 
L 143.3088 251.87362 
L 142.798629 252.754307 
L 142.288457 252.213168 
L 141.778286 251.477657 
L 141.268114 251.071305 
L 140.757943 250.42134 
L 138.207086 245.549833 
L 136.1664 240.418245 
L 134.635886 235.475461 
L 133.615543 232.913344 
L 133.105371 225.633809 
L 132.085029 221.114594 
L 131.064686 215.081113 
L 130.044343 207.153847 
L 129.024 195.9006 
L 128.003657 179.685628 
L 126.983314 156.826811 
L 125.962971 125.242458 
L 124.942629 81.65225 
L 123.922286 20.223868 
L 123.651783 -1 
L 123.651783 -1 
" clip-path="url(#p9f5695ee3e)" style="fill: none; stroke: #e01f1f; stroke-width: 0.5; stroke-linecap: square"/>
   </g>
   <g id="line2d_17">
    <path d="M 363.702857 308.350127 
L 363.192686 308.206373 
L 360.641829 308.14427 
L 359.621486 308.19479 
L 358.090971 308.180932 
L 356.050286 308.180538 
L 354.519771 308.174994 
L 347.887543 308.035024 
L 346.8672 307.999049 
L 343.296 307.899749 
L 341.765486 307.805988 
L 340.745143 307.778488 
L 332.072229 307.003623 
L 329.0112 306.846168 
L 326.970514 306.730357 
L 321.8688 307.278236 
L 321.358629 307.152767 
L 314.7264 307.194134 
L 310.134857 307.072185 
L 305.033143 306.666512 
L 302.992457 306.473445 
L 298.911086 305.981088 
L 289.728 304.284097 
L 283.095771 302.440289 
L 282.5856 302.398125 
L 265.239771 296.565939 
L 263.709257 296.075509 
L 254.016 293.0904 
L 251.975314 292.493218 
L 244.322743 290.201717 
L 240.751543 288.698335 
L 238.710857 287.504515 
L 237.180343 286.338931 
L 235.649829 284.852919 
L 234.119314 283.005911 
L 232.5888 280.69989 
L 231.058286 277.865547 
L 229.527771 274.473487 
L 227.997257 270.425137 
L 226.466743 265.72553 
L 224.426057 258.46672 
L 222.385371 250.221854 
L 219.834514 238.785982 
L 216.263314 221.633291 
L 208.100571 182.280842 
L 202.998857 159.086289 
L 200.958171 150.716196 
L 198.917486 143.293022 
L 197.386971 138.510697 
L 195.856457 134.544963 
L 194.836114 132.24359 
L 193.815771 130.388361 
L 192.795429 128.85187 
L 191.775086 127.648827 
L 191.264914 127.153869 
L 190.244571 126.541178 
L 189.7344 126.305146 
L 188.714057 126.207201 
L 187.693714 126.421913 
L 186.1632 127.275646 
L 184.632686 129.158962 
L 183.612343 130.806339 
L 182.081829 133.936158 
L 180.551314 137.762444 
L 178.510629 143.845333 
L 176.469943 150.905239 
L 174.939429 156.77158 
L 172.388571 167.446416 
L 162.695314 208.852045 
L 158.103771 226.225826 
L 156.063086 233.000185 
L 153.512229 239.997815 
L 151.981714 243.545222 
L 150.961371 245.506286 
L 149.430857 247.937294 
L 148.410514 249.112057 
L 147.390171 249.924642 
L 146.369829 250.329144 
L 145.349486 250.43804 
L 144.839314 250.31159 
L 144.329143 249.963781 
L 143.818971 249.909111 
L 143.3088 248.249574 
L 142.798629 249.11784 
L 142.288457 248.557439 
L 141.778286 247.813323 
L 141.268114 247.379914 
L 140.247771 245.716828 
L 139.227429 243.918298 
L 138.717257 242.662403 
L 138.207086 241.752957 
L 137.186743 239.233838 
L 136.676571 237.571915 
L 136.1664 236.446317 
L 134.125714 230.463077 
L 133.615543 229.151555 
L 133.105371 223.012806 
L 132.5952 220.96225 
L 131.574857 215.670248 
L 130.554514 208.516026 
L 129.534171 198.852955 
L 129.024 192.757396 
L 128.003657 176.256864 
L 126.983314 153.020028 
L 125.962971 121.10442 
L 124.942629 77.582628 
L 123.922286 17.117305 
L 123.693176 -1 
L 123.693176 -1 
" clip-path="url(#p9f5695ee3e)" style="fill: none; stroke: #d61f29; stroke-width: 0.5; stroke-linecap: square"/>
   </g>
   <g id="line2d_18">
    <path d="M 363.702857 307.724885 
L 363.192686 307.564975 
L 340.234971 307.665684 
L 337.684114 307.521779 
L 335.133257 307.211257 
L 326.460343 306.932815 
L 322.378971 307.29603 
L 321.8688 307.521071 
L 320.848457 307.422549 
L 312.685714 307.608474 
L 305.033143 307.292957 
L 296.8704 306.245787 
L 295.850057 306.077714 
L 292.789029 305.536822 
L 288.197486 304.480704 
L 283.605943 303.132696 
L 282.075429 302.568568 
L 280.034743 301.860702 
L 275.953371 300.371706 
L 270.341486 298.3247 
L 266.770286 297.139626 
L 265.239771 296.585225 
L 262.178743 295.562617 
L 257.5872 294.020391 
L 251.465143 292.054191 
L 248.404114 291.153771 
L 246.363429 290.577899 
L 244.832914 289.992114 
L 242.792229 289.247452 
L 239.7312 287.872624 
L 237.180343 286.135154 
L 235.649829 284.789279 
L 233.609143 282.395339 
L 232.078629 280.159971 
L 230.548114 277.348292 
L 229.0176 274.058918 
L 227.487086 270.16995 
L 225.956571 265.642913 
L 223.915886 258.802167 
L 221.365029 248.923568 
L 218.304 235.817136 
L 213.712457 215.157358 
L 205.039543 176.516054 
L 201.978514 163.786319 
L 199.937829 156.082422 
L 198.407314 151.026949 
L 196.8768 146.546905 
L 195.346286 142.768944 
L 194.325943 140.6299 
L 193.3056 138.794142 
L 192.285257 137.327917 
L 191.264914 136.172591 
L 190.244571 135.31287 
L 189.7344 134.994067 
L 188.714057 134.698713 
L 187.693714 134.692619 
L 186.673371 134.981127 
L 185.653029 135.604035 
L 184.632686 136.724862 
L 183.102171 139.008021 
L 181.571657 141.935382 
L 180.041143 145.565936 
L 178.510629 149.774854 
L 176.469943 156.251731 
L 174.429257 163.620777 
L 172.388571 171.74889 
L 167.797029 190.851146 
L 164.225829 205.372372 
L 160.144457 221.120005 
L 157.083429 231.87863 
L 155.042743 238.041501 
L 153.512229 242.120685 
L 151.981714 245.67059 
L 150.961371 247.757985 
L 148.920686 250.914076 
L 147.900343 251.96921 
L 147.390171 252.412344 
L 146.369829 252.872027 
L 145.349486 253.058872 
L 144.839314 253.021086 
L 144.329143 252.66018 
L 143.818971 252.623894 
L 143.3088 250.984593 
L 142.798629 251.81454 
L 142.288457 251.299484 
L 141.778286 250.560978 
L 141.268114 250.174856 
L 140.757943 249.465259 
L 139.227429 246.743503 
L 138.717257 245.195869 
L 138.207086 244.590653 
L 137.186743 242.050062 
L 136.676571 240.363157 
L 136.1664 239.408314 
L 135.146057 236.476869 
L 134.635886 234.507219 
L 134.125714 233.763129 
L 133.615543 232.317035 
L 133.105371 225.359264 
L 132.085029 221.17895 
L 131.064686 215.785355 
L 130.044343 208.501267 
L 129.024 198.277512 
L 128.513829 191.700278 
L 127.493486 173.847103 
L 126.473143 148.420902 
L 125.4528 112.578685 
L 124.432457 62.089314 
L 123.552884 -1 
L 123.552884 -1 
" clip-path="url(#p9f5695ee3e)" style="fill: none; stroke: #cc1f33; stroke-width: 0.5; stroke-linecap: square"/>
   </g>
   <g id="line2d_19">
    <path d="M 363.702857 308.237103 
L 363.192686 308.084754 
L 351.458743 308.069302 
L 346.357029 307.977085 
L 342.785829 307.877672 
L 339.7248 307.711301 
L 338.194286 307.584 
L 333.602743 307.05695 
L 332.5824 307.04031 
L 329.521371 306.951985 
L 327.480686 306.794194 
L 324.929829 306.944766 
L 322.889143 307.125821 
L 322.378971 307.12538 
L 321.8688 307.34991 
L 321.358629 307.208938 
L 316.767086 307.286383 
L 308.094171 306.932054 
L 305.543314 306.688213 
L 303.502629 306.452044 
L 301.972114 306.262552 
L 297.890743 305.568207 
L 289.217829 303.248137 
L 287.687314 302.688601 
L 280.034743 299.361912 
L 264.219429 291.51368 
L 259.627886 289.341601 
L 254.526171 287.055105 
L 252.995657 286.399593 
L 247.383771 284.197381 
L 243.3024 282.642034 
L 241.771886 281.955769 
L 240.751543 281.530947 
L 239.221029 280.74906 
L 237.180343 279.448501 
L 236.16 278.69034 
L 234.629486 277.281147 
L 233.609143 276.192727 
L 232.078629 274.186147 
L 230.548114 271.81005 
L 229.0176 268.935653 
L 227.487086 265.523928 
L 225.956571 261.643244 
L 223.915886 255.663163 
L 221.365029 247.072377 
L 218.814171 237.634461 
L 215.753143 225.705296 
L 208.100571 195.45559 
L 203.509029 177.554922 
L 200.448 166.523136 
L 198.407314 160.155611 
L 196.8768 155.953342 
L 195.856457 153.431837 
L 193.815771 149.23541 
L 192.795429 147.507259 
L 191.264914 145.416104 
L 190.244571 144.426134 
L 189.224229 143.707832 
L 188.203886 143.291375 
L 187.693714 143.168501 
L 186.1632 143.318551 
L 185.142857 143.895619 
L 184.632686 144.272264 
L 183.102171 146.023573 
L 182.081829 147.503399 
L 180.551314 150.328665 
L 179.0208 153.653317 
L 177.490286 157.492794 
L 175.959771 161.730673 
L 173.919086 168.315394 
L 171.368229 177.417588 
L 161.1648 214.479371 
L 158.613943 223.088252 
L 157.083429 227.84309 
L 155.552914 232.116525 
L 153.512229 237.157836 
L 151.981714 240.330006 
L 150.961371 242.110222 
L 149.430857 244.273607 
L 148.410514 245.322264 
L 147.390171 246.006768 
L 146.369829 246.219054 
L 145.349486 246.100628 
L 144.839314 245.922279 
L 144.329143 245.391467 
L 143.818971 245.119785 
L 143.3088 243.244109 
L 142.798629 243.907655 
L 142.288457 243.19016 
L 141.778286 242.178096 
L 141.268114 241.589595 
L 140.757943 240.62963 
L 138.207086 234.515678 
L 135.146057 225.00236 
L 134.635886 222.94643 
L 134.125714 221.935378 
L 133.615543 220.35417 
L 133.105371 213.86323 
L 132.085029 209.180813 
L 131.064686 203.099305 
L 130.044343 195.053593 
L 129.024 183.984981 
L 128.003657 168.0826 
L 126.983314 145.710626 
L 125.962971 114.546113 
L 124.942629 71.924752 
L 123.922286 11.969773 
L 123.752326 -1 
L 123.752326 -1 
" clip-path="url(#p9f5695ee3e)" style="fill: none; stroke: #c21f3d; stroke-width: 0.5; stroke-linecap: square"/>
   </g>
   <g id="line2d_20">
    <path d="M 363.702857 308.082594 
L 363.192686 307.903924 
L 358.090971 307.987211 
L 356.560457 307.966528 
L 355.029943 307.971994 
L 342.275657 307.822045 
L 339.214629 307.671788 
L 333.092571 307.062604 
L 331.562057 307.043966 
L 326.460343 306.788495 
L 322.378971 307.109843 
L 321.8688 307.304923 
L 321.358629 307.154723 
L 319.317943 307.271881 
L 317.787429 307.35567 
L 313.706057 307.276758 
L 308.604343 307.068411 
L 301.972114 306.236275 
L 296.8704 305.025801 
L 295.339886 304.576212 
L 292.789029 303.765054 
L 291.258514 303.217536 
L 288.707657 302.125433 
L 285.646629 300.610623 
L 283.605943 299.450503 
L 279.524571 297.026489 
L 276.463543 294.930919 
L 271.872 291.936116 
L 270.851657 291.244519 
L 267.280457 288.985774 
L 263.199086 286.467349 
L 254.016 281.063337 
L 247.383771 277.852042 
L 246.363429 277.492128 
L 242.792229 275.98544 
L 240.751543 275.174887 
L 236.670171 273.213855 
L 234.629486 271.830953 
L 232.5888 270.061886 
L 230.548114 267.777382 
L 229.527771 266.442873 
L 227.487086 263.24587 
L 225.956571 260.385343 
L 224.426057 257.176314 
L 222.385371 252.349818 
L 219.324343 244.250812 
L 214.7328 230.863161 
L 206.570057 205.486389 
L 200.448 186.126198 
L 198.407314 180.443574 
L 196.366629 175.346755 
L 194.325943 170.863393 
L 192.285257 167.021484 
L 190.244571 163.90093 
L 189.224229 162.733774 
L 188.203886 161.795354 
L 186.673371 160.92231 
L 186.1632 160.707188 
L 185.142857 160.643306 
L 184.122514 160.963365 
L 183.102171 161.569618 
L 182.081829 162.366091 
L 181.061486 163.376733 
L 179.0208 166.043146 
L 177.490286 168.598501 
L 175.959771 171.615202 
L 174.939429 173.892294 
L 172.898743 179.16392 
L 170.858057 185.107572 
L 159.634286 218.630526 
L 157.083429 225.722194 
L 155.552914 229.49196 
L 153.002057 234.871457 
L 151.471543 237.514891 
L 150.961371 238.288661 
L 150.4512 238.845057 
L 149.941029 239.619938 
L 148.920686 240.632583 
L 147.900343 241.379138 
L 147.390171 241.60718 
L 146.369829 241.605925 
L 145.349486 241.260137 
L 144.839314 240.971682 
L 144.329143 240.246031 
L 143.818971 239.8793 
L 143.3088 237.793921 
L 142.798629 238.186302 
L 142.288457 237.259104 
L 141.778286 236.044859 
L 141.268114 235.123318 
L 140.247771 232.515124 
L 138.717257 227.938311 
L 138.207086 226.430054 
L 135.656229 217.490572 
L 135.146057 215.806516 
L 134.635886 213.517343 
L 134.125714 212.396608 
L 133.615543 210.68254 
L 133.105371 202.472728 
L 132.085029 197.82894 
L 131.064686 191.787013 
L 130.044343 184.006201 
L 129.024 173.249982 
L 128.003657 158.13572 
L 126.983314 136.658335 
L 125.962971 106.910441 
L 124.942629 65.491356 
L 124.432457 39.229821 
L 123.818894 -1 
L 123.818894 -1 
" clip-path="url(#p9f5695ee3e)" style="fill: none; stroke: #b81f47; stroke-width: 0.5; stroke-linecap: square"/>
   </g>
   <g id="line2d_21">
    <path d="M 363.702857 308.350288 
L 363.192686 308.165869 
L 345.336686 307.942515 
L 344.316343 307.909527 
L 340.745143 307.750305 
L 331.051886 307.033856 
L 329.521371 306.99999 
L 326.970514 306.837694 
L 321.358629 307.325313 
L 318.2976 307.396606 
L 314.7264 307.38086 
L 313.706057 307.312653 
L 308.604343 307.036194 
L 304.0128 306.497504 
L 299.931429 305.722167 
L 298.911086 305.487292 
L 297.380571 305.104417 
L 296.360229 304.721868 
L 293.809371 303.951656 
L 289.728 302.29941 
L 286.666971 300.775684 
L 284.116114 299.353891 
L 279.524571 296.459838 
L 263.709257 285.862373 
L 251.975314 278.836819 
L 247.383771 276.792984 
L 245.853257 276.207744 
L 244.322743 275.422447 
L 242.792229 274.830575 
L 240.241371 273.862068 
L 238.200686 273.007797 
L 235.649829 271.634388 
L 233.609143 270.226229 
L 230.548114 267.291017 
L 229.0176 265.380254 
L 227.487086 263.139524 
L 224.936229 258.586408 
L 223.405714 255.408392 
L 221.8752 251.925353 
L 218.304 242.944301 
L 216.263314 237.515937 
L 209.631086 218.695084 
L 206.059886 207.775782 
L 199.937829 189.192237 
L 197.386971 182.42187 
L 195.346286 177.506374 
L 192.795429 172.123691 
L 190.754743 168.49467 
L 189.224229 166.302398 
L 188.203886 165.184954 
L 186.673371 164.00191 
L 186.1632 163.670008 
L 185.142857 163.410738 
L 184.122514 163.498823 
L 183.102171 163.828121 
L 182.081829 164.439675 
L 180.551314 165.647383 
L 178.000457 168.736611 
L 175.959771 172.109085 
L 174.429257 175.323236 
L 172.388571 180.354732 
L 170.347886 186.031844 
L 161.1648 212.072566 
L 157.083429 223.321266 
L 155.042743 228.035611 
L 153.512229 231.250673 
L 151.471543 234.732017 
L 149.430857 237.28422 
L 148.410514 238.076542 
L 147.390171 238.552513 
L 146.369829 238.554172 
L 145.349486 238.121126 
L 144.839314 237.695476 
L 144.329143 236.988727 
L 143.818971 236.523178 
L 143.3088 234.305508 
L 142.798629 234.718403 
L 142.288457 233.704819 
L 141.778286 232.37501 
L 141.268114 231.416313 
L 140.757943 230.193213 
L 137.186743 218.517402 
L 136.676571 216.157361 
L 136.1664 214.679148 
L 134.635886 208.651694 
L 133.615543 205.962507 
L 133.105371 198.081332 
L 132.5952 195.999403 
L 131.574857 190.410639 
L 130.554514 183.485411 
L 129.534171 174.185146 
L 128.513829 161.288111 
L 127.493486 142.850677 
L 126.473143 117.209527 
L 125.4528 82.142488 
L 124.432457 33.980622 
L 123.876733 -1 
L 123.876733 -1 
" clip-path="url(#p9f5695ee3e)" style="fill: none; stroke: #ad1f52; stroke-width: 0.5; stroke-linecap: square"/>
   </g>
   <g id="line2d_22">
    <path d="M 363.702857 307.891855 
L 363.192686 307.717953 
L 357.070629 307.900829 
L 355.540114 307.9006 
L 352.479086 307.941092 
L 350.4384 307.936007 
L 346.8672 307.889763 
L 345.336686 307.902783 
L 342.275657 307.797311 
L 340.745143 307.77417 
L 334.112914 307.104368 
L 328.501029 306.816388 
L 326.460343 306.715765 
L 321.8688 307.230518 
L 321.358629 307.082852 
L 317.787429 307.224987 
L 314.216229 307.21485 
L 313.195886 307.123943 
L 308.604343 306.867385 
L 300.951771 305.6586 
L 295.339886 303.959793 
L 292.278857 302.773131 
L 288.197486 300.702191 
L 285.136457 298.840967 
L 278.504229 294.123263 
L 270.851657 288.299007 
L 270.341486 287.857778 
L 269.831314 287.573327 
L 268.810971 286.747304 
L 266.260114 284.954821 
L 263.199086 282.738373 
L 261.668571 281.688053 
L 259.117714 279.893098 
L 257.077029 278.609266 
L 255.036343 277.268519 
L 250.4448 274.607727 
L 247.383771 273.090719 
L 245.853257 272.512465 
L 244.832914 271.936071 
L 240.751543 270.481613 
L 237.690514 269.418551 
L 234.119314 267.777807 
L 232.078629 266.525864 
L 229.527771 264.445141 
L 226.976914 261.730411 
L 224.936229 259.01339 
L 222.895543 255.859451 
L 220.854857 252.339431 
L 218.814171 248.479199 
L 214.7328 240.112668 
L 210.651429 230.941846 
L 208.610743 225.88589 
L 202.998857 210.919821 
L 199.427657 201.349461 
L 195.346286 191.344449 
L 192.285257 184.513808 
L 190.244571 180.471291 
L 188.714057 177.946204 
L 187.693714 176.516685 
L 186.1632 174.815221 
L 185.142857 174.170993 
L 184.122514 173.769287 
L 183.102171 173.61539 
L 182.081829 173.709885 
L 181.061486 173.942071 
L 179.530971 174.705089 
L 178.510629 175.346648 
L 177.490286 176.283257 
L 176.469943 177.330434 
L 175.4496 178.680975 
L 173.919086 181.218341 
L 172.898743 183.21327 
L 170.858057 187.797392 
L 168.3072 194.048599 
L 166.266514 199.101422 
L 160.144457 214.133951 
L 156.573257 223.012637 
L 154.532571 227.28547 
L 153.002057 230.081934 
L 151.471543 232.490035 
L 150.4512 233.840491 
L 149.430857 235.054002 
L 147.900343 236.172173 
L 147.390171 236.364884 
L 146.369829 236.315667 
L 145.349486 235.869258 
L 144.839314 235.408957 
L 143.818971 234.123659 
L 143.3088 231.863981 
L 142.798629 232.234434 
L 142.288457 231.147814 
L 141.778286 229.71745 
L 141.268114 228.689426 
L 140.247771 225.6641 
L 138.207086 218.836718 
L 135.656229 209.150965 
L 135.146057 207.424446 
L 134.635886 205.048947 
L 134.125714 204.054503 
L 133.615543 202.611469 
L 133.105371 193.652841 
L 132.085029 189.528346 
L 130.554514 181.035128 
L 129.534171 173.143418 
L 129.024 168.309874 
L 128.003657 155.098451 
L 126.983314 136.167274 
L 125.962971 109.065041 
L 124.942629 70.185516 
L 124.432457 44.543136 
L 123.733454 -1 
L 123.733454 -1 
" clip-path="url(#p9f5695ee3e)" style="fill: none; stroke: #a31f5c; stroke-width: 0.5; stroke-linecap: square"/>
   </g>
   <g id="line2d_23">
    <path d="M 363.702857 308.390745 
L 363.192686 308.20358 
L 351.458743 308.17205 
L 350.948571 308.11859 
L 350.4384 308.179619 
L 348.907886 308.094242 
L 344.826514 308.005403 
L 341.765486 307.831685 
L 339.214629 307.698348 
L 336.663771 307.370682 
L 334.623086 307.102212 
L 326.460343 306.670393 
L 322.378971 306.947128 
L 321.8688 307.1028 
L 321.358629 306.97738 
L 319.317943 307.051596 
L 311.1552 306.611271 
L 310.645029 306.516465 
L 309.624686 306.491436 
L 304.0128 305.565232 
L 301.461943 304.985636 
L 298.911086 304.206708 
L 296.8704 303.367742 
L 295.850057 302.892732 
L 293.809371 301.976662 
L 290.748343 300.330938 
L 286.1568 297.082178 
L 281.565257 293.261447 
L 266.260114 278.956869 
L 261.668571 274.87593 
L 254.016 268.504919 
L 250.4448 266.016701 
L 248.404114 264.773105 
L 243.812571 262.512116 
L 237.180343 260.577494 
L 231.058286 258.910367 
L 228.507429 257.8242 
L 226.976914 257.079483 
L 224.426057 255.449924 
L 222.385371 253.944012 
L 217.793829 249.613387 
L 215.753143 247.349467 
L 213.202286 244.216329 
L 209.631086 238.940969 
L 207.5904 235.317182 
L 205.039543 230.290577 
L 200.958171 221.362627 
L 196.8768 212.125194 
L 188.714057 193.217466 
L 186.673371 189.585484 
L 185.653029 188.148193 
L 184.122514 186.539889 
L 182.081829 185.09706 
L 179.530971 184.18419 
L 178.000457 184.063986 
L 177.490286 184.055487 
L 175.4496 184.790166 
L 174.429257 185.548545 
L 172.898743 187.322086 
L 171.368229 189.573509 
L 168.3072 194.900254 
L 165.756343 199.477873 
L 160.654629 208.966202 
L 158.613943 213.207643 
L 156.063086 218.265833 
L 154.0224 221.688945 
L 151.981714 224.50969 
L 150.4512 226.096515 
L 149.430857 227.074734 
L 147.900343 227.79907 
L 147.390171 227.838149 
L 146.88 227.746767 
L 145.859657 227.157637 
L 145.349486 226.714248 
L 144.839314 226.099238 
L 144.329143 225.096526 
L 143.818971 224.401429 
L 143.3088 221.69217 
L 142.798629 221.833675 
L 142.288457 220.465725 
L 141.268114 217.295042 
L 140.247771 213.617062 
L 139.227429 209.758359 
L 138.717257 207.071598 
L 138.207086 205.345581 
L 137.186743 200.923101 
L 136.676571 198.094313 
L 136.1664 196.312893 
L 134.635886 189.852909 
L 133.615543 186.986549 
L 133.105371 178.298076 
L 132.5952 176.220667 
L 131.064686 167.915937 
L 130.044343 160.787338 
L 129.024 151.301004 
L 128.003657 137.901199 
L 126.983314 118.710185 
L 125.962971 92.133007 
L 124.942629 54.197163 
L 124.432457 29.423042 
L 123.91874 -1 
L 123.91874 -1 
" clip-path="url(#p9f5695ee3e)" style="fill: none; stroke: #991f66; stroke-width: 0.5; stroke-linecap: square"/>
   </g>
   <g id="line2d_24">
    <path d="M 363.702857 308.046412 
L 363.192686 307.867046 
L 359.621486 307.935294 
L 355.029943 307.985 
L 341.255314 307.789661 
L 333.092571 307.022307 
L 331.051886 306.987349 
L 329.0112 306.851648 
L 327.990857 306.753435 
L 325.950171 306.746962 
L 321.8688 307.175613 
L 321.358629 307.039564 
L 319.828114 307.105489 
L 314.216229 307.066503 
L 312.175543 306.912658 
L 309.114514 306.656189 
L 302.992457 305.600203 
L 300.4416 304.98442 
L 297.380571 303.827797 
L 296.360229 303.256875 
L 294.829714 302.625251 
L 292.278857 301.270607 
L 290.238171 299.989569 
L 286.1568 296.891102 
L 284.116114 295.100971 
L 281.055086 292.144971 
L 266.770286 277.435846 
L 262.178743 272.913746 
L 255.036343 266.306627 
L 252.485486 264.206054 
L 250.954971 263.011923 
L 248.914286 261.64438 
L 247.383771 260.707348 
L 245.343086 259.548186 
L 244.832914 259.192098 
L 240.751543 257.747564 
L 236.16 256.74358 
L 231.058286 256.012162 
L 229.0176 255.64979 
L 227.997257 255.469471 
L 224.426057 254.557847 
L 221.365029 253.40408 
L 218.814171 252.127579 
L 216.773486 250.91414 
L 215.242971 249.867083 
L 213.712457 248.665024 
L 211.1616 246.208777 
L 209.631086 244.428891 
L 207.080229 240.788528 
L 204.529371 236.518609 
L 200.448 228.583783 
L 197.897143 223.290777 
L 194.836114 216.396207 
L 190.244571 205.236088 
L 188.714057 201.736318 
L 187.183543 198.705837 
L 186.1632 196.837933 
L 184.632686 194.688328 
L 183.102171 193.009268 
L 180.551314 191.062836 
L 179.530971 190.438871 
L 178.000457 189.747771 
L 176.469943 189.441763 
L 175.4496 189.580102 
L 173.919086 190.353523 
L 172.388571 191.767166 
L 170.858057 193.714656 
L 167.797029 198.23251 
L 161.1648 208.436419 
L 156.573257 216.934739 
L 155.552914 218.57737 
L 153.002057 222.062085 
L 151.471543 223.803612 
L 150.961371 224.294156 
L 150.4512 224.620289 
L 149.941029 225.142939 
L 148.920686 225.79256 
L 147.900343 225.995237 
L 147.390171 225.999255 
L 146.369829 225.524111 
L 145.349486 224.479167 
L 144.839314 223.769233 
L 143.818971 221.81822 
L 143.3088 219.010184 
L 142.798629 219.049785 
L 141.268114 214.011297 
L 140.247771 209.95872 
L 139.227429 205.767025 
L 138.717257 202.902965 
L 138.207086 200.909556 
L 134.635886 183.99225 
L 133.615543 181.064466 
L 133.105371 169.723645 
L 132.5952 167.442019 
L 131.574857 161.341378 
L 130.554514 153.85834 
L 129.534171 144.373909 
L 128.513829 131.100111 
L 127.493486 112.723625 
L 126.473143 87.828388 
L 125.4528 54.105904 
L 124.432457 7.825926 
L 124.282615 -1 
L 124.282615 -1 
" clip-path="url(#p9f5695ee3e)" style="fill: none; stroke: #8f1f70; stroke-width: 0.5; stroke-linecap: square"/>
   </g>
   <g id="line2d_25">
    <path d="M 363.702857 308.267304 
L 363.192686 308.103673 
L 361.662171 308.135531 
L 360.641829 308.108263 
L 358.090971 308.147247 
L 357.070629 308.148356 
L 346.357029 307.96927 
L 343.806171 307.899538 
L 342.785829 307.858571 
L 338.194286 307.584 
L 336.1536 307.26858 
L 333.602743 307.035403 
L 328.501029 306.799241 
L 326.970514 306.680695 
L 325.44 306.788399 
L 323.909486 306.928045 
L 322.378971 307.018065 
L 321.8688 307.184889 
L 320.848457 307.055746 
L 317.787429 307.122998 
L 316.767086 307.067552 
L 315.236571 307.001905 
L 310.134857 306.660558 
L 309.114514 306.513042 
L 307.073829 306.20397 
L 305.543314 305.937698 
L 304.522971 305.748855 
L 297.890743 303.840469 
L 295.850057 302.754636 
L 294.829714 302.304931 
L 293.2992 301.535419 
L 289.728 299.239175 
L 287.687314 297.697139 
L 286.1568 296.441753 
L 280.544914 291.150428 
L 267.280457 277.051676 
L 266.770286 276.629618 
L 265.239771 275.009437 
L 261.1584 270.892215 
L 254.016 264.197805 
L 248.914286 260.315128 
L 246.8736 259.117826 
L 245.343086 258.278676 
L 244.322743 257.681982 
L 241.771886 256.743192 
L 240.241371 256.300821 
L 236.670171 255.562269 
L 227.997257 254.467006 
L 226.976914 254.270429 
L 225.4464 253.943946 
L 223.405714 253.416362 
L 219.834514 252.093701 
L 215.753143 249.865006 
L 213.712457 248.432758 
L 211.671771 246.62984 
L 210.141257 244.989944 
L 208.610743 243.06899 
L 205.549714 238.509314 
L 201.468343 231.06593 
L 197.897143 223.803288 
L 195.346286 218.124166 
L 193.3056 213.229205 
L 187.693714 200.023274 
L 185.653029 196.344811 
L 184.122514 194.326182 
L 181.571657 191.895763 
L 180.551314 191.118853 
L 178.000457 189.711038 
L 175.959771 189.319523 
L 174.939429 189.564266 
L 173.919086 190.083294 
L 172.898743 190.905344 
L 171.368229 192.575349 
L 167.797029 197.659142 
L 161.1648 207.63483 
L 159.124114 211.311383 
L 157.083429 215.132579 
L 155.042743 218.416448 
L 153.002057 221.133333 
L 151.981714 222.323032 
L 150.4512 223.728197 
L 148.920686 224.816792 
L 147.900343 225.03691 
L 147.390171 224.958951 
L 146.369829 224.518054 
L 145.349486 223.531587 
L 144.839314 222.799254 
L 143.818971 220.824476 
L 143.3088 217.951064 
L 142.798629 218.056689 
L 141.778286 214.744461 
L 140.757943 210.912624 
L 139.7376 206.965454 
L 138.207086 200.166146 
L 137.696914 197.17869 
L 137.186743 195.327731 
L 136.1664 190.45226 
L 135.656229 187.362464 
L 135.146057 185.885981 
L 134.125714 181.685655 
L 133.615543 180.881781 
L 133.105371 171.133507 
L 132.5952 168.816167 
L 131.064686 159.794258 
L 130.044343 151.958222 
L 129.024 141.342205 
L 128.003657 126.691271 
L 126.983314 106.239016 
L 125.962971 78.086842 
L 124.942629 40.139525 
L 124.147151 -1 
L 124.147151 -1 
" clip-path="url(#p9f5695ee3e)" style="fill: none; stroke: #851f7a; stroke-width: 0.5; stroke-linecap: square"/>
   </g>
   <g id="line2d_26">
    <path d="M 363.702857 308.150145 
L 363.192686 307.987117 
L 358.601143 308.051937 
L 347.377371 308.002841 
L 342.785829 307.87093 
L 339.7248 307.73119 
L 338.704457 307.613903 
L 337.173943 307.476145 
L 335.643429 307.189656 
L 333.092571 307.014409 
L 331.562057 306.957082 
L 327.990857 306.67033 
L 326.970514 306.626055 
L 322.378971 306.898867 
L 321.8688 307.007989 
L 321.358629 306.890378 
L 315.236571 306.920526 
L 313.706057 306.802356 
L 307.584 306.203712 
L 302.992457 305.28517 
L 299.421257 304.217312 
L 297.890743 303.663749 
L 295.850057 302.515283 
L 294.319543 301.813579 
L 291.768686 300.33323 
L 288.197486 297.771088 
L 284.626286 294.580161 
L 281.565257 291.621043 
L 277.994057 287.735222 
L 274.933029 284.273655 
L 269.831314 278.56235 
L 262.178743 270.364992 
L 252.995657 261.462844 
L 249.934629 259.02376 
L 246.363429 256.753476 
L 245.343086 256.158887 
L 244.322743 255.585536 
L 242.282057 254.773301 
L 239.221029 253.907825 
L 238.200686 253.703456 
L 234.629486 253.232428 
L 222.895543 252.71568 
L 219.834514 252.193876 
L 215.753143 250.81021 
L 214.7328 250.342098 
L 213.202286 249.469179 
L 211.1616 247.952118 
L 210.141257 247.030353 
L 208.610743 245.389823 
L 206.570057 242.761161 
L 205.039543 240.515052 
L 202.488686 236.246957 
L 198.917486 229.428067 
L 195.856457 222.958084 
L 192.795429 215.59901 
L 189.224229 206.689917 
L 188.203886 204.355459 
L 186.1632 200.246554 
L 184.632686 197.881544 
L 183.102171 196.000811 
L 181.571657 194.446396 
L 180.551314 193.53769 
L 178.510629 192.029366 
L 177.490286 191.499222 
L 176.469943 191.10275 
L 175.4496 191.060545 
L 174.939429 191.099842 
L 173.408914 191.781715 
L 171.8784 193.069207 
L 170.347886 194.822896 
L 162.185143 205.745403 
L 159.634286 209.93616 
L 156.573257 215.254161 
L 155.552914 216.762108 
L 153.512229 219.552386 
L 150.961371 222.165068 
L 148.920686 223.47856 
L 147.900343 223.661839 
L 147.390171 223.640321 
L 146.369829 223.026844 
L 145.859657 222.583673 
L 145.349486 221.976217 
L 144.839314 221.190854 
L 143.818971 219.139577 
L 143.3088 216.201953 
L 142.798629 216.23548 
L 141.778286 212.629147 
L 141.268114 210.982161 
L 139.7376 204.44741 
L 138.207086 197.467803 
L 135.656229 184.798156 
L 134.635886 180.049021 
L 133.615543 177.104266 
L 133.105371 165.659366 
L 132.5952 163.211631 
L 131.064686 153.626625 
L 130.044343 145.255197 
L 129.024 134.018295 
L 128.003657 118.688448 
L 126.983314 97.550592 
L 125.962971 68.686726 
L 124.942629 29.902952 
L 124.32665 -1 
L 124.32665 -1 
" clip-path="url(#p9f5695ee3e)" style="fill: none; stroke: #7a1f85; stroke-width: 0.5; stroke-linecap: square"/>
   </g>
   <g id="line2d_27">
    <path d="M 363.702857 308.447158 
L 363.192686 308.274134 
L 362.172343 308.306021 
L 361.152 308.277073 
L 354.0096 308.242871 
L 346.8672 308.064574 
L 337.173943 307.436649 
L 333.602743 307.013269 
L 328.501029 306.710268 
L 326.970514 306.611672 
L 325.44 306.687675 
L 324.929829 306.805093 
L 323.399314 306.877891 
L 321.8688 307.087536 
L 321.358629 306.952569 
L 317.277257 306.932258 
L 314.216229 306.744421 
L 309.624686 306.362182 
L 308.094171 306.077582 
L 304.0128 305.263849 
L 301.461943 304.599504 
L 296.8704 302.811231 
L 295.850057 302.244994 
L 294.319543 301.482849 
L 290.238171 298.910874 
L 285.136457 294.626898 
L 281.055086 290.604793 
L 272.382171 281.029737 
L 270.341486 278.778212 
L 264.219429 272.228574 
L 256.566857 264.429453 
L 254.016 262.056293 
L 249.424457 258.396613 
L 245.343086 255.904115 
L 244.832914 255.556117 
L 241.771886 254.376139 
L 239.221029 253.70562 
L 238.200686 253.555729 
L 236.670171 253.353911 
L 233.609143 253.087656 
L 229.527771 253.088898 
L 222.385371 252.855245 
L 218.814171 252.224043 
L 216.263314 251.471791 
L 214.222629 250.515408 
L 212.692114 249.619398 
L 210.141257 247.526729 
L 209.120914 246.520448 
L 206.059886 242.521722 
L 204.0192 239.296918 
L 202.488686 236.608742 
L 199.427657 230.72311 
L 197.897143 227.579742 
L 194.325943 219.233382 
L 191.775086 212.57456 
L 189.224229 205.912309 
L 187.693714 202.363759 
L 185.653029 198.203542 
L 184.122514 195.875324 
L 183.102171 194.486926 
L 181.061486 192.193153 
L 179.0208 190.311806 
L 178.000457 189.568747 
L 176.469943 188.758277 
L 175.4496 188.562202 
L 173.919086 188.787779 
L 172.898743 189.431994 
L 171.8784 190.290446 
L 170.858057 191.285835 
L 166.266514 196.93022 
L 161.674971 202.955552 
L 158.613943 208.030581 
L 156.063086 212.330055 
L 153.002057 216.279043 
L 150.961371 218.276212 
L 148.920686 219.568007 
L 148.410514 219.683511 
L 147.390171 219.646805 
L 146.369829 219.047848 
L 145.859657 218.576834 
L 144.839314 217.192633 
L 144.329143 216.016522 
L 143.818971 215.120465 
L 143.3088 212.162432 
L 142.798629 212.142817 
L 141.268114 206.868765 
L 140.247771 202.623273 
L 138.207086 193.435228 
L 136.1664 183.313615 
L 134.635886 176.457873 
L 133.615543 173.599166 
L 133.105371 163.334733 
L 132.085029 158.277515 
L 131.064686 152.008332 
L 130.044343 144.321632 
L 129.024 134.133387 
L 128.003657 119.935669 
L 126.983314 100.258684 
L 125.962971 73.204669 
L 124.942629 35.571251 
L 124.216891 -1 
L 124.216891 -1 
" clip-path="url(#p9f5695ee3e)" style="fill: none; stroke: #701f8f; stroke-width: 0.5; stroke-linecap: square"/>
   </g>
   <g id="line2d_28">
    <path d="M 363.702857 308.443191 
L 363.192686 308.275465 
L 343.296 307.962716 
L 342.275657 307.922782 
L 336.663771 307.367022 
L 334.623086 307.088298 
L 329.521371 306.8379 
L 327.990857 306.635878 
L 325.950171 306.629259 
L 324.929829 306.693262 
L 321.8688 306.906275 
L 321.358629 306.789606 
L 317.277257 306.862486 
L 311.1552 306.46054 
L 310.645029 306.368192 
L 309.624686 306.320021 
L 308.094171 306.084182 
L 303.502629 305.20759 
L 299.931429 304.161223 
L 297.890743 303.346762 
L 294.829714 301.761725 
L 293.2992 300.94124 
L 289.728 298.503032 
L 286.666971 295.957671 
L 285.136457 294.556241 
L 282.5856 292.119712 
L 277.994057 287.152215 
L 270.851657 279.202888 
L 264.7296 272.681963 
L 263.199086 271.082855 
L 255.036343 262.982276 
L 251.975314 260.311287 
L 247.893943 257.430654 
L 246.363429 256.633855 
L 243.812571 255.310506 
L 241.771886 254.583335 
L 236.670171 253.71186 
L 233.609143 253.608794 
L 229.527771 253.80962 
L 226.976914 254.044397 
L 224.936229 254.206736 
L 222.385371 254.324111 
L 217.283657 253.859868 
L 216.263314 253.619497 
L 214.7328 253.130179 
L 213.712457 252.700993 
L 212.181943 251.866701 
L 210.651429 250.7718 
L 209.120914 249.35388 
L 206.570057 246.378909 
L 204.529371 243.419785 
L 202.488686 240.007967 
L 199.937829 235.277258 
L 197.386971 230.038115 
L 195.346286 225.439473 
L 192.285257 217.654875 
L 188.203886 207.178162 
L 186.1632 202.758147 
L 184.122514 199.430573 
L 181.571657 196.257861 
L 179.530971 194.285549 
L 178.000457 193.016747 
L 175.959771 192.039466 
L 175.4496 191.953748 
L 174.429257 192.071414 
L 173.408914 192.484712 
L 172.388571 193.142304 
L 171.368229 194.050111 
L 169.837714 195.799384 
L 161.674971 206.280717 
L 159.634286 209.573613 
L 156.063086 215.68705 
L 154.0224 218.5255 
L 151.981714 220.918467 
L 150.961371 221.90194 
L 148.920686 223.345945 
L 147.900343 223.56687 
L 147.390171 223.55268 
L 146.369829 223.061694 
L 145.859657 222.630426 
L 144.839314 221.359985 
L 143.818971 219.333267 
L 143.3088 216.42272 
L 142.798629 216.398379 
L 141.268114 211.27022 
L 139.7376 204.870755 
L 137.696914 195.399674 
L 135.656229 185.46142 
L 134.125714 179.887354 
L 133.615543 178.682223 
L 133.105371 167.430014 
L 132.5952 165.468818 
L 131.064686 157.155165 
L 130.554514 154.219239 
L 129.534171 146.321423 
L 128.513829 135.620877 
L 127.493486 120.609212 
L 126.473143 99.12995 
L 125.4528 68.495847 
L 124.432457 24.464953 
L 123.99385 -1 
L 123.99385 -1 
" clip-path="url(#p9f5695ee3e)" style="fill: none; stroke: #661f99; stroke-width: 0.5; stroke-linecap: square"/>
   </g>
   <g id="line2d_29">
    <path d="M 363.702857 308.440613 
L 363.192686 308.25644 
L 351.968914 308.228361 
L 350.4384 308.171536 
L 346.357029 308.043462 
L 345.336686 308.045263 
L 341.765486 307.874968 
L 340.745143 307.842895 
L 339.7248 307.744047 
L 338.194286 307.584 
L 333.092571 307.043682 
L 328.501029 306.795556 
L 327.480686 306.678765 
L 325.950171 306.729462 
L 324.929829 306.846631 
L 322.378971 306.984485 
L 321.8688 307.11028 
L 321.358629 306.986605 
L 318.2976 307.05715 
L 316.767086 306.967306 
L 313.195886 306.708474 
L 307.584 306.043246 
L 304.0128 305.28546 
L 298.400914 303.551676 
L 297.380571 303.111001 
L 295.850057 302.232682 
L 292.789029 300.530458 
L 290.238171 298.783555 
L 288.197486 297.199411 
L 284.626286 293.95418 
L 280.544914 289.811849 
L 275.4432 284.073569 
L 272.382171 280.625531 
L 269.321143 277.258499 
L 263.199086 270.708028 
L 256.056686 263.434422 
L 252.485486 260.205299 
L 247.893943 256.854545 
L 245.853257 255.729825 
L 244.322743 254.900106 
L 243.3024 254.502828 
L 240.241371 253.586915 
L 237.690514 253.130318 
L 236.670171 253.045201 
L 233.609143 252.972185 
L 231.058286 253.050462 
L 230.037943 253.143443 
L 226.976914 253.483177 
L 225.4464 253.571817 
L 223.915886 253.695844 
L 219.834514 253.715766 
L 217.283657 253.424199 
L 215.242971 252.910325 
L 212.692114 251.768898 
L 210.651429 250.40227 
L 209.631086 249.521956 
L 207.5904 247.323941 
L 206.059886 245.371276 
L 204.0192 242.325324 
L 201.468343 237.880684 
L 199.427657 234.00805 
L 196.8768 228.584709 
L 194.325943 222.487193 
L 192.285257 217.143517 
L 189.7344 210.283995 
L 187.693714 205.305026 
L 185.653029 201.007277 
L 184.122514 198.523695 
L 182.592 196.419144 
L 180.551314 194.05562 
L 178.510629 192.103821 
L 177.490286 191.290773 
L 175.959771 190.501015 
L 174.429257 190.403229 
L 173.408914 190.720962 
L 172.898743 190.981209 
L 171.368229 192.239767 
L 169.837714 193.850134 
L 165.756343 198.665384 
L 162.695314 202.344138 
L 161.1648 204.535175 
L 158.613943 208.688663 
L 156.063086 212.835807 
L 153.002057 216.687399 
L 150.961371 218.592195 
L 148.920686 219.850951 
L 147.900343 220.0057 
L 147.390171 219.912038 
L 146.369829 219.304304 
L 145.349486 218.214063 
L 144.839314 217.378524 
L 144.329143 216.172719 
L 143.818971 215.259744 
L 143.3088 212.23455 
L 142.798629 212.182948 
L 141.268114 206.815181 
L 140.247771 202.413129 
L 139.227429 197.92177 
L 138.717257 194.950804 
L 138.207086 192.961691 
L 136.1664 182.655767 
L 134.635886 175.544892 
L 133.615543 172.723156 
L 133.105371 161.982005 
L 132.5952 159.685483 
L 130.554514 146.302016 
L 129.534171 136.862222 
L 129.024 131.187211 
L 128.003657 116.18809 
L 126.983314 95.532133 
L 125.962971 67.428589 
L 124.942629 29.40244 
L 124.328257 -1 
L 124.328257 -1 
" clip-path="url(#p9f5695ee3e)" style="fill: none; stroke: #5c1fa3; stroke-width: 0.5; stroke-linecap: square"/>
   </g>
   <g id="line2d_30">
    <path d="M 363.702857 308.011756 
L 362.682514 307.868119 
L 344.826514 307.919077 
L 337.173943 307.501716 
L 335.133257 307.181753 
L 333.092571 307.038325 
L 331.562057 307.043314 
L 330.031543 306.938354 
L 328.501029 306.825992 
L 326.460343 306.74621 
L 322.378971 307.018405 
L 321.8688 307.18633 
L 320.848457 307.088196 
L 314.7264 307.075259 
L 309.624686 306.720045 
L 301.972114 305.239644 
L 299.421257 304.440116 
L 297.380571 303.604135 
L 296.360229 303.023633 
L 293.809371 301.756042 
L 290.748343 299.845778 
L 288.707657 298.32964 
L 285.646629 295.701785 
L 284.116114 294.218331 
L 280.544914 290.589936 
L 277.994057 287.786569 
L 274.422857 283.808188 
L 271.361829 280.356251 
L 268.810971 277.595738 
L 264.219429 272.663822 
L 261.1584 269.505796 
L 257.077029 265.352307 
L 252.995657 261.607021 
L 250.954971 259.936123 
L 248.404114 258.111897 
L 244.832914 255.963733 
L 241.771886 254.810833 
L 239.7312 254.329617 
L 238.200686 254.071167 
L 236.16 253.872568 
L 232.078629 253.925978 
L 220.344686 255.281926 
L 217.283657 255.121487 
L 213.712457 254.247164 
L 212.181943 253.489737 
L 210.651429 252.545967 
L 209.120914 251.20864 
L 207.5904 249.632277 
L 205.549714 247.041987 
L 203.509029 243.970504 
L 201.468343 240.491037 
L 199.427657 236.649762 
L 197.386971 232.430462 
L 195.856457 229.008096 
L 193.3056 222.662685 
L 188.203886 209.203849 
L 186.1632 204.698129 
L 184.632686 201.976657 
L 183.102171 199.7185 
L 180.551314 196.655629 
L 178.510629 194.598669 
L 176.469943 193.174715 
L 175.4496 192.868482 
L 174.429257 192.863063 
L 173.408914 193.163017 
L 172.898743 193.378482 
L 171.8784 194.087558 
L 169.327543 196.741017 
L 162.695314 204.525338 
L 161.1648 206.683303 
L 158.103771 211.719247 
L 156.063086 215.070731 
L 153.002057 218.819137 
L 151.981714 219.889974 
L 150.961371 220.79215 
L 150.4512 221.081636 
L 149.941029 221.516466 
L 148.920686 222.018946 
L 147.900343 222.258613 
L 147.390171 222.111815 
L 146.369829 221.502072 
L 145.859657 221.016941 
L 144.839314 219.559499 
L 144.329143 218.318812 
L 143.818971 217.395976 
L 143.3088 214.384668 
L 142.798629 214.312604 
L 141.268114 208.820153 
L 140.247771 204.438397 
L 139.227429 199.73727 
L 138.717257 196.779164 
L 137.696914 192.163596 
L 134.635886 176.617875 
L 134.125714 175.144763 
L 133.615543 173.073739 
L 133.105371 161.435884 
L 132.5952 158.862565 
L 131.574857 152.082985 
L 130.554514 144.043948 
L 129.534171 133.344592 
L 129.024 127.021678 
L 128.003657 110.222369 
L 126.983314 87.281693 
L 125.962971 57.230104 
L 124.942629 17.544444 
L 124.557454 -1 
L 124.557454 -1 
" clip-path="url(#p9f5695ee3e)" style="fill: none; stroke: #521fad; stroke-width: 0.5; stroke-linecap: square"/>
   </g>
   <g id="line2d_31">
    <path d="M 363.702857 308.272547 
L 363.192686 308.096465 
L 359.111314 308.108099 
L 351.968914 308.118971 
L 350.4384 308.079057 
L 348.907886 308.05511 
L 340.745143 307.789054 
L 339.214629 307.673709 
L 332.5824 307.015685 
L 328.501029 306.806329 
L 327.480686 306.711468 
L 324.419657 306.899597 
L 322.378971 307.026728 
L 321.8688 307.216704 
L 321.358629 307.054248 
L 318.807771 307.13549 
L 317.277257 307.10296 
L 312.175543 306.752661 
L 311.665371 306.656143 
L 310.645029 306.644847 
L 307.073829 306.113291 
L 304.522971 305.623594 
L 299.931429 304.373628 
L 297.380571 303.318402 
L 295.850057 302.442965 
L 294.829714 301.982255 
L 291.768686 300.169463 
L 287.177143 296.66172 
L 281.565257 291.274079 
L 279.524571 289.053176 
L 264.219429 272.221145 
L 254.526171 262.53006 
L 251.465143 259.904134 
L 247.383771 257.056728 
L 245.853257 256.242907 
L 244.832914 255.583623 
L 242.282057 254.57605 
L 239.221029 253.844203 
L 236.670171 253.553102 
L 232.078629 253.602081 
L 221.8752 254.782739 
L 220.344686 254.835578 
L 218.304 254.777283 
L 216.263314 254.448154 
L 214.222629 253.912193 
L 213.202286 253.489034 
L 211.1616 252.298195 
L 209.631086 251.080375 
L 207.080229 248.347773 
L 205.039543 245.555083 
L 202.998857 242.32874 
L 200.448 237.699035 
L 197.897143 232.525282 
L 195.346286 226.613835 
L 193.3056 221.379345 
L 187.693714 206.482497 
L 185.653029 202.07884 
L 184.632686 200.290712 
L 183.102171 197.972281 
L 181.061486 195.389624 
L 179.0208 193.18765 
L 177.490286 191.882803 
L 176.469943 191.173039 
L 174.939429 190.751361 
L 173.408914 191.085233 
L 172.388571 191.643333 
L 170.347886 193.514014 
L 163.205486 201.864604 
L 161.1648 204.627606 
L 155.552914 213.710449 
L 154.0224 215.778262 
L 151.981714 218.026367 
L 150.961371 218.977991 
L 148.920686 220.328526 
L 147.900343 220.475364 
L 147.390171 220.402428 
L 146.88 220.169772 
L 145.859657 219.34346 
L 144.839314 217.974777 
L 143.818971 215.818854 
L 143.3088 212.832508 
L 142.798629 212.826388 
L 141.268114 207.357478 
L 140.247771 203.112872 
L 139.227429 198.621995 
L 138.717257 195.478911 
L 138.207086 193.702237 
L 135.656229 180.95894 
L 134.635886 176.310909 
L 133.615543 173.441364 
L 133.105371 162.986116 
L 132.5952 160.796858 
L 131.574857 155.0043 
L 130.554514 148.197412 
L 129.534171 139.450224 
L 128.513829 127.614259 
L 127.493486 111.103311 
L 126.473143 88.04382 
L 125.4528 56.365196 
L 124.432457 12.035815 
L 124.208484 -1 
L 124.208484 -1 
" clip-path="url(#p9f5695ee3e)" style="fill: none; stroke: #471fb8; stroke-width: 0.5; stroke-linecap: square"/>
   </g>
   <g id="line2d_32">
    <path d="M 363.702857 308.129143 
L 363.192686 307.939351 
L 360.641829 307.963825 
L 360.131657 308.0221 
L 359.111314 308.011256 
L 349.928229 308.033767 
L 348.907886 308.015294 
L 338.704457 307.657823 
L 334.112914 307.06839 
L 325.44 306.74199 
L 321.8688 307.15925 
L 321.358629 307.000419 
L 319.317943 307.105254 
L 316.767086 307.106628 
L 308.094171 306.397525 
L 304.522971 305.765519 
L 301.461943 304.915657 
L 299.421257 304.278421 
L 297.380571 303.394575 
L 295.850057 302.590634 
L 294.829714 302.084659 
L 291.258514 299.9114 
L 289.728 298.787195 
L 287.687314 297.132398 
L 285.136457 294.816188 
L 279.524571 288.997507 
L 277.994057 287.211486 
L 275.4432 284.295027 
L 265.749943 273.34515 
L 264.219429 271.72329 
L 260.648229 267.880624 
L 253.505829 260.805224 
L 250.4448 258.27106 
L 248.914286 257.140557 
L 244.832914 254.636097 
L 241.771886 253.468185 
L 239.7312 252.95717 
L 236.670171 252.599393 
L 234.119314 252.576926 
L 233.098971 252.61009 
L 230.037943 252.909631 
L 226.976914 253.490566 
L 224.426057 253.991046 
L 220.854857 254.520487 
L 217.283657 254.636355 
L 215.753143 254.478883 
L 213.712457 253.994526 
L 211.671771 253.083725 
L 210.141257 252.133385 
L 209.120914 251.239226 
L 207.5904 249.72389 
L 205.549714 247.231346 
L 204.0192 245.023747 
L 201.978514 241.717191 
L 200.448 238.991853 
L 197.897143 233.984506 
L 194.836114 227.050375 
L 191.775086 219.021337 
L 188.203886 209.64961 
L 186.1632 205.085063 
L 184.632686 202.386135 
L 183.102171 200.117853 
L 181.061486 197.515871 
L 178.510629 194.879324 
L 177.490286 194.029359 
L 176.469943 193.355033 
L 174.939429 192.933038 
L 173.919086 193.036534 
L 172.898743 193.489222 
L 171.8784 194.207206 
L 170.858057 195.055784 
L 167.797029 198.526751 
L 165.246171 201.409555 
L 161.674971 205.821295 
L 158.613943 210.73993 
L 156.063086 214.900761 
L 153.002057 218.770111 
L 150.961371 220.77494 
L 148.920686 222.108133 
L 147.900343 222.27604 
L 147.390171 222.224629 
L 146.369829 221.620689 
L 145.859657 221.178609 
L 144.839314 219.773497 
L 143.818971 217.621447 
L 143.3088 214.631605 
L 142.798629 214.578621 
L 141.268114 209.196493 
L 140.247771 204.879386 
L 139.227429 200.286454 
L 138.717257 197.353363 
L 138.207086 195.405398 
L 136.1664 185.216835 
L 134.635886 178.087483 
L 133.615543 174.771184 
L 133.105371 163.820529 
L 132.5952 161.421951 
L 130.554514 148.831916 
L 129.534171 140.23014 
L 128.513829 128.185542 
L 127.493486 111.653737 
L 126.473143 88.723993 
L 125.4528 56.802133 
L 124.432457 12.244795 
L 124.204659 -1 
L 124.204659 -1 
" clip-path="url(#p9f5695ee3e)" style="fill: none; stroke: #3d1fc2; stroke-width: 0.5; stroke-linecap: square"/>
   </g>
   <g id="line2d_33">
    <path d="M 363.702857 308.423465 
L 363.192686 308.215443 
L 356.560457 308.291453 
L 356.050286 308.2049 
L 354.519771 308.260714 
L 353.499429 308.236561 
L 347.887543 308.132255 
L 342.275657 307.899238 
L 340.745143 307.837268 
L 339.7248 307.756544 
L 332.072229 306.964887 
L 328.501029 306.745211 
L 326.970514 306.665711 
L 324.929829 306.735133 
L 323.909486 306.852839 
L 320.338286 306.947509 
L 315.746743 306.828243 
L 308.094171 306.073898 
L 306.563657 305.805521 
L 305.033143 305.485796 
L 302.482286 304.827446 
L 299.421257 303.848537 
L 297.380571 303.005066 
L 295.850057 302.093499 
L 294.829714 301.586034 
L 293.2992 300.715786 
L 290.748343 299.031416 
L 286.666971 295.656496 
L 285.136457 294.231867 
L 281.055086 290.080926 
L 267.790629 275.004961 
L 266.260114 273.387332 
L 261.1584 267.902431 
L 259.117714 265.773916 
L 254.526171 261.294347 
L 251.975314 259.031468 
L 250.4448 257.778088 
L 247.893943 256.016697 
L 244.322743 253.985898 
L 240.751543 252.837452 
L 238.200686 252.388403 
L 235.139657 252.219246 
L 232.078629 252.399856 
L 230.037943 252.699668 
L 227.997257 253.005604 
L 221.365029 254.091381 
L 217.283657 254.156918 
L 215.753143 253.911825 
L 214.222629 253.551987 
L 212.181943 252.683143 
L 210.141257 251.352739 
L 208.610743 249.957976 
L 206.570057 247.686125 
L 205.039543 245.61906 
L 202.998857 242.432159 
L 200.958171 238.873556 
L 198.917486 234.92098 
L 196.8768 230.610085 
L 194.325943 224.441253 
L 192.285257 218.992923 
L 189.224229 210.692693 
L 187.693714 206.905955 
L 185.653029 202.542619 
L 184.632686 200.747658 
L 183.102171 198.424977 
L 181.571657 196.415879 
L 179.0208 193.616322 
L 177.490286 192.274795 
L 176.469943 191.593411 
L 175.4496 191.220851 
L 174.429257 191.165481 
L 173.919086 191.221247 
L 172.388571 191.975528 
L 171.368229 192.816902 
L 170.347886 193.790759 
L 163.715657 201.32725 
L 160.654629 205.487778 
L 159.124114 207.96719 
L 155.552914 213.630516 
L 154.0224 215.644868 
L 152.491886 217.33094 
L 150.961371 218.770346 
L 148.920686 220.045473 
L 148.410514 220.221073 
L 147.390171 220.199541 
L 146.369829 219.633523 
L 145.859657 219.145715 
L 144.839314 217.6914 
L 143.818971 215.606338 
L 143.3088 212.570167 
L 142.798629 212.471813 
L 142.288457 210.845829 
L 141.778286 208.77456 
L 141.268114 207.188489 
L 139.227429 198.204767 
L 138.717257 195.232214 
L 138.207086 193.263747 
L 135.656229 180.57545 
L 134.635886 175.922621 
L 134.125714 174.936617 
L 133.615543 173.389221 
L 133.105371 162.933722 
L 132.5952 160.888539 
L 131.574857 155.459382 
L 130.554514 148.848608 
L 129.534171 140.756065 
L 129.024 135.857845 
L 128.003657 122.705427 
L 126.983314 104.255 
L 125.962971 78.281749 
L 124.942629 41.750653 
L 124.09888 -1 
L 124.09888 -1 
" clip-path="url(#p9f5695ee3e)" style="fill: none; stroke: #331fcc; stroke-width: 0.5; stroke-linecap: square"/>
   </g>
   <g id="line2d_34">
    <path d="M 363.702857 308.222493 
L 363.192686 308.039516 
L 356.050286 308.175161 
L 353.499429 308.1454 
L 350.948571 308.109394 
L 347.377371 308.054216 
L 345.846857 308.020046 
L 343.296 307.970641 
L 342.785829 307.869554 
L 341.255314 307.846574 
L 338.704457 307.652847 
L 333.602743 307.049483 
L 325.44 306.682069 
L 324.419657 306.792969 
L 322.378971 306.904916 
L 321.8688 306.999619 
L 321.358629 306.86658 
L 318.2976 306.950793 
L 309.624686 306.376145 
L 304.0128 305.327254 
L 300.951771 304.47516 
L 297.380571 303.113276 
L 296.360229 302.438839 
L 293.2992 300.811784 
L 291.768686 299.825786 
L 289.217829 297.945108 
L 286.1568 295.300142 
L 281.565257 290.663902 
L 279.524571 288.35928 
L 275.953371 284.261915 
L 271.872 279.554329 
L 263.709257 270.431287 
L 254.016 260.501393 
L 252.485486 259.110814 
L 247.383771 255.329205 
L 245.343086 254.165766 
L 244.322743 253.612226 
L 240.751543 252.372946 
L 238.710857 251.979462 
L 236.670171 251.771703 
L 235.649829 251.754255 
L 233.098971 251.833906 
L 231.568457 252.012527 
L 230.037943 252.208172 
L 226.976914 252.817442 
L 221.365029 253.889994 
L 218.814171 254.091373 
L 215.753143 253.920234 
L 214.222629 253.610699 
L 212.181943 252.825455 
L 210.651429 251.934415 
L 209.631086 251.165489 
L 206.570057 248.012055 
L 205.039543 246.010352 
L 202.998857 242.914053 
L 200.448 238.444273 
L 198.407314 234.486152 
L 196.366629 230.048365 
L 194.836114 226.473286 
L 190.754743 215.597491 
L 187.693714 207.851072 
L 185.653029 203.46588 
L 184.122514 200.903499 
L 181.571657 197.438314 
L 179.530971 195.188154 
L 178.000457 193.692836 
L 176.469943 192.638257 
L 175.4496 192.291406 
L 174.939429 192.195073 
L 173.919086 192.278161 
L 172.388571 193.010844 
L 170.858057 194.365444 
L 169.327543 195.971871 
L 162.185143 204.198814 
L 160.654629 206.398191 
L 158.103771 210.494076 
L 156.573257 212.983745 
L 155.042743 215.131836 
L 153.002057 217.52824 
L 151.981714 218.525664 
L 150.4512 219.722984 
L 149.430857 220.394071 
L 148.920686 220.636865 
L 147.900343 220.73473 
L 147.390171 220.65375 
L 146.369829 220.039289 
L 145.349486 218.831739 
L 144.839314 217.987245 
L 143.818971 215.708924 
L 143.3088 212.748446 
L 142.798629 212.601839 
L 141.268114 207.021132 
L 139.7376 200.149119 
L 139.227429 197.827787 
L 138.717257 194.755571 
L 138.207086 192.658745 
L 135.656229 179.570381 
L 134.635886 174.568599 
L 133.615543 171.315733 
L 133.105371 159.695022 
L 132.5952 157.062936 
L 131.064686 146.861936 
L 130.044343 138.315687 
L 129.024 126.67425 
L 128.513829 119.536226 
L 127.493486 100.445589 
L 126.473143 75.366015 
L 125.4528 41.990594 
L 124.482537 -1 
L 124.482537 -1 
" clip-path="url(#p9f5695ee3e)" style="fill: none; stroke: #291fd6; stroke-width: 0.5; stroke-linecap: square"/>
   </g>
   <g id="line2d_35">
    <path d="M 363.702857 308.410993 
L 363.192686 308.204718 
L 361.662171 308.240803 
L 345.336686 308.046539 
L 340.745143 307.847265 
L 333.092571 307.032826 
L 329.521371 306.895944 
L 326.970514 306.675865 
L 323.909486 306.947863 
L 322.889143 306.96732 
L 321.358629 307.014574 
L 315.746743 306.948101 
L 309.624686 306.418597 
L 305.543314 305.722704 
L 302.992457 305.091263 
L 297.890743 303.328159 
L 297.380571 303.080873 
L 296.360229 302.395902 
L 294.829714 301.620508 
L 293.809371 301.099577 
L 289.728 298.241749 
L 288.707657 297.411607 
L 287.177143 296.069433 
L 285.136457 294.158219 
L 281.565257 290.458971 
L 276.973714 285.189047 
L 272.382171 279.718704 
L 264.219429 270.407905 
L 259.627886 265.3507 
L 256.566857 262.131044 
L 252.995657 258.696069 
L 250.954971 256.922894 
L 247.893943 254.682148 
L 244.322743 252.574418 
L 242.282057 251.730066 
L 238.710857 250.923542 
L 235.649829 250.717051 
L 232.5888 250.88936 
L 230.548114 251.153395 
L 222.895543 252.817634 
L 221.365029 253.0998 
L 219.324343 253.332852 
L 216.773486 253.388235 
L 214.7328 253.141675 
L 213.202286 252.700586 
L 211.671771 252.026326 
L 210.141257 251.091244 
L 208.100571 249.301834 
L 206.059886 247.047061 
L 204.0192 244.187521 
L 201.978514 240.938092 
L 199.427657 236.310701 
L 197.897143 233.211666 
L 195.346286 227.528427 
L 193.3056 222.330855 
L 187.693714 207.614108 
L 186.1632 204.226836 
L 184.632686 201.519534 
L 183.102171 199.21444 
L 181.571657 197.217872 
L 179.530971 194.917861 
L 178.000457 193.424143 
L 176.980114 192.657304 
L 175.959771 192.098477 
L 174.429257 191.881333 
L 173.408914 192.147251 
L 172.388571 192.711591 
L 171.368229 193.454821 
L 169.837714 195.00083 
L 164.736 200.576752 
L 162.185143 203.583573 
L 160.144457 206.508131 
L 156.063086 213.00225 
L 152.491886 217.152719 
L 150.961371 218.527357 
L 148.920686 219.671058 
L 148.410514 219.769835 
L 147.900343 219.749645 
L 146.88 219.386872 
L 145.859657 218.436351 
L 144.839314 216.88571 
L 143.818971 214.56525 
L 143.3088 211.481799 
L 142.798629 211.455912 
L 141.268114 205.680491 
L 138.207086 191.187907 
L 137.696914 187.892599 
L 137.186743 185.996051 
L 135.146057 175.767928 
L 134.125714 171.194671 
L 133.615543 170.315903 
L 133.105371 159.386238 
L 132.085029 154.161456 
L 131.064686 147.868111 
L 130.044343 140.073355 
L 129.024 130.000053 
L 128.003657 115.903465 
L 126.983314 96.454926 
L 125.962971 69.716952 
L 124.942629 32.76505 
L 124.262147 -1 
L 124.262147 -1 
" clip-path="url(#p9f5695ee3e)" style="fill: none; stroke: #1f1fe0; stroke-width: 0.5; stroke-linecap: square"/>
   </g>
   <g id="patch_3">
    <path d="M 57.6 307.584 
L 57.6 41.472 
" style="fill: none; stroke: #000000; stroke-width: 0.8; stroke-linejoin: miter; stroke-linecap: square"/>
   </g>
   <g id="patch_4">
    <path d="M 414.72 307.584 
L 414.72 41.472 
" style="fill: none; stroke: #000000; stroke-width: 0.8; stroke-linejoin: miter; stroke-linecap: square"/>
   </g>
   <g id="patch_5">
    <path d="M 57.6 307.584 
L 414.72 307.584 
" style="fill: none; stroke: #000000; stroke-width: 0.8; stroke-linejoin: miter; stroke-linecap: square"/>
   </g>
   <g id="patch_6">
    <path d="M 57.6 41.472 
L 414.72 41.472 
" style="fill: none; stroke: #000000; stroke-width: 0.8; stroke-linejoin: miter; stroke-linecap: square"/>
   </g>
   <g id="text_18">
    <!-- IDA Titration of Alizarin:ompPBA complex &amp; Hydrobenzoin in Acetone  -->
    <g transform="translate(26.754375 22.034625) scale(0.12 -0.12)">
     <defs>
      <path id="DejaVuSans-49" d="M 628 4666 
L 1259 4666 
L 1259 0 
L 628 0 
L 628 4666 
z
" transform="scale(0.015625)"/>
      <path id="DejaVuSans-44" d="M 1259 4147 
L 1259 519 
L 2022 519 
Q 2988 519 3436 956 
Q 3884 1394 3884 2338 
Q 3884 3275 3436 3711 
Q 2988 4147 2022 4147 
L 1259 4147 
z
M 628 4666 
L 1925 4666 
Q 3281 4666 3915 4102 
Q 4550 3538 4550 2338 
Q 4550 1131 3912 565 
Q 3275 0 1925 0 
L 628 0 
L 628 4666 
z
" transform="scale(0.015625)"/>
      <path id="DejaVuSans-54" d="M -19 4666 
L 3928 4666 
L 3928 4134 
L 2272 4134 
L 2272 0 
L 1638 0 
L 1638 4134 
L -19 4134 
L -19 4666 
z
" transform="scale(0.015625)"/>
      <path id="DejaVuSans-69" d="M 603 3500 
L 1178 3500 
L 1178 0 
L 603 0 
L 603 3500 
z
M 603 4863 
L 1178 4863 
L 1178 4134 
L 603 4134 
L 603 4863 
z
" transform="scale(0.015625)"/>
      <path id="DejaVuSans-66" d="M 2375 4863 
L 2375 4384 
L 1825 4384 
Q 1516 4384 1395 4259 
Q 1275 4134 1275 3809 
L 1275 3500 
L 2222 3500 
L 2222 3053 
L 1275 3053 
L 1275 0 
L 697 0 
L 697 3053 
L 147 3053 
L 147 3500 
L 697 3500 
L 697 3744 
Q 697 4328 969 4595 
Q 1241 4863 1831 4863 
L 2375 4863 
z
" transform="scale(0.015625)"/>
      <path id="DejaVuSans-7a" d="M 353 3500 
L 3084 3500 
L 3084 2975 
L 922 459 
L 3084 459 
L 3084 0 
L 275 0 
L 275 525 
L 2438 3041 
L 353 3041 
L 353 3500 
z
" transform="scale(0.015625)"/>
      <path id="DejaVuSans-3a" d="M 750 794 
L 1409 794 
L 1409 0 
L 750 0 
L 750 794 
z
M 750 3309 
L 1409 3309 
L 1409 2516 
L 750 2516 
L 750 3309 
z
" transform="scale(0.015625)"/>
      <path id="DejaVuSans-70" d="M 1159 525 
L 1159 -1331 
L 581 -1331 
L 581 3500 
L 1159 3500 
L 1159 2969 
Q 1341 3281 1617 3432 
Q 1894 3584 2278 3584 
Q 2916 3584 3314 3078 
Q 3713 2572 3713 1747 
Q 3713 922 3314 415 
Q 2916 -91 2278 -91 
Q 1894 -91 1617 61 
Q 1341 213 1159 525 
z
M 3116 1747 
Q 3116 2381 2855 2742 
Q 2594 3103 2138 3103 
Q 1681 3103 1420 2742 
Q 1159 2381 1159 1747 
Q 1159 1113 1420 752 
Q 1681 391 2138 391 
Q 2594 391 2855 752 
Q 3116 1113 3116 1747 
z
" transform="scale(0.015625)"/>
      <path id="DejaVuSans-50" d="M 1259 4147 
L 1259 2394 
L 2053 2394 
Q 2494 2394 2734 2622 
Q 2975 2850 2975 3272 
Q 2975 3691 2734 3919 
Q 2494 4147 2053 4147 
L 1259 4147 
z
M 628 4666 
L 2053 4666 
Q 2838 4666 3239 4311 
Q 3641 3956 3641 3272 
Q 3641 2581 3239 2228 
Q 2838 1875 2053 1875 
L 1259 1875 
L 1259 0 
L 628 0 
L 628 4666 
z
" transform="scale(0.015625)"/>
      <path id="DejaVuSans-42" d="M 1259 2228 
L 1259 519 
L 2272 519 
Q 2781 519 3026 730 
Q 3272 941 3272 1375 
Q 3272 1813 3026 2020 
Q 2781 2228 2272 2228 
L 1259 2228 
z
M 1259 4147 
L 1259 2741 
L 2194 2741 
Q 2656 2741 2882 2914 
Q 3109 3088 3109 3444 
Q 3109 3797 2882 3972 
Q 2656 4147 2194 4147 
L 1259 4147 
z
M 628 4666 
L 2241 4666 
Q 2963 4666 3353 4366 
Q 3744 4066 3744 3513 
Q 3744 3084 3544 2831 
Q 3344 2578 2956 2516 
Q 3422 2416 3680 2098 
Q 3938 1781 3938 1306 
Q 3938 681 3513 340 
Q 3088 0 2303 0 
L 628 0 
L 628 4666 
z
" transform="scale(0.015625)"/>
      <path id="DejaVuSans-78" d="M 3513 3500 
L 2247 1797 
L 3578 0 
L 2900 0 
L 1881 1375 
L 863 0 
L 184 0 
L 1544 1831 
L 300 3500 
L 978 3500 
L 1906 2253 
L 2834 3500 
L 3513 3500 
z
" transform="scale(0.015625)"/>
      <path id="DejaVuSans-26" d="M 1556 2509 
Q 1272 2256 1139 2004 
Q 1006 1753 1006 1478 
Q 1006 1022 1337 719 
Q 1669 416 2169 416 
Q 2466 416 2725 514 
Q 2984 613 3213 813 
L 1556 2509 
z
M 1997 2859 
L 3584 1234 
Q 3769 1513 3872 1830 
Q 3975 2147 3994 2503 
L 4575 2503 
Q 4538 2091 4375 1687 
Q 4213 1284 3922 891 
L 4794 0 
L 4006 0 
L 3559 459 
Q 3234 181 2878 45 
Q 2522 -91 2113 -91 
Q 1359 -91 881 339 
Q 403 769 403 1441 
Q 403 1841 612 2192 
Q 822 2544 1241 2853 
Q 1091 3050 1012 3245 
Q 934 3441 934 3628 
Q 934 4134 1281 4442 
Q 1628 4750 2203 4750 
Q 2463 4750 2720 4694 
Q 2978 4638 3244 4525 
L 3244 3956 
Q 2972 4103 2725 4179 
Q 2478 4256 2266 4256 
Q 1938 4256 1733 4082 
Q 1528 3909 1528 3634 
Q 1528 3475 1620 3314 
Q 1713 3153 1997 2859 
z
" transform="scale(0.015625)"/>
      <path id="DejaVuSans-48" d="M 628 4666 
L 1259 4666 
L 1259 2753 
L 3553 2753 
L 3553 4666 
L 4184 4666 
L 4184 0 
L 3553 0 
L 3553 2222 
L 1259 2222 
L 1259 0 
L 628 0 
L 628 4666 
z
" transform="scale(0.015625)"/>
      <path id="DejaVuSans-79" d="M 2059 -325 
Q 1816 -950 1584 -1140 
Q 1353 -1331 966 -1331 
L 506 -1331 
L 506 -850 
L 844 -850 
Q 1081 -850 1212 -737 
Q 1344 -625 1503 -206 
L 1606 56 
L 191 3500 
L 800 3500 
L 1894 763 
L 2988 3500 
L 3597 3500 
L 2059 -325 
z
" transform="scale(0.015625)"/>
      <path id="DejaVuSans-64" d="M 2906 2969 
L 2906 4863 
L 3481 4863 
L 3481 0 
L 2906 0 
L 2906 525 
Q 2725 213 2448 61 
Q 2172 -91 1784 -91 
Q 1150 -91 751 415 
Q 353 922 353 1747 
Q 353 2572 751 3078 
Q 1150 3584 1784 3584 
Q 2172 3584 2448 3432 
Q 2725 3281 2906 2969 
z
M 947 1747 
Q 947 1113 1208 752 
Q 1469 391 1925 391 
Q 2381 391 2643 752 
Q 2906 1113 2906 1747 
Q 2906 2381 2643 2742 
Q 2381 3103 1925 3103 
Q 1469 3103 1208 2742 
Q 947 2381 947 1747 
z
" transform="scale(0.015625)"/>
     </defs>
     <use xlink:href="#DejaVuSans-49"/>
     <use xlink:href="#DejaVuSans-44" x="29.492188"/>
     <use xlink:href="#DejaVuSans-41" x="104.744141"/>
     <use xlink:href="#DejaVuSans-20" x="173.152344"/>
     <use xlink:href="#DejaVuSans-54" x="204.939453"/>
     <use xlink:href="#DejaVuSans-69" x="262.898438"/>
     <use xlink:href="#DejaVuSans-74" x="290.681641"/>
     <use xlink:href="#DejaVuSans-72" x="329.890625"/>
     <use xlink:href="#DejaVuSans-61" x="371.003906"/>
     <use xlink:href="#DejaVuSans-74" x="432.283203"/>
     <use xlink:href="#DejaVuSans-69" x="471.492188"/>
     <use xlink:href="#DejaVuSans-6f" x="499.275391"/>
     <use xlink:href="#DejaVuSans-6e" x="560.457031"/>
     <use xlink:href="#DejaVuSans-20" x="623.835938"/>
     <use xlink:href="#DejaVuSans-6f" x="655.623047"/>
     <use xlink:href="#DejaVuSans-66" x="716.804688"/>
     <use xlink:href="#DejaVuSans-20" x="752.009766"/>
     <use xlink:href="#DejaVuSans-41" x="783.796875"/>
     <use xlink:href="#DejaVuSans-6c" x="852.205078"/>
     <use xlink:href="#DejaVuSans-69" x="879.988281"/>
     <use xlink:href="#DejaVuSans-7a" x="907.771484"/>
     <use xlink:href="#DejaVuSans-61" x="960.261719"/>
     <use xlink:href="#DejaVuSans-72" x="1021.541016"/>
     <use xlink:href="#DejaVuSans-69" x="1062.654297"/>
     <use xlink:href="#DejaVuSans-6e" x="1090.4375"/>
     <use xlink:href="#DejaVuSans-3a" x="1153.816406"/>
     <use xlink:href="#DejaVuSans-6f" x="1187.507812"/>
     <use xlink:href="#DejaVuSans-6d" x="1248.689453"/>
     <use xlink:href="#DejaVuSans-70" x="1346.101562"/>
     <use xlink:href="#DejaVuSans-50" x="1409.578125"/>
     <use xlink:href="#DejaVuSans-42" x="1469.880859"/>
     <use xlink:href="#DejaVuSans-41" x="1538.484375"/>
     <use xlink:href="#DejaVuSans-20" x="1606.892578"/>
     <use xlink:href="#DejaVuSans-63" x="1638.679688"/>
     <use xlink:href="#DejaVuSans-6f" x="1693.660156"/>
     <use xlink:href="#DejaVuSans-6d" x="1754.841797"/>
     <use xlink:href="#DejaVuSans-70" x="1852.253906"/>
     <use xlink:href="#DejaVuSans-6c" x="1915.730469"/>
     <use xlink:href="#DejaVuSans-65" x="1943.513672"/>
     <use xlink:href="#DejaVuSans-78" x="2003.287109"/>
     <use xlink:href="#DejaVuSans-20" x="2062.466797"/>
     <use xlink:href="#DejaVuSans-26" x="2094.253906"/>
     <use xlink:href="#DejaVuSans-20" x="2172.232422"/>
     <use xlink:href="#DejaVuSans-48" x="2204.019531"/>
     <use xlink:href="#DejaVuSans-79" x="2279.214844"/>
     <use xlink:href="#DejaVuSans-64" x="2338.394531"/>
     <use xlink:href="#DejaVuSans-72" x="2401.871094"/>
     <use xlink:href="#DejaVuSans-6f" x="2440.734375"/>
     <use xlink:href="#DejaVuSans-62" x="2501.916016"/>
     <use xlink:href="#DejaVuSans-65" x="2565.392578"/>
     <use xlink:href="#DejaVuSans-6e" x="2626.916016"/>
     <use xlink:href="#DejaVuSans-7a" x="2690.294922"/>
     <use xlink:href="#DejaVuSans-6f" x="2742.785156"/>
     <use xlink:href="#DejaVuSans-69" x="2803.966797"/>
     <use xlink:href="#DejaVuSans-6e" x="2831.75"/>
     <use xlink:href="#DejaVuSans-20" x="2895.128906"/>
     <use xlink:href="#DejaVuSans-69" x="2926.916016"/>
     <use xlink:href="#DejaVuSans-6e" x="2954.699219"/>
     <use xlink:href="#DejaVuSans-20" x="3018.078125"/>
     <use xlink:href="#DejaVuSans-41" x="3049.865234"/>
     <use xlink:href="#DejaVuSans-63" x="3116.523438"/>
     <use xlink:href="#DejaVuSans-65" x="3171.503906"/>
     <use xlink:href="#DejaVuSans-74" x="3233.027344"/>
     <use xlink:href="#DejaVuSans-6f" x="3272.236328"/>
     <use xlink:href="#DejaVuSans-6e" x="3333.417969"/>
     <use xlink:href="#DejaVuSans-65" x="3396.796875"/>
     <use xlink:href="#DejaVuSans-20" x="3458.320312"/>
    </g>
    <!--  -->
    <g transform="translate(236.16 35.472) scale(0.12 -0.12)"/>
   </g>
  </g>
 </g>
 <defs>
  <clipPath id="p9f5695ee3e">
   <rect x="57.6" y="41.472" width="357.12" height="266.112"/>
  </clipPath>
 </defs>
</svg>
