<?xml version="1.0" encoding="utf-8" standalone="no"?>
<!DOCTYPE svg PUBLIC "-//W3C//DTD SVG 1.1//EN"
  "http://www.w3.org/Graphics/SVG/1.1/DTD/svg11.dtd">
<svg xmlns:xlink="http://www.w3.org/1999/xlink" width="460.8pt" height="345.6pt" viewBox="0 0 460.8 345.6" xmlns="http://www.w3.org/2000/svg" version="1.1">
 <metadata>
  <rdf:RDF xmlns:dc="http://purl.org/dc/elements/1.1/" xmlns:cc="http://creativecommons.org/ns#" xmlns:rdf="http://www.w3.org/1999/02/22-rdf-syntax-ns#">
   <cc:Work>
    <dc:type rdf:resource="http://purl.org/dc/dcmitype/StillImage"/>
    <dc:date>2024-11-03T21:07:18.961727</dc:date>
    <dc:format>image/svg+xml</dc:format>
    <dc:creator>
     <cc:Agent>
      <dc:title>Matplotlib v3.9.2, https://matplotlib.org/</dc:title>
     </cc:Agent>
    </dc:creator>
   </cc:Work>
  </rdf:RDF>
 </metadata>
 <defs>
  <style type="text/css">*{stroke-linejoin: round; stroke-linecap: butt}</style>
 </defs>
 <g id="figure_1">
  <g id="patch_1">
   <path d="M 0 345.6 
L 460.8 345.6 
L 460.8 0 
L 0 0 
z
" style="fill: #ffffff"/>
  </g>
  <g id="axes_1">
   <g id="patch_2">
    <path d="M 57.6 307.584 
L 414.72 307.584 
L 414.72 41.472 
L 57.6 41.472 
z
" style="fill: #ffffff"/>
   </g>
   <g id="matplotlib.axis_1">
    <g id="xtick_1">
     <g id="line2d_1">
      <defs>
       <path id="m890cb66e23" d="M 0 0 
L 0 3.5 
" style="stroke: #000000; stroke-width: 0.8"/>
      </defs>
      <g>
       <use xlink:href="#m890cb66e23" x="57.6" y="307.584" style="stroke: #000000; stroke-width: 0.8"/>
      </g>
     </g>
     <g id="text_1">
      <!-- 200 -->
      <g transform="translate(48.05625 322.182437) scale(0.1 -0.1)">
       <defs>
        <path id="DejaVuSans-32" d="M 1228 531 
L 3431 531 
L 3431 0 
L 469 0 
L 469 531 
Q 828 903 1448 1529 
Q 2069 2156 2228 2338 
Q 2531 2678 2651 2914 
Q 2772 3150 2772 3378 
Q 2772 3750 2511 3984 
Q 2250 4219 1831 4219 
Q 1534 4219 1204 4116 
Q 875 4013 500 3803 
L 500 4441 
Q 881 4594 1212 4672 
Q 1544 4750 1819 4750 
Q 2544 4750 2975 4387 
Q 3406 4025 3406 3419 
Q 3406 3131 3298 2873 
Q 3191 2616 2906 2266 
Q 2828 2175 2409 1742 
Q 1991 1309 1228 531 
z
" transform="scale(0.015625)"/>
        <path id="DejaVuSans-30" d="M 2034 4250 
Q 1547 4250 1301 3770 
Q 1056 3291 1056 2328 
Q 1056 1369 1301 889 
Q 1547 409 2034 409 
Q 2525 409 2770 889 
Q 3016 1369 3016 2328 
Q 3016 3291 2770 3770 
Q 2525 4250 2034 4250 
z
M 2034 4750 
Q 2819 4750 3233 4129 
Q 3647 3509 3647 2328 
Q 3647 1150 3233 529 
Q 2819 -91 2034 -91 
Q 1250 -91 836 529 
Q 422 1150 422 2328 
Q 422 3509 836 4129 
Q 1250 4750 2034 4750 
z
" transform="scale(0.015625)"/>
       </defs>
       <use xlink:href="#DejaVuSans-32"/>
       <use xlink:href="#DejaVuSans-30" x="63.623047"/>
       <use xlink:href="#DejaVuSans-30" x="127.246094"/>
      </g>
     </g>
    </g>
    <g id="xtick_2">
     <g id="line2d_2">
      <g>
       <use xlink:href="#m890cb66e23" x="108.617143" y="307.584" style="stroke: #000000; stroke-width: 0.8"/>
      </g>
     </g>
     <g id="text_2">
      <!-- 300 -->
      <g transform="translate(99.073393 322.182437) scale(0.1 -0.1)">
       <defs>
        <path id="DejaVuSans-33" d="M 2597 2516 
Q 3050 2419 3304 2112 
Q 3559 1806 3559 1356 
Q 3559 666 3084 287 
Q 2609 -91 1734 -91 
Q 1441 -91 1130 -33 
Q 819 25 488 141 
L 488 750 
Q 750 597 1062 519 
Q 1375 441 1716 441 
Q 2309 441 2620 675 
Q 2931 909 2931 1356 
Q 2931 1769 2642 2001 
Q 2353 2234 1838 2234 
L 1294 2234 
L 1294 2753 
L 1863 2753 
Q 2328 2753 2575 2939 
Q 2822 3125 2822 3475 
Q 2822 3834 2567 4026 
Q 2313 4219 1838 4219 
Q 1578 4219 1281 4162 
Q 984 4106 628 3988 
L 628 4550 
Q 988 4650 1302 4700 
Q 1616 4750 1894 4750 
Q 2613 4750 3031 4423 
Q 3450 4097 3450 3541 
Q 3450 3153 3228 2886 
Q 3006 2619 2597 2516 
z
" transform="scale(0.015625)"/>
       </defs>
       <use xlink:href="#DejaVuSans-33"/>
       <use xlink:href="#DejaVuSans-30" x="63.623047"/>
       <use xlink:href="#DejaVuSans-30" x="127.246094"/>
      </g>
     </g>
    </g>
    <g id="xtick_3">
     <g id="line2d_3">
      <g>
       <use xlink:href="#m890cb66e23" x="159.634286" y="307.584" style="stroke: #000000; stroke-width: 0.8"/>
      </g>
     </g>
     <g id="text_3">
      <!-- 400 -->
      <g transform="translate(150.090536 322.182437) scale(0.1 -0.1)">
       <defs>
        <path id="DejaVuSans-34" d="M 2419 4116 
L 825 1625 
L 2419 1625 
L 2419 4116 
z
M 2253 4666 
L 3047 4666 
L 3047 1625 
L 3713 1625 
L 3713 1100 
L 3047 1100 
L 3047 0 
L 2419 0 
L 2419 1100 
L 313 1100 
L 313 1709 
L 2253 4666 
z
" transform="scale(0.015625)"/>
       </defs>
       <use xlink:href="#DejaVuSans-34"/>
       <use xlink:href="#DejaVuSans-30" x="63.623047"/>
       <use xlink:href="#DejaVuSans-30" x="127.246094"/>
      </g>
     </g>
    </g>
    <g id="xtick_4">
     <g id="line2d_4">
      <g>
       <use xlink:href="#m890cb66e23" x="210.651429" y="307.584" style="stroke: #000000; stroke-width: 0.8"/>
      </g>
     </g>
     <g id="text_4">
      <!-- 500 -->
      <g transform="translate(201.107679 322.182437) scale(0.1 -0.1)">
       <defs>
        <path id="DejaVuSans-35" d="M 691 4666 
L 3169 4666 
L 3169 4134 
L 1269 4134 
L 1269 2991 
Q 1406 3038 1543 3061 
Q 1681 3084 1819 3084 
Q 2600 3084 3056 2656 
Q 3513 2228 3513 1497 
Q 3513 744 3044 326 
Q 2575 -91 1722 -91 
Q 1428 -91 1123 -41 
Q 819 9 494 109 
L 494 744 
Q 775 591 1075 516 
Q 1375 441 1709 441 
Q 2250 441 2565 725 
Q 2881 1009 2881 1497 
Q 2881 1984 2565 2268 
Q 2250 2553 1709 2553 
Q 1456 2553 1204 2497 
Q 953 2441 691 2322 
L 691 4666 
z
" transform="scale(0.015625)"/>
       </defs>
       <use xlink:href="#DejaVuSans-35"/>
       <use xlink:href="#DejaVuSans-30" x="63.623047"/>
       <use xlink:href="#DejaVuSans-30" x="127.246094"/>
      </g>
     </g>
    </g>
    <g id="xtick_5">
     <g id="line2d_5">
      <g>
       <use xlink:href="#m890cb66e23" x="261.668571" y="307.584" style="stroke: #000000; stroke-width: 0.8"/>
      </g>
     </g>
     <g id="text_5">
      <!-- 600 -->
      <g transform="translate(252.124821 322.182437) scale(0.1 -0.1)">
       <defs>
        <path id="DejaVuSans-36" d="M 2113 2584 
Q 1688 2584 1439 2293 
Q 1191 2003 1191 1497 
Q 1191 994 1439 701 
Q 1688 409 2113 409 
Q 2538 409 2786 701 
Q 3034 994 3034 1497 
Q 3034 2003 2786 2293 
Q 2538 2584 2113 2584 
z
M 3366 4563 
L 3366 3988 
Q 3128 4100 2886 4159 
Q 2644 4219 2406 4219 
Q 1781 4219 1451 3797 
Q 1122 3375 1075 2522 
Q 1259 2794 1537 2939 
Q 1816 3084 2150 3084 
Q 2853 3084 3261 2657 
Q 3669 2231 3669 1497 
Q 3669 778 3244 343 
Q 2819 -91 2113 -91 
Q 1303 -91 875 529 
Q 447 1150 447 2328 
Q 447 3434 972 4092 
Q 1497 4750 2381 4750 
Q 2619 4750 2861 4703 
Q 3103 4656 3366 4563 
z
" transform="scale(0.015625)"/>
       </defs>
       <use xlink:href="#DejaVuSans-36"/>
       <use xlink:href="#DejaVuSans-30" x="63.623047"/>
       <use xlink:href="#DejaVuSans-30" x="127.246094"/>
      </g>
     </g>
    </g>
    <g id="xtick_6">
     <g id="line2d_6">
      <g>
       <use xlink:href="#m890cb66e23" x="312.685714" y="307.584" style="stroke: #000000; stroke-width: 0.8"/>
      </g>
     </g>
     <g id="text_6">
      <!-- 700 -->
      <g transform="translate(303.141964 322.182437) scale(0.1 -0.1)">
       <defs>
        <path id="DejaVuSans-37" d="M 525 4666 
L 3525 4666 
L 3525 4397 
L 1831 0 
L 1172 0 
L 2766 4134 
L 525 4134 
L 525 4666 
z
" transform="scale(0.015625)"/>
       </defs>
       <use xlink:href="#DejaVuSans-37"/>
       <use xlink:href="#DejaVuSans-30" x="63.623047"/>
       <use xlink:href="#DejaVuSans-30" x="127.246094"/>
      </g>
     </g>
    </g>
    <g id="xtick_7">
     <g id="line2d_7">
      <g>
       <use xlink:href="#m890cb66e23" x="363.702857" y="307.584" style="stroke: #000000; stroke-width: 0.8"/>
      </g>
     </g>
     <g id="text_7">
      <!-- 800 -->
      <g transform="translate(354.159107 322.182437) scale(0.1 -0.1)">
       <defs>
        <path id="DejaVuSans-38" d="M 2034 2216 
Q 1584 2216 1326 1975 
Q 1069 1734 1069 1313 
Q 1069 891 1326 650 
Q 1584 409 2034 409 
Q 2484 409 2743 651 
Q 3003 894 3003 1313 
Q 3003 1734 2745 1975 
Q 2488 2216 2034 2216 
z
M 1403 2484 
Q 997 2584 770 2862 
Q 544 3141 544 3541 
Q 544 4100 942 4425 
Q 1341 4750 2034 4750 
Q 2731 4750 3128 4425 
Q 3525 4100 3525 3541 
Q 3525 3141 3298 2862 
Q 3072 2584 2669 2484 
Q 3125 2378 3379 2068 
Q 3634 1759 3634 1313 
Q 3634 634 3220 271 
Q 2806 -91 2034 -91 
Q 1263 -91 848 271 
Q 434 634 434 1313 
Q 434 1759 690 2068 
Q 947 2378 1403 2484 
z
M 1172 3481 
Q 1172 3119 1398 2916 
Q 1625 2713 2034 2713 
Q 2441 2713 2670 2916 
Q 2900 3119 2900 3481 
Q 2900 3844 2670 4047 
Q 2441 4250 2034 4250 
Q 1625 4250 1398 4047 
Q 1172 3844 1172 3481 
z
" transform="scale(0.015625)"/>
       </defs>
       <use xlink:href="#DejaVuSans-38"/>
       <use xlink:href="#DejaVuSans-30" x="63.623047"/>
       <use xlink:href="#DejaVuSans-30" x="127.246094"/>
      </g>
     </g>
    </g>
    <g id="xtick_8">
     <g id="line2d_8">
      <g>
       <use xlink:href="#m890cb66e23" x="414.72" y="307.584" style="stroke: #000000; stroke-width: 0.8"/>
      </g>
     </g>
     <g id="text_8">
      <!-- 900 -->
      <g transform="translate(405.17625 322.182437) scale(0.1 -0.1)">
       <defs>
        <path id="DejaVuSans-39" d="M 703 97 
L 703 672 
Q 941 559 1184 500 
Q 1428 441 1663 441 
Q 2288 441 2617 861 
Q 2947 1281 2994 2138 
Q 2813 1869 2534 1725 
Q 2256 1581 1919 1581 
Q 1219 1581 811 2004 
Q 403 2428 403 3163 
Q 403 3881 828 4315 
Q 1253 4750 1959 4750 
Q 2769 4750 3195 4129 
Q 3622 3509 3622 2328 
Q 3622 1225 3098 567 
Q 2575 -91 1691 -91 
Q 1453 -91 1209 -44 
Q 966 3 703 97 
z
M 1959 2075 
Q 2384 2075 2632 2365 
Q 2881 2656 2881 3163 
Q 2881 3666 2632 3958 
Q 2384 4250 1959 4250 
Q 1534 4250 1286 3958 
Q 1038 3666 1038 3163 
Q 1038 2656 1286 2365 
Q 1534 2075 1959 2075 
z
" transform="scale(0.015625)"/>
       </defs>
       <use xlink:href="#DejaVuSans-39"/>
       <use xlink:href="#DejaVuSans-30" x="63.623047"/>
       <use xlink:href="#DejaVuSans-30" x="127.246094"/>
      </g>
     </g>
    </g>
    <g id="text_9">
     <!-- Wavelength (nm) -->
     <g transform="translate(192.967812 335.860562) scale(0.1 -0.1)">
      <defs>
       <path id="DejaVuSans-57" d="M 213 4666 
L 850 4666 
L 1831 722 
L 2809 4666 
L 3519 4666 
L 4500 722 
L 5478 4666 
L 6119 4666 
L 4947 0 
L 4153 0 
L 3169 4050 
L 2175 0 
L 1381 0 
L 213 4666 
z
" transform="scale(0.015625)"/>
       <path id="DejaVuSans-61" d="M 2194 1759 
Q 1497 1759 1228 1600 
Q 959 1441 959 1056 
Q 959 750 1161 570 
Q 1363 391 1709 391 
Q 2188 391 2477 730 
Q 2766 1069 2766 1631 
L 2766 1759 
L 2194 1759 
z
M 3341 1997 
L 3341 0 
L 2766 0 
L 2766 531 
Q 2569 213 2275 61 
Q 1981 -91 1556 -91 
Q 1019 -91 701 211 
Q 384 513 384 1019 
Q 384 1609 779 1909 
Q 1175 2209 1959 2209 
L 2766 2209 
L 2766 2266 
Q 2766 2663 2505 2880 
Q 2244 3097 1772 3097 
Q 1472 3097 1187 3025 
Q 903 2953 641 2809 
L 641 3341 
Q 956 3463 1253 3523 
Q 1550 3584 1831 3584 
Q 2591 3584 2966 3190 
Q 3341 2797 3341 1997 
z
" transform="scale(0.015625)"/>
       <path id="DejaVuSans-76" d="M 191 3500 
L 800 3500 
L 1894 563 
L 2988 3500 
L 3597 3500 
L 2284 0 
L 1503 0 
L 191 3500 
z
" transform="scale(0.015625)"/>
       <path id="DejaVuSans-65" d="M 3597 1894 
L 3597 1613 
L 953 1613 
Q 991 1019 1311 708 
Q 1631 397 2203 397 
Q 2534 397 2845 478 
Q 3156 559 3463 722 
L 3463 178 
Q 3153 47 2828 -22 
Q 2503 -91 2169 -91 
Q 1331 -91 842 396 
Q 353 884 353 1716 
Q 353 2575 817 3079 
Q 1281 3584 2069 3584 
Q 2775 3584 3186 3129 
Q 3597 2675 3597 1894 
z
M 3022 2063 
Q 3016 2534 2758 2815 
Q 2500 3097 2075 3097 
Q 1594 3097 1305 2825 
Q 1016 2553 972 2059 
L 3022 2063 
z
" transform="scale(0.015625)"/>
       <path id="DejaVuSans-6c" d="M 603 4863 
L 1178 4863 
L 1178 0 
L 603 0 
L 603 4863 
z
" transform="scale(0.015625)"/>
       <path id="DejaVuSans-6e" d="M 3513 2113 
L 3513 0 
L 2938 0 
L 2938 2094 
Q 2938 2591 2744 2837 
Q 2550 3084 2163 3084 
Q 1697 3084 1428 2787 
Q 1159 2491 1159 1978 
L 1159 0 
L 581 0 
L 581 3500 
L 1159 3500 
L 1159 2956 
Q 1366 3272 1645 3428 
Q 1925 3584 2291 3584 
Q 2894 3584 3203 3211 
Q 3513 2838 3513 2113 
z
" transform="scale(0.015625)"/>
       <path id="DejaVuSans-67" d="M 2906 1791 
Q 2906 2416 2648 2759 
Q 2391 3103 1925 3103 
Q 1463 3103 1205 2759 
Q 947 2416 947 1791 
Q 947 1169 1205 825 
Q 1463 481 1925 481 
Q 2391 481 2648 825 
Q 2906 1169 2906 1791 
z
M 3481 434 
Q 3481 -459 3084 -895 
Q 2688 -1331 1869 -1331 
Q 1566 -1331 1297 -1286 
Q 1028 -1241 775 -1147 
L 775 -588 
Q 1028 -725 1275 -790 
Q 1522 -856 1778 -856 
Q 2344 -856 2625 -561 
Q 2906 -266 2906 331 
L 2906 616 
Q 2728 306 2450 153 
Q 2172 0 1784 0 
Q 1141 0 747 490 
Q 353 981 353 1791 
Q 353 2603 747 3093 
Q 1141 3584 1784 3584 
Q 2172 3584 2450 3431 
Q 2728 3278 2906 2969 
L 2906 3500 
L 3481 3500 
L 3481 434 
z
" transform="scale(0.015625)"/>
       <path id="DejaVuSans-74" d="M 1172 4494 
L 1172 3500 
L 2356 3500 
L 2356 3053 
L 1172 3053 
L 1172 1153 
Q 1172 725 1289 603 
Q 1406 481 1766 481 
L 2356 481 
L 2356 0 
L 1766 0 
Q 1100 0 847 248 
Q 594 497 594 1153 
L 594 3053 
L 172 3053 
L 172 3500 
L 594 3500 
L 594 4494 
L 1172 4494 
z
" transform="scale(0.015625)"/>
       <path id="DejaVuSans-68" d="M 3513 2113 
L 3513 0 
L 2938 0 
L 2938 2094 
Q 2938 2591 2744 2837 
Q 2550 3084 2163 3084 
Q 1697 3084 1428 2787 
Q 1159 2491 1159 1978 
L 1159 0 
L 581 0 
L 581 4863 
L 1159 4863 
L 1159 2956 
Q 1366 3272 1645 3428 
Q 1925 3584 2291 3584 
Q 2894 3584 3203 3211 
Q 3513 2838 3513 2113 
z
" transform="scale(0.015625)"/>
       <path id="DejaVuSans-20" transform="scale(0.015625)"/>
       <path id="DejaVuSans-28" d="M 1984 4856 
Q 1566 4138 1362 3434 
Q 1159 2731 1159 2009 
Q 1159 1288 1364 580 
Q 1569 -128 1984 -844 
L 1484 -844 
Q 1016 -109 783 600 
Q 550 1309 550 2009 
Q 550 2706 781 3412 
Q 1013 4119 1484 4856 
L 1984 4856 
z
" transform="scale(0.015625)"/>
       <path id="DejaVuSans-6d" d="M 3328 2828 
Q 3544 3216 3844 3400 
Q 4144 3584 4550 3584 
Q 5097 3584 5394 3201 
Q 5691 2819 5691 2113 
L 5691 0 
L 5113 0 
L 5113 2094 
Q 5113 2597 4934 2840 
Q 4756 3084 4391 3084 
Q 3944 3084 3684 2787 
Q 3425 2491 3425 1978 
L 3425 0 
L 2847 0 
L 2847 2094 
Q 2847 2600 2669 2842 
Q 2491 3084 2119 3084 
Q 1678 3084 1418 2786 
Q 1159 2488 1159 1978 
L 1159 0 
L 581 0 
L 581 3500 
L 1159 3500 
L 1159 2956 
Q 1356 3278 1631 3431 
Q 1906 3584 2284 3584 
Q 2666 3584 2933 3390 
Q 3200 3197 3328 2828 
z
" transform="scale(0.015625)"/>
       <path id="DejaVuSans-29" d="M 513 4856 
L 1013 4856 
Q 1481 4119 1714 3412 
Q 1947 2706 1947 2009 
Q 1947 1309 1714 600 
Q 1481 -109 1013 -844 
L 513 -844 
Q 928 -128 1133 580 
Q 1338 1288 1338 2009 
Q 1338 2731 1133 3434 
Q 928 4138 513 4856 
z
" transform="scale(0.015625)"/>
      </defs>
      <use xlink:href="#DejaVuSans-57"/>
      <use xlink:href="#DejaVuSans-61" x="92.501953"/>
      <use xlink:href="#DejaVuSans-76" x="153.78125"/>
      <use xlink:href="#DejaVuSans-65" x="212.960938"/>
      <use xlink:href="#DejaVuSans-6c" x="274.484375"/>
      <use xlink:href="#DejaVuSans-65" x="302.267578"/>
      <use xlink:href="#DejaVuSans-6e" x="363.791016"/>
      <use xlink:href="#DejaVuSans-67" x="427.169922"/>
      <use xlink:href="#DejaVuSans-74" x="490.646484"/>
      <use xlink:href="#DejaVuSans-68" x="529.855469"/>
      <use xlink:href="#DejaVuSans-20" x="593.234375"/>
      <use xlink:href="#DejaVuSans-28" x="625.021484"/>
      <use xlink:href="#DejaVuSans-6e" x="664.035156"/>
      <use xlink:href="#DejaVuSans-6d" x="727.414062"/>
      <use xlink:href="#DejaVuSans-29" x="824.826172"/>
     </g>
    </g>
   </g>
   <g id="matplotlib.axis_2">
    <g id="ytick_1">
     <g id="line2d_9">
      <defs>
       <path id="mfcfab64321" d="M 0 0 
L -3.5 0 
" style="stroke: #000000; stroke-width: 0.8"/>
      </defs>
      <g>
       <use xlink:href="#mfcfab64321" x="57.6" y="307.584" style="stroke: #000000; stroke-width: 0.8"/>
      </g>
     </g>
     <g id="text_10">
      <!-- 0.0 -->
      <g transform="translate(34.696875 311.383219) scale(0.1 -0.1)">
       <defs>
        <path id="DejaVuSans-2e" d="M 684 794 
L 1344 794 
L 1344 0 
L 684 0 
L 684 794 
z
" transform="scale(0.015625)"/>
       </defs>
       <use xlink:href="#DejaVuSans-30"/>
       <use xlink:href="#DejaVuSans-2e" x="63.623047"/>
       <use xlink:href="#DejaVuSans-30" x="95.410156"/>
      </g>
     </g>
    </g>
    <g id="ytick_2">
     <g id="line2d_10">
      <g>
       <use xlink:href="#mfcfab64321" x="57.6" y="263.232" style="stroke: #000000; stroke-width: 0.8"/>
      </g>
     </g>
     <g id="text_11">
      <!-- 0.2 -->
      <g transform="translate(34.696875 267.031219) scale(0.1 -0.1)">
       <use xlink:href="#DejaVuSans-30"/>
       <use xlink:href="#DejaVuSans-2e" x="63.623047"/>
       <use xlink:href="#DejaVuSans-32" x="95.410156"/>
      </g>
     </g>
    </g>
    <g id="ytick_3">
     <g id="line2d_11">
      <g>
       <use xlink:href="#mfcfab64321" x="57.6" y="218.88" style="stroke: #000000; stroke-width: 0.8"/>
      </g>
     </g>
     <g id="text_12">
      <!-- 0.4 -->
      <g transform="translate(34.696875 222.679219) scale(0.1 -0.1)">
       <use xlink:href="#DejaVuSans-30"/>
       <use xlink:href="#DejaVuSans-2e" x="63.623047"/>
       <use xlink:href="#DejaVuSans-34" x="95.410156"/>
      </g>
     </g>
    </g>
    <g id="ytick_4">
     <g id="line2d_12">
      <g>
       <use xlink:href="#mfcfab64321" x="57.6" y="174.528" style="stroke: #000000; stroke-width: 0.8"/>
      </g>
     </g>
     <g id="text_13">
      <!-- 0.6 -->
      <g transform="translate(34.696875 178.327219) scale(0.1 -0.1)">
       <use xlink:href="#DejaVuSans-30"/>
       <use xlink:href="#DejaVuSans-2e" x="63.623047"/>
       <use xlink:href="#DejaVuSans-36" x="95.410156"/>
      </g>
     </g>
    </g>
    <g id="ytick_5">
     <g id="line2d_13">
      <g>
       <use xlink:href="#mfcfab64321" x="57.6" y="130.176" style="stroke: #000000; stroke-width: 0.8"/>
      </g>
     </g>
     <g id="text_14">
      <!-- 0.8 -->
      <g transform="translate(34.696875 133.975219) scale(0.1 -0.1)">
       <use xlink:href="#DejaVuSans-30"/>
       <use xlink:href="#DejaVuSans-2e" x="63.623047"/>
       <use xlink:href="#DejaVuSans-38" x="95.410156"/>
      </g>
     </g>
    </g>
    <g id="ytick_6">
     <g id="line2d_14">
      <g>
       <use xlink:href="#mfcfab64321" x="57.6" y="85.824" style="stroke: #000000; stroke-width: 0.8"/>
      </g>
     </g>
     <g id="text_15">
      <!-- 1.0 -->
      <g transform="translate(34.696875 89.623219) scale(0.1 -0.1)">
       <defs>
        <path id="DejaVuSans-31" d="M 794 531 
L 1825 531 
L 1825 4091 
L 703 3866 
L 703 4441 
L 1819 4666 
L 2450 4666 
L 2450 531 
L 3481 531 
L 3481 0 
L 794 0 
L 794 531 
z
" transform="scale(0.015625)"/>
       </defs>
       <use xlink:href="#DejaVuSans-31"/>
       <use xlink:href="#DejaVuSans-2e" x="63.623047"/>
       <use xlink:href="#DejaVuSans-30" x="95.410156"/>
      </g>
     </g>
    </g>
    <g id="ytick_7">
     <g id="line2d_15">
      <g>
       <use xlink:href="#mfcfab64321" x="57.6" y="41.472" style="stroke: #000000; stroke-width: 0.8"/>
      </g>
     </g>
     <g id="text_16">
      <!-- 1.2 -->
      <g transform="translate(34.696875 45.271219) scale(0.1 -0.1)">
       <use xlink:href="#DejaVuSans-31"/>
       <use xlink:href="#DejaVuSans-2e" x="63.623047"/>
       <use xlink:href="#DejaVuSans-32" x="95.410156"/>
      </g>
     </g>
    </g>
    <g id="text_17">
     <!-- Absorbance -->
     <g transform="translate(28.617187 204.074875) rotate(-90) scale(0.1 -0.1)">
      <defs>
       <path id="DejaVuSans-41" d="M 2188 4044 
L 1331 1722 
L 3047 1722 
L 2188 4044 
z
M 1831 4666 
L 2547 4666 
L 4325 0 
L 3669 0 
L 3244 1197 
L 1141 1197 
L 716 0 
L 50 0 
L 1831 4666 
z
" transform="scale(0.015625)"/>
       <path id="DejaVuSans-62" d="M 3116 1747 
Q 3116 2381 2855 2742 
Q 2594 3103 2138 3103 
Q 1681 3103 1420 2742 
Q 1159 2381 1159 1747 
Q 1159 1113 1420 752 
Q 1681 391 2138 391 
Q 2594 391 2855 752 
Q 3116 1113 3116 1747 
z
M 1159 2969 
Q 1341 3281 1617 3432 
Q 1894 3584 2278 3584 
Q 2916 3584 3314 3078 
Q 3713 2572 3713 1747 
Q 3713 922 3314 415 
Q 2916 -91 2278 -91 
Q 1894 -91 1617 61 
Q 1341 213 1159 525 
L 1159 0 
L 581 0 
L 581 4863 
L 1159 4863 
L 1159 2969 
z
" transform="scale(0.015625)"/>
       <path id="DejaVuSans-73" d="M 2834 3397 
L 2834 2853 
Q 2591 2978 2328 3040 
Q 2066 3103 1784 3103 
Q 1356 3103 1142 2972 
Q 928 2841 928 2578 
Q 928 2378 1081 2264 
Q 1234 2150 1697 2047 
L 1894 2003 
Q 2506 1872 2764 1633 
Q 3022 1394 3022 966 
Q 3022 478 2636 193 
Q 2250 -91 1575 -91 
Q 1294 -91 989 -36 
Q 684 19 347 128 
L 347 722 
Q 666 556 975 473 
Q 1284 391 1588 391 
Q 1994 391 2212 530 
Q 2431 669 2431 922 
Q 2431 1156 2273 1281 
Q 2116 1406 1581 1522 
L 1381 1569 
Q 847 1681 609 1914 
Q 372 2147 372 2553 
Q 372 3047 722 3315 
Q 1072 3584 1716 3584 
Q 2034 3584 2315 3537 
Q 2597 3491 2834 3397 
z
" transform="scale(0.015625)"/>
       <path id="DejaVuSans-6f" d="M 1959 3097 
Q 1497 3097 1228 2736 
Q 959 2375 959 1747 
Q 959 1119 1226 758 
Q 1494 397 1959 397 
Q 2419 397 2687 759 
Q 2956 1122 2956 1747 
Q 2956 2369 2687 2733 
Q 2419 3097 1959 3097 
z
M 1959 3584 
Q 2709 3584 3137 3096 
Q 3566 2609 3566 1747 
Q 3566 888 3137 398 
Q 2709 -91 1959 -91 
Q 1206 -91 779 398 
Q 353 888 353 1747 
Q 353 2609 779 3096 
Q 1206 3584 1959 3584 
z
" transform="scale(0.015625)"/>
       <path id="DejaVuSans-72" d="M 2631 2963 
Q 2534 3019 2420 3045 
Q 2306 3072 2169 3072 
Q 1681 3072 1420 2755 
Q 1159 2438 1159 1844 
L 1159 0 
L 581 0 
L 581 3500 
L 1159 3500 
L 1159 2956 
Q 1341 3275 1631 3429 
Q 1922 3584 2338 3584 
Q 2397 3584 2469 3576 
Q 2541 3569 2628 3553 
L 2631 2963 
z
" transform="scale(0.015625)"/>
       <path id="DejaVuSans-63" d="M 3122 3366 
L 3122 2828 
Q 2878 2963 2633 3030 
Q 2388 3097 2138 3097 
Q 1578 3097 1268 2742 
Q 959 2388 959 1747 
Q 959 1106 1268 751 
Q 1578 397 2138 397 
Q 2388 397 2633 464 
Q 2878 531 3122 666 
L 3122 134 
Q 2881 22 2623 -34 
Q 2366 -91 2075 -91 
Q 1284 -91 818 406 
Q 353 903 353 1747 
Q 353 2603 823 3093 
Q 1294 3584 2113 3584 
Q 2378 3584 2631 3529 
Q 2884 3475 3122 3366 
z
" transform="scale(0.015625)"/>
      </defs>
      <use xlink:href="#DejaVuSans-41"/>
      <use xlink:href="#DejaVuSans-62" x="68.408203"/>
      <use xlink:href="#DejaVuSans-73" x="131.884766"/>
      <use xlink:href="#DejaVuSans-6f" x="183.984375"/>
      <use xlink:href="#DejaVuSans-72" x="245.166016"/>
      <use xlink:href="#DejaVuSans-62" x="286.279297"/>
      <use xlink:href="#DejaVuSans-61" x="349.755859"/>
      <use xlink:href="#DejaVuSans-6e" x="411.035156"/>
      <use xlink:href="#DejaVuSans-63" x="474.414062"/>
      <use xlink:href="#DejaVuSans-65" x="529.394531"/>
     </g>
    </g>
   </g>
   <g id="line2d_16">
    <path d="M 363.702857 307.60078 
L 363.192686 307.379337 
L 361.152 307.474795 
L 358.090971 307.584918 
L 356.050286 307.710154 
L 348.907886 307.704321 
L 346.357029 307.65255 
L 344.826514 307.69646 
L 340.234971 307.604091 
L 338.194286 307.584 
L 337.173943 307.540333 
L 336.663771 307.438224 
L 336.1536 307.523218 
L 330.541714 307.064933 
L 327.990857 306.624652 
L 326.970514 306.659817 
L 321.8688 307.408422 
L 321.358629 307.279695 
L 320.338286 307.395292 
L 319.317943 307.406837 
L 318.2976 307.504476 
L 313.195886 307.602721 
L 298.911086 306.982783 
L 295.850057 306.630557 
L 292.278857 306.350464 
L 282.5856 305.07875 
L 277.994057 304.300015 
L 276.463543 303.961015 
L 274.422857 303.461423 
L 273.912686 303.430985 
L 272.892343 303.125534 
L 269.321143 302.292555 
L 268.3008 302.11075 
L 262.688914 300.670567 
L 260.648229 300.139318 
L 258.097371 299.486966 
L 252.485486 297.966937 
L 249.424457 297.053367 
L 247.383771 296.338528 
L 243.812571 294.215122 
L 242.282057 293.026188 
L 240.241371 290.835188 
L 239.221029 289.509227 
L 237.690514 287.041716 
L 235.649829 282.785116 
L 234.629486 280.250587 
L 232.5888 274.078572 
L 231.568457 270.450955 
L 230.037943 264.402601 
L 227.997257 255.093899 
L 225.956571 244.441774 
L 223.915886 232.942747 
L 219.834514 208.414896 
L 214.7328 177.787858 
L 211.1616 157.341207 
L 208.100571 140.815257 
L 205.549714 128.581009 
L 204.0192 122.171756 
L 202.488686 116.774162 
L 200.958171 112.47494 
L 199.937829 110.296995 
L 198.917486 108.659175 
L 197.897143 107.501973 
L 196.8768 106.845478 
L 195.856457 106.794747 
L 195.346286 106.879857 
L 194.836114 107.138321 
L 193.815771 108.028694 
L 192.795429 109.253982 
L 191.264914 111.887389 
L 189.7344 115.426013 
L 188.714057 118.236832 
L 187.693714 121.388527 
L 185.653029 128.801233 
L 184.632686 133.042244 
L 182.592 142.551326 
L 180.551314 153.107902 
L 177.490286 169.905202 
L 173.408914 192.747933 
L 168.3072 219.947405 
L 164.736 236.734574 
L 162.185143 247.204585 
L 160.144457 254.683337 
L 158.613943 259.696943 
L 157.083429 264.18966 
L 155.042743 269.205922 
L 153.002057 273.050452 
L 151.981714 274.574561 
L 149.941029 276.741132 
L 149.430857 276.874914 
L 148.920686 277.316951 
L 147.900343 277.705498 
L 146.88 277.767758 
L 145.859657 277.578252 
L 144.839314 277.365166 
L 144.329143 277.206039 
L 143.818971 276.81464 
L 143.3088 275.660867 
L 142.798629 276.533921 
L 142.288457 276.246606 
L 141.778286 275.752199 
L 141.268114 275.760705 
L 140.247771 274.920835 
L 138.207086 272.96438 
L 137.696914 272.255982 
L 136.676571 271.321151 
L 136.1664 269.896202 
L 135.656229 269.770579 
L 135.146057 269.136459 
L 134.635886 268.021163 
L 134.125714 267.770284 
L 133.615543 267.051344 
L 133.105371 262.100639 
L 132.5952 261.218042 
L 131.574857 258.919494 
L 130.554514 256.184553 
L 129.024 251.208824 
L 128.003657 247.260524 
L 126.473143 240.436948 
L 124.942629 232.905486 
L 122.391771 218.886382 
L 120.861257 208.802459 
L 119.330743 198.820407 
L 118.820571 196.260161 
L 118.3104 194.301938 
L 117.800229 192.94829 
L 117.290057 192.144085 
L 116.779886 191.904947 
L 116.269714 191.959378 
L 115.759543 192.204306 
L 113.718857 193.939225 
L 113.208686 194.503128 
L 112.698514 195.428793 
L 112.188343 196.014995 
L 111.168 198.715007 
L 109.127314 204.742831 
L 108.617143 205.768667 
L 108.106971 206.31618 
L 107.5968 206.48993 
L 107.086629 206.162436 
L 106.576457 205.366796 
L 106.066286 203.977249 
L 105.556114 201.939633 
L 105.045943 199.025271 
L 104.535771 194.958539 
L 104.0256 189.661891 
L 103.515429 182.663356 
L 103.005257 173.779205 
L 101.984914 149.532717 
L 100.964571 117.989815 
L 99.944229 81.619238 
L 98.923886 38.702615 
L 98.184546 -1 
L 98.184546 -1 
" clip-path="url(#p7ec326a7c9)" style="fill: none; stroke: #e01f1f; stroke-width: 0.5; stroke-linecap: square"/>
   </g>
   <g id="line2d_17">
    <path d="M 363.702857 307.797323 
L 363.192686 307.547961 
L 359.111314 307.684013 
L 357.5808 307.795394 
L 347.377371 307.791873 
L 343.296 307.714202 
L 342.275657 307.733137 
L 335.643429 307.485743 
L 331.051886 307.164615 
L 330.541714 306.98874 
L 329.521371 306.818155 
L 329.0112 306.647981 
L 326.970514 306.646335 
L 324.929829 306.976054 
L 322.378971 307.194979 
L 321.8688 307.343015 
L 320.848457 307.294904 
L 318.807771 307.354517 
L 317.277257 307.410716 
L 314.7264 307.396792 
L 313.195886 307.303265 
L 311.665371 307.3385 
L 310.134857 307.228389 
L 307.584 307.118815 
L 300.951771 306.646017 
L 299.931429 306.548469 
L 294.319543 305.876107 
L 293.2992 305.736838 
L 288.707657 305.084076 
L 281.565257 303.695867 
L 275.953371 302.324418 
L 274.422857 301.879486 
L 272.892343 301.440821 
L 268.3008 300.139653 
L 265.749943 299.444912 
L 263.709257 298.770541 
L 261.668571 298.197209 
L 248.404114 294.022046 
L 245.343086 292.646223 
L 244.322743 291.953363 
L 243.3024 291.294494 
L 240.751543 289.034461 
L 240.241371 288.487774 
L 237.690514 284.857455 
L 236.16 281.993569 
L 234.629486 278.538072 
L 233.098971 274.301128 
L 231.568457 269.360568 
L 230.037943 263.696875 
L 227.997257 254.931682 
L 225.956571 245.002366 
L 222.385371 225.501391 
L 217.793829 199.046162 
L 213.712457 175.946375 
L 210.141257 156.65053 
L 207.5904 143.636186 
L 205.549714 134.28297 
L 204.0192 128.006729 
L 202.488686 122.681279 
L 200.958171 118.372103 
L 199.427657 115.225391 
L 198.407314 113.72965 
L 197.386971 112.755397 
L 196.366629 112.304983 
L 195.346286 112.290866 
L 194.325943 112.676922 
L 193.3056 113.561466 
L 192.285257 114.790653 
L 191.264914 116.382554 
L 189.7344 119.493129 
L 188.714057 122.046436 
L 187.693714 124.884694 
L 186.1632 129.855124 
L 184.632686 135.611147 
L 182.592 144.507155 
L 180.041143 157.027069 
L 170.858057 205.275255 
L 168.3072 217.944974 
L 166.266514 227.468714 
L 164.225829 236.254187 
L 162.185143 244.263061 
L 159.634286 253.062882 
L 157.5936 259.252004 
L 155.552914 264.383176 
L 154.532571 266.445873 
L 153.002057 269.24429 
L 151.471543 271.357417 
L 150.961371 271.95303 
L 149.941029 272.754816 
L 149.430857 272.961971 
L 148.920686 273.411188 
L 148.410514 273.635764 
L 146.88 273.817412 
L 144.839314 273.374106 
L 144.329143 273.162001 
L 143.818971 272.766316 
L 143.3088 271.491869 
L 142.798629 272.443071 
L 142.288457 272.113429 
L 141.778286 271.557252 
L 141.268114 271.545475 
L 140.247771 270.543014 
L 138.717257 268.802167 
L 138.207086 268.541856 
L 136.676571 266.560542 
L 136.1664 265.201994 
L 135.656229 265.112132 
L 134.635886 263.391422 
L 134.125714 262.982443 
L 133.615543 262.389573 
L 133.105371 257.179175 
L 132.085029 255.153551 
L 130.554514 251.299254 
L 129.024 246.49163 
L 127.493486 240.473891 
L 125.4528 231.118461 
L 123.922286 223.496252 
L 122.391771 214.998269 
L 120.861257 205.147715 
L 119.330743 195.4416 
L 118.3104 190.804567 
L 117.800229 189.442737 
L 117.290057 188.417608 
L 116.779886 188.035742 
L 116.269714 187.895024 
L 115.249371 187.849924 
L 114.7392 187.638027 
L 114.229029 187.261806 
L 113.208686 185.941018 
L 111.678171 182.938698 
L 108.617143 177.383019 
L 108.106971 175.97104 
L 107.5968 174.194313 
L 106.576457 169.025866 
L 105.556114 161.853713 
L 104.535771 152.373724 
L 104.0256 145.91838 
L 103.515429 137.912534 
L 102.495086 115.619774 
L 101.474743 85.407719 
L 99.944229 32.037779 
L 99.115295 -1 
L 99.115295 -1 
" clip-path="url(#p7ec326a7c9)" style="fill: none; stroke: #d31f2c; stroke-width: 0.5; stroke-linecap: square"/>
   </g>
   <g id="line2d_18">
    <path d="M 363.702857 307.94762 
L 362.682514 307.732638 
L 358.601143 307.878906 
L 357.070629 307.962947 
L 354.0096 307.952124 
L 352.989257 307.942113 
L 348.397714 307.910268 
L 347.377371 307.900182 
L 344.826514 307.803581 
L 338.704457 307.627339 
L 335.133257 307.382684 
L 334.623086 307.402235 
L 333.092571 307.20737 
L 332.072229 307.20637 
L 329.0112 306.487403 
L 326.970514 306.410039 
L 323.399314 306.811799 
L 322.378971 306.890115 
L 321.8688 306.984756 
L 321.358629 306.860485 
L 319.828114 306.940731 
L 314.7264 306.960828 
L 306.563657 306.566935 
L 300.4416 305.958701 
L 297.380571 305.533825 
L 296.360229 305.249951 
L 295.339886 305.151002 
L 288.197486 303.908792 
L 287.177143 303.638205 
L 286.1568 303.419787 
L 281.565257 302.21556 
L 275.4432 300.224823 
L 247.383771 289.689732 
L 246.363429 289.22786 
L 243.3024 287.282179 
L 241.771886 286.038914 
L 240.751543 285.112305 
L 238.710857 282.689703 
L 237.690514 281.205472 
L 236.16 278.608946 
L 234.629486 275.360178 
L 233.609143 272.893717 
L 232.078629 268.611366 
L 230.548114 263.734576 
L 229.0176 258.125691 
L 226.466743 247.390624 
L 223.915886 235.215665 
L 218.814171 208.623722 
L 214.222629 184.38432 
L 210.141257 163.707346 
L 207.080229 149.148607 
L 205.039543 140.445382 
L 202.998857 133.008872 
L 201.468343 128.450656 
L 199.937829 124.897004 
L 198.917486 123.124506 
L 197.897143 121.773026 
L 196.8768 120.919677 
L 196.366629 120.638757 
L 195.856457 120.502519 
L 194.836114 120.468946 
L 193.815771 120.849067 
L 192.795429 121.576304 
L 191.775086 122.700925 
L 190.754743 124.14797 
L 189.7344 125.937228 
L 188.714057 128.093733 
L 187.693714 130.587308 
L 186.1632 134.888474 
L 184.632686 140.051726 
L 183.102171 145.917049 
L 181.061486 154.590189 
L 176.980114 174.027149 
L 167.286857 220.340793 
L 164.736 230.954972 
L 162.185143 240.519444 
L 159.124114 250.365986 
L 157.5936 254.690852 
L 156.573257 257.354174 
L 154.532571 261.710029 
L 153.002057 264.447882 
L 151.471543 266.574021 
L 150.4512 267.579301 
L 149.941029 268.000543 
L 149.430857 268.184097 
L 148.920686 268.670054 
L 147.900343 269.10002 
L 146.88 269.223228 
L 145.859657 269.052055 
L 145.349486 269.029152 
L 143.818971 268.284755 
L 143.3088 267.030651 
L 142.798629 267.868532 
L 142.288457 267.604431 
L 141.778286 266.933856 
L 141.268114 266.837646 
L 140.757943 266.367947 
L 140.247771 265.68734 
L 139.227429 264.657224 
L 138.717257 263.884395 
L 138.207086 263.612852 
L 137.186743 262.195778 
L 136.676571 261.427318 
L 136.1664 260.005125 
L 135.656229 259.743063 
L 135.146057 259.086972 
L 134.635886 257.939914 
L 134.125714 257.729484 
L 133.615543 257.112389 
L 133.105371 251.399826 
L 132.085029 249.289029 
L 130.554514 245.476034 
L 129.024 240.939562 
L 127.493486 235.218454 
L 125.4528 226.450059 
L 123.412114 216.521955 
L 122.391771 211.110966 
L 118.820571 190.23308 
L 117.800229 186.865642 
L 117.290057 186.01105 
L 116.779886 185.468533 
L 115.249371 184.828706 
L 114.7392 184.451956 
L 114.229029 183.775621 
L 113.718857 182.772618 
L 113.208686 181.480804 
L 111.168 173.494136 
L 109.637486 165.862595 
L 108.617143 160.210623 
L 107.5968 153.163949 
L 106.576457 143.326956 
L 105.045943 124.28356 
L 104.0256 109.078966 
L 103.005257 86.62167 
L 101.984914 54.816459 
L 100.442581 -1 
L 100.442581 -1 
" clip-path="url(#p7ec326a7c9)" style="fill: none; stroke: #c71f38; stroke-width: 0.5; stroke-linecap: square"/>
   </g>
   <g id="line2d_19">
    <path d="M 363.702857 307.961078 
L 363.192686 307.78613 
L 362.172343 307.814712 
L 357.070629 307.984268 
L 355.029943 308.009616 
L 341.765486 307.801834 
L 340.745143 307.726141 
L 338.704457 307.675805 
L 338.194286 307.584 
L 337.684114 307.635796 
L 336.1536 307.5029 
L 334.623086 307.462011 
L 333.092571 307.276254 
L 331.051886 307.052486 
L 330.031543 306.808188 
L 328.501029 306.440573 
L 326.970514 306.367413 
L 325.950171 306.548457 
L 323.909486 306.8089 
L 322.889143 306.868867 
L 321.8688 306.999045 
L 321.358629 306.870061 
L 319.317943 306.94343 
L 317.787429 306.943701 
L 316.256914 306.971949 
L 312.685714 306.821482 
L 310.645029 306.780423 
L 300.4416 305.678501 
L 296.360229 304.846234 
L 294.829714 304.601915 
L 291.768686 304.021348 
L 290.748343 303.744005 
L 286.666971 302.690515 
L 281.055086 300.861793 
L 280.034743 300.43119 
L 277.483886 299.403338 
L 272.892343 297.358549 
L 269.831314 296.023856 
L 267.280457 294.832384 
L 250.4448 287.255785 
L 249.424457 286.866776 
L 247.893943 286.130478 
L 245.343086 284.866023 
L 244.832914 284.441695 
L 243.812571 283.858186 
L 240.751543 281.459579 
L 239.221029 279.839788 
L 237.180343 277.190883 
L 235.649829 274.702902 
L 234.119314 271.641386 
L 232.5888 268.079875 
L 231.568457 265.325164 
L 230.037943 260.810581 
L 228.507429 255.707995 
L 226.466743 247.880227 
L 224.426057 239.334065 
L 222.385371 230.140356 
L 209.631086 169.735333 
L 206.570057 156.387924 
L 204.529371 148.477617 
L 202.998857 143.291934 
L 201.468343 138.862316 
L 199.937829 135.335654 
L 198.917486 133.451108 
L 197.897143 132.070694 
L 196.8768 130.967659 
L 195.856457 130.367657 
L 195.346286 130.13641 
L 193.815771 130.182434 
L 192.795429 130.594516 
L 191.775086 131.363694 
L 191.264914 131.801287 
L 190.244571 133.065542 
L 188.714057 135.452276 
L 187.183543 138.675613 
L 185.653029 142.506392 
L 184.122514 147.179313 
L 182.081829 154.414409 
L 180.551314 160.422776 
L 176.469943 177.816747 
L 169.327543 209.411073 
L 166.266514 222.065889 
L 162.695314 234.974555 
L 160.654629 241.522451 
L 158.613943 247.403602 
L 156.573257 252.59988 
L 154.532571 256.736681 
L 153.002057 259.336068 
L 151.981714 260.762709 
L 150.961371 261.982968 
L 149.941029 262.901082 
L 149.430857 263.147685 
L 148.920686 263.627149 
L 148.410514 263.760207 
L 147.900343 264.010813 
L 146.88 264.144581 
L 145.349486 263.974107 
L 144.329143 263.592528 
L 143.818971 263.156085 
L 143.3088 261.887816 
L 142.798629 262.748104 
L 140.757943 260.999538 
L 140.247771 260.219869 
L 139.227429 259.128716 
L 138.717257 258.205704 
L 138.207086 257.835616 
L 137.186743 256.218201 
L 136.676571 255.118509 
L 136.1664 254.739531 
L 134.635886 251.871645 
L 134.125714 251.511165 
L 133.615543 250.636747 
L 133.105371 245.144156 
L 132.085029 243.081598 
L 129.024 234.988255 
L 128.003657 231.495921 
L 126.473143 225.632429 
L 123.922286 214.659812 
L 122.391771 207.168295 
L 120.861257 198.6464 
L 119.330743 190.116093 
L 118.3104 186.101465 
L 117.800229 184.734956 
L 117.290057 183.904408 
L 116.779886 183.395187 
L 116.269714 183.114306 
L 115.759543 182.988049 
L 114.7392 182.143767 
L 114.229029 181.284946 
L 113.718857 180.07569 
L 113.208686 178.512142 
L 111.678171 171.146201 
L 110.657829 164.426657 
L 109.127314 152.133047 
L 108.106971 142.812797 
L 107.086629 130.526907 
L 106.066286 114.147411 
L 104.0256 77.192826 
L 103.005257 50.473265 
L 101.622211 -1 
L 101.622211 -1 
" clip-path="url(#p7ec326a7c9)" style="fill: none; stroke: #ba1f45; stroke-width: 0.5; stroke-linecap: square"/>
   </g>
   <g id="line2d_20">
    <path d="M 363.702857 307.938149 
L 363.192686 307.733963 
L 358.601143 307.886228 
L 358.090971 307.96876 
L 356.560457 307.978599 
L 352.479086 307.953474 
L 349.418057 307.890221 
L 347.887543 307.882468 
L 346.357029 307.805746 
L 345.336686 307.830832 
L 334.623086 307.287718 
L 331.051886 306.931886 
L 330.031543 306.704791 
L 328.501029 306.265184 
L 325.950171 306.393611 
L 324.419657 306.600222 
L 323.909486 306.570089 
L 322.889143 306.660964 
L 321.358629 306.683959 
L 315.746743 306.635728 
L 313.195886 306.491415 
L 308.604343 306.105302 
L 306.563657 305.835494 
L 304.0128 305.470799 
L 302.992457 305.228613 
L 301.972114 305.082591 
L 297.380571 304.072884 
L 296.360229 303.727475 
L 294.319543 303.131867 
L 293.2992 302.880016 
L 288.707657 301.231216 
L 283.605943 298.854414 
L 282.5856 298.360985 
L 280.544914 297.222152 
L 279.0144 296.266104 
L 277.483886 295.356058 
L 275.4432 293.898361 
L 273.402514 292.495015 
L 254.526171 279.638751 
L 252.995657 278.744106 
L 250.954971 277.505365 
L 249.934629 276.917788 
L 249.424457 276.56328 
L 248.404114 276.042134 
L 246.363429 274.949428 
L 245.853257 274.684481 
L 244.322743 273.596394 
L 240.241371 270.817253 
L 237.690514 268.552996 
L 235.649829 266.259054 
L 233.609143 263.452961 
L 231.568457 260.010954 
L 230.037943 257.023326 
L 227.997257 252.387591 
L 226.466743 248.454802 
L 224.426057 242.693577 
L 220.854857 231.477215 
L 214.7328 210.509467 
L 205.549714 178.951034 
L 202.998857 171.470244 
L 200.958171 166.417057 
L 199.937829 164.205407 
L 198.407314 161.511713 
L 196.8768 159.425276 
L 195.856457 158.258213 
L 194.325943 157.032039 
L 192.795429 156.344548 
L 191.264914 156.192714 
L 190.244571 156.332215 
L 189.224229 156.759657 
L 188.203886 157.408961 
L 186.1632 159.455466 
L 185.142857 161.012207 
L 183.102171 164.80632 
L 181.061486 169.585394 
L 178.000457 177.783099 
L 172.388571 194.84263 
L 168.3072 208.108524 
L 165.756343 215.931249 
L 163.715657 221.658881 
L 162.185143 225.634357 
L 158.613943 234.174908 
L 156.573257 238.490323 
L 154.532571 242.169123 
L 154.0224 242.847784 
L 153.002057 244.41551 
L 150.961371 246.684083 
L 149.941029 247.526177 
L 148.410514 248.445946 
L 147.390171 248.714885 
L 146.88 248.730211 
L 146.369829 248.61618 
L 145.859657 248.726999 
L 144.839314 248.372996 
L 143.818971 247.724102 
L 143.3088 246.083044 
L 142.798629 246.811516 
L 142.288457 246.240139 
L 141.778286 245.438002 
L 141.268114 245.005234 
L 140.757943 244.318424 
L 137.186743 237.793375 
L 136.676571 236.431849 
L 136.1664 235.723428 
L 134.635886 232.340068 
L 134.125714 231.902945 
L 133.615543 231.059952 
L 133.105371 224.632735 
L 131.574857 221.330032 
L 128.513829 213.662861 
L 126.473143 207.447264 
L 124.432457 200.612116 
L 120.861257 187.419958 
L 119.330743 181.526984 
L 118.820571 179.971551 
L 117.800229 177.857978 
L 117.290057 177.373012 
L 116.779886 177.074908 
L 115.759543 176.860078 
L 115.249371 176.709499 
L 114.7392 176.048114 
L 114.229029 175.197752 
L 113.718857 173.872932 
L 113.208686 171.921226 
L 112.188343 165.637953 
L 111.678171 161.438287 
L 110.657829 150.081987 
L 109.637486 135.659353 
L 108.106971 110.845274 
L 107.086629 89.860164 
L 106.066286 62.244401 
L 103.922895 -1 
L 103.922895 -1 
" clip-path="url(#p7ec326a7c9)" style="fill: none; stroke: #ad1f52; stroke-width: 0.5; stroke-linecap: square"/>
   </g>
   <g id="line2d_21">
    <path d="M 363.702857 308.311336 
L 363.192686 308.106885 
L 362.172343 308.080534 
L 354.519771 308.252067 
L 352.479086 308.208659 
L 351.458743 308.202705 
L 349.928229 308.16924 
L 345.336686 307.975457 
L 344.316343 308.001753 
L 342.785829 307.850532 
L 339.214629 307.659534 
L 336.1536 307.416118 
L 331.562057 306.822517 
L 327.990857 305.950021 
L 326.460343 305.889043 
L 323.909486 306.052307 
L 321.8688 305.941659 
L 320.848457 305.801622 
L 319.828114 305.784047 
L 316.767086 305.684276 
L 315.746743 305.56714 
L 310.134857 304.959627 
L 308.094171 304.540544 
L 305.033143 303.965405 
L 300.951771 303.024454 
L 297.380571 301.908259 
L 289.728 298.863297 
L 285.136457 296.301516 
L 280.544914 293.33492 
L 272.892343 287.19745 
L 271.361829 285.879388 
L 257.5872 274.424403 
L 256.566857 273.695458 
L 252.995657 270.997795 
L 251.975314 270.31382 
L 239.221029 261.99719 
L 235.649829 259.029829 
L 234.119314 257.493677 
L 231.058286 253.746524 
L 229.0176 250.620796 
L 226.976914 247.02394 
L 225.4464 243.959754 
L 223.405714 239.511016 
L 221.365029 234.71394 
L 219.324343 229.660251 
L 215.242971 218.944842 
L 212.181943 210.532835 
L 209.120914 202.018581 
L 204.0192 188.277357 
L 202.488686 184.6456 
L 200.448 180.291747 
L 198.917486 177.454849 
L 197.386971 175.060858 
L 196.366629 173.628789 
L 193.815771 170.911434 
L 192.795429 170.147901 
L 190.244571 168.749497 
L 189.224229 168.584484 
L 187.693714 168.575813 
L 187.183543 168.687584 
L 185.142857 169.736004 
L 183.612343 171.285158 
L 182.592 172.568261 
L 179.530971 177.507523 
L 173.919086 188.970069 
L 169.837714 198.843423 
L 166.776686 206.39803 
L 164.225829 212.179002 
L 161.1648 218.403581 
L 157.083429 225.976766 
L 155.042743 229.176766 
L 153.512229 231.184761 
L 150.961371 233.78123 
L 149.941029 234.548809 
L 149.430857 234.693056 
L 148.920686 235.082733 
L 147.900343 235.420247 
L 146.88 235.561692 
L 145.349486 235.212718 
L 144.329143 234.571358 
L 143.818971 233.978277 
L 143.3088 232.390077 
L 142.798629 233.080918 
L 142.288457 232.378729 
L 141.778286 231.47607 
L 141.268114 230.9985 
L 139.227429 227.074071 
L 138.717257 225.807887 
L 137.696914 223.675954 
L 136.676571 221.323117 
L 136.1664 219.354175 
L 135.656229 218.851008 
L 134.635886 216.427567 
L 133.615543 215.017096 
L 133.105371 208.113928 
L 130.044343 201.202466 
L 128.003657 196.398239 
L 125.4528 189.551909 
L 121.8816 179.836019 
L 120.861257 176.902221 
L 119.330743 172.676067 
L 118.3104 170.734499 
L 117.800229 170.208425 
L 117.290057 169.987541 
L 115.249371 169.888869 
L 114.7392 169.494512 
L 114.229029 168.802422 
L 113.718857 167.484568 
L 113.208686 165.496129 
L 112.188343 158.881443 
L 111.678171 154.149822 
L 110.657829 141.419241 
L 109.127314 114.68847 
L 108.106971 93.854415 
L 107.086629 67.34408 
L 106.066286 31.72777 
L 105.185937 -1 
L 105.185937 -1 
" clip-path="url(#p7ec326a7c9)" style="fill: none; stroke: #a01f5f; stroke-width: 0.5; stroke-linecap: square"/>
   </g>
   <g id="line2d_22">
    <path d="M 363.702857 308.044416 
L 363.192686 307.864722 
L 359.621486 307.918257 
L 355.029943 308.084395 
L 352.989257 308.022423 
L 351.458743 308.037823 
L 349.928229 307.948847 
L 348.907886 307.990196 
L 347.887543 307.962784 
L 344.826514 307.805611 
L 343.806171 307.836806 
L 340.234971 307.678471 
L 339.214629 307.650747 
L 338.194286 307.584 
L 334.112914 307.231748 
L 330.541714 306.730078 
L 329.0112 306.251619 
L 327.480686 306.10942 
L 325.950171 306.188455 
L 321.8688 306.425161 
L 320.338286 306.311521 
L 317.787429 306.217176 
L 315.746743 306.067738 
L 313.195886 305.838325 
L 310.645029 305.526866 
L 307.073829 304.905365 
L 304.522971 304.310574 
L 301.972114 303.644389 
L 297.380571 302.191716 
L 296.360229 301.58704 
L 291.258514 299.262451 
L 285.136457 295.199194 
L 280.034743 290.903256 
L 277.483886 288.348647 
L 275.953371 286.799227 
L 263.709257 273.44647 
L 261.1584 270.676458 
L 259.627886 269.05144 
L 257.077029 266.359566 
L 254.016 263.356556 
L 251.975314 261.441602 
L 248.914286 258.795598 
L 247.383771 257.65121 
L 246.363429 256.844183 
L 245.853257 256.522997 
L 244.832914 255.618118 
L 241.771886 253.690151 
L 237.690514 251.366539 
L 236.16 250.515926 
L 229.527771 246.339735 
L 227.487086 244.744067 
L 225.956571 243.386024 
L 222.385371 239.756415 
L 216.263314 232.088458 
L 210.651429 223.677257 
L 204.529371 213.130093 
L 201.468343 207.833134 
L 198.407314 202.85759 
L 194.325943 196.902465 
L 193.3056 195.548857 
L 190.754743 192.228394 
L 189.224229 190.45784 
L 187.183543 188.546911 
L 185.142857 187.245091 
L 183.612343 186.903989 
L 182.081829 186.923763 
L 181.061486 187.126632 
L 179.0208 187.918069 
L 177.490286 188.606167 
L 175.4496 189.859874 
L 174.429257 190.608287 
L 172.898743 192.054817 
L 169.837714 195.660799 
L 166.776686 199.703885 
L 164.225829 202.736712 
L 157.5936 210.046635 
L 156.063086 211.709833 
L 154.0224 213.452299 
L 151.981714 214.887264 
L 149.941029 215.812307 
L 149.430857 215.845775 
L 148.920686 216.111006 
L 146.88 216.074921 
L 145.349486 215.213053 
L 144.329143 214.327333 
L 143.818971 213.478491 
L 143.3088 211.555342 
L 142.798629 212.036058 
L 142.288457 211.173701 
L 141.778286 209.902804 
L 141.268114 209.13399 
L 140.247771 206.618658 
L 136.676571 196.606489 
L 136.1664 194.445411 
L 135.656229 193.637928 
L 134.635886 190.784627 
L 134.125714 190.395676 
L 133.615543 189.421938 
L 133.105371 181.101346 
L 129.534171 173.337361 
L 129.024 172.51518 
L 127.493486 169.604724 
L 125.962971 166.872592 
L 123.922286 164.05461 
L 122.901943 163.132303 
L 121.371429 162.051684 
L 119.840914 161.296703 
L 118.820571 161.251246 
L 117.800229 161.831143 
L 116.779886 163.029718 
L 115.759543 164.234361 
L 115.249371 164.668688 
L 114.7392 164.581952 
L 114.229029 164.15303 
L 113.718857 163.114419 
L 113.208686 161.072831 
L 112.188343 153.828495 
L 111.678171 148.134583 
L 110.657829 132.084822 
L 109.637486 109.658112 
L 108.106971 69.792292 
L 107.086629 34.798758 
L 106.287524 -1 
L 106.287524 -1 
" clip-path="url(#p7ec326a7c9)" style="fill: none; stroke: #931f6c; stroke-width: 0.5; stroke-linecap: square"/>
   </g>
   <g id="line2d_23">
    <path d="M 363.702857 308.10601 
L 363.192686 307.953194 
L 361.662171 307.949692 
L 358.090971 308.07807 
L 356.560457 308.126842 
L 352.479086 308.091229 
L 351.968914 308.043131 
L 351.458743 308.154589 
L 350.4384 308.081527 
L 347.887543 307.997304 
L 338.704457 307.653791 
L 336.663771 307.484371 
L 331.051886 306.899928 
L 329.0112 306.278811 
L 327.990857 306.168106 
L 326.460343 306.123579 
L 324.419657 306.352946 
L 322.378971 306.403759 
L 321.8688 306.460699 
L 320.848457 306.330241 
L 319.317943 306.365416 
L 318.2976 306.238502 
L 317.277257 306.206848 
L 315.236571 305.959737 
L 313.706057 305.848701 
L 310.645029 305.465021 
L 308.604343 305.060432 
L 307.073829 304.769198 
L 301.461943 303.288583 
L 297.890743 302.000349 
L 296.8704 301.414129 
L 295.850057 300.949717 
L 292.789029 299.387136 
L 290.238171 297.841049 
L 288.197486 296.388854 
L 286.1568 294.782156 
L 285.136457 293.900113 
L 284.626286 293.508741 
L 283.095771 291.984081 
L 282.075429 291.072538 
L 274.933029 282.981257 
L 272.382171 279.709821 
L 255.546514 258.362454 
L 250.954971 253.222435 
L 247.893943 250.172557 
L 243.812571 246.62211 
L 241.261714 244.976928 
L 240.241371 244.307275 
L 239.221029 243.758235 
L 236.16 242.278118 
L 232.5888 240.943445 
L 231.568457 240.656371 
L 230.548114 240.276785 
L 229.527771 239.948974 
L 227.487086 239.325756 
L 222.385371 237.421059 
L 218.814171 235.822833 
L 212.181943 231.721304 
L 209.631086 229.661191 
L 207.080229 227.202168 
L 205.039543 224.880221 
L 200.448 219.171108 
L 196.366629 213.633207 
L 186.1632 197.942484 
L 183.102171 195.04345 
L 181.061486 193.688493 
L 178.510629 192.419202 
L 174.939429 191.357353 
L 172.898743 191.359508 
L 169.837714 192.390532 
L 168.3072 193.229117 
L 165.756343 194.365806 
L 161.674971 195.784063 
L 161.1648 195.87372 
L 160.144457 196.359003 
L 158.103771 197.218909 
L 156.063086 198.13158 
L 155.042743 198.425573 
L 151.471543 198.613096 
L 149.941029 198.304695 
L 149.430857 197.923292 
L 148.920686 197.969568 
L 147.900343 197.519815 
L 146.88 196.688909 
L 145.349486 194.958154 
L 144.329143 193.467674 
L 143.818971 192.296685 
L 143.3088 189.878651 
L 142.798629 190.118212 
L 142.288457 188.833364 
L 141.778286 187.246089 
L 141.268114 186.111793 
L 139.227429 179.535095 
L 138.717257 177.49808 
L 138.207086 176.069222 
L 136.676571 170.443713 
L 136.1664 168.141613 
L 135.656229 166.917699 
L 134.635886 163.967603 
L 133.615543 162.765327 
L 133.105371 152.594582 
L 131.064686 147.525785 
L 130.044343 145.528543 
L 129.024 143.779376 
L 128.003657 142.286424 
L 126.473143 140.527832 
L 125.962971 140.027441 
L 124.942629 139.49082 
L 123.922286 139.396338 
L 122.901943 139.820409 
L 121.371429 141.296824 
L 119.330743 144.474097 
L 117.800229 147.716665 
L 115.759543 152.65865 
L 115.249371 153.501597 
L 114.7392 153.955989 
L 114.229029 153.95472 
L 113.718857 153.120986 
L 113.208686 151.420328 
L 112.188343 144.057216 
L 111.678171 138.079991 
L 111.168 130.198855 
L 110.657829 120.485689 
L 109.637486 95.430145 
L 108.106971 49.524143 
L 107.086629 9.139942 
L 106.887447 -1 
L 106.887447 -1 
" clip-path="url(#p7ec326a7c9)" style="fill: none; stroke: #861f79; stroke-width: 0.5; stroke-linecap: square"/>
   </g>
   <g id="line2d_24">
    <path d="M 363.702857 308.362526 
L 363.192686 308.185186 
L 361.662171 308.15854 
L 360.641829 308.142257 
L 359.111314 308.248049 
L 356.050286 308.312313 
L 345.336686 308.104075 
L 344.826514 307.968959 
L 342.785829 307.957798 
L 341.255314 307.854001 
L 340.234971 307.817843 
L 339.7248 307.695397 
L 338.194286 307.584 
L 337.684114 307.552767 
L 336.663771 307.341273 
L 331.051886 306.486769 
L 329.0112 305.830086 
L 327.990857 305.702164 
L 326.970514 305.669993 
L 322.889143 305.805151 
L 321.8688 305.700634 
L 320.848457 305.516349 
L 318.2976 305.435351 
L 316.256914 305.262908 
L 313.706057 305.049597 
L 308.604343 304.231018 
L 301.461943 302.393354 
L 297.380571 300.757149 
L 295.850057 299.852721 
L 293.809371 298.865209 
L 291.258514 297.324896 
L 287.687314 294.70755 
L 283.095771 290.561361 
L 277.483886 284.065413 
L 270.341486 274.437338 
L 267.790629 270.793285 
L 266.770286 269.400317 
L 254.016 251.591505 
L 249.934629 246.555528 
L 243.3024 239.882815 
L 240.241371 237.601843 
L 237.690514 236.144554 
L 234.119314 234.716932 
L 232.078629 234.17548 
L 226.976914 233.45922 
L 224.426057 233.327536 
L 222.385371 233.255042 
L 221.365029 233.273812 
L 220.854857 233.196342 
L 219.834514 233.209837 
L 213.712457 232.736933 
L 211.671771 232.31846 
L 208.610743 231.275057 
L 205.549714 229.516914 
L 202.488686 227.004219 
L 201.468343 226.059409 
L 200.448 225.093072 
L 196.8768 221.019585 
L 193.815771 216.776254 
L 190.244571 210.801897 
L 185.653029 203.034819 
L 184.122514 201.009086 
L 183.102171 199.753733 
L 181.061486 197.643584 
L 177.490286 194.408232 
L 174.429257 192.184527 
L 173.408914 191.653577 
L 172.898743 191.419884 
L 170.347886 190.927807 
L 167.286857 190.856205 
L 165.756343 190.623623 
L 164.225829 190.347117 
L 162.185143 189.797185 
L 156.063086 188.004028 
L 154.532571 187.134302 
L 151.981714 184.9629 
L 150.4512 183.332615 
L 147.900343 179.809271 
L 146.369829 176.894652 
L 145.349486 174.717131 
L 144.329143 172.188277 
L 143.818971 170.49855 
L 143.3088 167.441469 
L 142.798629 167.180071 
L 140.757943 159.779552 
L 138.717257 150.860955 
L 138.207086 148.976105 
L 136.1664 139.329319 
L 135.656229 138.283068 
L 134.635886 134.76353 
L 133.615543 133.812646 
L 133.105371 121.146238 
L 130.554514 114.373373 
L 129.534171 112.546563 
L 128.513829 111.16907 
L 126.983314 109.833346 
L 126.473143 109.623471 
L 125.4528 109.687354 
L 124.942629 109.853622 
L 124.432457 110.17873 
L 123.412114 111.653243 
L 122.391771 113.676127 
L 121.8816 114.777854 
L 120.351086 119.600269 
L 118.820571 124.9233 
L 115.759543 136.433827 
L 115.249371 137.886728 
L 114.7392 138.898296 
L 114.229029 139.215447 
L 113.718857 138.996294 
L 113.208686 137.502694 
L 112.188343 130.450521 
L 111.678171 124.318963 
L 111.168 116.066245 
L 110.657829 105.957863 
L 109.637486 79.355253 
L 108.106971 29.289741 
L 107.397349 -1 
L 107.397349 -1 
" clip-path="url(#p7ec326a7c9)" style="fill: none; stroke: #791f86; stroke-width: 0.5; stroke-linecap: square"/>
   </g>
   <g id="line2d_25">
    <path d="M 363.702857 308.008956 
L 363.192686 307.79144 
L 361.662171 307.775327 
L 358.090971 307.978725 
L 345.336686 307.880653 
L 342.275657 307.773946 
L 339.214629 307.662818 
L 337.173943 307.534896 
L 335.133257 307.385486 
L 334.112914 307.333423 
L 331.051886 306.956045 
L 328.501029 306.297897 
L 326.460343 306.334442 
L 321.358629 306.598318 
L 316.256914 306.424783 
L 315.236571 306.294369 
L 312.175543 305.969789 
L 307.584 305.251068 
L 304.0128 304.42539 
L 298.911086 302.772818 
L 297.380571 302.156046 
L 295.850057 301.3054 
L 294.319543 300.598275 
L 289.728 297.742846 
L 285.646629 294.328341 
L 281.565257 290.19612 
L 279.524571 287.788834 
L 276.463543 283.867767 
L 272.382171 278.06289 
L 271.361829 276.62058 
L 253.505829 250.114868 
L 250.954971 246.641323 
L 244.832914 239.396775 
L 242.282057 237.08044 
L 240.751543 235.894296 
L 238.710857 234.476449 
L 235.649829 232.905366 
L 235.139657 232.766472 
L 234.629486 232.502398 
L 230.037943 231.527543 
L 226.976914 231.397492 
L 225.4464 231.489191 
L 221.8752 231.82186 
L 219.834514 232.153154 
L 218.814171 232.279881 
L 218.304 232.437352 
L 217.283657 232.578447 
L 214.222629 233.068403 
L 210.651429 233.220627 
L 209.631086 233.197562 
L 208.100571 232.992353 
L 205.549714 232.152096 
L 204.0192 231.45528 
L 201.978514 230.222286 
L 198.917486 227.786513 
L 195.856457 224.541935 
L 193.3056 221.115141 
L 191.775086 218.740382 
L 187.693714 211.682605 
L 184.632686 206.860203 
L 182.592 204.22743 
L 181.571657 203.137453 
L 181.061486 202.476127 
L 180.551314 202.033307 
L 179.530971 200.927033 
L 174.429257 195.95973 
L 172.388571 194.613828 
L 171.8784 194.445418 
L 171.368229 194.139674 
L 167.286857 192.900877 
L 166.266514 192.432645 
L 165.246171 191.920477 
L 162.695314 190.305378 
L 157.5936 186.153575 
L 155.552914 183.719587 
L 154.532571 182.242153 
L 152.491886 178.553862 
L 150.961371 175.361892 
L 148.410514 169.096026 
L 146.88 164.70482 
L 144.329143 155.746331 
L 143.818971 153.422646 
L 143.3088 149.515268 
L 142.798629 148.857399 
L 141.268114 141.657542 
L 139.227429 131.097873 
L 138.717257 128.105625 
L 137.696914 123.130134 
L 136.676571 118.207659 
L 136.1664 114.98649 
L 135.146057 111.926778 
L 134.635886 109.845365 
L 134.125714 109.408459 
L 133.615543 109.347247 
L 133.105371 93.802754 
L 132.5952 92.26124 
L 132.085029 90.345381 
L 131.064686 87.483198 
L 130.044343 85.225814 
L 128.513829 83.211508 
L 128.003657 82.802069 
L 127.493486 82.537235 
L 126.473143 82.388216 
L 125.4528 83.037375 
L 124.942629 83.516683 
L 123.922286 85.346203 
L 122.901943 88.214202 
L 121.8816 91.690636 
L 120.351086 98.330727 
L 118.3104 108.604386 
L 116.269714 118.97147 
L 115.249371 123.199224 
L 114.7392 124.606563 
L 114.229029 125.444235 
L 113.718857 125.569568 
L 113.208686 124.438602 
L 112.188343 117.925311 
L 111.678171 111.864561 
L 111.168 103.589598 
L 110.657829 93.205608 
L 109.637486 65.73667 
L 108.617143 32.550449 
L 107.76609 -1 
L 107.76609 -1 
" clip-path="url(#p7ec326a7c9)" style="fill: none; stroke: #6c1f93; stroke-width: 0.5; stroke-linecap: square"/>
   </g>
   <g id="line2d_26">
    <path d="M 363.702857 308.171145 
L 362.682514 307.905778 
L 361.662171 307.986754 
L 354.0096 308.160011 
L 351.968914 308.095116 
L 348.397714 307.975675 
L 347.377371 307.990565 
L 346.357029 307.919407 
L 344.316343 307.86524 
L 342.275657 307.749478 
L 340.745143 307.702647 
L 336.663771 307.453429 
L 332.5824 307.038434 
L 331.051886 306.785476 
L 328.501029 306.132353 
L 326.460343 306.105212 
L 324.929829 306.236479 
L 322.378971 306.355583 
L 321.8688 306.410267 
L 321.358629 306.257322 
L 318.2976 306.182573 
L 314.216229 305.827805 
L 308.094171 304.895888 
L 301.461943 303.16015 
L 297.380571 301.543979 
L 295.850057 300.651582 
L 294.319543 299.916228 
L 291.768686 298.394312 
L 288.707657 296.150872 
L 287.177143 294.877607 
L 282.5856 290.371507 
L 278.504229 285.476615 
L 272.892343 277.529894 
L 267.790629 269.723512 
L 266.260114 267.328877 
L 260.648229 258.354139 
L 258.607543 255.11048 
L 255.036343 249.517242 
L 249.934629 242.062907 
L 247.383771 238.821144 
L 246.363429 237.564271 
L 243.812571 234.572962 
L 239.7312 230.889933 
L 237.180343 229.236767 
L 234.629486 227.929137 
L 232.5888 227.26982 
L 230.037943 226.809942 
L 226.976914 226.718943 
L 222.895543 227.231977 
L 211.671771 230.479714 
L 210.651429 230.675908 
L 208.610743 230.87879 
L 207.080229 230.806838 
L 204.0192 230.211073 
L 201.468343 229.14592 
L 199.937829 228.311875 
L 197.386971 226.530971 
L 194.836114 224.09802 
L 193.3056 222.284422 
L 191.264914 219.489584 
L 188.714057 215.417273 
L 184.632686 209.397552 
L 183.612343 208.301753 
L 181.571657 206.164051 
L 175.959771 200.869254 
L 173.919086 199.250838 
L 172.898743 198.600648 
L 171.368229 197.871428 
L 169.327543 197.162299 
L 167.286857 196.305487 
L 165.246171 195.033632 
L 164.225829 194.228026 
L 162.695314 192.693794 
L 161.1648 190.917768 
L 159.634286 188.942084 
L 157.083429 184.847766 
L 155.552914 181.716373 
L 154.0224 177.787609 
L 152.491886 173.22071 
L 149.430857 162.025681 
L 147.900343 155.796536 
L 144.839314 141.159678 
L 143.818971 135.349858 
L 143.3088 130.39689 
L 142.798629 129.115451 
L 140.757943 116.440108 
L 138.207086 100.227291 
L 136.1664 87.656541 
L 134.635886 82.29995 
L 134.125714 81.899975 
L 133.615543 82.046932 
L 133.105371 62.197176 
L 131.064686 54.619789 
L 130.044343 52.175873 
L 129.534171 51.041643 
L 128.513829 49.754376 
L 127.493486 49.061492 
L 125.962971 49.565518 
L 124.942629 51.050314 
L 124.432457 52.209473 
L 122.901943 57.040943 
L 121.8816 61.462973 
L 119.840914 72.619564 
L 115.759543 97.235902 
L 114.7392 101.412542 
L 114.229029 102.563771 
L 113.718857 102.951823 
L 113.208686 102.169744 
L 112.698514 99.495771 
L 112.188343 96.026026 
L 111.678171 90.375627 
L 111.168 82.138691 
L 110.657829 71.977833 
L 109.637486 44.531682 
L 108.617143 10.605707 
L 108.316565 -1 
L 108.316565 -1 
" clip-path="url(#p7ec326a7c9)" style="fill: none; stroke: #5f1fa0; stroke-width: 0.5; stroke-linecap: square"/>
   </g>
   <g id="line2d_27">
    <path d="M 363.702857 308.086383 
L 363.192686 307.841749 
L 362.682514 307.811922 
L 361.662171 307.891131 
L 354.0096 308.100972 
L 351.968914 308.054156 
L 350.4384 308.028126 
L 348.907886 307.999835 
L 347.887543 307.969472 
L 346.357029 307.924764 
L 345.336686 307.926074 
L 344.316343 307.848893 
L 343.296 307.871548 
L 331.562057 307.01158 
L 330.541714 306.824194 
L 328.501029 306.256914 
L 326.460343 306.262403 
L 322.378971 306.540366 
L 321.8688 306.619409 
L 321.358629 306.465447 
L 317.277257 306.4641 
L 311.665371 306.050439 
L 308.094171 305.484685 
L 307.584 305.307546 
L 307.073829 305.306361 
L 305.543314 304.933416 
L 304.522971 304.725852 
L 303.502629 304.398272 
L 302.482286 304.167795 
L 298.911086 303.028946 
L 296.8704 302.098644 
L 296.360229 301.738642 
L 295.339886 301.333142 
L 294.319543 300.859062 
L 290.748343 298.725655 
L 287.687314 296.448732 
L 282.5856 291.550278 
L 280.544914 289.235277 
L 278.504229 286.75127 
L 276.463543 283.95953 
L 271.872 277.215735 
L 268.3008 271.771347 
L 266.260114 268.489124 
L 265.239771 266.809774 
L 251.975314 245.399912 
L 247.893943 239.589808 
L 244.832914 235.566317 
L 242.792229 233.384203 
L 241.771886 232.330212 
L 239.221029 230.033465 
L 236.670171 228.270743 
L 235.139657 227.402933 
L 233.609143 226.734932 
L 231.568457 226.017747 
L 227.487086 225.591753 
L 224.426057 225.850587 
L 221.365029 226.615488 
L 218.304 227.689563 
L 216.263314 228.372838 
L 215.242971 228.806994 
L 210.651429 230.406726 
L 209.631086 230.675341 
L 206.059886 230.929627 
L 205.039543 230.77813 
L 204.529371 230.7953 
L 201.468343 229.866259 
L 199.937829 229.131163 
L 197.897143 227.930533 
L 196.366629 226.749088 
L 193.3056 223.649551 
L 191.775086 221.662268 
L 186.673371 213.92466 
L 185.653029 212.359935 
L 181.571657 207.610542 
L 174.939429 200.941226 
L 173.919086 200.04862 
L 172.388571 198.948413 
L 167.286857 196.276316 
L 164.736 194.165361 
L 162.695314 191.783741 
L 162.185143 191.148726 
L 161.1648 189.655166 
L 159.634286 187.268419 
L 158.103771 184.493038 
L 156.573257 181.218244 
L 155.042743 177.267828 
L 153.512229 172.491359 
L 151.981714 167.089827 
L 149.941029 158.720421 
L 147.390171 146.907653 
L 144.839314 133.337589 
L 143.818971 127.256668 
L 143.3088 121.727769 
L 142.798629 120.248603 
L 141.268114 110.367226 
L 136.1664 76.823513 
L 135.656229 75.208098 
L 134.635886 71.439746 
L 134.125714 71.507845 
L 133.615543 71.70117 
L 133.105371 49.786272 
L 132.085029 45.738837 
L 131.574857 43.743274 
L 130.044343 39.465028 
L 129.534171 38.512623 
L 128.003657 36.916744 
L 126.983314 36.801642 
L 125.962971 37.893919 
L 124.942629 39.581663 
L 123.922286 42.452279 
L 122.901943 46.64067 
L 121.8816 51.645638 
L 119.330743 68.195168 
L 115.249371 95.326772 
L 114.7392 97.446227 
L 114.229029 98.918268 
L 113.718857 99.26849 
L 113.208686 98.7 
L 112.698514 96.013179 
L 112.188343 92.333943 
L 111.678171 86.260108 
L 111.168 77.461357 
L 110.657829 66.705825 
L 109.637486 36.981353 
L 108.567062 -1 
L 108.567062 -1 
" clip-path="url(#p7ec326a7c9)" style="fill: none; stroke: #521fad; stroke-width: 0.5; stroke-linecap: square"/>
   </g>
   <g id="line2d_28">
    <path d="M 363.702857 308.004298 
L 363.192686 307.775231 
L 360.641829 307.788372 
L 359.621486 307.854543 
L 357.5808 307.930517 
L 356.050286 307.998154 
L 355.029943 307.963387 
L 340.234971 307.71688 
L 339.214629 307.62045 
L 337.173943 307.532611 
L 336.1536 307.467935 
L 332.072229 307.183444 
L 330.541714 306.863316 
L 328.501029 306.364851 
L 326.460343 306.424184 
L 323.399314 306.70054 
L 322.378971 306.746462 
L 321.8688 306.86566 
L 321.358629 306.730075 
L 316.256914 306.645619 
L 313.706057 306.475987 
L 309.624686 306.025744 
L 308.604343 305.905277 
L 307.073829 305.623365 
L 305.033143 305.191841 
L 301.461943 304.283151 
L 300.951771 304.083963 
L 300.4416 304.011926 
L 297.380571 302.771849 
L 295.850057 301.938208 
L 295.339886 301.812017 
L 293.2992 300.737537 
L 291.258514 299.500677 
L 289.728 298.450083 
L 287.687314 296.896032 
L 284.626286 294.097067 
L 281.565257 290.858994 
L 279.524571 288.306958 
L 277.483886 285.617703 
L 271.361829 276.420867 
L 266.770286 268.978504 
L 264.219429 264.621591 
L 261.668571 260.247138 
L 259.627886 256.69718 
L 255.036343 248.78329 
L 253.505829 246.211459 
L 250.954971 242.088087 
L 248.404114 238.154941 
L 243.812571 231.968509 
L 240.751543 228.578197 
L 238.710857 226.720602 
L 236.16 224.827657 
L 233.098971 223.282858 
L 232.078629 222.881152 
L 230.548114 222.487515 
L 229.0176 222.259407 
L 227.487086 222.192128 
L 224.936229 222.326726 
L 224.426057 222.523858 
L 223.915886 222.564391 
L 223.405714 222.761582 
L 222.385371 222.943838 
L 219.324343 224.099514 
L 216.773486 225.245237 
L 213.712457 226.773395 
L 208.610743 228.968925 
L 205.039543 229.580968 
L 202.998857 229.582151 
L 202.488686 229.588324 
L 201.468343 229.355867 
L 199.427657 228.885672 
L 198.407314 228.428378 
L 197.386971 228.03882 
L 195.856457 227.164421 
L 194.325943 225.905446 
L 193.3056 225.087627 
L 190.754743 222.139672 
L 188.203886 218.819521 
L 184.632686 214.436616 
L 183.102171 212.873199 
L 180.041143 210.104295 
L 179.530971 209.779583 
L 178.510629 208.810656 
L 173.408914 204.525649 
L 167.286857 201.262738 
L 165.246171 199.423206 
L 163.715657 197.59592 
L 162.695314 196.171583 
L 161.674971 194.550973 
L 161.1648 193.488278 
L 160.654629 192.730825 
L 159.124114 189.6649 
L 157.5936 186.095611 
L 156.063086 181.836306 
L 155.042743 178.485126 
L 153.002057 170.513051 
L 151.471543 163.497531 
L 149.430857 152.897706 
L 147.900343 144.522299 
L 146.369829 135.247413 
L 144.329143 121.989225 
L 143.818971 118.180427 
L 143.3088 112.139147 
L 142.798629 110.328979 
L 137.696914 72.297846 
L 136.676571 65.52469 
L 136.1664 61.560396 
L 135.656229 60.013925 
L 134.635886 56.58078 
L 134.125714 56.733844 
L 133.615543 57.497919 
L 133.105371 31.790005 
L 131.574857 25.068319 
L 131.064686 23.160523 
L 129.534171 19.163634 
L 128.513829 18.169725 
L 127.493486 17.537115 
L 126.473143 18.057241 
L 125.4528 19.659254 
L 124.942629 20.868826 
L 123.922286 24.5193 
L 122.901943 29.120116 
L 121.371429 38.435423 
L 120.351086 45.565833 
L 117.290057 69.699413 
L 116.269714 77.368586 
L 115.249371 83.926554 
L 114.7392 86.361191 
L 114.229029 88.119334 
L 113.718857 88.821681 
L 113.208686 88.313637 
L 112.698514 85.668756 
L 112.188343 82.063964 
L 111.678171 75.825605 
L 111.168 66.880532 
L 110.657829 55.480018 
L 109.637486 25.03308 
L 108.906003 -1 
L 108.906003 -1 
" clip-path="url(#p7ec326a7c9)" style="fill: none; stroke: #451fba; stroke-width: 0.5; stroke-linecap: square"/>
   </g>
   <g id="line2d_29">
    <path d="M 363.702857 307.872944 
L 363.192686 307.648412 
L 359.621486 307.693455 
L 358.601143 307.815507 
L 357.5808 307.837944 
L 356.050286 307.908689 
L 354.519771 307.856654 
L 349.928229 307.891635 
L 347.887543 307.85045 
L 337.684114 307.573838 
L 336.663771 307.491844 
L 336.1536 307.516387 
L 334.623086 307.329142 
L 333.092571 307.268747 
L 332.072229 307.138297 
L 331.051886 307.054745 
L 330.031543 306.797672 
L 329.0112 306.459681 
L 326.970514 306.349824 
L 325.950171 306.518033 
L 324.929829 306.649242 
L 320.338286 306.867413 
L 316.256914 306.838864 
L 314.216229 306.684789 
L 306.053486 305.62095 
L 299.421257 303.890941 
L 293.2992 301.072122 
L 291.768686 300.156408 
L 290.238171 299.141 
L 288.197486 297.643307 
L 285.136457 294.979189 
L 284.116114 293.901883 
L 281.565257 291.150199 
L 280.034743 289.313252 
L 276.463543 284.444717 
L 271.872 277.447319 
L 269.321143 273.293066 
L 265.749943 267.204824 
L 261.668571 259.996758 
L 249.934629 239.489397 
L 246.8736 234.805255 
L 243.3024 229.980276 
L 240.241371 226.525777 
L 239.221029 225.540969 
L 236.670171 223.401793 
L 234.119314 221.834683 
L 232.5888 221.075775 
L 230.548114 220.431177 
L 227.997257 220.117899 
L 223.915886 220.459919 
L 222.895543 220.74957 
L 221.8752 221.079001 
L 221.365029 221.292021 
L 220.854857 221.376126 
L 216.773486 223.354559 
L 209.120914 227.396872 
L 207.080229 228.274866 
L 206.570057 228.364662 
L 205.549714 228.668555 
L 204.0192 228.950368 
L 201.468343 229.051994 
L 199.937829 228.980353 
L 198.407314 228.669057 
L 196.8768 228.17435 
L 195.346286 227.46462 
L 192.795429 225.651385 
L 190.244571 223.089916 
L 185.653029 217.904709 
L 183.612343 215.959328 
L 182.592 215.244284 
L 182.081829 214.764942 
L 181.061486 214.031943 
L 178.000457 211.715514 
L 174.429257 209.050648 
L 172.388571 207.827891 
L 170.858057 207.080873 
L 170.347886 206.947782 
L 167.797029 205.604926 
L 165.246171 203.401505 
L 163.715657 201.48975 
L 161.1648 197.172921 
L 160.144457 195.086656 
L 159.124114 192.825954 
L 157.5936 188.789742 
L 156.573257 185.777178 
L 155.042743 180.337632 
L 153.002057 171.387219 
L 151.981714 166.37555 
L 149.941029 155.047536 
L 145.349486 125.28723 
L 143.818971 113.741147 
L 143.3088 107.203851 
L 142.798629 105.278251 
L 138.207086 68.323745 
L 136.1664 53.846574 
L 135.146057 49.584321 
L 134.635886 48.48689 
L 134.125714 48.95105 
L 133.615543 49.09346 
L 133.105371 21.222776 
L 132.085029 16.502892 
L 131.064686 11.987067 
L 129.534171 7.622772 
L 128.513829 6.234732 
L 128.003657 5.793464 
L 127.493486 5.841075 
L 126.983314 5.706411 
L 125.962971 7.075841 
L 125.4528 8.07242 
L 124.432457 10.863993 
L 122.901943 17.92382 
L 121.8816 23.893749 
L 119.840914 39.391027 
L 118.3104 52.092581 
L 116.269714 68.944538 
L 115.249371 75.740218 
L 114.7392 78.353639 
L 114.229029 80.173193 
L 113.718857 80.985989 
L 113.208686 80.393351 
L 112.698514 77.857148 
L 112.188343 73.992914 
L 111.678171 67.46873 
L 111.168 58.277989 
L 110.657829 46.563655 
L 109.637486 14.960493 
L 109.197636 -1 
L 109.197636 -1 
" clip-path="url(#p7ec326a7c9)" style="fill: none; stroke: #381fc7; stroke-width: 0.5; stroke-linecap: square"/>
   </g>
   <g id="line2d_30">
    <path d="M 363.702857 308.145136 
L 363.192686 307.899368 
L 360.131657 307.947687 
L 358.090971 308.047317 
L 354.0096 308.101491 
L 352.989257 308.062136 
L 351.458743 308.049152 
L 349.928229 308.013671 
L 347.377371 307.90202 
L 346.357029 307.943224 
L 344.316343 307.862874 
L 343.296 307.823344 
L 336.663771 307.494274 
L 332.5824 307.107244 
L 331.562057 307.043696 
L 328.501029 306.271269 
L 326.460343 306.287935 
L 325.44 306.421172 
L 322.378971 306.604531 
L 321.8688 306.680842 
L 321.358629 306.521892 
L 319.828114 306.598516 
L 311.1552 306.089582 
L 307.584 305.620325 
L 303.502629 304.775886 
L 301.461943 304.194539 
L 300.4416 303.916826 
L 297.890743 302.999381 
L 291.768686 299.806253 
L 290.238171 298.824789 
L 287.177143 296.426055 
L 282.5856 291.937772 
L 280.034743 288.832938 
L 277.483886 285.362239 
L 274.422857 280.753687 
L 267.790629 269.673572 
L 256.566857 248.767139 
L 252.485486 241.139642 
L 246.363429 230.82777 
L 245.853257 230.080778 
L 244.832914 228.354828 
L 242.792229 225.479327 
L 241.771886 224.222719 
L 240.241371 222.365475 
L 239.221029 221.260826 
L 238.200686 220.218725 
L 236.16 218.41847 
L 234.119314 216.982811 
L 232.5888 216.084977 
L 231.058286 215.467132 
L 229.0176 214.955373 
L 227.487086 214.775332 
L 225.956571 214.805429 
L 224.936229 214.865194 
L 223.405714 215.183442 
L 220.854857 215.987667 
L 219.834514 216.527454 
L 218.304 217.25136 
L 214.222629 219.811144 
L 211.671771 221.583615 
L 207.5904 224.016989 
L 205.549714 224.9495 
L 204.0192 225.557809 
L 201.468343 226.221441 
L 198.917486 226.504814 
L 196.366629 226.351109 
L 195.346286 226.131758 
L 193.815771 225.559131 
L 192.795429 225.055085 
L 190.754743 223.687545 
L 184.632686 218.597494 
L 182.592 217.370196 
L 180.041143 215.999933 
L 179.0208 215.432712 
L 173.408914 212.196297 
L 169.327543 210.56003 
L 167.797029 209.614472 
L 166.266514 208.311594 
L 164.736 206.447464 
L 163.205486 203.943215 
L 161.674971 200.840241 
L 159.124114 193.997552 
L 158.103771 190.649821 
L 157.083429 186.918375 
L 156.063086 182.73383 
L 154.532571 175.37775 
L 152.491886 163.49506 
L 150.961371 153.32869 
L 148.920686 138.271595 
L 146.88 121.905278 
L 143.818971 94.93533 
L 143.3088 87.22912 
L 142.798629 84.530125 
L 139.227429 50.795678 
L 138.207086 41.904376 
L 136.1664 25.927472 
L 135.146057 22.169034 
L 134.635886 21.414872 
L 134.125714 22.467098 
L 133.615543 24.440191 
L 133.254708 -1 
M 121.012795 -1 
L 119.840914 9.527621 
L 115.759543 46.89713 
L 114.7392 53.462791 
L 114.229029 55.45661 
L 113.718857 56.618307 
L 113.208686 56.122397 
L 112.698514 53.434161 
L 112.188343 49.491201 
L 111.678171 42.778768 
L 111.168 33.235082 
L 110.657829 20.662138 
L 109.964508 -1 
L 109.964508 -1 
" clip-path="url(#p7ec326a7c9)" style="fill: none; stroke: #2c1fd3; stroke-width: 0.5; stroke-linecap: square"/>
   </g>
   <g id="line2d_31">
    <path d="M 363.702857 307.938403 
L 363.192686 307.712181 
L 361.152 307.757242 
L 358.601143 307.856298 
L 345.336686 307.840899 
L 344.316343 307.764147 
L 336.1536 307.486031 
L 335.133257 307.397108 
L 330.031543 306.754505 
L 327.990857 306.375732 
L 325.44 306.602642 
L 324.929829 306.737422 
L 323.399314 306.797948 
L 321.8688 307.017964 
L 321.358629 306.893194 
L 315.746743 306.891895 
L 313.195886 306.674929 
L 310.645029 306.48902 
L 304.0128 305.44928 
L 301.972114 304.93485 
L 297.380571 303.469416 
L 295.339886 302.515569 
L 293.2992 301.58048 
L 292.278857 300.921829 
L 291.258514 300.355686 
L 289.728 299.322056 
L 287.177143 297.353093 
L 283.095771 293.316583 
L 281.055086 290.95336 
L 278.504229 287.415264 
L 276.973714 285.153026 
L 274.933029 281.804319 
L 272.892343 278.223679 
L 270.341486 273.585783 
L 267.790629 268.604753 
L 262.178743 256.540963 
L 255.036343 240.168041 
L 253.505829 236.551305 
L 250.4448 229.60126 
L 247.893943 224.096074 
L 245.853257 219.927834 
L 245.343086 218.677021 
L 243.3024 214.833539 
L 241.771886 212.072823 
L 239.221029 207.897076 
L 237.180343 204.920121 
L 234.629486 201.847773 
L 231.058286 198.704966 
L 229.0176 197.579843 
L 227.997257 197.13395 
L 226.466743 196.739844 
L 224.936229 196.564006 
L 222.895543 196.831629 
L 220.854857 197.460935 
L 219.324343 198.232981 
L 218.814171 198.603003 
L 218.304 198.816341 
L 214.7328 201.64653 
L 212.692114 203.597278 
L 210.141257 206.316258 
L 209.120914 207.421343 
L 199.937829 216.913816 
L 197.897143 218.858946 
L 197.386971 219.21433 
L 196.366629 220.078987 
L 195.346286 220.803726 
L 193.815771 221.744043 
L 191.775086 222.657877 
L 189.7344 223.246676 
L 189.224229 223.25466 
L 188.203886 223.409402 
L 184.122514 224.169089 
L 183.102171 224.457994 
L 182.081829 224.747955 
L 180.041143 225.317218 
L 179.0208 225.499943 
L 176.980114 225.665411 
L 175.959771 225.672496 
L 175.4496 225.714212 
L 174.939429 225.571062 
L 173.408914 225.5224 
L 170.858057 225.121712 
L 168.817371 224.238953 
L 167.286857 222.795291 
L 166.266514 221.470332 
L 165.246171 219.691114 
L 164.225829 217.483198 
L 163.205486 214.847729 
L 161.674971 209.889096 
L 159.634286 201.204674 
L 158.103771 192.950159 
L 156.573257 183.117635 
L 155.042743 171.163237 
L 153.512229 157.266134 
L 151.471543 135.66799 
L 149.430857 110.866653 
L 147.390171 84.789443 
L 143.818971 35.663276 
L 143.3088 24.292344 
L 142.798629 19.862726 
L 141.291474 -1 
L 141.291474 -1 
" clip-path="url(#p7ec326a7c9)" style="fill: none; stroke: #1f1fe0; stroke-width: 0.5; stroke-linecap: square"/>
   </g>
   <g id="patch_3">
    <path d="M 57.6 307.584 
L 57.6 41.472 
" style="fill: none; stroke: #000000; stroke-width: 0.8; stroke-linejoin: miter; stroke-linecap: square"/>
   </g>
   <g id="patch_4">
    <path d="M 414.72 307.584 
L 414.72 41.472 
" style="fill: none; stroke: #000000; stroke-width: 0.8; stroke-linejoin: miter; stroke-linecap: square"/>
   </g>
   <g id="patch_5">
    <path d="M 57.6 307.584 
L 414.72 307.584 
" style="fill: none; stroke: #000000; stroke-width: 0.8; stroke-linejoin: miter; stroke-linecap: square"/>
   </g>
   <g id="patch_6">
    <path d="M 57.6 41.472 
L 414.72 41.472 
" style="fill: none; stroke: #000000; stroke-width: 0.8; stroke-linejoin: miter; stroke-linecap: square"/>
   </g>
   <g id="text_18">
    <!-- IDA Titration of Alizarin:PBA complex &amp; Catechol in MeCN  -->
    <g transform="translate(62.158125 22.034625) scale(0.12 -0.12)">
     <defs>
      <path id="DejaVuSans-49" d="M 628 4666 
L 1259 4666 
L 1259 0 
L 628 0 
L 628 4666 
z
" transform="scale(0.015625)"/>
      <path id="DejaVuSans-44" d="M 1259 4147 
L 1259 519 
L 2022 519 
Q 2988 519 3436 956 
Q 3884 1394 3884 2338 
Q 3884 3275 3436 3711 
Q 2988 4147 2022 4147 
L 1259 4147 
z
M 628 4666 
L 1925 4666 
Q 3281 4666 3915 4102 
Q 4550 3538 4550 2338 
Q 4550 1131 3912 565 
Q 3275 0 1925 0 
L 628 0 
L 628 4666 
z
" transform="scale(0.015625)"/>
      <path id="DejaVuSans-54" d="M -19 4666 
L 3928 4666 
L 3928 4134 
L 2272 4134 
L 2272 0 
L 1638 0 
L 1638 4134 
L -19 4134 
L -19 4666 
z
" transform="scale(0.015625)"/>
      <path id="DejaVuSans-69" d="M 603 3500 
L 1178 3500 
L 1178 0 
L 603 0 
L 603 3500 
z
M 603 4863 
L 1178 4863 
L 1178 4134 
L 603 4134 
L 603 4863 
z
" transform="scale(0.015625)"/>
      <path id="DejaVuSans-66" d="M 2375 4863 
L 2375 4384 
L 1825 4384 
Q 1516 4384 1395 4259 
Q 1275 4134 1275 3809 
L 1275 3500 
L 2222 3500 
L 2222 3053 
L 1275 3053 
L 1275 0 
L 697 0 
L 697 3053 
L 147 3053 
L 147 3500 
L 697 3500 
L 697 3744 
Q 697 4328 969 4595 
Q 1241 4863 1831 4863 
L 2375 4863 
z
" transform="scale(0.015625)"/>
      <path id="DejaVuSans-7a" d="M 353 3500 
L 3084 3500 
L 3084 2975 
L 922 459 
L 3084 459 
L 3084 0 
L 275 0 
L 275 525 
L 2438 3041 
L 353 3041 
L 353 3500 
z
" transform="scale(0.015625)"/>
      <path id="DejaVuSans-3a" d="M 750 794 
L 1409 794 
L 1409 0 
L 750 0 
L 750 794 
z
M 750 3309 
L 1409 3309 
L 1409 2516 
L 750 2516 
L 750 3309 
z
" transform="scale(0.015625)"/>
      <path id="DejaVuSans-50" d="M 1259 4147 
L 1259 2394 
L 2053 2394 
Q 2494 2394 2734 2622 
Q 2975 2850 2975 3272 
Q 2975 3691 2734 3919 
Q 2494 4147 2053 4147 
L 1259 4147 
z
M 628 4666 
L 2053 4666 
Q 2838 4666 3239 4311 
Q 3641 3956 3641 3272 
Q 3641 2581 3239 2228 
Q 2838 1875 2053 1875 
L 1259 1875 
L 1259 0 
L 628 0 
L 628 4666 
z
" transform="scale(0.015625)"/>
      <path id="DejaVuSans-42" d="M 1259 2228 
L 1259 519 
L 2272 519 
Q 2781 519 3026 730 
Q 3272 941 3272 1375 
Q 3272 1813 3026 2020 
Q 2781 2228 2272 2228 
L 1259 2228 
z
M 1259 4147 
L 1259 2741 
L 2194 2741 
Q 2656 2741 2882 2914 
Q 3109 3088 3109 3444 
Q 3109 3797 2882 3972 
Q 2656 4147 2194 4147 
L 1259 4147 
z
M 628 4666 
L 2241 4666 
Q 2963 4666 3353 4366 
Q 3744 4066 3744 3513 
Q 3744 3084 3544 2831 
Q 3344 2578 2956 2516 
Q 3422 2416 3680 2098 
Q 3938 1781 3938 1306 
Q 3938 681 3513 340 
Q 3088 0 2303 0 
L 628 0 
L 628 4666 
z
" transform="scale(0.015625)"/>
      <path id="DejaVuSans-70" d="M 1159 525 
L 1159 -1331 
L 581 -1331 
L 581 3500 
L 1159 3500 
L 1159 2969 
Q 1341 3281 1617 3432 
Q 1894 3584 2278 3584 
Q 2916 3584 3314 3078 
Q 3713 2572 3713 1747 
Q 3713 922 3314 415 
Q 2916 -91 2278 -91 
Q 1894 -91 1617 61 
Q 1341 213 1159 525 
z
M 3116 1747 
Q 3116 2381 2855 2742 
Q 2594 3103 2138 3103 
Q 1681 3103 1420 2742 
Q 1159 2381 1159 1747 
Q 1159 1113 1420 752 
Q 1681 391 2138 391 
Q 2594 391 2855 752 
Q 3116 1113 3116 1747 
z
" transform="scale(0.015625)"/>
      <path id="DejaVuSans-78" d="M 3513 3500 
L 2247 1797 
L 3578 0 
L 2900 0 
L 1881 1375 
L 863 0 
L 184 0 
L 1544 1831 
L 300 3500 
L 978 3500 
L 1906 2253 
L 2834 3500 
L 3513 3500 
z
" transform="scale(0.015625)"/>
      <path id="DejaVuSans-26" d="M 1556 2509 
Q 1272 2256 1139 2004 
Q 1006 1753 1006 1478 
Q 1006 1022 1337 719 
Q 1669 416 2169 416 
Q 2466 416 2725 514 
Q 2984 613 3213 813 
L 1556 2509 
z
M 1997 2859 
L 3584 1234 
Q 3769 1513 3872 1830 
Q 3975 2147 3994 2503 
L 4575 2503 
Q 4538 2091 4375 1687 
Q 4213 1284 3922 891 
L 4794 0 
L 4006 0 
L 3559 459 
Q 3234 181 2878 45 
Q 2522 -91 2113 -91 
Q 1359 -91 881 339 
Q 403 769 403 1441 
Q 403 1841 612 2192 
Q 822 2544 1241 2853 
Q 1091 3050 1012 3245 
Q 934 3441 934 3628 
Q 934 4134 1281 4442 
Q 1628 4750 2203 4750 
Q 2463 4750 2720 4694 
Q 2978 4638 3244 4525 
L 3244 3956 
Q 2972 4103 2725 4179 
Q 2478 4256 2266 4256 
Q 1938 4256 1733 4082 
Q 1528 3909 1528 3634 
Q 1528 3475 1620 3314 
Q 1713 3153 1997 2859 
z
" transform="scale(0.015625)"/>
      <path id="DejaVuSans-43" d="M 4122 4306 
L 4122 3641 
Q 3803 3938 3442 4084 
Q 3081 4231 2675 4231 
Q 1875 4231 1450 3742 
Q 1025 3253 1025 2328 
Q 1025 1406 1450 917 
Q 1875 428 2675 428 
Q 3081 428 3442 575 
Q 3803 722 4122 1019 
L 4122 359 
Q 3791 134 3420 21 
Q 3050 -91 2638 -91 
Q 1578 -91 968 557 
Q 359 1206 359 2328 
Q 359 3453 968 4101 
Q 1578 4750 2638 4750 
Q 3056 4750 3426 4639 
Q 3797 4528 4122 4306 
z
" transform="scale(0.015625)"/>
      <path id="DejaVuSans-4d" d="M 628 4666 
L 1569 4666 
L 2759 1491 
L 3956 4666 
L 4897 4666 
L 4897 0 
L 4281 0 
L 4281 4097 
L 3078 897 
L 2444 897 
L 1241 4097 
L 1241 0 
L 628 0 
L 628 4666 
z
" transform="scale(0.015625)"/>
      <path id="DejaVuSans-4e" d="M 628 4666 
L 1478 4666 
L 3547 763 
L 3547 4666 
L 4159 4666 
L 4159 0 
L 3309 0 
L 1241 3903 
L 1241 0 
L 628 0 
L 628 4666 
z
" transform="scale(0.015625)"/>
     </defs>
     <use xlink:href="#DejaVuSans-49"/>
     <use xlink:href="#DejaVuSans-44" x="29.492188"/>
     <use xlink:href="#DejaVuSans-41" x="104.744141"/>
     <use xlink:href="#DejaVuSans-20" x="173.152344"/>
     <use xlink:href="#DejaVuSans-54" x="204.939453"/>
     <use xlink:href="#DejaVuSans-69" x="262.898438"/>
     <use xlink:href="#DejaVuSans-74" x="290.681641"/>
     <use xlink:href="#DejaVuSans-72" x="329.890625"/>
     <use xlink:href="#DejaVuSans-61" x="371.003906"/>
     <use xlink:href="#DejaVuSans-74" x="432.283203"/>
     <use xlink:href="#DejaVuSans-69" x="471.492188"/>
     <use xlink:href="#DejaVuSans-6f" x="499.275391"/>
     <use xlink:href="#DejaVuSans-6e" x="560.457031"/>
     <use xlink:href="#DejaVuSans-20" x="623.835938"/>
     <use xlink:href="#DejaVuSans-6f" x="655.623047"/>
     <use xlink:href="#DejaVuSans-66" x="716.804688"/>
     <use xlink:href="#DejaVuSans-20" x="752.009766"/>
     <use xlink:href="#DejaVuSans-41" x="783.796875"/>
     <use xlink:href="#DejaVuSans-6c" x="852.205078"/>
     <use xlink:href="#DejaVuSans-69" x="879.988281"/>
     <use xlink:href="#DejaVuSans-7a" x="907.771484"/>
     <use xlink:href="#DejaVuSans-61" x="960.261719"/>
     <use xlink:href="#DejaVuSans-72" x="1021.541016"/>
     <use xlink:href="#DejaVuSans-69" x="1062.654297"/>
     <use xlink:href="#DejaVuSans-6e" x="1090.4375"/>
     <use xlink:href="#DejaVuSans-3a" x="1153.816406"/>
     <use xlink:href="#DejaVuSans-50" x="1187.507812"/>
     <use xlink:href="#DejaVuSans-42" x="1247.810547"/>
     <use xlink:href="#DejaVuSans-41" x="1316.414062"/>
     <use xlink:href="#DejaVuSans-20" x="1384.822266"/>
     <use xlink:href="#DejaVuSans-63" x="1416.609375"/>
     <use xlink:href="#DejaVuSans-6f" x="1471.589844"/>
     <use xlink:href="#DejaVuSans-6d" x="1532.771484"/>
     <use xlink:href="#DejaVuSans-70" x="1630.183594"/>
     <use xlink:href="#DejaVuSans-6c" x="1693.660156"/>
     <use xlink:href="#DejaVuSans-65" x="1721.443359"/>
     <use xlink:href="#DejaVuSans-78" x="1781.216797"/>
     <use xlink:href="#DejaVuSans-20" x="1840.396484"/>
     <use xlink:href="#DejaVuSans-26" x="1872.183594"/>
     <use xlink:href="#DejaVuSans-20" x="1950.162109"/>
     <use xlink:href="#DejaVuSans-43" x="1981.949219"/>
     <use xlink:href="#DejaVuSans-61" x="2051.773438"/>
     <use xlink:href="#DejaVuSans-74" x="2113.052734"/>
     <use xlink:href="#DejaVuSans-65" x="2152.261719"/>
     <use xlink:href="#DejaVuSans-63" x="2213.785156"/>
     <use xlink:href="#DejaVuSans-68" x="2268.765625"/>
     <use xlink:href="#DejaVuSans-6f" x="2332.144531"/>
     <use xlink:href="#DejaVuSans-6c" x="2393.326172"/>
     <use xlink:href="#DejaVuSans-20" x="2421.109375"/>
     <use xlink:href="#DejaVuSans-69" x="2452.896484"/>
     <use xlink:href="#DejaVuSans-6e" x="2480.679688"/>
     <use xlink:href="#DejaVuSans-20" x="2544.058594"/>
     <use xlink:href="#DejaVuSans-4d" x="2575.845703"/>
     <use xlink:href="#DejaVuSans-65" x="2662.125"/>
     <use xlink:href="#DejaVuSans-43" x="2723.648438"/>
     <use xlink:href="#DejaVuSans-4e" x="2793.472656"/>
     <use xlink:href="#DejaVuSans-20" x="2868.277344"/>
    </g>
    <!--  -->
    <g transform="translate(236.16 35.472) scale(0.12 -0.12)"/>
   </g>
  </g>
 </g>
 <defs>
  <clipPath id="p7ec326a7c9">
   <rect x="57.6" y="41.472" width="357.12" height="266.112"/>
  </clipPath>
 </defs>
</svg>
