<?xml version="1.0" encoding="utf-8" standalone="no"?>
<!DOCTYPE svg PUBLIC "-//W3C//DTD SVG 1.1//EN"
  "http://www.w3.org/Graphics/SVG/1.1/DTD/svg11.dtd">
<svg xmlns:xlink="http://www.w3.org/1999/xlink" width="460.8pt" height="345.6pt" viewBox="0 0 460.8 345.6" xmlns="http://www.w3.org/2000/svg" version="1.1">
 <metadata>
  <rdf:RDF xmlns:dc="http://purl.org/dc/elements/1.1/" xmlns:cc="http://creativecommons.org/ns#" xmlns:rdf="http://www.w3.org/1999/02/22-rdf-syntax-ns#">
   <cc:Work>
    <dc:type rdf:resource="http://purl.org/dc/dcmitype/StillImage"/>
    <dc:date>2024-11-03T21:07:22.348433</dc:date>
    <dc:format>image/svg+xml</dc:format>
    <dc:creator>
     <cc:Agent>
      <dc:title>Matplotlib v3.9.2, https://matplotlib.org/</dc:title>
     </cc:Agent>
    </dc:creator>
   </cc:Work>
  </rdf:RDF>
 </metadata>
 <defs>
  <style type="text/css">*{stroke-linejoin: round; stroke-linecap: butt}</style>
 </defs>
 <g id="figure_1">
  <g id="patch_1">
   <path d="M 0 345.6 
L 460.8 345.6 
L 460.8 0 
L 0 0 
z
" style="fill: #ffffff"/>
  </g>
  <g id="axes_1">
   <g id="patch_2">
    <path d="M 57.6 307.584 
L 414.72 307.584 
L 414.72 41.472 
L 57.6 41.472 
z
" style="fill: #ffffff"/>
   </g>
   <g id="matplotlib.axis_1">
    <g id="xtick_1">
     <g id="line2d_1">
      <defs>
       <path id="mc052edfbb0" d="M 0 0 
L 0 3.5 
" style="stroke: #000000; stroke-width: 0.8"/>
      </defs>
      <g>
       <use xlink:href="#mc052edfbb0" x="57.6" y="307.584" style="stroke: #000000; stroke-width: 0.8"/>
      </g>
     </g>
     <g id="text_1">
      <!-- 200 -->
      <g transform="translate(48.05625 322.182437) scale(0.1 -0.1)">
       <defs>
        <path id="DejaVuSans-32" d="M 1228 531 
L 3431 531 
L 3431 0 
L 469 0 
L 469 531 
Q 828 903 1448 1529 
Q 2069 2156 2228 2338 
Q 2531 2678 2651 2914 
Q 2772 3150 2772 3378 
Q 2772 3750 2511 3984 
Q 2250 4219 1831 4219 
Q 1534 4219 1204 4116 
Q 875 4013 500 3803 
L 500 4441 
Q 881 4594 1212 4672 
Q 1544 4750 1819 4750 
Q 2544 4750 2975 4387 
Q 3406 4025 3406 3419 
Q 3406 3131 3298 2873 
Q 3191 2616 2906 2266 
Q 2828 2175 2409 1742 
Q 1991 1309 1228 531 
z
" transform="scale(0.015625)"/>
        <path id="DejaVuSans-30" d="M 2034 4250 
Q 1547 4250 1301 3770 
Q 1056 3291 1056 2328 
Q 1056 1369 1301 889 
Q 1547 409 2034 409 
Q 2525 409 2770 889 
Q 3016 1369 3016 2328 
Q 3016 3291 2770 3770 
Q 2525 4250 2034 4250 
z
M 2034 4750 
Q 2819 4750 3233 4129 
Q 3647 3509 3647 2328 
Q 3647 1150 3233 529 
Q 2819 -91 2034 -91 
Q 1250 -91 836 529 
Q 422 1150 422 2328 
Q 422 3509 836 4129 
Q 1250 4750 2034 4750 
z
" transform="scale(0.015625)"/>
       </defs>
       <use xlink:href="#DejaVuSans-32"/>
       <use xlink:href="#DejaVuSans-30" x="63.623047"/>
       <use xlink:href="#DejaVuSans-30" x="127.246094"/>
      </g>
     </g>
    </g>
    <g id="xtick_2">
     <g id="line2d_2">
      <g>
       <use xlink:href="#mc052edfbb0" x="108.617143" y="307.584" style="stroke: #000000; stroke-width: 0.8"/>
      </g>
     </g>
     <g id="text_2">
      <!-- 300 -->
      <g transform="translate(99.073393 322.182437) scale(0.1 -0.1)">
       <defs>
        <path id="DejaVuSans-33" d="M 2597 2516 
Q 3050 2419 3304 2112 
Q 3559 1806 3559 1356 
Q 3559 666 3084 287 
Q 2609 -91 1734 -91 
Q 1441 -91 1130 -33 
Q 819 25 488 141 
L 488 750 
Q 750 597 1062 519 
Q 1375 441 1716 441 
Q 2309 441 2620 675 
Q 2931 909 2931 1356 
Q 2931 1769 2642 2001 
Q 2353 2234 1838 2234 
L 1294 2234 
L 1294 2753 
L 1863 2753 
Q 2328 2753 2575 2939 
Q 2822 3125 2822 3475 
Q 2822 3834 2567 4026 
Q 2313 4219 1838 4219 
Q 1578 4219 1281 4162 
Q 984 4106 628 3988 
L 628 4550 
Q 988 4650 1302 4700 
Q 1616 4750 1894 4750 
Q 2613 4750 3031 4423 
Q 3450 4097 3450 3541 
Q 3450 3153 3228 2886 
Q 3006 2619 2597 2516 
z
" transform="scale(0.015625)"/>
       </defs>
       <use xlink:href="#DejaVuSans-33"/>
       <use xlink:href="#DejaVuSans-30" x="63.623047"/>
       <use xlink:href="#DejaVuSans-30" x="127.246094"/>
      </g>
     </g>
    </g>
    <g id="xtick_3">
     <g id="line2d_3">
      <g>
       <use xlink:href="#mc052edfbb0" x="159.634286" y="307.584" style="stroke: #000000; stroke-width: 0.8"/>
      </g>
     </g>
     <g id="text_3">
      <!-- 400 -->
      <g transform="translate(150.090536 322.182437) scale(0.1 -0.1)">
       <defs>
        <path id="DejaVuSans-34" d="M 2419 4116 
L 825 1625 
L 2419 1625 
L 2419 4116 
z
M 2253 4666 
L 3047 4666 
L 3047 1625 
L 3713 1625 
L 3713 1100 
L 3047 1100 
L 3047 0 
L 2419 0 
L 2419 1100 
L 313 1100 
L 313 1709 
L 2253 4666 
z
" transform="scale(0.015625)"/>
       </defs>
       <use xlink:href="#DejaVuSans-34"/>
       <use xlink:href="#DejaVuSans-30" x="63.623047"/>
       <use xlink:href="#DejaVuSans-30" x="127.246094"/>
      </g>
     </g>
    </g>
    <g id="xtick_4">
     <g id="line2d_4">
      <g>
       <use xlink:href="#mc052edfbb0" x="210.651429" y="307.584" style="stroke: #000000; stroke-width: 0.8"/>
      </g>
     </g>
     <g id="text_4">
      <!-- 500 -->
      <g transform="translate(201.107679 322.182437) scale(0.1 -0.1)">
       <defs>
        <path id="DejaVuSans-35" d="M 691 4666 
L 3169 4666 
L 3169 4134 
L 1269 4134 
L 1269 2991 
Q 1406 3038 1543 3061 
Q 1681 3084 1819 3084 
Q 2600 3084 3056 2656 
Q 3513 2228 3513 1497 
Q 3513 744 3044 326 
Q 2575 -91 1722 -91 
Q 1428 -91 1123 -41 
Q 819 9 494 109 
L 494 744 
Q 775 591 1075 516 
Q 1375 441 1709 441 
Q 2250 441 2565 725 
Q 2881 1009 2881 1497 
Q 2881 1984 2565 2268 
Q 2250 2553 1709 2553 
Q 1456 2553 1204 2497 
Q 953 2441 691 2322 
L 691 4666 
z
" transform="scale(0.015625)"/>
       </defs>
       <use xlink:href="#DejaVuSans-35"/>
       <use xlink:href="#DejaVuSans-30" x="63.623047"/>
       <use xlink:href="#DejaVuSans-30" x="127.246094"/>
      </g>
     </g>
    </g>
    <g id="xtick_5">
     <g id="line2d_5">
      <g>
       <use xlink:href="#mc052edfbb0" x="261.668571" y="307.584" style="stroke: #000000; stroke-width: 0.8"/>
      </g>
     </g>
     <g id="text_5">
      <!-- 600 -->
      <g transform="translate(252.124821 322.182437) scale(0.1 -0.1)">
       <defs>
        <path id="DejaVuSans-36" d="M 2113 2584 
Q 1688 2584 1439 2293 
Q 1191 2003 1191 1497 
Q 1191 994 1439 701 
Q 1688 409 2113 409 
Q 2538 409 2786 701 
Q 3034 994 3034 1497 
Q 3034 2003 2786 2293 
Q 2538 2584 2113 2584 
z
M 3366 4563 
L 3366 3988 
Q 3128 4100 2886 4159 
Q 2644 4219 2406 4219 
Q 1781 4219 1451 3797 
Q 1122 3375 1075 2522 
Q 1259 2794 1537 2939 
Q 1816 3084 2150 3084 
Q 2853 3084 3261 2657 
Q 3669 2231 3669 1497 
Q 3669 778 3244 343 
Q 2819 -91 2113 -91 
Q 1303 -91 875 529 
Q 447 1150 447 2328 
Q 447 3434 972 4092 
Q 1497 4750 2381 4750 
Q 2619 4750 2861 4703 
Q 3103 4656 3366 4563 
z
" transform="scale(0.015625)"/>
       </defs>
       <use xlink:href="#DejaVuSans-36"/>
       <use xlink:href="#DejaVuSans-30" x="63.623047"/>
       <use xlink:href="#DejaVuSans-30" x="127.246094"/>
      </g>
     </g>
    </g>
    <g id="xtick_6">
     <g id="line2d_6">
      <g>
       <use xlink:href="#mc052edfbb0" x="312.685714" y="307.584" style="stroke: #000000; stroke-width: 0.8"/>
      </g>
     </g>
     <g id="text_6">
      <!-- 700 -->
      <g transform="translate(303.141964 322.182437) scale(0.1 -0.1)">
       <defs>
        <path id="DejaVuSans-37" d="M 525 4666 
L 3525 4666 
L 3525 4397 
L 1831 0 
L 1172 0 
L 2766 4134 
L 525 4134 
L 525 4666 
z
" transform="scale(0.015625)"/>
       </defs>
       <use xlink:href="#DejaVuSans-37"/>
       <use xlink:href="#DejaVuSans-30" x="63.623047"/>
       <use xlink:href="#DejaVuSans-30" x="127.246094"/>
      </g>
     </g>
    </g>
    <g id="xtick_7">
     <g id="line2d_7">
      <g>
       <use xlink:href="#mc052edfbb0" x="363.702857" y="307.584" style="stroke: #000000; stroke-width: 0.8"/>
      </g>
     </g>
     <g id="text_7">
      <!-- 800 -->
      <g transform="translate(354.159107 322.182437) scale(0.1 -0.1)">
       <defs>
        <path id="DejaVuSans-38" d="M 2034 2216 
Q 1584 2216 1326 1975 
Q 1069 1734 1069 1313 
Q 1069 891 1326 650 
Q 1584 409 2034 409 
Q 2484 409 2743 651 
Q 3003 894 3003 1313 
Q 3003 1734 2745 1975 
Q 2488 2216 2034 2216 
z
M 1403 2484 
Q 997 2584 770 2862 
Q 544 3141 544 3541 
Q 544 4100 942 4425 
Q 1341 4750 2034 4750 
Q 2731 4750 3128 4425 
Q 3525 4100 3525 3541 
Q 3525 3141 3298 2862 
Q 3072 2584 2669 2484 
Q 3125 2378 3379 2068 
Q 3634 1759 3634 1313 
Q 3634 634 3220 271 
Q 2806 -91 2034 -91 
Q 1263 -91 848 271 
Q 434 634 434 1313 
Q 434 1759 690 2068 
Q 947 2378 1403 2484 
z
M 1172 3481 
Q 1172 3119 1398 2916 
Q 1625 2713 2034 2713 
Q 2441 2713 2670 2916 
Q 2900 3119 2900 3481 
Q 2900 3844 2670 4047 
Q 2441 4250 2034 4250 
Q 1625 4250 1398 4047 
Q 1172 3844 1172 3481 
z
" transform="scale(0.015625)"/>
       </defs>
       <use xlink:href="#DejaVuSans-38"/>
       <use xlink:href="#DejaVuSans-30" x="63.623047"/>
       <use xlink:href="#DejaVuSans-30" x="127.246094"/>
      </g>
     </g>
    </g>
    <g id="xtick_8">
     <g id="line2d_8">
      <g>
       <use xlink:href="#mc052edfbb0" x="414.72" y="307.584" style="stroke: #000000; stroke-width: 0.8"/>
      </g>
     </g>
     <g id="text_8">
      <!-- 900 -->
      <g transform="translate(405.17625 322.182437) scale(0.1 -0.1)">
       <defs>
        <path id="DejaVuSans-39" d="M 703 97 
L 703 672 
Q 941 559 1184 500 
Q 1428 441 1663 441 
Q 2288 441 2617 861 
Q 2947 1281 2994 2138 
Q 2813 1869 2534 1725 
Q 2256 1581 1919 1581 
Q 1219 1581 811 2004 
Q 403 2428 403 3163 
Q 403 3881 828 4315 
Q 1253 4750 1959 4750 
Q 2769 4750 3195 4129 
Q 3622 3509 3622 2328 
Q 3622 1225 3098 567 
Q 2575 -91 1691 -91 
Q 1453 -91 1209 -44 
Q 966 3 703 97 
z
M 1959 2075 
Q 2384 2075 2632 2365 
Q 2881 2656 2881 3163 
Q 2881 3666 2632 3958 
Q 2384 4250 1959 4250 
Q 1534 4250 1286 3958 
Q 1038 3666 1038 3163 
Q 1038 2656 1286 2365 
Q 1534 2075 1959 2075 
z
" transform="scale(0.015625)"/>
       </defs>
       <use xlink:href="#DejaVuSans-39"/>
       <use xlink:href="#DejaVuSans-30" x="63.623047"/>
       <use xlink:href="#DejaVuSans-30" x="127.246094"/>
      </g>
     </g>
    </g>
    <g id="text_9">
     <!-- Wavelength (nm) -->
     <g transform="translate(192.967812 335.860562) scale(0.1 -0.1)">
      <defs>
       <path id="DejaVuSans-57" d="M 213 4666 
L 850 4666 
L 1831 722 
L 2809 4666 
L 3519 4666 
L 4500 722 
L 5478 4666 
L 6119 4666 
L 4947 0 
L 4153 0 
L 3169 4050 
L 2175 0 
L 1381 0 
L 213 4666 
z
" transform="scale(0.015625)"/>
       <path id="DejaVuSans-61" d="M 2194 1759 
Q 1497 1759 1228 1600 
Q 959 1441 959 1056 
Q 959 750 1161 570 
Q 1363 391 1709 391 
Q 2188 391 2477 730 
Q 2766 1069 2766 1631 
L 2766 1759 
L 2194 1759 
z
M 3341 1997 
L 3341 0 
L 2766 0 
L 2766 531 
Q 2569 213 2275 61 
Q 1981 -91 1556 -91 
Q 1019 -91 701 211 
Q 384 513 384 1019 
Q 384 1609 779 1909 
Q 1175 2209 1959 2209 
L 2766 2209 
L 2766 2266 
Q 2766 2663 2505 2880 
Q 2244 3097 1772 3097 
Q 1472 3097 1187 3025 
Q 903 2953 641 2809 
L 641 3341 
Q 956 3463 1253 3523 
Q 1550 3584 1831 3584 
Q 2591 3584 2966 3190 
Q 3341 2797 3341 1997 
z
" transform="scale(0.015625)"/>
       <path id="DejaVuSans-76" d="M 191 3500 
L 800 3500 
L 1894 563 
L 2988 3500 
L 3597 3500 
L 2284 0 
L 1503 0 
L 191 3500 
z
" transform="scale(0.015625)"/>
       <path id="DejaVuSans-65" d="M 3597 1894 
L 3597 1613 
L 953 1613 
Q 991 1019 1311 708 
Q 1631 397 2203 397 
Q 2534 397 2845 478 
Q 3156 559 3463 722 
L 3463 178 
Q 3153 47 2828 -22 
Q 2503 -91 2169 -91 
Q 1331 -91 842 396 
Q 353 884 353 1716 
Q 353 2575 817 3079 
Q 1281 3584 2069 3584 
Q 2775 3584 3186 3129 
Q 3597 2675 3597 1894 
z
M 3022 2063 
Q 3016 2534 2758 2815 
Q 2500 3097 2075 3097 
Q 1594 3097 1305 2825 
Q 1016 2553 972 2059 
L 3022 2063 
z
" transform="scale(0.015625)"/>
       <path id="DejaVuSans-6c" d="M 603 4863 
L 1178 4863 
L 1178 0 
L 603 0 
L 603 4863 
z
" transform="scale(0.015625)"/>
       <path id="DejaVuSans-6e" d="M 3513 2113 
L 3513 0 
L 2938 0 
L 2938 2094 
Q 2938 2591 2744 2837 
Q 2550 3084 2163 3084 
Q 1697 3084 1428 2787 
Q 1159 2491 1159 1978 
L 1159 0 
L 581 0 
L 581 3500 
L 1159 3500 
L 1159 2956 
Q 1366 3272 1645 3428 
Q 1925 3584 2291 3584 
Q 2894 3584 3203 3211 
Q 3513 2838 3513 2113 
z
" transform="scale(0.015625)"/>
       <path id="DejaVuSans-67" d="M 2906 1791 
Q 2906 2416 2648 2759 
Q 2391 3103 1925 3103 
Q 1463 3103 1205 2759 
Q 947 2416 947 1791 
Q 947 1169 1205 825 
Q 1463 481 1925 481 
Q 2391 481 2648 825 
Q 2906 1169 2906 1791 
z
M 3481 434 
Q 3481 -459 3084 -895 
Q 2688 -1331 1869 -1331 
Q 1566 -1331 1297 -1286 
Q 1028 -1241 775 -1147 
L 775 -588 
Q 1028 -725 1275 -790 
Q 1522 -856 1778 -856 
Q 2344 -856 2625 -561 
Q 2906 -266 2906 331 
L 2906 616 
Q 2728 306 2450 153 
Q 2172 0 1784 0 
Q 1141 0 747 490 
Q 353 981 353 1791 
Q 353 2603 747 3093 
Q 1141 3584 1784 3584 
Q 2172 3584 2450 3431 
Q 2728 3278 2906 2969 
L 2906 3500 
L 3481 3500 
L 3481 434 
z
" transform="scale(0.015625)"/>
       <path id="DejaVuSans-74" d="M 1172 4494 
L 1172 3500 
L 2356 3500 
L 2356 3053 
L 1172 3053 
L 1172 1153 
Q 1172 725 1289 603 
Q 1406 481 1766 481 
L 2356 481 
L 2356 0 
L 1766 0 
Q 1100 0 847 248 
Q 594 497 594 1153 
L 594 3053 
L 172 3053 
L 172 3500 
L 594 3500 
L 594 4494 
L 1172 4494 
z
" transform="scale(0.015625)"/>
       <path id="DejaVuSans-68" d="M 3513 2113 
L 3513 0 
L 2938 0 
L 2938 2094 
Q 2938 2591 2744 2837 
Q 2550 3084 2163 3084 
Q 1697 3084 1428 2787 
Q 1159 2491 1159 1978 
L 1159 0 
L 581 0 
L 581 4863 
L 1159 4863 
L 1159 2956 
Q 1366 3272 1645 3428 
Q 1925 3584 2291 3584 
Q 2894 3584 3203 3211 
Q 3513 2838 3513 2113 
z
" transform="scale(0.015625)"/>
       <path id="DejaVuSans-20" transform="scale(0.015625)"/>
       <path id="DejaVuSans-28" d="M 1984 4856 
Q 1566 4138 1362 3434 
Q 1159 2731 1159 2009 
Q 1159 1288 1364 580 
Q 1569 -128 1984 -844 
L 1484 -844 
Q 1016 -109 783 600 
Q 550 1309 550 2009 
Q 550 2706 781 3412 
Q 1013 4119 1484 4856 
L 1984 4856 
z
" transform="scale(0.015625)"/>
       <path id="DejaVuSans-6d" d="M 3328 2828 
Q 3544 3216 3844 3400 
Q 4144 3584 4550 3584 
Q 5097 3584 5394 3201 
Q 5691 2819 5691 2113 
L 5691 0 
L 5113 0 
L 5113 2094 
Q 5113 2597 4934 2840 
Q 4756 3084 4391 3084 
Q 3944 3084 3684 2787 
Q 3425 2491 3425 1978 
L 3425 0 
L 2847 0 
L 2847 2094 
Q 2847 2600 2669 2842 
Q 2491 3084 2119 3084 
Q 1678 3084 1418 2786 
Q 1159 2488 1159 1978 
L 1159 0 
L 581 0 
L 581 3500 
L 1159 3500 
L 1159 2956 
Q 1356 3278 1631 3431 
Q 1906 3584 2284 3584 
Q 2666 3584 2933 3390 
Q 3200 3197 3328 2828 
z
" transform="scale(0.015625)"/>
       <path id="DejaVuSans-29" d="M 513 4856 
L 1013 4856 
Q 1481 4119 1714 3412 
Q 1947 2706 1947 2009 
Q 1947 1309 1714 600 
Q 1481 -109 1013 -844 
L 513 -844 
Q 928 -128 1133 580 
Q 1338 1288 1338 2009 
Q 1338 2731 1133 3434 
Q 928 4138 513 4856 
z
" transform="scale(0.015625)"/>
      </defs>
      <use xlink:href="#DejaVuSans-57"/>
      <use xlink:href="#DejaVuSans-61" x="92.501953"/>
      <use xlink:href="#DejaVuSans-76" x="153.78125"/>
      <use xlink:href="#DejaVuSans-65" x="212.960938"/>
      <use xlink:href="#DejaVuSans-6c" x="274.484375"/>
      <use xlink:href="#DejaVuSans-65" x="302.267578"/>
      <use xlink:href="#DejaVuSans-6e" x="363.791016"/>
      <use xlink:href="#DejaVuSans-67" x="427.169922"/>
      <use xlink:href="#DejaVuSans-74" x="490.646484"/>
      <use xlink:href="#DejaVuSans-68" x="529.855469"/>
      <use xlink:href="#DejaVuSans-20" x="593.234375"/>
      <use xlink:href="#DejaVuSans-28" x="625.021484"/>
      <use xlink:href="#DejaVuSans-6e" x="664.035156"/>
      <use xlink:href="#DejaVuSans-6d" x="727.414062"/>
      <use xlink:href="#DejaVuSans-29" x="824.826172"/>
     </g>
    </g>
   </g>
   <g id="matplotlib.axis_2">
    <g id="ytick_1">
     <g id="line2d_9">
      <defs>
       <path id="mcc190a4623" d="M 0 0 
L -3.5 0 
" style="stroke: #000000; stroke-width: 0.8"/>
      </defs>
      <g>
       <use xlink:href="#mcc190a4623" x="57.6" y="307.584" style="stroke: #000000; stroke-width: 0.8"/>
      </g>
     </g>
     <g id="text_10">
      <!-- 0.0 -->
      <g transform="translate(34.696875 311.383219) scale(0.1 -0.1)">
       <defs>
        <path id="DejaVuSans-2e" d="M 684 794 
L 1344 794 
L 1344 0 
L 684 0 
L 684 794 
z
" transform="scale(0.015625)"/>
       </defs>
       <use xlink:href="#DejaVuSans-30"/>
       <use xlink:href="#DejaVuSans-2e" x="63.623047"/>
       <use xlink:href="#DejaVuSans-30" x="95.410156"/>
      </g>
     </g>
    </g>
    <g id="ytick_2">
     <g id="line2d_10">
      <g>
       <use xlink:href="#mcc190a4623" x="57.6" y="263.232" style="stroke: #000000; stroke-width: 0.8"/>
      </g>
     </g>
     <g id="text_11">
      <!-- 0.2 -->
      <g transform="translate(34.696875 267.031219) scale(0.1 -0.1)">
       <use xlink:href="#DejaVuSans-30"/>
       <use xlink:href="#DejaVuSans-2e" x="63.623047"/>
       <use xlink:href="#DejaVuSans-32" x="95.410156"/>
      </g>
     </g>
    </g>
    <g id="ytick_3">
     <g id="line2d_11">
      <g>
       <use xlink:href="#mcc190a4623" x="57.6" y="218.88" style="stroke: #000000; stroke-width: 0.8"/>
      </g>
     </g>
     <g id="text_12">
      <!-- 0.4 -->
      <g transform="translate(34.696875 222.679219) scale(0.1 -0.1)">
       <use xlink:href="#DejaVuSans-30"/>
       <use xlink:href="#DejaVuSans-2e" x="63.623047"/>
       <use xlink:href="#DejaVuSans-34" x="95.410156"/>
      </g>
     </g>
    </g>
    <g id="ytick_4">
     <g id="line2d_12">
      <g>
       <use xlink:href="#mcc190a4623" x="57.6" y="174.528" style="stroke: #000000; stroke-width: 0.8"/>
      </g>
     </g>
     <g id="text_13">
      <!-- 0.6 -->
      <g transform="translate(34.696875 178.327219) scale(0.1 -0.1)">
       <use xlink:href="#DejaVuSans-30"/>
       <use xlink:href="#DejaVuSans-2e" x="63.623047"/>
       <use xlink:href="#DejaVuSans-36" x="95.410156"/>
      </g>
     </g>
    </g>
    <g id="ytick_5">
     <g id="line2d_13">
      <g>
       <use xlink:href="#mcc190a4623" x="57.6" y="130.176" style="stroke: #000000; stroke-width: 0.8"/>
      </g>
     </g>
     <g id="text_14">
      <!-- 0.8 -->
      <g transform="translate(34.696875 133.975219) scale(0.1 -0.1)">
       <use xlink:href="#DejaVuSans-30"/>
       <use xlink:href="#DejaVuSans-2e" x="63.623047"/>
       <use xlink:href="#DejaVuSans-38" x="95.410156"/>
      </g>
     </g>
    </g>
    <g id="ytick_6">
     <g id="line2d_14">
      <g>
       <use xlink:href="#mcc190a4623" x="57.6" y="85.824" style="stroke: #000000; stroke-width: 0.8"/>
      </g>
     </g>
     <g id="text_15">
      <!-- 1.0 -->
      <g transform="translate(34.696875 89.623219) scale(0.1 -0.1)">
       <defs>
        <path id="DejaVuSans-31" d="M 794 531 
L 1825 531 
L 1825 4091 
L 703 3866 
L 703 4441 
L 1819 4666 
L 2450 4666 
L 2450 531 
L 3481 531 
L 3481 0 
L 794 0 
L 794 531 
z
" transform="scale(0.015625)"/>
       </defs>
       <use xlink:href="#DejaVuSans-31"/>
       <use xlink:href="#DejaVuSans-2e" x="63.623047"/>
       <use xlink:href="#DejaVuSans-30" x="95.410156"/>
      </g>
     </g>
    </g>
    <g id="ytick_7">
     <g id="line2d_15">
      <g>
       <use xlink:href="#mcc190a4623" x="57.6" y="41.472" style="stroke: #000000; stroke-width: 0.8"/>
      </g>
     </g>
     <g id="text_16">
      <!-- 1.2 -->
      <g transform="translate(34.696875 45.271219) scale(0.1 -0.1)">
       <use xlink:href="#DejaVuSans-31"/>
       <use xlink:href="#DejaVuSans-2e" x="63.623047"/>
       <use xlink:href="#DejaVuSans-32" x="95.410156"/>
      </g>
     </g>
    </g>
    <g id="text_17">
     <!-- Absorbance -->
     <g transform="translate(28.617187 204.074875) rotate(-90) scale(0.1 -0.1)">
      <defs>
       <path id="DejaVuSans-41" d="M 2188 4044 
L 1331 1722 
L 3047 1722 
L 2188 4044 
z
M 1831 4666 
L 2547 4666 
L 4325 0 
L 3669 0 
L 3244 1197 
L 1141 1197 
L 716 0 
L 50 0 
L 1831 4666 
z
" transform="scale(0.015625)"/>
       <path id="DejaVuSans-62" d="M 3116 1747 
Q 3116 2381 2855 2742 
Q 2594 3103 2138 3103 
Q 1681 3103 1420 2742 
Q 1159 2381 1159 1747 
Q 1159 1113 1420 752 
Q 1681 391 2138 391 
Q 2594 391 2855 752 
Q 3116 1113 3116 1747 
z
M 1159 2969 
Q 1341 3281 1617 3432 
Q 1894 3584 2278 3584 
Q 2916 3584 3314 3078 
Q 3713 2572 3713 1747 
Q 3713 922 3314 415 
Q 2916 -91 2278 -91 
Q 1894 -91 1617 61 
Q 1341 213 1159 525 
L 1159 0 
L 581 0 
L 581 4863 
L 1159 4863 
L 1159 2969 
z
" transform="scale(0.015625)"/>
       <path id="DejaVuSans-73" d="M 2834 3397 
L 2834 2853 
Q 2591 2978 2328 3040 
Q 2066 3103 1784 3103 
Q 1356 3103 1142 2972 
Q 928 2841 928 2578 
Q 928 2378 1081 2264 
Q 1234 2150 1697 2047 
L 1894 2003 
Q 2506 1872 2764 1633 
Q 3022 1394 3022 966 
Q 3022 478 2636 193 
Q 2250 -91 1575 -91 
Q 1294 -91 989 -36 
Q 684 19 347 128 
L 347 722 
Q 666 556 975 473 
Q 1284 391 1588 391 
Q 1994 391 2212 530 
Q 2431 669 2431 922 
Q 2431 1156 2273 1281 
Q 2116 1406 1581 1522 
L 1381 1569 
Q 847 1681 609 1914 
Q 372 2147 372 2553 
Q 372 3047 722 3315 
Q 1072 3584 1716 3584 
Q 2034 3584 2315 3537 
Q 2597 3491 2834 3397 
z
" transform="scale(0.015625)"/>
       <path id="DejaVuSans-6f" d="M 1959 3097 
Q 1497 3097 1228 2736 
Q 959 2375 959 1747 
Q 959 1119 1226 758 
Q 1494 397 1959 397 
Q 2419 397 2687 759 
Q 2956 1122 2956 1747 
Q 2956 2369 2687 2733 
Q 2419 3097 1959 3097 
z
M 1959 3584 
Q 2709 3584 3137 3096 
Q 3566 2609 3566 1747 
Q 3566 888 3137 398 
Q 2709 -91 1959 -91 
Q 1206 -91 779 398 
Q 353 888 353 1747 
Q 353 2609 779 3096 
Q 1206 3584 1959 3584 
z
" transform="scale(0.015625)"/>
       <path id="DejaVuSans-72" d="M 2631 2963 
Q 2534 3019 2420 3045 
Q 2306 3072 2169 3072 
Q 1681 3072 1420 2755 
Q 1159 2438 1159 1844 
L 1159 0 
L 581 0 
L 581 3500 
L 1159 3500 
L 1159 2956 
Q 1341 3275 1631 3429 
Q 1922 3584 2338 3584 
Q 2397 3584 2469 3576 
Q 2541 3569 2628 3553 
L 2631 2963 
z
" transform="scale(0.015625)"/>
       <path id="DejaVuSans-63" d="M 3122 3366 
L 3122 2828 
Q 2878 2963 2633 3030 
Q 2388 3097 2138 3097 
Q 1578 3097 1268 2742 
Q 959 2388 959 1747 
Q 959 1106 1268 751 
Q 1578 397 2138 397 
Q 2388 397 2633 464 
Q 2878 531 3122 666 
L 3122 134 
Q 2881 22 2623 -34 
Q 2366 -91 2075 -91 
Q 1284 -91 818 406 
Q 353 903 353 1747 
Q 353 2603 823 3093 
Q 1294 3584 2113 3584 
Q 2378 3584 2631 3529 
Q 2884 3475 3122 3366 
z
" transform="scale(0.015625)"/>
      </defs>
      <use xlink:href="#DejaVuSans-41"/>
      <use xlink:href="#DejaVuSans-62" x="68.408203"/>
      <use xlink:href="#DejaVuSans-73" x="131.884766"/>
      <use xlink:href="#DejaVuSans-6f" x="183.984375"/>
      <use xlink:href="#DejaVuSans-72" x="245.166016"/>
      <use xlink:href="#DejaVuSans-62" x="286.279297"/>
      <use xlink:href="#DejaVuSans-61" x="349.755859"/>
      <use xlink:href="#DejaVuSans-6e" x="411.035156"/>
      <use xlink:href="#DejaVuSans-63" x="474.414062"/>
      <use xlink:href="#DejaVuSans-65" x="529.394531"/>
     </g>
    </g>
   </g>
   <g id="line2d_16">
    <path d="M 363.702857 307.931784 
L 363.192686 307.751327 
L 361.662171 307.717653 
L 361.152 307.814365 
L 360.641829 307.745891 
L 359.621486 307.823247 
L 358.601143 307.858017 
L 358.090971 307.931163 
L 357.070629 307.920281 
L 343.296 307.765046 
L 342.275657 307.674836 
L 341.255314 307.726297 
L 334.112914 307.339122 
L 332.072229 307.139833 
L 330.541714 306.894177 
L 329.0112 306.492145 
L 327.480686 306.368906 
L 321.8688 306.998719 
L 321.358629 306.90074 
L 315.746743 307.091232 
L 314.7264 307.088004 
L 309.114514 306.976854 
L 307.584 306.953942 
L 306.053486 306.835311 
L 301.972114 306.502625 
L 300.951771 306.348607 
L 297.890743 306.115105 
L 296.360229 305.758306 
L 289.728 305.028098 
L 288.197486 304.700915 
L 287.177143 304.576429 
L 280.034743 303.071017 
L 279.0144 302.81754 
L 277.994057 302.472912 
L 276.973714 302.183051 
L 275.4432 301.769429 
L 274.422857 301.451207 
L 262.688914 297.472074 
L 261.1584 296.861165 
L 260.648229 296.767682 
L 257.077029 295.331553 
L 256.566857 295.242515 
L 255.546514 294.780577 
L 248.404114 292.257438 
L 245.853257 291.511475 
L 244.322743 290.819751 
L 238.710857 288.570114 
L 237.180343 287.85271 
L 234.119314 285.886147 
L 233.609143 285.536276 
L 230.037943 281.981665 
L 227.997257 279.274991 
L 226.466743 276.789205 
L 224.936229 273.921916 
L 223.405714 270.653903 
L 220.854857 264.415329 
L 217.793829 255.623178 
L 214.222629 244.325869 
L 206.570057 218.314895 
L 197.897143 187.72981 
L 195.346286 179.432059 
L 193.815771 174.940739 
L 192.285257 170.811962 
L 190.754743 167.241575 
L 189.224229 164.21282 
L 187.693714 161.754219 
L 186.1632 159.910385 
L 185.142857 158.999841 
L 183.612343 158.370562 
L 182.081829 158.494282 
L 181.061486 158.88659 
L 179.530971 160.067665 
L 178.510629 161.161884 
L 177.490286 162.677095 
L 175.959771 165.425459 
L 173.919086 169.967032 
L 171.368229 177.151768 
L 169.327543 183.794727 
L 165.756343 196.531706 
L 156.063086 232.532274 
L 153.002057 242.098794 
L 151.981714 245.037338 
L 149.941029 250.151413 
L 146.88 256.077372 
L 146.369829 256.639957 
L 145.859657 257.51879 
L 144.839314 258.645424 
L 143.818971 259.575668 
L 143.3088 258.826285 
L 142.798629 260.276004 
L 142.288457 260.567601 
L 141.778286 260.587692 
L 141.268114 260.95031 
L 140.757943 261.170517 
L 140.247771 260.984729 
L 139.227429 261.085816 
L 138.717257 260.769984 
L 138.207086 260.732828 
L 137.186743 260.287787 
L 136.676571 260.038765 
L 136.1664 259.039318 
L 135.656229 259.171619 
L 135.146057 258.733538 
L 134.635886 257.984164 
L 134.125714 257.844926 
L 133.615543 257.217762 
L 133.105371 252.715538 
L 131.574857 250.300154 
L 130.554514 248.348269 
L 129.534171 246.029013 
L 128.513829 243.189921 
L 127.493486 239.683503 
L 125.962971 233.0042 
L 124.432457 224.534451 
L 122.901943 214.446662 
L 119.840914 193.245439 
L 118.820571 187.620868 
L 117.800229 183.347605 
L 116.779886 179.975593 
L 115.759543 176.937096 
L 112.698514 168.816266 
L 112.188343 167.99279 
L 111.168 166.972617 
L 108.617143 166.021005 
L 108.106971 165.527739 
L 107.5968 164.716687 
L 107.086629 163.560634 
L 106.576457 162.032232 
L 106.066286 159.91242 
L 105.556114 157.251771 
L 105.045943 153.777848 
L 104.535771 149.167304 
L 104.0256 143.40097 
L 103.515429 135.955537 
L 103.005257 126.880321 
L 101.984914 102.180789 
L 100.4544 55.434694 
L 98.827121 -1 
L 98.827121 -1 
" clip-path="url(#p8f80d4c8d6)" style="fill: none; stroke: #e01f1f; stroke-width: 0.5; stroke-linecap: square"/>
   </g>
   <g id="line2d_17">
    <path d="M 363.702857 308.209951 
L 363.192686 307.989946 
L 359.621486 308.035134 
L 357.5808 308.162522 
L 340.745143 307.769234 
L 339.7248 307.662516 
L 336.663771 307.467514 
L 335.643429 307.368228 
L 334.623086 307.265719 
L 330.541714 306.731315 
L 327.990857 306.106622 
L 326.460343 306.136115 
L 325.44 306.28516 
L 324.419657 306.345235 
L 321.8688 306.545441 
L 321.358629 306.379759 
L 319.317943 306.35077 
L 312.685714 305.91367 
L 310.134857 305.611126 
L 309.114514 305.574266 
L 307.584 305.324901 
L 305.543314 305.026893 
L 300.951771 304.188708 
L 300.4416 304.020221 
L 299.931429 303.997247 
L 295.850057 302.882839 
L 294.319543 302.491841 
L 290.238171 301.348325 
L 288.707657 300.831419 
L 285.646629 299.703605 
L 283.605943 298.831135 
L 281.565257 297.980751 
L 268.3008 290.809657 
L 261.668571 287.114283 
L 250.954971 281.703371 
L 247.893943 280.61745 
L 246.363429 279.98971 
L 245.343086 279.592614 
L 244.322743 279.11778 
L 241.771886 278.299471 
L 240.751543 277.945469 
L 236.670171 276.434716 
L 234.119314 275.23933 
L 231.568457 273.636478 
L 229.0176 271.446562 
L 226.466743 268.474336 
L 224.426057 265.485379 
L 222.895543 262.819621 
L 220.344686 257.756792 
L 218.304 253.12836 
L 216.263314 248.217398 
L 208.610743 227.728152 
L 205.549714 218.87423 
L 197.386971 194.540181 
L 194.325943 186.190311 
L 192.795429 182.444139 
L 190.754743 178.002982 
L 189.224229 175.217661 
L 187.693714 173.046802 
L 186.673371 171.846006 
L 185.653029 170.854318 
L 185.142857 170.44024 
L 184.122514 169.947 
L 183.102171 169.741844 
L 182.592 169.701966 
L 181.571657 169.944608 
L 181.061486 170.115872 
L 180.041143 170.713402 
L 178.510629 172.090815 
L 177.490286 173.328925 
L 176.469943 174.843052 
L 174.939429 177.510601 
L 173.408914 180.787775 
L 171.368229 185.954728 
L 169.327543 191.749097 
L 166.266514 201.029118 
L 161.674971 215.479233 
L 155.552914 234.181758 
L 153.512229 239.478512 
L 151.471543 244.066804 
L 149.941029 247.095804 
L 147.390171 250.960111 
L 145.859657 252.39727 
L 144.839314 252.972322 
L 144.329143 253.188277 
L 143.818971 253.166011 
L 143.3088 252.25989 
L 142.798629 253.347018 
L 142.288457 253.211772 
L 141.778286 252.92639 
L 141.268114 252.920654 
L 140.757943 252.74278 
L 140.247771 252.213765 
L 139.227429 251.492675 
L 138.717257 250.707543 
L 138.207086 250.45974 
L 136.676571 248.320379 
L 136.1664 247.079394 
L 135.656229 246.738564 
L 135.146057 245.987541 
L 134.635886 245.033054 
L 134.125714 244.633873 
L 133.615543 243.987788 
L 133.105371 238.489573 
L 132.5952 237.692691 
L 129.534171 231.429846 
L 128.513829 228.831334 
L 126.983314 223.833497 
L 125.962971 219.828492 
L 124.432457 212.75897 
L 122.391771 201.441061 
L 119.840914 187.302044 
L 118.820571 182.947531 
L 117.800229 179.661171 
L 116.779886 177.322867 
L 111.678171 167.390217 
L 110.657829 165.671886 
L 109.637486 163.347686 
L 109.127314 161.511227 
L 108.617143 159.21867 
L 108.106971 155.891137 
L 107.5968 151.270335 
L 107.086629 144.876745 
L 106.576457 136.644012 
L 104.535771 94.007358 
L 103.515429 72.78952 
L 102.495086 45.468649 
L 101.028666 -1 
L 101.028666 -1 
" clip-path="url(#p8f80d4c8d6)" style="fill: none; stroke: #d31f2c; stroke-width: 0.5; stroke-linecap: square"/>
   </g>
   <g id="line2d_18">
    <path d="M 363.702857 308.481029 
L 363.192686 308.273231 
L 350.4384 308.287262 
L 349.418057 308.229994 
L 343.296 307.955546 
L 342.275657 307.891597 
L 339.214629 307.678909 
L 336.663771 307.425608 
L 335.643429 307.332368 
L 331.051886 306.642773 
L 330.031543 306.341779 
L 328.501029 305.909003 
L 326.970514 305.760606 
L 325.44 305.912564 
L 324.929829 305.856538 
L 323.909486 305.936403 
L 322.378971 305.926867 
L 321.8688 305.983487 
L 321.358629 305.812256 
L 319.317943 305.728381 
L 316.256914 305.425144 
L 315.236571 305.308907 
L 311.665371 304.748629 
L 310.645029 304.674921 
L 308.094171 304.127833 
L 306.563657 303.808697 
L 302.482286 302.812875 
L 299.931429 302.0836 
L 297.890743 301.479304 
L 294.319543 299.968802 
L 291.258514 298.713857 
L 286.666971 296.426976 
L 280.544914 292.632312 
L 278.504229 291.162143 
L 276.973714 290.082485 
L 274.933029 288.622063 
L 271.872 286.182175 
L 269.831314 284.747279 
L 268.810971 283.915546 
L 266.260114 282.032946 
L 265.239771 281.240461 
L 256.056686 274.753403 
L 251.465143 271.941009 
L 249.424457 270.862162 
L 243.812571 268.268348 
L 242.282057 267.775032 
L 240.751543 267.239835 
L 240.241371 267.144868 
L 239.221029 266.772535 
L 235.649829 265.628752 
L 231.568457 263.972083 
L 229.0176 262.512084 
L 224.936229 258.907482 
L 223.405714 257.148748 
L 219.834514 252.150525 
L 216.773486 247.081298 
L 210.141257 234.392797 
L 207.080229 227.811829 
L 205.549714 224.391103 
L 202.998857 218.342553 
L 201.978514 215.913283 
L 196.8768 203.336658 
L 193.815771 196.200128 
L 190.244571 188.9168 
L 188.714057 186.30848 
L 187.693714 184.738666 
L 185.653029 182.303567 
L 184.632686 181.380282 
L 183.102171 180.58024 
L 181.061486 180.385805 
L 179.0208 180.984947 
L 176.980114 182.509093 
L 175.4496 184.204146 
L 174.429257 185.512906 
L 172.388571 188.96679 
L 170.347886 193.238757 
L 169.327543 195.532636 
L 164.736 206.694309 
L 156.063086 228.160611 
L 154.532571 231.365092 
L 151.981714 236.151904 
L 149.941029 239.283356 
L 147.390171 242.105318 
L 146.88 242.441278 
L 146.369829 242.577039 
L 145.859657 242.870768 
L 144.839314 242.960187 
L 144.329143 242.903885 
L 143.818971 242.592101 
L 143.3088 241.356694 
L 142.798629 242.152241 
L 142.288457 241.793533 
L 141.778286 241.136437 
L 141.268114 241.031956 
L 139.227429 238.14791 
L 138.717257 237.033507 
L 138.207086 236.43983 
L 136.676571 233.457311 
L 136.1664 231.845233 
L 135.656229 231.326872 
L 134.635886 229.053078 
L 134.125714 228.564808 
L 133.615543 227.774204 
L 133.105371 221.657391 
L 130.554514 216.361556 
L 129.024 212.94771 
L 128.003657 210.281462 
L 126.983314 207.244848 
L 125.4528 201.962648 
L 122.901943 191.394685 
L 120.861257 182.393528 
L 119.330743 176.713468 
L 117.800229 172.9211 
L 116.269714 170.63617 
L 114.229029 167.713145 
L 113.208686 165.785601 
L 110.657829 159.391852 
L 109.637486 155.107949 
L 109.127314 152.250762 
L 108.617143 148.46372 
L 108.106971 143.289827 
L 107.5968 136.373323 
L 107.086629 127.053799 
L 106.066286 100.804188 
L 104.535771 55.970714 
L 103.005257 13.090256 
L 102.614271 -1 
L 102.614271 -1 
" clip-path="url(#p8f80d4c8d6)" style="fill: none; stroke: #c71f38; stroke-width: 0.5; stroke-linecap: square"/>
   </g>
   <g id="line2d_19">
    <path d="M 363.702857 308.599149 
L 363.192686 308.402581 
L 361.152 308.364511 
L 360.641829 308.473231 
L 359.621486 308.418538 
L 358.601143 308.440952 
L 352.479086 308.415101 
L 351.458743 308.368548 
L 350.4384 308.363256 
L 349.418057 308.300668 
L 348.907886 308.322318 
L 348.397714 308.196296 
L 346.8672 308.199928 
L 344.316343 307.959396 
L 343.296 307.954682 
L 341.765486 307.835943 
L 340.234971 307.731007 
L 338.704457 307.566804 
L 338.194286 307.584 
L 336.1536 307.25017 
L 334.623086 307.090608 
L 330.541714 306.298643 
L 327.480686 305.52597 
L 326.460343 305.460283 
L 322.889143 305.518779 
L 317.787429 305.07274 
L 309.114514 303.624853 
L 308.094171 303.389984 
L 306.053486 302.883038 
L 305.033143 302.587741 
L 303.502629 302.172205 
L 299.421257 300.922239 
L 297.380571 300.113282 
L 296.360229 299.629321 
L 295.339886 299.206505 
L 289.728 296.565764 
L 283.095771 292.585663 
L 277.994057 288.776014 
L 272.892343 284.639143 
L 270.851657 282.96127 
L 270.341486 282.641636 
L 268.810971 281.327493 
L 267.790629 280.533191 
L 258.607543 273.336539 
L 257.5872 272.644059 
L 254.016 270.141278 
L 246.8736 266.145684 
L 245.853257 265.698611 
L 243.812571 264.705822 
L 240.751543 263.642341 
L 239.221029 263.135311 
L 238.200686 262.832594 
L 236.16 262.212905 
L 232.5888 260.991347 
L 231.058286 260.305726 
L 230.037943 259.762685 
L 227.997257 258.517979 
L 226.976914 257.797896 
L 225.4464 256.505375 
L 223.915886 255.014247 
L 221.8752 252.73662 
L 218.304 247.862668 
L 212.692114 238.642035 
L 211.1616 235.902679 
L 208.610743 231.106647 
L 201.978514 216.836773 
L 194.325943 199.147427 
L 190.244571 190.751096 
L 187.693714 186.56638 
L 185.653029 183.910159 
L 184.122514 182.62157 
L 182.081829 181.813267 
L 181.061486 181.644289 
L 179.0208 182.019969 
L 177.490286 182.82157 
L 176.469943 183.595189 
L 174.429257 185.750689 
L 173.408914 187.239543 
L 171.8784 189.693702 
L 169.327543 194.734609 
L 155.042743 226.439675 
L 152.491886 230.800493 
L 150.961371 233.091947 
L 149.941029 234.384931 
L 149.430857 234.836468 
L 148.920686 235.514515 
L 147.390171 236.675472 
L 146.88 236.924154 
L 145.859657 237.242474 
L 145.349486 237.171712 
L 144.839314 237.214492 
L 144.329143 237.062156 
L 143.818971 236.609719 
L 143.3088 235.242265 
L 142.798629 236.035037 
L 142.288457 235.624851 
L 141.778286 234.847552 
L 141.268114 234.561694 
L 139.227429 231.31167 
L 138.717257 230.087823 
L 138.207086 229.409181 
L 136.676571 226.128948 
L 136.1664 224.405575 
L 135.656229 223.904126 
L 135.146057 222.825504 
L 134.635886 221.482213 
L 134.125714 220.952828 
L 133.615543 220.18291 
L 133.105371 213.735484 
L 131.574857 210.594052 
L 129.024 205.140309 
L 126.983314 199.608039 
L 125.962971 196.307516 
L 124.432457 190.784339 
L 119.330743 171.39848 
L 118.820571 169.973323 
L 117.800229 167.902417 
L 115.759543 165.135469 
L 114.7392 163.883031 
L 113.208686 161.244958 
L 111.678171 157.577922 
L 110.657829 154.391899 
L 109.637486 149.688406 
L 109.127314 146.497863 
L 108.617143 142.277829 
L 108.106971 136.726141 
L 107.5968 129.111744 
L 107.086629 119.110479 
L 106.066286 90.505684 
L 104.0256 26.307592 
L 103.185581 -1 
L 103.185581 -1 
" clip-path="url(#p8f80d4c8d6)" style="fill: none; stroke: #ba1f45; stroke-width: 0.5; stroke-linecap: square"/>
   </g>
   <g id="line2d_20">
    <path d="M 363.702857 308.731168 
L 363.192686 308.489015 
L 360.641829 308.56425 
L 360.131657 308.494902 
L 359.621486 308.598894 
L 358.601143 308.55537 
L 356.050286 308.605662 
L 350.4384 308.437796 
L 348.907886 308.357549 
L 343.806171 308.076664 
L 342.785829 307.917889 
L 341.765486 307.871272 
L 340.234971 307.790753 
L 337.684114 307.553411 
L 335.133257 307.178903 
L 334.112914 307.026944 
L 332.072229 306.713331 
L 330.541714 306.315013 
L 328.501029 305.655475 
L 326.460343 305.528101 
L 324.929829 305.555271 
L 321.8688 305.485591 
L 321.358629 305.298934 
L 318.2976 305.008783 
L 316.767086 304.774832 
L 316.256914 304.761907 
L 314.216229 304.35526 
L 311.665371 303.937412 
L 310.134857 303.593857 
L 307.073829 302.801054 
L 301.461943 301.095405 
L 297.380571 299.627966 
L 295.850057 298.822778 
L 294.319543 298.131903 
L 290.238171 296.162592 
L 289.728 295.783018 
L 288.707657 295.293231 
L 287.687314 294.613969 
L 285.646629 293.297724 
L 279.524571 288.80372 
L 274.933029 284.925566 
L 269.831314 280.524955 
L 269.321143 280.010649 
L 268.3008 279.200677 
L 261.668571 273.689123 
L 260.138057 272.466722 
L 258.607543 271.261142 
L 251.975314 266.620182 
L 247.893943 264.256877 
L 245.853257 263.314293 
L 244.832914 262.690615 
L 243.812571 262.276332 
L 240.241371 260.996461 
L 237.180343 260.144202 
L 231.568457 258.315168 
L 229.527771 257.376874 
L 227.487086 256.148168 
L 226.466743 255.451577 
L 224.426057 253.769083 
L 222.385371 251.796467 
L 220.344686 249.364097 
L 218.814171 247.403985 
L 215.242971 242.251637 
L 209.120914 232.188539 
L 207.5904 229.364087 
L 206.059886 226.348185 
L 203.509029 221.153131 
L 191.775086 195.686999 
L 190.244571 192.814175 
L 188.714057 190.121842 
L 186.1632 186.580429 
L 185.142857 185.526604 
L 184.122514 184.720165 
L 183.102171 184.095287 
L 181.571657 183.706151 
L 180.551314 183.690065 
L 180.041143 183.666577 
L 178.000457 184.328584 
L 176.469943 185.290796 
L 174.939429 186.709872 
L 173.919086 187.872085 
L 172.388571 190.070385 
L 170.347886 193.590094 
L 160.654629 213.589609 
L 158.613943 218.059971 
L 154.532571 225.825264 
L 152.491886 229.00409 
L 149.941029 232.048812 
L 149.430857 232.384045 
L 148.410514 233.355173 
L 147.390171 233.969172 
L 146.369829 234.178485 
L 145.349486 234.157277 
L 144.839314 234.092826 
L 144.329143 233.805336 
L 143.818971 233.316828 
L 143.3088 231.878552 
L 142.798629 232.570683 
L 142.288457 232.048304 
L 141.778286 231.171387 
L 141.268114 230.768617 
L 140.757943 230.077385 
L 140.247771 228.961548 
L 139.7376 228.200625 
L 137.696914 224.05438 
L 136.676571 221.838427 
L 136.1664 219.897005 
L 135.656229 219.383231 
L 135.146057 218.347639 
L 134.635886 217.056023 
L 134.125714 216.546076 
L 133.615543 215.439933 
L 133.105371 208.919478 
L 131.574857 205.698844 
L 128.003657 197.742069 
L 126.473143 193.405518 
L 124.942629 188.317952 
L 119.330743 168.253312 
L 118.3104 165.92812 
L 116.779886 163.629735 
L 114.229029 160.77116 
L 113.208686 159.035342 
L 111.168 153.752573 
L 110.657829 151.96847 
L 109.637486 147.069444 
L 109.127314 143.587816 
L 108.617143 139.196134 
L 108.106971 133.252627 
L 107.5968 125.485166 
L 107.086629 114.849349 
L 106.066286 84.860769 
L 103.5082 -1 
L 103.5082 -1 
" clip-path="url(#p8f80d4c8d6)" style="fill: none; stroke: #ad1f52; stroke-width: 0.5; stroke-linecap: square"/>
   </g>
   <g id="line2d_21">
    <path d="M 363.702857 308.430594 
L 363.192686 308.247661 
L 361.662171 308.174513 
L 361.152 308.247956 
L 360.131657 308.234544 
L 352.989257 308.295789 
L 350.4384 308.192193 
L 348.907886 308.156004 
L 337.684114 307.556936 
L 336.663771 307.411249 
L 334.112914 307.1148 
L 332.072229 306.778011 
L 331.562057 306.786397 
L 330.031543 306.372555 
L 328.501029 305.889482 
L 326.460343 305.836109 
L 323.909486 305.946961 
L 321.8688 305.940259 
L 321.358629 305.810285 
L 318.2976 305.671274 
L 315.746743 305.380676 
L 313.706057 305.08378 
L 313.195886 305.053932 
L 312.685714 304.889689 
L 312.175543 304.904334 
L 311.1552 304.635578 
L 309.114514 304.355818 
L 307.073829 303.855369 
L 306.563657 303.782515 
L 306.053486 303.585745 
L 305.033143 303.346169 
L 303.502629 302.999502 
L 297.890743 301.18816 
L 291.258514 298.157678 
L 287.687314 296.112209 
L 286.666971 295.461978 
L 284.116114 293.701885 
L 283.095771 293.011754 
L 277.994057 288.809927 
L 275.4432 286.496757 
L 270.851657 282.108867 
L 267.280457 278.820503 
L 263.199086 274.95304 
L 261.1584 273.073008 
L 258.097371 270.325358 
L 252.485486 265.713389 
L 247.383771 262.201185 
L 245.343086 261.041464 
L 244.832914 260.624613 
L 241.771886 259.147999 
L 236.16 257.112451 
L 233.098971 256.096806 
L 229.0176 254.411653 
L 225.956571 252.596279 
L 224.426057 251.457535 
L 222.895543 250.21279 
L 218.814171 246.070583 
L 213.202286 238.963462 
L 211.671771 236.813739 
L 208.610743 232.200735 
L 207.080229 229.724549 
L 200.958171 218.095014 
L 197.386971 210.754241 
L 195.346286 206.419845 
L 190.244571 196.125493 
L 188.203886 192.559164 
L 186.673371 190.335222 
L 185.142857 188.423315 
L 184.632686 187.845837 
L 183.102171 186.6765 
L 182.592 186.38092 
L 180.551314 185.756069 
L 179.530971 185.63613 
L 177.490286 185.845806 
L 175.959771 186.585679 
L 173.919086 188.078234 
L 173.408914 188.549837 
L 170.347886 192.622874 
L 168.817371 195.109721 
L 163.205486 204.573208 
L 156.573257 215.638952 
L 154.532571 218.274533 
L 153.002057 219.944876 
L 151.471543 221.199522 
L 150.4512 221.91853 
L 149.941029 222.148245 
L 149.430857 222.22828 
L 148.920686 222.525537 
L 147.900343 222.716807 
L 146.88 222.587133 
L 145.349486 221.73652 
L 144.329143 220.805746 
L 143.818971 220.017489 
L 143.3088 218.125918 
L 142.798629 218.62993 
L 141.778286 216.932861 
L 141.268114 215.549896 
L 140.757943 214.847898 
L 136.676571 204.40801 
L 136.1664 202.360065 
L 135.656229 201.582348 
L 134.635886 199.052959 
L 134.125714 198.50618 
L 133.615543 197.505325 
L 133.105371 190.004747 
L 130.044343 183.212861 
L 129.534171 182.32886 
L 126.473143 175.47666 
L 123.412114 167.577244 
L 122.391771 164.845588 
L 119.840914 159.57268 
L 118.820571 158.351436 
L 118.3104 158.033624 
L 117.290057 157.725237 
L 115.759543 157.878036 
L 115.249371 157.838263 
L 114.7392 157.64051 
L 113.718857 156.892838 
L 113.208686 156.208308 
L 112.188343 154.242155 
L 111.168 151.414245 
L 110.657829 149.551681 
L 110.147657 147.094389 
L 109.637486 144.067894 
L 109.127314 140.109878 
L 108.617143 135.225419 
L 108.106971 128.44601 
L 107.5968 119.459341 
L 107.086629 107.245673 
L 106.066286 72.713075 
L 104.275809 -1 
L 104.275809 -1 
" clip-path="url(#p8f80d4c8d6)" style="fill: none; stroke: #a01f5f; stroke-width: 0.5; stroke-linecap: square"/>
   </g>
   <g id="line2d_22">
    <path d="M 363.702857 308.317021 
L 363.192686 308.132504 
L 361.152 308.140461 
L 359.621486 308.196582 
L 356.050286 308.265089 
L 352.479086 308.240839 
L 351.458743 308.187038 
L 349.928229 308.136386 
L 345.846857 308.00106 
L 343.296 307.936278 
L 339.7248 307.664231 
L 339.214629 307.7189 
L 338.194286 307.584 
L 331.562057 306.897319 
L 331.051886 306.729825 
L 330.541714 306.685018 
L 329.0112 306.120058 
L 328.501029 306.004076 
L 324.929829 306.096063 
L 323.909486 306.132991 
L 322.378971 306.153375 
L 321.8688 306.220282 
L 320.848457 306.056735 
L 315.746743 305.823045 
L 314.7264 305.719377 
L 312.685714 305.448938 
L 311.665371 305.366178 
L 310.645029 305.229223 
L 309.624686 305.048683 
L 307.584 304.672762 
L 307.073829 304.636426 
L 306.053486 304.339851 
L 305.033143 304.108694 
L 299.931429 302.839292 
L 298.400914 302.244642 
L 297.890743 302.129244 
L 295.850057 301.209226 
L 291.768686 299.402026 
L 287.687314 297.074898 
L 286.1568 296.069694 
L 283.605943 294.184792 
L 283.095771 293.774628 
L 282.5856 293.515953 
L 276.973714 288.539789 
L 271.361829 282.959475 
L 267.280457 278.788313 
L 266.770286 278.340189 
L 265.749943 277.183931 
L 263.199086 274.591113 
L 257.5872 268.937149 
L 251.975314 263.728509 
L 249.934629 262.064329 
L 248.404114 260.800821 
L 246.8736 259.74344 
L 245.343086 258.663086 
L 244.322743 257.942749 
L 242.792229 257.055059 
L 240.751543 255.997404 
L 237.180343 254.437127 
L 236.16 254.068551 
L 235.139657 253.664532 
L 234.119314 253.288971 
L 233.609143 253.049714 
L 232.5888 252.746574 
L 231.568457 252.368647 
L 227.487086 250.622565 
L 225.4464 249.551325 
L 223.405714 248.294043 
L 221.365029 246.762006 
L 216.773486 242.722793 
L 215.242971 241.182389 
L 213.202286 239.030596 
L 210.651429 236.034806 
L 209.631086 234.696802 
L 208.100571 232.66255 
L 205.039543 228.085466 
L 200.958171 221.031694 
L 194.325943 208.300564 
L 190.244571 200.249922 
L 188.203886 196.608205 
L 186.673371 194.227484 
L 185.653029 192.693808 
L 183.612343 190.509493 
L 181.571657 189.191692 
L 180.551314 188.719442 
L 178.510629 188.174124 
L 178.000457 188.119269 
L 175.4496 188.577019 
L 174.429257 189.014704 
L 173.919086 189.248173 
L 171.8784 190.950457 
L 169.837714 193.284967 
L 162.695314 202.581333 
L 162.185143 203.130346 
L 161.1648 204.460961 
L 157.083429 209.284857 
L 155.552914 210.592374 
L 154.532571 211.245967 
L 153.002057 212.015012 
L 151.981714 212.303633 
L 150.4512 212.360152 
L 149.941029 212.314075 
L 149.430857 212.047548 
L 148.920686 211.965789 
L 147.900343 211.44682 
L 146.88 210.64516 
L 145.349486 208.76984 
L 144.329143 207.237724 
L 143.818971 206.078155 
L 143.3088 203.64798 
L 142.798629 204.011777 
L 140.757943 198.80357 
L 139.7376 195.625531 
L 136.676571 185.767007 
L 136.1664 183.575144 
L 135.656229 182.623361 
L 134.635886 179.631391 
L 134.125714 179.113883 
L 133.615543 178.372278 
L 133.105371 169.513122 
L 131.064686 164.607526 
L 130.044343 162.512022 
L 129.534171 161.683325 
L 127.493486 157.733385 
L 124.432457 152.083489 
L 122.391771 149.235422 
L 121.371429 148.181478 
L 120.351086 147.444248 
L 119.330743 147.549912 
L 118.820571 147.720886 
L 118.3104 148.038261 
L 116.269714 150.365119 
L 115.759543 150.914971 
L 114.7392 151.548321 
L 114.229029 151.682391 
L 113.208686 151.219618 
L 112.698514 150.551412 
L 112.188343 149.634339 
L 111.678171 148.42515 
L 111.168 146.792287 
L 110.657829 144.785872 
L 110.147657 142.104642 
L 109.637486 138.742834 
L 109.127314 134.402411 
L 108.617143 128.727638 
L 108.106971 121.099996 
L 107.5968 110.805928 
L 107.086629 96.991992 
L 106.576457 79.38327 
L 105.556114 33.607926 
L 104.865567 -1 
L 104.865567 -1 
" clip-path="url(#p8f80d4c8d6)" style="fill: none; stroke: #931f6c; stroke-width: 0.5; stroke-linecap: square"/>
   </g>
   <g id="line2d_23">
    <path d="M 363.702857 308.144563 
L 363.192686 307.917582 
L 350.948571 308.043988 
L 347.377371 307.936127 
L 346.357029 307.92765 
L 345.336686 307.872123 
L 344.316343 307.856147 
L 341.255314 307.737405 
L 339.214629 307.638601 
L 333.092571 307.170247 
L 332.072229 307.027513 
L 329.521371 306.417367 
L 329.0112 306.222146 
L 326.460343 306.167288 
L 323.399314 306.406165 
L 322.378971 306.454013 
L 321.8688 306.492014 
L 320.848457 306.4001 
L 319.317943 306.335695 
L 316.256914 306.240888 
L 314.216229 306.069362 
L 309.114514 305.46828 
L 307.584 305.184252 
L 306.053486 304.929002 
L 299.421257 303.265837 
L 298.911086 303.030945 
L 298.400914 302.987859 
L 297.380571 302.560025 
L 296.360229 302.006789 
L 294.319543 301.257994 
L 291.768686 300.08736 
L 286.666971 297.084856 
L 281.565257 293.280784 
L 279.0144 290.933288 
L 277.483886 289.464178 
L 275.4432 287.415826 
L 263.709257 274.831044 
L 262.178743 273.130016 
L 258.097371 268.680026 
L 256.566857 267.124326 
L 255.546514 266.018752 
L 250.4448 261.100361 
L 246.363429 257.669678 
L 245.343086 256.921534 
L 243.812571 255.770309 
L 238.710857 252.925457 
L 232.5888 250.494463 
L 230.037943 249.636752 
L 227.487086 248.622917 
L 226.466743 248.213644 
L 225.4464 247.820866 
L 224.426057 247.314871 
L 222.895543 246.522945 
L 222.385371 246.152823 
L 221.8752 245.980752 
L 220.344686 244.981748 
L 219.324343 244.309637 
L 217.283657 242.862062 
L 216.263314 242.0575 
L 215.753143 241.734857 
L 214.222629 240.383668 
L 213.202286 239.58319 
L 209.120914 235.541876 
L 206.059886 231.741464 
L 204.0192 228.89203 
L 201.468343 224.929566 
L 197.897143 218.808021 
L 190.754743 205.468695 
L 189.224229 202.577122 
L 187.693714 199.941996 
L 186.1632 197.483442 
L 184.632686 195.499709 
L 182.592 193.530832 
L 180.041143 192.016442 
L 176.980114 191.160409 
L 175.959771 191.178465 
L 174.429257 191.435871 
L 172.388571 192.377595 
L 169.327543 195.072426 
L 164.736 199.870223 
L 163.205486 201.235515 
L 162.695314 201.779935 
L 161.1648 202.885661 
L 160.144457 203.806025 
L 157.5936 205.649371 
L 156.063086 206.441614 
L 154.532571 206.664752 
L 153.002057 206.508741 
L 151.981714 206.101609 
L 150.4512 204.982156 
L 149.430857 204.045256 
L 147.900343 202.297106 
L 146.88 200.75164 
L 146.369829 199.642246 
L 145.859657 198.835292 
L 144.839314 196.638724 
L 143.818971 194.048037 
L 143.3088 190.962629 
L 142.798629 190.961902 
L 142.288457 189.419436 
L 141.778286 187.514455 
L 140.757943 184.375727 
L 138.717257 176.491194 
L 137.696914 172.936748 
L 136.1664 166.397153 
L 135.656229 165.551801 
L 134.635886 162.391685 
L 134.125714 161.482371 
L 133.615543 160.847277 
L 133.105371 150.677325 
L 132.5952 149.399323 
L 132.085029 147.751643 
L 129.534171 142.417839 
L 126.473143 137.618345 
L 125.962971 136.896157 
L 123.922286 134.954496 
L 123.412114 134.644906 
L 122.901943 134.481836 
L 121.371429 134.538343 
L 120.861257 134.962506 
L 120.351086 135.188453 
L 119.840914 135.659289 
L 118.3104 138.23089 
L 116.779886 141.447023 
L 115.759543 143.581493 
L 114.7392 145.022101 
L 114.229029 145.548492 
L 113.718857 145.778563 
L 113.208686 145.608739 
L 112.698514 145.157929 
L 112.188343 144.428075 
L 111.678171 143.247648 
L 111.168 141.660981 
L 110.657829 139.522797 
L 110.147657 136.713723 
L 109.637486 133.096294 
L 109.127314 128.245275 
L 108.617143 122.055902 
L 108.106971 113.761085 
L 107.5968 102.519622 
L 107.086629 87.398183 
L 106.576457 67.891009 
L 105.556114 16.429367 
L 105.255175 -1 
L 105.255175 -1 
" clip-path="url(#p8f80d4c8d6)" style="fill: none; stroke: #861f79; stroke-width: 0.5; stroke-linecap: square"/>
   </g>
   <g id="line2d_24">
    <path d="M 363.702857 308.102758 
L 363.192686 307.889965 
L 349.418057 308.003756 
L 347.887543 307.896707 
L 347.377371 307.972171 
L 345.846857 307.860046 
L 341.255314 307.744032 
L 339.7248 307.649649 
L 338.194286 307.584 
L 331.562057 306.973724 
L 330.031543 306.607357 
L 329.0112 306.305585 
L 327.990857 306.159104 
L 326.970514 306.152002 
L 326.460343 306.163154 
L 325.950171 306.330402 
L 324.929829 306.381704 
L 322.889143 306.494396 
L 321.8688 306.582853 
L 320.848457 306.456183 
L 317.787429 306.43108 
L 317.277257 306.35903 
L 316.256914 306.356634 
L 314.216229 306.207766 
L 313.195886 306.073263 
L 311.665371 305.88048 
L 305.543314 304.975636 
L 304.522971 304.701037 
L 304.0128 304.549008 
L 303.502629 304.524726 
L 302.482286 304.172583 
L 300.4416 303.689763 
L 298.911086 303.189248 
L 297.380571 302.580483 
L 296.360229 302.09213 
L 293.2992 300.852158 
L 288.707657 298.310137 
L 287.177143 297.267611 
L 286.1568 296.540462 
L 282.075429 293.254652 
L 280.034743 291.400782 
L 272.382171 283.145657 
L 270.341486 280.779324 
L 254.526171 262.009423 
L 248.914286 256.090403 
L 243.3024 251.212512 
L 239.7312 248.913505 
L 237.180343 247.55652 
L 236.670171 247.407977 
L 235.649829 246.899199 
L 230.037943 244.911481 
L 222.385371 242.454235 
L 217.283657 240.36616 
L 215.753143 239.555406 
L 210.651429 236.409922 
L 208.610743 234.846268 
L 203.509029 229.491045 
L 202.488686 228.1173 
L 199.937829 224.621575 
L 198.407314 222.304413 
L 196.366629 219.135706 
L 193.815771 214.832577 
L 186.1632 201.58306 
L 184.632686 199.614124 
L 182.081829 197.18424 
L 179.530971 195.582254 
L 177.490286 194.632797 
L 175.4496 194.336583 
L 174.939429 194.250746 
L 173.408914 194.428778 
L 170.858057 195.613382 
L 168.3072 197.504457 
L 164.736 199.779467 
L 162.695314 200.771374 
L 159.124114 201.629296 
L 157.083429 201.516461 
L 155.552914 200.824087 
L 155.042743 200.490327 
L 153.512229 198.930368 
L 151.981714 196.803683 
L 150.961371 195.063186 
L 149.941029 193.010838 
L 146.88 185.543728 
L 144.839314 179.037177 
L 143.818971 174.992955 
L 143.3088 171.311961 
L 142.798629 170.736399 
L 141.268114 164.153172 
L 136.1664 139.944196 
L 135.656229 138.643196 
L 134.635886 135.213606 
L 134.125714 134.904703 
L 133.615543 134.080434 
L 133.105371 121.382884 
L 131.064686 115.584933 
L 130.044343 113.335018 
L 129.024 111.603099 
L 128.513829 110.790844 
L 126.473143 108.673941 
L 125.4528 108.137518 
L 124.942629 107.929414 
L 123.922286 108.220368 
L 123.412114 108.585037 
L 121.8816 110.281862 
L 120.351086 113.354144 
L 118.820571 117.625556 
L 116.779886 124.473195 
L 115.759543 127.629927 
L 115.249371 129.11397 
L 114.229029 131.103215 
L 113.718857 131.670502 
L 113.208686 131.862624 
L 112.698514 131.715733 
L 112.188343 131.000829 
L 111.678171 129.954418 
L 111.168 128.379357 
L 110.657829 125.975637 
L 110.147657 122.955249 
L 109.637486 118.891715 
L 109.127314 113.555374 
L 108.617143 106.54793 
L 108.106971 97.100563 
L 107.5968 84.489947 
L 107.086629 67.469621 
L 106.576457 45.380483 
L 105.757529 -1 
L 105.757529 -1 
" clip-path="url(#p8f80d4c8d6)" style="fill: none; stroke: #791f86; stroke-width: 0.5; stroke-linecap: square"/>
   </g>
   <g id="line2d_25">
    <path d="M 363.702857 308.221191 
L 363.192686 308.057833 
L 361.662171 308.065688 
L 359.111314 308.068211 
L 358.090971 308.225388 
L 355.540114 308.180893 
L 355.029943 308.256947 
L 354.519771 308.172838 
L 352.989257 308.173901 
L 351.458743 308.161077 
L 349.418057 308.056571 
L 348.907886 308.102681 
L 348.397714 308.012714 
L 347.887543 308.09745 
L 346.8672 308.031211 
L 345.846857 307.967451 
L 343.296 307.908687 
L 342.275657 307.824385 
L 333.092571 307.135079 
L 330.031543 306.539913 
L 327.990857 306.113501 
L 326.970514 306.123285 
L 325.950171 306.195129 
L 323.909486 306.34447 
L 321.8688 306.470678 
L 321.358629 306.282249 
L 319.317943 306.278512 
L 315.236571 306.098128 
L 313.706057 305.852022 
L 312.685714 305.815505 
L 308.094171 305.172089 
L 306.053486 304.724879 
L 305.033143 304.545224 
L 304.0128 304.245637 
L 303.502629 304.187366 
L 302.992457 303.969997 
L 301.972114 303.774546 
L 300.951771 303.466767 
L 298.911086 302.810734 
L 297.890743 302.486689 
L 295.339886 301.222141 
L 291.768686 299.514482 
L 288.707657 297.574468 
L 286.666971 296.157041 
L 285.646629 295.295313 
L 283.605943 293.558304 
L 282.5856 292.631529 
L 281.565257 291.692835 
L 280.034743 290.16518 
L 274.422857 283.739761 
L 267.790629 275.320618 
L 264.219429 270.532156 
L 257.077029 261.080077 
L 255.546514 259.076986 
L 253.505829 256.523491 
L 249.424457 251.646741 
L 243.812571 246.034317 
L 241.261714 243.940756 
L 238.200686 241.99776 
L 237.180343 241.433606 
L 235.649829 240.624504 
L 231.058286 238.9283 
L 228.507429 238.220949 
L 219.834514 236.361187 
L 219.324343 236.16124 
L 218.304 235.964484 
L 216.773486 235.538913 
L 215.753143 235.347928 
L 211.671771 233.934706 
L 209.120914 232.680081 
L 207.080229 231.314795 
L 206.059886 230.535459 
L 205.039543 229.724143 
L 200.448 225.146907 
L 195.346286 218.5529 
L 193.815771 216.400275 
L 187.183543 205.932973 
L 185.142857 203.208058 
L 182.592 200.800148 
L 179.530971 198.835925 
L 178.510629 198.292344 
L 176.980114 197.834713 
L 175.4496 197.294655 
L 173.408914 197.336517 
L 172.388571 197.50067 
L 170.858057 198.073482 
L 167.286857 199.753765 
L 165.246171 200.456039 
L 164.736 200.400815 
L 163.715657 200.529868 
L 162.695314 200.396995 
L 161.1648 200.043753 
L 160.654629 199.897648 
L 160.144457 199.585229 
L 159.634286 199.417653 
L 158.613943 198.709449 
L 157.083429 197.279759 
L 156.063086 196.042878 
L 154.532571 193.355951 
L 153.002057 190.022879 
L 151.981714 187.23966 
L 150.961371 184.378124 
L 149.941029 181.005848 
L 149.430857 178.954386 
L 148.410514 175.470326 
L 145.859657 164.767771 
L 144.329143 157.384344 
L 143.818971 154.507396 
L 143.3088 149.83433 
L 142.798629 148.827561 
L 140.757943 137.195654 
L 138.717257 125.050098 
L 137.186743 116.89021 
L 135.656229 109.164239 
L 135.146057 107.652241 
L 134.635886 105.645812 
L 134.125714 105.398677 
L 133.615543 104.935322 
L 133.105371 88.71205 
L 131.064686 82.058199 
L 130.044343 79.595408 
L 129.024 78.030829 
L 128.003657 76.741579 
L 125.962971 75.826555 
L 125.4528 76.044174 
L 124.942629 76.542887 
L 124.432457 76.886183 
L 123.922286 77.570052 
L 122.901943 79.424051 
L 121.8816 81.980979 
L 120.351086 87.158758 
L 118.820571 93.360728 
L 115.759543 107.186613 
L 114.7392 110.725739 
L 114.229029 112.072408 
L 113.718857 113.00677 
L 113.208686 113.621747 
L 112.698514 113.808569 
L 112.188343 113.286421 
L 111.678171 112.245179 
L 111.168 110.646154 
L 110.657829 108.234464 
L 110.147657 104.952902 
L 109.637486 100.465403 
L 109.127314 94.785647 
L 108.617143 87.111438 
L 108.106971 76.939108 
L 107.5968 63.230902 
L 107.086629 44.441726 
L 106.216694 -1 
L 106.216694 -1 
" clip-path="url(#p8f80d4c8d6)" style="fill: none; stroke: #6c1f93; stroke-width: 0.5; stroke-linecap: square"/>
   </g>
   <g id="line2d_26">
    <path d="M 363.702857 308.193994 
L 362.682514 307.973769 
L 360.131657 308.122107 
L 359.621486 308.02856 
L 359.111314 308.150566 
L 358.090971 308.11467 
L 356.560457 308.157243 
L 355.540114 308.175276 
L 355.029943 308.222202 
L 354.0096 308.10726 
L 352.989257 308.13371 
L 344.316343 307.885445 
L 342.785829 307.833019 
L 340.234971 307.699855 
L 338.704457 307.619852 
L 331.051886 306.992114 
L 330.031543 306.692701 
L 328.501029 306.281513 
L 327.480686 306.250034 
L 321.8688 306.75876 
L 321.358629 306.570285 
L 314.7264 306.363653 
L 311.665371 306.031717 
L 304.522971 304.894061 
L 301.972114 304.204383 
L 300.4416 303.798225 
L 299.931429 303.556729 
L 299.421257 303.457054 
L 298.911086 303.230024 
L 298.400914 303.127103 
L 292.278857 300.332534 
L 290.238171 299.167032 
L 286.1568 296.219843 
L 283.605943 294.023706 
L 280.544914 291.074433 
L 277.994057 288.196511 
L 275.953371 285.795793 
L 272.892343 281.843009 
L 270.341486 278.491265 
L 264.219429 270.023567 
L 262.178743 267.128396 
L 253.505829 255.047125 
L 246.8736 246.93001 
L 245.853257 245.858863 
L 244.832914 244.652409 
L 240.241371 240.700547 
L 238.200686 239.348532 
L 236.670171 238.428696 
L 233.098971 236.77972 
L 232.078629 236.490995 
L 230.548114 235.961365 
L 226.466743 235.070444 
L 224.936229 234.832858 
L 222.385371 234.552857 
L 218.304 234.185762 
L 217.793829 234.164289 
L 216.773486 234.006223 
L 215.242971 233.858367 
L 212.692114 233.508865 
L 211.1616 233.132571 
L 209.631086 232.712399 
L 208.610743 232.346831 
L 205.549714 230.731977 
L 203.509029 229.423151 
L 201.978514 228.136439 
L 200.448 226.840441 
L 195.856457 222.03895 
L 190.754743 215.151023 
L 188.714057 212.165814 
L 185.142857 207.636255 
L 183.612343 206.188165 
L 181.061486 204.440776 
L 177.490286 202.74826 
L 176.469943 202.452951 
L 174.429257 202.064318 
L 173.408914 202.071429 
L 172.898743 202.048582 
L 171.8784 202.321241 
L 169.327543 203.240456 
L 168.3072 203.572589 
L 167.286857 203.866608 
L 165.756343 204.176325 
L 164.736 204.158289 
L 164.225829 204.1272 
L 161.674971 203.119531 
L 161.1648 202.636641 
L 160.654629 202.371344 
L 159.634286 201.50054 
L 158.613943 200.443655 
L 157.083429 198.334325 
L 155.552914 195.318186 
L 154.532571 192.841424 
L 153.002057 188.477711 
L 151.471543 183.097354 
L 149.941029 177.016302 
L 146.369829 159.934128 
L 144.329143 148.451055 
L 143.818971 145.196894 
L 143.3088 139.911997 
L 142.798629 138.440565 
L 140.757943 125.245334 
L 138.717257 111.428821 
L 136.676571 99.242554 
L 136.1664 95.759961 
L 135.656229 94.177008 
L 135.146057 91.830615 
L 134.635886 90.252289 
L 134.125714 89.904816 
L 133.615543 89.763159 
L 133.105371 70.823511 
L 131.064686 63.502022 
L 130.044343 60.905599 
L 129.534171 59.936592 
L 129.024 59.330392 
L 128.513829 58.501205 
L 128.003657 58.04434 
L 127.493486 57.904786 
L 126.983314 57.616106 
L 125.962971 57.855245 
L 124.942629 58.795832 
L 123.922286 60.711665 
L 122.901943 63.398129 
L 121.8816 66.986109 
L 120.351086 73.674036 
L 118.820571 81.656632 
L 117.290057 90.141827 
L 115.759543 98.37748 
L 114.7392 102.746785 
L 113.718857 105.783709 
L 113.208686 106.502526 
L 112.698514 106.896896 
L 112.188343 106.489083 
L 111.678171 105.543394 
L 111.168 103.824257 
L 110.657829 101.204319 
L 110.147657 97.722321 
L 109.637486 93.067562 
L 109.127314 86.760549 
L 108.617143 78.587667 
L 108.106971 67.525215 
L 107.5968 52.786064 
L 107.086629 32.735766 
L 106.457498 -1 
L 106.457498 -1 
" clip-path="url(#p8f80d4c8d6)" style="fill: none; stroke: #5f1fa0; stroke-width: 0.5; stroke-linecap: square"/>
   </g>
   <g id="line2d_27">
    <path d="M 363.702857 308.116726 
L 363.192686 307.881678 
L 357.5808 308.029368 
L 355.540114 308.100287 
L 354.0096 308.022141 
L 350.4384 308.026481 
L 348.907886 307.955025 
L 346.8672 307.896903 
L 343.296 307.825736 
L 341.765486 307.718458 
L 340.234971 307.697596 
L 338.704457 307.568661 
L 337.684114 307.547265 
L 334.623086 307.270141 
L 333.602743 307.193932 
L 330.031543 306.626011 
L 329.0112 306.35592 
L 326.970514 306.191157 
L 324.929829 306.466905 
L 324.419657 306.374775 
L 323.399314 306.545497 
L 321.8688 306.698794 
L 321.358629 306.525064 
L 320.338286 306.600725 
L 319.828114 306.515192 
L 318.807771 306.541119 
L 317.787429 306.519653 
L 314.7264 306.409568 
L 314.216229 306.301906 
L 313.706057 306.32876 
L 312.175543 306.12834 
L 310.645029 305.971793 
L 309.114514 305.782581 
L 308.604343 305.64345 
L 308.094171 305.651102 
L 299.931429 303.737408 
L 294.319543 301.431868 
L 293.2992 300.900027 
L 291.768686 300.104624 
L 288.707657 298.171593 
L 287.687314 297.438251 
L 285.646629 295.829994 
L 280.034743 290.44273 
L 277.483886 287.496883 
L 272.892343 281.551383 
L 270.851657 278.728404 
L 268.3008 275.203037 
L 265.239771 270.722755 
L 262.688914 267.012622 
L 260.648229 263.994355 
L 257.5872 259.454616 
L 254.016 254.2161 
L 248.404114 246.717842 
L 243.812571 241.354748 
L 240.751543 238.47628 
L 237.180343 235.873789 
L 234.629486 234.436194 
L 230.548114 232.880934 
L 228.507429 232.403092 
L 226.976914 232.159724 
L 222.385371 231.784797 
L 221.365029 231.775948 
L 220.854857 231.700712 
L 219.834514 231.748435 
L 214.222629 231.857655 
L 210.141257 231.579272 
L 208.100571 230.995086 
L 207.080229 230.697861 
L 206.570057 230.56319 
L 202.488686 228.421007 
L 200.448 227.033092 
L 196.366629 223.462685 
L 194.325943 221.324878 
L 192.795429 219.539407 
L 188.203886 213.482993 
L 185.653029 210.391915 
L 185.142857 209.824561 
L 181.571657 207.24513 
L 179.0208 205.955827 
L 178.000457 205.474099 
L 174.429257 204.469722 
L 173.408914 204.412006 
L 169.837714 205.052236 
L 168.817371 205.417189 
L 166.776686 205.6901 
L 165.246171 205.556407 
L 164.225829 205.201209 
L 163.715657 204.993839 
L 161.674971 203.541883 
L 159.124114 200.507741 
L 158.103771 198.850788 
L 157.083429 196.852965 
L 156.063086 194.467486 
L 155.042743 191.592931 
L 153.512229 186.483171 
L 151.981714 180.32145 
L 150.4512 173.314416 
L 148.410514 162.684811 
L 146.88 154.00025 
L 144.329143 137.59732 
L 143.818971 133.969144 
L 143.3088 128.206869 
L 142.798629 126.418179 
L 136.1664 79.494886 
L 135.656229 77.939902 
L 135.146057 75.644821 
L 134.635886 74.323425 
L 134.125714 74.066099 
L 133.615543 74.143344 
L 133.105371 52.554796 
L 131.574857 46.255846 
L 131.064686 44.327351 
L 130.044343 41.617121 
L 129.024 39.878964 
L 128.003657 38.829275 
L 127.493486 38.561295 
L 126.983314 38.551805 
L 126.473143 38.656359 
L 125.962971 38.984269 
L 124.942629 40.430125 
L 124.432457 41.396355 
L 123.922286 42.746011 
L 122.391771 48.093032 
L 121.371429 52.866316 
L 119.330743 64.223581 
L 115.759543 86.337224 
L 114.7392 91.252601 
L 113.718857 94.744143 
L 113.208686 95.53587 
L 112.698514 96.083779 
L 112.188343 95.635004 
L 111.678171 94.509088 
L 111.168 92.74131 
L 110.657829 89.883026 
L 110.147657 86.139828 
L 109.637486 80.858764 
L 109.127314 74.172979 
L 108.617143 65.255426 
L 108.106971 53.519308 
L 107.5968 37.535055 
L 106.77172 -1 
L 106.77172 -1 
" clip-path="url(#p8f80d4c8d6)" style="fill: none; stroke: #521fad; stroke-width: 0.5; stroke-linecap: square"/>
   </g>
   <g id="line2d_28">
    <path d="M 363.702857 308.26104 
L 363.192686 308.012986 
L 360.131657 308.052005 
L 358.601143 308.138455 
L 352.989257 308.202282 
L 350.948571 308.089036 
L 346.357029 307.952627 
L 339.214629 307.695093 
L 338.194286 307.584 
L 336.1536 307.399185 
L 330.541714 306.742762 
L 329.521371 306.410926 
L 328.501029 306.243555 
L 327.480686 306.167385 
L 321.8688 306.496274 
L 321.358629 306.329854 
L 319.828114 306.388161 
L 312.685714 305.994526 
L 311.1552 305.779062 
L 310.645029 305.799407 
L 309.114514 305.554415 
L 307.073829 305.183957 
L 305.033143 304.778782 
L 302.992457 304.344322 
L 301.461943 303.832061 
L 300.4416 303.579228 
L 297.380571 302.466201 
L 296.8704 302.093611 
L 294.829714 301.268535 
L 293.809371 300.74247 
L 289.728 298.357736 
L 287.687314 296.837027 
L 285.136457 294.800276 
L 283.605943 293.338605 
L 281.055086 290.75104 
L 278.504229 287.777351 
L 275.953371 284.490418 
L 272.382171 279.516728 
L 264.219429 267.20201 
L 259.627886 259.936836 
L 255.546514 253.455036 
L 252.485486 248.75833 
L 249.424457 244.325831 
L 245.343086 238.909204 
L 241.771886 234.896645 
L 241.261714 234.517932 
L 240.241371 233.496477 
L 237.180343 231.083809 
L 235.649829 230.057265 
L 233.098971 228.714641 
L 231.568457 228.085613 
L 229.527771 227.447121 
L 225.4464 226.835739 
L 220.854857 226.965493 
L 213.712457 227.877497 
L 212.181943 228.03598 
L 209.631086 228.105737 
L 208.610743 228.091072 
L 205.039543 227.341682 
L 202.998857 226.59935 
L 199.937829 225.09854 
L 198.407314 224.221729 
L 195.856457 222.424541 
L 193.815771 220.680475 
L 189.7344 216.242186 
L 187.693714 213.911132 
L 185.653029 211.838112 
L 183.102171 210.008289 
L 179.0208 208.190711 
L 177.490286 207.746906 
L 176.469943 207.508521 
L 174.429257 206.965509 
L 172.898743 207.026483 
L 172.388571 207.041743 
L 170.858057 207.34366 
L 167.286857 207.86405 
L 166.266514 207.706618 
L 165.756343 207.612572 
L 163.715657 206.513171 
L 162.185143 205.09126 
L 161.674971 204.490075 
L 160.654629 203.05291 
L 160.144457 202.371764 
L 158.613943 199.479668 
L 157.5936 197.171845 
L 156.573257 194.455852 
L 155.042743 189.512467 
L 153.512229 183.445624 
L 151.471543 173.529152 
L 149.430857 161.733554 
L 147.900343 152.437916 
L 145.859657 138.358445 
L 144.329143 127.248355 
L 143.818971 123.084814 
L 143.3088 116.597139 
L 142.798629 114.653232 
L 138.207086 77.791582 
L 136.1664 63.454335 
L 134.635886 57.747813 
L 134.125714 57.670647 
L 133.615543 58.692181 
L 133.105371 33.327298 
L 131.064686 24.533703 
L 130.044343 21.438805 
L 129.024 19.665593 
L 128.513829 19.055084 
L 128.003657 18.64665 
L 126.983314 18.280196 
L 126.473143 18.489859 
L 125.4528 19.765045 
L 124.942629 20.793294 
L 123.922286 23.494509 
L 122.901943 27.688214 
L 122.391771 29.752272 
L 121.371429 35.23253 
L 119.840914 44.572819 
L 115.759543 72.549802 
L 114.7392 78.070956 
L 114.229029 80.259844 
L 113.718857 81.919355 
L 113.208686 82.993126 
L 112.698514 83.541723 
L 112.188343 82.928544 
L 111.678171 81.850648 
L 111.168 79.84652 
L 110.657829 76.822073 
L 110.147657 72.600744 
L 109.637486 66.964858 
L 109.127314 59.704727 
L 108.617143 50.278733 
L 108.106971 37.627301 
L 107.5968 20.764823 
L 107.111185 -1 
L 107.111185 -1 
" clip-path="url(#p8f80d4c8d6)" style="fill: none; stroke: #451fba; stroke-width: 0.5; stroke-linecap: square"/>
   </g>
   <g id="line2d_29">
    <path d="M 363.702857 308.094945 
L 363.192686 307.909715 
L 362.172343 307.887788 
L 359.111314 307.969085 
L 355.540114 308.121571 
L 351.968914 308.064205 
L 350.948571 308.003439 
L 349.418057 308.007 
L 347.887543 307.944812 
L 344.826514 307.884854 
L 337.684114 307.616687 
L 336.663771 307.525496 
L 335.643429 307.442333 
L 334.112914 307.344758 
L 333.092571 307.229155 
L 331.051886 307.024231 
L 327.990857 306.344975 
L 326.460343 306.464808 
L 323.909486 306.707079 
L 321.8688 306.888299 
L 321.358629 306.711512 
L 319.828114 306.792578 
L 318.2976 306.738511 
L 317.277257 306.710299 
L 315.746743 306.589267 
L 313.706057 306.49112 
L 312.685714 306.324524 
L 310.134857 306.021513 
L 305.033143 305.120144 
L 301.461943 304.300786 
L 299.931429 303.792048 
L 297.380571 302.841876 
L 295.339886 301.897436 
L 293.2992 300.92818 
L 288.707657 298.03151 
L 286.666971 296.448783 
L 281.565257 291.496655 
L 280.034743 289.771308 
L 277.483886 286.568897 
L 273.402514 280.865157 
L 267.280457 271.531594 
L 250.4448 243.89956 
L 246.363429 238.036623 
L 242.282057 232.910982 
L 238.200686 228.988873 
L 236.16 227.459876 
L 231.568457 225.060717 
L 229.527771 224.512127 
L 227.997257 224.215649 
L 226.466743 224.062797 
L 222.385371 224.213911 
L 218.304 225.046098 
L 216.263314 225.676395 
L 215.242971 225.99767 
L 211.1616 227.26478 
L 210.141257 227.500792 
L 208.100571 227.895724 
L 205.549714 227.908374 
L 203.509029 227.769467 
L 200.958171 227.227479 
L 199.427657 226.693329 
L 197.897143 226.099421 
L 196.8768 225.657407 
L 194.836114 224.370986 
L 192.795429 222.818686 
L 191.775086 221.887285 
L 185.142857 215.453988 
L 183.612343 214.429837 
L 180.551314 212.87443 
L 177.490286 211.50083 
L 176.469943 211.151956 
L 173.408914 210.357988 
L 171.8784 210.123562 
L 168.817371 210.021183 
L 167.797029 209.807898 
L 165.756343 208.84256 
L 164.736 208.058988 
L 163.715657 206.883181 
L 162.695314 205.538614 
L 161.1648 202.819369 
L 159.634286 199.46883 
L 158.613943 196.77762 
L 157.083429 191.903246 
L 155.552914 185.78862 
L 154.0224 178.240523 
L 153.002057 172.654707 
L 151.471543 163.124093 
L 149.430857 148.674719 
L 146.88 128.466123 
L 143.818971 101.813536 
L 143.3088 94.132018 
L 142.798629 91.454053 
L 138.717257 53.945743 
L 136.1664 34.918935 
L 135.656229 33.123438 
L 135.146057 31.862977 
L 134.635886 30.247164 
L 134.125714 31.324716 
L 133.615543 33.128778 
L 133.105371 0.593884 
L 132.743954 -1 
M 122.8613 -1 
L 121.371429 8.422835 
L 119.840914 20.048926 
L 115.249371 56.236145 
L 114.229029 61.806602 
L 113.208686 65.190444 
L 112.698514 65.844784 
L 112.188343 65.196048 
L 111.678171 63.99245 
L 111.168 61.750902 
L 110.657829 58.411366 
L 110.147657 53.743614 
L 109.637486 47.557334 
L 109.127314 39.515918 
L 108.617143 29.19544 
L 108.106971 15.255049 
L 107.653866 -1 
L 107.653866 -1 
" clip-path="url(#p8f80d4c8d6)" style="fill: none; stroke: #381fc7; stroke-width: 0.5; stroke-linecap: square"/>
   </g>
   <g id="line2d_30">
    <path d="M 363.702857 308.031135 
L 363.192686 307.845214 
L 361.662171 307.808805 
L 360.131657 307.902696 
L 359.621486 307.873867 
L 358.090971 308.021228 
L 354.519771 308.037564 
L 353.499429 308.001631 
L 352.479086 308.030157 
L 348.907886 307.896972 
L 347.887543 307.939179 
L 346.8672 307.959953 
L 342.275657 307.753201 
L 340.745143 307.708557 
L 339.7248 307.696757 
L 333.602743 307.276882 
L 330.031543 306.758682 
L 328.501029 306.413609 
L 326.460343 306.409805 
L 323.909486 306.665759 
L 321.8688 306.916104 
L 321.358629 306.757463 
L 319.828114 306.782692 
L 316.767086 306.733815 
L 311.665371 306.318653 
L 307.584 305.754735 
L 302.482286 304.745549 
L 301.461943 304.421462 
L 300.4416 304.138795 
L 298.400914 303.401394 
L 297.890743 303.270126 
L 296.360229 302.478742 
L 291.768686 300.235998 
L 290.748343 299.599942 
L 287.177143 297.031446 
L 283.605943 293.756094 
L 282.5856 292.701019 
L 282.075429 292.223031 
L 276.463543 285.163454 
L 272.892343 279.934251 
L 266.770286 270.112476 
L 263.709257 264.925729 
L 258.607543 255.945486 
L 257.077029 253.171513 
L 250.4448 241.806502 
L 247.893943 237.750383 
L 242.792229 230.549105 
L 239.221029 226.549413 
L 237.690514 225.101039 
L 234.629486 222.704286 
L 233.098971 221.823483 
L 231.568457 221.045396 
L 229.0176 220.183032 
L 227.997257 219.963027 
L 226.466743 219.730616 
L 224.936229 219.64542 
L 222.895543 219.75803 
L 220.854857 220.061368 
L 219.324343 220.373972 
L 216.773486 221.153493 
L 216.263314 221.36679 
L 215.753143 221.40193 
L 213.712457 222.159879 
L 208.100571 223.668857 
L 206.570057 223.921419 
L 204.0192 224.020659 
L 201.978514 223.933341 
L 201.468343 223.800263 
L 200.448 223.70559 
L 195.856457 222.444957 
L 194.325943 221.707608 
L 191.264914 219.656192 
L 187.183543 216.437925 
L 186.673371 216.13308 
L 186.1632 215.668589 
L 183.102171 214.20436 
L 179.530971 213.321105 
L 178.510629 213.097834 
L 176.469943 212.714455 
L 174.939429 212.452614 
L 173.408914 212.380108 
L 170.858057 212.534043 
L 169.837714 212.583194 
L 168.3072 212.612406 
L 167.797029 212.553493 
L 166.776686 212.139224 
L 165.756343 211.566967 
L 165.246171 211.216547 
L 163.205486 208.92781 
L 161.674971 206.374166 
L 159.124114 200.201923 
L 158.103771 197.066664 
L 156.573257 191.349541 
L 155.042743 184.215033 
L 153.512229 175.639507 
L 151.981714 165.802238 
L 149.941029 150.788775 
L 148.920686 142.56256 
L 146.88 125.022028 
L 143.818971 96.321284 
L 143.3088 88.42861 
L 142.798629 85.687674 
L 138.717257 45.750478 
L 136.1664 25.825987 
L 135.146057 22.472943 
L 134.635886 21.378261 
L 133.615543 24.916541 
L 133.247964 -1 
M 120.846746 -1 
L 119.330743 11.129213 
L 116.269714 36.950538 
L 115.249371 44.323232 
L 114.229029 49.940216 
L 113.718857 51.804367 
L 113.208686 52.859924 
L 112.698514 53.30706 
L 112.188343 52.602677 
L 111.678171 50.902138 
L 111.168 48.166529 
L 110.657829 44.093452 
L 110.147657 38.611952 
L 109.637486 31.694561 
L 109.127314 22.822055 
L 108.617143 11.464658 
L 108.194059 -1 
L 108.194059 -1 
" clip-path="url(#p8f80d4c8d6)" style="fill: none; stroke: #2c1fd3; stroke-width: 0.5; stroke-linecap: square"/>
   </g>
   <g id="line2d_31">
    <path d="M 363.702857 308.324607 
L 363.192686 308.092385 
L 359.111314 308.108383 
L 357.5808 308.20653 
L 350.4384 308.082161 
L 347.887543 308.019922 
L 337.173943 307.52103 
L 335.643429 307.387765 
L 335.133257 307.394879 
L 333.602743 307.15146 
L 332.5824 307.095379 
L 330.541714 306.734126 
L 328.501029 306.208322 
L 326.460343 306.210545 
L 323.399314 306.498809 
L 313.706057 306.305562 
L 312.175543 306.101123 
L 311.665371 306.123146 
L 311.1552 305.965732 
L 310.134857 305.98542 
L 309.114514 305.772645 
L 307.073829 305.485346 
L 303.502629 304.768477 
L 302.482286 304.530747 
L 297.890743 303.173139 
L 295.850057 302.179921 
L 292.278857 300.508486 
L 291.768686 300.148702 
L 291.258514 299.929121 
L 286.666971 296.595048 
L 284.626286 294.777357 
L 283.095771 293.225049 
L 281.565257 291.527937 
L 279.0144 288.406555 
L 275.953371 284.164909 
L 273.402514 280.004509 
L 271.361829 276.615129 
L 265.239771 265.247789 
L 261.1584 256.941812 
L 259.117714 252.66843 
L 248.914286 231.324097 
L 243.3024 220.803448 
L 240.241371 215.897317 
L 236.16 210.406769 
L 232.078629 206.478381 
L 229.527771 204.777314 
L 226.976914 203.743282 
L 225.4464 203.367542 
L 222.895543 203.20218 
L 220.344686 203.46293 
L 217.283657 204.446799 
L 212.181943 206.989082 
L 210.651429 207.923021 
L 209.631086 208.442374 
L 208.100571 209.36281 
L 207.5904 209.531914 
L 206.059886 210.35284 
L 203.509029 211.627801 
L 201.468343 212.527103 
L 198.917486 213.522148 
L 196.8768 214.260343 
L 196.366629 214.305469 
L 195.856457 214.547278 
L 192.795429 215.034715 
L 190.244571 214.920307 
L 188.203886 214.771625 
L 186.1632 214.687705 
L 185.653029 214.624794 
L 185.142857 214.75891 
L 184.122514 214.866682 
L 178.510629 216.390392 
L 174.429257 217.132948 
L 170.858057 217.615019 
L 170.347886 217.611986 
L 168.817371 217.246213 
L 167.797029 216.624825 
L 166.776686 215.783689 
L 165.756343 214.474189 
L 164.736 212.70035 
L 163.205486 209.125192 
L 161.674971 204.204673 
L 160.144457 197.862732 
L 159.124114 192.776924 
L 157.5936 183.703069 
L 156.063086 172.629236 
L 154.532571 159.298177 
L 153.002057 143.764431 
L 151.471543 126.141896 
L 149.430857 99.588867 
L 147.390171 71.538392 
L 143.818971 19.560088 
L 143.3088 7.243386 
L 142.798629 2.55549 
L 142.557826 -1 
L 142.557826 -1 
" clip-path="url(#p8f80d4c8d6)" style="fill: none; stroke: #1f1fe0; stroke-width: 0.5; stroke-linecap: square"/>
   </g>
   <g id="patch_3">
    <path d="M 57.6 307.584 
L 57.6 41.472 
" style="fill: none; stroke: #000000; stroke-width: 0.8; stroke-linejoin: miter; stroke-linecap: square"/>
   </g>
   <g id="patch_4">
    <path d="M 414.72 307.584 
L 414.72 41.472 
" style="fill: none; stroke: #000000; stroke-width: 0.8; stroke-linejoin: miter; stroke-linecap: square"/>
   </g>
   <g id="patch_5">
    <path d="M 57.6 307.584 
L 414.72 307.584 
" style="fill: none; stroke: #000000; stroke-width: 0.8; stroke-linejoin: miter; stroke-linecap: square"/>
   </g>
   <g id="patch_6">
    <path d="M 57.6 41.472 
L 414.72 41.472 
" style="fill: none; stroke: #000000; stroke-width: 0.8; stroke-linejoin: miter; stroke-linecap: square"/>
   </g>
   <g id="text_18">
    <!-- IDA Titration of Alizarin:ompPBA complex &amp; Catechol in MeCN  -->
    <g transform="translate(48.833438 22.034625) scale(0.12 -0.12)">
     <defs>
      <path id="DejaVuSans-49" d="M 628 4666 
L 1259 4666 
L 1259 0 
L 628 0 
L 628 4666 
z
" transform="scale(0.015625)"/>
      <path id="DejaVuSans-44" d="M 1259 4147 
L 1259 519 
L 2022 519 
Q 2988 519 3436 956 
Q 3884 1394 3884 2338 
Q 3884 3275 3436 3711 
Q 2988 4147 2022 4147 
L 1259 4147 
z
M 628 4666 
L 1925 4666 
Q 3281 4666 3915 4102 
Q 4550 3538 4550 2338 
Q 4550 1131 3912 565 
Q 3275 0 1925 0 
L 628 0 
L 628 4666 
z
" transform="scale(0.015625)"/>
      <path id="DejaVuSans-54" d="M -19 4666 
L 3928 4666 
L 3928 4134 
L 2272 4134 
L 2272 0 
L 1638 0 
L 1638 4134 
L -19 4134 
L -19 4666 
z
" transform="scale(0.015625)"/>
      <path id="DejaVuSans-69" d="M 603 3500 
L 1178 3500 
L 1178 0 
L 603 0 
L 603 3500 
z
M 603 4863 
L 1178 4863 
L 1178 4134 
L 603 4134 
L 603 4863 
z
" transform="scale(0.015625)"/>
      <path id="DejaVuSans-66" d="M 2375 4863 
L 2375 4384 
L 1825 4384 
Q 1516 4384 1395 4259 
Q 1275 4134 1275 3809 
L 1275 3500 
L 2222 3500 
L 2222 3053 
L 1275 3053 
L 1275 0 
L 697 0 
L 697 3053 
L 147 3053 
L 147 3500 
L 697 3500 
L 697 3744 
Q 697 4328 969 4595 
Q 1241 4863 1831 4863 
L 2375 4863 
z
" transform="scale(0.015625)"/>
      <path id="DejaVuSans-7a" d="M 353 3500 
L 3084 3500 
L 3084 2975 
L 922 459 
L 3084 459 
L 3084 0 
L 275 0 
L 275 525 
L 2438 3041 
L 353 3041 
L 353 3500 
z
" transform="scale(0.015625)"/>
      <path id="DejaVuSans-3a" d="M 750 794 
L 1409 794 
L 1409 0 
L 750 0 
L 750 794 
z
M 750 3309 
L 1409 3309 
L 1409 2516 
L 750 2516 
L 750 3309 
z
" transform="scale(0.015625)"/>
      <path id="DejaVuSans-70" d="M 1159 525 
L 1159 -1331 
L 581 -1331 
L 581 3500 
L 1159 3500 
L 1159 2969 
Q 1341 3281 1617 3432 
Q 1894 3584 2278 3584 
Q 2916 3584 3314 3078 
Q 3713 2572 3713 1747 
Q 3713 922 3314 415 
Q 2916 -91 2278 -91 
Q 1894 -91 1617 61 
Q 1341 213 1159 525 
z
M 3116 1747 
Q 3116 2381 2855 2742 
Q 2594 3103 2138 3103 
Q 1681 3103 1420 2742 
Q 1159 2381 1159 1747 
Q 1159 1113 1420 752 
Q 1681 391 2138 391 
Q 2594 391 2855 752 
Q 3116 1113 3116 1747 
z
" transform="scale(0.015625)"/>
      <path id="DejaVuSans-50" d="M 1259 4147 
L 1259 2394 
L 2053 2394 
Q 2494 2394 2734 2622 
Q 2975 2850 2975 3272 
Q 2975 3691 2734 3919 
Q 2494 4147 2053 4147 
L 1259 4147 
z
M 628 4666 
L 2053 4666 
Q 2838 4666 3239 4311 
Q 3641 3956 3641 3272 
Q 3641 2581 3239 2228 
Q 2838 1875 2053 1875 
L 1259 1875 
L 1259 0 
L 628 0 
L 628 4666 
z
" transform="scale(0.015625)"/>
      <path id="DejaVuSans-42" d="M 1259 2228 
L 1259 519 
L 2272 519 
Q 2781 519 3026 730 
Q 3272 941 3272 1375 
Q 3272 1813 3026 2020 
Q 2781 2228 2272 2228 
L 1259 2228 
z
M 1259 4147 
L 1259 2741 
L 2194 2741 
Q 2656 2741 2882 2914 
Q 3109 3088 3109 3444 
Q 3109 3797 2882 3972 
Q 2656 4147 2194 4147 
L 1259 4147 
z
M 628 4666 
L 2241 4666 
Q 2963 4666 3353 4366 
Q 3744 4066 3744 3513 
Q 3744 3084 3544 2831 
Q 3344 2578 2956 2516 
Q 3422 2416 3680 2098 
Q 3938 1781 3938 1306 
Q 3938 681 3513 340 
Q 3088 0 2303 0 
L 628 0 
L 628 4666 
z
" transform="scale(0.015625)"/>
      <path id="DejaVuSans-78" d="M 3513 3500 
L 2247 1797 
L 3578 0 
L 2900 0 
L 1881 1375 
L 863 0 
L 184 0 
L 1544 1831 
L 300 3500 
L 978 3500 
L 1906 2253 
L 2834 3500 
L 3513 3500 
z
" transform="scale(0.015625)"/>
      <path id="DejaVuSans-26" d="M 1556 2509 
Q 1272 2256 1139 2004 
Q 1006 1753 1006 1478 
Q 1006 1022 1337 719 
Q 1669 416 2169 416 
Q 2466 416 2725 514 
Q 2984 613 3213 813 
L 1556 2509 
z
M 1997 2859 
L 3584 1234 
Q 3769 1513 3872 1830 
Q 3975 2147 3994 2503 
L 4575 2503 
Q 4538 2091 4375 1687 
Q 4213 1284 3922 891 
L 4794 0 
L 4006 0 
L 3559 459 
Q 3234 181 2878 45 
Q 2522 -91 2113 -91 
Q 1359 -91 881 339 
Q 403 769 403 1441 
Q 403 1841 612 2192 
Q 822 2544 1241 2853 
Q 1091 3050 1012 3245 
Q 934 3441 934 3628 
Q 934 4134 1281 4442 
Q 1628 4750 2203 4750 
Q 2463 4750 2720 4694 
Q 2978 4638 3244 4525 
L 3244 3956 
Q 2972 4103 2725 4179 
Q 2478 4256 2266 4256 
Q 1938 4256 1733 4082 
Q 1528 3909 1528 3634 
Q 1528 3475 1620 3314 
Q 1713 3153 1997 2859 
z
" transform="scale(0.015625)"/>
      <path id="DejaVuSans-43" d="M 4122 4306 
L 4122 3641 
Q 3803 3938 3442 4084 
Q 3081 4231 2675 4231 
Q 1875 4231 1450 3742 
Q 1025 3253 1025 2328 
Q 1025 1406 1450 917 
Q 1875 428 2675 428 
Q 3081 428 3442 575 
Q 3803 722 4122 1019 
L 4122 359 
Q 3791 134 3420 21 
Q 3050 -91 2638 -91 
Q 1578 -91 968 557 
Q 359 1206 359 2328 
Q 359 3453 968 4101 
Q 1578 4750 2638 4750 
Q 3056 4750 3426 4639 
Q 3797 4528 4122 4306 
z
" transform="scale(0.015625)"/>
      <path id="DejaVuSans-4d" d="M 628 4666 
L 1569 4666 
L 2759 1491 
L 3956 4666 
L 4897 4666 
L 4897 0 
L 4281 0 
L 4281 4097 
L 3078 897 
L 2444 897 
L 1241 4097 
L 1241 0 
L 628 0 
L 628 4666 
z
" transform="scale(0.015625)"/>
      <path id="DejaVuSans-4e" d="M 628 4666 
L 1478 4666 
L 3547 763 
L 3547 4666 
L 4159 4666 
L 4159 0 
L 3309 0 
L 1241 3903 
L 1241 0 
L 628 0 
L 628 4666 
z
" transform="scale(0.015625)"/>
     </defs>
     <use xlink:href="#DejaVuSans-49"/>
     <use xlink:href="#DejaVuSans-44" x="29.492188"/>
     <use xlink:href="#DejaVuSans-41" x="104.744141"/>
     <use xlink:href="#DejaVuSans-20" x="173.152344"/>
     <use xlink:href="#DejaVuSans-54" x="204.939453"/>
     <use xlink:href="#DejaVuSans-69" x="262.898438"/>
     <use xlink:href="#DejaVuSans-74" x="290.681641"/>
     <use xlink:href="#DejaVuSans-72" x="329.890625"/>
     <use xlink:href="#DejaVuSans-61" x="371.003906"/>
     <use xlink:href="#DejaVuSans-74" x="432.283203"/>
     <use xlink:href="#DejaVuSans-69" x="471.492188"/>
     <use xlink:href="#DejaVuSans-6f" x="499.275391"/>
     <use xlink:href="#DejaVuSans-6e" x="560.457031"/>
     <use xlink:href="#DejaVuSans-20" x="623.835938"/>
     <use xlink:href="#DejaVuSans-6f" x="655.623047"/>
     <use xlink:href="#DejaVuSans-66" x="716.804688"/>
     <use xlink:href="#DejaVuSans-20" x="752.009766"/>
     <use xlink:href="#DejaVuSans-41" x="783.796875"/>
     <use xlink:href="#DejaVuSans-6c" x="852.205078"/>
     <use xlink:href="#DejaVuSans-69" x="879.988281"/>
     <use xlink:href="#DejaVuSans-7a" x="907.771484"/>
     <use xlink:href="#DejaVuSans-61" x="960.261719"/>
     <use xlink:href="#DejaVuSans-72" x="1021.541016"/>
     <use xlink:href="#DejaVuSans-69" x="1062.654297"/>
     <use xlink:href="#DejaVuSans-6e" x="1090.4375"/>
     <use xlink:href="#DejaVuSans-3a" x="1153.816406"/>
     <use xlink:href="#DejaVuSans-6f" x="1187.507812"/>
     <use xlink:href="#DejaVuSans-6d" x="1248.689453"/>
     <use xlink:href="#DejaVuSans-70" x="1346.101562"/>
     <use xlink:href="#DejaVuSans-50" x="1409.578125"/>
     <use xlink:href="#DejaVuSans-42" x="1469.880859"/>
     <use xlink:href="#DejaVuSans-41" x="1538.484375"/>
     <use xlink:href="#DejaVuSans-20" x="1606.892578"/>
     <use xlink:href="#DejaVuSans-63" x="1638.679688"/>
     <use xlink:href="#DejaVuSans-6f" x="1693.660156"/>
     <use xlink:href="#DejaVuSans-6d" x="1754.841797"/>
     <use xlink:href="#DejaVuSans-70" x="1852.253906"/>
     <use xlink:href="#DejaVuSans-6c" x="1915.730469"/>
     <use xlink:href="#DejaVuSans-65" x="1943.513672"/>
     <use xlink:href="#DejaVuSans-78" x="2003.287109"/>
     <use xlink:href="#DejaVuSans-20" x="2062.466797"/>
     <use xlink:href="#DejaVuSans-26" x="2094.253906"/>
     <use xlink:href="#DejaVuSans-20" x="2172.232422"/>
     <use xlink:href="#DejaVuSans-43" x="2204.019531"/>
     <use xlink:href="#DejaVuSans-61" x="2273.84375"/>
     <use xlink:href="#DejaVuSans-74" x="2335.123047"/>
     <use xlink:href="#DejaVuSans-65" x="2374.332031"/>
     <use xlink:href="#DejaVuSans-63" x="2435.855469"/>
     <use xlink:href="#DejaVuSans-68" x="2490.835938"/>
     <use xlink:href="#DejaVuSans-6f" x="2554.214844"/>
     <use xlink:href="#DejaVuSans-6c" x="2615.396484"/>
     <use xlink:href="#DejaVuSans-20" x="2643.179688"/>
     <use xlink:href="#DejaVuSans-69" x="2674.966797"/>
     <use xlink:href="#DejaVuSans-6e" x="2702.75"/>
     <use xlink:href="#DejaVuSans-20" x="2766.128906"/>
     <use xlink:href="#DejaVuSans-4d" x="2797.916016"/>
     <use xlink:href="#DejaVuSans-65" x="2884.195312"/>
     <use xlink:href="#DejaVuSans-43" x="2945.71875"/>
     <use xlink:href="#DejaVuSans-4e" x="3015.542969"/>
     <use xlink:href="#DejaVuSans-20" x="3090.347656"/>
    </g>
    <!--  -->
    <g transform="translate(236.16 35.472) scale(0.12 -0.12)"/>
   </g>
  </g>
 </g>
 <defs>
  <clipPath id="p8f80d4c8d6">
   <rect x="57.6" y="41.472" width="357.12" height="266.112"/>
  </clipPath>
 </defs>
</svg>
