<?xml version="1.0" encoding="utf-8" standalone="no"?>
<!DOCTYPE svg PUBLIC "-//W3C//DTD SVG 1.1//EN"
  "http://www.w3.org/Graphics/SVG/1.1/DTD/svg11.dtd">
<svg xmlns:xlink="http://www.w3.org/1999/xlink" width="460.8pt" height="345.6pt" viewBox="0 0 460.8 345.6" xmlns="http://www.w3.org/2000/svg" version="1.1">
 <metadata>
  <rdf:RDF xmlns:dc="http://purl.org/dc/elements/1.1/" xmlns:cc="http://creativecommons.org/ns#" xmlns:rdf="http://www.w3.org/1999/02/22-rdf-syntax-ns#">
   <cc:Work>
    <dc:type rdf:resource="http://purl.org/dc/dcmitype/StillImage"/>
    <dc:date>2024-11-03T21:07:35.948503</dc:date>
    <dc:format>image/svg+xml</dc:format>
    <dc:creator>
     <cc:Agent>
      <dc:title>Matplotlib v3.9.2, https://matplotlib.org/</dc:title>
     </cc:Agent>
    </dc:creator>
   </cc:Work>
  </rdf:RDF>
 </metadata>
 <defs>
  <style type="text/css">*{stroke-linejoin: round; stroke-linecap: butt}</style>
 </defs>
 <g id="figure_1">
  <g id="patch_1">
   <path d="M 0 345.6 
L 460.8 345.6 
L 460.8 0 
L 0 0 
z
" style="fill: #ffffff"/>
  </g>
  <g id="axes_1">
   <g id="patch_2">
    <path d="M 57.6 307.584 
L 414.72 307.584 
L 414.72 41.472 
L 57.6 41.472 
z
" style="fill: #ffffff"/>
   </g>
   <g id="matplotlib.axis_1">
    <g id="xtick_1">
     <g id="line2d_1">
      <defs>
       <path id="m86f2e236ba" d="M 0 0 
L 0 3.5 
" style="stroke: #000000; stroke-width: 0.8"/>
      </defs>
      <g>
       <use xlink:href="#m86f2e236ba" x="57.6" y="307.584" style="stroke: #000000; stroke-width: 0.8"/>
      </g>
     </g>
     <g id="text_1">
      <!-- 200 -->
      <g transform="translate(48.05625 322.182437) scale(0.1 -0.1)">
       <defs>
        <path id="DejaVuSans-32" d="M 1228 531 
L 3431 531 
L 3431 0 
L 469 0 
L 469 531 
Q 828 903 1448 1529 
Q 2069 2156 2228 2338 
Q 2531 2678 2651 2914 
Q 2772 3150 2772 3378 
Q 2772 3750 2511 3984 
Q 2250 4219 1831 4219 
Q 1534 4219 1204 4116 
Q 875 4013 500 3803 
L 500 4441 
Q 881 4594 1212 4672 
Q 1544 4750 1819 4750 
Q 2544 4750 2975 4387 
Q 3406 4025 3406 3419 
Q 3406 3131 3298 2873 
Q 3191 2616 2906 2266 
Q 2828 2175 2409 1742 
Q 1991 1309 1228 531 
z
" transform="scale(0.015625)"/>
        <path id="DejaVuSans-30" d="M 2034 4250 
Q 1547 4250 1301 3770 
Q 1056 3291 1056 2328 
Q 1056 1369 1301 889 
Q 1547 409 2034 409 
Q 2525 409 2770 889 
Q 3016 1369 3016 2328 
Q 3016 3291 2770 3770 
Q 2525 4250 2034 4250 
z
M 2034 4750 
Q 2819 4750 3233 4129 
Q 3647 3509 3647 2328 
Q 3647 1150 3233 529 
Q 2819 -91 2034 -91 
Q 1250 -91 836 529 
Q 422 1150 422 2328 
Q 422 3509 836 4129 
Q 1250 4750 2034 4750 
z
" transform="scale(0.015625)"/>
       </defs>
       <use xlink:href="#DejaVuSans-32"/>
       <use xlink:href="#DejaVuSans-30" x="63.623047"/>
       <use xlink:href="#DejaVuSans-30" x="127.246094"/>
      </g>
     </g>
    </g>
    <g id="xtick_2">
     <g id="line2d_2">
      <g>
       <use xlink:href="#m86f2e236ba" x="108.617143" y="307.584" style="stroke: #000000; stroke-width: 0.8"/>
      </g>
     </g>
     <g id="text_2">
      <!-- 300 -->
      <g transform="translate(99.073393 322.182437) scale(0.1 -0.1)">
       <defs>
        <path id="DejaVuSans-33" d="M 2597 2516 
Q 3050 2419 3304 2112 
Q 3559 1806 3559 1356 
Q 3559 666 3084 287 
Q 2609 -91 1734 -91 
Q 1441 -91 1130 -33 
Q 819 25 488 141 
L 488 750 
Q 750 597 1062 519 
Q 1375 441 1716 441 
Q 2309 441 2620 675 
Q 2931 909 2931 1356 
Q 2931 1769 2642 2001 
Q 2353 2234 1838 2234 
L 1294 2234 
L 1294 2753 
L 1863 2753 
Q 2328 2753 2575 2939 
Q 2822 3125 2822 3475 
Q 2822 3834 2567 4026 
Q 2313 4219 1838 4219 
Q 1578 4219 1281 4162 
Q 984 4106 628 3988 
L 628 4550 
Q 988 4650 1302 4700 
Q 1616 4750 1894 4750 
Q 2613 4750 3031 4423 
Q 3450 4097 3450 3541 
Q 3450 3153 3228 2886 
Q 3006 2619 2597 2516 
z
" transform="scale(0.015625)"/>
       </defs>
       <use xlink:href="#DejaVuSans-33"/>
       <use xlink:href="#DejaVuSans-30" x="63.623047"/>
       <use xlink:href="#DejaVuSans-30" x="127.246094"/>
      </g>
     </g>
    </g>
    <g id="xtick_3">
     <g id="line2d_3">
      <g>
       <use xlink:href="#m86f2e236ba" x="159.634286" y="307.584" style="stroke: #000000; stroke-width: 0.8"/>
      </g>
     </g>
     <g id="text_3">
      <!-- 400 -->
      <g transform="translate(150.090536 322.182437) scale(0.1 -0.1)">
       <defs>
        <path id="DejaVuSans-34" d="M 2419 4116 
L 825 1625 
L 2419 1625 
L 2419 4116 
z
M 2253 4666 
L 3047 4666 
L 3047 1625 
L 3713 1625 
L 3713 1100 
L 3047 1100 
L 3047 0 
L 2419 0 
L 2419 1100 
L 313 1100 
L 313 1709 
L 2253 4666 
z
" transform="scale(0.015625)"/>
       </defs>
       <use xlink:href="#DejaVuSans-34"/>
       <use xlink:href="#DejaVuSans-30" x="63.623047"/>
       <use xlink:href="#DejaVuSans-30" x="127.246094"/>
      </g>
     </g>
    </g>
    <g id="xtick_4">
     <g id="line2d_4">
      <g>
       <use xlink:href="#m86f2e236ba" x="210.651429" y="307.584" style="stroke: #000000; stroke-width: 0.8"/>
      </g>
     </g>
     <g id="text_4">
      <!-- 500 -->
      <g transform="translate(201.107679 322.182437) scale(0.1 -0.1)">
       <defs>
        <path id="DejaVuSans-35" d="M 691 4666 
L 3169 4666 
L 3169 4134 
L 1269 4134 
L 1269 2991 
Q 1406 3038 1543 3061 
Q 1681 3084 1819 3084 
Q 2600 3084 3056 2656 
Q 3513 2228 3513 1497 
Q 3513 744 3044 326 
Q 2575 -91 1722 -91 
Q 1428 -91 1123 -41 
Q 819 9 494 109 
L 494 744 
Q 775 591 1075 516 
Q 1375 441 1709 441 
Q 2250 441 2565 725 
Q 2881 1009 2881 1497 
Q 2881 1984 2565 2268 
Q 2250 2553 1709 2553 
Q 1456 2553 1204 2497 
Q 953 2441 691 2322 
L 691 4666 
z
" transform="scale(0.015625)"/>
       </defs>
       <use xlink:href="#DejaVuSans-35"/>
       <use xlink:href="#DejaVuSans-30" x="63.623047"/>
       <use xlink:href="#DejaVuSans-30" x="127.246094"/>
      </g>
     </g>
    </g>
    <g id="xtick_5">
     <g id="line2d_5">
      <g>
       <use xlink:href="#m86f2e236ba" x="261.668571" y="307.584" style="stroke: #000000; stroke-width: 0.8"/>
      </g>
     </g>
     <g id="text_5">
      <!-- 600 -->
      <g transform="translate(252.124821 322.182437) scale(0.1 -0.1)">
       <defs>
        <path id="DejaVuSans-36" d="M 2113 2584 
Q 1688 2584 1439 2293 
Q 1191 2003 1191 1497 
Q 1191 994 1439 701 
Q 1688 409 2113 409 
Q 2538 409 2786 701 
Q 3034 994 3034 1497 
Q 3034 2003 2786 2293 
Q 2538 2584 2113 2584 
z
M 3366 4563 
L 3366 3988 
Q 3128 4100 2886 4159 
Q 2644 4219 2406 4219 
Q 1781 4219 1451 3797 
Q 1122 3375 1075 2522 
Q 1259 2794 1537 2939 
Q 1816 3084 2150 3084 
Q 2853 3084 3261 2657 
Q 3669 2231 3669 1497 
Q 3669 778 3244 343 
Q 2819 -91 2113 -91 
Q 1303 -91 875 529 
Q 447 1150 447 2328 
Q 447 3434 972 4092 
Q 1497 4750 2381 4750 
Q 2619 4750 2861 4703 
Q 3103 4656 3366 4563 
z
" transform="scale(0.015625)"/>
       </defs>
       <use xlink:href="#DejaVuSans-36"/>
       <use xlink:href="#DejaVuSans-30" x="63.623047"/>
       <use xlink:href="#DejaVuSans-30" x="127.246094"/>
      </g>
     </g>
    </g>
    <g id="xtick_6">
     <g id="line2d_6">
      <g>
       <use xlink:href="#m86f2e236ba" x="312.685714" y="307.584" style="stroke: #000000; stroke-width: 0.8"/>
      </g>
     </g>
     <g id="text_6">
      <!-- 700 -->
      <g transform="translate(303.141964 322.182437) scale(0.1 -0.1)">
       <defs>
        <path id="DejaVuSans-37" d="M 525 4666 
L 3525 4666 
L 3525 4397 
L 1831 0 
L 1172 0 
L 2766 4134 
L 525 4134 
L 525 4666 
z
" transform="scale(0.015625)"/>
       </defs>
       <use xlink:href="#DejaVuSans-37"/>
       <use xlink:href="#DejaVuSans-30" x="63.623047"/>
       <use xlink:href="#DejaVuSans-30" x="127.246094"/>
      </g>
     </g>
    </g>
    <g id="xtick_7">
     <g id="line2d_7">
      <g>
       <use xlink:href="#m86f2e236ba" x="363.702857" y="307.584" style="stroke: #000000; stroke-width: 0.8"/>
      </g>
     </g>
     <g id="text_7">
      <!-- 800 -->
      <g transform="translate(354.159107 322.182437) scale(0.1 -0.1)">
       <defs>
        <path id="DejaVuSans-38" d="M 2034 2216 
Q 1584 2216 1326 1975 
Q 1069 1734 1069 1313 
Q 1069 891 1326 650 
Q 1584 409 2034 409 
Q 2484 409 2743 651 
Q 3003 894 3003 1313 
Q 3003 1734 2745 1975 
Q 2488 2216 2034 2216 
z
M 1403 2484 
Q 997 2584 770 2862 
Q 544 3141 544 3541 
Q 544 4100 942 4425 
Q 1341 4750 2034 4750 
Q 2731 4750 3128 4425 
Q 3525 4100 3525 3541 
Q 3525 3141 3298 2862 
Q 3072 2584 2669 2484 
Q 3125 2378 3379 2068 
Q 3634 1759 3634 1313 
Q 3634 634 3220 271 
Q 2806 -91 2034 -91 
Q 1263 -91 848 271 
Q 434 634 434 1313 
Q 434 1759 690 2068 
Q 947 2378 1403 2484 
z
M 1172 3481 
Q 1172 3119 1398 2916 
Q 1625 2713 2034 2713 
Q 2441 2713 2670 2916 
Q 2900 3119 2900 3481 
Q 2900 3844 2670 4047 
Q 2441 4250 2034 4250 
Q 1625 4250 1398 4047 
Q 1172 3844 1172 3481 
z
" transform="scale(0.015625)"/>
       </defs>
       <use xlink:href="#DejaVuSans-38"/>
       <use xlink:href="#DejaVuSans-30" x="63.623047"/>
       <use xlink:href="#DejaVuSans-30" x="127.246094"/>
      </g>
     </g>
    </g>
    <g id="xtick_8">
     <g id="line2d_8">
      <g>
       <use xlink:href="#m86f2e236ba" x="414.72" y="307.584" style="stroke: #000000; stroke-width: 0.8"/>
      </g>
     </g>
     <g id="text_8">
      <!-- 900 -->
      <g transform="translate(405.17625 322.182437) scale(0.1 -0.1)">
       <defs>
        <path id="DejaVuSans-39" d="M 703 97 
L 703 672 
Q 941 559 1184 500 
Q 1428 441 1663 441 
Q 2288 441 2617 861 
Q 2947 1281 2994 2138 
Q 2813 1869 2534 1725 
Q 2256 1581 1919 1581 
Q 1219 1581 811 2004 
Q 403 2428 403 3163 
Q 403 3881 828 4315 
Q 1253 4750 1959 4750 
Q 2769 4750 3195 4129 
Q 3622 3509 3622 2328 
Q 3622 1225 3098 567 
Q 2575 -91 1691 -91 
Q 1453 -91 1209 -44 
Q 966 3 703 97 
z
M 1959 2075 
Q 2384 2075 2632 2365 
Q 2881 2656 2881 3163 
Q 2881 3666 2632 3958 
Q 2384 4250 1959 4250 
Q 1534 4250 1286 3958 
Q 1038 3666 1038 3163 
Q 1038 2656 1286 2365 
Q 1534 2075 1959 2075 
z
" transform="scale(0.015625)"/>
       </defs>
       <use xlink:href="#DejaVuSans-39"/>
       <use xlink:href="#DejaVuSans-30" x="63.623047"/>
       <use xlink:href="#DejaVuSans-30" x="127.246094"/>
      </g>
     </g>
    </g>
    <g id="text_9">
     <!-- Wavelength (nm) -->
     <g transform="translate(192.967812 335.860562) scale(0.1 -0.1)">
      <defs>
       <path id="DejaVuSans-57" d="M 213 4666 
L 850 4666 
L 1831 722 
L 2809 4666 
L 3519 4666 
L 4500 722 
L 5478 4666 
L 6119 4666 
L 4947 0 
L 4153 0 
L 3169 4050 
L 2175 0 
L 1381 0 
L 213 4666 
z
" transform="scale(0.015625)"/>
       <path id="DejaVuSans-61" d="M 2194 1759 
Q 1497 1759 1228 1600 
Q 959 1441 959 1056 
Q 959 750 1161 570 
Q 1363 391 1709 391 
Q 2188 391 2477 730 
Q 2766 1069 2766 1631 
L 2766 1759 
L 2194 1759 
z
M 3341 1997 
L 3341 0 
L 2766 0 
L 2766 531 
Q 2569 213 2275 61 
Q 1981 -91 1556 -91 
Q 1019 -91 701 211 
Q 384 513 384 1019 
Q 384 1609 779 1909 
Q 1175 2209 1959 2209 
L 2766 2209 
L 2766 2266 
Q 2766 2663 2505 2880 
Q 2244 3097 1772 3097 
Q 1472 3097 1187 3025 
Q 903 2953 641 2809 
L 641 3341 
Q 956 3463 1253 3523 
Q 1550 3584 1831 3584 
Q 2591 3584 2966 3190 
Q 3341 2797 3341 1997 
z
" transform="scale(0.015625)"/>
       <path id="DejaVuSans-76" d="M 191 3500 
L 800 3500 
L 1894 563 
L 2988 3500 
L 3597 3500 
L 2284 0 
L 1503 0 
L 191 3500 
z
" transform="scale(0.015625)"/>
       <path id="DejaVuSans-65" d="M 3597 1894 
L 3597 1613 
L 953 1613 
Q 991 1019 1311 708 
Q 1631 397 2203 397 
Q 2534 397 2845 478 
Q 3156 559 3463 722 
L 3463 178 
Q 3153 47 2828 -22 
Q 2503 -91 2169 -91 
Q 1331 -91 842 396 
Q 353 884 353 1716 
Q 353 2575 817 3079 
Q 1281 3584 2069 3584 
Q 2775 3584 3186 3129 
Q 3597 2675 3597 1894 
z
M 3022 2063 
Q 3016 2534 2758 2815 
Q 2500 3097 2075 3097 
Q 1594 3097 1305 2825 
Q 1016 2553 972 2059 
L 3022 2063 
z
" transform="scale(0.015625)"/>
       <path id="DejaVuSans-6c" d="M 603 4863 
L 1178 4863 
L 1178 0 
L 603 0 
L 603 4863 
z
" transform="scale(0.015625)"/>
       <path id="DejaVuSans-6e" d="M 3513 2113 
L 3513 0 
L 2938 0 
L 2938 2094 
Q 2938 2591 2744 2837 
Q 2550 3084 2163 3084 
Q 1697 3084 1428 2787 
Q 1159 2491 1159 1978 
L 1159 0 
L 581 0 
L 581 3500 
L 1159 3500 
L 1159 2956 
Q 1366 3272 1645 3428 
Q 1925 3584 2291 3584 
Q 2894 3584 3203 3211 
Q 3513 2838 3513 2113 
z
" transform="scale(0.015625)"/>
       <path id="DejaVuSans-67" d="M 2906 1791 
Q 2906 2416 2648 2759 
Q 2391 3103 1925 3103 
Q 1463 3103 1205 2759 
Q 947 2416 947 1791 
Q 947 1169 1205 825 
Q 1463 481 1925 481 
Q 2391 481 2648 825 
Q 2906 1169 2906 1791 
z
M 3481 434 
Q 3481 -459 3084 -895 
Q 2688 -1331 1869 -1331 
Q 1566 -1331 1297 -1286 
Q 1028 -1241 775 -1147 
L 775 -588 
Q 1028 -725 1275 -790 
Q 1522 -856 1778 -856 
Q 2344 -856 2625 -561 
Q 2906 -266 2906 331 
L 2906 616 
Q 2728 306 2450 153 
Q 2172 0 1784 0 
Q 1141 0 747 490 
Q 353 981 353 1791 
Q 353 2603 747 3093 
Q 1141 3584 1784 3584 
Q 2172 3584 2450 3431 
Q 2728 3278 2906 2969 
L 2906 3500 
L 3481 3500 
L 3481 434 
z
" transform="scale(0.015625)"/>
       <path id="DejaVuSans-74" d="M 1172 4494 
L 1172 3500 
L 2356 3500 
L 2356 3053 
L 1172 3053 
L 1172 1153 
Q 1172 725 1289 603 
Q 1406 481 1766 481 
L 2356 481 
L 2356 0 
L 1766 0 
Q 1100 0 847 248 
Q 594 497 594 1153 
L 594 3053 
L 172 3053 
L 172 3500 
L 594 3500 
L 594 4494 
L 1172 4494 
z
" transform="scale(0.015625)"/>
       <path id="DejaVuSans-68" d="M 3513 2113 
L 3513 0 
L 2938 0 
L 2938 2094 
Q 2938 2591 2744 2837 
Q 2550 3084 2163 3084 
Q 1697 3084 1428 2787 
Q 1159 2491 1159 1978 
L 1159 0 
L 581 0 
L 581 4863 
L 1159 4863 
L 1159 2956 
Q 1366 3272 1645 3428 
Q 1925 3584 2291 3584 
Q 2894 3584 3203 3211 
Q 3513 2838 3513 2113 
z
" transform="scale(0.015625)"/>
       <path id="DejaVuSans-20" transform="scale(0.015625)"/>
       <path id="DejaVuSans-28" d="M 1984 4856 
Q 1566 4138 1362 3434 
Q 1159 2731 1159 2009 
Q 1159 1288 1364 580 
Q 1569 -128 1984 -844 
L 1484 -844 
Q 1016 -109 783 600 
Q 550 1309 550 2009 
Q 550 2706 781 3412 
Q 1013 4119 1484 4856 
L 1984 4856 
z
" transform="scale(0.015625)"/>
       <path id="DejaVuSans-6d" d="M 3328 2828 
Q 3544 3216 3844 3400 
Q 4144 3584 4550 3584 
Q 5097 3584 5394 3201 
Q 5691 2819 5691 2113 
L 5691 0 
L 5113 0 
L 5113 2094 
Q 5113 2597 4934 2840 
Q 4756 3084 4391 3084 
Q 3944 3084 3684 2787 
Q 3425 2491 3425 1978 
L 3425 0 
L 2847 0 
L 2847 2094 
Q 2847 2600 2669 2842 
Q 2491 3084 2119 3084 
Q 1678 3084 1418 2786 
Q 1159 2488 1159 1978 
L 1159 0 
L 581 0 
L 581 3500 
L 1159 3500 
L 1159 2956 
Q 1356 3278 1631 3431 
Q 1906 3584 2284 3584 
Q 2666 3584 2933 3390 
Q 3200 3197 3328 2828 
z
" transform="scale(0.015625)"/>
       <path id="DejaVuSans-29" d="M 513 4856 
L 1013 4856 
Q 1481 4119 1714 3412 
Q 1947 2706 1947 2009 
Q 1947 1309 1714 600 
Q 1481 -109 1013 -844 
L 513 -844 
Q 928 -128 1133 580 
Q 1338 1288 1338 2009 
Q 1338 2731 1133 3434 
Q 928 4138 513 4856 
z
" transform="scale(0.015625)"/>
      </defs>
      <use xlink:href="#DejaVuSans-57"/>
      <use xlink:href="#DejaVuSans-61" x="92.501953"/>
      <use xlink:href="#DejaVuSans-76" x="153.78125"/>
      <use xlink:href="#DejaVuSans-65" x="212.960938"/>
      <use xlink:href="#DejaVuSans-6c" x="274.484375"/>
      <use xlink:href="#DejaVuSans-65" x="302.267578"/>
      <use xlink:href="#DejaVuSans-6e" x="363.791016"/>
      <use xlink:href="#DejaVuSans-67" x="427.169922"/>
      <use xlink:href="#DejaVuSans-74" x="490.646484"/>
      <use xlink:href="#DejaVuSans-68" x="529.855469"/>
      <use xlink:href="#DejaVuSans-20" x="593.234375"/>
      <use xlink:href="#DejaVuSans-28" x="625.021484"/>
      <use xlink:href="#DejaVuSans-6e" x="664.035156"/>
      <use xlink:href="#DejaVuSans-6d" x="727.414062"/>
      <use xlink:href="#DejaVuSans-29" x="824.826172"/>
     </g>
    </g>
   </g>
   <g id="matplotlib.axis_2">
    <g id="ytick_1">
     <g id="line2d_9">
      <defs>
       <path id="m4374b003f8" d="M 0 0 
L -3.5 0 
" style="stroke: #000000; stroke-width: 0.8"/>
      </defs>
      <g>
       <use xlink:href="#m4374b003f8" x="57.6" y="307.584" style="stroke: #000000; stroke-width: 0.8"/>
      </g>
     </g>
     <g id="text_10">
      <!-- 0.0 -->
      <g transform="translate(34.696875 311.383219) scale(0.1 -0.1)">
       <defs>
        <path id="DejaVuSans-2e" d="M 684 794 
L 1344 794 
L 1344 0 
L 684 0 
L 684 794 
z
" transform="scale(0.015625)"/>
       </defs>
       <use xlink:href="#DejaVuSans-30"/>
       <use xlink:href="#DejaVuSans-2e" x="63.623047"/>
       <use xlink:href="#DejaVuSans-30" x="95.410156"/>
      </g>
     </g>
    </g>
    <g id="ytick_2">
     <g id="line2d_10">
      <g>
       <use xlink:href="#m4374b003f8" x="57.6" y="263.232" style="stroke: #000000; stroke-width: 0.8"/>
      </g>
     </g>
     <g id="text_11">
      <!-- 0.2 -->
      <g transform="translate(34.696875 267.031219) scale(0.1 -0.1)">
       <use xlink:href="#DejaVuSans-30"/>
       <use xlink:href="#DejaVuSans-2e" x="63.623047"/>
       <use xlink:href="#DejaVuSans-32" x="95.410156"/>
      </g>
     </g>
    </g>
    <g id="ytick_3">
     <g id="line2d_11">
      <g>
       <use xlink:href="#m4374b003f8" x="57.6" y="218.88" style="stroke: #000000; stroke-width: 0.8"/>
      </g>
     </g>
     <g id="text_12">
      <!-- 0.4 -->
      <g transform="translate(34.696875 222.679219) scale(0.1 -0.1)">
       <use xlink:href="#DejaVuSans-30"/>
       <use xlink:href="#DejaVuSans-2e" x="63.623047"/>
       <use xlink:href="#DejaVuSans-34" x="95.410156"/>
      </g>
     </g>
    </g>
    <g id="ytick_4">
     <g id="line2d_12">
      <g>
       <use xlink:href="#m4374b003f8" x="57.6" y="174.528" style="stroke: #000000; stroke-width: 0.8"/>
      </g>
     </g>
     <g id="text_13">
      <!-- 0.6 -->
      <g transform="translate(34.696875 178.327219) scale(0.1 -0.1)">
       <use xlink:href="#DejaVuSans-30"/>
       <use xlink:href="#DejaVuSans-2e" x="63.623047"/>
       <use xlink:href="#DejaVuSans-36" x="95.410156"/>
      </g>
     </g>
    </g>
    <g id="ytick_5">
     <g id="line2d_13">
      <g>
       <use xlink:href="#m4374b003f8" x="57.6" y="130.176" style="stroke: #000000; stroke-width: 0.8"/>
      </g>
     </g>
     <g id="text_14">
      <!-- 0.8 -->
      <g transform="translate(34.696875 133.975219) scale(0.1 -0.1)">
       <use xlink:href="#DejaVuSans-30"/>
       <use xlink:href="#DejaVuSans-2e" x="63.623047"/>
       <use xlink:href="#DejaVuSans-38" x="95.410156"/>
      </g>
     </g>
    </g>
    <g id="ytick_6">
     <g id="line2d_14">
      <g>
       <use xlink:href="#m4374b003f8" x="57.6" y="85.824" style="stroke: #000000; stroke-width: 0.8"/>
      </g>
     </g>
     <g id="text_15">
      <!-- 1.0 -->
      <g transform="translate(34.696875 89.623219) scale(0.1 -0.1)">
       <defs>
        <path id="DejaVuSans-31" d="M 794 531 
L 1825 531 
L 1825 4091 
L 703 3866 
L 703 4441 
L 1819 4666 
L 2450 4666 
L 2450 531 
L 3481 531 
L 3481 0 
L 794 0 
L 794 531 
z
" transform="scale(0.015625)"/>
       </defs>
       <use xlink:href="#DejaVuSans-31"/>
       <use xlink:href="#DejaVuSans-2e" x="63.623047"/>
       <use xlink:href="#DejaVuSans-30" x="95.410156"/>
      </g>
     </g>
    </g>
    <g id="ytick_7">
     <g id="line2d_15">
      <g>
       <use xlink:href="#m4374b003f8" x="57.6" y="41.472" style="stroke: #000000; stroke-width: 0.8"/>
      </g>
     </g>
     <g id="text_16">
      <!-- 1.2 -->
      <g transform="translate(34.696875 45.271219) scale(0.1 -0.1)">
       <use xlink:href="#DejaVuSans-31"/>
       <use xlink:href="#DejaVuSans-2e" x="63.623047"/>
       <use xlink:href="#DejaVuSans-32" x="95.410156"/>
      </g>
     </g>
    </g>
    <g id="text_17">
     <!-- Absorbance -->
     <g transform="translate(28.617187 204.074875) rotate(-90) scale(0.1 -0.1)">
      <defs>
       <path id="DejaVuSans-41" d="M 2188 4044 
L 1331 1722 
L 3047 1722 
L 2188 4044 
z
M 1831 4666 
L 2547 4666 
L 4325 0 
L 3669 0 
L 3244 1197 
L 1141 1197 
L 716 0 
L 50 0 
L 1831 4666 
z
" transform="scale(0.015625)"/>
       <path id="DejaVuSans-62" d="M 3116 1747 
Q 3116 2381 2855 2742 
Q 2594 3103 2138 3103 
Q 1681 3103 1420 2742 
Q 1159 2381 1159 1747 
Q 1159 1113 1420 752 
Q 1681 391 2138 391 
Q 2594 391 2855 752 
Q 3116 1113 3116 1747 
z
M 1159 2969 
Q 1341 3281 1617 3432 
Q 1894 3584 2278 3584 
Q 2916 3584 3314 3078 
Q 3713 2572 3713 1747 
Q 3713 922 3314 415 
Q 2916 -91 2278 -91 
Q 1894 -91 1617 61 
Q 1341 213 1159 525 
L 1159 0 
L 581 0 
L 581 4863 
L 1159 4863 
L 1159 2969 
z
" transform="scale(0.015625)"/>
       <path id="DejaVuSans-73" d="M 2834 3397 
L 2834 2853 
Q 2591 2978 2328 3040 
Q 2066 3103 1784 3103 
Q 1356 3103 1142 2972 
Q 928 2841 928 2578 
Q 928 2378 1081 2264 
Q 1234 2150 1697 2047 
L 1894 2003 
Q 2506 1872 2764 1633 
Q 3022 1394 3022 966 
Q 3022 478 2636 193 
Q 2250 -91 1575 -91 
Q 1294 -91 989 -36 
Q 684 19 347 128 
L 347 722 
Q 666 556 975 473 
Q 1284 391 1588 391 
Q 1994 391 2212 530 
Q 2431 669 2431 922 
Q 2431 1156 2273 1281 
Q 2116 1406 1581 1522 
L 1381 1569 
Q 847 1681 609 1914 
Q 372 2147 372 2553 
Q 372 3047 722 3315 
Q 1072 3584 1716 3584 
Q 2034 3584 2315 3537 
Q 2597 3491 2834 3397 
z
" transform="scale(0.015625)"/>
       <path id="DejaVuSans-6f" d="M 1959 3097 
Q 1497 3097 1228 2736 
Q 959 2375 959 1747 
Q 959 1119 1226 758 
Q 1494 397 1959 397 
Q 2419 397 2687 759 
Q 2956 1122 2956 1747 
Q 2956 2369 2687 2733 
Q 2419 3097 1959 3097 
z
M 1959 3584 
Q 2709 3584 3137 3096 
Q 3566 2609 3566 1747 
Q 3566 888 3137 398 
Q 2709 -91 1959 -91 
Q 1206 -91 779 398 
Q 353 888 353 1747 
Q 353 2609 779 3096 
Q 1206 3584 1959 3584 
z
" transform="scale(0.015625)"/>
       <path id="DejaVuSans-72" d="M 2631 2963 
Q 2534 3019 2420 3045 
Q 2306 3072 2169 3072 
Q 1681 3072 1420 2755 
Q 1159 2438 1159 1844 
L 1159 0 
L 581 0 
L 581 3500 
L 1159 3500 
L 1159 2956 
Q 1341 3275 1631 3429 
Q 1922 3584 2338 3584 
Q 2397 3584 2469 3576 
Q 2541 3569 2628 3553 
L 2631 2963 
z
" transform="scale(0.015625)"/>
       <path id="DejaVuSans-63" d="M 3122 3366 
L 3122 2828 
Q 2878 2963 2633 3030 
Q 2388 3097 2138 3097 
Q 1578 3097 1268 2742 
Q 959 2388 959 1747 
Q 959 1106 1268 751 
Q 1578 397 2138 397 
Q 2388 397 2633 464 
Q 2878 531 3122 666 
L 3122 134 
Q 2881 22 2623 -34 
Q 2366 -91 2075 -91 
Q 1284 -91 818 406 
Q 353 903 353 1747 
Q 353 2603 823 3093 
Q 1294 3584 2113 3584 
Q 2378 3584 2631 3529 
Q 2884 3475 3122 3366 
z
" transform="scale(0.015625)"/>
      </defs>
      <use xlink:href="#DejaVuSans-41"/>
      <use xlink:href="#DejaVuSans-62" x="68.408203"/>
      <use xlink:href="#DejaVuSans-73" x="131.884766"/>
      <use xlink:href="#DejaVuSans-6f" x="183.984375"/>
      <use xlink:href="#DejaVuSans-72" x="245.166016"/>
      <use xlink:href="#DejaVuSans-62" x="286.279297"/>
      <use xlink:href="#DejaVuSans-61" x="349.755859"/>
      <use xlink:href="#DejaVuSans-6e" x="411.035156"/>
      <use xlink:href="#DejaVuSans-63" x="474.414062"/>
      <use xlink:href="#DejaVuSans-65" x="529.394531"/>
     </g>
    </g>
   </g>
   <g id="line2d_16">
    <path d="M 363.702857 308.095334 
L 362.682514 307.926893 
L 361.152 307.996822 
L 360.131657 307.933112 
L 356.560457 308.03289 
L 352.479086 308.007448 
L 350.4384 307.979753 
L 347.887543 307.932408 
L 346.8672 307.945356 
L 345.846857 307.933589 
L 343.296 307.847407 
L 340.234971 307.730254 
L 337.684114 307.512083 
L 335.643429 307.218528 
L 334.112914 307.108276 
L 331.562057 307.050172 
L 330.541714 306.993945 
L 330.031543 307.008623 
L 329.521371 306.900643 
L 328.501029 306.876759 
L 327.480686 306.77044 
L 326.970514 306.734873 
L 325.44 306.893876 
L 323.909486 307.052164 
L 321.8688 307.321104 
L 321.358629 307.22062 
L 316.767086 307.473494 
L 316.256914 307.452967 
L 315.746743 307.55092 
L 314.7264 307.472821 
L 312.685714 307.493913 
L 307.073829 307.426584 
L 301.972114 307.185825 
L 300.951771 307.07154 
L 298.911086 306.988296 
L 296.8704 306.743628 
L 295.850057 306.654637 
L 292.278857 306.428711 
L 290.238171 306.227502 
L 282.5856 305.32076 
L 279.524571 304.804545 
L 278.504229 304.645205 
L 271.361829 303.555835 
L 267.790629 303.091356 
L 251.975314 300.698311 
L 246.363429 299.395485 
L 244.832914 298.802257 
L 242.282057 297.660722 
L 240.751543 296.75629 
L 239.221029 295.706976 
L 236.670171 293.290514 
L 234.119314 290.161675 
L 231.568457 286.17749 
L 230.548114 284.406346 
L 229.0176 281.452787 
L 226.976914 277.194183 
L 223.915886 270.018861 
L 221.365029 263.735532 
L 213.712457 244.49304 
L 208.100571 231.274057 
L 206.570057 228.001615 
L 205.039543 225.013162 
L 203.509029 222.262372 
L 202.488686 220.657901 
L 201.468343 219.242717 
L 199.937829 217.454504 
L 198.407314 216.104411 
L 197.386971 215.456489 
L 195.346286 214.641299 
L 194.325943 214.491395 
L 192.795429 214.489366 
L 191.264914 214.796636 
L 189.7344 215.497795 
L 188.714057 216.14086 
L 187.183543 217.427916 
L 186.1632 218.426325 
L 184.632686 220.370358 
L 182.592 223.524651 
L 181.061486 226.131537 
L 178.000457 231.825819 
L 172.388571 243.534324 
L 168.817371 251.40971 
L 165.246171 258.647361 
L 161.1648 266.129559 
L 157.083429 272.600709 
L 155.042743 275.280032 
L 150.961371 278.839871 
L 150.4512 279.014245 
L 149.941029 279.314148 
L 149.430857 279.436399 
L 148.920686 279.71461 
L 147.390171 280.040688 
L 146.88 280.085219 
L 145.349486 279.812682 
L 144.329143 279.579032 
L 143.818971 279.253113 
L 143.3088 277.933081 
L 142.798629 278.925073 
L 142.288457 278.617938 
L 141.778286 278.156223 
L 141.268114 278.06184 
L 140.247771 277.202936 
L 139.227429 276.419464 
L 138.717257 275.712384 
L 138.207086 275.543898 
L 137.186743 274.395687 
L 136.676571 273.51834 
L 136.1664 273.213998 
L 134.635886 270.880564 
L 134.125714 270.594158 
L 133.615543 269.685413 
L 133.105371 264.973883 
L 132.085029 262.68129 
L 131.064686 259.434994 
L 130.044343 254.754219 
L 129.534171 251.793036 
L 129.024 248.088805 
L 128.513829 243.500367 
L 128.003657 237.870291 
L 127.493486 230.891398 
L 126.983314 222.227854 
L 126.473143 211.537063 
L 125.962971 198.170224 
L 125.4528 181.733257 
L 124.942629 161.209743 
L 124.432457 135.855567 
L 123.922286 104.610849 
L 123.412114 66.007327 
L 122.727312 -1 
L 122.727312 -1 
" clip-path="url(#p46254ca036)" style="fill: none; stroke: #e01f1f; stroke-width: 0.5; stroke-linecap: square"/>
   </g>
   <g id="line2d_17">
    <path d="M 363.702857 308.107951 
L 363.192686 307.981848 
L 355.029943 308.026105 
L 346.8672 307.953336 
L 345.336686 307.982289 
L 344.316343 307.899951 
L 342.785829 307.828324 
L 340.234971 307.739776 
L 338.194286 307.584 
L 336.663771 307.382628 
L 335.643429 307.25387 
L 333.092571 307.034827 
L 331.562057 307.025661 
L 330.031543 307.003882 
L 326.460343 306.850464 
L 323.909486 307.073334 
L 322.889143 307.220266 
L 319.828114 307.38557 
L 319.317943 307.366415 
L 318.807771 307.466993 
L 317.787429 307.472712 
L 316.767086 307.52235 
L 310.645029 307.56188 
L 309.624686 307.584728 
L 308.094171 307.552935 
L 306.053486 307.497061 
L 305.033143 307.44193 
L 301.972114 307.362355 
L 300.951771 307.24493 
L 297.890743 307.083731 
L 296.360229 306.894396 
L 287.687314 306.211279 
L 285.136457 305.83867 
L 284.116114 305.779155 
L 281.565257 305.383236 
L 274.422857 304.367121 
L 273.912686 304.207007 
L 272.382171 304.014146 
L 268.3008 303.450005 
L 255.546514 301.713861 
L 254.526171 301.55815 
L 246.8736 299.989415 
L 245.853257 299.700369 
L 243.3024 298.67596 
L 240.241371 296.939028 
L 238.710857 295.794986 
L 236.670171 293.84169 
L 234.629486 291.459555 
L 232.078629 287.726026 
L 228.507429 281.078228 
L 226.976914 277.811337 
L 223.915886 270.726449 
L 217.793829 255.418062 
L 212.181943 241.410623 
L 208.100571 231.871741 
L 206.059886 227.527881 
L 204.0192 223.714278 
L 202.488686 221.153048 
L 201.468343 219.727091 
L 199.427657 217.454758 
L 198.407314 216.567538 
L 197.386971 215.911076 
L 196.366629 215.422865 
L 195.346286 215.057951 
L 193.815771 214.860759 
L 192.285257 214.967382 
L 190.754743 215.405781 
L 189.224229 216.127883 
L 186.673371 218.255215 
L 185.142857 220.053435 
L 182.592 223.951983 
L 181.061486 226.562424 
L 178.000457 232.34791 
L 174.429257 239.682663 
L 168.3072 253.151664 
L 165.246171 259.426197 
L 160.654629 267.815277 
L 158.103771 271.955723 
L 155.042743 276.132171 
L 152.491886 278.534209 
L 150.4512 279.923129 
L 149.941029 280.188842 
L 149.430857 280.187292 
L 148.920686 280.537515 
L 148.410514 280.730453 
L 147.900343 280.760881 
L 146.88 280.934259 
L 146.369829 280.763135 
L 145.859657 280.812439 
L 144.329143 280.449495 
L 143.818971 279.956914 
L 143.3088 278.780502 
L 142.798629 279.688668 
L 142.288457 279.42877 
L 141.778286 278.986483 
L 141.268114 278.91739 
L 140.757943 278.591132 
L 140.247771 278.048645 
L 139.227429 277.37116 
L 138.717257 276.634195 
L 138.207086 276.451883 
L 137.186743 275.381978 
L 136.676571 274.489629 
L 136.1664 274.238839 
L 135.146057 272.846314 
L 134.635886 271.985738 
L 134.125714 271.592557 
L 133.615543 270.891508 
L 133.105371 265.838665 
L 132.5952 264.805251 
L 131.574857 262.052007 
L 130.554514 258.231372 
L 129.534171 252.757578 
L 129.024 249.083873 
L 128.003657 238.954475 
L 127.493486 232.050467 
L 126.983314 223.486355 
L 126.473143 212.781474 
L 125.962971 199.55261 
L 125.4528 183.12939 
L 124.942629 162.796955 
L 124.432457 137.619185 
L 123.922286 106.25232 
L 123.412114 67.747787 
L 122.713574 -1 
L 122.713574 -1 
" clip-path="url(#p46254ca036)" style="fill: none; stroke: #d51f2a; stroke-width: 0.5; stroke-linecap: square"/>
   </g>
   <g id="line2d_18">
    <path d="M 363.702857 308.379268 
L 363.192686 308.232037 
L 360.641829 308.206903 
L 354.0096 308.238716 
L 352.479086 308.209307 
L 343.296 307.970172 
L 341.765486 307.866511 
L 340.745143 307.846329 
L 333.602743 307.04918 
L 331.051886 306.984758 
L 326.460343 306.738997 
L 322.889143 306.994832 
L 320.848457 307.116284 
L 319.828114 307.109298 
L 318.807771 307.190362 
L 317.277257 307.252347 
L 314.7264 307.263601 
L 313.195886 307.284909 
L 309.114514 307.277206 
L 303.502629 307.06357 
L 302.992457 306.956287 
L 301.461943 306.911511 
L 299.421257 306.765555 
L 298.911086 306.780697 
L 297.890743 306.605432 
L 297.380571 306.572269 
L 296.8704 306.415116 
L 294.829714 306.317447 
L 283.095771 305.054324 
L 281.565257 304.805395 
L 280.544914 304.640082 
L 279.0144 304.392057 
L 276.463543 303.977547 
L 273.402514 303.53309 
L 271.361829 303.240509 
L 269.321143 302.944125 
L 267.790629 302.7286 
L 264.219429 302.195538 
L 263.199086 302.094003 
L 256.566857 301.134724 
L 249.424457 299.8338 
L 245.343086 298.748702 
L 244.322743 298.236659 
L 242.282057 297.332592 
L 239.7312 295.759669 
L 237.690514 294.025394 
L 236.16 292.541693 
L 234.119314 289.977064 
L 232.5888 287.727564 
L 229.527771 282.355029 
L 225.956571 274.777777 
L 223.915886 270.015722 
L 219.324343 258.629093 
L 216.773486 252.082952 
L 214.222629 245.791252 
L 211.1616 238.283959 
L 207.5904 230.084027 
L 205.549714 225.807783 
L 202.998857 221.196789 
L 201.468343 218.931607 
L 198.917486 216.077467 
L 196.8768 214.629059 
L 193.815771 213.825363 
L 191.264914 214.070886 
L 188.714057 215.389626 
L 187.183543 216.570357 
L 185.653029 218.15621 
L 183.102171 221.719783 
L 181.571657 224.297695 
L 179.0208 228.946618 
L 176.469943 233.889765 
L 173.408914 240.312858 
L 170.858057 245.847845 
L 168.817371 250.321478 
L 166.266514 255.629632 
L 162.185143 263.294211 
L 157.5936 270.819031 
L 154.532571 274.61974 
L 152.491886 276.51229 
L 151.471543 277.290786 
L 149.941029 278.171004 
L 149.430857 278.212581 
L 148.920686 278.609346 
L 146.88 278.833856 
L 144.329143 278.336267 
L 143.818971 277.921981 
L 143.3088 276.630904 
L 142.798629 277.618683 
L 142.288457 277.286444 
L 141.778286 276.79859 
L 141.268114 276.675154 
L 140.757943 276.407908 
L 139.7376 275.476966 
L 139.227429 275.211163 
L 138.717257 274.436365 
L 138.207086 274.147811 
L 137.186743 273.139749 
L 136.676571 272.258103 
L 136.1664 271.845083 
L 135.146057 270.498659 
L 134.635886 269.36917 
L 134.125714 269.354006 
L 133.615543 268.440251 
L 133.105371 263.641463 
L 132.085029 261.304279 
L 131.064686 258.080199 
L 130.554514 256.07459 
L 129.534171 250.456426 
L 129.024 246.836545 
L 128.513829 242.263606 
L 128.003657 236.630575 
L 127.493486 229.629449 
L 126.983314 220.993068 
L 126.473143 210.341633 
L 125.962971 197.040316 
L 125.4528 180.485352 
L 124.942629 160.138933 
L 124.432457 134.768406 
L 123.922286 103.513258 
L 123.412114 64.726682 
L 122.737911 -1 
L 122.737911 -1 
" clip-path="url(#p46254ca036)" style="fill: none; stroke: #ca1f35; stroke-width: 0.5; stroke-linecap: square"/>
   </g>
   <g id="line2d_19">
    <path d="M 363.702857 308.213864 
L 363.192686 308.038647 
L 356.050286 308.134203 
L 352.989257 308.075811 
L 351.458743 308.083711 
L 346.8672 307.975947 
L 345.336686 307.986464 
L 342.275657 307.887911 
L 340.745143 307.831538 
L 338.704457 307.679996 
L 338.194286 307.584 
L 337.684114 307.603621 
L 336.1536 307.330341 
L 333.602743 307.123575 
L 331.562057 307.108225 
L 329.0112 306.944253 
L 327.480686 306.819949 
L 326.460343 306.854115 
L 321.8688 307.373295 
L 320.848457 307.278112 
L 317.277257 307.456819 
L 316.767086 307.418968 
L 315.746743 307.51182 
L 314.216229 307.515369 
L 312.685714 307.486465 
L 310.645029 307.481345 
L 309.624686 307.514419 
L 302.482286 307.240457 
L 300.4416 307.036073 
L 299.421257 307.012002 
L 297.380571 306.883689 
L 295.850057 306.65467 
L 294.829714 306.607292 
L 292.278857 306.430022 
L 290.748343 306.272407 
L 288.707657 306.078406 
L 284.626286 305.549206 
L 283.095771 305.30054 
L 282.075429 305.147747 
L 277.994057 304.508095 
L 274.422857 303.90241 
L 273.402514 303.77934 
L 271.872 303.51464 
L 268.3008 303.017601 
L 267.280457 302.892049 
L 261.1584 301.992535 
L 249.424457 299.97875 
L 247.893943 299.635706 
L 244.322743 298.491492 
L 240.751543 296.751262 
L 238.710857 295.324579 
L 236.16 292.90435 
L 234.119314 290.446251 
L 232.078629 287.497762 
L 229.0176 282.154336 
L 227.997257 280.137345 
L 224.936229 273.4746 
L 217.793829 255.979786 
L 214.7328 248.325414 
L 209.631086 236.030634 
L 206.570057 229.222318 
L 204.529371 225.220796 
L 202.998857 222.524121 
L 201.468343 220.182843 
L 199.937829 218.328513 
L 198.917486 217.289128 
L 197.386971 216.109647 
L 195.856457 215.31899 
L 194.836114 214.993961 
L 192.795429 214.783102 
L 192.285257 214.897417 
L 191.775086 214.883578 
L 190.244571 215.36294 
L 189.7344 215.539756 
L 187.693714 216.931273 
L 186.1632 218.293136 
L 184.632686 220.143011 
L 182.592 223.13438 
L 180.041143 227.560501 
L 178.510629 230.325215 
L 174.939429 237.36086 
L 169.327543 249.511035 
L 167.797029 252.81022 
L 164.225829 259.838911 
L 158.613943 269.556301 
L 156.573257 272.553171 
L 155.042743 274.471905 
L 153.512229 276.007825 
L 152.491886 276.936454 
L 150.961371 278.004505 
L 149.941029 278.552768 
L 148.920686 278.940017 
L 146.88 279.253778 
L 146.369829 279.071658 
L 145.859657 279.202733 
L 144.839314 278.96223 
L 143.818971 278.618914 
L 143.3088 277.035449 
L 142.798629 278.002334 
L 142.288457 277.779159 
L 141.778286 277.263528 
L 141.268114 277.164555 
L 140.247771 276.339341 
L 139.227429 275.551456 
L 138.717257 274.829741 
L 138.207086 274.638864 
L 137.186743 273.579636 
L 136.676571 272.663366 
L 136.1664 272.351843 
L 135.146057 271.031636 
L 134.635886 269.912352 
L 134.125714 269.773524 
L 133.615543 269.114376 
L 133.105371 264.160274 
L 132.5952 263.131044 
L 131.574857 260.286678 
L 131.064686 258.630928 
L 130.044343 254.041621 
L 129.534171 251.063077 
L 129.024 247.405908 
L 128.513829 242.865194 
L 128.003657 237.319025 
L 127.493486 230.359496 
L 126.983314 221.828548 
L 126.473143 211.166056 
L 125.962971 197.945692 
L 125.4528 181.528393 
L 124.942629 161.264572 
L 124.432457 136.046567 
L 123.922286 104.895603 
L 123.412114 66.545496 
L 122.716998 -1 
L 122.716998 -1 
" clip-path="url(#p46254ca036)" style="fill: none; stroke: #be1f41; stroke-width: 0.5; stroke-linecap: square"/>
   </g>
   <g id="line2d_20">
    <path d="M 363.702857 308.169291 
L 362.682514 307.980507 
L 361.152 308.015775 
L 355.540114 308.070906 
L 353.499429 308.052596 
L 352.989257 308.137316 
L 352.479086 308.019477 
L 351.968914 308.088384 
L 350.948571 308.046398 
L 348.907886 308.020692 
L 347.887543 308.023179 
L 345.336686 307.964351 
L 344.316343 307.888628 
L 343.296 307.85671 
L 341.255314 307.844755 
L 339.214629 307.705838 
L 333.092571 307.109324 
L 331.562057 307.064693 
L 329.0112 306.934735 
L 327.990857 306.848047 
L 326.970514 306.821628 
L 325.44 306.955732 
L 322.378971 307.227886 
L 321.8688 307.351519 
L 321.358629 307.247984 
L 319.317943 307.397599 
L 312.685714 307.522537 
L 311.665371 307.508272 
L 310.134857 307.581045 
L 307.584 307.445452 
L 303.502629 307.320055 
L 301.972114 307.262352 
L 301.461943 307.275028 
L 300.4416 307.073548 
L 299.421257 307.094829 
L 298.400914 306.993054 
L 297.380571 306.927381 
L 296.360229 306.736326 
L 287.687314 306.019554 
L 285.136457 305.675059 
L 284.116114 305.530888 
L 278.504229 304.70006 
L 277.483886 304.511068 
L 276.463543 304.386075 
L 275.953371 304.241026 
L 274.933029 304.139089 
L 269.831314 303.369173 
L 259.627886 301.96297 
L 257.5872 301.60567 
L 256.566857 301.526747 
L 254.526171 301.157158 
L 250.954971 300.532534 
L 249.424457 300.188094 
L 247.893943 299.880732 
L 245.343086 299.189376 
L 244.322743 298.749328 
L 241.261714 297.33592 
L 239.221029 296.047169 
L 238.710857 295.571426 
L 238.200686 295.279776 
L 236.670171 293.821619 
L 235.139657 292.173586 
L 231.058286 286.417301 
L 229.0176 282.832169 
L 226.466743 277.633777 
L 223.405714 270.714688 
L 219.834514 262.057871 
L 214.7328 249.307087 
L 211.671771 241.884137 
L 207.5904 232.437312 
L 204.0192 225.296268 
L 202.488686 222.705912 
L 200.958171 220.502867 
L 198.917486 218.201401 
L 197.386971 216.967369 
L 195.346286 215.93643 
L 193.3056 215.493973 
L 192.285257 215.493729 
L 190.754743 215.79248 
L 189.7344 216.116875 
L 187.693714 217.381216 
L 185.142857 219.845281 
L 183.612343 221.895124 
L 180.551314 226.790469 
L 174.939429 237.401456 
L 168.817371 250.586661 
L 164.225829 259.754843 
L 159.634286 267.780728 
L 157.5936 270.98435 
L 156.573257 272.386141 
L 154.0224 275.356272 
L 152.491886 276.78081 
L 151.471543 277.515787 
L 150.4512 278.174806 
L 149.941029 278.431035 
L 149.430857 278.548229 
L 148.920686 278.881942 
L 146.88 279.230661 
L 146.369829 279.083208 
L 145.349486 278.945391 
L 144.839314 278.883657 
L 143.818971 278.288645 
L 143.3088 277.005512 
L 142.798629 278.000181 
L 139.227429 275.497978 
L 138.717257 274.692421 
L 138.207086 274.462439 
L 137.696914 274.034301 
L 137.186743 273.435525 
L 136.676571 272.561153 
L 136.1664 272.349339 
L 135.146057 270.831389 
L 134.635886 269.967393 
L 134.125714 269.654498 
L 133.615543 268.765242 
L 133.105371 264.012697 
L 132.085029 261.597732 
L 131.064686 258.376904 
L 130.554514 256.320624 
L 129.534171 250.748297 
L 129.024 247.065651 
L 128.513829 242.504726 
L 128.003657 236.905368 
L 127.493486 229.91551 
L 126.983314 221.342588 
L 126.473143 210.614404 
L 125.962971 197.33103 
L 125.4528 180.890335 
L 124.942629 160.483007 
L 124.432457 135.281498 
L 123.922286 103.976281 
L 122.901943 18.208543 
L 122.731492 -1 
L 122.731492 -1 
" clip-path="url(#p46254ca036)" style="fill: none; stroke: #b31f4c; stroke-width: 0.5; stroke-linecap: square"/>
   </g>
   <g id="line2d_21">
    <path d="M 363.702857 308.321126 
L 363.192686 308.151602 
L 360.641829 308.098729 
L 359.621486 308.147409 
L 355.029943 308.179369 
L 354.0096 308.158094 
L 351.458743 308.127408 
L 344.316343 307.959754 
L 343.296 307.951623 
L 342.275657 307.872901 
L 340.234971 307.801607 
L 335.643429 307.275559 
L 334.623086 307.159442 
L 332.072229 307.098855 
L 331.562057 307.011029 
L 330.031543 306.980115 
L 326.460343 306.740416 
L 321.8688 307.226997 
L 321.358629 307.086687 
L 319.828114 307.179066 
L 317.787429 307.328214 
L 316.767086 307.339002 
L 309.114514 307.316969 
L 307.073829 307.231728 
L 304.522971 307.152415 
L 299.931429 306.858389 
L 298.911086 306.857191 
L 295.339886 306.402479 
L 293.809371 306.307481 
L 292.278857 306.172309 
L 289.217829 305.826407 
L 288.707657 305.833592 
L 287.687314 305.616946 
L 286.666971 305.528513 
L 280.034743 304.489673 
L 270.851657 302.970558 
L 269.831314 302.835482 
L 269.321143 302.681634 
L 268.3008 302.679469 
L 266.770286 302.374893 
L 259.117714 301.256342 
L 257.5872 300.97772 
L 254.526171 300.555358 
L 252.485486 300.167271 
L 251.975314 300.129794 
L 250.954971 299.875651 
L 249.424457 299.569344 
L 248.914286 299.414914 
L 248.404114 299.401451 
L 246.8736 298.916541 
L 245.343086 298.508882 
L 244.322743 297.937031 
L 243.812571 297.862936 
L 241.261714 296.638616 
L 239.221029 295.381671 
L 236.16 292.710758 
L 234.119314 290.443782 
L 232.078629 287.675561 
L 228.507429 281.533602 
L 225.956571 276.357048 
L 224.426057 273.017724 
L 220.854857 264.646659 
L 213.202286 245.81934 
L 210.651429 239.786467 
L 208.100571 234.012156 
L 205.549714 228.56259 
L 204.0192 225.730273 
L 202.488686 223.076173 
L 200.958171 220.826733 
L 199.937829 219.518773 
L 198.407314 217.962931 
L 196.8768 216.754217 
L 194.325943 215.622406 
L 191.775086 215.4857 
L 191.264914 215.493974 
L 189.224229 216.162305 
L 187.693714 217.062988 
L 185.142857 219.467593 
L 184.122514 220.687284 
L 182.081829 223.587204 
L 177.490286 231.49582 
L 175.959771 234.488061 
L 173.919086 238.614757 
L 171.8784 242.789038 
L 169.837714 247.28612 
L 164.736 257.462631 
L 161.674971 262.927324 
L 158.613943 267.993389 
L 156.573257 270.938729 
L 155.552914 272.259448 
L 154.0224 273.950149 
L 153.002057 274.96222 
L 150.4512 276.743603 
L 149.430857 277.155711 
L 148.410514 277.476236 
L 146.88 277.667995 
L 146.369829 277.473361 
L 145.859657 277.628302 
L 144.839314 277.402374 
L 144.329143 277.225386 
L 143.818971 276.91117 
L 143.3088 275.443451 
L 142.798629 276.461512 
L 142.288457 276.144388 
L 141.778286 275.64742 
L 141.268114 275.516632 
L 140.757943 275.248047 
L 140.247771 274.704179 
L 139.7376 274.401267 
L 139.227429 273.935461 
L 138.717257 273.267834 
L 137.696914 272.500302 
L 136.676571 271.065707 
L 136.1664 270.731839 
L 134.635886 268.366818 
L 134.125714 267.956725 
L 133.615543 267.285655 
L 133.105371 262.239388 
L 132.085029 259.980057 
L 131.064686 256.664671 
L 130.044343 252.119836 
L 129.534171 249.159966 
L 129.024 245.497153 
L 128.003657 235.293086 
L 127.493486 228.283857 
L 126.983314 219.69282 
L 126.473143 209.045146 
L 125.962971 195.746551 
L 125.4528 179.303332 
L 124.942629 158.909672 
L 124.432457 133.538153 
L 123.922286 102.34866 
L 123.412114 63.868739 
L 122.744046 -1 
L 122.744046 -1 
" clip-path="url(#p46254ca036)" style="fill: none; stroke: #a71f58; stroke-width: 0.5; stroke-linecap: square"/>
   </g>
   <g id="line2d_22">
    <path d="M 363.702857 308.076674 
L 362.682514 307.936008 
L 361.662171 307.976846 
L 360.641829 307.958463 
L 359.621486 308.017008 
L 358.090971 307.997485 
L 354.519771 308.057664 
L 351.968914 308.00882 
L 350.4384 307.992681 
L 347.887543 307.941236 
L 344.316343 307.906432 
L 340.234971 307.750987 
L 338.704457 307.636047 
L 332.5824 307.032893 
L 331.562057 307.054229 
L 326.970514 306.77323 
L 322.889143 307.147604 
L 321.8688 307.301244 
L 320.848457 307.248605 
L 319.317943 307.377521 
L 311.665371 307.541181 
L 311.1552 307.453738 
L 310.645029 307.577441 
L 308.094171 307.493696 
L 307.584 307.414254 
L 307.073829 307.475814 
L 305.543314 307.389523 
L 304.522971 307.342455 
L 299.931429 307.056844 
L 294.319543 306.570134 
L 292.278857 306.404145 
L 286.666971 305.709949 
L 285.136457 305.521565 
L 284.116114 305.336367 
L 282.075429 305.00281 
L 280.034743 304.663432 
L 279.0144 304.440997 
L 276.463543 304.016722 
L 274.422857 303.650731 
L 262.688914 301.741186 
L 261.1584 301.574771 
L 258.097371 301.011384 
L 256.566857 300.802943 
L 246.363429 298.790234 
L 242.282057 297.19995 
L 240.751543 296.446988 
L 239.221029 295.52673 
L 237.690514 294.421729 
L 235.139657 292.043892 
L 232.5888 288.959271 
L 231.058286 286.769287 
L 228.507429 282.639023 
L 225.956571 277.704821 
L 222.385371 269.984588 
L 208.100571 236.419888 
L 206.059886 232.079888 
L 203.509029 227.234765 
L 200.448 222.503673 
L 197.897143 219.797897 
L 196.366629 218.7049 
L 195.856457 218.335129 
L 193.815771 217.494039 
L 193.3056 217.348318 
L 192.795429 217.345298 
L 192.285257 217.195803 
L 189.7344 217.508671 
L 188.714057 217.930389 
L 186.673371 219.190956 
L 185.142857 220.561708 
L 184.122514 221.723861 
L 180.551314 226.884919 
L 179.0208 229.387952 
L 175.959771 234.929574 
L 172.898743 241.052097 
L 171.368229 244.243473 
L 164.736 257.640568 
L 158.613943 268.23196 
L 155.042743 273.228554 
L 150.961371 276.904945 
L 150.4512 277.072403 
L 149.941029 277.407273 
L 149.430857 277.500449 
L 148.920686 277.887642 
L 147.900343 278.154337 
L 145.859657 278.176672 
L 144.329143 277.776634 
L 143.818971 277.298043 
L 143.3088 276.039012 
L 142.798629 276.959783 
L 142.288457 276.702896 
L 141.778286 276.234621 
L 140.757943 275.810468 
L 140.247771 275.192417 
L 139.227429 274.423881 
L 138.717257 273.712836 
L 138.207086 273.451577 
L 137.186743 272.36198 
L 136.676571 271.528808 
L 136.1664 271.059559 
L 134.635886 268.702634 
L 134.125714 268.521842 
L 133.615543 267.610037 
L 133.105371 262.619767 
L 132.5952 261.63948 
L 131.574857 258.803114 
L 131.064686 257.098085 
L 130.044343 252.5207 
L 129.534171 249.571335 
L 129.024 245.89962 
L 128.513829 241.401791 
L 128.003657 235.866308 
L 127.493486 228.937207 
L 126.983314 220.395929 
L 126.473143 209.754137 
L 125.962971 196.539839 
L 125.4528 180.220558 
L 124.942629 159.815332 
L 124.432457 134.695311 
L 123.922286 103.625902 
L 123.412114 65.295661 
L 122.729964 -1 
L 122.729964 -1 
" clip-path="url(#p46254ca036)" style="fill: none; stroke: #9c1f63; stroke-width: 0.5; stroke-linecap: square"/>
   </g>
   <g id="line2d_23">
    <path d="M 363.702857 308.055336 
L 363.192686 307.91688 
L 360.641829 307.977549 
L 359.621486 307.949084 
L 358.601143 307.986798 
L 350.4384 307.987116 
L 348.397714 307.941935 
L 345.846857 307.963266 
L 342.275657 307.821902 
L 338.194286 307.584 
L 337.173943 307.477786 
L 336.1536 307.302223 
L 333.602743 307.093893 
L 325.950171 306.914526 
L 324.419657 307.129502 
L 323.399314 307.178067 
L 321.8688 307.416504 
L 321.358629 307.273969 
L 319.828114 307.394708 
L 317.787429 307.540718 
L 305.543314 307.47139 
L 301.461943 307.236249 
L 299.421257 307.108982 
L 296.360229 306.787529 
L 295.850057 306.694901 
L 295.339886 306.749009 
L 293.809371 306.577644 
L 292.278857 306.464878 
L 291.258514 306.359617 
L 288.707657 306.05244 
L 285.136457 305.554405 
L 283.095771 305.155335 
L 282.075429 305.063026 
L 279.524571 304.542998 
L 278.504229 304.386537 
L 277.994057 304.239684 
L 277.483886 304.2232 
L 275.953371 303.860415 
L 274.933029 303.720612 
L 270.341486 302.856329 
L 268.3008 302.566182 
L 267.280457 302.370995 
L 264.219429 301.875734 
L 262.688914 301.557883 
L 261.1584 301.296319 
L 256.056686 300.399774 
L 254.526171 300.092112 
L 245.343086 298.179485 
L 244.322743 297.719608 
L 242.282057 297.052958 
L 240.241371 296.179584 
L 236.16 293.542137 
L 232.5888 290.094883 
L 231.058286 288.290341 
L 227.997257 283.957828 
L 226.466743 281.462962 
L 222.385371 273.745269 
L 218.814171 266.127613 
L 210.651429 248.076705 
L 203.509029 233.607795 
L 201.468343 230.194715 
L 199.427657 227.287928 
L 197.386971 224.991154 
L 196.366629 224.040362 
L 193.815771 222.340854 
L 192.285257 221.654335 
L 191.264914 221.403994 
L 190.244571 221.28568 
L 188.714057 221.366806 
L 187.693714 221.660396 
L 186.1632 222.334768 
L 185.142857 223.033441 
L 184.632686 223.3878 
L 182.081829 226.041048 
L 180.041143 228.687243 
L 178.000457 231.549453 
L 174.429257 237.442863 
L 170.347886 245.267519 
L 166.776686 252.155017 
L 164.225829 256.802198 
L 161.674971 261.24438 
L 157.083429 268.558334 
L 155.552914 270.684008 
L 153.002057 273.412244 
L 151.471543 274.772672 
L 149.941029 275.832539 
L 149.430857 275.960538 
L 148.920686 276.346716 
L 148.410514 276.561613 
L 146.369829 276.766246 
L 145.859657 276.826071 
L 144.839314 276.676979 
L 144.329143 276.449961 
L 143.818971 276.092003 
L 143.3088 274.789512 
L 142.798629 275.788269 
L 139.7376 273.516973 
L 139.227429 273.129433 
L 138.717257 272.293783 
L 138.207086 272.17113 
L 137.186743 270.901499 
L 136.676571 270.398768 
L 136.1664 269.143306 
L 135.656229 269.095078 
L 135.146057 268.402538 
L 134.635886 267.219778 
L 134.125714 266.881042 
L 133.615543 266.235406 
L 133.105371 260.991005 
L 132.5952 259.926162 
L 131.574857 257.112978 
L 131.064686 255.428291 
L 130.044343 250.928928 
L 129.024 244.387846 
L 128.513829 239.863145 
L 128.003657 234.315277 
L 127.493486 227.463138 
L 126.983314 218.820762 
L 126.473143 208.267306 
L 125.962971 195.183482 
L 125.4528 178.696974 
L 124.942629 158.351414 
L 124.432457 133.173895 
L 123.922286 101.986199 
L 123.412114 63.615405 
L 122.745957 -1 
L 122.745957 -1 
" clip-path="url(#p46254ca036)" style="fill: none; stroke: #911f6e; stroke-width: 0.5; stroke-linecap: square"/>
   </g>
   <g id="line2d_24">
    <path d="M 363.702857 308.288998 
L 363.192686 308.130813 
L 361.152 308.132578 
L 359.111314 308.132157 
L 357.070629 308.162012 
L 349.928229 308.08371 
L 343.806171 307.987921 
L 341.765486 307.848925 
L 340.745143 307.765719 
L 339.214629 307.719885 
L 335.643429 307.209875 
L 330.031543 306.952691 
L 326.460343 306.70328 
L 324.419657 306.911044 
L 322.889143 307.035798 
L 314.216229 307.322329 
L 312.175543 307.284356 
L 300.951771 306.787456 
L 298.400914 306.503756 
L 297.380571 306.428516 
L 295.850057 306.19513 
L 295.339886 306.227374 
L 294.319543 306.062592 
L 288.707657 305.32062 
L 287.687314 305.130778 
L 286.666971 304.962856 
L 280.544914 303.748365 
L 269.321143 301.302651 
L 265.239771 300.481814 
L 264.219429 300.208902 
L 262.688914 299.940376 
L 245.343086 296.212987 
L 244.832914 295.937868 
L 242.282057 295.217221 
L 240.751543 294.618438 
L 238.200686 293.534864 
L 236.670171 292.701974 
L 235.649829 292.008673 
L 233.098971 290.122883 
L 232.078629 289.27302 
L 227.997257 284.950105 
L 225.956571 282.219196 
L 223.915886 279.143427 
L 221.8752 275.774099 
L 216.773486 266.369875 
L 204.0192 241.929246 
L 199.937829 235.32253 
L 198.407314 233.220443 
L 197.386971 231.970827 
L 195.346286 229.836225 
L 192.795429 227.738659 
L 190.244571 226.357941 
L 188.203886 225.79643 
L 185.653029 225.958164 
L 184.632686 226.33389 
L 182.592 227.647276 
L 180.551314 229.324704 
L 177.490286 232.522352 
L 174.429257 236.608079 
L 172.388571 239.851044 
L 169.837714 244.196517 
L 164.736 252.954126 
L 159.634286 261.039171 
L 158.613943 262.664623 
L 156.063086 266.310454 
L 154.532571 268.173309 
L 152.491886 270.257135 
L 149.941029 272.258897 
L 149.430857 272.451614 
L 148.410514 273.000106 
L 146.88 273.433088 
L 145.349486 273.272263 
L 144.839314 273.251094 
L 144.329143 273.054011 
L 143.818971 272.721961 
L 143.3088 271.220064 
L 142.798629 272.271147 
L 142.288457 271.916107 
L 141.778286 271.397739 
L 141.268114 271.22053 
L 140.247771 270.277659 
L 139.227429 269.31922 
L 138.717257 268.645159 
L 137.696914 267.575855 
L 137.186743 266.894491 
L 136.676571 266.413957 
L 136.1664 265.026345 
L 135.656229 264.923718 
L 134.125714 262.585989 
L 133.615543 261.937587 
L 133.105371 256.818357 
L 132.085029 254.443595 
L 131.064686 251.276414 
L 130.554514 249.297764 
L 129.534171 243.920883 
L 129.024 240.309177 
L 128.513829 235.857605 
L 128.003657 230.413749 
L 126.983314 215.06773 
L 126.473143 204.449849 
L 125.962971 191.347468 
L 125.4528 174.9022 
L 124.942629 154.628519 
L 124.432457 129.480635 
L 123.922286 98.362279 
L 123.412114 60.19795 
L 122.773811 -1 
L 122.773811 -1 
" clip-path="url(#p46254ca036)" style="fill: none; stroke: #851f7a; stroke-width: 0.5; stroke-linecap: square"/>
   </g>
   <g id="line2d_25">
    <path d="M 363.702857 308.15225 
L 362.682514 308.0478 
L 359.621486 308.001825 
L 358.601143 308.006695 
L 354.519771 308.037722 
L 353.499429 308.055363 
L 352.479086 308.047549 
L 343.296 307.891492 
L 341.255314 307.776185 
L 339.7248 307.706386 
L 336.663771 307.38157 
L 332.5824 307.061579 
L 327.480686 306.824858 
L 326.970514 306.748366 
L 324.419657 307.016556 
L 322.889143 307.168128 
L 321.8688 307.343813 
L 321.358629 307.178335 
L 320.848457 307.279846 
L 319.317943 307.34434 
L 318.2976 307.383277 
L 312.175543 307.478302 
L 310.645029 307.387904 
L 310.134857 307.447461 
L 309.114514 307.398875 
L 307.584 307.369085 
L 296.8704 306.47852 
L 295.850057 306.29945 
L 294.829714 306.26696 
L 293.809371 306.048421 
L 292.789029 305.970113 
L 288.197486 305.254006 
L 282.5856 304.025928 
L 281.055086 303.65197 
L 269.831314 300.72223 
L 268.810971 300.451415 
L 266.260114 299.804237 
L 265.239771 299.620721 
L 264.219429 299.285925 
L 262.688914 298.942755 
L 249.424457 295.654849 
L 247.893943 295.390638 
L 246.8736 295.146016 
L 245.853257 294.894728 
L 244.322743 294.368383 
L 243.3024 294.125399 
L 240.751543 293.420192 
L 237.180343 292.144806 
L 233.609143 290.449083 
L 230.548114 288.46933 
L 228.507429 286.862892 
L 226.466743 285.045103 
L 221.365029 278.978131 
L 218.814171 275.382574 
L 212.692114 265.920228 
L 211.1616 263.404804 
L 208.100571 258.422927 
L 205.549714 254.054615 
L 199.937829 245.130806 
L 198.917486 243.642798 
L 196.366629 240.318298 
L 193.3056 236.890698 
L 191.775086 235.417494 
L 189.7344 233.781379 
L 188.203886 232.847123 
L 186.1632 232.145714 
L 185.142857 232.039428 
L 184.632686 231.995485 
L 182.081829 232.582573 
L 178.510629 234.409707 
L 175.959771 236.469469 
L 172.898743 239.87785 
L 170.858057 242.740575 
L 156.573257 263.580334 
L 155.042743 265.490262 
L 151.981714 268.577553 
L 150.961371 269.392422 
L 149.941029 270.078567 
L 149.430857 270.25882 
L 148.920686 270.73607 
L 147.390171 271.315884 
L 146.88 271.389042 
L 144.839314 271.1583 
L 144.329143 270.988252 
L 143.818971 270.533928 
L 143.3088 269.178129 
L 142.798629 270.008757 
L 142.288457 269.685939 
L 141.778286 269.150061 
L 141.268114 268.99092 
L 140.757943 268.56002 
L 139.7376 267.332841 
L 139.227429 266.896061 
L 138.717257 265.981351 
L 138.207086 265.579575 
L 136.676571 263.515302 
L 136.1664 262.130268 
L 135.656229 261.859383 
L 133.615543 258.768484 
L 133.105371 253.54781 
L 132.085029 251.130601 
L 131.064686 247.945352 
L 130.044343 243.388003 
L 129.534171 240.515932 
L 129.024 236.963959 
L 128.513829 232.487529 
L 128.003657 226.97611 
L 127.493486 220.169394 
L 126.983314 211.683188 
L 126.473143 201.115991 
L 125.962971 187.898039 
L 125.4528 171.659685 
L 124.942629 151.314732 
L 124.432457 126.26737 
L 123.922286 95.221489 
L 122.901943 10.268147 
L 122.800436 -1 
L 122.800436 -1 
" clip-path="url(#p46254ca036)" style="fill: none; stroke: #7a1f85; stroke-width: 0.5; stroke-linecap: square"/>
   </g>
   <g id="line2d_26">
    <path d="M 363.702857 308.170032 
L 363.192686 307.984892 
L 359.111314 307.974244 
L 357.070629 308.030563 
L 355.029943 308.031605 
L 351.968914 308.060086 
L 349.928229 308.010072 
L 346.8672 307.917048 
L 345.336686 307.952639 
L 344.826514 307.869041 
L 343.806171 307.889452 
L 339.214629 307.69467 
L 338.704457 307.558472 
L 337.684114 307.504722 
L 336.663771 307.422225 
L 335.133257 307.17289 
L 333.602743 307.106332 
L 330.031543 306.999132 
L 327.990857 306.796092 
L 326.460343 306.799882 
L 324.419657 306.990835 
L 322.378971 307.198741 
L 321.8688 307.313041 
L 321.358629 307.178276 
L 319.828114 307.308142 
L 317.277257 307.435349 
L 314.7264 307.444342 
L 311.1552 307.404928 
L 309.624686 307.354585 
L 308.094171 307.324306 
L 304.522971 307.067811 
L 304.0128 307.166565 
L 302.482286 306.943305 
L 300.951771 306.845774 
L 299.421257 306.672642 
L 295.339886 306.091029 
L 293.809371 305.871716 
L 291.258514 305.515682 
L 290.748343 305.387971 
L 290.238171 305.38891 
L 289.728 305.197317 
L 287.687314 304.820641 
L 285.136457 304.243232 
L 275.4432 301.502229 
L 274.422857 301.148315 
L 270.851657 300.070741 
L 254.016 295.17087 
L 239.221029 291.389201 
L 234.629486 289.882305 
L 229.0176 287.18195 
L 226.466743 285.473748 
L 224.426057 283.843872 
L 221.8752 281.383707 
L 218.814171 278.085856 
L 216.263314 275.035694 
L 213.202286 271.081879 
L 210.141257 266.980859 
L 198.407314 249.648453 
L 194.325943 244.400183 
L 191.264914 240.829096 
L 189.7344 239.296834 
L 188.203886 237.9218 
L 185.653029 236.481264 
L 184.632686 236.150089 
L 183.612343 236.033057 
L 182.592 235.919714 
L 181.571657 235.988771 
L 180.551314 236.175124 
L 179.0208 236.543765 
L 178.000457 236.865483 
L 175.959771 237.926287 
L 173.919086 239.441597 
L 171.368229 242.160201 
L 164.736 250.645164 
L 160.144457 256.764304 
L 155.042743 263.451302 
L 150.961371 267.204529 
L 149.941029 267.96414 
L 149.430857 268.117841 
L 148.410514 268.806214 
L 146.369829 269.188252 
L 144.839314 268.965177 
L 144.329143 268.761848 
L 143.818971 268.393901 
L 143.3088 266.98494 
L 142.798629 267.837113 
L 141.778286 266.70732 
L 141.268114 266.525339 
L 140.757943 266.046318 
L 137.186743 261.360345 
L 136.676571 260.231762 
L 136.1664 259.735234 
L 135.656229 258.773432 
L 135.146057 258.089913 
L 134.635886 256.763805 
L 134.125714 256.407311 
L 133.615543 255.450974 
L 133.105371 249.96717 
L 132.5952 248.936714 
L 131.574857 246.013999 
L 131.064686 244.391446 
L 130.044343 239.822743 
L 129.024 233.440632 
L 128.003657 223.542699 
L 127.493486 216.789535 
L 126.983314 208.376285 
L 126.473143 197.894953 
L 125.962971 184.74081 
L 125.4528 168.55846 
L 124.942629 148.339236 
L 124.432457 123.469788 
L 123.922286 92.691014 
L 123.412114 54.681321 
L 122.821131 -1 
L 122.821131 -1 
" clip-path="url(#p46254ca036)" style="fill: none; stroke: #6e1f91; stroke-width: 0.5; stroke-linecap: square"/>
   </g>
   <g id="line2d_27">
    <path d="M 363.702857 308.265702 
L 363.192686 308.06324 
L 361.662171 308.10584 
L 347.377371 308.069935 
L 345.846857 308.040206 
L 344.316343 307.99423 
L 343.296 307.92395 
L 342.275657 307.888394 
L 338.704457 307.688634 
L 336.663771 307.373501 
L 333.092571 307.040695 
L 332.072229 307.032935 
L 330.031543 307.007872 
L 328.501029 306.820337 
L 327.480686 306.73391 
L 325.950171 306.763248 
L 321.8688 307.160709 
L 321.358629 307.055465 
L 319.828114 307.178667 
L 315.236571 307.312996 
L 305.543314 307.016504 
L 303.502629 306.803863 
L 302.482286 306.736258 
L 299.931429 306.472392 
L 298.911086 306.318411 
L 297.380571 306.142045 
L 295.850057 305.805967 
L 291.768686 305.227037 
L 285.136457 303.702481 
L 283.095771 303.096643 
L 282.5856 303.059047 
L 281.055086 302.483365 
L 277.483886 301.328308 
L 276.463543 300.965533 
L 272.892343 299.726213 
L 267.280457 297.845716 
L 266.260114 297.523759 
L 263.709257 296.691015 
L 262.688914 296.3077 
L 257.077029 294.437052 
L 255.546514 293.979365 
L 254.526171 293.597112 
L 254.016 293.529038 
L 252.995657 293.121503 
L 248.404114 291.754527 
L 247.383771 291.495191 
L 245.343086 291.067031 
L 244.322743 290.661538 
L 240.751543 289.831991 
L 237.690514 289.080512 
L 233.098971 287.822749 
L 226.976914 285.40443 
L 222.385371 282.54328 
L 219.324343 280.153433 
L 214.222629 275.389764 
L 208.100571 268.495856 
L 205.039543 264.509911 
L 195.346286 251.302193 
L 191.775086 246.590974 
L 189.7344 244.128633 
L 188.203886 242.45063 
L 186.673371 241.185364 
L 185.653029 240.416979 
L 184.122514 239.615953 
L 182.081829 239.053821 
L 180.041143 238.80927 
L 177.490286 238.934774 
L 176.469943 239.197104 
L 175.4496 239.547518 
L 174.939429 239.738166 
L 172.388571 241.539109 
L 171.368229 242.569195 
L 169.327543 244.735435 
L 166.266514 248.06698 
L 164.736 249.818163 
L 164.225829 250.330649 
L 163.205486 251.530783 
L 159.634286 255.949573 
L 157.5936 258.645345 
L 155.042743 261.665037 
L 154.532571 262.037723 
L 153.512229 263.125495 
L 150.4512 265.628858 
L 149.941029 265.975475 
L 149.430857 266.169756 
L 148.920686 266.59797 
L 146.88 267.295698 
L 145.859657 267.156014 
L 145.349486 267.115796 
L 144.329143 266.696768 
L 143.818971 266.302113 
L 143.3088 264.867264 
L 142.798629 265.636558 
L 140.757943 263.689286 
L 139.7376 262.217325 
L 139.227429 261.61428 
L 138.717257 260.679072 
L 138.207086 260.105321 
L 136.676571 257.696084 
L 136.1664 256.166631 
L 135.656229 255.728106 
L 135.146057 254.856186 
L 134.635886 253.479545 
L 134.125714 253.110848 
L 133.615543 252.174913 
L 133.105371 246.566375 
L 132.5952 245.453498 
L 131.064686 240.572654 
L 130.554514 238.554911 
L 129.534171 233.115536 
L 129.024 229.63749 
L 128.513829 225.200047 
L 128.003657 219.760097 
L 127.493486 213.016556 
L 126.983314 204.665569 
L 126.473143 194.218458 
L 125.962971 181.239512 
L 125.4528 165.004158 
L 124.942629 145.038362 
L 124.432457 120.055041 
L 123.922286 89.253308 
L 123.412114 51.428388 
L 122.846532 -1 
L 122.846532 -1 
" clip-path="url(#p46254ca036)" style="fill: none; stroke: #631f9c; stroke-width: 0.5; stroke-linecap: square"/>
   </g>
   <g id="line2d_28">
    <path d="M 363.702857 308.128274 
L 363.192686 308.006989 
L 358.601143 308.059731 
L 357.070629 308.05132 
L 355.029943 308.043274 
L 347.377371 307.998561 
L 346.357029 307.975917 
L 345.336686 307.972966 
L 344.316343 307.927351 
L 338.704457 307.644624 
L 333.602743 307.117835 
L 330.031543 307.049452 
L 328.501029 306.863084 
L 325.44 306.900363 
L 324.929829 307.030113 
L 323.909486 307.079745 
L 321.8688 307.334477 
L 321.358629 307.159411 
L 320.848457 307.273846 
L 318.807771 307.336434 
L 314.216229 307.453276 
L 307.584 307.317463 
L 306.053486 307.172664 
L 301.461943 306.850888 
L 298.911086 306.486648 
L 297.380571 306.301683 
L 295.339886 305.904386 
L 294.319543 305.783759 
L 292.789029 305.462391 
L 292.278857 305.51871 
L 291.768686 305.312986 
L 291.258514 305.25487 
L 290.748343 305.063932 
L 289.728 304.88158 
L 285.136457 303.707095 
L 282.5856 302.887714 
L 282.075429 302.828091 
L 280.544914 302.209492 
L 276.463543 300.809595 
L 274.422857 300.001683 
L 254.016 292.386088 
L 245.853257 289.78591 
L 245.343086 289.754668 
L 244.832914 289.448789 
L 243.812571 289.204279 
L 238.200686 287.873914 
L 237.180343 287.701683 
L 236.16 287.445402 
L 231.058286 286.269312 
L 230.548114 286.034275 
L 229.0176 285.69385 
L 225.956571 284.617108 
L 225.4464 284.49088 
L 223.915886 283.768527 
L 219.834514 281.530316 
L 215.242971 278.398878 
L 212.692114 276.370978 
L 209.120914 273.046488 
L 207.5904 271.38661 
L 206.059886 269.715309 
L 200.958171 263.294863 
L 198.917486 260.634191 
L 188.203886 246.498547 
L 185.653029 244.069687 
L 184.632686 243.411917 
L 183.612343 242.830791 
L 180.551314 241.683878 
L 178.000457 241.171697 
L 175.4496 241.311727 
L 173.408914 242.205378 
L 170.347886 244.518548 
L 161.674971 253.207659 
L 158.103771 257.532608 
L 157.083429 258.812109 
L 154.0224 261.916092 
L 153.002057 262.835745 
L 149.941029 265.158389 
L 149.430857 265.273795 
L 148.920686 265.685329 
L 147.390171 266.205447 
L 146.88 266.1066 
L 146.369829 266.162251 
L 144.329143 265.594508 
L 143.818971 264.930393 
L 143.3088 263.47007 
L 142.798629 264.199938 
L 142.288457 263.723921 
L 141.778286 263.008352 
L 140.757943 262.065464 
L 140.247771 261.121361 
L 139.227429 259.717779 
L 138.717257 258.579752 
L 138.207086 258.11493 
L 137.696914 256.91733 
L 137.186743 256.153519 
L 136.676571 254.9469 
L 135.656229 253.098618 
L 135.146057 252.081707 
L 134.635886 250.532269 
L 134.125714 250.006955 
L 133.615543 249.070518 
L 133.105371 243.262693 
L 132.085029 240.435419 
L 131.064686 236.877708 
L 130.044343 232.216208 
L 129.534171 229.239439 
L 129.024 225.596248 
L 128.513829 221.117644 
L 128.003657 215.651517 
L 127.493486 208.740365 
L 126.983314 200.318187 
L 126.473143 189.773864 
L 125.962971 176.731485 
L 125.4528 160.42831 
L 124.942629 140.2503 
L 124.432457 115.364382 
L 123.922286 84.429042 
L 123.412114 46.497824 
L 122.893295 -1 
L 122.893295 -1 
" clip-path="url(#p46254ca036)" style="fill: none; stroke: #581fa7; stroke-width: 0.5; stroke-linecap: square"/>
   </g>
   <g id="line2d_29">
    <path d="M 363.702857 308.157575 
L 362.682514 308.008097 
L 355.029943 308.090445 
L 352.989257 308.036838 
L 350.4384 308.046988 
L 348.397714 308.000127 
L 347.377371 307.975606 
L 344.826514 307.941412 
L 343.296 307.958597 
L 342.785829 307.860631 
L 342.275657 307.910101 
L 341.255314 307.838813 
L 339.7248 307.788343 
L 337.173943 307.531225 
L 335.643429 307.262184 
L 331.562057 307.084218 
L 330.031543 307.048337 
L 329.0112 306.959179 
L 325.44 306.939838 
L 323.399314 307.159366 
L 322.378971 307.248355 
L 321.8688 307.332415 
L 321.358629 307.210864 
L 320.338286 307.313546 
L 317.787429 307.450346 
L 312.685714 307.458649 
L 310.645029 307.447212 
L 308.604343 307.372035 
L 306.053486 307.273626 
L 305.543314 307.138784 
L 303.502629 307.051928 
L 297.380571 306.299807 
L 296.8704 306.099305 
L 295.339886 305.921804 
L 292.278857 305.396187 
L 290.748343 305.046426 
L 288.707657 304.550245 
L 285.646629 303.738798 
L 283.095771 302.920089 
L 282.5856 302.795641 
L 281.055086 302.182395 
L 266.260114 296.228845 
L 265.239771 295.80025 
L 250.954971 290.049324 
L 248.914286 289.416444 
L 247.893943 289.053741 
L 244.832914 288.0968 
L 244.322743 287.868852 
L 243.3024 287.635108 
L 235.649829 285.923151 
L 232.078629 285.229888 
L 230.548114 284.933006 
L 225.4464 283.697677 
L 219.324343 281.27829 
L 213.712457 278.122194 
L 212.692114 277.456269 
L 208.100571 273.752351 
L 204.529371 270.052865 
L 202.488686 267.782425 
L 201.468343 266.492009 
L 199.427657 264.045473 
L 196.8768 260.852353 
L 193.3056 256.163412 
L 191.775086 254.02045 
L 187.183543 248.187273 
L 184.122514 245.642763 
L 183.102171 245.05557 
L 181.571657 244.239019 
L 180.551314 243.956301 
L 179.0208 243.418139 
L 177.490286 243.094307 
L 176.469943 243.070422 
L 174.429257 243.258797 
L 172.898743 244.008174 
L 171.368229 244.979553 
L 170.858057 245.329683 
L 169.327543 246.640987 
L 165.756343 249.896133 
L 164.225829 251.194457 
L 158.613943 257.242501 
L 156.573257 259.590553 
L 155.042743 261.1905 
L 153.002057 262.843012 
L 151.981714 263.649705 
L 150.961371 264.448375 
L 148.410514 265.760658 
L 147.390171 266.030234 
L 146.88 266.088713 
L 145.349486 265.74783 
L 144.839314 265.56032 
L 144.329143 265.252471 
L 143.818971 264.743991 
L 143.3088 263.175258 
L 142.798629 263.950635 
L 140.757943 261.513087 
L 137.696914 256.242769 
L 137.186743 255.200744 
L 136.676571 253.859201 
L 135.656229 251.956398 
L 134.635886 249.427425 
L 134.125714 248.7546 
L 133.615543 247.81045 
L 133.105371 241.60776 
L 132.085029 238.713239 
L 131.064686 235.071237 
L 130.044343 230.366944 
L 129.024 223.753494 
L 128.513829 219.330505 
L 128.003657 213.830301 
L 127.493486 207.020518 
L 126.983314 198.571673 
L 126.473143 188.174049 
L 125.962971 175.223693 
L 125.4528 159.166385 
L 124.942629 139.256963 
L 124.432457 114.60754 
L 123.922286 83.949513 
L 123.412114 46.420384 
L 122.892319 -1 
L 122.892319 -1 
" clip-path="url(#p46254ca036)" style="fill: none; stroke: #4c1fb3; stroke-width: 0.5; stroke-linecap: square"/>
   </g>
   <g id="line2d_30">
    <path d="M 363.702857 308.256803 
L 363.192686 308.048287 
L 361.662171 308.06027 
L 355.029943 308.15929 
L 354.0096 308.12433 
L 351.458743 308.036637 
L 349.418057 308.041977 
L 347.887543 308.020481 
L 345.336686 307.959918 
L 338.194286 307.584 
L 334.623086 307.123514 
L 329.521371 306.841858 
L 326.970514 306.670268 
L 321.358629 306.9828 
L 320.338286 307.041607 
L 318.2976 307.121585 
L 313.706057 307.19608 
L 312.175543 307.159218 
L 310.645029 307.128987 
L 308.604343 307.047907 
L 307.584 306.974424 
L 307.073829 306.854027 
L 306.563657 306.943562 
L 306.053486 306.813228 
L 304.0128 306.702546 
L 301.461943 306.368867 
L 298.911086 306.103619 
L 297.380571 305.751437 
L 296.8704 305.662846 
L 296.360229 305.449942 
L 295.339886 305.388451 
L 292.789029 304.880645 
L 286.666971 303.330284 
L 285.136457 302.770681 
L 284.626286 302.708792 
L 283.605943 302.293536 
L 282.5856 301.936853 
L 282.075429 301.80286 
L 280.544914 301.158713 
L 279.0144 300.471186 
L 275.4432 298.938252 
L 273.912686 298.253779 
L 271.361829 297.142491 
L 269.831314 296.405892 
L 268.3008 295.706995 
L 266.260114 294.763398 
L 263.709257 293.619185 
L 262.688914 293.119553 
L 261.1584 292.433392 
L 253.505829 288.95007 
L 245.853257 286.007879 
L 245.343086 285.909283 
L 244.322743 285.440979 
L 240.751543 284.391814 
L 237.690514 283.712811 
L 236.16 283.354506 
L 234.119314 282.936185 
L 233.609143 282.92093 
L 232.078629 282.587623 
L 231.058286 282.486356 
L 223.405714 281.014632 
L 218.814171 279.63966 
L 213.712457 277.479947 
L 210.651429 275.731781 
L 209.631086 275.097568 
L 208.610743 274.179177 
L 207.5904 273.424027 
L 204.529371 270.620901 
L 201.978514 267.948279 
L 194.836114 259.616419 
L 188.714057 251.210565 
L 186.1632 248.374084 
L 184.122514 246.654961 
L 181.571657 245.147218 
L 179.0208 244.031434 
L 177.490286 243.520594 
L 176.980114 243.513535 
L 176.469943 243.384059 
L 175.959771 243.398982 
L 175.4496 243.24806 
L 173.919086 243.568482 
L 172.898743 243.90733 
L 171.368229 244.821905 
L 168.817371 246.655 
L 165.756343 249.065553 
L 164.736 249.9643 
L 164.225829 250.308931 
L 163.205486 251.216956 
L 158.613943 255.858546 
L 155.042743 259.498046 
L 154.0224 260.271318 
L 151.981714 261.794436 
L 149.941029 263.04358 
L 149.430857 263.068115 
L 148.920686 263.4853 
L 147.390171 263.819178 
L 146.369829 263.72916 
L 145.349486 263.426665 
L 144.329143 262.79807 
L 143.818971 262.232009 
L 143.3088 260.579477 
L 142.798629 261.333603 
L 142.288457 260.69336 
L 141.778286 259.871955 
L 141.268114 259.381553 
L 140.247771 257.642451 
L 139.227429 256.011445 
L 138.717257 254.609978 
L 138.207086 253.926109 
L 137.186743 251.566986 
L 136.676571 250.147328 
L 136.1664 249.188242 
L 135.146057 246.808163 
L 134.635886 245.180276 
L 134.125714 244.534766 
L 133.615543 243.38624 
L 133.105371 237.057299 
L 132.085029 233.998433 
L 131.064686 230.174163 
L 130.044343 225.294105 
L 129.024 218.521629 
L 128.513829 213.987491 
L 128.003657 208.451731 
L 127.493486 201.566553 
L 126.983314 193.173474 
L 126.473143 182.775738 
L 125.962971 169.721146 
L 125.4528 153.543938 
L 124.942629 133.618641 
L 124.432457 108.807959 
L 123.922286 78.413391 
L 122.948386 -1 
L 122.948386 -1 
" clip-path="url(#p46254ca036)" style="fill: none; stroke: #411fbe; stroke-width: 0.5; stroke-linecap: square"/>
   </g>
   <g id="line2d_31">
    <path d="M 363.702857 308.170428 
L 363.192686 307.931656 
L 362.682514 308.022811 
L 360.641829 308.005939 
L 357.5808 308.043687 
L 352.479086 308.043789 
L 339.214629 307.696436 
L 336.1536 307.306434 
L 335.133257 307.221205 
L 333.092571 307.066412 
L 329.521371 306.938157 
L 326.460343 306.788852 
L 321.8688 307.270283 
L 320.848457 307.169919 
L 319.828114 307.235729 
L 314.216229 307.396506 
L 312.175543 307.337928 
L 309.114514 307.274252 
L 307.584 307.218224 
L 307.073829 307.111416 
L 305.543314 307.070793 
L 301.461943 306.576572 
L 299.421257 306.39046 
L 290.748343 304.658144 
L 287.177143 303.700291 
L 285.646629 303.160925 
L 284.626286 302.834739 
L 280.034743 301.026369 
L 267.790629 295.313395 
L 266.260114 294.55574 
L 265.239771 294.043488 
L 263.199086 293.073197 
L 260.648229 291.737326 
L 257.077029 290.019229 
L 255.546514 289.287706 
L 250.954971 287.145729 
L 242.282057 283.808071 
L 240.751543 283.368623 
L 237.690514 282.603204 
L 236.670171 282.351087 
L 233.609143 281.753737 
L 232.5888 281.600568 
L 228.507429 281.005186 
L 227.997257 281.027391 
L 226.976914 280.780425 
L 226.466743 280.778441 
L 224.426057 280.370879 
L 223.405714 280.201698 
L 220.344686 279.605582 
L 212.692114 277.12458 
L 208.610743 274.869219 
L 203.509029 270.597116 
L 200.958171 268.095111 
L 199.937829 267.000822 
L 198.917486 265.970012 
L 193.815771 259.844039 
L 191.775086 257.074546 
L 189.224229 253.587128 
L 187.183543 251.084896 
L 185.142857 249.101638 
L 184.122514 248.298735 
L 183.102171 247.576151 
L 179.0208 245.407671 
L 176.980114 244.740073 
L 174.939429 244.451466 
L 172.388571 245.218007 
L 170.858057 246.060835 
L 162.695314 252.069023 
L 161.1648 253.38954 
L 160.144457 254.471203 
L 159.124114 255.507075 
L 155.042743 259.406129 
L 153.512229 260.51501 
L 151.981714 261.53782 
L 150.961371 262.156439 
L 149.941029 262.672665 
L 149.430857 262.745254 
L 148.920686 263.108387 
L 147.390171 263.3646 
L 145.859657 263.102627 
L 144.839314 262.61704 
L 144.329143 262.17122 
L 143.818971 261.557313 
L 143.3088 259.830642 
L 142.798629 260.579117 
L 142.288457 259.874849 
L 141.778286 258.922561 
L 141.268114 258.430976 
L 140.757943 257.633615 
L 139.7376 255.663496 
L 139.227429 254.730856 
L 138.717257 253.349093 
L 138.207086 252.603361 
L 135.146057 245.093091 
L 134.635886 243.381125 
L 133.615543 241.413458 
L 133.105371 234.98679 
L 132.085029 231.668198 
L 131.064686 227.655408 
L 130.044343 222.701785 
L 129.024 215.765157 
L 128.513829 211.226729 
L 128.003657 205.564843 
L 127.493486 198.62193 
L 126.983314 190.135413 
L 126.473143 179.572255 
L 125.962971 166.495562 
L 125.4528 150.247308 
L 124.942629 130.23246 
L 124.432457 105.423034 
L 123.922286 74.86077 
L 122.988227 -1 
L 122.988227 -1 
" clip-path="url(#p46254ca036)" style="fill: none; stroke: #351fca; stroke-width: 0.5; stroke-linecap: square"/>
   </g>
   <g id="line2d_32">
    <path d="M 363.702857 308.215225 
L 363.192686 308.0662 
L 360.641829 308.068534 
L 345.336686 307.966615 
L 344.316343 307.942809 
L 343.296 307.89456 
L 336.663771 307.392284 
L 335.133257 307.134229 
L 332.072229 307.02847 
L 330.541714 306.931724 
L 329.521371 306.896713 
L 327.480686 306.707418 
L 324.929829 306.779924 
L 324.419657 306.903032 
L 323.909486 306.876987 
L 323.399314 306.969295 
L 322.889143 306.940015 
L 321.8688 307.183877 
L 321.358629 307.010796 
L 320.338286 307.09195 
L 319.317943 307.146566 
L 318.2976 307.23028 
L 316.767086 307.158275 
L 315.746743 307.266601 
L 309.624686 307.139181 
L 308.094171 307.055001 
L 305.543314 306.81682 
L 303.502629 306.671478 
L 301.972114 306.494125 
L 297.380571 305.797357 
L 295.850057 305.449862 
L 294.319543 305.184346 
L 289.728 304.182578 
L 287.177143 303.378586 
L 286.666971 303.261656 
L 285.646629 302.893343 
L 284.116114 302.303437 
L 282.5856 301.809327 
L 280.034743 300.695 
L 278.504229 299.936727 
L 276.463543 299.000714 
L 273.912686 297.759175 
L 270.851657 296.203727 
L 268.810971 295.18175 
L 267.790629 294.62911 
L 266.260114 293.862994 
L 261.1584 291.140116 
L 259.627886 290.316971 
L 258.607543 289.758894 
L 255.546514 288.159933 
L 244.832914 283.130395 
L 241.771886 281.927179 
L 241.261714 281.862039 
L 240.241371 281.492981 
L 238.200686 280.91111 
L 237.180343 280.635348 
L 235.649829 280.278302 
L 233.609143 279.87386 
L 231.058286 279.408308 
L 229.0176 279.160254 
L 219.834514 277.896669 
L 214.7328 276.76849 
L 213.202286 276.307148 
L 211.1616 275.519557 
L 209.631086 274.812243 
L 209.120914 274.569969 
L 208.100571 273.900976 
L 207.080229 273.217177 
L 204.0192 270.867277 
L 202.998857 269.929128 
L 199.937829 267.140757 
L 197.897143 265.024785 
L 194.836114 261.614696 
L 192.795429 258.938667 
L 186.1632 250.47093 
L 183.102171 248.091148 
L 181.571657 247.165292 
L 178.510629 245.595571 
L 176.980114 245.12034 
L 175.959771 244.904868 
L 174.939429 244.749994 
L 174.429257 244.735203 
L 173.919086 244.953305 
L 172.898743 245.10582 
L 172.388571 245.243776 
L 171.368229 245.803872 
L 169.837714 246.642384 
L 167.286857 248.429977 
L 166.776686 248.793952 
L 166.266514 249.014546 
L 164.736 250.15789 
L 163.205486 251.198048 
L 160.144457 253.762633 
L 155.042743 258.323551 
L 150.961371 260.843456 
L 149.941029 261.252538 
L 149.430857 261.320918 
L 148.920686 261.612925 
L 147.390171 261.80622 
L 146.369829 261.516117 
L 145.859657 261.379387 
L 144.839314 260.850991 
L 144.329143 260.363051 
L 143.818971 259.677037 
L 143.3088 257.966922 
L 142.798629 258.60961 
L 142.288457 257.888344 
L 141.778286 256.906371 
L 141.268114 256.359325 
L 139.227429 252.346323 
L 138.207086 249.88186 
L 137.186743 247.37134 
L 136.676571 246.130414 
L 136.1664 243.981741 
L 135.656229 243.120845 
L 135.146057 241.850879 
L 134.635886 240.126244 
L 133.615543 237.880723 
L 133.105371 231.154821 
L 132.085029 227.777959 
L 131.064686 223.47902 
L 130.044343 218.215113 
L 129.534171 214.988465 
L 128.513829 206.464866 
L 127.493486 193.534529 
L 126.983314 184.885379 
L 126.473143 174.152079 
L 125.962971 160.971018 
L 125.4528 144.539827 
L 124.942629 124.358949 
L 124.432457 99.347553 
L 123.922286 68.627243 
L 123.061866 -1 
L 123.061866 -1 
" clip-path="url(#p46254ca036)" style="fill: none; stroke: #2a1fd5; stroke-width: 0.5; stroke-linecap: square"/>
   </g>
   <g id="line2d_33">
    <path d="M 363.702857 308.182215 
L 363.192686 308.037143 
L 361.152 307.996716 
L 359.111314 308.073317 
L 357.070629 308.050216 
L 354.519771 308.108289 
L 353.499429 308.067541 
L 351.458743 308.051297 
L 347.377371 307.965018 
L 346.357029 307.976116 
L 345.336686 307.919645 
L 342.785829 307.847051 
L 336.1536 307.33381 
L 335.133257 307.206456 
L 333.602743 307.091876 
L 332.5824 307.058543 
L 328.501029 306.83896 
L 327.480686 306.780116 
L 325.44 306.882302 
L 321.358629 307.14746 
L 320.338286 307.20572 
L 319.317943 307.272922 
L 312.685714 307.309489 
L 310.645029 307.267393 
L 309.624686 307.228879 
L 307.584 307.121083 
L 305.033143 306.900141 
L 302.992457 306.746868 
L 301.972114 306.553159 
L 300.951771 306.402413 
L 298.911086 306.089871 
L 297.380571 305.858774 
L 295.850057 305.461142 
L 292.789029 304.812706 
L 291.768686 304.560019 
L 289.728 303.92911 
L 282.5856 301.192627 
L 275.4432 297.119741 
L 272.892343 295.469049 
L 271.872 294.832023 
L 269.321143 293.039343 
L 267.790629 292.032122 
L 252.485486 280.868767 
L 242.792229 274.56719 
L 237.180343 271.864244 
L 234.629486 270.948575 
L 233.098971 270.514554 
L 232.078629 270.254208 
L 227.997257 269.507362 
L 222.385371 269.060424 
L 212.692114 268.821375 
L 211.671771 268.687378 
L 211.1616 268.703414 
L 209.631086 268.370376 
L 208.610743 268.140119 
L 206.570057 267.440679 
L 204.529371 266.655135 
L 200.448 264.609132 
L 199.427657 263.974411 
L 197.386971 262.728631 
L 194.325943 260.370596 
L 188.714057 254.792314 
L 185.142857 252.032229 
L 183.612343 251.149212 
L 180.041143 249.729984 
L 179.0208 249.334675 
L 177.490286 248.898689 
L 174.939429 248.600486 
L 171.8784 249.427967 
L 168.817371 250.996387 
L 167.286857 251.8478 
L 166.776686 252.025832 
L 165.246171 252.859553 
L 160.654629 255.326044 
L 155.552914 258.480545 
L 154.0224 259.113598 
L 152.491886 259.502112 
L 151.981714 259.676833 
L 150.961371 259.848878 
L 149.941029 259.91853 
L 149.430857 259.818909 
L 148.920686 259.934543 
L 147.900343 259.766269 
L 146.88 259.358665 
L 145.859657 258.566243 
L 145.349486 258.166401 
L 144.329143 256.931321 
L 143.818971 256.137413 
L 143.3088 253.998581 
L 142.798629 254.381858 
L 142.288457 253.427735 
L 141.778286 252.104379 
L 141.268114 251.219267 
L 140.247771 248.607716 
L 139.227429 245.765954 
L 138.717257 243.952825 
L 138.207086 242.620504 
L 136.676571 237.387725 
L 136.1664 234.781104 
L 135.656229 233.549643 
L 134.125714 228.282584 
L 133.615543 226.461682 
L 133.105371 218.117886 
L 132.085029 213.696655 
L 130.554514 205.472851 
L 129.534171 198.394989 
L 128.513829 188.886066 
L 128.003657 182.704016 
L 126.983314 166.068449 
L 125.962971 141.220995 
L 125.4528 124.462066 
L 124.432457 78.951068 
L 123.412114 10.108461 
L 123.288932 -1 
L 123.288932 -1 
" clip-path="url(#p46254ca036)" style="fill: none; stroke: #1f1fe0; stroke-width: 0.5; stroke-linecap: square"/>
   </g>
   <g id="patch_3">
    <path d="M 57.6 307.584 
L 57.6 41.472 
" style="fill: none; stroke: #000000; stroke-width: 0.8; stroke-linejoin: miter; stroke-linecap: square"/>
   </g>
   <g id="patch_4">
    <path d="M 414.72 307.584 
L 414.72 41.472 
" style="fill: none; stroke: #000000; stroke-width: 0.8; stroke-linejoin: miter; stroke-linecap: square"/>
   </g>
   <g id="patch_5">
    <path d="M 57.6 307.584 
L 414.72 307.584 
" style="fill: none; stroke: #000000; stroke-width: 0.8; stroke-linejoin: miter; stroke-linecap: square"/>
   </g>
   <g id="patch_6">
    <path d="M 57.6 41.472 
L 414.72 41.472 
" style="fill: none; stroke: #000000; stroke-width: 0.8; stroke-linejoin: miter; stroke-linecap: square"/>
   </g>
   <g id="text_18">
    <!-- IDA Titration of Alizarin:PBA complex &amp; Catechol in Acetone  -->
    <g transform="translate(55.197188 22.034625) scale(0.12 -0.12)">
     <defs>
      <path id="DejaVuSans-49" d="M 628 4666 
L 1259 4666 
L 1259 0 
L 628 0 
L 628 4666 
z
" transform="scale(0.015625)"/>
      <path id="DejaVuSans-44" d="M 1259 4147 
L 1259 519 
L 2022 519 
Q 2988 519 3436 956 
Q 3884 1394 3884 2338 
Q 3884 3275 3436 3711 
Q 2988 4147 2022 4147 
L 1259 4147 
z
M 628 4666 
L 1925 4666 
Q 3281 4666 3915 4102 
Q 4550 3538 4550 2338 
Q 4550 1131 3912 565 
Q 3275 0 1925 0 
L 628 0 
L 628 4666 
z
" transform="scale(0.015625)"/>
      <path id="DejaVuSans-54" d="M -19 4666 
L 3928 4666 
L 3928 4134 
L 2272 4134 
L 2272 0 
L 1638 0 
L 1638 4134 
L -19 4134 
L -19 4666 
z
" transform="scale(0.015625)"/>
      <path id="DejaVuSans-69" d="M 603 3500 
L 1178 3500 
L 1178 0 
L 603 0 
L 603 3500 
z
M 603 4863 
L 1178 4863 
L 1178 4134 
L 603 4134 
L 603 4863 
z
" transform="scale(0.015625)"/>
      <path id="DejaVuSans-66" d="M 2375 4863 
L 2375 4384 
L 1825 4384 
Q 1516 4384 1395 4259 
Q 1275 4134 1275 3809 
L 1275 3500 
L 2222 3500 
L 2222 3053 
L 1275 3053 
L 1275 0 
L 697 0 
L 697 3053 
L 147 3053 
L 147 3500 
L 697 3500 
L 697 3744 
Q 697 4328 969 4595 
Q 1241 4863 1831 4863 
L 2375 4863 
z
" transform="scale(0.015625)"/>
      <path id="DejaVuSans-7a" d="M 353 3500 
L 3084 3500 
L 3084 2975 
L 922 459 
L 3084 459 
L 3084 0 
L 275 0 
L 275 525 
L 2438 3041 
L 353 3041 
L 353 3500 
z
" transform="scale(0.015625)"/>
      <path id="DejaVuSans-3a" d="M 750 794 
L 1409 794 
L 1409 0 
L 750 0 
L 750 794 
z
M 750 3309 
L 1409 3309 
L 1409 2516 
L 750 2516 
L 750 3309 
z
" transform="scale(0.015625)"/>
      <path id="DejaVuSans-50" d="M 1259 4147 
L 1259 2394 
L 2053 2394 
Q 2494 2394 2734 2622 
Q 2975 2850 2975 3272 
Q 2975 3691 2734 3919 
Q 2494 4147 2053 4147 
L 1259 4147 
z
M 628 4666 
L 2053 4666 
Q 2838 4666 3239 4311 
Q 3641 3956 3641 3272 
Q 3641 2581 3239 2228 
Q 2838 1875 2053 1875 
L 1259 1875 
L 1259 0 
L 628 0 
L 628 4666 
z
" transform="scale(0.015625)"/>
      <path id="DejaVuSans-42" d="M 1259 2228 
L 1259 519 
L 2272 519 
Q 2781 519 3026 730 
Q 3272 941 3272 1375 
Q 3272 1813 3026 2020 
Q 2781 2228 2272 2228 
L 1259 2228 
z
M 1259 4147 
L 1259 2741 
L 2194 2741 
Q 2656 2741 2882 2914 
Q 3109 3088 3109 3444 
Q 3109 3797 2882 3972 
Q 2656 4147 2194 4147 
L 1259 4147 
z
M 628 4666 
L 2241 4666 
Q 2963 4666 3353 4366 
Q 3744 4066 3744 3513 
Q 3744 3084 3544 2831 
Q 3344 2578 2956 2516 
Q 3422 2416 3680 2098 
Q 3938 1781 3938 1306 
Q 3938 681 3513 340 
Q 3088 0 2303 0 
L 628 0 
L 628 4666 
z
" transform="scale(0.015625)"/>
      <path id="DejaVuSans-70" d="M 1159 525 
L 1159 -1331 
L 581 -1331 
L 581 3500 
L 1159 3500 
L 1159 2969 
Q 1341 3281 1617 3432 
Q 1894 3584 2278 3584 
Q 2916 3584 3314 3078 
Q 3713 2572 3713 1747 
Q 3713 922 3314 415 
Q 2916 -91 2278 -91 
Q 1894 -91 1617 61 
Q 1341 213 1159 525 
z
M 3116 1747 
Q 3116 2381 2855 2742 
Q 2594 3103 2138 3103 
Q 1681 3103 1420 2742 
Q 1159 2381 1159 1747 
Q 1159 1113 1420 752 
Q 1681 391 2138 391 
Q 2594 391 2855 752 
Q 3116 1113 3116 1747 
z
" transform="scale(0.015625)"/>
      <path id="DejaVuSans-78" d="M 3513 3500 
L 2247 1797 
L 3578 0 
L 2900 0 
L 1881 1375 
L 863 0 
L 184 0 
L 1544 1831 
L 300 3500 
L 978 3500 
L 1906 2253 
L 2834 3500 
L 3513 3500 
z
" transform="scale(0.015625)"/>
      <path id="DejaVuSans-26" d="M 1556 2509 
Q 1272 2256 1139 2004 
Q 1006 1753 1006 1478 
Q 1006 1022 1337 719 
Q 1669 416 2169 416 
Q 2466 416 2725 514 
Q 2984 613 3213 813 
L 1556 2509 
z
M 1997 2859 
L 3584 1234 
Q 3769 1513 3872 1830 
Q 3975 2147 3994 2503 
L 4575 2503 
Q 4538 2091 4375 1687 
Q 4213 1284 3922 891 
L 4794 0 
L 4006 0 
L 3559 459 
Q 3234 181 2878 45 
Q 2522 -91 2113 -91 
Q 1359 -91 881 339 
Q 403 769 403 1441 
Q 403 1841 612 2192 
Q 822 2544 1241 2853 
Q 1091 3050 1012 3245 
Q 934 3441 934 3628 
Q 934 4134 1281 4442 
Q 1628 4750 2203 4750 
Q 2463 4750 2720 4694 
Q 2978 4638 3244 4525 
L 3244 3956 
Q 2972 4103 2725 4179 
Q 2478 4256 2266 4256 
Q 1938 4256 1733 4082 
Q 1528 3909 1528 3634 
Q 1528 3475 1620 3314 
Q 1713 3153 1997 2859 
z
" transform="scale(0.015625)"/>
      <path id="DejaVuSans-43" d="M 4122 4306 
L 4122 3641 
Q 3803 3938 3442 4084 
Q 3081 4231 2675 4231 
Q 1875 4231 1450 3742 
Q 1025 3253 1025 2328 
Q 1025 1406 1450 917 
Q 1875 428 2675 428 
Q 3081 428 3442 575 
Q 3803 722 4122 1019 
L 4122 359 
Q 3791 134 3420 21 
Q 3050 -91 2638 -91 
Q 1578 -91 968 557 
Q 359 1206 359 2328 
Q 359 3453 968 4101 
Q 1578 4750 2638 4750 
Q 3056 4750 3426 4639 
Q 3797 4528 4122 4306 
z
" transform="scale(0.015625)"/>
     </defs>
     <use xlink:href="#DejaVuSans-49"/>
     <use xlink:href="#DejaVuSans-44" x="29.492188"/>
     <use xlink:href="#DejaVuSans-41" x="104.744141"/>
     <use xlink:href="#DejaVuSans-20" x="173.152344"/>
     <use xlink:href="#DejaVuSans-54" x="204.939453"/>
     <use xlink:href="#DejaVuSans-69" x="262.898438"/>
     <use xlink:href="#DejaVuSans-74" x="290.681641"/>
     <use xlink:href="#DejaVuSans-72" x="329.890625"/>
     <use xlink:href="#DejaVuSans-61" x="371.003906"/>
     <use xlink:href="#DejaVuSans-74" x="432.283203"/>
     <use xlink:href="#DejaVuSans-69" x="471.492188"/>
     <use xlink:href="#DejaVuSans-6f" x="499.275391"/>
     <use xlink:href="#DejaVuSans-6e" x="560.457031"/>
     <use xlink:href="#DejaVuSans-20" x="623.835938"/>
     <use xlink:href="#DejaVuSans-6f" x="655.623047"/>
     <use xlink:href="#DejaVuSans-66" x="716.804688"/>
     <use xlink:href="#DejaVuSans-20" x="752.009766"/>
     <use xlink:href="#DejaVuSans-41" x="783.796875"/>
     <use xlink:href="#DejaVuSans-6c" x="852.205078"/>
     <use xlink:href="#DejaVuSans-69" x="879.988281"/>
     <use xlink:href="#DejaVuSans-7a" x="907.771484"/>
     <use xlink:href="#DejaVuSans-61" x="960.261719"/>
     <use xlink:href="#DejaVuSans-72" x="1021.541016"/>
     <use xlink:href="#DejaVuSans-69" x="1062.654297"/>
     <use xlink:href="#DejaVuSans-6e" x="1090.4375"/>
     <use xlink:href="#DejaVuSans-3a" x="1153.816406"/>
     <use xlink:href="#DejaVuSans-50" x="1187.507812"/>
     <use xlink:href="#DejaVuSans-42" x="1247.810547"/>
     <use xlink:href="#DejaVuSans-41" x="1316.414062"/>
     <use xlink:href="#DejaVuSans-20" x="1384.822266"/>
     <use xlink:href="#DejaVuSans-63" x="1416.609375"/>
     <use xlink:href="#DejaVuSans-6f" x="1471.589844"/>
     <use xlink:href="#DejaVuSans-6d" x="1532.771484"/>
     <use xlink:href="#DejaVuSans-70" x="1630.183594"/>
     <use xlink:href="#DejaVuSans-6c" x="1693.660156"/>
     <use xlink:href="#DejaVuSans-65" x="1721.443359"/>
     <use xlink:href="#DejaVuSans-78" x="1781.216797"/>
     <use xlink:href="#DejaVuSans-20" x="1840.396484"/>
     <use xlink:href="#DejaVuSans-26" x="1872.183594"/>
     <use xlink:href="#DejaVuSans-20" x="1950.162109"/>
     <use xlink:href="#DejaVuSans-43" x="1981.949219"/>
     <use xlink:href="#DejaVuSans-61" x="2051.773438"/>
     <use xlink:href="#DejaVuSans-74" x="2113.052734"/>
     <use xlink:href="#DejaVuSans-65" x="2152.261719"/>
     <use xlink:href="#DejaVuSans-63" x="2213.785156"/>
     <use xlink:href="#DejaVuSans-68" x="2268.765625"/>
     <use xlink:href="#DejaVuSans-6f" x="2332.144531"/>
     <use xlink:href="#DejaVuSans-6c" x="2393.326172"/>
     <use xlink:href="#DejaVuSans-20" x="2421.109375"/>
     <use xlink:href="#DejaVuSans-69" x="2452.896484"/>
     <use xlink:href="#DejaVuSans-6e" x="2480.679688"/>
     <use xlink:href="#DejaVuSans-20" x="2544.058594"/>
     <use xlink:href="#DejaVuSans-41" x="2575.845703"/>
     <use xlink:href="#DejaVuSans-63" x="2642.503906"/>
     <use xlink:href="#DejaVuSans-65" x="2697.484375"/>
     <use xlink:href="#DejaVuSans-74" x="2759.007812"/>
     <use xlink:href="#DejaVuSans-6f" x="2798.216797"/>
     <use xlink:href="#DejaVuSans-6e" x="2859.398438"/>
     <use xlink:href="#DejaVuSans-65" x="2922.777344"/>
     <use xlink:href="#DejaVuSans-20" x="2984.300781"/>
    </g>
    <!--  -->
    <g transform="translate(236.16 35.472) scale(0.12 -0.12)"/>
   </g>
  </g>
 </g>
 <defs>
  <clipPath id="p46254ca036">
   <rect x="57.6" y="41.472" width="357.12" height="266.112"/>
  </clipPath>
 </defs>
</svg>
