<?xml version="1.0" encoding="utf-8" standalone="no"?>
<!DOCTYPE svg PUBLIC "-//W3C//DTD SVG 1.1//EN"
  "http://www.w3.org/Graphics/SVG/1.1/DTD/svg11.dtd">
<svg xmlns:xlink="http://www.w3.org/1999/xlink" width="460.8pt" height="345.6pt" viewBox="0 0 460.8 345.6" xmlns="http://www.w3.org/2000/svg" version="1.1">
 <metadata>
  <rdf:RDF xmlns:dc="http://purl.org/dc/elements/1.1/" xmlns:cc="http://creativecommons.org/ns#" xmlns:rdf="http://www.w3.org/1999/02/22-rdf-syntax-ns#">
   <cc:Work>
    <dc:type rdf:resource="http://purl.org/dc/dcmitype/StillImage"/>
    <dc:date>2024-11-03T21:07:39.353368</dc:date>
    <dc:format>image/svg+xml</dc:format>
    <dc:creator>
     <cc:Agent>
      <dc:title>Matplotlib v3.9.2, https://matplotlib.org/</dc:title>
     </cc:Agent>
    </dc:creator>
   </cc:Work>
  </rdf:RDF>
 </metadata>
 <defs>
  <style type="text/css">*{stroke-linejoin: round; stroke-linecap: butt}</style>
 </defs>
 <g id="figure_1">
  <g id="patch_1">
   <path d="M 0 345.6 
L 460.8 345.6 
L 460.8 0 
L 0 0 
z
" style="fill: #ffffff"/>
  </g>
  <g id="axes_1">
   <g id="patch_2">
    <path d="M 57.6 307.584 
L 414.72 307.584 
L 414.72 41.472 
L 57.6 41.472 
z
" style="fill: #ffffff"/>
   </g>
   <g id="matplotlib.axis_1">
    <g id="xtick_1">
     <g id="line2d_1">
      <defs>
       <path id="ma22096ee5d" d="M 0 0 
L 0 3.5 
" style="stroke: #000000; stroke-width: 0.8"/>
      </defs>
      <g>
       <use xlink:href="#ma22096ee5d" x="57.6" y="307.584" style="stroke: #000000; stroke-width: 0.8"/>
      </g>
     </g>
     <g id="text_1">
      <!-- 200 -->
      <g transform="translate(48.05625 322.182437) scale(0.1 -0.1)">
       <defs>
        <path id="DejaVuSans-32" d="M 1228 531 
L 3431 531 
L 3431 0 
L 469 0 
L 469 531 
Q 828 903 1448 1529 
Q 2069 2156 2228 2338 
Q 2531 2678 2651 2914 
Q 2772 3150 2772 3378 
Q 2772 3750 2511 3984 
Q 2250 4219 1831 4219 
Q 1534 4219 1204 4116 
Q 875 4013 500 3803 
L 500 4441 
Q 881 4594 1212 4672 
Q 1544 4750 1819 4750 
Q 2544 4750 2975 4387 
Q 3406 4025 3406 3419 
Q 3406 3131 3298 2873 
Q 3191 2616 2906 2266 
Q 2828 2175 2409 1742 
Q 1991 1309 1228 531 
z
" transform="scale(0.015625)"/>
        <path id="DejaVuSans-30" d="M 2034 4250 
Q 1547 4250 1301 3770 
Q 1056 3291 1056 2328 
Q 1056 1369 1301 889 
Q 1547 409 2034 409 
Q 2525 409 2770 889 
Q 3016 1369 3016 2328 
Q 3016 3291 2770 3770 
Q 2525 4250 2034 4250 
z
M 2034 4750 
Q 2819 4750 3233 4129 
Q 3647 3509 3647 2328 
Q 3647 1150 3233 529 
Q 2819 -91 2034 -91 
Q 1250 -91 836 529 
Q 422 1150 422 2328 
Q 422 3509 836 4129 
Q 1250 4750 2034 4750 
z
" transform="scale(0.015625)"/>
       </defs>
       <use xlink:href="#DejaVuSans-32"/>
       <use xlink:href="#DejaVuSans-30" x="63.623047"/>
       <use xlink:href="#DejaVuSans-30" x="127.246094"/>
      </g>
     </g>
    </g>
    <g id="xtick_2">
     <g id="line2d_2">
      <g>
       <use xlink:href="#ma22096ee5d" x="108.617143" y="307.584" style="stroke: #000000; stroke-width: 0.8"/>
      </g>
     </g>
     <g id="text_2">
      <!-- 300 -->
      <g transform="translate(99.073393 322.182437) scale(0.1 -0.1)">
       <defs>
        <path id="DejaVuSans-33" d="M 2597 2516 
Q 3050 2419 3304 2112 
Q 3559 1806 3559 1356 
Q 3559 666 3084 287 
Q 2609 -91 1734 -91 
Q 1441 -91 1130 -33 
Q 819 25 488 141 
L 488 750 
Q 750 597 1062 519 
Q 1375 441 1716 441 
Q 2309 441 2620 675 
Q 2931 909 2931 1356 
Q 2931 1769 2642 2001 
Q 2353 2234 1838 2234 
L 1294 2234 
L 1294 2753 
L 1863 2753 
Q 2328 2753 2575 2939 
Q 2822 3125 2822 3475 
Q 2822 3834 2567 4026 
Q 2313 4219 1838 4219 
Q 1578 4219 1281 4162 
Q 984 4106 628 3988 
L 628 4550 
Q 988 4650 1302 4700 
Q 1616 4750 1894 4750 
Q 2613 4750 3031 4423 
Q 3450 4097 3450 3541 
Q 3450 3153 3228 2886 
Q 3006 2619 2597 2516 
z
" transform="scale(0.015625)"/>
       </defs>
       <use xlink:href="#DejaVuSans-33"/>
       <use xlink:href="#DejaVuSans-30" x="63.623047"/>
       <use xlink:href="#DejaVuSans-30" x="127.246094"/>
      </g>
     </g>
    </g>
    <g id="xtick_3">
     <g id="line2d_3">
      <g>
       <use xlink:href="#ma22096ee5d" x="159.634286" y="307.584" style="stroke: #000000; stroke-width: 0.8"/>
      </g>
     </g>
     <g id="text_3">
      <!-- 400 -->
      <g transform="translate(150.090536 322.182437) scale(0.1 -0.1)">
       <defs>
        <path id="DejaVuSans-34" d="M 2419 4116 
L 825 1625 
L 2419 1625 
L 2419 4116 
z
M 2253 4666 
L 3047 4666 
L 3047 1625 
L 3713 1625 
L 3713 1100 
L 3047 1100 
L 3047 0 
L 2419 0 
L 2419 1100 
L 313 1100 
L 313 1709 
L 2253 4666 
z
" transform="scale(0.015625)"/>
       </defs>
       <use xlink:href="#DejaVuSans-34"/>
       <use xlink:href="#DejaVuSans-30" x="63.623047"/>
       <use xlink:href="#DejaVuSans-30" x="127.246094"/>
      </g>
     </g>
    </g>
    <g id="xtick_4">
     <g id="line2d_4">
      <g>
       <use xlink:href="#ma22096ee5d" x="210.651429" y="307.584" style="stroke: #000000; stroke-width: 0.8"/>
      </g>
     </g>
     <g id="text_4">
      <!-- 500 -->
      <g transform="translate(201.107679 322.182437) scale(0.1 -0.1)">
       <defs>
        <path id="DejaVuSans-35" d="M 691 4666 
L 3169 4666 
L 3169 4134 
L 1269 4134 
L 1269 2991 
Q 1406 3038 1543 3061 
Q 1681 3084 1819 3084 
Q 2600 3084 3056 2656 
Q 3513 2228 3513 1497 
Q 3513 744 3044 326 
Q 2575 -91 1722 -91 
Q 1428 -91 1123 -41 
Q 819 9 494 109 
L 494 744 
Q 775 591 1075 516 
Q 1375 441 1709 441 
Q 2250 441 2565 725 
Q 2881 1009 2881 1497 
Q 2881 1984 2565 2268 
Q 2250 2553 1709 2553 
Q 1456 2553 1204 2497 
Q 953 2441 691 2322 
L 691 4666 
z
" transform="scale(0.015625)"/>
       </defs>
       <use xlink:href="#DejaVuSans-35"/>
       <use xlink:href="#DejaVuSans-30" x="63.623047"/>
       <use xlink:href="#DejaVuSans-30" x="127.246094"/>
      </g>
     </g>
    </g>
    <g id="xtick_5">
     <g id="line2d_5">
      <g>
       <use xlink:href="#ma22096ee5d" x="261.668571" y="307.584" style="stroke: #000000; stroke-width: 0.8"/>
      </g>
     </g>
     <g id="text_5">
      <!-- 600 -->
      <g transform="translate(252.124821 322.182437) scale(0.1 -0.1)">
       <defs>
        <path id="DejaVuSans-36" d="M 2113 2584 
Q 1688 2584 1439 2293 
Q 1191 2003 1191 1497 
Q 1191 994 1439 701 
Q 1688 409 2113 409 
Q 2538 409 2786 701 
Q 3034 994 3034 1497 
Q 3034 2003 2786 2293 
Q 2538 2584 2113 2584 
z
M 3366 4563 
L 3366 3988 
Q 3128 4100 2886 4159 
Q 2644 4219 2406 4219 
Q 1781 4219 1451 3797 
Q 1122 3375 1075 2522 
Q 1259 2794 1537 2939 
Q 1816 3084 2150 3084 
Q 2853 3084 3261 2657 
Q 3669 2231 3669 1497 
Q 3669 778 3244 343 
Q 2819 -91 2113 -91 
Q 1303 -91 875 529 
Q 447 1150 447 2328 
Q 447 3434 972 4092 
Q 1497 4750 2381 4750 
Q 2619 4750 2861 4703 
Q 3103 4656 3366 4563 
z
" transform="scale(0.015625)"/>
       </defs>
       <use xlink:href="#DejaVuSans-36"/>
       <use xlink:href="#DejaVuSans-30" x="63.623047"/>
       <use xlink:href="#DejaVuSans-30" x="127.246094"/>
      </g>
     </g>
    </g>
    <g id="xtick_6">
     <g id="line2d_6">
      <g>
       <use xlink:href="#ma22096ee5d" x="312.685714" y="307.584" style="stroke: #000000; stroke-width: 0.8"/>
      </g>
     </g>
     <g id="text_6">
      <!-- 700 -->
      <g transform="translate(303.141964 322.182437) scale(0.1 -0.1)">
       <defs>
        <path id="DejaVuSans-37" d="M 525 4666 
L 3525 4666 
L 3525 4397 
L 1831 0 
L 1172 0 
L 2766 4134 
L 525 4134 
L 525 4666 
z
" transform="scale(0.015625)"/>
       </defs>
       <use xlink:href="#DejaVuSans-37"/>
       <use xlink:href="#DejaVuSans-30" x="63.623047"/>
       <use xlink:href="#DejaVuSans-30" x="127.246094"/>
      </g>
     </g>
    </g>
    <g id="xtick_7">
     <g id="line2d_7">
      <g>
       <use xlink:href="#ma22096ee5d" x="363.702857" y="307.584" style="stroke: #000000; stroke-width: 0.8"/>
      </g>
     </g>
     <g id="text_7">
      <!-- 800 -->
      <g transform="translate(354.159107 322.182437) scale(0.1 -0.1)">
       <defs>
        <path id="DejaVuSans-38" d="M 2034 2216 
Q 1584 2216 1326 1975 
Q 1069 1734 1069 1313 
Q 1069 891 1326 650 
Q 1584 409 2034 409 
Q 2484 409 2743 651 
Q 3003 894 3003 1313 
Q 3003 1734 2745 1975 
Q 2488 2216 2034 2216 
z
M 1403 2484 
Q 997 2584 770 2862 
Q 544 3141 544 3541 
Q 544 4100 942 4425 
Q 1341 4750 2034 4750 
Q 2731 4750 3128 4425 
Q 3525 4100 3525 3541 
Q 3525 3141 3298 2862 
Q 3072 2584 2669 2484 
Q 3125 2378 3379 2068 
Q 3634 1759 3634 1313 
Q 3634 634 3220 271 
Q 2806 -91 2034 -91 
Q 1263 -91 848 271 
Q 434 634 434 1313 
Q 434 1759 690 2068 
Q 947 2378 1403 2484 
z
M 1172 3481 
Q 1172 3119 1398 2916 
Q 1625 2713 2034 2713 
Q 2441 2713 2670 2916 
Q 2900 3119 2900 3481 
Q 2900 3844 2670 4047 
Q 2441 4250 2034 4250 
Q 1625 4250 1398 4047 
Q 1172 3844 1172 3481 
z
" transform="scale(0.015625)"/>
       </defs>
       <use xlink:href="#DejaVuSans-38"/>
       <use xlink:href="#DejaVuSans-30" x="63.623047"/>
       <use xlink:href="#DejaVuSans-30" x="127.246094"/>
      </g>
     </g>
    </g>
    <g id="xtick_8">
     <g id="line2d_8">
      <g>
       <use xlink:href="#ma22096ee5d" x="414.72" y="307.584" style="stroke: #000000; stroke-width: 0.8"/>
      </g>
     </g>
     <g id="text_8">
      <!-- 900 -->
      <g transform="translate(405.17625 322.182437) scale(0.1 -0.1)">
       <defs>
        <path id="DejaVuSans-39" d="M 703 97 
L 703 672 
Q 941 559 1184 500 
Q 1428 441 1663 441 
Q 2288 441 2617 861 
Q 2947 1281 2994 2138 
Q 2813 1869 2534 1725 
Q 2256 1581 1919 1581 
Q 1219 1581 811 2004 
Q 403 2428 403 3163 
Q 403 3881 828 4315 
Q 1253 4750 1959 4750 
Q 2769 4750 3195 4129 
Q 3622 3509 3622 2328 
Q 3622 1225 3098 567 
Q 2575 -91 1691 -91 
Q 1453 -91 1209 -44 
Q 966 3 703 97 
z
M 1959 2075 
Q 2384 2075 2632 2365 
Q 2881 2656 2881 3163 
Q 2881 3666 2632 3958 
Q 2384 4250 1959 4250 
Q 1534 4250 1286 3958 
Q 1038 3666 1038 3163 
Q 1038 2656 1286 2365 
Q 1534 2075 1959 2075 
z
" transform="scale(0.015625)"/>
       </defs>
       <use xlink:href="#DejaVuSans-39"/>
       <use xlink:href="#DejaVuSans-30" x="63.623047"/>
       <use xlink:href="#DejaVuSans-30" x="127.246094"/>
      </g>
     </g>
    </g>
    <g id="text_9">
     <!-- Wavelength (nm) -->
     <g transform="translate(192.967812 335.860562) scale(0.1 -0.1)">
      <defs>
       <path id="DejaVuSans-57" d="M 213 4666 
L 850 4666 
L 1831 722 
L 2809 4666 
L 3519 4666 
L 4500 722 
L 5478 4666 
L 6119 4666 
L 4947 0 
L 4153 0 
L 3169 4050 
L 2175 0 
L 1381 0 
L 213 4666 
z
" transform="scale(0.015625)"/>
       <path id="DejaVuSans-61" d="M 2194 1759 
Q 1497 1759 1228 1600 
Q 959 1441 959 1056 
Q 959 750 1161 570 
Q 1363 391 1709 391 
Q 2188 391 2477 730 
Q 2766 1069 2766 1631 
L 2766 1759 
L 2194 1759 
z
M 3341 1997 
L 3341 0 
L 2766 0 
L 2766 531 
Q 2569 213 2275 61 
Q 1981 -91 1556 -91 
Q 1019 -91 701 211 
Q 384 513 384 1019 
Q 384 1609 779 1909 
Q 1175 2209 1959 2209 
L 2766 2209 
L 2766 2266 
Q 2766 2663 2505 2880 
Q 2244 3097 1772 3097 
Q 1472 3097 1187 3025 
Q 903 2953 641 2809 
L 641 3341 
Q 956 3463 1253 3523 
Q 1550 3584 1831 3584 
Q 2591 3584 2966 3190 
Q 3341 2797 3341 1997 
z
" transform="scale(0.015625)"/>
       <path id="DejaVuSans-76" d="M 191 3500 
L 800 3500 
L 1894 563 
L 2988 3500 
L 3597 3500 
L 2284 0 
L 1503 0 
L 191 3500 
z
" transform="scale(0.015625)"/>
       <path id="DejaVuSans-65" d="M 3597 1894 
L 3597 1613 
L 953 1613 
Q 991 1019 1311 708 
Q 1631 397 2203 397 
Q 2534 397 2845 478 
Q 3156 559 3463 722 
L 3463 178 
Q 3153 47 2828 -22 
Q 2503 -91 2169 -91 
Q 1331 -91 842 396 
Q 353 884 353 1716 
Q 353 2575 817 3079 
Q 1281 3584 2069 3584 
Q 2775 3584 3186 3129 
Q 3597 2675 3597 1894 
z
M 3022 2063 
Q 3016 2534 2758 2815 
Q 2500 3097 2075 3097 
Q 1594 3097 1305 2825 
Q 1016 2553 972 2059 
L 3022 2063 
z
" transform="scale(0.015625)"/>
       <path id="DejaVuSans-6c" d="M 603 4863 
L 1178 4863 
L 1178 0 
L 603 0 
L 603 4863 
z
" transform="scale(0.015625)"/>
       <path id="DejaVuSans-6e" d="M 3513 2113 
L 3513 0 
L 2938 0 
L 2938 2094 
Q 2938 2591 2744 2837 
Q 2550 3084 2163 3084 
Q 1697 3084 1428 2787 
Q 1159 2491 1159 1978 
L 1159 0 
L 581 0 
L 581 3500 
L 1159 3500 
L 1159 2956 
Q 1366 3272 1645 3428 
Q 1925 3584 2291 3584 
Q 2894 3584 3203 3211 
Q 3513 2838 3513 2113 
z
" transform="scale(0.015625)"/>
       <path id="DejaVuSans-67" d="M 2906 1791 
Q 2906 2416 2648 2759 
Q 2391 3103 1925 3103 
Q 1463 3103 1205 2759 
Q 947 2416 947 1791 
Q 947 1169 1205 825 
Q 1463 481 1925 481 
Q 2391 481 2648 825 
Q 2906 1169 2906 1791 
z
M 3481 434 
Q 3481 -459 3084 -895 
Q 2688 -1331 1869 -1331 
Q 1566 -1331 1297 -1286 
Q 1028 -1241 775 -1147 
L 775 -588 
Q 1028 -725 1275 -790 
Q 1522 -856 1778 -856 
Q 2344 -856 2625 -561 
Q 2906 -266 2906 331 
L 2906 616 
Q 2728 306 2450 153 
Q 2172 0 1784 0 
Q 1141 0 747 490 
Q 353 981 353 1791 
Q 353 2603 747 3093 
Q 1141 3584 1784 3584 
Q 2172 3584 2450 3431 
Q 2728 3278 2906 2969 
L 2906 3500 
L 3481 3500 
L 3481 434 
z
" transform="scale(0.015625)"/>
       <path id="DejaVuSans-74" d="M 1172 4494 
L 1172 3500 
L 2356 3500 
L 2356 3053 
L 1172 3053 
L 1172 1153 
Q 1172 725 1289 603 
Q 1406 481 1766 481 
L 2356 481 
L 2356 0 
L 1766 0 
Q 1100 0 847 248 
Q 594 497 594 1153 
L 594 3053 
L 172 3053 
L 172 3500 
L 594 3500 
L 594 4494 
L 1172 4494 
z
" transform="scale(0.015625)"/>
       <path id="DejaVuSans-68" d="M 3513 2113 
L 3513 0 
L 2938 0 
L 2938 2094 
Q 2938 2591 2744 2837 
Q 2550 3084 2163 3084 
Q 1697 3084 1428 2787 
Q 1159 2491 1159 1978 
L 1159 0 
L 581 0 
L 581 4863 
L 1159 4863 
L 1159 2956 
Q 1366 3272 1645 3428 
Q 1925 3584 2291 3584 
Q 2894 3584 3203 3211 
Q 3513 2838 3513 2113 
z
" transform="scale(0.015625)"/>
       <path id="DejaVuSans-20" transform="scale(0.015625)"/>
       <path id="DejaVuSans-28" d="M 1984 4856 
Q 1566 4138 1362 3434 
Q 1159 2731 1159 2009 
Q 1159 1288 1364 580 
Q 1569 -128 1984 -844 
L 1484 -844 
Q 1016 -109 783 600 
Q 550 1309 550 2009 
Q 550 2706 781 3412 
Q 1013 4119 1484 4856 
L 1984 4856 
z
" transform="scale(0.015625)"/>
       <path id="DejaVuSans-6d" d="M 3328 2828 
Q 3544 3216 3844 3400 
Q 4144 3584 4550 3584 
Q 5097 3584 5394 3201 
Q 5691 2819 5691 2113 
L 5691 0 
L 5113 0 
L 5113 2094 
Q 5113 2597 4934 2840 
Q 4756 3084 4391 3084 
Q 3944 3084 3684 2787 
Q 3425 2491 3425 1978 
L 3425 0 
L 2847 0 
L 2847 2094 
Q 2847 2600 2669 2842 
Q 2491 3084 2119 3084 
Q 1678 3084 1418 2786 
Q 1159 2488 1159 1978 
L 1159 0 
L 581 0 
L 581 3500 
L 1159 3500 
L 1159 2956 
Q 1356 3278 1631 3431 
Q 1906 3584 2284 3584 
Q 2666 3584 2933 3390 
Q 3200 3197 3328 2828 
z
" transform="scale(0.015625)"/>
       <path id="DejaVuSans-29" d="M 513 4856 
L 1013 4856 
Q 1481 4119 1714 3412 
Q 1947 2706 1947 2009 
Q 1947 1309 1714 600 
Q 1481 -109 1013 -844 
L 513 -844 
Q 928 -128 1133 580 
Q 1338 1288 1338 2009 
Q 1338 2731 1133 3434 
Q 928 4138 513 4856 
z
" transform="scale(0.015625)"/>
      </defs>
      <use xlink:href="#DejaVuSans-57"/>
      <use xlink:href="#DejaVuSans-61" x="92.501953"/>
      <use xlink:href="#DejaVuSans-76" x="153.78125"/>
      <use xlink:href="#DejaVuSans-65" x="212.960938"/>
      <use xlink:href="#DejaVuSans-6c" x="274.484375"/>
      <use xlink:href="#DejaVuSans-65" x="302.267578"/>
      <use xlink:href="#DejaVuSans-6e" x="363.791016"/>
      <use xlink:href="#DejaVuSans-67" x="427.169922"/>
      <use xlink:href="#DejaVuSans-74" x="490.646484"/>
      <use xlink:href="#DejaVuSans-68" x="529.855469"/>
      <use xlink:href="#DejaVuSans-20" x="593.234375"/>
      <use xlink:href="#DejaVuSans-28" x="625.021484"/>
      <use xlink:href="#DejaVuSans-6e" x="664.035156"/>
      <use xlink:href="#DejaVuSans-6d" x="727.414062"/>
      <use xlink:href="#DejaVuSans-29" x="824.826172"/>
     </g>
    </g>
   </g>
   <g id="matplotlib.axis_2">
    <g id="ytick_1">
     <g id="line2d_9">
      <defs>
       <path id="m1795e33b01" d="M 0 0 
L -3.5 0 
" style="stroke: #000000; stroke-width: 0.8"/>
      </defs>
      <g>
       <use xlink:href="#m1795e33b01" x="57.6" y="307.584" style="stroke: #000000; stroke-width: 0.8"/>
      </g>
     </g>
     <g id="text_10">
      <!-- 0.0 -->
      <g transform="translate(34.696875 311.383219) scale(0.1 -0.1)">
       <defs>
        <path id="DejaVuSans-2e" d="M 684 794 
L 1344 794 
L 1344 0 
L 684 0 
L 684 794 
z
" transform="scale(0.015625)"/>
       </defs>
       <use xlink:href="#DejaVuSans-30"/>
       <use xlink:href="#DejaVuSans-2e" x="63.623047"/>
       <use xlink:href="#DejaVuSans-30" x="95.410156"/>
      </g>
     </g>
    </g>
    <g id="ytick_2">
     <g id="line2d_10">
      <g>
       <use xlink:href="#m1795e33b01" x="57.6" y="263.232" style="stroke: #000000; stroke-width: 0.8"/>
      </g>
     </g>
     <g id="text_11">
      <!-- 0.2 -->
      <g transform="translate(34.696875 267.031219) scale(0.1 -0.1)">
       <use xlink:href="#DejaVuSans-30"/>
       <use xlink:href="#DejaVuSans-2e" x="63.623047"/>
       <use xlink:href="#DejaVuSans-32" x="95.410156"/>
      </g>
     </g>
    </g>
    <g id="ytick_3">
     <g id="line2d_11">
      <g>
       <use xlink:href="#m1795e33b01" x="57.6" y="218.88" style="stroke: #000000; stroke-width: 0.8"/>
      </g>
     </g>
     <g id="text_12">
      <!-- 0.4 -->
      <g transform="translate(34.696875 222.679219) scale(0.1 -0.1)">
       <use xlink:href="#DejaVuSans-30"/>
       <use xlink:href="#DejaVuSans-2e" x="63.623047"/>
       <use xlink:href="#DejaVuSans-34" x="95.410156"/>
      </g>
     </g>
    </g>
    <g id="ytick_4">
     <g id="line2d_12">
      <g>
       <use xlink:href="#m1795e33b01" x="57.6" y="174.528" style="stroke: #000000; stroke-width: 0.8"/>
      </g>
     </g>
     <g id="text_13">
      <!-- 0.6 -->
      <g transform="translate(34.696875 178.327219) scale(0.1 -0.1)">
       <use xlink:href="#DejaVuSans-30"/>
       <use xlink:href="#DejaVuSans-2e" x="63.623047"/>
       <use xlink:href="#DejaVuSans-36" x="95.410156"/>
      </g>
     </g>
    </g>
    <g id="ytick_5">
     <g id="line2d_13">
      <g>
       <use xlink:href="#m1795e33b01" x="57.6" y="130.176" style="stroke: #000000; stroke-width: 0.8"/>
      </g>
     </g>
     <g id="text_14">
      <!-- 0.8 -->
      <g transform="translate(34.696875 133.975219) scale(0.1 -0.1)">
       <use xlink:href="#DejaVuSans-30"/>
       <use xlink:href="#DejaVuSans-2e" x="63.623047"/>
       <use xlink:href="#DejaVuSans-38" x="95.410156"/>
      </g>
     </g>
    </g>
    <g id="ytick_6">
     <g id="line2d_14">
      <g>
       <use xlink:href="#m1795e33b01" x="57.6" y="85.824" style="stroke: #000000; stroke-width: 0.8"/>
      </g>
     </g>
     <g id="text_15">
      <!-- 1.0 -->
      <g transform="translate(34.696875 89.623219) scale(0.1 -0.1)">
       <defs>
        <path id="DejaVuSans-31" d="M 794 531 
L 1825 531 
L 1825 4091 
L 703 3866 
L 703 4441 
L 1819 4666 
L 2450 4666 
L 2450 531 
L 3481 531 
L 3481 0 
L 794 0 
L 794 531 
z
" transform="scale(0.015625)"/>
       </defs>
       <use xlink:href="#DejaVuSans-31"/>
       <use xlink:href="#DejaVuSans-2e" x="63.623047"/>
       <use xlink:href="#DejaVuSans-30" x="95.410156"/>
      </g>
     </g>
    </g>
    <g id="ytick_7">
     <g id="line2d_15">
      <g>
       <use xlink:href="#m1795e33b01" x="57.6" y="41.472" style="stroke: #000000; stroke-width: 0.8"/>
      </g>
     </g>
     <g id="text_16">
      <!-- 1.2 -->
      <g transform="translate(34.696875 45.271219) scale(0.1 -0.1)">
       <use xlink:href="#DejaVuSans-31"/>
       <use xlink:href="#DejaVuSans-2e" x="63.623047"/>
       <use xlink:href="#DejaVuSans-32" x="95.410156"/>
      </g>
     </g>
    </g>
    <g id="text_17">
     <!-- Absorbance -->
     <g transform="translate(28.617187 204.074875) rotate(-90) scale(0.1 -0.1)">
      <defs>
       <path id="DejaVuSans-41" d="M 2188 4044 
L 1331 1722 
L 3047 1722 
L 2188 4044 
z
M 1831 4666 
L 2547 4666 
L 4325 0 
L 3669 0 
L 3244 1197 
L 1141 1197 
L 716 0 
L 50 0 
L 1831 4666 
z
" transform="scale(0.015625)"/>
       <path id="DejaVuSans-62" d="M 3116 1747 
Q 3116 2381 2855 2742 
Q 2594 3103 2138 3103 
Q 1681 3103 1420 2742 
Q 1159 2381 1159 1747 
Q 1159 1113 1420 752 
Q 1681 391 2138 391 
Q 2594 391 2855 752 
Q 3116 1113 3116 1747 
z
M 1159 2969 
Q 1341 3281 1617 3432 
Q 1894 3584 2278 3584 
Q 2916 3584 3314 3078 
Q 3713 2572 3713 1747 
Q 3713 922 3314 415 
Q 2916 -91 2278 -91 
Q 1894 -91 1617 61 
Q 1341 213 1159 525 
L 1159 0 
L 581 0 
L 581 4863 
L 1159 4863 
L 1159 2969 
z
" transform="scale(0.015625)"/>
       <path id="DejaVuSans-73" d="M 2834 3397 
L 2834 2853 
Q 2591 2978 2328 3040 
Q 2066 3103 1784 3103 
Q 1356 3103 1142 2972 
Q 928 2841 928 2578 
Q 928 2378 1081 2264 
Q 1234 2150 1697 2047 
L 1894 2003 
Q 2506 1872 2764 1633 
Q 3022 1394 3022 966 
Q 3022 478 2636 193 
Q 2250 -91 1575 -91 
Q 1294 -91 989 -36 
Q 684 19 347 128 
L 347 722 
Q 666 556 975 473 
Q 1284 391 1588 391 
Q 1994 391 2212 530 
Q 2431 669 2431 922 
Q 2431 1156 2273 1281 
Q 2116 1406 1581 1522 
L 1381 1569 
Q 847 1681 609 1914 
Q 372 2147 372 2553 
Q 372 3047 722 3315 
Q 1072 3584 1716 3584 
Q 2034 3584 2315 3537 
Q 2597 3491 2834 3397 
z
" transform="scale(0.015625)"/>
       <path id="DejaVuSans-6f" d="M 1959 3097 
Q 1497 3097 1228 2736 
Q 959 2375 959 1747 
Q 959 1119 1226 758 
Q 1494 397 1959 397 
Q 2419 397 2687 759 
Q 2956 1122 2956 1747 
Q 2956 2369 2687 2733 
Q 2419 3097 1959 3097 
z
M 1959 3584 
Q 2709 3584 3137 3096 
Q 3566 2609 3566 1747 
Q 3566 888 3137 398 
Q 2709 -91 1959 -91 
Q 1206 -91 779 398 
Q 353 888 353 1747 
Q 353 2609 779 3096 
Q 1206 3584 1959 3584 
z
" transform="scale(0.015625)"/>
       <path id="DejaVuSans-72" d="M 2631 2963 
Q 2534 3019 2420 3045 
Q 2306 3072 2169 3072 
Q 1681 3072 1420 2755 
Q 1159 2438 1159 1844 
L 1159 0 
L 581 0 
L 581 3500 
L 1159 3500 
L 1159 2956 
Q 1341 3275 1631 3429 
Q 1922 3584 2338 3584 
Q 2397 3584 2469 3576 
Q 2541 3569 2628 3553 
L 2631 2963 
z
" transform="scale(0.015625)"/>
       <path id="DejaVuSans-63" d="M 3122 3366 
L 3122 2828 
Q 2878 2963 2633 3030 
Q 2388 3097 2138 3097 
Q 1578 3097 1268 2742 
Q 959 2388 959 1747 
Q 959 1106 1268 751 
Q 1578 397 2138 397 
Q 2388 397 2633 464 
Q 2878 531 3122 666 
L 3122 134 
Q 2881 22 2623 -34 
Q 2366 -91 2075 -91 
Q 1284 -91 818 406 
Q 353 903 353 1747 
Q 353 2603 823 3093 
Q 1294 3584 2113 3584 
Q 2378 3584 2631 3529 
Q 2884 3475 3122 3366 
z
" transform="scale(0.015625)"/>
      </defs>
      <use xlink:href="#DejaVuSans-41"/>
      <use xlink:href="#DejaVuSans-62" x="68.408203"/>
      <use xlink:href="#DejaVuSans-73" x="131.884766"/>
      <use xlink:href="#DejaVuSans-6f" x="183.984375"/>
      <use xlink:href="#DejaVuSans-72" x="245.166016"/>
      <use xlink:href="#DejaVuSans-62" x="286.279297"/>
      <use xlink:href="#DejaVuSans-61" x="349.755859"/>
      <use xlink:href="#DejaVuSans-6e" x="411.035156"/>
      <use xlink:href="#DejaVuSans-63" x="474.414062"/>
      <use xlink:href="#DejaVuSans-65" x="529.394531"/>
     </g>
    </g>
   </g>
   <g id="line2d_16">
    <path d="M 363.702857 308.184474 
L 363.192686 308.050521 
L 359.111314 308.065509 
L 355.540114 308.127079 
L 354.0096 308.101698 
L 352.479086 308.089667 
L 349.418057 308.027915 
L 347.887543 308.062896 
L 346.8672 307.992637 
L 345.846857 308.001783 
L 344.826514 307.941617 
L 343.296 307.935659 
L 341.765486 307.858937 
L 339.7248 307.77031 
L 333.602743 307.081207 
L 331.562057 307.07435 
L 330.541714 306.958662 
L 329.0112 306.872385 
L 326.970514 306.732074 
L 323.399314 306.999283 
L 322.889143 307.137459 
L 322.378971 307.070979 
L 321.8688 307.239951 
L 321.358629 307.105476 
L 317.787429 307.262093 
L 316.767086 307.366924 
L 314.216229 307.32403 
L 302.992457 306.923586 
L 300.4416 306.766658 
L 299.931429 306.806283 
L 298.911086 306.705382 
L 283.095771 304.976786 
L 266.260114 302.353101 
L 264.219429 302.038967 
L 257.5872 301.082221 
L 256.056686 300.856726 
L 248.404114 299.779197 
L 246.363429 299.576844 
L 239.7312 298.400475 
L 235.139657 297.236966 
L 231.058286 295.365084 
L 228.507429 293.604899 
L 226.466743 291.840261 
L 222.895543 287.988977 
L 217.793829 281.062384 
L 204.0192 259.942129 
L 202.488686 257.578546 
L 201.978514 256.917319 
L 200.958171 255.336879 
L 197.897143 251.383889 
L 196.8768 250.207927 
L 193.3056 246.760645 
L 191.264914 245.15856 
L 190.754743 244.907704 
L 190.244571 244.531145 
L 187.693714 243.472362 
L 186.1632 243.139661 
L 184.122514 243.254247 
L 182.592 243.675231 
L 180.551314 244.552571 
L 179.530971 245.08142 
L 176.980114 246.947857 
L 173.919086 249.922036 
L 170.347886 254.422796 
L 168.3072 257.137887 
L 167.286857 258.510132 
L 162.185143 265.343642 
L 160.654629 267.464187 
L 159.634286 268.796749 
L 158.103771 270.782313 
L 154.532571 274.841438 
L 151.981714 277.163303 
L 149.941029 278.60594 
L 149.430857 278.876006 
L 148.920686 279.309859 
L 147.390171 279.865379 
L 146.88 280.064523 
L 146.369829 279.977143 
L 144.839314 280.134124 
L 144.329143 280.102343 
L 143.818971 279.792528 
L 143.3088 278.684352 
L 142.798629 279.678074 
L 142.288457 279.510747 
L 141.778286 279.206041 
L 140.757943 279.090329 
L 140.247771 278.678837 
L 139.7376 278.429276 
L 138.717257 277.663638 
L 138.207086 277.417622 
L 137.186743 276.556792 
L 136.676571 275.807818 
L 136.1664 275.639292 
L 135.656229 275.18786 
L 134.635886 273.890676 
L 133.615543 272.990932 
L 133.105371 268.61029 
L 132.085029 266.691424 
L 131.064686 263.925907 
L 130.554514 262.181524 
L 129.534171 257.391724 
L 128.513829 249.749846 
L 128.003657 244.4576 
L 127.493486 237.793862 
L 126.983314 229.432969 
L 126.473143 218.919225 
L 125.962971 205.817617 
L 125.4528 189.431936 
L 124.942629 169.074109 
L 124.432457 144.013662 
L 123.922286 112.817823 
L 123.412114 74.235107 
L 122.649927 -1 
L 122.649927 -1 
" clip-path="url(#p7031c48c52)" style="fill: none; stroke: #e01f1f; stroke-width: 0.5; stroke-linecap: square"/>
   </g>
   <g id="line2d_17">
    <path d="M 363.702857 308.103829 
L 362.682514 307.96214 
L 356.050286 308.072836 
L 354.519771 308.056634 
L 352.989257 308.034211 
L 352.479086 308.0727 
L 351.968914 307.972681 
L 349.418057 308.026136 
L 338.194286 307.584 
L 334.112914 307.092533 
L 332.5824 307.044222 
L 331.562057 307.024961 
L 327.480686 306.808474 
L 326.970514 306.726804 
L 325.44 306.920388 
L 324.419657 306.974521 
L 321.8688 307.30641 
L 321.358629 307.194087 
L 317.277257 307.425167 
L 313.706057 307.467614 
L 312.685714 307.484565 
L 311.665371 307.436222 
L 310.645029 307.455537 
L 309.624686 307.4238 
L 299.931429 306.996173 
L 298.911086 306.930687 
L 297.890743 306.91043 
L 295.850057 306.635296 
L 287.687314 305.915482 
L 287.177143 305.796493 
L 286.666971 305.833546 
L 285.136457 305.620115 
L 283.095771 305.292789 
L 282.075429 305.139105 
L 280.034743 304.840512 
L 279.0144 304.687265 
L 276.973714 304.366631 
L 270.341486 303.326188 
L 269.831314 303.335559 
L 268.3008 303.07406 
L 263.199086 302.410893 
L 260.648229 302.05258 
L 259.627886 301.899204 
L 250.954971 300.744131 
L 250.4448 300.745969 
L 249.424457 300.557417 
L 247.383771 300.291666 
L 245.853257 300.148913 
L 245.343086 300.112945 
L 244.832914 299.948255 
L 242.792229 299.675343 
L 238.200686 298.874809 
L 234.119314 297.640201 
L 233.098971 297.231048 
L 230.037943 295.629148 
L 227.997257 294.14399 
L 226.976914 293.346706 
L 225.956571 292.452706 
L 222.895543 289.160697 
L 220.344686 285.95273 
L 217.793829 282.411267 
L 214.222629 277.225042 
L 199.937829 255.361172 
L 197.897143 252.652445 
L 196.366629 250.835631 
L 191.264914 245.969287 
L 188.714057 244.419809 
L 186.1632 243.563551 
L 185.142857 243.450704 
L 183.102171 243.623799 
L 181.061486 244.394404 
L 180.041143 244.893394 
L 178.510629 245.720975 
L 176.980114 246.844756 
L 175.4496 248.247198 
L 174.939429 248.647913 
L 172.388571 251.597975 
L 158.613943 270.205696 
L 157.083429 272.22786 
L 155.042743 274.595541 
L 151.471543 277.937994 
L 150.4512 278.773764 
L 148.410514 280.050359 
L 147.390171 280.468761 
L 146.88 280.64105 
L 146.369829 280.621098 
L 145.859657 280.794046 
L 144.329143 280.831046 
L 143.818971 280.70934 
L 143.3088 279.488247 
L 142.798629 280.603812 
L 142.288457 280.397984 
L 141.778286 280.036138 
L 141.268114 280.172349 
L 140.757943 279.91265 
L 140.247771 279.522638 
L 139.227429 279.094247 
L 138.717257 278.494555 
L 138.207086 278.457062 
L 137.186743 277.583331 
L 136.676571 276.87103 
L 136.1664 276.73088 
L 135.656229 276.067317 
L 135.146057 275.787966 
L 134.635886 274.748495 
L 134.125714 274.58605 
L 133.615543 274.080765 
L 133.105371 269.3306 
L 132.085029 267.471849 
L 131.064686 264.709114 
L 130.044343 260.773704 
L 129.534171 258.058765 
L 129.024 254.637801 
L 128.513829 250.416927 
L 128.003657 245.084043 
L 127.493486 238.28562 
L 126.983314 229.917761 
L 126.473143 219.288784 
L 125.962971 206.106011 
L 125.4528 189.711996 
L 124.942629 169.201529 
L 124.432457 143.725404 
L 123.922286 112.299005 
L 123.412114 73.483759 
L 122.665946 -1 
L 122.665946 -1 
" clip-path="url(#p7031c48c52)" style="fill: none; stroke: #d51f2a; stroke-width: 0.5; stroke-linecap: square"/>
   </g>
   <g id="line2d_18">
    <path d="M 363.702857 308.35107 
L 363.192686 308.204052 
L 360.131657 308.167221 
L 358.601143 308.184781 
L 355.029943 308.159173 
L 352.989257 308.168087 
L 340.234971 307.767643 
L 336.1536 307.296 
L 335.133257 307.107526 
L 334.112914 307.056871 
L 333.092571 307.003198 
L 330.541714 306.824436 
L 330.031543 306.932234 
L 329.0112 306.773316 
L 326.460343 306.656016 
L 322.889143 306.866659 
L 322.378971 306.903833 
L 321.8688 307.068598 
L 321.358629 306.927146 
L 318.2976 307.062612 
L 310.134857 307.135418 
L 301.972114 306.727243 
L 300.951771 306.608268 
L 300.4416 306.629283 
L 299.931429 306.473836 
L 298.911086 306.41739 
L 298.400914 306.329354 
L 297.890743 306.3592 
L 295.850057 306.017933 
L 291.258514 305.576178 
L 286.666971 304.980018 
L 276.973714 303.292057 
L 275.953371 303.072126 
L 271.361829 302.230953 
L 269.321143 301.915895 
L 266.770286 301.483664 
L 266.260114 301.457218 
L 264.7296 301.124778 
L 251.465143 299.045032 
L 250.954971 298.999134 
L 250.4448 298.836533 
L 249.424457 298.775733 
L 248.404114 298.604626 
L 246.8736 298.531876 
L 245.343086 298.331265 
L 244.832914 298.07585 
L 243.812571 297.976859 
L 238.200686 297.072681 
L 234.629486 296.20164 
L 232.5888 295.474626 
L 229.0176 293.761576 
L 225.4464 291.150626 
L 220.854857 286.710842 
L 212.692114 276.676239 
L 205.549714 266.743655 
L 199.937829 258.762423 
L 196.8768 254.994439 
L 192.795429 250.622233 
L 191.264914 249.22369 
L 190.244571 248.331758 
L 189.224229 247.632748 
L 188.203886 247.024432 
L 186.1632 246.090566 
L 185.142857 245.765768 
L 183.102171 245.671003 
L 180.551314 246.094855 
L 179.0208 246.637068 
L 177.490286 247.322741 
L 174.429257 249.452737 
L 172.388571 251.431798 
L 170.347886 253.670283 
L 168.817371 255.520489 
L 155.552914 271.773703 
L 153.512229 273.717703 
L 152.491886 274.618105 
L 150.4512 276.18127 
L 149.430857 276.7616 
L 147.900343 277.647958 
L 146.88 277.904994 
L 146.369829 277.909656 
L 145.859657 278.05582 
L 144.329143 278.013807 
L 143.818971 277.676195 
L 143.3088 276.508255 
L 142.798629 277.539865 
L 142.288457 277.343698 
L 141.778286 277.013557 
L 141.268114 277.024359 
L 140.757943 276.750322 
L 139.7376 275.997657 
L 139.227429 275.731603 
L 138.717257 275.182352 
L 138.207086 275.013529 
L 136.676571 273.528938 
L 136.1664 272.404066 
L 135.656229 272.457758 
L 134.635886 271.021643 
L 134.125714 271.042279 
L 133.615543 270.157924 
L 133.105371 265.651956 
L 132.5952 264.855143 
L 131.574857 262.563043 
L 130.554514 259.265236 
L 129.534171 254.520523 
L 129.024 251.149694 
L 128.513829 246.948726 
L 128.003657 241.686835 
L 127.493486 235.046513 
L 126.983314 226.7947 
L 126.473143 216.312852 
L 125.962971 203.266072 
L 125.4528 187.112933 
L 124.942629 166.767148 
L 124.432457 141.758462 
L 123.922286 110.553186 
L 123.412114 72.266062 
L 122.666588 -1 
L 122.666588 -1 
" clip-path="url(#p7031c48c52)" style="fill: none; stroke: #ca1f35; stroke-width: 0.5; stroke-linecap: square"/>
   </g>
   <g id="line2d_19">
    <path d="M 363.702857 308.280832 
L 363.192686 308.117803 
L 360.641829 308.08191 
L 346.357029 308.044252 
L 344.826514 307.97259 
L 343.296 307.908367 
L 341.765486 307.867976 
L 339.214629 307.693716 
L 333.602743 307.012564 
L 331.562057 307.068844 
L 326.460343 306.750597 
L 323.399314 307.070434 
L 322.378971 307.103952 
L 321.8688 307.184797 
L 321.358629 307.116548 
L 319.317943 307.215809 
L 317.277257 307.273872 
L 316.767086 307.353235 
L 316.256914 307.29569 
L 315.236571 307.34286 
L 313.706057 307.302438 
L 312.175543 307.297878 
L 309.114514 307.229534 
L 308.604343 307.282581 
L 307.073829 307.132487 
L 306.563657 307.203664 
L 304.0128 307.010777 
L 301.972114 306.889258 
L 300.951771 306.719262 
L 298.400914 306.570324 
L 293.2992 305.908129 
L 292.278857 305.861797 
L 290.748343 305.602991 
L 289.217829 305.394458 
L 283.095771 304.33691 
L 281.055086 303.889073 
L 279.524571 303.562627 
L 276.463543 302.876322 
L 274.422857 302.475309 
L 266.770286 300.886381 
L 265.749943 300.711164 
L 264.7296 300.525298 
L 252.485486 298.192628 
L 250.954971 298.010223 
L 249.424457 297.730111 
L 248.404114 297.680862 
L 245.343086 297.26835 
L 244.832914 297.110939 
L 243.812571 296.99386 
L 242.792229 296.869456 
L 239.7312 296.477166 
L 237.690514 296.091947 
L 236.670171 295.940787 
L 232.078629 294.893263 
L 230.037943 294.244047 
L 226.466743 292.570655 
L 224.936229 291.741227 
L 222.895543 290.366641 
L 222.385371 290.076041 
L 220.854857 288.838813 
L 218.304 286.702172 
L 212.692114 281.433198 
L 210.651429 279.163536 
L 210.141257 278.696933 
L 208.100571 276.297639 
L 202.998857 269.951187 
L 201.468343 267.937627 
L 194.325943 259.423803 
L 188.714057 253.600318 
L 186.673371 252.086724 
L 185.653029 251.476875 
L 184.122514 250.833268 
L 182.081829 250.367382 
L 179.0208 250.237027 
L 175.959771 250.898915 
L 173.919086 251.83325 
L 172.898743 252.568613 
L 170.858057 254.238817 
L 166.776686 258.27272 
L 166.266514 258.710752 
L 165.756343 259.302713 
L 165.246171 259.707991 
L 163.715657 261.347454 
L 160.654629 264.63075 
L 159.634286 265.818735 
L 158.103771 267.675113 
L 154.0224 271.760493 
L 151.981714 273.441833 
L 149.941029 274.815321 
L 149.430857 274.987104 
L 148.410514 275.649438 
L 147.900343 275.881489 
L 145.349486 276.173479 
L 144.329143 276.091677 
L 143.818971 275.751461 
L 143.3088 274.426469 
L 142.798629 275.488973 
L 142.288457 275.380599 
L 141.778286 274.789635 
L 141.268114 274.774706 
L 140.757943 274.550989 
L 140.247771 273.986726 
L 139.227429 273.228948 
L 138.717257 272.549953 
L 138.207086 272.373352 
L 137.696914 271.945167 
L 136.676571 270.897944 
L 136.1664 269.719662 
L 135.656229 269.739363 
L 135.146057 269.072512 
L 134.635886 268.195308 
L 134.125714 267.971026 
L 133.615543 267.187001 
L 133.105371 262.621576 
L 132.085029 260.614226 
L 131.064686 257.850222 
L 130.554514 256.096976 
L 130.044343 253.935079 
L 129.534171 251.288883 
L 129.024 247.906184 
L 128.513829 243.717219 
L 128.003657 238.444667 
L 127.493486 231.880751 
L 126.983314 223.628826 
L 126.473143 213.259515 
L 125.962971 200.282869 
L 125.4528 184.107855 
L 124.942629 164.00569 
L 124.432457 139.06119 
L 123.922286 108.062814 
L 123.412114 69.906204 
L 122.685902 -1 
L 122.685902 -1 
" clip-path="url(#p7031c48c52)" style="fill: none; stroke: #be1f41; stroke-width: 0.5; stroke-linecap: square"/>
   </g>
   <g id="line2d_20">
    <path d="M 363.702857 308.168375 
L 363.192686 308.011021 
L 361.662171 308.024455 
L 355.029943 308.061764 
L 350.948571 308.038103 
L 350.4384 308.10553 
L 349.418057 308.039207 
L 348.397714 307.999931 
L 346.357029 307.958782 
L 345.846857 308.01274 
L 344.316343 307.909603 
L 342.785829 307.857332 
L 337.173943 307.505918 
L 335.643429 307.225427 
L 331.051886 307.02414 
L 329.521371 306.924136 
L 327.480686 306.741439 
L 322.378971 307.1583 
L 321.8688 307.327206 
L 321.358629 307.171112 
L 319.828114 307.314718 
L 318.807771 307.288809 
L 317.787429 307.360969 
L 315.746743 307.401251 
L 315.236571 307.441219 
L 314.7264 307.357381 
L 313.706057 307.394972 
L 311.665371 307.363159 
L 308.094171 307.305119 
L 297.380571 306.522054 
L 296.360229 306.285704 
L 293.2992 305.990267 
L 290.748343 305.638735 
L 286.666971 304.940239 
L 284.116114 304.509548 
L 283.605943 304.334995 
L 282.5856 304.15663 
L 279.524571 303.449756 
L 276.463543 302.675557 
L 275.4432 302.492563 
L 273.912686 302.096152 
L 272.382171 301.802163 
L 270.851657 301.464296 
L 260.648229 299.315079 
L 258.097371 298.833164 
L 256.056686 298.433737 
L 252.995657 297.841632 
L 247.893943 297.068581 
L 246.363429 296.857882 
L 245.853257 296.880474 
L 244.832914 296.598025 
L 241.261714 296.210283 
L 233.098971 295.047246 
L 229.527771 294.143617 
L 228.507429 293.789234 
L 227.487086 293.451747 
L 224.426057 292.146817 
L 222.385371 291.176118 
L 220.854857 290.167844 
L 219.834514 289.55209 
L 215.242971 286.310549 
L 210.141257 281.931961 
L 207.5904 279.27677 
L 206.570057 278.142339 
L 205.039543 276.415592 
L 201.978514 272.800003 
L 200.448 270.965233 
L 193.3056 262.577408 
L 191.264914 260.155834 
L 187.693714 256.471271 
L 186.1632 255.273621 
L 184.632686 254.311951 
L 182.592 253.456061 
L 178.000457 252.583331 
L 174.429257 253.175811 
L 172.898743 253.962806 
L 171.368229 255.001537 
L 169.837714 256.216532 
L 167.286857 258.433195 
L 164.225829 261.222799 
L 159.634286 265.908252 
L 156.063086 269.770022 
L 154.0224 271.639879 
L 150.961371 274.005765 
L 148.410514 275.483526 
L 147.390171 275.857223 
L 146.88 275.978323 
L 146.369829 275.94584 
L 145.859657 276.026 
L 144.329143 275.878891 
L 143.818971 275.63202 
L 143.3088 274.29655 
L 142.798629 275.2456 
L 142.288457 275.029447 
L 141.778286 274.636948 
L 141.268114 274.539555 
L 140.757943 274.20572 
L 139.7376 273.378406 
L 139.227429 273.081251 
L 138.717257 272.318494 
L 138.207086 272.155223 
L 137.186743 271.151916 
L 136.676571 270.244023 
L 136.1664 269.899025 
L 135.146057 268.795679 
L 134.635886 267.775129 
L 134.125714 267.527733 
L 133.615543 266.976387 
L 133.105371 261.994276 
L 132.085029 259.996049 
L 131.064686 257.303244 
L 130.554514 255.528493 
L 130.044343 253.308859 
L 129.024 247.339532 
L 128.513829 243.149132 
L 128.003657 237.944051 
L 127.493486 231.347996 
L 126.983314 223.179806 
L 126.473143 212.843144 
L 125.962971 199.987138 
L 125.4528 183.90186 
L 124.942629 163.747537 
L 124.432457 138.952571 
L 123.922286 107.943132 
L 123.412114 69.740682 
L 122.690585 -1 
L 122.690585 -1 
" clip-path="url(#p7031c48c52)" style="fill: none; stroke: #b31f4c; stroke-width: 0.5; stroke-linecap: square"/>
   </g>
   <g id="line2d_21">
    <path d="M 363.702857 308.413911 
L 363.192686 308.203464 
L 360.131657 308.178418 
L 358.601143 308.231922 
L 356.050286 308.201163 
L 355.029943 308.200413 
L 352.989257 308.122455 
L 351.968914 308.138264 
L 350.4384 308.116902 
L 348.907886 308.109634 
L 346.8672 307.994937 
L 345.846857 308.053597 
L 344.826514 307.931719 
L 343.806171 307.950531 
L 339.214629 307.621618 
L 338.194286 307.584 
L 333.092571 306.94554 
L 331.562057 306.93235 
L 329.0112 306.765809 
L 326.970514 306.544086 
L 319.317943 307.02999 
L 318.2976 307.029429 
L 313.195886 307.04853 
L 305.543314 306.733407 
L 304.522971 306.627658 
L 301.972114 306.461499 
L 299.421257 306.196984 
L 296.8704 305.850576 
L 295.850057 305.680849 
L 293.809371 305.429773 
L 292.789029 305.264351 
L 288.197486 304.535567 
L 287.687314 304.358476 
L 286.666971 304.165855 
L 284.116114 303.627731 
L 277.994057 302.112435 
L 275.953371 301.563614 
L 275.4432 301.483204 
L 274.422857 301.195139 
L 271.361829 300.366815 
L 269.321143 299.930978 
L 268.810971 299.732857 
L 267.790629 299.644543 
L 266.770286 299.350399 
L 264.219429 298.724955 
L 262.178743 298.325507 
L 260.648229 297.938222 
L 258.097371 297.32664 
L 256.566857 297.083707 
L 255.546514 296.802292 
L 250.4448 295.912691 
L 249.934629 295.74003 
L 248.404114 295.522489 
L 242.792229 294.7232 
L 242.282057 294.613115 
L 241.261714 294.545474 
L 240.241371 294.406656 
L 236.16 293.92111 
L 234.629486 293.69115 
L 232.5888 293.374574 
L 231.568457 293.158043 
L 226.976914 292.005701 
L 224.936229 291.216242 
L 223.915886 290.880675 
L 220.854857 289.378872 
L 220.344686 289.193088 
L 213.712457 285.000694 
L 212.692114 284.199531 
L 210.651429 282.600993 
L 206.059886 278.104669 
L 193.815771 264.004278 
L 191.775086 261.470309 
L 188.203886 257.326311 
L 186.673371 256.026047 
L 185.653029 255.142276 
L 184.122514 254.135021 
L 180.551314 252.695252 
L 179.530971 252.443655 
L 177.490286 252.018051 
L 176.980114 251.992871 
L 175.959771 252.108971 
L 174.429257 252.292733 
L 173.408914 252.620042 
L 171.368229 253.74449 
L 166.776686 257.239208 
L 162.695314 260.671051 
L 155.042743 268.386301 
L 154.532571 268.642293 
L 153.002057 269.881176 
L 151.471543 270.998335 
L 149.941029 271.965359 
L 149.430857 272.091326 
L 148.410514 272.705962 
L 147.390171 273.003121 
L 146.88 273.16395 
L 144.839314 273.116871 
L 144.329143 272.929623 
L 143.818971 272.618281 
L 143.3088 271.290726 
L 142.798629 272.223412 
L 142.288457 271.935265 
L 141.778286 271.499701 
L 140.757943 271.078674 
L 139.7376 270.01047 
L 139.227429 269.694747 
L 138.717257 268.928031 
L 138.207086 268.685968 
L 137.696914 267.977927 
L 137.186743 267.563224 
L 136.676571 266.580171 
L 136.1664 266.328191 
L 135.146057 264.994307 
L 134.635886 264.104397 
L 134.125714 263.762476 
L 133.615543 263.132893 
L 133.105371 258.427232 
L 132.085029 256.401535 
L 131.574857 255.213491 
L 130.554514 251.893849 
L 130.044343 249.767065 
L 129.024 243.788418 
L 128.513829 239.651531 
L 128.003657 234.484373 
L 127.493486 227.882653 
L 126.983314 219.721073 
L 126.473143 209.453011 
L 125.962971 196.671687 
L 125.4528 180.57524 
L 124.942629 160.641669 
L 124.432457 135.905656 
L 123.922286 105.072371 
L 123.412114 67.131795 
L 122.708138 -1 
L 122.708138 -1 
" clip-path="url(#p7031c48c52)" style="fill: none; stroke: #a71f58; stroke-width: 0.5; stroke-linecap: square"/>
   </g>
   <g id="line2d_22">
    <path d="M 363.702857 308.13869 
L 362.682514 307.976647 
L 359.111314 308.007023 
L 358.090971 308.022218 
L 355.029943 308.043568 
L 354.519771 307.974066 
L 353.499429 307.999533 
L 349.928229 307.990758 
L 348.397714 307.931319 
L 346.8672 307.98945 
L 344.826514 307.840552 
L 343.806171 307.89084 
L 338.704457 307.606173 
L 338.194286 307.584 
L 337.173943 307.403721 
L 332.072229 306.952702 
L 331.051886 306.957711 
L 330.541714 306.867711 
L 329.0112 306.83727 
L 326.460343 306.707617 
L 321.358629 307.092598 
L 317.277257 307.280411 
L 306.053486 307.055418 
L 301.461943 306.711226 
L 290.748343 305.309908 
L 286.666971 304.462215 
L 285.136457 304.199402 
L 284.116114 303.899126 
L 283.095771 303.682628 
L 282.075429 303.411541 
L 280.544914 303.005187 
L 279.0144 302.565461 
L 276.973714 302.071614 
L 273.912686 301.203799 
L 266.770286 299.410399 
L 263.709257 298.737167 
L 263.199086 298.531966 
L 262.178743 298.345416 
L 260.648229 297.96729 
L 259.117714 297.644577 
L 258.097371 297.353259 
L 256.566857 297.048304 
L 255.036343 296.68734 
L 253.505829 296.38977 
L 252.485486 296.180271 
L 251.465143 295.972641 
L 248.914286 295.507606 
L 246.363429 295.181031 
L 245.853257 295.080689 
L 245.343086 295.09486 
L 244.832914 294.849092 
L 243.812571 294.751167 
L 228.507429 292.923291 
L 226.976914 292.515913 
L 225.956571 292.305205 
L 220.854857 290.69122 
L 215.753143 288.363365 
L 215.242971 288.019234 
L 214.7328 287.813261 
L 213.712457 287.164362 
L 212.181943 286.203698 
L 209.631086 284.386649 
L 207.5904 282.618796 
L 198.917486 273.47942 
L 197.386971 271.710022 
L 195.856457 269.937422 
L 190.244571 262.855274 
L 187.693714 259.851153 
L 186.673371 258.954565 
L 186.1632 258.353162 
L 182.592 255.969194 
L 180.551314 254.914142 
L 177.490286 253.892291 
L 174.939429 253.664463 
L 172.898743 254.197139 
L 170.858057 255.224228 
L 169.837714 255.818625 
L 168.817371 256.542224 
L 163.205486 260.650712 
L 162.695314 261.208482 
L 161.674971 262.043832 
L 159.634286 263.998406 
L 156.573257 267.13353 
L 153.002057 270.143123 
L 148.920686 272.795329 
L 147.390171 273.338791 
L 146.369829 273.513869 
L 144.839314 273.45001 
L 144.329143 273.269 
L 143.818971 272.968947 
L 143.3088 271.630288 
L 142.798629 272.633796 
L 140.757943 271.468993 
L 140.247771 270.890828 
L 139.227429 270.221845 
L 138.717257 269.40433 
L 138.207086 269.259736 
L 137.696914 268.543754 
L 136.676571 267.595536 
L 136.1664 266.333439 
L 135.656229 266.28258 
L 135.146057 265.71752 
L 134.635886 264.774903 
L 134.125714 264.751894 
L 133.615543 263.785165 
L 133.105371 259.081407 
L 132.5952 258.16984 
L 131.574857 255.728489 
L 131.064686 254.289982 
L 130.044343 250.428771 
L 129.534171 247.845341 
L 129.024 244.589541 
L 128.513829 240.500172 
L 128.003657 235.321475 
L 127.493486 228.845511 
L 126.983314 220.767996 
L 126.473143 210.636172 
L 125.962971 197.901606 
L 125.4528 182.020188 
L 124.942629 162.255489 
L 124.432457 137.511043 
L 123.922286 106.928675 
L 123.412114 68.948484 
L 122.695669 -1 
L 122.695669 -1 
" clip-path="url(#p7031c48c52)" style="fill: none; stroke: #9c1f63; stroke-width: 0.5; stroke-linecap: square"/>
   </g>
   <g id="line2d_23">
    <path d="M 363.702857 308.173541 
L 363.192686 307.978547 
L 359.621486 308.022527 
L 351.458743 308.063008 
L 350.948571 308.001041 
L 349.928229 308.053337 
L 347.377371 308.007078 
L 346.8672 308.038144 
L 346.357029 307.950533 
L 344.826514 307.972817 
L 342.275657 307.849264 
L 338.704457 307.629993 
L 335.643429 307.288348 
L 335.133257 307.164817 
L 331.562057 307.062304 
L 329.521371 306.900914 
L 328.501029 306.887431 
L 326.970514 306.798477 
L 324.419657 307.006544 
L 322.889143 307.114288 
L 321.8688 307.331977 
L 321.358629 307.158843 
L 317.787429 307.368816 
L 309.624686 307.375087 
L 308.604343 307.307407 
L 302.482286 306.927111 
L 300.951771 306.76072 
L 300.4416 306.66027 
L 299.931429 306.692618 
L 298.400914 306.520878 
L 297.380571 306.341559 
L 295.850057 306.048053 
L 294.829714 305.991103 
L 285.646629 304.376892 
L 284.116114 303.947119 
L 273.912686 301.195769 
L 272.382171 300.78657 
L 269.831314 300.077367 
L 268.810971 299.842507 
L 263.709257 298.593629 
L 262.688914 298.312716 
L 260.648229 297.780084 
L 248.914286 295.206596 
L 239.221029 293.9887 
L 236.670171 293.752876 
L 235.139657 293.620099 
L 233.609143 293.55216 
L 232.5888 293.433124 
L 231.058286 293.353144 
L 227.997257 293.042949 
L 226.466743 292.892362 
L 224.936229 292.666597 
L 223.405714 292.384923 
L 221.8752 292.171992 
L 218.304 291.23797 
L 216.773486 290.778424 
L 213.712457 289.631424 
L 213.202286 289.303307 
L 212.692114 289.149556 
L 208.100571 286.268247 
L 202.488686 281.148154 
L 198.917486 277.434612 
L 197.897143 276.273381 
L 194.325943 271.990525 
L 187.693714 263.074902 
L 184.122514 259.526821 
L 181.571657 257.656213 
L 177.490286 255.481663 
L 175.4496 254.910985 
L 174.939429 254.751356 
L 172.898743 254.932666 
L 169.837714 256.143193 
L 168.3072 257.019 
L 167.797029 257.266793 
L 167.286857 257.650123 
L 166.266514 258.205015 
L 161.674971 261.361588 
L 160.654629 262.293603 
L 157.083429 265.684752 
L 152.491886 269.368908 
L 149.941029 271.050582 
L 147.900343 271.948182 
L 146.88 272.218677 
L 146.369829 272.07244 
L 145.859657 272.352812 
L 144.839314 272.19417 
L 143.818971 271.911191 
L 143.3088 270.274181 
L 142.798629 271.285815 
L 142.288457 271.006543 
L 141.778286 270.448406 
L 141.268114 270.375952 
L 140.757943 269.987666 
L 140.247771 269.394069 
L 139.227429 268.63306 
L 138.717257 267.793335 
L 138.207086 267.520804 
L 137.186743 266.413198 
L 136.676571 265.56588 
L 136.1664 265.254561 
L 134.635886 263.017602 
L 134.125714 262.893155 
L 133.615543 262.093795 
L 133.105371 256.984458 
L 132.085029 254.915519 
L 131.574857 253.701126 
L 130.554514 250.481926 
L 129.534171 245.677322 
L 129.024 242.460125 
L 128.513829 238.507338 
L 128.003657 233.280157 
L 127.493486 226.8514 
L 126.983314 218.839374 
L 126.473143 208.767374 
L 125.962971 196.079467 
L 125.4528 180.227129 
L 124.942629 160.632241 
L 124.432457 136.139411 
L 123.922286 105.466804 
L 123.412114 67.939658 
L 122.700086 -1 
L 122.700086 -1 
" clip-path="url(#p7031c48c52)" style="fill: none; stroke: #911f6e; stroke-width: 0.5; stroke-linecap: square"/>
   </g>
   <g id="line2d_24">
    <path d="M 363.702857 308.223227 
L 363.192686 308.038594 
L 351.458743 308.121685 
L 350.4384 308.014352 
L 348.907886 307.990747 
L 346.357029 307.968729 
L 344.316343 307.905248 
L 339.7248 307.720331 
L 338.704457 307.643661 
L 335.133257 307.187068 
L 334.623086 307.053192 
L 333.602743 307.033418 
L 332.072229 306.960011 
L 331.562057 307.019903 
L 330.541714 306.917501 
L 328.501029 306.773018 
L 326.970514 306.650982 
L 323.399314 306.942384 
L 321.358629 307.082911 
L 320.848457 307.055662 
L 320.338286 307.147283 
L 318.807771 307.146115 
L 318.2976 307.236517 
L 316.767086 307.237747 
L 311.665371 307.204517 
L 301.461943 306.640401 
L 299.931429 306.404995 
L 297.380571 306.15103 
L 296.8704 305.966532 
L 292.278857 305.337299 
L 289.728 304.900162 
L 287.687314 304.443477 
L 287.177143 304.428773 
L 286.666971 304.224951 
L 285.646629 304.044853 
L 284.626286 303.782035 
L 283.095771 303.341403 
L 282.075429 303.105995 
L 280.034743 302.489411 
L 277.994057 301.931093 
L 272.892343 300.438071 
L 270.851657 299.950469 
L 269.831314 299.675959 
L 265.749943 298.527407 
L 263.709257 297.998199 
L 262.688914 297.713176 
L 261.668571 297.438003 
L 260.138057 297.033291 
L 248.914286 294.412027 
L 246.363429 294.039512 
L 242.792229 293.443211 
L 241.771886 293.371266 
L 240.241371 293.213602 
L 222.895543 292.022041 
L 221.8752 291.821594 
L 220.344686 291.580235 
L 214.7328 290.262479 
L 210.141257 288.241142 
L 207.5904 286.494704 
L 204.0192 283.513416 
L 199.427657 278.903153 
L 195.346286 274.146947 
L 193.815771 272.171353 
L 188.714057 264.90916 
L 184.632686 260.21555 
L 183.102171 258.837578 
L 178.510629 255.570715 
L 176.980114 254.797737 
L 175.959771 254.405601 
L 175.4496 254.317649 
L 174.939429 254.064076 
L 173.919086 254.033609 
L 172.898743 254.025298 
L 170.347886 254.791247 
L 168.3072 255.727969 
L 166.776686 256.493323 
L 165.246171 257.220629 
L 164.225829 257.937196 
L 163.715657 258.149899 
L 162.185143 259.264798 
L 161.1648 259.950961 
L 160.654629 260.430289 
L 160.144457 260.747945 
L 158.103771 262.675146 
L 155.042743 265.42794 
L 154.0224 266.057976 
L 150.961371 268.231076 
L 149.430857 268.981573 
L 148.920686 269.346236 
L 147.900343 269.745004 
L 146.88 270.001743 
L 146.369829 269.923949 
L 145.349486 269.9757 
L 144.329143 269.75312 
L 143.818971 269.441402 
L 143.3088 268.09774 
L 142.798629 269.024076 
L 140.757943 267.633728 
L 138.717257 265.499562 
L 138.207086 265.166397 
L 137.186743 263.953653 
L 136.676571 263.480213 
L 136.1664 262.09962 
L 135.656229 262.143758 
L 134.635886 260.604719 
L 133.615543 259.697348 
L 133.105371 254.675075 
L 132.085029 252.682813 
L 131.064686 249.897188 
L 130.554514 248.198354 
L 129.534171 243.543153 
L 129.024 240.311746 
L 128.513829 236.230071 
L 128.003657 231.147064 
L 127.493486 224.741677 
L 126.983314 216.706216 
L 126.473143 206.697173 
L 125.962971 194.003218 
L 125.4528 178.350656 
L 124.942629 158.62195 
L 124.432457 134.258338 
L 123.922286 103.720924 
L 123.412114 66.142281 
L 122.712339 -1 
L 122.712339 -1 
" clip-path="url(#p7031c48c52)" style="fill: none; stroke: #851f7a; stroke-width: 0.5; stroke-linecap: square"/>
   </g>
   <g id="line2d_25">
    <path d="M 363.702857 308.23357 
L 363.192686 308.002113 
L 361.152 308.070986 
L 358.090971 308.096028 
L 349.928229 308.084592 
L 346.8672 308.032463 
L 345.336686 308.068319 
L 344.316343 307.973559 
L 342.785829 307.930973 
L 342.275657 307.876851 
L 341.765486 307.935485 
L 340.234971 307.769323 
L 338.704457 307.702648 
L 337.684114 307.566217 
L 333.092571 307.066368 
L 331.562057 307.05326 
L 329.0112 306.923393 
L 327.990857 306.806896 
L 326.460343 306.772614 
L 324.419657 306.992159 
L 322.889143 307.080942 
L 321.8688 307.273059 
L 320.848457 307.168807 
L 319.317943 307.267006 
L 316.256914 307.37697 
L 314.7264 307.337276 
L 312.175543 307.30801 
L 304.0128 306.935954 
L 302.992457 306.811024 
L 297.890743 306.327067 
L 291.258514 305.23573 
L 290.238171 305.033505 
L 287.687314 304.523457 
L 278.504229 302.04116 
L 274.933029 300.925626 
L 272.892343 300.401593 
L 272.382171 300.173439 
L 271.361829 300.001716 
L 270.851657 299.756871 
L 268.3008 299.086897 
L 266.260114 298.528742 
L 258.097371 296.273244 
L 257.5872 296.230489 
L 256.566857 295.875461 
L 254.016 295.221415 
L 252.485486 294.889333 
L 251.465143 294.649178 
L 250.954971 294.637875 
L 249.424457 294.299306 
L 247.383771 293.949557 
L 242.792229 293.170059 
L 239.221029 292.847829 
L 237.690514 292.675499 
L 236.670171 292.593095 
L 233.098971 292.419052 
L 231.058286 292.360004 
L 230.037943 292.361786 
L 229.0176 292.292959 
L 227.997257 292.236943 
L 223.405714 292.01071 
L 219.324343 291.601693 
L 218.304 291.441211 
L 217.283657 291.300189 
L 216.263314 291.041849 
L 212.692114 290.010293 
L 208.610743 287.96691 
L 205.549714 285.661374 
L 203.509029 283.884884 
L 199.937829 280.397207 
L 195.346286 275.082058 
L 192.795429 271.602634 
L 186.673371 262.973773 
L 184.632686 260.728795 
L 182.081829 258.439466 
L 180.041143 256.794089 
L 179.530971 256.49732 
L 178.510629 255.720321 
L 177.490286 255.019414 
L 175.959771 254.326494 
L 174.429257 253.817197 
L 173.919086 253.705965 
L 171.8784 253.826275 
L 170.347886 254.246116 
L 164.736 256.61337 
L 162.695314 257.86517 
L 161.1648 258.876418 
L 159.124114 260.573391 
L 158.103771 261.431707 
L 156.573257 262.8585 
L 155.042743 264.068889 
L 151.981714 266.153808 
L 148.920686 267.948905 
L 146.88 268.558225 
L 145.349486 268.605763 
L 144.329143 268.381204 
L 143.818971 268.071742 
L 143.3088 266.643506 
L 142.798629 267.575086 
L 142.288457 267.380927 
L 141.778286 266.744901 
L 141.268114 266.621624 
L 139.227429 264.847286 
L 138.717257 264.061235 
L 138.207086 263.767606 
L 137.186743 262.60657 
L 136.676571 262.011532 
L 136.1664 260.750396 
L 135.656229 260.714526 
L 135.146057 260.025062 
L 134.635886 259.062278 
L 134.125714 258.800547 
L 133.615543 258.299835 
L 133.105371 253.34355 
L 132.085029 251.358917 
L 131.574857 250.140667 
L 130.554514 246.921243 
L 130.044343 244.829837 
L 129.534171 242.244464 
L 129.024 238.986595 
L 128.513829 235.009519 
L 127.493486 223.596917 
L 126.983314 215.540869 
L 126.473143 205.480534 
L 125.962971 192.986441 
L 125.4528 177.240561 
L 124.942629 157.645752 
L 124.432457 133.283806 
L 123.922286 102.865881 
L 123.412114 65.263988 
L 122.717609 -1 
L 122.717609 -1 
" clip-path="url(#p7031c48c52)" style="fill: none; stroke: #7a1f85; stroke-width: 0.5; stroke-linecap: square"/>
   </g>
   <g id="line2d_26">
    <path d="M 363.702857 308.145904 
L 363.192686 307.990991 
L 348.907886 308.037819 
L 347.887543 307.967202 
L 343.806171 307.954278 
L 342.785829 307.832658 
L 341.255314 307.837487 
L 340.234971 307.747209 
L 339.7248 307.790057 
L 338.704457 307.623183 
L 336.663771 307.379622 
L 334.112914 307.11941 
L 332.072229 307.0579 
L 329.521371 306.948949 
L 327.990857 306.825202 
L 325.44 306.909861 
L 322.378971 307.170086 
L 321.8688 307.27229 
L 321.358629 307.14852 
L 318.2976 307.374098 
L 315.746743 307.376415 
L 314.7264 307.42183 
L 312.685714 307.41486 
L 304.522971 307.062739 
L 302.482286 306.869867 
L 300.4416 306.719369 
L 292.278857 305.551285 
L 290.238171 305.189707 
L 284.116114 303.793256 
L 278.504229 302.163249 
L 276.973714 301.70275 
L 274.933029 301.174172 
L 272.892343 300.491577 
L 271.872 300.198216 
L 252.995657 295.127016 
L 251.465143 294.81985 
L 242.792229 293.202308 
L 241.771886 293.140762 
L 233.609143 292.521342 
L 232.5888 292.536017 
L 230.548114 292.449786 
L 229.527771 292.467526 
L 220.854857 292.184423 
L 217.283657 291.743589 
L 215.242971 291.261111 
L 214.222629 291.030738 
L 212.692114 290.563813 
L 210.141257 289.525155 
L 207.5904 287.994509 
L 204.0192 285.17274 
L 199.937829 281.271956 
L 195.346286 275.99403 
L 191.775086 271.024609 
L 189.224229 267.194298 
L 186.673371 263.766953 
L 185.653029 262.534018 
L 183.612343 260.462736 
L 182.081829 259.10462 
L 179.530971 257.041464 
L 178.000457 255.877798 
L 174.429257 254.252326 
L 173.408914 254.112719 
L 172.388571 254.174384 
L 171.368229 254.3111 
L 169.327543 254.905021 
L 165.246171 256.643205 
L 163.205486 257.630808 
L 160.654629 259.302086 
L 159.634286 260.186891 
L 158.613943 261.009555 
L 155.042743 264.068434 
L 152.491886 265.768633 
L 149.941029 267.316974 
L 149.430857 267.504817 
L 148.920686 267.88702 
L 147.390171 268.491456 
L 145.859657 268.59598 
L 144.839314 268.490475 
L 144.329143 268.342107 
L 143.818971 267.981948 
L 143.3088 266.618783 
L 142.798629 267.606361 
L 141.778286 267.004063 
L 141.268114 266.323501 
L 140.757943 266.327791 
L 140.247771 265.666762 
L 139.227429 264.917322 
L 138.717257 264.071084 
L 138.207086 263.809617 
L 137.186743 262.598459 
L 136.676571 262.064273 
L 136.1664 260.84826 
L 135.656229 260.706316 
L 135.146057 260.102617 
L 134.635886 259.223896 
L 134.125714 258.894845 
L 133.615543 258.287607 
L 133.105371 253.191948 
L 132.085029 251.168772 
L 131.064686 248.569362 
L 130.044343 244.689629 
L 129.024 238.907097 
L 128.513829 234.943947 
L 128.003657 229.843321 
L 127.493486 223.505676 
L 126.983314 215.565145 
L 126.473143 205.595115 
L 125.962971 192.989205 
L 125.4528 177.470461 
L 124.942629 157.835867 
L 124.432457 133.442118 
L 123.922286 103.254212 
L 123.412114 65.597465 
L 122.716777 -1 
L 122.716777 -1 
" clip-path="url(#p7031c48c52)" style="fill: none; stroke: #6e1f91; stroke-width: 0.5; stroke-linecap: square"/>
   </g>
   <g id="line2d_27">
    <path d="M 363.702857 308.387291 
L 363.192686 308.148385 
L 362.172343 308.163883 
L 359.111314 308.201803 
L 356.560457 308.219716 
L 355.540114 308.190652 
L 350.948571 308.158976 
L 347.377371 308.091323 
L 345.846857 308.03718 
L 343.296 307.899016 
L 342.785829 307.81642 
L 341.765486 307.900962 
L 340.234971 307.777145 
L 336.1536 307.321243 
L 333.092571 306.977304 
L 331.051886 306.94753 
L 327.480686 306.617953 
L 323.909486 306.837814 
L 321.8688 307.069208 
L 321.358629 306.983198 
L 319.317943 307.048825 
L 317.787429 307.097943 
L 316.256914 307.165413 
L 311.665371 307.030583 
L 310.645029 307.080053 
L 299.931429 306.233094 
L 289.728 304.564166 
L 288.707657 304.366481 
L 288.197486 304.303777 
L 287.177143 304.005324 
L 285.646629 303.630627 
L 284.116114 303.171852 
L 282.075429 302.723684 
L 281.055086 302.329801 
L 278.504229 301.538759 
L 276.463543 300.916319 
L 274.422857 300.268778 
L 273.402514 299.980133 
L 269.831314 298.957352 
L 254.016 294.389578 
L 248.914286 293.19027 
L 245.853257 292.746254 
L 243.3024 292.16259 
L 241.261714 291.948965 
L 235.649829 291.44768 
L 232.078629 291.274231 
L 231.058286 291.259791 
L 230.037943 291.252205 
L 224.936229 291.131339 
L 221.8752 291.005676 
L 219.834514 290.888246 
L 214.222629 289.938968 
L 213.202286 289.637213 
L 211.1616 288.943011 
L 208.610743 287.675677 
L 205.039543 285.014995 
L 201.468343 281.847502 
L 199.427657 279.712164 
L 197.897143 278.11157 
L 193.3056 272.233122 
L 188.714057 265.347669 
L 187.183543 263.25621 
L 186.1632 261.953702 
L 185.142857 260.764129 
L 183.612343 259.168761 
L 182.081829 257.762764 
L 180.041143 256.033324 
L 176.469943 253.534204 
L 174.429257 252.67409 
L 172.898743 252.489701 
L 170.858057 252.680792 
L 169.837714 252.995927 
L 164.225829 255.127434 
L 160.654629 257.208173 
L 153.512229 262.773653 
L 149.941029 264.876877 
L 149.430857 265.021358 
L 148.920686 265.392851 
L 147.900343 265.823511 
L 146.88 266.073072 
L 146.369829 265.983273 
L 145.349486 266.048884 
L 144.329143 265.725811 
L 143.818971 265.394613 
L 143.3088 263.991037 
L 142.798629 264.957876 
L 142.288457 264.616001 
L 141.778286 264.057316 
L 141.268114 263.921181 
L 140.757943 263.543297 
L 140.247771 262.878762 
L 139.227429 262.09223 
L 138.717257 261.302412 
L 138.207086 260.886817 
L 136.676571 258.782352 
L 136.1664 258.425392 
L 135.656229 257.620678 
L 135.146057 257.052743 
L 134.635886 255.943872 
L 134.125714 255.908051 
L 133.615543 255.074241 
L 133.105371 250.124009 
L 132.085029 248.058345 
L 131.064686 245.406254 
L 130.044343 241.558568 
L 129.534171 239.04165 
L 129.024 235.808506 
L 128.513829 231.767799 
L 128.003657 226.708982 
L 127.493486 220.315782 
L 126.983314 212.397398 
L 126.473143 202.353036 
L 125.962971 189.831193 
L 125.4528 174.227431 
L 124.942629 154.600305 
L 124.432457 130.333422 
L 123.922286 99.979723 
L 123.412114 62.66187 
L 122.74077 -1 
L 122.74077 -1 
" clip-path="url(#p7031c48c52)" style="fill: none; stroke: #631f9c; stroke-width: 0.5; stroke-linecap: square"/>
   </g>
   <g id="line2d_28">
    <path d="M 363.702857 308.287603 
L 363.192686 308.134757 
L 353.499429 308.138177 
L 352.479086 308.141212 
L 348.907886 308.104288 
L 346.8672 308.051992 
L 343.806171 308.017879 
L 342.785829 307.875734 
L 341.255314 307.919465 
L 340.745143 307.801883 
L 339.7248 307.772025 
L 337.173943 307.530338 
L 333.602743 307.116344 
L 331.562057 307.051953 
L 330.541714 307.041909 
L 326.460343 306.810806 
L 324.419657 306.998487 
L 322.378971 307.1674 
L 321.8688 307.331438 
L 320.848457 307.176848 
L 319.317943 307.266471 
L 316.256914 307.395573 
L 309.114514 307.197115 
L 307.073829 307.1343 
L 306.053486 307.102288 
L 301.972114 306.731916 
L 299.931429 306.550569 
L 297.890743 306.373869 
L 295.850057 305.909192 
L 294.829714 305.823436 
L 285.646629 303.987722 
L 282.075429 303.004092 
L 279.0144 302.049992 
L 276.463543 301.220822 
L 270.341486 299.336933 
L 269.321143 299.02551 
L 260.138057 296.199569 
L 257.5872 295.458352 
L 256.566857 295.193203 
L 254.016 294.456109 
L 247.383771 292.957492 
L 245.343086 292.577923 
L 244.832914 292.382981 
L 241.261714 291.901869 
L 238.200686 291.611884 
L 234.119314 291.327561 
L 233.609143 291.37083 
L 232.078629 291.255588 
L 223.405714 291.146586 
L 216.773486 290.598882 
L 214.7328 290.215688 
L 212.692114 289.662559 
L 211.671771 289.379502 
L 209.120914 288.137035 
L 208.100571 287.563109 
L 207.080229 286.907099 
L 206.059886 286.05612 
L 204.529371 284.910724 
L 204.0192 284.393766 
L 203.509029 284.058718 
L 198.407314 278.873377 
L 195.856457 275.892745 
L 193.815771 273.067634 
L 190.244571 267.561859 
L 187.183543 262.990033 
L 185.142857 260.428201 
L 184.122514 259.221051 
L 180.551314 255.695113 
L 177.490286 253.093184 
L 175.959771 252.083932 
L 173.919086 251.186233 
L 172.388571 250.94722 
L 170.858057 250.963948 
L 168.817371 251.369242 
L 163.715657 252.916648 
L 161.1648 254.1675 
L 159.634286 255.208752 
L 158.103771 256.359297 
L 154.0224 259.343515 
L 150.961371 261.268236 
L 147.900343 262.807384 
L 145.859657 263.132588 
L 144.329143 263.005911 
L 143.818971 262.641489 
L 143.3088 261.319026 
L 142.798629 262.24671 
L 142.288457 261.963942 
L 141.778286 261.420722 
L 141.268114 261.327165 
L 140.757943 261.017671 
L 140.247771 260.41717 
L 139.227429 259.698783 
L 138.717257 258.904227 
L 138.207086 258.652792 
L 136.676571 256.933688 
L 136.1664 255.817491 
L 135.656229 255.793586 
L 134.635886 254.176089 
L 134.125714 254.090506 
L 133.615543 253.565804 
L 133.105371 248.52255 
L 132.085029 246.630193 
L 131.574857 245.46424 
L 130.554514 242.329463 
L 130.044343 240.313591 
L 129.534171 237.771585 
L 129.024 234.62936 
L 128.513829 230.615578 
L 128.003657 225.635698 
L 127.493486 219.353654 
L 126.983314 211.498254 
L 126.473143 201.489673 
L 125.962971 189.049622 
L 125.4528 173.392791 
L 124.942629 153.795775 
L 124.432457 129.410446 
L 123.922286 99.151401 
L 123.412114 61.844572 
L 122.750464 -1 
L 122.750464 -1 
" clip-path="url(#p7031c48c52)" style="fill: none; stroke: #581fa7; stroke-width: 0.5; stroke-linecap: square"/>
   </g>
   <g id="line2d_29">
    <path d="M 363.702857 308.047983 
L 362.682514 307.813495 
L 361.662171 307.91587 
L 360.641829 307.87524 
L 348.397714 307.950772 
L 347.377371 307.943321 
L 344.316343 307.863842 
L 343.296 307.885124 
L 340.745143 307.722896 
L 339.214629 307.665964 
L 334.623086 307.1325 
L 330.541714 306.979993 
L 329.0112 306.893304 
L 327.480686 306.777231 
L 325.44 306.879331 
L 321.8688 307.295063 
L 321.358629 307.143448 
L 320.848457 307.244843 
L 319.317943 307.311165 
L 314.216229 307.386191 
L 307.584 307.214637 
L 301.461943 306.742787 
L 299.421257 306.439861 
L 298.400914 306.351137 
L 297.380571 306.168308 
L 289.728 304.841211 
L 287.687314 304.308933 
L 286.666971 304.070047 
L 285.136457 303.663894 
L 283.605943 303.197716 
L 283.095771 302.962708 
L 282.5856 302.931677 
L 274.933029 300.282535 
L 274.422857 300.162646 
L 273.402514 299.724002 
L 260.648229 295.496349 
L 259.117714 295.014862 
L 254.016 293.36769 
L 253.505829 293.297988 
L 252.995657 293.074202 
L 252.485486 292.996555 
L 251.975314 292.767108 
L 249.424457 292.149058 
L 247.383771 291.655669 
L 246.363429 291.490306 
L 245.853257 291.370541 
L 245.343086 291.396768 
L 244.832914 291.164101 
L 240.751543 290.495139 
L 235.649829 290.083313 
L 234.629486 289.951201 
L 229.527771 289.920298 
L 229.0176 289.846044 
L 227.997257 289.929081 
L 218.814171 289.854567 
L 213.202286 289.011053 
L 211.671771 288.54416 
L 210.651429 288.133723 
L 208.610743 287.207558 
L 207.080229 286.178005 
L 206.059886 285.513973 
L 205.549714 285.089248 
L 205.039543 284.858191 
L 203.509029 283.50522 
L 201.978514 282.168812 
L 197.386971 277.487508 
L 193.815771 272.941269 
L 187.693714 263.747101 
L 186.1632 261.597882 
L 185.653029 261.078563 
L 184.632686 259.85532 
L 183.102171 258.243745 
L 180.041143 255.352551 
L 178.000457 253.532786 
L 174.939429 251.572489 
L 173.408914 251.186446 
L 172.388571 250.999022 
L 170.858057 251.023687 
L 170.347886 251.133607 
L 169.837714 251.129186 
L 163.715657 252.649611 
L 160.654629 254.043679 
L 159.634286 254.754516 
L 152.491886 259.538199 
L 149.941029 260.876762 
L 147.900343 261.732058 
L 146.88 261.978004 
L 146.369829 261.908689 
L 145.859657 262.072911 
L 144.839314 261.963206 
L 143.818971 261.574338 
L 143.3088 260.014633 
L 142.798629 260.930245 
L 141.778286 260.070439 
L 141.268114 259.946983 
L 140.757943 259.534782 
L 140.247771 258.893921 
L 139.227429 258.047458 
L 138.717257 257.13784 
L 138.207086 256.920174 
L 137.696914 256.171461 
L 137.186743 255.63628 
L 136.676571 254.709839 
L 136.1664 254.440141 
L 135.146057 252.983043 
L 134.635886 252.192006 
L 134.125714 251.941434 
L 133.615543 251.296194 
L 133.105371 246.188669 
L 131.574857 243.058373 
L 130.554514 240.002256 
L 129.534171 235.448298 
L 129.024 232.37696 
L 128.513829 228.535448 
L 128.003657 223.639819 
L 127.493486 217.483874 
L 126.983314 209.691959 
L 126.473143 199.993253 
L 125.962971 187.826813 
L 125.4528 172.523931 
L 124.942629 153.426579 
L 124.432457 129.583727 
L 123.922286 99.910514 
L 123.412114 63.114558 
L 122.730526 -1 
L 122.730526 -1 
" clip-path="url(#p7031c48c52)" style="fill: none; stroke: #4c1fb3; stroke-width: 0.5; stroke-linecap: square"/>
   </g>
   <g id="line2d_30">
    <path d="M 363.702857 308.131703 
L 362.682514 307.942602 
L 361.662171 307.995454 
L 342.785829 307.884395 
L 337.173943 307.429128 
L 334.112914 307.096446 
L 325.950171 306.776707 
L 324.419657 306.865092 
L 321.8688 307.116402 
L 320.848457 307.013359 
L 319.828114 307.127565 
L 315.746743 307.28451 
L 314.7264 307.25391 
L 314.216229 307.328972 
L 313.195886 307.251298 
L 312.175543 307.261717 
L 310.645029 307.199383 
L 307.073829 307.092168 
L 305.033143 306.907045 
L 304.0128 306.908014 
L 302.992457 306.717939 
L 301.972114 306.69736 
L 300.951771 306.519139 
L 298.911086 306.336072 
L 289.728 304.773708 
L 282.075429 302.799616 
L 281.055086 302.421858 
L 280.544914 302.34565 
L 280.034743 302.097444 
L 279.0144 301.786265 
L 275.4432 300.616248 
L 273.912686 300.126302 
L 271.361829 299.212917 
L 269.831314 298.801815 
L 266.770286 297.768735 
L 263.199086 296.651233 
L 251.465143 293.041881 
L 243.812571 291.302827 
L 243.3024 291.294098 
L 242.792229 291.115988 
L 234.629486 290.301124 
L 232.5888 290.268537 
L 232.078629 290.157095 
L 231.058286 290.205854 
L 227.487086 290.144941 
L 225.956571 290.15733 
L 220.854857 289.900324 
L 220.344686 289.942096 
L 218.814171 289.772303 
L 217.793829 289.650379 
L 216.773486 289.512703 
L 214.7328 289.207171 
L 213.202286 288.830466 
L 209.631086 287.499961 
L 206.570057 285.667475 
L 202.998857 282.771486 
L 199.937829 279.821665 
L 196.366629 275.822905 
L 193.3056 271.5881 
L 188.714057 264.488263 
L 187.183543 262.225126 
L 184.122514 258.333785 
L 180.041143 254.222379 
L 178.510629 252.847741 
L 177.490286 251.95145 
L 175.4496 250.65647 
L 174.429257 250.083803 
L 172.898743 249.68866 
L 170.858057 249.607323 
L 170.347886 249.607746 
L 168.3072 249.97461 
L 167.286857 250.189388 
L 162.185143 251.719984 
L 161.1648 252.199537 
L 158.103771 254.236439 
L 156.573257 255.379869 
L 154.0224 256.971354 
L 148.920686 259.727476 
L 147.900343 260.144723 
L 146.88 260.415648 
L 144.329143 260.182295 
L 143.818971 259.843173 
L 143.3088 258.415161 
L 142.798629 259.421673 
L 142.288457 259.144401 
L 141.778286 258.567161 
L 141.268114 258.37821 
L 140.757943 258.060679 
L 140.247771 257.382253 
L 139.227429 256.528071 
L 138.717257 255.775528 
L 138.207086 255.392631 
L 136.676571 253.71106 
L 136.1664 252.353936 
L 135.656229 252.240658 
L 135.146057 251.659109 
L 134.635886 250.697003 
L 134.125714 250.540939 
L 133.615543 249.901422 
L 133.105371 244.712864 
L 132.5952 243.844136 
L 131.574857 241.477559 
L 130.554514 238.419056 
L 129.534171 233.799794 
L 129.024 230.65638 
L 128.513829 226.741818 
L 128.003657 221.736097 
L 127.493486 215.518279 
L 126.983314 207.693326 
L 126.473143 197.754146 
L 125.962971 185.398935 
L 125.4528 169.793428 
L 124.942629 150.439159 
L 124.432457 126.345801 
L 123.922286 96.292124 
L 123.412114 59.165534 
L 122.76858 -1 
L 122.76858 -1 
" clip-path="url(#p7031c48c52)" style="fill: none; stroke: #411fbe; stroke-width: 0.5; stroke-linecap: square"/>
   </g>
   <g id="line2d_31">
    <path d="M 363.702857 308.186051 
L 363.192686 308.030279 
L 361.662171 307.989405 
L 359.621486 308.031766 
L 359.111314 307.975125 
L 358.090971 308.068071 
L 357.070629 308.043325 
L 355.540114 308.047639 
L 340.234971 307.714332 
L 338.704457 307.632549 
L 336.663771 307.344343 
L 333.602743 307.050661 
L 331.051886 306.935903 
L 328.501029 306.811764 
L 326.970514 306.698914 
L 325.44 306.781079 
L 321.8688 307.211379 
L 321.358629 307.070549 
L 318.807771 307.237462 
L 317.277257 307.238985 
L 315.236571 307.27195 
L 313.706057 307.284595 
L 310.134857 307.180501 
L 308.604343 307.157439 
L 302.482286 306.689571 
L 301.461943 306.558035 
L 297.380571 306.096362 
L 295.850057 305.791238 
L 292.789029 305.351087 
L 290.748343 304.908123 
L 289.217829 304.658818 
L 287.687314 304.256081 
L 286.1568 303.916299 
L 272.892343 299.660534 
L 265.749943 297.215602 
L 264.7296 296.937359 
L 262.688914 296.249043 
L 256.056686 294.054709 
L 254.526171 293.616314 
L 252.485486 292.964263 
L 250.4448 292.459448 
L 249.424457 292.145086 
L 245.343086 291.315383 
L 244.832914 291.032946 
L 243.812571 290.882141 
L 242.282057 290.635147 
L 239.7312 290.275868 
L 237.180343 289.97462 
L 235.649829 289.879796 
L 233.098971 289.727598 
L 230.037943 289.60427 
L 229.527771 289.711421 
L 227.997257 289.632333 
L 226.466743 289.657538 
L 223.915886 289.687007 
L 221.365029 289.62634 
L 220.854857 289.579552 
L 220.344686 289.66517 
L 219.324343 289.538246 
L 217.793829 289.414371 
L 216.263314 289.225431 
L 214.222629 288.948824 
L 213.202286 288.680585 
L 210.651429 287.897307 
L 208.100571 286.60315 
L 205.039543 284.549375 
L 201.978514 281.960705 
L 199.427657 279.573254 
L 196.366629 276.165811 
L 193.815771 272.87353 
L 192.285257 270.55993 
L 190.244571 267.429053 
L 186.1632 261.598288 
L 182.592 257.769111 
L 179.530971 254.914608 
L 178.510629 254.01063 
L 176.469943 252.527351 
L 174.429257 251.469048 
L 172.898743 251.060541 
L 169.327543 251.305734 
L 163.715657 252.793825 
L 162.185143 253.480397 
L 161.1648 253.928124 
L 160.654629 254.339863 
L 159.634286 254.963081 
L 157.5936 256.385809 
L 156.573257 257.189961 
L 152.491886 259.662265 
L 151.981714 259.86104 
L 150.4512 260.783212 
L 147.900343 261.815793 
L 146.88 262.025336 
L 145.859657 261.974824 
L 144.839314 261.899657 
L 144.329143 261.736208 
L 143.818971 261.384479 
L 143.3088 259.954676 
L 142.798629 260.823632 
L 142.288457 260.525016 
L 141.778286 259.904451 
L 141.268114 259.75678 
L 139.7376 258.148185 
L 139.227429 257.634407 
L 138.717257 256.947591 
L 138.207086 256.527505 
L 137.186743 255.213115 
L 136.676571 254.198464 
L 136.1664 253.773385 
L 135.146057 252.399986 
L 134.635886 251.484949 
L 133.615543 250.747647 
L 133.105371 245.318721 
L 132.085029 243.173233 
L 131.064686 240.409828 
L 130.044343 236.596297 
L 129.024 230.770239 
L 128.513829 226.801768 
L 128.003657 221.734292 
L 127.493486 215.356227 
L 126.983314 207.495374 
L 126.473143 197.527862 
L 125.962971 185.066973 
L 125.4528 169.542915 
L 124.942629 150.044941 
L 124.432457 125.917573 
L 123.922286 95.739845 
L 123.412114 58.446128 
L 122.77619 -1 
L 122.77619 -1 
" clip-path="url(#p7031c48c52)" style="fill: none; stroke: #351fca; stroke-width: 0.5; stroke-linecap: square"/>
   </g>
   <g id="line2d_32">
    <path d="M 363.702857 308.111646 
L 363.192686 307.983272 
L 357.070629 308.038198 
L 355.540114 308.024362 
L 354.0096 308.072923 
L 348.907886 307.989369 
L 346.8672 307.983409 
L 336.663771 307.392555 
L 334.623086 307.091962 
L 333.602743 307.118055 
L 326.460343 306.848704 
L 316.767086 307.443735 
L 314.7264 307.410384 
L 313.195886 307.436128 
L 311.1552 307.375408 
L 307.584 307.239493 
L 305.543314 307.146974 
L 301.461943 306.762053 
L 299.931429 306.620596 
L 291.768686 305.431652 
L 290.238171 305.094794 
L 285.136457 303.879747 
L 276.973714 301.303593 
L 267.280457 298.012102 
L 266.770286 297.893093 
L 265.749943 297.475824 
L 255.036343 293.895035 
L 250.954971 292.787092 
L 250.4448 292.557434 
L 249.934629 292.522329 
L 248.404114 292.072703 
L 245.343086 291.359862 
L 244.832914 291.108348 
L 244.322743 291.065157 
L 243.3024 290.838582 
L 241.261714 290.469793 
L 240.241371 290.375832 
L 238.710857 290.194406 
L 234.119314 289.736681 
L 233.098971 289.702332 
L 223.405714 289.647458 
L 222.385371 289.690843 
L 220.854857 289.630875 
L 219.324343 289.567214 
L 217.283657 289.410195 
L 215.242971 289.212212 
L 212.692114 288.698401 
L 210.141257 287.795646 
L 207.5904 286.513977 
L 206.059886 285.489584 
L 203.509029 283.577851 
L 197.386971 277.609252 
L 195.856457 275.87812 
L 191.264914 269.333122 
L 186.673371 262.591907 
L 184.122514 259.571934 
L 182.592 257.980367 
L 177.490286 253.395128 
L 175.959771 252.418726 
L 174.429257 251.570608 
L 172.898743 251.162617 
L 170.347886 251.127656 
L 166.266514 251.954589 
L 162.695314 253.075053 
L 161.1648 253.703043 
L 160.654629 254.131737 
L 159.634286 254.711938 
L 158.103771 255.742202 
L 154.532571 258.17894 
L 153.002057 259.042312 
L 149.941029 260.73491 
L 149.430857 260.806132 
L 148.410514 261.355489 
L 145.859657 261.667352 
L 144.329143 261.38774 
L 143.818971 261.030166 
L 143.3088 259.586947 
L 142.798629 260.528691 
L 141.778286 259.814064 
L 141.268114 258.992457 
L 140.757943 259.014835 
L 136.676571 254.248669 
L 136.1664 252.91351 
L 135.656229 252.671159 
L 135.146057 252.002101 
L 134.635886 250.970032 
L 133.615543 249.983439 
L 133.105371 244.503737 
L 132.085029 242.334245 
L 131.574857 241.076626 
L 130.554514 237.791799 
L 129.534171 232.98518 
L 129.024 229.76374 
L 128.513829 225.710172 
L 128.003657 220.595562 
L 127.493486 214.279759 
L 126.983314 206.324702 
L 126.473143 196.308832 
L 125.962971 183.714019 
L 125.4528 168.005333 
L 124.942629 148.353833 
L 124.432457 123.846146 
L 123.922286 93.610854 
L 123.412114 56.029039 
L 122.80796 -1 
L 122.80796 -1 
" clip-path="url(#p7031c48c52)" style="fill: none; stroke: #2a1fd5; stroke-width: 0.5; stroke-linecap: square"/>
   </g>
   <g id="line2d_33">
    <path d="M 363.702857 308.312129 
L 363.192686 308.116113 
L 361.662171 308.141457 
L 360.641829 308.111327 
L 360.131657 308.186023 
L 359.111314 308.147214 
L 356.560457 308.162075 
L 355.029943 308.198615 
L 354.0096 308.120609 
L 352.479086 308.122944 
L 345.846857 308.015632 
L 344.826514 307.957774 
L 343.806171 307.927198 
L 339.7248 307.749898 
L 337.684114 307.486234 
L 336.663771 307.394545 
L 335.643429 307.241463 
L 333.602743 307.042363 
L 331.051886 306.938509 
L 329.521371 306.881332 
L 328.501029 306.724228 
L 326.970514 306.62555 
L 325.950171 306.694152 
L 324.929829 306.779437 
L 323.909486 306.809005 
L 321.8688 307.109287 
L 321.358629 306.943682 
L 318.2976 307.136999 
L 314.216229 307.184676 
L 311.665371 307.076818 
L 310.645029 307.112466 
L 310.134857 307.03296 
L 309.624686 307.094064 
L 308.094171 306.941536 
L 303.502629 306.623008 
L 297.380571 305.818045 
L 295.850057 305.449992 
L 294.829714 305.34576 
L 293.809371 305.151768 
L 292.278857 304.888733 
L 290.748343 304.54933 
L 287.177143 303.682835 
L 284.626286 302.899873 
L 282.075429 302.095564 
L 279.0144 300.941339 
L 277.994057 300.51619 
L 251.465143 289.821523 
L 250.954971 289.751174 
L 248.914286 289.07322 
L 247.893943 288.774866 
L 246.8736 288.415706 
L 246.363429 288.35793 
L 244.322743 287.604512 
L 237.690514 286.239397 
L 229.0176 285.679686 
L 215.753143 285.573062 
L 212.181943 285.038392 
L 208.610743 283.892475 
L 205.549714 282.18521 
L 201.468343 279.290349 
L 197.897143 276.248864 
L 193.3056 271.164037 
L 191.264914 268.496643 
L 189.7344 266.434356 
L 186.673371 262.668995 
L 186.1632 262.183956 
L 185.653029 261.478512 
L 180.041143 256.908897 
L 177.490286 255.255658 
L 175.4496 254.270827 
L 173.919086 253.851366 
L 172.898743 253.783892 
L 170.858057 254.020982 
L 168.817371 254.510584 
L 167.797029 254.912666 
L 166.266514 255.367954 
L 162.185143 257.015315 
L 160.144457 258.129242 
L 155.042743 261.482313 
L 153.512229 262.200129 
L 151.981714 262.910952 
L 150.961371 263.339233 
L 149.941029 263.747525 
L 149.430857 263.808221 
L 148.920686 264.093957 
L 146.88 264.25856 
L 145.349486 263.884076 
L 144.839314 263.742941 
L 144.329143 263.429696 
L 143.818971 262.827613 
L 143.3088 261.305447 
L 142.798629 262.1328 
L 140.247771 259.047637 
L 139.227429 257.649266 
L 138.717257 256.480838 
L 138.207086 255.970434 
L 136.676571 253.225329 
L 136.1664 251.472493 
L 135.656229 251.205378 
L 134.635886 249.013655 
L 134.125714 248.392419 
L 133.615543 247.494406 
L 133.105371 241.741542 
L 132.085029 239.20678 
L 131.064686 235.921074 
L 130.044343 231.609056 
L 129.024 225.304859 
L 128.513829 221.084494 
L 128.003657 215.83516 
L 127.493486 209.261614 
L 126.983314 201.202916 
L 126.473143 190.928126 
L 125.962971 178.228079 
L 125.4528 162.428084 
L 124.942629 142.756717 
L 124.432457 118.282563 
L 123.922286 87.894089 
L 123.412114 50.544658 
L 122.85175 -1 
L 122.85175 -1 
" clip-path="url(#p7031c48c52)" style="fill: none; stroke: #1f1fe0; stroke-width: 0.5; stroke-linecap: square"/>
   </g>
   <g id="patch_3">
    <path d="M 57.6 307.584 
L 57.6 41.472 
" style="fill: none; stroke: #000000; stroke-width: 0.8; stroke-linejoin: miter; stroke-linecap: square"/>
   </g>
   <g id="patch_4">
    <path d="M 414.72 307.584 
L 414.72 41.472 
" style="fill: none; stroke: #000000; stroke-width: 0.8; stroke-linejoin: miter; stroke-linecap: square"/>
   </g>
   <g id="patch_5">
    <path d="M 57.6 307.584 
L 414.72 307.584 
" style="fill: none; stroke: #000000; stroke-width: 0.8; stroke-linejoin: miter; stroke-linecap: square"/>
   </g>
   <g id="patch_6">
    <path d="M 57.6 41.472 
L 414.72 41.472 
" style="fill: none; stroke: #000000; stroke-width: 0.8; stroke-linejoin: miter; stroke-linecap: square"/>
   </g>
   <g id="text_18">
    <!-- IDA Titration of Alizarin:ompPBA complex &amp; Catechol in Acetone  -->
    <g transform="translate(41.8725 22.034625) scale(0.12 -0.12)">
     <defs>
      <path id="DejaVuSans-49" d="M 628 4666 
L 1259 4666 
L 1259 0 
L 628 0 
L 628 4666 
z
" transform="scale(0.015625)"/>
      <path id="DejaVuSans-44" d="M 1259 4147 
L 1259 519 
L 2022 519 
Q 2988 519 3436 956 
Q 3884 1394 3884 2338 
Q 3884 3275 3436 3711 
Q 2988 4147 2022 4147 
L 1259 4147 
z
M 628 4666 
L 1925 4666 
Q 3281 4666 3915 4102 
Q 4550 3538 4550 2338 
Q 4550 1131 3912 565 
Q 3275 0 1925 0 
L 628 0 
L 628 4666 
z
" transform="scale(0.015625)"/>
      <path id="DejaVuSans-54" d="M -19 4666 
L 3928 4666 
L 3928 4134 
L 2272 4134 
L 2272 0 
L 1638 0 
L 1638 4134 
L -19 4134 
L -19 4666 
z
" transform="scale(0.015625)"/>
      <path id="DejaVuSans-69" d="M 603 3500 
L 1178 3500 
L 1178 0 
L 603 0 
L 603 3500 
z
M 603 4863 
L 1178 4863 
L 1178 4134 
L 603 4134 
L 603 4863 
z
" transform="scale(0.015625)"/>
      <path id="DejaVuSans-66" d="M 2375 4863 
L 2375 4384 
L 1825 4384 
Q 1516 4384 1395 4259 
Q 1275 4134 1275 3809 
L 1275 3500 
L 2222 3500 
L 2222 3053 
L 1275 3053 
L 1275 0 
L 697 0 
L 697 3053 
L 147 3053 
L 147 3500 
L 697 3500 
L 697 3744 
Q 697 4328 969 4595 
Q 1241 4863 1831 4863 
L 2375 4863 
z
" transform="scale(0.015625)"/>
      <path id="DejaVuSans-7a" d="M 353 3500 
L 3084 3500 
L 3084 2975 
L 922 459 
L 3084 459 
L 3084 0 
L 275 0 
L 275 525 
L 2438 3041 
L 353 3041 
L 353 3500 
z
" transform="scale(0.015625)"/>
      <path id="DejaVuSans-3a" d="M 750 794 
L 1409 794 
L 1409 0 
L 750 0 
L 750 794 
z
M 750 3309 
L 1409 3309 
L 1409 2516 
L 750 2516 
L 750 3309 
z
" transform="scale(0.015625)"/>
      <path id="DejaVuSans-70" d="M 1159 525 
L 1159 -1331 
L 581 -1331 
L 581 3500 
L 1159 3500 
L 1159 2969 
Q 1341 3281 1617 3432 
Q 1894 3584 2278 3584 
Q 2916 3584 3314 3078 
Q 3713 2572 3713 1747 
Q 3713 922 3314 415 
Q 2916 -91 2278 -91 
Q 1894 -91 1617 61 
Q 1341 213 1159 525 
z
M 3116 1747 
Q 3116 2381 2855 2742 
Q 2594 3103 2138 3103 
Q 1681 3103 1420 2742 
Q 1159 2381 1159 1747 
Q 1159 1113 1420 752 
Q 1681 391 2138 391 
Q 2594 391 2855 752 
Q 3116 1113 3116 1747 
z
" transform="scale(0.015625)"/>
      <path id="DejaVuSans-50" d="M 1259 4147 
L 1259 2394 
L 2053 2394 
Q 2494 2394 2734 2622 
Q 2975 2850 2975 3272 
Q 2975 3691 2734 3919 
Q 2494 4147 2053 4147 
L 1259 4147 
z
M 628 4666 
L 2053 4666 
Q 2838 4666 3239 4311 
Q 3641 3956 3641 3272 
Q 3641 2581 3239 2228 
Q 2838 1875 2053 1875 
L 1259 1875 
L 1259 0 
L 628 0 
L 628 4666 
z
" transform="scale(0.015625)"/>
      <path id="DejaVuSans-42" d="M 1259 2228 
L 1259 519 
L 2272 519 
Q 2781 519 3026 730 
Q 3272 941 3272 1375 
Q 3272 1813 3026 2020 
Q 2781 2228 2272 2228 
L 1259 2228 
z
M 1259 4147 
L 1259 2741 
L 2194 2741 
Q 2656 2741 2882 2914 
Q 3109 3088 3109 3444 
Q 3109 3797 2882 3972 
Q 2656 4147 2194 4147 
L 1259 4147 
z
M 628 4666 
L 2241 4666 
Q 2963 4666 3353 4366 
Q 3744 4066 3744 3513 
Q 3744 3084 3544 2831 
Q 3344 2578 2956 2516 
Q 3422 2416 3680 2098 
Q 3938 1781 3938 1306 
Q 3938 681 3513 340 
Q 3088 0 2303 0 
L 628 0 
L 628 4666 
z
" transform="scale(0.015625)"/>
      <path id="DejaVuSans-78" d="M 3513 3500 
L 2247 1797 
L 3578 0 
L 2900 0 
L 1881 1375 
L 863 0 
L 184 0 
L 1544 1831 
L 300 3500 
L 978 3500 
L 1906 2253 
L 2834 3500 
L 3513 3500 
z
" transform="scale(0.015625)"/>
      <path id="DejaVuSans-26" d="M 1556 2509 
Q 1272 2256 1139 2004 
Q 1006 1753 1006 1478 
Q 1006 1022 1337 719 
Q 1669 416 2169 416 
Q 2466 416 2725 514 
Q 2984 613 3213 813 
L 1556 2509 
z
M 1997 2859 
L 3584 1234 
Q 3769 1513 3872 1830 
Q 3975 2147 3994 2503 
L 4575 2503 
Q 4538 2091 4375 1687 
Q 4213 1284 3922 891 
L 4794 0 
L 4006 0 
L 3559 459 
Q 3234 181 2878 45 
Q 2522 -91 2113 -91 
Q 1359 -91 881 339 
Q 403 769 403 1441 
Q 403 1841 612 2192 
Q 822 2544 1241 2853 
Q 1091 3050 1012 3245 
Q 934 3441 934 3628 
Q 934 4134 1281 4442 
Q 1628 4750 2203 4750 
Q 2463 4750 2720 4694 
Q 2978 4638 3244 4525 
L 3244 3956 
Q 2972 4103 2725 4179 
Q 2478 4256 2266 4256 
Q 1938 4256 1733 4082 
Q 1528 3909 1528 3634 
Q 1528 3475 1620 3314 
Q 1713 3153 1997 2859 
z
" transform="scale(0.015625)"/>
      <path id="DejaVuSans-43" d="M 4122 4306 
L 4122 3641 
Q 3803 3938 3442 4084 
Q 3081 4231 2675 4231 
Q 1875 4231 1450 3742 
Q 1025 3253 1025 2328 
Q 1025 1406 1450 917 
Q 1875 428 2675 428 
Q 3081 428 3442 575 
Q 3803 722 4122 1019 
L 4122 359 
Q 3791 134 3420 21 
Q 3050 -91 2638 -91 
Q 1578 -91 968 557 
Q 359 1206 359 2328 
Q 359 3453 968 4101 
Q 1578 4750 2638 4750 
Q 3056 4750 3426 4639 
Q 3797 4528 4122 4306 
z
" transform="scale(0.015625)"/>
     </defs>
     <use xlink:href="#DejaVuSans-49"/>
     <use xlink:href="#DejaVuSans-44" x="29.492188"/>
     <use xlink:href="#DejaVuSans-41" x="104.744141"/>
     <use xlink:href="#DejaVuSans-20" x="173.152344"/>
     <use xlink:href="#DejaVuSans-54" x="204.939453"/>
     <use xlink:href="#DejaVuSans-69" x="262.898438"/>
     <use xlink:href="#DejaVuSans-74" x="290.681641"/>
     <use xlink:href="#DejaVuSans-72" x="329.890625"/>
     <use xlink:href="#DejaVuSans-61" x="371.003906"/>
     <use xlink:href="#DejaVuSans-74" x="432.283203"/>
     <use xlink:href="#DejaVuSans-69" x="471.492188"/>
     <use xlink:href="#DejaVuSans-6f" x="499.275391"/>
     <use xlink:href="#DejaVuSans-6e" x="560.457031"/>
     <use xlink:href="#DejaVuSans-20" x="623.835938"/>
     <use xlink:href="#DejaVuSans-6f" x="655.623047"/>
     <use xlink:href="#DejaVuSans-66" x="716.804688"/>
     <use xlink:href="#DejaVuSans-20" x="752.009766"/>
     <use xlink:href="#DejaVuSans-41" x="783.796875"/>
     <use xlink:href="#DejaVuSans-6c" x="852.205078"/>
     <use xlink:href="#DejaVuSans-69" x="879.988281"/>
     <use xlink:href="#DejaVuSans-7a" x="907.771484"/>
     <use xlink:href="#DejaVuSans-61" x="960.261719"/>
     <use xlink:href="#DejaVuSans-72" x="1021.541016"/>
     <use xlink:href="#DejaVuSans-69" x="1062.654297"/>
     <use xlink:href="#DejaVuSans-6e" x="1090.4375"/>
     <use xlink:href="#DejaVuSans-3a" x="1153.816406"/>
     <use xlink:href="#DejaVuSans-6f" x="1187.507812"/>
     <use xlink:href="#DejaVuSans-6d" x="1248.689453"/>
     <use xlink:href="#DejaVuSans-70" x="1346.101562"/>
     <use xlink:href="#DejaVuSans-50" x="1409.578125"/>
     <use xlink:href="#DejaVuSans-42" x="1469.880859"/>
     <use xlink:href="#DejaVuSans-41" x="1538.484375"/>
     <use xlink:href="#DejaVuSans-20" x="1606.892578"/>
     <use xlink:href="#DejaVuSans-63" x="1638.679688"/>
     <use xlink:href="#DejaVuSans-6f" x="1693.660156"/>
     <use xlink:href="#DejaVuSans-6d" x="1754.841797"/>
     <use xlink:href="#DejaVuSans-70" x="1852.253906"/>
     <use xlink:href="#DejaVuSans-6c" x="1915.730469"/>
     <use xlink:href="#DejaVuSans-65" x="1943.513672"/>
     <use xlink:href="#DejaVuSans-78" x="2003.287109"/>
     <use xlink:href="#DejaVuSans-20" x="2062.466797"/>
     <use xlink:href="#DejaVuSans-26" x="2094.253906"/>
     <use xlink:href="#DejaVuSans-20" x="2172.232422"/>
     <use xlink:href="#DejaVuSans-43" x="2204.019531"/>
     <use xlink:href="#DejaVuSans-61" x="2273.84375"/>
     <use xlink:href="#DejaVuSans-74" x="2335.123047"/>
     <use xlink:href="#DejaVuSans-65" x="2374.332031"/>
     <use xlink:href="#DejaVuSans-63" x="2435.855469"/>
     <use xlink:href="#DejaVuSans-68" x="2490.835938"/>
     <use xlink:href="#DejaVuSans-6f" x="2554.214844"/>
     <use xlink:href="#DejaVuSans-6c" x="2615.396484"/>
     <use xlink:href="#DejaVuSans-20" x="2643.179688"/>
     <use xlink:href="#DejaVuSans-69" x="2674.966797"/>
     <use xlink:href="#DejaVuSans-6e" x="2702.75"/>
     <use xlink:href="#DejaVuSans-20" x="2766.128906"/>
     <use xlink:href="#DejaVuSans-41" x="2797.916016"/>
     <use xlink:href="#DejaVuSans-63" x="2864.574219"/>
     <use xlink:href="#DejaVuSans-65" x="2919.554688"/>
     <use xlink:href="#DejaVuSans-74" x="2981.078125"/>
     <use xlink:href="#DejaVuSans-6f" x="3020.287109"/>
     <use xlink:href="#DejaVuSans-6e" x="3081.46875"/>
     <use xlink:href="#DejaVuSans-65" x="3144.847656"/>
     <use xlink:href="#DejaVuSans-20" x="3206.371094"/>
    </g>
    <!--  -->
    <g transform="translate(236.16 35.472) scale(0.12 -0.12)"/>
   </g>
  </g>
 </g>
 <defs>
  <clipPath id="p7031c48c52">
   <rect x="57.6" y="41.472" width="357.12" height="266.112"/>
  </clipPath>
 </defs>
</svg>
